%TF.GenerationSoftware,KiCad,Pcbnew,5.1.7*%
%TF.CreationDate,2020-12-16T02:54:48+00:00*%
%TF.ProjectId,HMC447LC3,484d4334-3437-44c4-9333-2e6b69636164,rev?*%
%TF.SameCoordinates,Original*%
%TF.FileFunction,Copper,L2,Inr*%
%TF.FilePolarity,Positive*%
%FSLAX46Y46*%
G04 Gerber Fmt 4.6, Leading zero omitted, Abs format (unit mm)*
G04 Created by KiCad (PCBNEW 5.1.7) date 2020-12-16 02:54:48*
%MOMM*%
%LPD*%
G01*
G04 APERTURE LIST*
%TA.AperFunction,ViaPad*%
%ADD10C,0.500000*%
%TD*%
%TA.AperFunction,Conductor*%
%ADD11C,0.254000*%
%TD*%
%TA.AperFunction,Conductor*%
%ADD12C,0.100000*%
%TD*%
G04 APERTURE END LIST*
D10*
%TO.N,GND*%
X149550000Y-93050000D03*
X149550000Y-93950000D03*
X150450000Y-93950000D03*
X150000000Y-93500000D03*
X150450000Y-93050000D03*
X152250000Y-84250000D03*
X151600000Y-95450000D03*
X151000000Y-95700000D03*
X150350000Y-95700000D03*
X149700000Y-95700000D03*
X149050000Y-95700000D03*
X135500000Y-95250000D03*
X136250000Y-95250000D03*
X137000000Y-95250000D03*
X137750000Y-95250000D03*
X138500000Y-95250000D03*
X139250000Y-95250000D03*
X140000000Y-95250000D03*
X140750000Y-95250000D03*
X164500000Y-95250000D03*
X163750000Y-95250000D03*
X163000000Y-95250000D03*
X162250000Y-95250000D03*
X161500000Y-95250000D03*
X160750000Y-95250000D03*
X160000000Y-95250000D03*
X159250000Y-95250000D03*
X152600000Y-95950000D03*
X135500000Y-96000000D03*
X135500000Y-96750000D03*
X135500000Y-92150000D03*
X135500000Y-91500000D03*
X135500000Y-90750000D03*
X136250000Y-90750000D03*
X137000000Y-90750000D03*
X136250000Y-92150000D03*
X137000000Y-92150000D03*
X137750000Y-92150000D03*
X138500000Y-92150000D03*
X139250000Y-92150000D03*
X140000000Y-92150000D03*
X140750000Y-92300000D03*
X159250000Y-92250000D03*
X160000000Y-92250000D03*
X160750000Y-92250000D03*
X161500000Y-92250000D03*
X162250000Y-92250000D03*
X163000000Y-92250000D03*
X163750000Y-92250000D03*
X164500000Y-92250000D03*
X164500000Y-91500000D03*
X164500000Y-90750000D03*
X163750000Y-90750000D03*
X163000000Y-90750000D03*
X162250000Y-90750000D03*
X161500000Y-90750000D03*
X160750000Y-90750000D03*
X160000000Y-90750000D03*
X164500000Y-96000000D03*
X164500000Y-96750000D03*
X163750000Y-96750000D03*
X163000000Y-96750000D03*
X162250000Y-96750000D03*
X161500000Y-96750000D03*
X160750000Y-96750000D03*
X160000000Y-96750000D03*
X137750000Y-90750000D03*
X138500000Y-90750000D03*
X139250000Y-90750000D03*
X140000000Y-90750000D03*
X136250000Y-96750000D03*
X137000000Y-96750000D03*
X137750000Y-96750000D03*
X138500000Y-96750000D03*
X139250000Y-96750000D03*
X140000000Y-96750000D03*
X164250000Y-86966537D03*
X164250000Y-85933075D03*
X164250000Y-84899612D03*
X164250000Y-83866150D03*
X164250000Y-82832687D03*
X164250000Y-81799225D03*
X164250000Y-80765763D03*
X164005091Y-79819967D03*
X162984236Y-79750000D03*
X161950774Y-79750000D03*
X160917312Y-79750000D03*
X159883849Y-79750000D03*
X158850387Y-79750000D03*
X157816924Y-79750000D03*
X156783462Y-79750000D03*
X164250000Y-88000000D03*
X155750000Y-79750000D03*
X156821428Y-80750000D03*
X157892857Y-80750000D03*
X158964285Y-80750000D03*
X160035714Y-80750000D03*
X161107142Y-80750000D03*
X162178571Y-80750000D03*
X163250000Y-81785714D03*
X163250000Y-82821428D03*
X163250000Y-83857142D03*
X163250000Y-84892857D03*
X163250000Y-85928571D03*
X163250000Y-86964285D03*
X155750000Y-80750000D03*
X163250000Y-80750000D03*
X163250000Y-88000000D03*
X136750000Y-86964285D03*
X136750000Y-85928571D03*
X136750000Y-84892857D03*
X136750000Y-83857142D03*
X136750000Y-82821428D03*
X136750000Y-81785714D03*
X137821428Y-80750000D03*
X138892857Y-80750000D03*
X139964285Y-80750000D03*
X141035714Y-80750000D03*
X142107142Y-80750000D03*
X143178571Y-80750000D03*
X136750000Y-88000000D03*
X136750000Y-80750000D03*
X144250000Y-80750000D03*
X143216537Y-79750000D03*
X142183075Y-79750000D03*
X141149612Y-79750000D03*
X140116150Y-79750000D03*
X139082687Y-79750000D03*
X138049225Y-79750000D03*
X137015763Y-79750000D03*
X135994908Y-79819967D03*
X135750000Y-80765763D03*
X135750000Y-81799225D03*
X135750000Y-82832687D03*
X135750000Y-83866150D03*
X135750000Y-84899612D03*
X135750000Y-85933075D03*
X135750000Y-86966537D03*
X144250000Y-79750000D03*
X135750000Y-88000000D03*
X135750000Y-100512684D03*
X135750000Y-101525368D03*
X135750000Y-102538053D03*
X135750000Y-103550737D03*
X135750000Y-104563421D03*
X135750000Y-105576106D03*
X135750000Y-106588790D03*
X135750000Y-107601475D03*
X136328760Y-108250000D03*
X137341445Y-108250000D03*
X138354129Y-108250000D03*
X139366814Y-108250000D03*
X140379498Y-108250000D03*
X141392182Y-108250000D03*
X142404867Y-108250000D03*
X143417551Y-108250000D03*
X144430235Y-108250000D03*
X145442920Y-108250000D03*
X146455604Y-108250000D03*
X147468289Y-108250000D03*
X148480973Y-108250000D03*
X149493657Y-108250000D03*
X150506342Y-108250000D03*
X151519026Y-108250000D03*
X152531710Y-108250000D03*
X153544395Y-108250000D03*
X154557079Y-108250000D03*
X155569764Y-108250000D03*
X156582448Y-108250000D03*
X157595132Y-108250000D03*
X158607817Y-108250000D03*
X159620501Y-108250000D03*
X160633185Y-108250000D03*
X161645870Y-108250000D03*
X162658554Y-108250000D03*
X163671239Y-108250000D03*
X164250000Y-107601475D03*
X164250000Y-106588790D03*
X164250000Y-105576106D03*
X164250000Y-104563421D03*
X164250000Y-103550737D03*
X164250000Y-102538053D03*
X164250000Y-101525368D03*
X164250000Y-100512684D03*
X135750000Y-99500000D03*
X164250000Y-99500000D03*
X163250000Y-100607142D03*
X163250000Y-101714285D03*
X163250000Y-102821428D03*
X163250000Y-103928571D03*
X163250000Y-105035714D03*
X163250000Y-106142857D03*
X162230769Y-107250000D03*
X161211538Y-107250000D03*
X160192307Y-107250000D03*
X159173076Y-107250000D03*
X158153846Y-107250000D03*
X157134615Y-107250000D03*
X156115384Y-107250000D03*
X155096153Y-107250000D03*
X154076923Y-107250000D03*
X153057692Y-107250000D03*
X152038461Y-107250000D03*
X151019230Y-107250000D03*
X150000000Y-107250000D03*
X148980769Y-107250000D03*
X147961538Y-107250000D03*
X146942307Y-107250000D03*
X145923076Y-107250000D03*
X144903846Y-107250000D03*
X143884615Y-107250000D03*
X142865384Y-107250000D03*
X141846153Y-107250000D03*
X140826923Y-107250000D03*
X139807692Y-107250000D03*
X138788461Y-107250000D03*
X137769230Y-107250000D03*
X136750000Y-106142857D03*
X136750000Y-105035714D03*
X136750000Y-103928571D03*
X136750000Y-102821428D03*
X136750000Y-101714285D03*
X136750000Y-100607142D03*
X163250000Y-99500000D03*
X163250000Y-107250000D03*
X136750000Y-107250000D03*
X136750000Y-99500000D03*
X144250000Y-81750000D03*
X144250000Y-82750000D03*
X144250000Y-83750000D03*
X144250000Y-84750000D03*
X145250000Y-84750000D03*
X146250000Y-84500000D03*
X147000000Y-84000000D03*
X147000000Y-83250000D03*
X147000000Y-82500000D03*
X147000000Y-81750000D03*
X147000000Y-81000000D03*
X147000000Y-80250000D03*
X147000000Y-79500000D03*
X147750000Y-79500000D03*
X148500000Y-79500000D03*
X148500000Y-80250000D03*
X148500000Y-81000000D03*
X148500000Y-81750000D03*
X148500000Y-82500000D03*
X148500000Y-83250000D03*
X148500000Y-84000000D03*
X147750000Y-84250000D03*
X155750000Y-81750000D03*
X155750000Y-82750000D03*
X155750000Y-83750000D03*
X153000000Y-84000000D03*
X153000000Y-83250000D03*
X153000000Y-82500000D03*
X153000000Y-81750000D03*
X153000000Y-81000000D03*
X153000000Y-80250000D03*
X153000000Y-79500000D03*
X152250000Y-79500000D03*
X151500000Y-79500000D03*
X151500000Y-80250000D03*
X151500000Y-81000000D03*
X151500000Y-81750000D03*
X151500000Y-82500000D03*
X151500000Y-83250000D03*
X151500000Y-84000000D03*
X138404999Y-85654999D03*
X138404999Y-99654999D03*
X139804999Y-87754999D03*
X140504999Y-101054999D03*
X141204999Y-98254999D03*
X141204999Y-103854999D03*
X141904999Y-85654999D03*
X141904999Y-89154999D03*
X142604999Y-82154999D03*
X142604999Y-105954999D03*
X143304999Y-96854999D03*
X143304999Y-100354999D03*
X144004999Y-103154999D03*
X145404999Y-98254999D03*
X145404999Y-105254999D03*
X146104999Y-101054999D03*
X147504999Y-103154999D03*
X148204999Y-98954999D03*
X148204999Y-105954999D03*
X149604999Y-101054999D03*
X150304999Y-103854999D03*
X151004999Y-98254999D03*
X151704999Y-105954999D03*
X152404999Y-100354999D03*
X153104999Y-96854999D03*
X153104999Y-103154999D03*
X154504999Y-98954999D03*
X154504999Y-105254999D03*
X155204999Y-101754999D03*
X156604999Y-96854999D03*
X156604999Y-103854999D03*
X157304999Y-82154999D03*
X157304999Y-99654999D03*
X158004999Y-105954999D03*
X158704999Y-84254999D03*
X158704999Y-101754999D03*
X160104999Y-86354999D03*
X160804999Y-99654999D03*
X144250000Y-87000000D03*
X144000000Y-90500000D03*
X146250000Y-88500000D03*
X158200000Y-89600000D03*
X162000000Y-101800000D03*
X141200000Y-92650000D03*
X141900000Y-92650000D03*
X142600000Y-92700000D03*
X143300000Y-92850000D03*
X144000000Y-92850000D03*
X144700000Y-92850000D03*
X145400000Y-92850000D03*
X146100000Y-92850000D03*
X141200000Y-94850000D03*
X141900000Y-94850000D03*
X142600000Y-94800000D03*
X143300000Y-94650000D03*
X144000000Y-94650000D03*
X144700000Y-94650000D03*
X145400000Y-94650000D03*
X146100000Y-94650000D03*
X146800000Y-94650000D03*
X147500000Y-94650000D03*
X148000000Y-95000000D03*
X158800000Y-92650000D03*
X158100000Y-92650000D03*
X157400000Y-92700000D03*
X156700000Y-92850000D03*
X156000000Y-92850000D03*
X155300000Y-92850000D03*
X154600000Y-92850000D03*
X153875000Y-92850000D03*
X153175000Y-92850000D03*
X152500000Y-92850000D03*
X148450000Y-95450000D03*
X158800000Y-94850000D03*
X158100000Y-94850000D03*
X157400000Y-94800000D03*
X156700000Y-94650000D03*
X156000000Y-94650000D03*
X155300000Y-94650000D03*
X154600000Y-94650000D03*
X153900000Y-94650000D03*
X153200000Y-94650000D03*
X152500000Y-94650000D03*
X152000000Y-95000000D03*
X156400000Y-91800000D03*
X147500000Y-92850000D03*
X146800000Y-92850000D03*
X146000000Y-91750000D03*
X157400000Y-86850000D03*
X162400000Y-87700000D03*
X159200000Y-87800000D03*
X153750000Y-84500000D03*
X155750000Y-84750000D03*
X154750000Y-84750000D03*
X149000000Y-84750000D03*
X148750000Y-85500000D03*
X148750000Y-86250000D03*
X149000000Y-87000000D03*
X149000000Y-87750000D03*
X149000000Y-88500000D03*
X149000000Y-89250000D03*
X149000000Y-90000000D03*
X149000000Y-90750000D03*
X148750000Y-91500000D03*
X148250000Y-92000000D03*
X151250000Y-91500000D03*
X151750000Y-92000000D03*
X151750000Y-91000000D03*
X151750000Y-90250000D03*
X152500000Y-90250000D03*
X152500000Y-89500000D03*
X152500000Y-88750000D03*
X152500000Y-88000000D03*
X153000000Y-87500000D03*
X154000000Y-86750000D03*
X154000000Y-86000000D03*
X154000000Y-85250000D03*
X151000000Y-87500000D03*
X151500000Y-88000000D03*
X152000000Y-87500000D03*
X156250000Y-88500000D03*
X155000000Y-90250000D03*
X154500000Y-87250000D03*
X156000000Y-86000000D03*
X146500000Y-85500000D03*
X148000000Y-90250000D03*
X147000000Y-96850000D03*
X153750000Y-87500000D03*
%TD*%
D11*
%TO.N,GND*%
X164648000Y-108648000D02*
X135352000Y-108648000D01*
X135352000Y-106562845D01*
X137616761Y-106562845D01*
X137784802Y-106888643D01*
X138176607Y-107089426D01*
X138600055Y-107209914D01*
X139038873Y-107245476D01*
X139476197Y-107194746D01*
X139895221Y-107059674D01*
X140215198Y-106888643D01*
X140383239Y-106562845D01*
X159616761Y-106562845D01*
X159784802Y-106888643D01*
X160176607Y-107089426D01*
X160600055Y-107209914D01*
X161038873Y-107245476D01*
X161476197Y-107194746D01*
X161895221Y-107059674D01*
X162215198Y-106888643D01*
X162383239Y-106562845D01*
X161000000Y-105179605D01*
X159616761Y-106562845D01*
X140383239Y-106562845D01*
X139000000Y-105179605D01*
X137616761Y-106562845D01*
X135352000Y-106562845D01*
X135352000Y-105038873D01*
X136754524Y-105038873D01*
X136805254Y-105476197D01*
X136940326Y-105895221D01*
X137111357Y-106215198D01*
X137437155Y-106383239D01*
X138820395Y-105000000D01*
X139179605Y-105000000D01*
X140562845Y-106383239D01*
X140888643Y-106215198D01*
X141089426Y-105823393D01*
X141209914Y-105399945D01*
X141239175Y-105038873D01*
X158754524Y-105038873D01*
X158805254Y-105476197D01*
X158940326Y-105895221D01*
X159111357Y-106215198D01*
X159437155Y-106383239D01*
X160820395Y-105000000D01*
X161179605Y-105000000D01*
X162562845Y-106383239D01*
X162888643Y-106215198D01*
X163089426Y-105823393D01*
X163209914Y-105399945D01*
X163245476Y-104961127D01*
X163194746Y-104523803D01*
X163059674Y-104104779D01*
X162888643Y-103784802D01*
X162562845Y-103616761D01*
X161179605Y-105000000D01*
X160820395Y-105000000D01*
X159437155Y-103616761D01*
X159111357Y-103784802D01*
X158910574Y-104176607D01*
X158790086Y-104600055D01*
X158754524Y-105038873D01*
X141239175Y-105038873D01*
X141245476Y-104961127D01*
X141194746Y-104523803D01*
X141059674Y-104104779D01*
X140888643Y-103784802D01*
X140562845Y-103616761D01*
X139179605Y-105000000D01*
X138820395Y-105000000D01*
X137437155Y-103616761D01*
X137111357Y-103784802D01*
X136910574Y-104176607D01*
X136790086Y-104600055D01*
X136754524Y-105038873D01*
X135352000Y-105038873D01*
X135352000Y-103437155D01*
X137616761Y-103437155D01*
X139000000Y-104820395D01*
X140383239Y-103437155D01*
X159616761Y-103437155D01*
X161000000Y-104820395D01*
X162383239Y-103437155D01*
X162215198Y-103111357D01*
X161823393Y-102910574D01*
X161399945Y-102790086D01*
X160961127Y-102754524D01*
X160523803Y-102805254D01*
X160104779Y-102940326D01*
X159784802Y-103111357D01*
X159616761Y-103437155D01*
X140383239Y-103437155D01*
X140215198Y-103111357D01*
X139823393Y-102910574D01*
X139399945Y-102790086D01*
X138961127Y-102754524D01*
X138523803Y-102805254D01*
X138104779Y-102940326D01*
X137784802Y-103111357D01*
X137616761Y-103437155D01*
X135352000Y-103437155D01*
X135352000Y-84562845D01*
X137616761Y-84562845D01*
X137784802Y-84888643D01*
X138176607Y-85089426D01*
X138600055Y-85209914D01*
X139038873Y-85245476D01*
X139476197Y-85194746D01*
X139895221Y-85059674D01*
X140215198Y-84888643D01*
X140383239Y-84562845D01*
X159616761Y-84562845D01*
X159784802Y-84888643D01*
X160176607Y-85089426D01*
X160600055Y-85209914D01*
X161038873Y-85245476D01*
X161476197Y-85194746D01*
X161895221Y-85059674D01*
X162215198Y-84888643D01*
X162383239Y-84562845D01*
X161000000Y-83179605D01*
X159616761Y-84562845D01*
X140383239Y-84562845D01*
X139000000Y-83179605D01*
X137616761Y-84562845D01*
X135352000Y-84562845D01*
X135352000Y-83038873D01*
X136754524Y-83038873D01*
X136805254Y-83476197D01*
X136940326Y-83895221D01*
X137111357Y-84215198D01*
X137437155Y-84383239D01*
X138820395Y-83000000D01*
X139179605Y-83000000D01*
X140562845Y-84383239D01*
X140888643Y-84215198D01*
X141089426Y-83823393D01*
X141209914Y-83399945D01*
X141239175Y-83038873D01*
X158754524Y-83038873D01*
X158805254Y-83476197D01*
X158940326Y-83895221D01*
X159111357Y-84215198D01*
X159437155Y-84383239D01*
X160820395Y-83000000D01*
X161179605Y-83000000D01*
X162562845Y-84383239D01*
X162888643Y-84215198D01*
X163089426Y-83823393D01*
X163209914Y-83399945D01*
X163245476Y-82961127D01*
X163194746Y-82523803D01*
X163059674Y-82104779D01*
X162888643Y-81784802D01*
X162562845Y-81616761D01*
X161179605Y-83000000D01*
X160820395Y-83000000D01*
X159437155Y-81616761D01*
X159111357Y-81784802D01*
X158910574Y-82176607D01*
X158790086Y-82600055D01*
X158754524Y-83038873D01*
X141239175Y-83038873D01*
X141245476Y-82961127D01*
X141194746Y-82523803D01*
X141059674Y-82104779D01*
X140888643Y-81784802D01*
X140562845Y-81616761D01*
X139179605Y-83000000D01*
X138820395Y-83000000D01*
X137437155Y-81616761D01*
X137111357Y-81784802D01*
X136910574Y-82176607D01*
X136790086Y-82600055D01*
X136754524Y-83038873D01*
X135352000Y-83038873D01*
X135352000Y-81437155D01*
X137616761Y-81437155D01*
X139000000Y-82820395D01*
X140383239Y-81437155D01*
X159616761Y-81437155D01*
X161000000Y-82820395D01*
X162383239Y-81437155D01*
X162215198Y-81111357D01*
X161823393Y-80910574D01*
X161399945Y-80790086D01*
X160961127Y-80754524D01*
X160523803Y-80805254D01*
X160104779Y-80940326D01*
X159784802Y-81111357D01*
X159616761Y-81437155D01*
X140383239Y-81437155D01*
X140215198Y-81111357D01*
X139823393Y-80910574D01*
X139399945Y-80790086D01*
X138961127Y-80754524D01*
X138523803Y-80805254D01*
X138104779Y-80940326D01*
X137784802Y-81111357D01*
X137616761Y-81437155D01*
X135352000Y-81437155D01*
X135352000Y-79352000D01*
X164648001Y-79352000D01*
X164648000Y-108648000D01*
%TA.AperFunction,Conductor*%
D12*
G36*
X164648000Y-108648000D02*
G01*
X135352000Y-108648000D01*
X135352000Y-106562845D01*
X137616761Y-106562845D01*
X137784802Y-106888643D01*
X138176607Y-107089426D01*
X138600055Y-107209914D01*
X139038873Y-107245476D01*
X139476197Y-107194746D01*
X139895221Y-107059674D01*
X140215198Y-106888643D01*
X140383239Y-106562845D01*
X159616761Y-106562845D01*
X159784802Y-106888643D01*
X160176607Y-107089426D01*
X160600055Y-107209914D01*
X161038873Y-107245476D01*
X161476197Y-107194746D01*
X161895221Y-107059674D01*
X162215198Y-106888643D01*
X162383239Y-106562845D01*
X161000000Y-105179605D01*
X159616761Y-106562845D01*
X140383239Y-106562845D01*
X139000000Y-105179605D01*
X137616761Y-106562845D01*
X135352000Y-106562845D01*
X135352000Y-105038873D01*
X136754524Y-105038873D01*
X136805254Y-105476197D01*
X136940326Y-105895221D01*
X137111357Y-106215198D01*
X137437155Y-106383239D01*
X138820395Y-105000000D01*
X139179605Y-105000000D01*
X140562845Y-106383239D01*
X140888643Y-106215198D01*
X141089426Y-105823393D01*
X141209914Y-105399945D01*
X141239175Y-105038873D01*
X158754524Y-105038873D01*
X158805254Y-105476197D01*
X158940326Y-105895221D01*
X159111357Y-106215198D01*
X159437155Y-106383239D01*
X160820395Y-105000000D01*
X161179605Y-105000000D01*
X162562845Y-106383239D01*
X162888643Y-106215198D01*
X163089426Y-105823393D01*
X163209914Y-105399945D01*
X163245476Y-104961127D01*
X163194746Y-104523803D01*
X163059674Y-104104779D01*
X162888643Y-103784802D01*
X162562845Y-103616761D01*
X161179605Y-105000000D01*
X160820395Y-105000000D01*
X159437155Y-103616761D01*
X159111357Y-103784802D01*
X158910574Y-104176607D01*
X158790086Y-104600055D01*
X158754524Y-105038873D01*
X141239175Y-105038873D01*
X141245476Y-104961127D01*
X141194746Y-104523803D01*
X141059674Y-104104779D01*
X140888643Y-103784802D01*
X140562845Y-103616761D01*
X139179605Y-105000000D01*
X138820395Y-105000000D01*
X137437155Y-103616761D01*
X137111357Y-103784802D01*
X136910574Y-104176607D01*
X136790086Y-104600055D01*
X136754524Y-105038873D01*
X135352000Y-105038873D01*
X135352000Y-103437155D01*
X137616761Y-103437155D01*
X139000000Y-104820395D01*
X140383239Y-103437155D01*
X159616761Y-103437155D01*
X161000000Y-104820395D01*
X162383239Y-103437155D01*
X162215198Y-103111357D01*
X161823393Y-102910574D01*
X161399945Y-102790086D01*
X160961127Y-102754524D01*
X160523803Y-102805254D01*
X160104779Y-102940326D01*
X159784802Y-103111357D01*
X159616761Y-103437155D01*
X140383239Y-103437155D01*
X140215198Y-103111357D01*
X139823393Y-102910574D01*
X139399945Y-102790086D01*
X138961127Y-102754524D01*
X138523803Y-102805254D01*
X138104779Y-102940326D01*
X137784802Y-103111357D01*
X137616761Y-103437155D01*
X135352000Y-103437155D01*
X135352000Y-84562845D01*
X137616761Y-84562845D01*
X137784802Y-84888643D01*
X138176607Y-85089426D01*
X138600055Y-85209914D01*
X139038873Y-85245476D01*
X139476197Y-85194746D01*
X139895221Y-85059674D01*
X140215198Y-84888643D01*
X140383239Y-84562845D01*
X159616761Y-84562845D01*
X159784802Y-84888643D01*
X160176607Y-85089426D01*
X160600055Y-85209914D01*
X161038873Y-85245476D01*
X161476197Y-85194746D01*
X161895221Y-85059674D01*
X162215198Y-84888643D01*
X162383239Y-84562845D01*
X161000000Y-83179605D01*
X159616761Y-84562845D01*
X140383239Y-84562845D01*
X139000000Y-83179605D01*
X137616761Y-84562845D01*
X135352000Y-84562845D01*
X135352000Y-83038873D01*
X136754524Y-83038873D01*
X136805254Y-83476197D01*
X136940326Y-83895221D01*
X137111357Y-84215198D01*
X137437155Y-84383239D01*
X138820395Y-83000000D01*
X139179605Y-83000000D01*
X140562845Y-84383239D01*
X140888643Y-84215198D01*
X141089426Y-83823393D01*
X141209914Y-83399945D01*
X141239175Y-83038873D01*
X158754524Y-83038873D01*
X158805254Y-83476197D01*
X158940326Y-83895221D01*
X159111357Y-84215198D01*
X159437155Y-84383239D01*
X160820395Y-83000000D01*
X161179605Y-83000000D01*
X162562845Y-84383239D01*
X162888643Y-84215198D01*
X163089426Y-83823393D01*
X163209914Y-83399945D01*
X163245476Y-82961127D01*
X163194746Y-82523803D01*
X163059674Y-82104779D01*
X162888643Y-81784802D01*
X162562845Y-81616761D01*
X161179605Y-83000000D01*
X160820395Y-83000000D01*
X159437155Y-81616761D01*
X159111357Y-81784802D01*
X158910574Y-82176607D01*
X158790086Y-82600055D01*
X158754524Y-83038873D01*
X141239175Y-83038873D01*
X141245476Y-82961127D01*
X141194746Y-82523803D01*
X141059674Y-82104779D01*
X140888643Y-81784802D01*
X140562845Y-81616761D01*
X139179605Y-83000000D01*
X138820395Y-83000000D01*
X137437155Y-81616761D01*
X137111357Y-81784802D01*
X136910574Y-82176607D01*
X136790086Y-82600055D01*
X136754524Y-83038873D01*
X135352000Y-83038873D01*
X135352000Y-81437155D01*
X137616761Y-81437155D01*
X139000000Y-82820395D01*
X140383239Y-81437155D01*
X159616761Y-81437155D01*
X161000000Y-82820395D01*
X162383239Y-81437155D01*
X162215198Y-81111357D01*
X161823393Y-80910574D01*
X161399945Y-80790086D01*
X160961127Y-80754524D01*
X160523803Y-80805254D01*
X160104779Y-80940326D01*
X159784802Y-81111357D01*
X159616761Y-81437155D01*
X140383239Y-81437155D01*
X140215198Y-81111357D01*
X139823393Y-80910574D01*
X139399945Y-80790086D01*
X138961127Y-80754524D01*
X138523803Y-80805254D01*
X138104779Y-80940326D01*
X137784802Y-81111357D01*
X137616761Y-81437155D01*
X135352000Y-81437155D01*
X135352000Y-79352000D01*
X164648001Y-79352000D01*
X164648000Y-108648000D01*
G37*
%TD.AperFunction*%
%TD*%
M02*
