%TF.GenerationSoftware,KiCad,Pcbnew,5.1.7*%
%TF.CreationDate,2020-12-16T02:54:48+00:00*%
%TF.ProjectId,HMC447LC3,484d4334-3437-44c4-9333-2e6b69636164,rev?*%
%TF.SameCoordinates,Original*%
%TF.FileFunction,Soldermask,Top*%
%TF.FilePolarity,Negative*%
%FSLAX46Y46*%
G04 Gerber Fmt 4.6, Leading zero omitted, Abs format (unit mm)*
G04 Created by KiCad (PCBNEW 5.1.7) date 2020-12-16 02:54:48*
%MOMM*%
%LPD*%
G01*
G04 APERTURE LIST*
%ADD10C,0.800000*%
%ADD11C,0.100000*%
%ADD12C,3.300000*%
G04 APERTURE END LIST*
D10*
X148400000Y-85000000D02*
X148400000Y-92500000D01*
D11*
G36*
X165000000Y-94900000D02*
G01*
X152100000Y-94900000D01*
X152100000Y-94000000D01*
X151700000Y-93750000D01*
X152100000Y-93500000D01*
X152100000Y-92600000D01*
X165000000Y-92600000D01*
X165000000Y-94900000D01*
G37*
X165000000Y-94900000D02*
X152100000Y-94900000D01*
X152100000Y-94000000D01*
X151700000Y-93750000D01*
X152100000Y-93500000D01*
X152100000Y-92600000D01*
X165000000Y-92600000D01*
X165000000Y-94900000D01*
G36*
X147900000Y-93500000D02*
G01*
X148400000Y-93750000D01*
X147900000Y-94000000D01*
X147900000Y-94900000D01*
X135000000Y-94900000D01*
X135000000Y-92600000D01*
X147900000Y-92600000D01*
X147900000Y-93500000D01*
G37*
X147900000Y-93500000D02*
X148400000Y-93750000D01*
X147900000Y-94000000D01*
X147900000Y-94900000D01*
X135000000Y-94900000D01*
X135000000Y-92600000D01*
X147900000Y-92600000D01*
X147900000Y-93500000D01*
D10*
X148400000Y-95500000D02*
X148400000Y-107600000D01*
D11*
G36*
X165000000Y-109000000D02*
G01*
X135000000Y-109000000D01*
X135000000Y-107000000D01*
X165000000Y-107000000D01*
X165000000Y-109000000D01*
G37*
X165000000Y-109000000D02*
X135000000Y-109000000D01*
X135000000Y-107000000D01*
X165000000Y-107000000D01*
X165000000Y-109000000D01*
G36*
X165000000Y-81000000D02*
G01*
X154750000Y-81000000D01*
X154750000Y-79000000D01*
X165000000Y-79000000D01*
X165000000Y-81000000D01*
G37*
X165000000Y-81000000D02*
X154750000Y-81000000D01*
X154750000Y-79000000D01*
X165000000Y-79000000D01*
X165000000Y-81000000D01*
G36*
X145250000Y-81000000D02*
G01*
X135000000Y-81000000D01*
X135000000Y-79000000D01*
X145250000Y-79000000D01*
X145250000Y-81000000D01*
G37*
X145250000Y-81000000D02*
X135000000Y-81000000D01*
X135000000Y-79000000D01*
X145250000Y-79000000D01*
X145250000Y-81000000D01*
G36*
X137000000Y-89250000D02*
G01*
X135000000Y-89250000D01*
X135000000Y-79000000D01*
X137000000Y-79000000D01*
X137000000Y-89250000D01*
G37*
X137000000Y-89250000D02*
X135000000Y-89250000D01*
X135000000Y-79000000D01*
X137000000Y-79000000D01*
X137000000Y-89250000D01*
G36*
X137000000Y-109000000D02*
G01*
X135000000Y-109000000D01*
X135000000Y-98750000D01*
X137000000Y-98750000D01*
X137000000Y-109000000D01*
G37*
X137000000Y-109000000D02*
X135000000Y-109000000D01*
X135000000Y-98750000D01*
X137000000Y-98750000D01*
X137000000Y-109000000D01*
G36*
X165000000Y-109000000D02*
G01*
X163000000Y-109000000D01*
X163000000Y-98750000D01*
X165000000Y-98750000D01*
X165000000Y-109000000D01*
G37*
X165000000Y-109000000D02*
X163000000Y-109000000D01*
X163000000Y-98750000D01*
X165000000Y-98750000D01*
X165000000Y-109000000D01*
G36*
X165000000Y-89250000D02*
G01*
X163000000Y-89250000D01*
X163000000Y-79000000D01*
X165000000Y-79000000D01*
X165000000Y-89250000D01*
G37*
X165000000Y-89250000D02*
X163000000Y-89250000D01*
X163000000Y-79000000D01*
X165000000Y-79000000D01*
X165000000Y-89250000D01*
%TO.C,U1*%
G36*
G01*
X148260000Y-92905000D02*
X148260000Y-92655000D01*
G75*
G02*
X148310000Y-92605000I50000J0D01*
G01*
X148950000Y-92605000D01*
G75*
G02*
X149000000Y-92655000I0J-50000D01*
G01*
X149000000Y-92905000D01*
G75*
G02*
X148950000Y-92955000I-50000J0D01*
G01*
X148310000Y-92955000D01*
G75*
G02*
X148260000Y-92905000I0J50000D01*
G01*
G37*
G36*
G01*
X148260000Y-93385000D02*
X148260000Y-93135000D01*
G75*
G02*
X148310000Y-93085000I50000J0D01*
G01*
X148950000Y-93085000D01*
G75*
G02*
X149000000Y-93135000I0J-50000D01*
G01*
X149000000Y-93385000D01*
G75*
G02*
X148950000Y-93435000I-50000J0D01*
G01*
X148310000Y-93435000D01*
G75*
G02*
X148260000Y-93385000I0J50000D01*
G01*
G37*
G36*
G01*
X148260000Y-93865000D02*
X148260000Y-93615000D01*
G75*
G02*
X148310000Y-93565000I50000J0D01*
G01*
X148950000Y-93565000D01*
G75*
G02*
X149000000Y-93615000I0J-50000D01*
G01*
X149000000Y-93865000D01*
G75*
G02*
X148950000Y-93915000I-50000J0D01*
G01*
X148310000Y-93915000D01*
G75*
G02*
X148260000Y-93865000I0J50000D01*
G01*
G37*
G36*
G01*
X148260000Y-94345000D02*
X148260000Y-94095000D01*
G75*
G02*
X148310000Y-94045000I50000J0D01*
G01*
X148950000Y-94045000D01*
G75*
G02*
X149000000Y-94095000I0J-50000D01*
G01*
X149000000Y-94345000D01*
G75*
G02*
X148950000Y-94395000I-50000J0D01*
G01*
X148310000Y-94395000D01*
G75*
G02*
X148260000Y-94345000I0J50000D01*
G01*
G37*
G36*
G01*
X149405000Y-95240000D02*
X149155000Y-95240000D01*
G75*
G02*
X149105000Y-95190000I0J50000D01*
G01*
X149105000Y-94550000D01*
G75*
G02*
X149155000Y-94500000I50000J0D01*
G01*
X149405000Y-94500000D01*
G75*
G02*
X149455000Y-94550000I0J-50000D01*
G01*
X149455000Y-95190000D01*
G75*
G02*
X149405000Y-95240000I-50000J0D01*
G01*
G37*
G36*
G01*
X149885000Y-95240000D02*
X149635000Y-95240000D01*
G75*
G02*
X149585000Y-95190000I0J50000D01*
G01*
X149585000Y-94550000D01*
G75*
G02*
X149635000Y-94500000I50000J0D01*
G01*
X149885000Y-94500000D01*
G75*
G02*
X149935000Y-94550000I0J-50000D01*
G01*
X149935000Y-95190000D01*
G75*
G02*
X149885000Y-95240000I-50000J0D01*
G01*
G37*
G36*
G01*
X150365000Y-95240000D02*
X150115000Y-95240000D01*
G75*
G02*
X150065000Y-95190000I0J50000D01*
G01*
X150065000Y-94550000D01*
G75*
G02*
X150115000Y-94500000I50000J0D01*
G01*
X150365000Y-94500000D01*
G75*
G02*
X150415000Y-94550000I0J-50000D01*
G01*
X150415000Y-95190000D01*
G75*
G02*
X150365000Y-95240000I-50000J0D01*
G01*
G37*
G36*
G01*
X150845000Y-95240000D02*
X150595000Y-95240000D01*
G75*
G02*
X150545000Y-95190000I0J50000D01*
G01*
X150545000Y-94550000D01*
G75*
G02*
X150595000Y-94500000I50000J0D01*
G01*
X150845000Y-94500000D01*
G75*
G02*
X150895000Y-94550000I0J-50000D01*
G01*
X150895000Y-95190000D01*
G75*
G02*
X150845000Y-95240000I-50000J0D01*
G01*
G37*
G36*
G01*
X151000000Y-94345000D02*
X151000000Y-94095000D01*
G75*
G02*
X151050000Y-94045000I50000J0D01*
G01*
X151690000Y-94045000D01*
G75*
G02*
X151740000Y-94095000I0J-50000D01*
G01*
X151740000Y-94345000D01*
G75*
G02*
X151690000Y-94395000I-50000J0D01*
G01*
X151050000Y-94395000D01*
G75*
G02*
X151000000Y-94345000I0J50000D01*
G01*
G37*
G36*
G01*
X151000000Y-93865000D02*
X151000000Y-93615000D01*
G75*
G02*
X151050000Y-93565000I50000J0D01*
G01*
X151690000Y-93565000D01*
G75*
G02*
X151740000Y-93615000I0J-50000D01*
G01*
X151740000Y-93865000D01*
G75*
G02*
X151690000Y-93915000I-50000J0D01*
G01*
X151050000Y-93915000D01*
G75*
G02*
X151000000Y-93865000I0J50000D01*
G01*
G37*
G36*
G01*
X151000000Y-93385000D02*
X151000000Y-93135000D01*
G75*
G02*
X151050000Y-93085000I50000J0D01*
G01*
X151690000Y-93085000D01*
G75*
G02*
X151740000Y-93135000I0J-50000D01*
G01*
X151740000Y-93385000D01*
G75*
G02*
X151690000Y-93435000I-50000J0D01*
G01*
X151050000Y-93435000D01*
G75*
G02*
X151000000Y-93385000I0J50000D01*
G01*
G37*
G36*
G01*
X151000000Y-92905000D02*
X151000000Y-92655000D01*
G75*
G02*
X151050000Y-92605000I50000J0D01*
G01*
X151690000Y-92605000D01*
G75*
G02*
X151740000Y-92655000I0J-50000D01*
G01*
X151740000Y-92905000D01*
G75*
G02*
X151690000Y-92955000I-50000J0D01*
G01*
X151050000Y-92955000D01*
G75*
G02*
X151000000Y-92905000I0J50000D01*
G01*
G37*
G36*
G01*
X150845000Y-92500000D02*
X150595000Y-92500000D01*
G75*
G02*
X150545000Y-92450000I0J50000D01*
G01*
X150545000Y-91810000D01*
G75*
G02*
X150595000Y-91760000I50000J0D01*
G01*
X150845000Y-91760000D01*
G75*
G02*
X150895000Y-91810000I0J-50000D01*
G01*
X150895000Y-92450000D01*
G75*
G02*
X150845000Y-92500000I-50000J0D01*
G01*
G37*
G36*
G01*
X150365000Y-92500000D02*
X150115000Y-92500000D01*
G75*
G02*
X150065000Y-92450000I0J50000D01*
G01*
X150065000Y-91810000D01*
G75*
G02*
X150115000Y-91760000I50000J0D01*
G01*
X150365000Y-91760000D01*
G75*
G02*
X150415000Y-91810000I0J-50000D01*
G01*
X150415000Y-92450000D01*
G75*
G02*
X150365000Y-92500000I-50000J0D01*
G01*
G37*
G36*
G01*
X149885000Y-92500000D02*
X149635000Y-92500000D01*
G75*
G02*
X149585000Y-92450000I0J50000D01*
G01*
X149585000Y-91810000D01*
G75*
G02*
X149635000Y-91760000I50000J0D01*
G01*
X149885000Y-91760000D01*
G75*
G02*
X149935000Y-91810000I0J-50000D01*
G01*
X149935000Y-92450000D01*
G75*
G02*
X149885000Y-92500000I-50000J0D01*
G01*
G37*
G36*
G01*
X149405000Y-92500000D02*
X149155000Y-92500000D01*
G75*
G02*
X149105000Y-92450000I0J50000D01*
G01*
X149105000Y-91810000D01*
G75*
G02*
X149155000Y-91760000I50000J0D01*
G01*
X149405000Y-91760000D01*
G75*
G02*
X149455000Y-91810000I0J-50000D01*
G01*
X149455000Y-92450000D01*
G75*
G02*
X149405000Y-92500000I-50000J0D01*
G01*
G37*
G36*
G01*
X149200000Y-94220000D02*
X149200000Y-92780000D01*
G75*
G02*
X149280000Y-92700000I80000J0D01*
G01*
X150720000Y-92700000D01*
G75*
G02*
X150800000Y-92780000I0J-80000D01*
G01*
X150800000Y-94220000D01*
G75*
G02*
X150720000Y-94300000I-80000J0D01*
G01*
X149280000Y-94300000D01*
G75*
G02*
X149200000Y-94220000I0J80000D01*
G01*
G37*
%TD*%
%TO.C,C3*%
G36*
G01*
X149655000Y-90747500D02*
X149655000Y-90352500D01*
G75*
G02*
X149827500Y-90180000I172500J0D01*
G01*
X150172500Y-90180000D01*
G75*
G02*
X150345000Y-90352500I0J-172500D01*
G01*
X150345000Y-90747500D01*
G75*
G02*
X150172500Y-90920000I-172500J0D01*
G01*
X149827500Y-90920000D01*
G75*
G02*
X149655000Y-90747500I0J172500D01*
G01*
G37*
G36*
G01*
X150625000Y-90747500D02*
X150625000Y-90352500D01*
G75*
G02*
X150797500Y-90180000I172500J0D01*
G01*
X151142500Y-90180000D01*
G75*
G02*
X151315000Y-90352500I0J-172500D01*
G01*
X151315000Y-90747500D01*
G75*
G02*
X151142500Y-90920000I-172500J0D01*
G01*
X150797500Y-90920000D01*
G75*
G02*
X150625000Y-90747500I0J172500D01*
G01*
G37*
%TD*%
%TO.C,J1*%
G36*
G01*
X135060000Y-92950000D02*
X140140000Y-92950000D01*
G75*
G02*
X140190000Y-93000000I0J-50000D01*
G01*
X140190000Y-94500000D01*
G75*
G02*
X140140000Y-94550000I-50000J0D01*
G01*
X135060000Y-94550000D01*
G75*
G02*
X135010000Y-94500000I0J50000D01*
G01*
X135010000Y-93000000D01*
G75*
G02*
X135060000Y-92950000I50000J0D01*
G01*
G37*
G36*
G01*
X135060000Y-97200000D02*
X140140000Y-97200000D01*
G75*
G02*
X140190000Y-97250000I0J-50000D01*
G01*
X140190000Y-98750000D01*
G75*
G02*
X140140000Y-98800000I-50000J0D01*
G01*
X135060000Y-98800000D01*
G75*
G02*
X135010000Y-98750000I0J50000D01*
G01*
X135010000Y-97250000D01*
G75*
G02*
X135060000Y-97200000I50000J0D01*
G01*
G37*
G36*
G01*
X135060000Y-88700000D02*
X140140000Y-88700000D01*
G75*
G02*
X140190000Y-88750000I0J-50000D01*
G01*
X140190000Y-90250000D01*
G75*
G02*
X140140000Y-90300000I-50000J0D01*
G01*
X135060000Y-90300000D01*
G75*
G02*
X135010000Y-90250000I0J50000D01*
G01*
X135010000Y-88750000D01*
G75*
G02*
X135060000Y-88700000I50000J0D01*
G01*
G37*
%TD*%
%TO.C,J2*%
G36*
G01*
X164940000Y-98800000D02*
X159860000Y-98800000D01*
G75*
G02*
X159810000Y-98750000I0J50000D01*
G01*
X159810000Y-97250000D01*
G75*
G02*
X159860000Y-97200000I50000J0D01*
G01*
X164940000Y-97200000D01*
G75*
G02*
X164990000Y-97250000I0J-50000D01*
G01*
X164990000Y-98750000D01*
G75*
G02*
X164940000Y-98800000I-50000J0D01*
G01*
G37*
G36*
G01*
X164940000Y-90300000D02*
X159860000Y-90300000D01*
G75*
G02*
X159810000Y-90250000I0J50000D01*
G01*
X159810000Y-88750000D01*
G75*
G02*
X159860000Y-88700000I50000J0D01*
G01*
X164940000Y-88700000D01*
G75*
G02*
X164990000Y-88750000I0J-50000D01*
G01*
X164990000Y-90250000D01*
G75*
G02*
X164940000Y-90300000I-50000J0D01*
G01*
G37*
G36*
G01*
X164940000Y-94550000D02*
X159860000Y-94550000D01*
G75*
G02*
X159810000Y-94500000I0J50000D01*
G01*
X159810000Y-93000000D01*
G75*
G02*
X159860000Y-92950000I50000J0D01*
G01*
X164940000Y-92950000D01*
G75*
G02*
X164990000Y-93000000I0J-50000D01*
G01*
X164990000Y-94500000D01*
G75*
G02*
X164940000Y-94550000I-50000J0D01*
G01*
G37*
%TD*%
%TO.C,J3*%
G36*
G01*
X150800000Y-79160000D02*
X150800000Y-84240000D01*
G75*
G02*
X150750000Y-84290000I-50000J0D01*
G01*
X149250000Y-84290000D01*
G75*
G02*
X149200000Y-84240000I0J50000D01*
G01*
X149200000Y-79160000D01*
G75*
G02*
X149250000Y-79110000I50000J0D01*
G01*
X150750000Y-79110000D01*
G75*
G02*
X150800000Y-79160000I0J-50000D01*
G01*
G37*
G36*
G01*
X146550000Y-79160000D02*
X146550000Y-84240000D01*
G75*
G02*
X146500000Y-84290000I-50000J0D01*
G01*
X145000000Y-84290000D01*
G75*
G02*
X144950000Y-84240000I0J50000D01*
G01*
X144950000Y-79160000D01*
G75*
G02*
X145000000Y-79110000I50000J0D01*
G01*
X146500000Y-79110000D01*
G75*
G02*
X146550000Y-79160000I0J-50000D01*
G01*
G37*
G36*
G01*
X155050000Y-79160000D02*
X155050000Y-84240000D01*
G75*
G02*
X155000000Y-84290000I-50000J0D01*
G01*
X153500000Y-84290000D01*
G75*
G02*
X153450000Y-84240000I0J50000D01*
G01*
X153450000Y-79160000D01*
G75*
G02*
X153500000Y-79110000I50000J0D01*
G01*
X155000000Y-79110000D01*
G75*
G02*
X155050000Y-79160000I0J-50000D01*
G01*
G37*
%TD*%
%TO.C,C2*%
G36*
G01*
X157435000Y-93947500D02*
X157435000Y-93552500D01*
G75*
G02*
X157607500Y-93380000I172500J0D01*
G01*
X157952500Y-93380000D01*
G75*
G02*
X158125000Y-93552500I0J-172500D01*
G01*
X158125000Y-93947500D01*
G75*
G02*
X157952500Y-94120000I-172500J0D01*
G01*
X157607500Y-94120000D01*
G75*
G02*
X157435000Y-93947500I0J172500D01*
G01*
G37*
G36*
G01*
X158405000Y-93947500D02*
X158405000Y-93552500D01*
G75*
G02*
X158577500Y-93380000I172500J0D01*
G01*
X158922500Y-93380000D01*
G75*
G02*
X159095000Y-93552500I0J-172500D01*
G01*
X159095000Y-93947500D01*
G75*
G02*
X158922500Y-94120000I-172500J0D01*
G01*
X158577500Y-94120000D01*
G75*
G02*
X158405000Y-93947500I0J172500D01*
G01*
G37*
%TD*%
%TO.C,C1*%
G36*
G01*
X140905000Y-93947500D02*
X140905000Y-93552500D01*
G75*
G02*
X141077500Y-93380000I172500J0D01*
G01*
X141422500Y-93380000D01*
G75*
G02*
X141595000Y-93552500I0J-172500D01*
G01*
X141595000Y-93947500D01*
G75*
G02*
X141422500Y-94120000I-172500J0D01*
G01*
X141077500Y-94120000D01*
G75*
G02*
X140905000Y-93947500I0J172500D01*
G01*
G37*
G36*
G01*
X141875000Y-93947500D02*
X141875000Y-93552500D01*
G75*
G02*
X142047500Y-93380000I172500J0D01*
G01*
X142392500Y-93380000D01*
G75*
G02*
X142565000Y-93552500I0J-172500D01*
G01*
X142565000Y-93947500D01*
G75*
G02*
X142392500Y-94120000I-172500J0D01*
G01*
X142047500Y-94120000D01*
G75*
G02*
X141875000Y-93947500I0J172500D01*
G01*
G37*
%TD*%
D12*
%TO.C,MH1*%
X139000000Y-105000000D03*
%TD*%
%TO.C,MH2*%
X139000000Y-83000000D03*
%TD*%
%TO.C,MH3*%
X161000000Y-105000000D03*
%TD*%
%TO.C,MH4*%
X161000000Y-83000000D03*
%TD*%
%TO.C,C4*%
G36*
G01*
X149512500Y-89431250D02*
X149512500Y-88868750D01*
G75*
G02*
X149756250Y-88625000I243750J0D01*
G01*
X150243750Y-88625000D01*
G75*
G02*
X150487500Y-88868750I0J-243750D01*
G01*
X150487500Y-89431250D01*
G75*
G02*
X150243750Y-89675000I-243750J0D01*
G01*
X149756250Y-89675000D01*
G75*
G02*
X149512500Y-89431250I0J243750D01*
G01*
G37*
G36*
G01*
X151087500Y-89431250D02*
X151087500Y-88868750D01*
G75*
G02*
X151331250Y-88625000I243750J0D01*
G01*
X151818750Y-88625000D01*
G75*
G02*
X152062500Y-88868750I0J-243750D01*
G01*
X152062500Y-89431250D01*
G75*
G02*
X151818750Y-89675000I-243750J0D01*
G01*
X151331250Y-89675000D01*
G75*
G02*
X151087500Y-89431250I0J243750D01*
G01*
G37*
%TD*%
%TO.C,C5*%
G36*
G01*
X149325000Y-86605000D02*
X149325000Y-85295000D01*
G75*
G02*
X149595000Y-85025000I270000J0D01*
G01*
X150405000Y-85025000D01*
G75*
G02*
X150675000Y-85295000I0J-270000D01*
G01*
X150675000Y-86605000D01*
G75*
G02*
X150405000Y-86875000I-270000J0D01*
G01*
X149595000Y-86875000D01*
G75*
G02*
X149325000Y-86605000I0J270000D01*
G01*
G37*
G36*
G01*
X152125000Y-86605000D02*
X152125000Y-85295000D01*
G75*
G02*
X152395000Y-85025000I270000J0D01*
G01*
X153205000Y-85025000D01*
G75*
G02*
X153475000Y-85295000I0J-270000D01*
G01*
X153475000Y-86605000D01*
G75*
G02*
X153205000Y-86875000I-270000J0D01*
G01*
X152395000Y-86875000D01*
G75*
G02*
X152125000Y-86605000I0J270000D01*
G01*
G37*
%TD*%
M02*
