%TF.GenerationSoftware,KiCad,Pcbnew,5.1.7*%
%TF.CreationDate,2020-12-16T02:54:48+00:00*%
%TF.ProjectId,HMC447LC3,484d4334-3437-44c4-9333-2e6b69636164,rev?*%
%TF.SameCoordinates,Original*%
%TF.FileFunction,Copper,L1,Top*%
%TF.FilePolarity,Positive*%
%FSLAX46Y46*%
G04 Gerber Fmt 4.6, Leading zero omitted, Abs format (unit mm)*
G04 Created by KiCad (PCBNEW 5.1.7) date 2020-12-16 02:54:48*
%MOMM*%
%LPD*%
G01*
G04 APERTURE LIST*
%TA.AperFunction,SMDPad,CuDef*%
%ADD10R,0.640000X0.250000*%
%TD*%
%TA.AperFunction,SMDPad,CuDef*%
%ADD11R,0.250000X0.640000*%
%TD*%
%TA.AperFunction,SMDPad,CuDef*%
%ADD12R,5.080000X1.500000*%
%TD*%
%TA.AperFunction,SMDPad,CuDef*%
%ADD13R,1.500000X5.080000*%
%TD*%
%TA.AperFunction,ViaPad*%
%ADD14C,0.500000*%
%TD*%
%TA.AperFunction,Conductor*%
%ADD15C,1.500000*%
%TD*%
%TA.AperFunction,Conductor*%
%ADD16C,0.250000*%
%TD*%
%TA.AperFunction,Conductor*%
%ADD17C,0.500000*%
%TD*%
%TA.AperFunction,Conductor*%
%ADD18C,0.750000*%
%TD*%
%TA.AperFunction,Conductor*%
%ADD19C,0.350000*%
%TD*%
%TA.AperFunction,Conductor*%
%ADD20C,0.225000*%
%TD*%
%TA.AperFunction,Conductor*%
%ADD21C,0.254000*%
%TD*%
%TA.AperFunction,Conductor*%
%ADD22C,0.100000*%
%TD*%
%TA.AperFunction,Conductor*%
%ADD23C,0.025400*%
%TD*%
G04 APERTURE END LIST*
D10*
%TO.P,U1,1*%
%TO.N,N/C*%
X148630000Y-92780000D03*
%TO.P,U1,2*%
X148630000Y-93260000D03*
%TO.P,U1,3*%
%TO.N,Net-(C1-Pad2)*%
X148630000Y-93740000D03*
%TO.P,U1,4*%
%TO.N,N/C*%
X148630000Y-94220000D03*
D11*
%TO.P,U1,5*%
X149280000Y-94870000D03*
%TO.P,U1,6*%
X149760000Y-94870000D03*
%TO.P,U1,7*%
X150240000Y-94870000D03*
%TO.P,U1,8*%
X150720000Y-94870000D03*
D10*
%TO.P,U1,9*%
X151370000Y-94220000D03*
%TO.P,U1,10*%
%TO.N,Net-(C2-Pad1)*%
X151370000Y-93740000D03*
%TO.P,U1,11*%
%TO.N,N/C*%
X151370000Y-93260000D03*
%TO.P,U1,12*%
X151370000Y-92780000D03*
D11*
%TO.P,U1,13*%
X150720000Y-92130000D03*
%TO.P,U1,14*%
%TO.N,VDC*%
X150240000Y-92130000D03*
%TO.P,U1,15*%
X149760000Y-92130000D03*
%TO.P,U1,16*%
%TO.N,N/C*%
X149280000Y-92130000D03*
%TO.P,U1,17*%
%TO.N,GND*%
%TA.AperFunction,SMDPad,CuDef*%
G36*
G01*
X149250000Y-94175000D02*
X149250000Y-92825000D01*
G75*
G02*
X149325000Y-92750000I75000J0D01*
G01*
X150675000Y-92750000D01*
G75*
G02*
X150750000Y-92825000I0J-75000D01*
G01*
X150750000Y-94175000D01*
G75*
G02*
X150675000Y-94250000I-75000J0D01*
G01*
X149325000Y-94250000D01*
G75*
G02*
X149250000Y-94175000I0J75000D01*
G01*
G37*
%TD.AperFunction*%
%TD*%
%TO.P,C3,1*%
%TO.N,VDC*%
%TA.AperFunction,SMDPad,CuDef*%
G36*
G01*
X149705000Y-90722500D02*
X149705000Y-90377500D01*
G75*
G02*
X149852500Y-90230000I147500J0D01*
G01*
X150147500Y-90230000D01*
G75*
G02*
X150295000Y-90377500I0J-147500D01*
G01*
X150295000Y-90722500D01*
G75*
G02*
X150147500Y-90870000I-147500J0D01*
G01*
X149852500Y-90870000D01*
G75*
G02*
X149705000Y-90722500I0J147500D01*
G01*
G37*
%TD.AperFunction*%
%TO.P,C3,2*%
%TO.N,GND*%
%TA.AperFunction,SMDPad,CuDef*%
G36*
G01*
X150675000Y-90722500D02*
X150675000Y-90377500D01*
G75*
G02*
X150822500Y-90230000I147500J0D01*
G01*
X151117500Y-90230000D01*
G75*
G02*
X151265000Y-90377500I0J-147500D01*
G01*
X151265000Y-90722500D01*
G75*
G02*
X151117500Y-90870000I-147500J0D01*
G01*
X150822500Y-90870000D01*
G75*
G02*
X150675000Y-90722500I0J147500D01*
G01*
G37*
%TD.AperFunction*%
%TD*%
D12*
%TO.P,J1,1*%
%TO.N,/RFin*%
X137600000Y-93750000D03*
%TO.P,J1,2*%
%TO.N,GND*%
X137600000Y-98000000D03*
X137600000Y-89500000D03*
%TD*%
%TO.P,J2,2*%
%TO.N,GND*%
X162400000Y-98000000D03*
X162400000Y-89500000D03*
%TO.P,J2,1*%
%TO.N,/RFout*%
X162400000Y-93750000D03*
%TD*%
D13*
%TO.P,J3,1*%
%TO.N,VDC*%
X150000000Y-81700000D03*
%TO.P,J3,2*%
%TO.N,GND*%
X145750000Y-81700000D03*
X154250000Y-81700000D03*
%TD*%
%TO.P,C2,1*%
%TO.N,Net-(C2-Pad1)*%
%TA.AperFunction,SMDPad,CuDef*%
G36*
G01*
X157485000Y-93922500D02*
X157485000Y-93577500D01*
G75*
G02*
X157632500Y-93430000I147500J0D01*
G01*
X157927500Y-93430000D01*
G75*
G02*
X158075000Y-93577500I0J-147500D01*
G01*
X158075000Y-93922500D01*
G75*
G02*
X157927500Y-94070000I-147500J0D01*
G01*
X157632500Y-94070000D01*
G75*
G02*
X157485000Y-93922500I0J147500D01*
G01*
G37*
%TD.AperFunction*%
%TO.P,C2,2*%
%TO.N,/RFout*%
%TA.AperFunction,SMDPad,CuDef*%
G36*
G01*
X158455000Y-93922500D02*
X158455000Y-93577500D01*
G75*
G02*
X158602500Y-93430000I147500J0D01*
G01*
X158897500Y-93430000D01*
G75*
G02*
X159045000Y-93577500I0J-147500D01*
G01*
X159045000Y-93922500D01*
G75*
G02*
X158897500Y-94070000I-147500J0D01*
G01*
X158602500Y-94070000D01*
G75*
G02*
X158455000Y-93922500I0J147500D01*
G01*
G37*
%TD.AperFunction*%
%TD*%
%TO.P,C1,1*%
%TO.N,/RFin*%
%TA.AperFunction,SMDPad,CuDef*%
G36*
G01*
X140955000Y-93922500D02*
X140955000Y-93577500D01*
G75*
G02*
X141102500Y-93430000I147500J0D01*
G01*
X141397500Y-93430000D01*
G75*
G02*
X141545000Y-93577500I0J-147500D01*
G01*
X141545000Y-93922500D01*
G75*
G02*
X141397500Y-94070000I-147500J0D01*
G01*
X141102500Y-94070000D01*
G75*
G02*
X140955000Y-93922500I0J147500D01*
G01*
G37*
%TD.AperFunction*%
%TO.P,C1,2*%
%TO.N,Net-(C1-Pad2)*%
%TA.AperFunction,SMDPad,CuDef*%
G36*
G01*
X141925000Y-93922500D02*
X141925000Y-93577500D01*
G75*
G02*
X142072500Y-93430000I147500J0D01*
G01*
X142367500Y-93430000D01*
G75*
G02*
X142515000Y-93577500I0J-147500D01*
G01*
X142515000Y-93922500D01*
G75*
G02*
X142367500Y-94070000I-147500J0D01*
G01*
X142072500Y-94070000D01*
G75*
G02*
X141925000Y-93922500I0J147500D01*
G01*
G37*
%TD.AperFunction*%
%TD*%
%TO.P,C4,1*%
%TO.N,VDC*%
%TA.AperFunction,SMDPad,CuDef*%
G36*
G01*
X149562500Y-89406250D02*
X149562500Y-88893750D01*
G75*
G02*
X149781250Y-88675000I218750J0D01*
G01*
X150218750Y-88675000D01*
G75*
G02*
X150437500Y-88893750I0J-218750D01*
G01*
X150437500Y-89406250D01*
G75*
G02*
X150218750Y-89625000I-218750J0D01*
G01*
X149781250Y-89625000D01*
G75*
G02*
X149562500Y-89406250I0J218750D01*
G01*
G37*
%TD.AperFunction*%
%TO.P,C4,2*%
%TO.N,GND*%
%TA.AperFunction,SMDPad,CuDef*%
G36*
G01*
X151137500Y-89406250D02*
X151137500Y-88893750D01*
G75*
G02*
X151356250Y-88675000I218750J0D01*
G01*
X151793750Y-88675000D01*
G75*
G02*
X152012500Y-88893750I0J-218750D01*
G01*
X152012500Y-89406250D01*
G75*
G02*
X151793750Y-89625000I-218750J0D01*
G01*
X151356250Y-89625000D01*
G75*
G02*
X151137500Y-89406250I0J218750D01*
G01*
G37*
%TD.AperFunction*%
%TD*%
%TO.P,C5,1*%
%TO.N,VDC*%
%TA.AperFunction,SMDPad,CuDef*%
G36*
G01*
X149375000Y-86575000D02*
X149375000Y-85325000D01*
G75*
G02*
X149625000Y-85075000I250000J0D01*
G01*
X150375000Y-85075000D01*
G75*
G02*
X150625000Y-85325000I0J-250000D01*
G01*
X150625000Y-86575000D01*
G75*
G02*
X150375000Y-86825000I-250000J0D01*
G01*
X149625000Y-86825000D01*
G75*
G02*
X149375000Y-86575000I0J250000D01*
G01*
G37*
%TD.AperFunction*%
%TO.P,C5,2*%
%TO.N,GND*%
%TA.AperFunction,SMDPad,CuDef*%
G36*
G01*
X152175000Y-86575000D02*
X152175000Y-85325000D01*
G75*
G02*
X152425000Y-85075000I250000J0D01*
G01*
X153175000Y-85075000D01*
G75*
G02*
X153425000Y-85325000I0J-250000D01*
G01*
X153425000Y-86575000D01*
G75*
G02*
X153175000Y-86825000I-250000J0D01*
G01*
X152425000Y-86825000D01*
G75*
G02*
X152175000Y-86575000I0J250000D01*
G01*
G37*
%TD.AperFunction*%
%TD*%
D14*
%TO.N,GND*%
X149550000Y-93050000D03*
X149550000Y-93950000D03*
X150450000Y-93950000D03*
X150000000Y-93500000D03*
X150450000Y-93050000D03*
X152250000Y-84250000D03*
X151600000Y-95450000D03*
X151000000Y-95700000D03*
X150350000Y-95700000D03*
X149700000Y-95700000D03*
X149050000Y-95700000D03*
X135500000Y-95250000D03*
X136250000Y-95250000D03*
X137000000Y-95250000D03*
X137750000Y-95250000D03*
X138500000Y-95250000D03*
X139250000Y-95250000D03*
X140000000Y-95250000D03*
X140750000Y-95250000D03*
X164500000Y-95250000D03*
X163750000Y-95250000D03*
X163000000Y-95250000D03*
X162250000Y-95250000D03*
X161500000Y-95250000D03*
X160750000Y-95250000D03*
X160000000Y-95250000D03*
X159250000Y-95250000D03*
X152600000Y-95950000D03*
X135500000Y-96000000D03*
X135500000Y-96750000D03*
X135500000Y-92150000D03*
X135500000Y-91500000D03*
X135500000Y-90750000D03*
X136250000Y-90750000D03*
X137000000Y-90750000D03*
X136250000Y-92150000D03*
X137000000Y-92150000D03*
X137750000Y-92150000D03*
X138500000Y-92150000D03*
X139250000Y-92150000D03*
X140000000Y-92150000D03*
X140750000Y-92300000D03*
X159250000Y-92250000D03*
X160000000Y-92250000D03*
X160750000Y-92250000D03*
X161500000Y-92250000D03*
X162250000Y-92250000D03*
X163000000Y-92250000D03*
X163750000Y-92250000D03*
X164500000Y-92250000D03*
X164500000Y-91500000D03*
X164500000Y-90750000D03*
X163750000Y-90750000D03*
X163000000Y-90750000D03*
X162250000Y-90750000D03*
X161500000Y-90750000D03*
X160750000Y-90750000D03*
X160000000Y-90750000D03*
X164500000Y-96000000D03*
X164500000Y-96750000D03*
X163750000Y-96750000D03*
X163000000Y-96750000D03*
X162250000Y-96750000D03*
X161500000Y-96750000D03*
X160750000Y-96750000D03*
X160000000Y-96750000D03*
X137750000Y-90750000D03*
X138500000Y-90750000D03*
X139250000Y-90750000D03*
X140000000Y-90750000D03*
X136250000Y-96750000D03*
X137000000Y-96750000D03*
X137750000Y-96750000D03*
X138500000Y-96750000D03*
X139250000Y-96750000D03*
X140000000Y-96750000D03*
X164250000Y-86966537D03*
X164250000Y-85933075D03*
X164250000Y-84899612D03*
X164250000Y-83866150D03*
X164250000Y-82832687D03*
X164250000Y-81799225D03*
X164250000Y-80765763D03*
X164005091Y-79819967D03*
X162984236Y-79750000D03*
X161950774Y-79750000D03*
X160917312Y-79750000D03*
X159883849Y-79750000D03*
X158850387Y-79750000D03*
X157816924Y-79750000D03*
X156783462Y-79750000D03*
X164250000Y-88000000D03*
X155750000Y-79750000D03*
X156821428Y-80750000D03*
X157892857Y-80750000D03*
X158964285Y-80750000D03*
X160035714Y-80750000D03*
X161107142Y-80750000D03*
X162178571Y-80750000D03*
X163250000Y-81785714D03*
X163250000Y-82821428D03*
X163250000Y-83857142D03*
X163250000Y-84892857D03*
X163250000Y-85928571D03*
X163250000Y-86964285D03*
X155750000Y-80750000D03*
X163250000Y-80750000D03*
X163250000Y-88000000D03*
X136750000Y-86964285D03*
X136750000Y-85928571D03*
X136750000Y-84892857D03*
X136750000Y-83857142D03*
X136750000Y-82821428D03*
X136750000Y-81785714D03*
X137821428Y-80750000D03*
X138892857Y-80750000D03*
X139964285Y-80750000D03*
X141035714Y-80750000D03*
X142107142Y-80750000D03*
X143178571Y-80750000D03*
X136750000Y-88000000D03*
X136750000Y-80750000D03*
X144250000Y-80750000D03*
X143216537Y-79750000D03*
X142183075Y-79750000D03*
X141149612Y-79750000D03*
X140116150Y-79750000D03*
X139082687Y-79750000D03*
X138049225Y-79750000D03*
X137015763Y-79750000D03*
X135994908Y-79819967D03*
X135750000Y-80765763D03*
X135750000Y-81799225D03*
X135750000Y-82832687D03*
X135750000Y-83866150D03*
X135750000Y-84899612D03*
X135750000Y-85933075D03*
X135750000Y-86966537D03*
X144250000Y-79750000D03*
X135750000Y-88000000D03*
X135750000Y-100512684D03*
X135750000Y-101525368D03*
X135750000Y-102538053D03*
X135750000Y-103550737D03*
X135750000Y-104563421D03*
X135750000Y-105576106D03*
X135750000Y-106588790D03*
X135750000Y-107601475D03*
X136328760Y-108250000D03*
X137341445Y-108250000D03*
X138354129Y-108250000D03*
X139366814Y-108250000D03*
X140379498Y-108250000D03*
X141392182Y-108250000D03*
X142404867Y-108250000D03*
X143417551Y-108250000D03*
X144430235Y-108250000D03*
X145442920Y-108250000D03*
X146455604Y-108250000D03*
X147468289Y-108250000D03*
X148480973Y-108250000D03*
X149493657Y-108250000D03*
X150506342Y-108250000D03*
X151519026Y-108250000D03*
X152531710Y-108250000D03*
X153544395Y-108250000D03*
X154557079Y-108250000D03*
X155569764Y-108250000D03*
X156582448Y-108250000D03*
X157595132Y-108250000D03*
X158607817Y-108250000D03*
X159620501Y-108250000D03*
X160633185Y-108250000D03*
X161645870Y-108250000D03*
X162658554Y-108250000D03*
X163671239Y-108250000D03*
X164250000Y-107601475D03*
X164250000Y-106588790D03*
X164250000Y-105576106D03*
X164250000Y-104563421D03*
X164250000Y-103550737D03*
X164250000Y-102538053D03*
X164250000Y-101525368D03*
X164250000Y-100512684D03*
X135750000Y-99500000D03*
X164250000Y-99500000D03*
X163250000Y-100607142D03*
X163250000Y-101714285D03*
X163250000Y-102821428D03*
X163250000Y-103928571D03*
X163250000Y-105035714D03*
X163250000Y-106142857D03*
X162230769Y-107250000D03*
X161211538Y-107250000D03*
X160192307Y-107250000D03*
X159173076Y-107250000D03*
X158153846Y-107250000D03*
X157134615Y-107250000D03*
X156115384Y-107250000D03*
X155096153Y-107250000D03*
X154076923Y-107250000D03*
X153057692Y-107250000D03*
X152038461Y-107250000D03*
X151019230Y-107250000D03*
X150000000Y-107250000D03*
X148980769Y-107250000D03*
X147961538Y-107250000D03*
X146942307Y-107250000D03*
X145923076Y-107250000D03*
X144903846Y-107250000D03*
X143884615Y-107250000D03*
X142865384Y-107250000D03*
X141846153Y-107250000D03*
X140826923Y-107250000D03*
X139807692Y-107250000D03*
X138788461Y-107250000D03*
X137769230Y-107250000D03*
X136750000Y-106142857D03*
X136750000Y-105035714D03*
X136750000Y-103928571D03*
X136750000Y-102821428D03*
X136750000Y-101714285D03*
X136750000Y-100607142D03*
X163250000Y-99500000D03*
X163250000Y-107250000D03*
X136750000Y-107250000D03*
X136750000Y-99500000D03*
X144250000Y-81750000D03*
X144250000Y-82750000D03*
X144250000Y-83750000D03*
X144250000Y-84750000D03*
X145250000Y-84750000D03*
X146250000Y-84500000D03*
X147000000Y-84000000D03*
X147000000Y-83250000D03*
X147000000Y-82500000D03*
X147000000Y-81750000D03*
X147000000Y-81000000D03*
X147000000Y-80250000D03*
X147000000Y-79500000D03*
X147750000Y-79500000D03*
X148500000Y-79500000D03*
X148500000Y-80250000D03*
X148500000Y-81000000D03*
X148500000Y-81750000D03*
X148500000Y-82500000D03*
X148500000Y-83250000D03*
X148500000Y-84000000D03*
X147750000Y-84250000D03*
X155750000Y-81750000D03*
X155750000Y-82750000D03*
X155750000Y-83750000D03*
X153000000Y-84000000D03*
X153000000Y-83250000D03*
X153000000Y-82500000D03*
X153000000Y-81750000D03*
X153000000Y-81000000D03*
X153000000Y-80250000D03*
X153000000Y-79500000D03*
X152250000Y-79500000D03*
X151500000Y-79500000D03*
X151500000Y-80250000D03*
X151500000Y-81000000D03*
X151500000Y-81750000D03*
X151500000Y-82500000D03*
X151500000Y-83250000D03*
X151500000Y-84000000D03*
X138404999Y-85654999D03*
X138404999Y-99654999D03*
X139804999Y-87754999D03*
X140504999Y-101054999D03*
X141204999Y-98254999D03*
X141204999Y-103854999D03*
X141904999Y-85654999D03*
X141904999Y-89154999D03*
X142604999Y-82154999D03*
X142604999Y-105954999D03*
X143304999Y-96854999D03*
X143304999Y-100354999D03*
X144004999Y-103154999D03*
X145404999Y-98254999D03*
X145404999Y-105254999D03*
X146104999Y-101054999D03*
X147504999Y-103154999D03*
X148204999Y-98954999D03*
X148204999Y-105954999D03*
X149604999Y-101054999D03*
X150304999Y-103854999D03*
X151004999Y-98254999D03*
X151704999Y-105954999D03*
X152404999Y-100354999D03*
X153104999Y-96854999D03*
X153104999Y-103154999D03*
X154504999Y-98954999D03*
X154504999Y-105254999D03*
X155204999Y-101754999D03*
X156604999Y-96854999D03*
X156604999Y-103854999D03*
X157304999Y-82154999D03*
X157304999Y-99654999D03*
X158004999Y-105954999D03*
X158704999Y-84254999D03*
X158704999Y-101754999D03*
X160104999Y-86354999D03*
X160804999Y-99654999D03*
X144250000Y-87000000D03*
X144000000Y-90500000D03*
X146250000Y-88500000D03*
X158200000Y-89600000D03*
X162000000Y-101800000D03*
X141200000Y-92650000D03*
X141900000Y-92650000D03*
X142600000Y-92700000D03*
X143300000Y-92850000D03*
X144000000Y-92850000D03*
X144700000Y-92850000D03*
X145400000Y-92850000D03*
X146100000Y-92850000D03*
X141200000Y-94850000D03*
X141900000Y-94850000D03*
X142600000Y-94800000D03*
X143300000Y-94650000D03*
X144000000Y-94650000D03*
X144700000Y-94650000D03*
X145400000Y-94650000D03*
X146100000Y-94650000D03*
X146800000Y-94650000D03*
X147500000Y-94650000D03*
X148000000Y-95000000D03*
X158800000Y-92650000D03*
X158100000Y-92650000D03*
X157400000Y-92700000D03*
X156700000Y-92850000D03*
X156000000Y-92850000D03*
X155300000Y-92850000D03*
X154600000Y-92850000D03*
X153875000Y-92850000D03*
X153175000Y-92850000D03*
X152500000Y-92850000D03*
X148450000Y-95450000D03*
X158800000Y-94850000D03*
X158100000Y-94850000D03*
X157400000Y-94800000D03*
X156700000Y-94650000D03*
X156000000Y-94650000D03*
X155300000Y-94650000D03*
X154600000Y-94650000D03*
X153900000Y-94650000D03*
X153200000Y-94650000D03*
X152500000Y-94650000D03*
X152000000Y-95000000D03*
X156400000Y-91800000D03*
X147500000Y-92850000D03*
X146800000Y-92850000D03*
X146000000Y-91750000D03*
X157400000Y-86850000D03*
X162400000Y-87700000D03*
X159200000Y-87800000D03*
X153750000Y-84500000D03*
X155750000Y-84750000D03*
X154750000Y-84750000D03*
X149000000Y-84750000D03*
X148750000Y-85500000D03*
X148750000Y-86250000D03*
X149000000Y-87000000D03*
X149000000Y-87750000D03*
X149000000Y-88500000D03*
X149000000Y-89250000D03*
X149000000Y-90000000D03*
X149000000Y-90750000D03*
X148750000Y-91500000D03*
X148250000Y-92000000D03*
X151250000Y-91500000D03*
X151750000Y-92000000D03*
X151750000Y-91000000D03*
X151750000Y-90250000D03*
X152500000Y-90250000D03*
X152500000Y-89500000D03*
X152500000Y-88750000D03*
X152500000Y-88000000D03*
X153000000Y-87500000D03*
X154000000Y-86750000D03*
X154000000Y-86000000D03*
X154000000Y-85250000D03*
X151000000Y-87500000D03*
X151500000Y-88000000D03*
X152000000Y-87500000D03*
X156250000Y-88500000D03*
X155000000Y-90250000D03*
X154500000Y-87250000D03*
X156000000Y-86000000D03*
X146500000Y-85500000D03*
X148000000Y-90250000D03*
X147000000Y-96850000D03*
X153750000Y-87500000D03*
%TD*%
D15*
%TO.N,/RFin*%
X137500000Y-93750000D02*
X140050000Y-93750000D01*
D16*
X141150000Y-93750000D02*
X137600000Y-93750000D01*
D15*
%TO.N,/RFout*%
X162500000Y-93750000D02*
X159950000Y-93750000D01*
D16*
X158750000Y-93750000D02*
X159950000Y-93750000D01*
%TO.N,VDC*%
X150000000Y-81750000D02*
X150000000Y-81250000D01*
X150000000Y-82350000D02*
X150000000Y-81250000D01*
X150000000Y-81700000D02*
X150000000Y-81250000D01*
D17*
X150000000Y-90550000D02*
X150000000Y-89150000D01*
D18*
X150000000Y-85950000D02*
X150000000Y-89150000D01*
X150000000Y-81700000D02*
X150000000Y-85950000D01*
D16*
X150000000Y-91890000D02*
X149760000Y-92130000D01*
D19*
X150000000Y-90550000D02*
X150000000Y-91890000D01*
D16*
X150000000Y-91890000D02*
X150240000Y-92130000D01*
%TO.N,Net-(C2-Pad1)*%
X157710000Y-93750000D02*
X157750000Y-93750000D01*
D20*
X154850000Y-93750000D02*
X157710000Y-93750000D01*
X151475000Y-93750000D02*
X152375000Y-93750000D01*
X154850000Y-93750000D02*
X152375000Y-93750000D01*
D16*
%TO.N,Net-(C1-Pad2)*%
X148620000Y-93750000D02*
X148630000Y-93740000D01*
D20*
X142120000Y-93750000D02*
X148620000Y-93750000D01*
%TD*%
D21*
%TO.N,GND*%
X152020458Y-94274637D02*
X152157496Y-94387102D01*
X152617304Y-94846910D01*
X152626539Y-94855279D01*
X152778075Y-94979642D01*
X152798776Y-94993474D01*
X152971663Y-95085884D01*
X152994664Y-95095412D01*
X153182257Y-95152317D01*
X153206675Y-95157173D01*
X153401766Y-95176388D01*
X153414214Y-95177000D01*
X163993766Y-95177000D01*
X164170189Y-95194376D01*
X164333850Y-95244022D01*
X164484672Y-95324638D01*
X164616870Y-95433130D01*
X164663000Y-95489340D01*
X164663000Y-108560660D01*
X164616870Y-108616870D01*
X164560660Y-108663000D01*
X135439340Y-108663000D01*
X135383130Y-108616870D01*
X135337000Y-108560660D01*
X135337000Y-95489340D01*
X135383130Y-95433130D01*
X135515328Y-95324638D01*
X135666150Y-95244022D01*
X135829811Y-95194376D01*
X136006234Y-95177000D01*
X146585786Y-95177000D01*
X146598234Y-95176388D01*
X146793325Y-95157173D01*
X146817743Y-95152317D01*
X147005336Y-95095412D01*
X147028337Y-95085884D01*
X147201224Y-94993474D01*
X147221925Y-94979642D01*
X147373461Y-94855279D01*
X147382696Y-94846910D01*
X147842504Y-94387102D01*
X147979542Y-94274637D01*
X147981418Y-94273634D01*
X147981418Y-94345000D01*
X147987732Y-94409103D01*
X148006430Y-94470743D01*
X148036794Y-94527550D01*
X148077657Y-94577343D01*
X148127450Y-94618206D01*
X148184257Y-94648570D01*
X148245897Y-94667268D01*
X148310000Y-94673582D01*
X148826418Y-94673582D01*
X148826418Y-95190000D01*
X148832732Y-95254103D01*
X148851430Y-95315743D01*
X148881794Y-95372550D01*
X148922657Y-95422343D01*
X148972450Y-95463206D01*
X149029257Y-95493570D01*
X149090897Y-95512268D01*
X149155000Y-95518582D01*
X149405000Y-95518582D01*
X149469103Y-95512268D01*
X149520000Y-95496829D01*
X149570897Y-95512268D01*
X149635000Y-95518582D01*
X149885000Y-95518582D01*
X149949103Y-95512268D01*
X150000000Y-95496829D01*
X150050897Y-95512268D01*
X150115000Y-95518582D01*
X150365000Y-95518582D01*
X150429103Y-95512268D01*
X150480000Y-95496829D01*
X150530897Y-95512268D01*
X150595000Y-95518582D01*
X150845000Y-95518582D01*
X150909103Y-95512268D01*
X150970743Y-95493570D01*
X151027550Y-95463206D01*
X151077343Y-95422343D01*
X151118206Y-95372550D01*
X151148570Y-95315743D01*
X151167268Y-95254103D01*
X151173582Y-95190000D01*
X151173582Y-94673582D01*
X151690000Y-94673582D01*
X151754103Y-94667268D01*
X151815743Y-94648570D01*
X151872550Y-94618206D01*
X151922343Y-94577343D01*
X151963206Y-94527550D01*
X151993570Y-94470743D01*
X152012268Y-94409103D01*
X152018582Y-94345000D01*
X152018582Y-94273634D01*
X152020458Y-94274637D01*
%TA.AperFunction,Conductor*%
D22*
G36*
X152020458Y-94274637D02*
G01*
X152157496Y-94387102D01*
X152617304Y-94846910D01*
X152626539Y-94855279D01*
X152778075Y-94979642D01*
X152798776Y-94993474D01*
X152971663Y-95085884D01*
X152994664Y-95095412D01*
X153182257Y-95152317D01*
X153206675Y-95157173D01*
X153401766Y-95176388D01*
X153414214Y-95177000D01*
X163993766Y-95177000D01*
X164170189Y-95194376D01*
X164333850Y-95244022D01*
X164484672Y-95324638D01*
X164616870Y-95433130D01*
X164663000Y-95489340D01*
X164663000Y-108560660D01*
X164616870Y-108616870D01*
X164560660Y-108663000D01*
X135439340Y-108663000D01*
X135383130Y-108616870D01*
X135337000Y-108560660D01*
X135337000Y-95489340D01*
X135383130Y-95433130D01*
X135515328Y-95324638D01*
X135666150Y-95244022D01*
X135829811Y-95194376D01*
X136006234Y-95177000D01*
X146585786Y-95177000D01*
X146598234Y-95176388D01*
X146793325Y-95157173D01*
X146817743Y-95152317D01*
X147005336Y-95095412D01*
X147028337Y-95085884D01*
X147201224Y-94993474D01*
X147221925Y-94979642D01*
X147373461Y-94855279D01*
X147382696Y-94846910D01*
X147842504Y-94387102D01*
X147979542Y-94274637D01*
X147981418Y-94273634D01*
X147981418Y-94345000D01*
X147987732Y-94409103D01*
X148006430Y-94470743D01*
X148036794Y-94527550D01*
X148077657Y-94577343D01*
X148127450Y-94618206D01*
X148184257Y-94648570D01*
X148245897Y-94667268D01*
X148310000Y-94673582D01*
X148826418Y-94673582D01*
X148826418Y-95190000D01*
X148832732Y-95254103D01*
X148851430Y-95315743D01*
X148881794Y-95372550D01*
X148922657Y-95422343D01*
X148972450Y-95463206D01*
X149029257Y-95493570D01*
X149090897Y-95512268D01*
X149155000Y-95518582D01*
X149405000Y-95518582D01*
X149469103Y-95512268D01*
X149520000Y-95496829D01*
X149570897Y-95512268D01*
X149635000Y-95518582D01*
X149885000Y-95518582D01*
X149949103Y-95512268D01*
X150000000Y-95496829D01*
X150050897Y-95512268D01*
X150115000Y-95518582D01*
X150365000Y-95518582D01*
X150429103Y-95512268D01*
X150480000Y-95496829D01*
X150530897Y-95512268D01*
X150595000Y-95518582D01*
X150845000Y-95518582D01*
X150909103Y-95512268D01*
X150970743Y-95493570D01*
X151027550Y-95463206D01*
X151077343Y-95422343D01*
X151118206Y-95372550D01*
X151148570Y-95315743D01*
X151167268Y-95254103D01*
X151173582Y-95190000D01*
X151173582Y-94673582D01*
X151690000Y-94673582D01*
X151754103Y-94667268D01*
X151815743Y-94648570D01*
X151872550Y-94618206D01*
X151922343Y-94577343D01*
X151963206Y-94527550D01*
X151993570Y-94470743D01*
X152012268Y-94409103D01*
X152018582Y-94345000D01*
X152018582Y-94273634D01*
X152020458Y-94274637D01*
G37*
%TD.AperFunction*%
%TD*%
D23*
%TO.N,/RFin*%
X140399574Y-93750000D02*
X139516249Y-94259271D01*
X139436297Y-94183601D01*
X139435554Y-94182951D01*
X139344651Y-94109426D01*
X139343827Y-94108813D01*
X139248848Y-94043938D01*
X139247954Y-94043380D01*
X139148897Y-93987155D01*
X139147948Y-93986668D01*
X139044813Y-93939093D01*
X139043827Y-93938687D01*
X138936616Y-93899762D01*
X138935616Y-93899445D01*
X138824327Y-93869170D01*
X138823333Y-93868942D01*
X138707967Y-93847317D01*
X138706999Y-93847174D01*
X138587556Y-93834199D01*
X138586628Y-93834133D01*
X138475364Y-93830237D01*
X138475364Y-93669763D01*
X138586628Y-93665867D01*
X138587556Y-93665801D01*
X138706999Y-93652826D01*
X138707967Y-93652683D01*
X138823333Y-93631058D01*
X138824327Y-93630830D01*
X138935616Y-93600555D01*
X138936616Y-93600238D01*
X139043827Y-93561313D01*
X139044813Y-93560907D01*
X139147948Y-93513332D01*
X139148897Y-93512845D01*
X139247954Y-93456620D01*
X139248848Y-93456062D01*
X139343827Y-93391187D01*
X139344651Y-93390574D01*
X139435554Y-93317049D01*
X139436297Y-93316399D01*
X139516249Y-93240729D01*
X140399574Y-93750000D01*
%TA.AperFunction,Conductor*%
D22*
G36*
X140399574Y-93750000D02*
G01*
X139516249Y-94259271D01*
X139436297Y-94183601D01*
X139435554Y-94182951D01*
X139344651Y-94109426D01*
X139343827Y-94108813D01*
X139248848Y-94043938D01*
X139247954Y-94043380D01*
X139148897Y-93987155D01*
X139147948Y-93986668D01*
X139044813Y-93939093D01*
X139043827Y-93938687D01*
X138936616Y-93899762D01*
X138935616Y-93899445D01*
X138824327Y-93869170D01*
X138823333Y-93868942D01*
X138707967Y-93847317D01*
X138706999Y-93847174D01*
X138587556Y-93834199D01*
X138586628Y-93834133D01*
X138475364Y-93830237D01*
X138475364Y-93669763D01*
X138586628Y-93665867D01*
X138587556Y-93665801D01*
X138706999Y-93652826D01*
X138707967Y-93652683D01*
X138823333Y-93631058D01*
X138824327Y-93630830D01*
X138935616Y-93600555D01*
X138936616Y-93600238D01*
X139043827Y-93561313D01*
X139044813Y-93560907D01*
X139147948Y-93513332D01*
X139148897Y-93512845D01*
X139247954Y-93456620D01*
X139248848Y-93456062D01*
X139343827Y-93391187D01*
X139344651Y-93390574D01*
X139435554Y-93317049D01*
X139436297Y-93316399D01*
X139516249Y-93240729D01*
X140399574Y-93750000D01*
G37*
%TD.AperFunction*%
%TD*%
D23*
%TO.N,/RFin*%
X140543750Y-93243015D02*
X140628535Y-93323259D01*
X140629278Y-93323909D01*
X140720181Y-93397434D01*
X140722261Y-93398803D01*
X140723511Y-93399375D01*
X140818490Y-93436815D01*
X140820120Y-93437334D01*
X140921973Y-93462334D01*
X140925000Y-93462700D01*
X141119689Y-93462700D01*
X141112459Y-94037300D01*
X140925000Y-94037300D01*
X140921973Y-94037666D01*
X140820120Y-94062666D01*
X140817124Y-94063819D01*
X140722145Y-94114979D01*
X140720181Y-94116286D01*
X140629278Y-94189811D01*
X140628535Y-94190461D01*
X140543634Y-94270815D01*
X139933428Y-94491179D01*
X139541590Y-93756482D01*
X139884116Y-93022497D01*
X140543750Y-93243015D01*
%TA.AperFunction,Conductor*%
D22*
G36*
X140543750Y-93243015D02*
G01*
X140628535Y-93323259D01*
X140629278Y-93323909D01*
X140720181Y-93397434D01*
X140722261Y-93398803D01*
X140723511Y-93399375D01*
X140818490Y-93436815D01*
X140820120Y-93437334D01*
X140921973Y-93462334D01*
X140925000Y-93462700D01*
X141119689Y-93462700D01*
X141112459Y-94037300D01*
X140925000Y-94037300D01*
X140921973Y-94037666D01*
X140820120Y-94062666D01*
X140817124Y-94063819D01*
X140722145Y-94114979D01*
X140720181Y-94116286D01*
X140629278Y-94189811D01*
X140628535Y-94190461D01*
X140543634Y-94270815D01*
X139933428Y-94491179D01*
X139541590Y-93756482D01*
X139884116Y-93022497D01*
X140543750Y-93243015D01*
G37*
%TD.AperFunction*%
%TD*%
D23*
%TO.N,/RFout*%
X160299574Y-93750000D02*
X159416249Y-94259271D01*
X159336297Y-94183601D01*
X159334330Y-94182075D01*
X159332426Y-94181091D01*
X159154859Y-94107566D01*
X159153518Y-94107097D01*
X158937700Y-94044869D01*
X158937700Y-93455131D01*
X159153518Y-93392903D01*
X159154859Y-93392434D01*
X159332426Y-93318909D01*
X159334621Y-93317736D01*
X159336297Y-93316399D01*
X159416249Y-93240729D01*
X160299574Y-93750000D01*
%TA.AperFunction,Conductor*%
D22*
G36*
X160299574Y-93750000D02*
G01*
X159416249Y-94259271D01*
X159336297Y-94183601D01*
X159334330Y-94182075D01*
X159332426Y-94181091D01*
X159154859Y-94107566D01*
X159153518Y-94107097D01*
X158937700Y-94044869D01*
X158937700Y-93455131D01*
X159153518Y-93392903D01*
X159154859Y-93392434D01*
X159332426Y-93318909D01*
X159334621Y-93317736D01*
X159336297Y-93316399D01*
X159416249Y-93240729D01*
X160299574Y-93750000D01*
G37*
%TD.AperFunction*%
%TD*%
D23*
%TO.N,/RFout*%
X160563702Y-93316399D02*
X160564445Y-93317049D01*
X160655348Y-93390574D01*
X160656172Y-93391187D01*
X160751151Y-93456062D01*
X160752045Y-93456620D01*
X160851102Y-93512845D01*
X160852051Y-93513332D01*
X160955186Y-93560907D01*
X160956172Y-93561313D01*
X161063383Y-93600238D01*
X161064383Y-93600555D01*
X161175672Y-93630830D01*
X161176666Y-93631058D01*
X161292032Y-93652683D01*
X161293000Y-93652826D01*
X161412443Y-93665801D01*
X161413371Y-93665867D01*
X161524636Y-93669763D01*
X161524636Y-93830237D01*
X161413371Y-93834133D01*
X161412443Y-93834199D01*
X161293000Y-93847174D01*
X161292032Y-93847317D01*
X161176666Y-93868942D01*
X161175672Y-93869170D01*
X161064383Y-93899445D01*
X161063383Y-93899762D01*
X160956172Y-93938687D01*
X160955186Y-93939093D01*
X160852051Y-93986668D01*
X160851102Y-93987155D01*
X160752045Y-94043380D01*
X160751151Y-94043938D01*
X160656172Y-94108813D01*
X160655348Y-94109426D01*
X160564445Y-94182951D01*
X160563702Y-94183601D01*
X160483750Y-94259271D01*
X159600426Y-93750000D01*
X160483750Y-93240729D01*
X160563702Y-93316399D01*
%TA.AperFunction,Conductor*%
D22*
G36*
X160563702Y-93316399D02*
G01*
X160564445Y-93317049D01*
X160655348Y-93390574D01*
X160656172Y-93391187D01*
X160751151Y-93456062D01*
X160752045Y-93456620D01*
X160851102Y-93512845D01*
X160852051Y-93513332D01*
X160955186Y-93560907D01*
X160956172Y-93561313D01*
X161063383Y-93600238D01*
X161064383Y-93600555D01*
X161175672Y-93630830D01*
X161176666Y-93631058D01*
X161292032Y-93652683D01*
X161293000Y-93652826D01*
X161412443Y-93665801D01*
X161413371Y-93665867D01*
X161524636Y-93669763D01*
X161524636Y-93830237D01*
X161413371Y-93834133D01*
X161412443Y-93834199D01*
X161293000Y-93847174D01*
X161292032Y-93847317D01*
X161176666Y-93868942D01*
X161175672Y-93869170D01*
X161064383Y-93899445D01*
X161063383Y-93899762D01*
X160956172Y-93938687D01*
X160955186Y-93939093D01*
X160852051Y-93986668D01*
X160851102Y-93987155D01*
X160752045Y-94043380D01*
X160751151Y-94043938D01*
X160656172Y-94108813D01*
X160655348Y-94109426D01*
X160564445Y-94182951D01*
X160563702Y-94183601D01*
X160483750Y-94259271D01*
X159600426Y-93750000D01*
X160483750Y-93240729D01*
X160563702Y-93316399D01*
G37*
%TD.AperFunction*%
%TD*%
D23*
%TO.N,VDC*%
X150076750Y-81483548D02*
X150486829Y-82194827D01*
X150493740Y-82231020D01*
X150476724Y-82263701D01*
X150442106Y-82296366D01*
X150438826Y-82299317D01*
X150375410Y-82353709D01*
X150370563Y-82357596D01*
X150317543Y-82397298D01*
X150309969Y-82402412D01*
X150269440Y-82426988D01*
X150256572Y-82433493D01*
X150233010Y-82443205D01*
X150209555Y-82449468D01*
X150203231Y-82450301D01*
X150179182Y-82448267D01*
X150160466Y-82436352D01*
X150147836Y-82414873D01*
X150145221Y-82407150D01*
X150140590Y-82384775D01*
X150139658Y-82373384D01*
X150139212Y-82370935D01*
X150138298Y-82368619D01*
X150136949Y-82366527D01*
X150135606Y-82365081D01*
X150109105Y-82340661D01*
X150107118Y-82339161D01*
X150104876Y-82338078D01*
X150102466Y-82337453D01*
X150100499Y-82337300D01*
X149899501Y-82337300D01*
X149897023Y-82337544D01*
X149894641Y-82338267D01*
X149892445Y-82339440D01*
X149890895Y-82340661D01*
X149864394Y-82365081D01*
X149862737Y-82366939D01*
X149861475Y-82369085D01*
X149860656Y-82371436D01*
X149860342Y-82373383D01*
X149859409Y-82384776D01*
X149854778Y-82407152D01*
X149852164Y-82414872D01*
X149839533Y-82436352D01*
X149820817Y-82448267D01*
X149796768Y-82450301D01*
X149790444Y-82449468D01*
X149766989Y-82443205D01*
X149743427Y-82433493D01*
X149730559Y-82426988D01*
X149690030Y-82402412D01*
X149682456Y-82397298D01*
X149629436Y-82357596D01*
X149624589Y-82353709D01*
X149561199Y-82299339D01*
X149557866Y-82296342D01*
X149523276Y-82263701D01*
X149506260Y-82231020D01*
X149513169Y-82194828D01*
X149923250Y-81483548D01*
X149970403Y-81443949D01*
X150029597Y-81443949D01*
X150076750Y-81483548D01*
%TA.AperFunction,Conductor*%
D22*
G36*
X150076750Y-81483548D02*
G01*
X150486829Y-82194827D01*
X150493740Y-82231020D01*
X150476724Y-82263701D01*
X150442106Y-82296366D01*
X150438826Y-82299317D01*
X150375410Y-82353709D01*
X150370563Y-82357596D01*
X150317543Y-82397298D01*
X150309969Y-82402412D01*
X150269440Y-82426988D01*
X150256572Y-82433493D01*
X150233010Y-82443205D01*
X150209555Y-82449468D01*
X150203231Y-82450301D01*
X150179182Y-82448267D01*
X150160466Y-82436352D01*
X150147836Y-82414873D01*
X150145221Y-82407150D01*
X150140590Y-82384775D01*
X150139658Y-82373384D01*
X150139212Y-82370935D01*
X150138298Y-82368619D01*
X150136949Y-82366527D01*
X150135606Y-82365081D01*
X150109105Y-82340661D01*
X150107118Y-82339161D01*
X150104876Y-82338078D01*
X150102466Y-82337453D01*
X150100499Y-82337300D01*
X149899501Y-82337300D01*
X149897023Y-82337544D01*
X149894641Y-82338267D01*
X149892445Y-82339440D01*
X149890895Y-82340661D01*
X149864394Y-82365081D01*
X149862737Y-82366939D01*
X149861475Y-82369085D01*
X149860656Y-82371436D01*
X149860342Y-82373383D01*
X149859409Y-82384776D01*
X149854778Y-82407152D01*
X149852164Y-82414872D01*
X149839533Y-82436352D01*
X149820817Y-82448267D01*
X149796768Y-82450301D01*
X149790444Y-82449468D01*
X149766989Y-82443205D01*
X149743427Y-82433493D01*
X149730559Y-82426988D01*
X149690030Y-82402412D01*
X149682456Y-82397298D01*
X149629436Y-82357596D01*
X149624589Y-82353709D01*
X149561199Y-82299339D01*
X149557866Y-82296342D01*
X149523276Y-82263701D01*
X149506260Y-82231020D01*
X149513169Y-82194828D01*
X149923250Y-81483548D01*
X149970403Y-81443949D01*
X150029597Y-81443949D01*
X150076750Y-81483548D01*
G37*
%TD.AperFunction*%
%TD*%
D23*
%TO.N,VDC*%
X150076750Y-81483548D02*
X150493632Y-82206625D01*
X150486899Y-82254900D01*
X150464306Y-82276837D01*
X150463544Y-82277569D01*
X150417850Y-82320949D01*
X150416782Y-82321949D01*
X150376920Y-82358700D01*
X150375530Y-82359957D01*
X150341720Y-82389914D01*
X150339729Y-82391629D01*
X150312333Y-82414566D01*
X150309217Y-82417063D01*
X150289377Y-82432271D01*
X150283762Y-82436257D01*
X150274517Y-82442317D01*
X150262166Y-82449130D01*
X150260753Y-82449774D01*
X150259008Y-82450144D01*
X150258425Y-82449755D01*
X150258372Y-82449720D01*
X150253498Y-82446502D01*
X150251296Y-82445340D01*
X150248910Y-82444631D01*
X150246501Y-82444400D01*
X149753499Y-82444400D01*
X149751021Y-82444644D01*
X149748639Y-82445367D01*
X149746502Y-82446502D01*
X149741628Y-82449720D01*
X149741575Y-82449755D01*
X149740992Y-82450144D01*
X149739247Y-82449774D01*
X149737834Y-82449130D01*
X149725483Y-82442317D01*
X149716238Y-82436257D01*
X149710623Y-82432271D01*
X149690783Y-82417063D01*
X149687667Y-82414566D01*
X149660271Y-82391629D01*
X149658280Y-82389914D01*
X149624470Y-82359957D01*
X149623080Y-82358700D01*
X149583218Y-82321949D01*
X149582150Y-82320949D01*
X149536456Y-82277569D01*
X149535694Y-82276837D01*
X149513101Y-82254900D01*
X149506368Y-82206625D01*
X149923250Y-81483548D01*
X149970403Y-81443949D01*
X150029597Y-81443949D01*
X150076750Y-81483548D01*
%TA.AperFunction,Conductor*%
D22*
G36*
X150076750Y-81483548D02*
G01*
X150493632Y-82206625D01*
X150486899Y-82254900D01*
X150464306Y-82276837D01*
X150463544Y-82277569D01*
X150417850Y-82320949D01*
X150416782Y-82321949D01*
X150376920Y-82358700D01*
X150375530Y-82359957D01*
X150341720Y-82389914D01*
X150339729Y-82391629D01*
X150312333Y-82414566D01*
X150309217Y-82417063D01*
X150289377Y-82432271D01*
X150283762Y-82436257D01*
X150274517Y-82442317D01*
X150262166Y-82449130D01*
X150260753Y-82449774D01*
X150259008Y-82450144D01*
X150258425Y-82449755D01*
X150258372Y-82449720D01*
X150253498Y-82446502D01*
X150251296Y-82445340D01*
X150248910Y-82444631D01*
X150246501Y-82444400D01*
X149753499Y-82444400D01*
X149751021Y-82444644D01*
X149748639Y-82445367D01*
X149746502Y-82446502D01*
X149741628Y-82449720D01*
X149741575Y-82449755D01*
X149740992Y-82450144D01*
X149739247Y-82449774D01*
X149737834Y-82449130D01*
X149725483Y-82442317D01*
X149716238Y-82436257D01*
X149710623Y-82432271D01*
X149690783Y-82417063D01*
X149687667Y-82414566D01*
X149660271Y-82391629D01*
X149658280Y-82389914D01*
X149624470Y-82359957D01*
X149623080Y-82358700D01*
X149583218Y-82321949D01*
X149582150Y-82320949D01*
X149536456Y-82277569D01*
X149535694Y-82276837D01*
X149513101Y-82254900D01*
X149506368Y-82206625D01*
X149923250Y-81483548D01*
X149970403Y-81443949D01*
X150029597Y-81443949D01*
X150076750Y-81483548D01*
G37*
%TD.AperFunction*%
%TD*%
D23*
%TO.N,Net-(C2-Pad1)*%
X157762300Y-93617684D02*
X157762300Y-93882316D01*
X157551436Y-94003887D01*
X157518165Y-94000052D01*
X157505388Y-93988089D01*
X157504976Y-93987720D01*
X157498352Y-93982039D01*
X157497923Y-93981687D01*
X157464202Y-93955234D01*
X157463754Y-93954898D01*
X157456579Y-93949763D01*
X157456115Y-93949447D01*
X157420286Y-93926129D01*
X157419813Y-93925835D01*
X157412249Y-93921372D01*
X157411762Y-93921099D01*
X157373649Y-93900813D01*
X157373160Y-93900566D01*
X157365392Y-93896852D01*
X157364894Y-93896627D01*
X157324308Y-93879325D01*
X157323819Y-93879129D01*
X157316037Y-93876187D01*
X157315538Y-93876010D01*
X157272298Y-93861692D01*
X157271815Y-93861543D01*
X157264188Y-93859350D01*
X157263703Y-93859220D01*
X157217653Y-93847932D01*
X157217189Y-93847828D01*
X157209856Y-93846319D01*
X157209388Y-93846232D01*
X157160408Y-93838051D01*
X157159969Y-93837985D01*
X157153031Y-93837074D01*
X157152589Y-93837024D01*
X157100597Y-93832043D01*
X157100186Y-93832010D01*
X157093707Y-93831601D01*
X157093295Y-93831582D01*
X157071041Y-93830901D01*
X157047560Y-93806691D01*
X157047560Y-93693308D01*
X157071040Y-93669099D01*
X157093296Y-93668418D01*
X157093707Y-93668399D01*
X157100186Y-93667990D01*
X157100597Y-93667957D01*
X157152589Y-93662976D01*
X157153031Y-93662926D01*
X157159969Y-93662015D01*
X157160408Y-93661949D01*
X157209388Y-93653768D01*
X157209856Y-93653681D01*
X157217189Y-93652172D01*
X157217653Y-93652068D01*
X157263703Y-93640780D01*
X157264188Y-93640650D01*
X157271815Y-93638457D01*
X157272298Y-93638308D01*
X157315538Y-93623990D01*
X157316037Y-93623813D01*
X157323819Y-93620871D01*
X157324308Y-93620675D01*
X157364894Y-93603373D01*
X157365392Y-93603148D01*
X157373160Y-93599434D01*
X157373649Y-93599187D01*
X157411762Y-93578901D01*
X157412249Y-93578628D01*
X157419813Y-93574165D01*
X157420286Y-93573871D01*
X157456115Y-93550553D01*
X157456579Y-93550237D01*
X157463754Y-93545102D01*
X157464202Y-93544766D01*
X157497923Y-93518313D01*
X157498352Y-93517961D01*
X157504976Y-93512280D01*
X157505388Y-93511911D01*
X157518165Y-93499949D01*
X157551436Y-93496113D01*
X157762300Y-93617684D01*
%TA.AperFunction,Conductor*%
D22*
G36*
X157762300Y-93617684D02*
G01*
X157762300Y-93882316D01*
X157551436Y-94003887D01*
X157518165Y-94000052D01*
X157505388Y-93988089D01*
X157504976Y-93987720D01*
X157498352Y-93982039D01*
X157497923Y-93981687D01*
X157464202Y-93955234D01*
X157463754Y-93954898D01*
X157456579Y-93949763D01*
X157456115Y-93949447D01*
X157420286Y-93926129D01*
X157419813Y-93925835D01*
X157412249Y-93921372D01*
X157411762Y-93921099D01*
X157373649Y-93900813D01*
X157373160Y-93900566D01*
X157365392Y-93896852D01*
X157364894Y-93896627D01*
X157324308Y-93879325D01*
X157323819Y-93879129D01*
X157316037Y-93876187D01*
X157315538Y-93876010D01*
X157272298Y-93861692D01*
X157271815Y-93861543D01*
X157264188Y-93859350D01*
X157263703Y-93859220D01*
X157217653Y-93847932D01*
X157217189Y-93847828D01*
X157209856Y-93846319D01*
X157209388Y-93846232D01*
X157160408Y-93838051D01*
X157159969Y-93837985D01*
X157153031Y-93837074D01*
X157152589Y-93837024D01*
X157100597Y-93832043D01*
X157100186Y-93832010D01*
X157093707Y-93831601D01*
X157093295Y-93831582D01*
X157071041Y-93830901D01*
X157047560Y-93806691D01*
X157047560Y-93693308D01*
X157071040Y-93669099D01*
X157093296Y-93668418D01*
X157093707Y-93668399D01*
X157100186Y-93667990D01*
X157100597Y-93667957D01*
X157152589Y-93662976D01*
X157153031Y-93662926D01*
X157159969Y-93662015D01*
X157160408Y-93661949D01*
X157209388Y-93653768D01*
X157209856Y-93653681D01*
X157217189Y-93652172D01*
X157217653Y-93652068D01*
X157263703Y-93640780D01*
X157264188Y-93640650D01*
X157271815Y-93638457D01*
X157272298Y-93638308D01*
X157315538Y-93623990D01*
X157316037Y-93623813D01*
X157323819Y-93620871D01*
X157324308Y-93620675D01*
X157364894Y-93603373D01*
X157365392Y-93603148D01*
X157373160Y-93599434D01*
X157373649Y-93599187D01*
X157411762Y-93578901D01*
X157412249Y-93578628D01*
X157419813Y-93574165D01*
X157420286Y-93573871D01*
X157456115Y-93550553D01*
X157456579Y-93550237D01*
X157463754Y-93545102D01*
X157464202Y-93544766D01*
X157497923Y-93518313D01*
X157498352Y-93517961D01*
X157504976Y-93512280D01*
X157505388Y-93511911D01*
X157518165Y-93499949D01*
X157551436Y-93496113D01*
X157762300Y-93617684D01*
G37*
%TD.AperFunction*%
%TD*%
D21*
%TO.N,GND*%
X150530897Y-92772268D02*
X150595000Y-92778582D01*
X150721418Y-92778582D01*
X150721418Y-92905000D01*
X150727732Y-92969103D01*
X150743171Y-93020000D01*
X150727732Y-93070897D01*
X150721418Y-93135000D01*
X150721418Y-93373000D01*
X149278582Y-93373000D01*
X149278582Y-93135000D01*
X149272268Y-93070897D01*
X149256829Y-93020000D01*
X149272268Y-92969103D01*
X149278582Y-92905000D01*
X149278582Y-92778582D01*
X149405000Y-92778582D01*
X149469103Y-92772268D01*
X149520000Y-92756829D01*
X149570897Y-92772268D01*
X149635000Y-92778582D01*
X149885000Y-92778582D01*
X149949103Y-92772268D01*
X150000000Y-92756829D01*
X150050897Y-92772268D01*
X150115000Y-92778582D01*
X150365000Y-92778582D01*
X150429103Y-92772268D01*
X150480000Y-92756829D01*
X150530897Y-92772268D01*
%TA.AperFunction,Conductor*%
D22*
G36*
X150530897Y-92772268D02*
G01*
X150595000Y-92778582D01*
X150721418Y-92778582D01*
X150721418Y-92905000D01*
X150727732Y-92969103D01*
X150743171Y-93020000D01*
X150727732Y-93070897D01*
X150721418Y-93135000D01*
X150721418Y-93373000D01*
X149278582Y-93373000D01*
X149278582Y-93135000D01*
X149272268Y-93070897D01*
X149256829Y-93020000D01*
X149272268Y-92969103D01*
X149278582Y-92905000D01*
X149278582Y-92778582D01*
X149405000Y-92778582D01*
X149469103Y-92772268D01*
X149520000Y-92756829D01*
X149570897Y-92772268D01*
X149635000Y-92778582D01*
X149885000Y-92778582D01*
X149949103Y-92772268D01*
X150000000Y-92756829D01*
X150050897Y-92772268D01*
X150115000Y-92778582D01*
X150365000Y-92778582D01*
X150429103Y-92772268D01*
X150480000Y-92756829D01*
X150530897Y-92772268D01*
G37*
%TD.AperFunction*%
D21*
X164616870Y-79383130D02*
X164663001Y-79439341D01*
X164663001Y-92060659D01*
X164616870Y-92116870D01*
X164484672Y-92225362D01*
X164333850Y-92305978D01*
X164170189Y-92355624D01*
X163993766Y-92373000D01*
X153400000Y-92373000D01*
X153387937Y-92373574D01*
X153198829Y-92391618D01*
X153175139Y-92396180D01*
X152992856Y-92449659D01*
X152970455Y-92458620D01*
X152801575Y-92545606D01*
X152781274Y-92558640D01*
X152631890Y-92675993D01*
X152622759Y-92683896D01*
X152156445Y-93128005D01*
X152021344Y-93234137D01*
X152018582Y-93235560D01*
X152018582Y-93135000D01*
X152012268Y-93070897D01*
X151996829Y-93020000D01*
X152012268Y-92969103D01*
X152018582Y-92905000D01*
X152018582Y-92655000D01*
X152012268Y-92590897D01*
X151993570Y-92529257D01*
X151963206Y-92472450D01*
X151922343Y-92422657D01*
X151872550Y-92381794D01*
X151815743Y-92351430D01*
X151754103Y-92332732D01*
X151690000Y-92326418D01*
X151173582Y-92326418D01*
X151173582Y-91810000D01*
X151167268Y-91745897D01*
X151148570Y-91684257D01*
X151118206Y-91627450D01*
X151077343Y-91577657D01*
X151027550Y-91536794D01*
X150970743Y-91506430D01*
X150909103Y-91487732D01*
X150845000Y-91481418D01*
X150595000Y-91481418D01*
X150530897Y-91487732D01*
X150502000Y-91496498D01*
X150502000Y-91037380D01*
X150543348Y-90986997D01*
X150587342Y-90904689D01*
X150614434Y-90815379D01*
X150623582Y-90722500D01*
X150623582Y-90377500D01*
X150614434Y-90284621D01*
X150587342Y-90195311D01*
X150577000Y-90175962D01*
X150577000Y-89816885D01*
X150605772Y-89793272D01*
X150673840Y-89710331D01*
X150724419Y-89615705D01*
X150755565Y-89513029D01*
X150766082Y-89406250D01*
X150766082Y-88893750D01*
X150755565Y-88786971D01*
X150724419Y-88684295D01*
X150702000Y-88642352D01*
X150702000Y-87051512D01*
X150784119Y-86984119D01*
X150856073Y-86896443D01*
X150909540Y-86796414D01*
X150942465Y-86687876D01*
X150953582Y-86575000D01*
X150953582Y-85325000D01*
X150942465Y-85212124D01*
X150909540Y-85103586D01*
X150856073Y-85003557D01*
X150784119Y-84915881D01*
X150702000Y-84848488D01*
X150702000Y-84568582D01*
X150750000Y-84568582D01*
X150814103Y-84562268D01*
X150875743Y-84543570D01*
X150932550Y-84513206D01*
X150982343Y-84472343D01*
X151023206Y-84422550D01*
X151053570Y-84365743D01*
X151072268Y-84304103D01*
X151078582Y-84240000D01*
X151078582Y-79337000D01*
X164560660Y-79337000D01*
X164616870Y-79383130D01*
%TA.AperFunction,Conductor*%
D22*
G36*
X164616870Y-79383130D02*
G01*
X164663001Y-79439341D01*
X164663001Y-92060659D01*
X164616870Y-92116870D01*
X164484672Y-92225362D01*
X164333850Y-92305978D01*
X164170189Y-92355624D01*
X163993766Y-92373000D01*
X153400000Y-92373000D01*
X153387937Y-92373574D01*
X153198829Y-92391618D01*
X153175139Y-92396180D01*
X152992856Y-92449659D01*
X152970455Y-92458620D01*
X152801575Y-92545606D01*
X152781274Y-92558640D01*
X152631890Y-92675993D01*
X152622759Y-92683896D01*
X152156445Y-93128005D01*
X152021344Y-93234137D01*
X152018582Y-93235560D01*
X152018582Y-93135000D01*
X152012268Y-93070897D01*
X151996829Y-93020000D01*
X152012268Y-92969103D01*
X152018582Y-92905000D01*
X152018582Y-92655000D01*
X152012268Y-92590897D01*
X151993570Y-92529257D01*
X151963206Y-92472450D01*
X151922343Y-92422657D01*
X151872550Y-92381794D01*
X151815743Y-92351430D01*
X151754103Y-92332732D01*
X151690000Y-92326418D01*
X151173582Y-92326418D01*
X151173582Y-91810000D01*
X151167268Y-91745897D01*
X151148570Y-91684257D01*
X151118206Y-91627450D01*
X151077343Y-91577657D01*
X151027550Y-91536794D01*
X150970743Y-91506430D01*
X150909103Y-91487732D01*
X150845000Y-91481418D01*
X150595000Y-91481418D01*
X150530897Y-91487732D01*
X150502000Y-91496498D01*
X150502000Y-91037380D01*
X150543348Y-90986997D01*
X150587342Y-90904689D01*
X150614434Y-90815379D01*
X150623582Y-90722500D01*
X150623582Y-90377500D01*
X150614434Y-90284621D01*
X150587342Y-90195311D01*
X150577000Y-90175962D01*
X150577000Y-89816885D01*
X150605772Y-89793272D01*
X150673840Y-89710331D01*
X150724419Y-89615705D01*
X150755565Y-89513029D01*
X150766082Y-89406250D01*
X150766082Y-88893750D01*
X150755565Y-88786971D01*
X150724419Y-88684295D01*
X150702000Y-88642352D01*
X150702000Y-87051512D01*
X150784119Y-86984119D01*
X150856073Y-86896443D01*
X150909540Y-86796414D01*
X150942465Y-86687876D01*
X150953582Y-86575000D01*
X150953582Y-85325000D01*
X150942465Y-85212124D01*
X150909540Y-85103586D01*
X150856073Y-85003557D01*
X150784119Y-84915881D01*
X150702000Y-84848488D01*
X150702000Y-84568582D01*
X150750000Y-84568582D01*
X150814103Y-84562268D01*
X150875743Y-84543570D01*
X150932550Y-84513206D01*
X150982343Y-84472343D01*
X151023206Y-84422550D01*
X151053570Y-84365743D01*
X151072268Y-84304103D01*
X151078582Y-84240000D01*
X151078582Y-79337000D01*
X164560660Y-79337000D01*
X164616870Y-79383130D01*
G37*
%TD.AperFunction*%
D21*
X148921418Y-84240000D02*
X148927732Y-84304103D01*
X148946430Y-84365743D01*
X148976794Y-84422550D01*
X149017657Y-84472343D01*
X149067450Y-84513206D01*
X149124257Y-84543570D01*
X149185897Y-84562268D01*
X149250000Y-84568582D01*
X149298001Y-84568582D01*
X149298001Y-84848487D01*
X149215881Y-84915881D01*
X149143927Y-85003557D01*
X149090460Y-85103586D01*
X149057535Y-85212124D01*
X149046418Y-85325000D01*
X149046418Y-86575000D01*
X149057535Y-86687876D01*
X149090460Y-86796414D01*
X149143927Y-86896443D01*
X149215881Y-86984119D01*
X149298000Y-87051513D01*
X149298001Y-88642351D01*
X149275581Y-88684295D01*
X149244435Y-88786971D01*
X149233918Y-88893750D01*
X149233918Y-89406250D01*
X149244435Y-89513029D01*
X149275581Y-89615705D01*
X149326160Y-89710331D01*
X149394228Y-89793272D01*
X149423001Y-89816885D01*
X149423000Y-90175962D01*
X149412658Y-90195311D01*
X149385566Y-90284621D01*
X149376418Y-90377500D01*
X149376418Y-90722500D01*
X149385566Y-90815379D01*
X149412658Y-90904689D01*
X149456652Y-90986997D01*
X149498000Y-91037380D01*
X149498001Y-91496498D01*
X149469103Y-91487732D01*
X149405000Y-91481418D01*
X149155000Y-91481418D01*
X149090897Y-91487732D01*
X149029257Y-91506430D01*
X148972450Y-91536794D01*
X148922657Y-91577657D01*
X148881794Y-91627450D01*
X148851430Y-91684257D01*
X148832732Y-91745897D01*
X148826418Y-91810000D01*
X148826418Y-92326418D01*
X148310000Y-92326418D01*
X148245897Y-92332732D01*
X148184257Y-92351430D01*
X148127450Y-92381794D01*
X148077657Y-92422657D01*
X148036794Y-92472450D01*
X148006430Y-92529257D01*
X147987732Y-92590897D01*
X147981418Y-92655000D01*
X147981418Y-92905000D01*
X147987732Y-92969103D01*
X148003171Y-93020000D01*
X147987732Y-93070897D01*
X147981418Y-93135000D01*
X147981418Y-93206385D01*
X147867504Y-93112898D01*
X147457696Y-92703090D01*
X147448461Y-92694721D01*
X147296925Y-92570358D01*
X147276224Y-92556526D01*
X147103337Y-92464116D01*
X147080336Y-92454588D01*
X146892743Y-92397683D01*
X146868325Y-92392827D01*
X146673234Y-92373612D01*
X146660786Y-92373000D01*
X136006234Y-92373000D01*
X135829811Y-92355624D01*
X135666150Y-92305978D01*
X135515328Y-92225362D01*
X135383130Y-92116870D01*
X135337000Y-92060660D01*
X135337000Y-79439340D01*
X135383130Y-79383130D01*
X135439340Y-79337000D01*
X148921418Y-79337000D01*
X148921418Y-84240000D01*
%TA.AperFunction,Conductor*%
D22*
G36*
X148921418Y-84240000D02*
G01*
X148927732Y-84304103D01*
X148946430Y-84365743D01*
X148976794Y-84422550D01*
X149017657Y-84472343D01*
X149067450Y-84513206D01*
X149124257Y-84543570D01*
X149185897Y-84562268D01*
X149250000Y-84568582D01*
X149298001Y-84568582D01*
X149298001Y-84848487D01*
X149215881Y-84915881D01*
X149143927Y-85003557D01*
X149090460Y-85103586D01*
X149057535Y-85212124D01*
X149046418Y-85325000D01*
X149046418Y-86575000D01*
X149057535Y-86687876D01*
X149090460Y-86796414D01*
X149143927Y-86896443D01*
X149215881Y-86984119D01*
X149298000Y-87051513D01*
X149298001Y-88642351D01*
X149275581Y-88684295D01*
X149244435Y-88786971D01*
X149233918Y-88893750D01*
X149233918Y-89406250D01*
X149244435Y-89513029D01*
X149275581Y-89615705D01*
X149326160Y-89710331D01*
X149394228Y-89793272D01*
X149423001Y-89816885D01*
X149423000Y-90175962D01*
X149412658Y-90195311D01*
X149385566Y-90284621D01*
X149376418Y-90377500D01*
X149376418Y-90722500D01*
X149385566Y-90815379D01*
X149412658Y-90904689D01*
X149456652Y-90986997D01*
X149498000Y-91037380D01*
X149498001Y-91496498D01*
X149469103Y-91487732D01*
X149405000Y-91481418D01*
X149155000Y-91481418D01*
X149090897Y-91487732D01*
X149029257Y-91506430D01*
X148972450Y-91536794D01*
X148922657Y-91577657D01*
X148881794Y-91627450D01*
X148851430Y-91684257D01*
X148832732Y-91745897D01*
X148826418Y-91810000D01*
X148826418Y-92326418D01*
X148310000Y-92326418D01*
X148245897Y-92332732D01*
X148184257Y-92351430D01*
X148127450Y-92381794D01*
X148077657Y-92422657D01*
X148036794Y-92472450D01*
X148006430Y-92529257D01*
X147987732Y-92590897D01*
X147981418Y-92655000D01*
X147981418Y-92905000D01*
X147987732Y-92969103D01*
X148003171Y-93020000D01*
X147987732Y-93070897D01*
X147981418Y-93135000D01*
X147981418Y-93206385D01*
X147867504Y-93112898D01*
X147457696Y-92703090D01*
X147448461Y-92694721D01*
X147296925Y-92570358D01*
X147276224Y-92556526D01*
X147103337Y-92464116D01*
X147080336Y-92454588D01*
X146892743Y-92397683D01*
X146868325Y-92392827D01*
X146673234Y-92373612D01*
X146660786Y-92373000D01*
X136006234Y-92373000D01*
X135829811Y-92355624D01*
X135666150Y-92305978D01*
X135515328Y-92225362D01*
X135383130Y-92116870D01*
X135337000Y-92060660D01*
X135337000Y-79439340D01*
X135383130Y-79383130D01*
X135439340Y-79337000D01*
X148921418Y-79337000D01*
X148921418Y-84240000D01*
G37*
%TD.AperFunction*%
%TD*%
%TO.N,GND*%
X157137411Y-94417589D02*
X157243511Y-94504663D01*
X157364560Y-94569364D01*
X157495905Y-94609208D01*
X157632500Y-94622661D01*
X157760702Y-94622661D01*
X157765245Y-94624039D01*
X157775000Y-94625000D01*
X158650000Y-94625000D01*
X158659755Y-94624039D01*
X158664298Y-94622661D01*
X158897500Y-94622661D01*
X158907218Y-94621704D01*
X158968036Y-94639240D01*
X159013488Y-94658060D01*
X159026313Y-94673687D01*
X159224264Y-94836140D01*
X159450104Y-94956855D01*
X159695155Y-95031190D01*
X159726625Y-95034290D01*
X159752181Y-95042042D01*
X159860000Y-95052661D01*
X164425000Y-95052661D01*
X164425000Y-95197909D01*
X158125364Y-95175001D01*
X158125319Y-95175001D01*
X158124955Y-95175000D01*
X151984945Y-95175000D01*
X151942557Y-95157443D01*
X151925000Y-95115055D01*
X151925000Y-94843028D01*
X151997042Y-94804521D01*
X152080790Y-94735790D01*
X152149521Y-94652042D01*
X152200592Y-94556494D01*
X152232042Y-94452819D01*
X152236013Y-94412500D01*
X157133235Y-94412500D01*
X157137411Y-94417589D01*
%TA.AperFunction,Conductor*%
G36*
X157137411Y-94417589D02*
G01*
X157243511Y-94504663D01*
X157364560Y-94569364D01*
X157495905Y-94609208D01*
X157632500Y-94622661D01*
X157760702Y-94622661D01*
X157765245Y-94624039D01*
X157775000Y-94625000D01*
X158650000Y-94625000D01*
X158659755Y-94624039D01*
X158664298Y-94622661D01*
X158897500Y-94622661D01*
X158907218Y-94621704D01*
X158968036Y-94639240D01*
X159013488Y-94658060D01*
X159026313Y-94673687D01*
X159224264Y-94836140D01*
X159450104Y-94956855D01*
X159695155Y-95031190D01*
X159726625Y-95034290D01*
X159752181Y-95042042D01*
X159860000Y-95052661D01*
X164425000Y-95052661D01*
X164425000Y-95197909D01*
X158125364Y-95175001D01*
X158125319Y-95175001D01*
X158124955Y-95175000D01*
X151984945Y-95175000D01*
X151942557Y-95157443D01*
X151925000Y-95115055D01*
X151925000Y-94843028D01*
X151997042Y-94804521D01*
X152080790Y-94735790D01*
X152149521Y-94652042D01*
X152200592Y-94556494D01*
X152232042Y-94452819D01*
X152236013Y-94412500D01*
X157133235Y-94412500D01*
X157137411Y-94417589D01*
G37*
%TD.AperFunction*%
X164425001Y-92349453D02*
X164425001Y-92447339D01*
X159860000Y-92447339D01*
X159752181Y-92457958D01*
X159726625Y-92465710D01*
X159695155Y-92468810D01*
X159450104Y-92543145D01*
X159224264Y-92663860D01*
X159026313Y-92826313D01*
X159013488Y-92841940D01*
X158968036Y-92860760D01*
X158907218Y-92878296D01*
X158897500Y-92877339D01*
X158664298Y-92877339D01*
X158659755Y-92875961D01*
X158650000Y-92875000D01*
X157775000Y-92875000D01*
X157765245Y-92875961D01*
X157760702Y-92877339D01*
X157632500Y-92877339D01*
X157495905Y-92890792D01*
X157364560Y-92930636D01*
X157243511Y-92995337D01*
X157137411Y-93082411D01*
X157133235Y-93087500D01*
X152237983Y-93087500D01*
X152232042Y-93027181D01*
X152229864Y-93020000D01*
X152232042Y-93012819D01*
X152242661Y-92905000D01*
X152242661Y-92655000D01*
X152232042Y-92547181D01*
X152200592Y-92443506D01*
X152149521Y-92347958D01*
X152141146Y-92337753D01*
X164425001Y-92349453D01*
%TA.AperFunction,Conductor*%
G36*
X164425001Y-92349453D02*
G01*
X164425001Y-92447339D01*
X159860000Y-92447339D01*
X159752181Y-92457958D01*
X159726625Y-92465710D01*
X159695155Y-92468810D01*
X159450104Y-92543145D01*
X159224264Y-92663860D01*
X159026313Y-92826313D01*
X159013488Y-92841940D01*
X158968036Y-92860760D01*
X158907218Y-92878296D01*
X158897500Y-92877339D01*
X158664298Y-92877339D01*
X158659755Y-92875961D01*
X158650000Y-92875000D01*
X157775000Y-92875000D01*
X157765245Y-92875961D01*
X157760702Y-92877339D01*
X157632500Y-92877339D01*
X157495905Y-92890792D01*
X157364560Y-92930636D01*
X157243511Y-92995337D01*
X157137411Y-93082411D01*
X157133235Y-93087500D01*
X152237983Y-93087500D01*
X152232042Y-93027181D01*
X152229864Y-93020000D01*
X152232042Y-93012819D01*
X152242661Y-92905000D01*
X152242661Y-92655000D01*
X152232042Y-92547181D01*
X152200592Y-92443506D01*
X152149521Y-92347958D01*
X152141146Y-92337753D01*
X164425001Y-92349453D01*
G37*
%TD.AperFunction*%
%TD*%
%TO.N,GND*%
X147767958Y-94452819D02*
X147799408Y-94556494D01*
X147850479Y-94652042D01*
X147919210Y-94735790D01*
X148002958Y-94804521D01*
X148075000Y-94843028D01*
X148075000Y-95090055D01*
X148057443Y-95132443D01*
X148015055Y-95150000D01*
X135575000Y-95150000D01*
X135575000Y-95052661D01*
X139877162Y-95052661D01*
X139902029Y-95056275D01*
X139971417Y-95052661D01*
X140140000Y-95052661D01*
X140247819Y-95042042D01*
X140273375Y-95034290D01*
X140304845Y-95031190D01*
X140549896Y-94956855D01*
X140775736Y-94836140D01*
X140973687Y-94673687D01*
X141014594Y-94623841D01*
X141015245Y-94624039D01*
X141025000Y-94625000D01*
X142125000Y-94625000D01*
X142134755Y-94624039D01*
X142139298Y-94622661D01*
X142367500Y-94622661D01*
X142504095Y-94609208D01*
X142635440Y-94569364D01*
X142756489Y-94504663D01*
X142797544Y-94470970D01*
X142898960Y-94412500D01*
X147763987Y-94412500D01*
X147767958Y-94452819D01*
%TA.AperFunction,Conductor*%
G36*
X147767958Y-94452819D02*
G01*
X147799408Y-94556494D01*
X147850479Y-94652042D01*
X147919210Y-94735790D01*
X148002958Y-94804521D01*
X148075000Y-94843028D01*
X148075000Y-95090055D01*
X148057443Y-95132443D01*
X148015055Y-95150000D01*
X135575000Y-95150000D01*
X135575000Y-95052661D01*
X139877162Y-95052661D01*
X139902029Y-95056275D01*
X139971417Y-95052661D01*
X140140000Y-95052661D01*
X140247819Y-95042042D01*
X140273375Y-95034290D01*
X140304845Y-95031190D01*
X140549896Y-94956855D01*
X140775736Y-94836140D01*
X140973687Y-94673687D01*
X141014594Y-94623841D01*
X141015245Y-94624039D01*
X141025000Y-94625000D01*
X142125000Y-94625000D01*
X142134755Y-94624039D01*
X142139298Y-94622661D01*
X142367500Y-94622661D01*
X142504095Y-94609208D01*
X142635440Y-94569364D01*
X142756489Y-94504663D01*
X142797544Y-94470970D01*
X142898960Y-94412500D01*
X147763987Y-94412500D01*
X147767958Y-94452819D01*
G37*
%TD.AperFunction*%
X141874636Y-92324999D02*
X141874681Y-92324999D01*
X141875045Y-92325000D01*
X147869320Y-92325000D01*
X147850479Y-92347958D01*
X147799408Y-92443506D01*
X147767958Y-92547181D01*
X147757339Y-92655000D01*
X147757339Y-92905000D01*
X147767958Y-93012819D01*
X147770136Y-93020000D01*
X147767958Y-93027181D01*
X147762017Y-93087500D01*
X142900097Y-93087500D01*
X142794857Y-93026825D01*
X142756489Y-92995337D01*
X142635440Y-92930636D01*
X142504095Y-92890792D01*
X142367500Y-92877339D01*
X142139298Y-92877339D01*
X142134755Y-92875961D01*
X142125000Y-92875000D01*
X141025000Y-92875000D01*
X141015245Y-92875961D01*
X141014594Y-92876159D01*
X140973687Y-92826313D01*
X140775736Y-92663860D01*
X140549896Y-92543145D01*
X140304845Y-92468810D01*
X140273375Y-92465710D01*
X140247819Y-92457958D01*
X140140000Y-92447339D01*
X135575000Y-92447339D01*
X135575000Y-92302091D01*
X141874636Y-92324999D01*
%TA.AperFunction,Conductor*%
G36*
X141874636Y-92324999D02*
G01*
X141874681Y-92324999D01*
X141875045Y-92325000D01*
X147869320Y-92325000D01*
X147850479Y-92347958D01*
X147799408Y-92443506D01*
X147767958Y-92547181D01*
X147757339Y-92655000D01*
X147757339Y-92905000D01*
X147767958Y-93012819D01*
X147770136Y-93020000D01*
X147767958Y-93027181D01*
X147762017Y-93087500D01*
X142900097Y-93087500D01*
X142794857Y-93026825D01*
X142756489Y-92995337D01*
X142635440Y-92930636D01*
X142504095Y-92890792D01*
X142367500Y-92877339D01*
X142139298Y-92877339D01*
X142134755Y-92875961D01*
X142125000Y-92875000D01*
X141025000Y-92875000D01*
X141015245Y-92875961D01*
X141014594Y-92876159D01*
X140973687Y-92826313D01*
X140775736Y-92663860D01*
X140549896Y-92543145D01*
X140304845Y-92468810D01*
X140273375Y-92465710D01*
X140247819Y-92457958D01*
X140140000Y-92447339D01*
X135575000Y-92447339D01*
X135575000Y-92302091D01*
X141874636Y-92324999D01*
G37*
%TD.AperFunction*%
%TD*%
D23*
%TO.N,Net-(C1-Pad2)*%
X142788918Y-93672922D02*
X142828517Y-93720075D01*
X142828517Y-93779269D01*
X142788918Y-93826422D01*
X142481568Y-94003622D01*
X142448655Y-93999740D01*
X142435722Y-93987502D01*
X142435355Y-93987169D01*
X142429489Y-93982037D01*
X142429111Y-93981718D01*
X142395864Y-93954842D01*
X142395457Y-93954527D01*
X142388959Y-93949696D01*
X142388541Y-93949398D01*
X142354108Y-93925900D01*
X142353665Y-93925611D01*
X142346614Y-93921218D01*
X142346161Y-93920949D01*
X142310441Y-93900699D01*
X142309971Y-93900445D01*
X142302489Y-93896610D01*
X142302009Y-93896377D01*
X142264865Y-93879269D01*
X142264378Y-93879056D01*
X142256617Y-93875868D01*
X142256118Y-93875676D01*
X142217388Y-93861640D01*
X142216892Y-93861472D01*
X142209019Y-93858981D01*
X142208515Y-93858833D01*
X142168031Y-93847842D01*
X142167537Y-93847718D01*
X142159720Y-93845929D01*
X142159221Y-93845825D01*
X142116821Y-93837896D01*
X142116341Y-93837816D01*
X142108730Y-93836693D01*
X142108244Y-93836631D01*
X142063793Y-93831815D01*
X142063331Y-93831773D01*
X142056048Y-93831252D01*
X142055585Y-93831228D01*
X142037519Y-93830597D01*
X142017800Y-93810178D01*
X142017800Y-93689165D01*
X142037518Y-93668748D01*
X142055586Y-93668116D01*
X142056048Y-93668092D01*
X142063331Y-93667571D01*
X142063793Y-93667529D01*
X142108244Y-93662713D01*
X142108730Y-93662651D01*
X142116341Y-93661528D01*
X142116821Y-93661448D01*
X142159221Y-93653519D01*
X142159720Y-93653415D01*
X142167537Y-93651626D01*
X142168031Y-93651502D01*
X142208515Y-93640511D01*
X142209019Y-93640363D01*
X142216892Y-93637872D01*
X142217388Y-93637704D01*
X142256118Y-93623668D01*
X142256617Y-93623476D01*
X142264378Y-93620288D01*
X142264865Y-93620075D01*
X142302009Y-93602967D01*
X142302489Y-93602734D01*
X142309971Y-93598899D01*
X142310441Y-93598645D01*
X142346161Y-93578395D01*
X142346614Y-93578126D01*
X142353665Y-93573733D01*
X142354108Y-93573444D01*
X142388541Y-93549946D01*
X142388959Y-93549648D01*
X142395457Y-93544817D01*
X142395864Y-93544502D01*
X142429111Y-93517626D01*
X142429489Y-93517307D01*
X142435355Y-93512175D01*
X142435722Y-93511842D01*
X142448655Y-93499605D01*
X142481568Y-93495722D01*
X142788918Y-93672922D01*
%TA.AperFunction,Conductor*%
D22*
G36*
X142788918Y-93672922D02*
G01*
X142828517Y-93720075D01*
X142828517Y-93779269D01*
X142788918Y-93826422D01*
X142481568Y-94003622D01*
X142448655Y-93999740D01*
X142435722Y-93987502D01*
X142435355Y-93987169D01*
X142429489Y-93982037D01*
X142429111Y-93981718D01*
X142395864Y-93954842D01*
X142395457Y-93954527D01*
X142388959Y-93949696D01*
X142388541Y-93949398D01*
X142354108Y-93925900D01*
X142353665Y-93925611D01*
X142346614Y-93921218D01*
X142346161Y-93920949D01*
X142310441Y-93900699D01*
X142309971Y-93900445D01*
X142302489Y-93896610D01*
X142302009Y-93896377D01*
X142264865Y-93879269D01*
X142264378Y-93879056D01*
X142256617Y-93875868D01*
X142256118Y-93875676D01*
X142217388Y-93861640D01*
X142216892Y-93861472D01*
X142209019Y-93858981D01*
X142208515Y-93858833D01*
X142168031Y-93847842D01*
X142167537Y-93847718D01*
X142159720Y-93845929D01*
X142159221Y-93845825D01*
X142116821Y-93837896D01*
X142116341Y-93837816D01*
X142108730Y-93836693D01*
X142108244Y-93836631D01*
X142063793Y-93831815D01*
X142063331Y-93831773D01*
X142056048Y-93831252D01*
X142055585Y-93831228D01*
X142037519Y-93830597D01*
X142017800Y-93810178D01*
X142017800Y-93689165D01*
X142037518Y-93668748D01*
X142055586Y-93668116D01*
X142056048Y-93668092D01*
X142063331Y-93667571D01*
X142063793Y-93667529D01*
X142108244Y-93662713D01*
X142108730Y-93662651D01*
X142116341Y-93661528D01*
X142116821Y-93661448D01*
X142159221Y-93653519D01*
X142159720Y-93653415D01*
X142167537Y-93651626D01*
X142168031Y-93651502D01*
X142208515Y-93640511D01*
X142209019Y-93640363D01*
X142216892Y-93637872D01*
X142217388Y-93637704D01*
X142256118Y-93623668D01*
X142256617Y-93623476D01*
X142264378Y-93620288D01*
X142264865Y-93620075D01*
X142302009Y-93602967D01*
X142302489Y-93602734D01*
X142309971Y-93598899D01*
X142310441Y-93598645D01*
X142346161Y-93578395D01*
X142346614Y-93578126D01*
X142353665Y-93573733D01*
X142354108Y-93573444D01*
X142388541Y-93549946D01*
X142388959Y-93549648D01*
X142395457Y-93544817D01*
X142395864Y-93544502D01*
X142429111Y-93517626D01*
X142429489Y-93517307D01*
X142435355Y-93512175D01*
X142435722Y-93511842D01*
X142448655Y-93499605D01*
X142481568Y-93495722D01*
X142788918Y-93672922D01*
G37*
%TD.AperFunction*%
%TD*%
M02*
