%TF.GenerationSoftware,KiCad,Pcbnew,5.1.7*%
%TF.CreationDate,2020-12-16T02:54:48+00:00*%
%TF.ProjectId,HMC447LC3,484d4334-3437-44c4-9333-2e6b69636164,rev?*%
%TF.SameCoordinates,Original*%
%TF.FileFunction,Legend,Top*%
%TF.FilePolarity,Positive*%
%FSLAX46Y46*%
G04 Gerber Fmt 4.6, Leading zero omitted, Abs format (unit mm)*
G04 Created by KiCad (PCBNEW 5.1.7) date 2020-12-16 02:54:48*
%MOMM*%
%LPD*%
G01*
G04 APERTURE LIST*
%ADD10C,0.150000*%
%ADD11C,0.120000*%
G04 APERTURE END LIST*
D10*
X141979642Y-97453571D02*
X141712976Y-97453571D01*
X141712976Y-97977380D02*
X141712976Y-96977380D01*
X142093928Y-96977380D01*
X143122500Y-97977380D02*
X143046309Y-97929761D01*
X143008214Y-97882142D01*
X142970119Y-97786904D01*
X142970119Y-97501190D01*
X143008214Y-97405952D01*
X143046309Y-97358333D01*
X143122500Y-97310714D01*
X143236785Y-97310714D01*
X143312976Y-97358333D01*
X143351071Y-97405952D01*
X143389166Y-97501190D01*
X143389166Y-97786904D01*
X143351071Y-97882142D01*
X143312976Y-97929761D01*
X143236785Y-97977380D01*
X143122500Y-97977380D01*
X144074880Y-97310714D02*
X144074880Y-97977380D01*
X143732023Y-97310714D02*
X143732023Y-97834523D01*
X143770119Y-97929761D01*
X143846309Y-97977380D01*
X143960595Y-97977380D01*
X144036785Y-97929761D01*
X144074880Y-97882142D01*
X144341547Y-97310714D02*
X144646309Y-97310714D01*
X144455833Y-96977380D02*
X144455833Y-97834523D01*
X144493928Y-97929761D01*
X144570119Y-97977380D01*
X144646309Y-97977380D01*
X145522500Y-97453571D02*
X146132023Y-97453571D01*
X146132023Y-97739285D02*
X145522500Y-97739285D01*
X147389166Y-97453571D02*
X147122500Y-97453571D01*
X147122500Y-97977380D02*
X147122500Y-96977380D01*
X147503452Y-96977380D01*
X148417738Y-97977380D02*
X148417738Y-97310714D01*
X148417738Y-96977380D02*
X148379642Y-97025000D01*
X148417738Y-97072619D01*
X148455833Y-97025000D01*
X148417738Y-96977380D01*
X148417738Y-97072619D01*
X148798690Y-97310714D02*
X148798690Y-97977380D01*
X148798690Y-97405952D02*
X148836785Y-97358333D01*
X148912976Y-97310714D01*
X149027261Y-97310714D01*
X149103452Y-97358333D01*
X149141547Y-97453571D01*
X149141547Y-97977380D01*
X150703452Y-96929761D02*
X150017738Y-98215476D01*
X151922500Y-97310714D02*
X151922500Y-97977380D01*
X151732023Y-96929761D02*
X151541547Y-97644047D01*
X152036785Y-97644047D01*
X142132023Y-99627380D02*
X141674880Y-99627380D01*
X141903452Y-99627380D02*
X141903452Y-98627380D01*
X141827261Y-98770238D01*
X141751071Y-98865476D01*
X141674880Y-98913095D01*
X142627261Y-98627380D02*
X142703452Y-98627380D01*
X142779642Y-98675000D01*
X142817738Y-98722619D01*
X142855833Y-98817857D01*
X142893928Y-99008333D01*
X142893928Y-99246428D01*
X142855833Y-99436904D01*
X142817738Y-99532142D01*
X142779642Y-99579761D01*
X142703452Y-99627380D01*
X142627261Y-99627380D01*
X142551071Y-99579761D01*
X142512976Y-99532142D01*
X142474880Y-99436904D01*
X142436785Y-99246428D01*
X142436785Y-99008333D01*
X142474880Y-98817857D01*
X142512976Y-98722619D01*
X142551071Y-98675000D01*
X142627261Y-98627380D01*
X143655833Y-98675000D02*
X143579642Y-98627380D01*
X143465357Y-98627380D01*
X143351071Y-98675000D01*
X143274880Y-98770238D01*
X143236785Y-98865476D01*
X143198690Y-99055952D01*
X143198690Y-99198809D01*
X143236785Y-99389285D01*
X143274880Y-99484523D01*
X143351071Y-99579761D01*
X143465357Y-99627380D01*
X143541547Y-99627380D01*
X143655833Y-99579761D01*
X143693928Y-99532142D01*
X143693928Y-99198809D01*
X143541547Y-99198809D01*
X144036785Y-99627380D02*
X144036785Y-98627380D01*
X144036785Y-99103571D02*
X144493928Y-99103571D01*
X144493928Y-99627380D02*
X144493928Y-98627380D01*
X144798690Y-98960714D02*
X145217738Y-98960714D01*
X144798690Y-99627380D01*
X145217738Y-99627380D01*
X147351071Y-98960714D02*
X146741547Y-99246428D01*
X147351071Y-99532142D01*
X148608214Y-99103571D02*
X148341547Y-99103571D01*
X148341547Y-99627380D02*
X148341547Y-98627380D01*
X148722500Y-98627380D01*
X149027261Y-99627380D02*
X149027261Y-98960714D01*
X149027261Y-98627380D02*
X148989166Y-98675000D01*
X149027261Y-98722619D01*
X149065357Y-98675000D01*
X149027261Y-98627380D01*
X149027261Y-98722619D01*
X149408214Y-98960714D02*
X149408214Y-99627380D01*
X149408214Y-99055952D02*
X149446309Y-99008333D01*
X149522500Y-98960714D01*
X149636785Y-98960714D01*
X149712976Y-99008333D01*
X149751071Y-99103571D01*
X149751071Y-99627380D01*
X151960595Y-98960714D02*
X151351071Y-99246428D01*
X151960595Y-99532142D01*
X152912976Y-98722619D02*
X152951071Y-98675000D01*
X153027261Y-98627380D01*
X153217738Y-98627380D01*
X153293928Y-98675000D01*
X153332023Y-98722619D01*
X153370119Y-98817857D01*
X153370119Y-98913095D01*
X153332023Y-99055952D01*
X152874880Y-99627380D01*
X153370119Y-99627380D01*
X154055833Y-98627380D02*
X153903452Y-98627380D01*
X153827261Y-98675000D01*
X153789166Y-98722619D01*
X153712976Y-98865476D01*
X153674880Y-99055952D01*
X153674880Y-99436904D01*
X153712976Y-99532142D01*
X153751071Y-99579761D01*
X153827261Y-99627380D01*
X153979642Y-99627380D01*
X154055833Y-99579761D01*
X154093928Y-99532142D01*
X154132023Y-99436904D01*
X154132023Y-99198809D01*
X154093928Y-99103571D01*
X154055833Y-99055952D01*
X153979642Y-99008333D01*
X153827261Y-99008333D01*
X153751071Y-99055952D01*
X153712976Y-99103571D01*
X153674880Y-99198809D01*
X154893928Y-98675000D02*
X154817738Y-98627380D01*
X154703452Y-98627380D01*
X154589166Y-98675000D01*
X154512976Y-98770238D01*
X154474880Y-98865476D01*
X154436785Y-99055952D01*
X154436785Y-99198809D01*
X154474880Y-99389285D01*
X154512976Y-99484523D01*
X154589166Y-99579761D01*
X154703452Y-99627380D01*
X154779642Y-99627380D01*
X154893928Y-99579761D01*
X154932023Y-99532142D01*
X154932023Y-99198809D01*
X154779642Y-99198809D01*
X155274880Y-99627380D02*
X155274880Y-98627380D01*
X155274880Y-99103571D02*
X155732023Y-99103571D01*
X155732023Y-99627380D02*
X155732023Y-98627380D01*
X156036785Y-98960714D02*
X156455833Y-98960714D01*
X156036785Y-99627380D01*
X156455833Y-99627380D01*
X141674880Y-100372619D02*
X141712976Y-100325000D01*
X141789166Y-100277380D01*
X141979642Y-100277380D01*
X142055833Y-100325000D01*
X142093928Y-100372619D01*
X142132023Y-100467857D01*
X142132023Y-100563095D01*
X142093928Y-100705952D01*
X141636785Y-101277380D01*
X142132023Y-101277380D01*
X142474880Y-101182142D02*
X142512976Y-101229761D01*
X142474880Y-101277380D01*
X142436785Y-101229761D01*
X142474880Y-101182142D01*
X142474880Y-101277380D01*
X143236785Y-100277380D02*
X142855833Y-100277380D01*
X142817738Y-100753571D01*
X142855833Y-100705952D01*
X142932023Y-100658333D01*
X143122500Y-100658333D01*
X143198690Y-100705952D01*
X143236785Y-100753571D01*
X143274880Y-100848809D01*
X143274880Y-101086904D01*
X143236785Y-101182142D01*
X143198690Y-101229761D01*
X143122500Y-101277380D01*
X142932023Y-101277380D01*
X142855833Y-101229761D01*
X142817738Y-101182142D01*
X144036785Y-100325000D02*
X143960595Y-100277380D01*
X143846309Y-100277380D01*
X143732023Y-100325000D01*
X143655833Y-100420238D01*
X143617738Y-100515476D01*
X143579642Y-100705952D01*
X143579642Y-100848809D01*
X143617738Y-101039285D01*
X143655833Y-101134523D01*
X143732023Y-101229761D01*
X143846309Y-101277380D01*
X143922500Y-101277380D01*
X144036785Y-101229761D01*
X144074880Y-101182142D01*
X144074880Y-100848809D01*
X143922500Y-100848809D01*
X144417738Y-101277380D02*
X144417738Y-100277380D01*
X144417738Y-100753571D02*
X144874880Y-100753571D01*
X144874880Y-101277380D02*
X144874880Y-100277380D01*
X145179642Y-100610714D02*
X145598690Y-100610714D01*
X145179642Y-101277380D01*
X145598690Y-101277380D01*
X147122500Y-100610714D02*
X146512976Y-100896428D01*
X147122500Y-101182142D01*
X148379642Y-100753571D02*
X148112976Y-100753571D01*
X148112976Y-101277380D02*
X148112976Y-100277380D01*
X148493928Y-100277380D01*
X148912976Y-101277380D02*
X148836785Y-101229761D01*
X148798690Y-101182142D01*
X148760595Y-101086904D01*
X148760595Y-100801190D01*
X148798690Y-100705952D01*
X148836785Y-100658333D01*
X148912976Y-100610714D01*
X149027261Y-100610714D01*
X149103452Y-100658333D01*
X149141547Y-100705952D01*
X149179642Y-100801190D01*
X149179642Y-101086904D01*
X149141547Y-101182142D01*
X149103452Y-101229761D01*
X149027261Y-101277380D01*
X148912976Y-101277380D01*
X149865357Y-100610714D02*
X149865357Y-101277380D01*
X149522500Y-100610714D02*
X149522500Y-101134523D01*
X149560595Y-101229761D01*
X149636785Y-101277380D01*
X149751071Y-101277380D01*
X149827261Y-101229761D01*
X149865357Y-101182142D01*
X150132023Y-100610714D02*
X150436785Y-100610714D01*
X150246309Y-100277380D02*
X150246309Y-101134523D01*
X150284404Y-101229761D01*
X150360595Y-101277380D01*
X150436785Y-101277380D01*
X151922500Y-100610714D02*
X151312976Y-100896428D01*
X151922500Y-101182142D01*
X153255833Y-100277380D02*
X153103452Y-100277380D01*
X153027261Y-100325000D01*
X152989166Y-100372619D01*
X152912976Y-100515476D01*
X152874880Y-100705952D01*
X152874880Y-101086904D01*
X152912976Y-101182142D01*
X152951071Y-101229761D01*
X153027261Y-101277380D01*
X153179642Y-101277380D01*
X153255833Y-101229761D01*
X153293928Y-101182142D01*
X153332023Y-101086904D01*
X153332023Y-100848809D01*
X153293928Y-100753571D01*
X153255833Y-100705952D01*
X153179642Y-100658333D01*
X153027261Y-100658333D01*
X152951071Y-100705952D01*
X152912976Y-100753571D01*
X152874880Y-100848809D01*
X153674880Y-101182142D02*
X153712976Y-101229761D01*
X153674880Y-101277380D01*
X153636785Y-101229761D01*
X153674880Y-101182142D01*
X153674880Y-101277380D01*
X154436785Y-100277380D02*
X154055833Y-100277380D01*
X154017738Y-100753571D01*
X154055833Y-100705952D01*
X154132023Y-100658333D01*
X154322500Y-100658333D01*
X154398690Y-100705952D01*
X154436785Y-100753571D01*
X154474880Y-100848809D01*
X154474880Y-101086904D01*
X154436785Y-101182142D01*
X154398690Y-101229761D01*
X154322500Y-101277380D01*
X154132023Y-101277380D01*
X154055833Y-101229761D01*
X154017738Y-101182142D01*
X155236785Y-100325000D02*
X155160595Y-100277380D01*
X155046309Y-100277380D01*
X154932023Y-100325000D01*
X154855833Y-100420238D01*
X154817738Y-100515476D01*
X154779642Y-100705952D01*
X154779642Y-100848809D01*
X154817738Y-101039285D01*
X154855833Y-101134523D01*
X154932023Y-101229761D01*
X155046309Y-101277380D01*
X155122500Y-101277380D01*
X155236785Y-101229761D01*
X155274880Y-101182142D01*
X155274880Y-100848809D01*
X155122500Y-100848809D01*
X155617738Y-101277380D02*
X155617738Y-100277380D01*
X155617738Y-100753571D02*
X156074880Y-100753571D01*
X156074880Y-101277380D02*
X156074880Y-100277380D01*
X156379642Y-100610714D02*
X156798690Y-100610714D01*
X156379642Y-101277380D01*
X156798690Y-101277380D01*
X137912976Y-86377380D02*
X137912976Y-85377380D01*
X138217738Y-85377380D01*
X138293928Y-85425000D01*
X138332023Y-85472619D01*
X138370119Y-85567857D01*
X138370119Y-85710714D01*
X138332023Y-85805952D01*
X138293928Y-85853571D01*
X138217738Y-85901190D01*
X137912976Y-85901190D01*
X138827261Y-86377380D02*
X138751071Y-86329761D01*
X138712976Y-86282142D01*
X138674880Y-86186904D01*
X138674880Y-85901190D01*
X138712976Y-85805952D01*
X138751071Y-85758333D01*
X138827261Y-85710714D01*
X138941547Y-85710714D01*
X139017738Y-85758333D01*
X139055833Y-85805952D01*
X139093928Y-85901190D01*
X139093928Y-86186904D01*
X139055833Y-86282142D01*
X139017738Y-86329761D01*
X138941547Y-86377380D01*
X138827261Y-86377380D01*
X139360595Y-85710714D02*
X139512976Y-86377380D01*
X139665357Y-85901190D01*
X139817738Y-86377380D01*
X139970119Y-85710714D01*
X140579642Y-86329761D02*
X140503452Y-86377380D01*
X140351071Y-86377380D01*
X140274880Y-86329761D01*
X140236785Y-86234523D01*
X140236785Y-85853571D01*
X140274880Y-85758333D01*
X140351071Y-85710714D01*
X140503452Y-85710714D01*
X140579642Y-85758333D01*
X140617738Y-85853571D01*
X140617738Y-85948809D01*
X140236785Y-86044047D01*
X140960595Y-86377380D02*
X140960595Y-85710714D01*
X140960595Y-85901190D02*
X140998690Y-85805952D01*
X141036785Y-85758333D01*
X141112976Y-85710714D01*
X141189166Y-85710714D01*
X142065357Y-86377380D02*
X142065357Y-85377380D01*
X142446309Y-85710714D02*
X142446309Y-86377380D01*
X142446309Y-85805952D02*
X142484404Y-85758333D01*
X142560595Y-85710714D01*
X142674880Y-85710714D01*
X142751071Y-85758333D01*
X142789166Y-85853571D01*
X142789166Y-86377380D01*
X138255833Y-87360714D02*
X138255833Y-88027380D01*
X138065357Y-86979761D02*
X137874880Y-87694047D01*
X138370119Y-87694047D01*
X138674880Y-87932142D02*
X138712976Y-87979761D01*
X138674880Y-88027380D01*
X138636785Y-87979761D01*
X138674880Y-87932142D01*
X138674880Y-88027380D01*
X138979642Y-87027380D02*
X139512976Y-87027380D01*
X139170119Y-88027380D01*
X140198690Y-87027380D02*
X139817738Y-87027380D01*
X139779642Y-87503571D01*
X139817738Y-87455952D01*
X139893928Y-87408333D01*
X140084404Y-87408333D01*
X140160595Y-87455952D01*
X140198690Y-87503571D01*
X140236785Y-87598809D01*
X140236785Y-87836904D01*
X140198690Y-87932142D01*
X140160595Y-87979761D01*
X140084404Y-88027380D01*
X139893928Y-88027380D01*
X139817738Y-87979761D01*
X139779642Y-87932142D01*
X140579642Y-87646428D02*
X141189166Y-87646428D01*
X141951071Y-87027380D02*
X141570119Y-87027380D01*
X141532023Y-87503571D01*
X141570119Y-87455952D01*
X141646309Y-87408333D01*
X141836785Y-87408333D01*
X141912976Y-87455952D01*
X141951071Y-87503571D01*
X141989166Y-87598809D01*
X141989166Y-87836904D01*
X141951071Y-87932142D01*
X141912976Y-87979761D01*
X141836785Y-88027380D01*
X141646309Y-88027380D01*
X141570119Y-87979761D01*
X141532023Y-87932142D01*
X142332023Y-87932142D02*
X142370119Y-87979761D01*
X142332023Y-88027380D01*
X142293928Y-87979761D01*
X142332023Y-87932142D01*
X142332023Y-88027380D01*
X142674880Y-87122619D02*
X142712976Y-87075000D01*
X142789166Y-87027380D01*
X142979642Y-87027380D01*
X143055833Y-87075000D01*
X143093928Y-87122619D01*
X143132023Y-87217857D01*
X143132023Y-87313095D01*
X143093928Y-87455952D01*
X142636785Y-88027380D01*
X143132023Y-88027380D01*
X143855833Y-87027380D02*
X143474880Y-87027380D01*
X143436785Y-87503571D01*
X143474880Y-87455952D01*
X143551071Y-87408333D01*
X143741547Y-87408333D01*
X143817738Y-87455952D01*
X143855833Y-87503571D01*
X143893928Y-87598809D01*
X143893928Y-87836904D01*
X143855833Y-87932142D01*
X143817738Y-87979761D01*
X143741547Y-88027380D01*
X143551071Y-88027380D01*
X143474880Y-87979761D01*
X143436785Y-87932142D01*
X144122500Y-87027380D02*
X144389166Y-88027380D01*
X144655833Y-87027380D01*
X144922500Y-88027380D02*
X144922500Y-87027380D01*
X145112976Y-87027380D01*
X145227261Y-87075000D01*
X145303452Y-87170238D01*
X145341547Y-87265476D01*
X145379642Y-87455952D01*
X145379642Y-87598809D01*
X145341547Y-87789285D01*
X145303452Y-87884523D01*
X145227261Y-87979761D01*
X145112976Y-88027380D01*
X144922500Y-88027380D01*
X146065357Y-87979761D02*
X145989166Y-88027380D01*
X145836785Y-88027380D01*
X145760595Y-87979761D01*
X145722500Y-87932142D01*
X145684404Y-87836904D01*
X145684404Y-87551190D01*
X145722500Y-87455952D01*
X145760595Y-87408333D01*
X145836785Y-87360714D01*
X145989166Y-87360714D01*
X146065357Y-87408333D01*
X141074880Y-89105952D02*
X140998690Y-89058333D01*
X140960595Y-89010714D01*
X140922500Y-88915476D01*
X140922500Y-88867857D01*
X140960595Y-88772619D01*
X140998690Y-88725000D01*
X141074880Y-88677380D01*
X141227261Y-88677380D01*
X141303452Y-88725000D01*
X141341547Y-88772619D01*
X141379642Y-88867857D01*
X141379642Y-88915476D01*
X141341547Y-89010714D01*
X141303452Y-89058333D01*
X141227261Y-89105952D01*
X141074880Y-89105952D01*
X140998690Y-89153571D01*
X140960595Y-89201190D01*
X140922500Y-89296428D01*
X140922500Y-89486904D01*
X140960595Y-89582142D01*
X140998690Y-89629761D01*
X141074880Y-89677380D01*
X141227261Y-89677380D01*
X141303452Y-89629761D01*
X141341547Y-89582142D01*
X141379642Y-89486904D01*
X141379642Y-89296428D01*
X141341547Y-89201190D01*
X141303452Y-89153571D01*
X141227261Y-89105952D01*
X142065357Y-89010714D02*
X142065357Y-89677380D01*
X141874880Y-88629761D02*
X141684404Y-89344047D01*
X142179642Y-89344047D01*
X142484404Y-89296428D02*
X143093928Y-89296428D01*
X143893928Y-89677380D02*
X143436785Y-89677380D01*
X143665357Y-89677380D02*
X143665357Y-88677380D01*
X143589166Y-88820238D01*
X143512976Y-88915476D01*
X143436785Y-88963095D01*
X144389166Y-88677380D02*
X144465357Y-88677380D01*
X144541547Y-88725000D01*
X144579642Y-88772619D01*
X144617738Y-88867857D01*
X144655833Y-89058333D01*
X144655833Y-89296428D01*
X144617738Y-89486904D01*
X144579642Y-89582142D01*
X144541547Y-89629761D01*
X144465357Y-89677380D01*
X144389166Y-89677380D01*
X144312976Y-89629761D01*
X144274880Y-89582142D01*
X144236785Y-89486904D01*
X144198690Y-89296428D01*
X144198690Y-89058333D01*
X144236785Y-88867857D01*
X144274880Y-88772619D01*
X144312976Y-88725000D01*
X144389166Y-88677380D01*
X145112976Y-89105952D02*
X145036785Y-89058333D01*
X144998690Y-89010714D01*
X144960595Y-88915476D01*
X144960595Y-88867857D01*
X144998690Y-88772619D01*
X145036785Y-88725000D01*
X145112976Y-88677380D01*
X145265357Y-88677380D01*
X145341547Y-88725000D01*
X145379642Y-88772619D01*
X145417738Y-88867857D01*
X145417738Y-88915476D01*
X145379642Y-89010714D01*
X145341547Y-89058333D01*
X145265357Y-89105952D01*
X145112976Y-89105952D01*
X145036785Y-89153571D01*
X144998690Y-89201190D01*
X144960595Y-89296428D01*
X144960595Y-89486904D01*
X144998690Y-89582142D01*
X145036785Y-89629761D01*
X145112976Y-89677380D01*
X145265357Y-89677380D01*
X145341547Y-89629761D01*
X145379642Y-89582142D01*
X145417738Y-89486904D01*
X145417738Y-89296428D01*
X145379642Y-89201190D01*
X145341547Y-89153571D01*
X145265357Y-89105952D01*
X145760595Y-89677380D02*
X145760595Y-89010714D01*
X145760595Y-89105952D02*
X145798690Y-89058333D01*
X145874880Y-89010714D01*
X145989166Y-89010714D01*
X146065357Y-89058333D01*
X146103452Y-89153571D01*
X146103452Y-89677380D01*
X146103452Y-89153571D02*
X146141547Y-89058333D01*
X146217738Y-89010714D01*
X146332023Y-89010714D01*
X146408214Y-89058333D01*
X146446309Y-89153571D01*
X146446309Y-89677380D01*
X146789166Y-89391666D02*
X147170119Y-89391666D01*
X146712976Y-89677380D02*
X146979642Y-88677380D01*
X147246309Y-89677380D01*
X154265476Y-96152380D02*
X153932142Y-95676190D01*
X153694047Y-96152380D02*
X153694047Y-95152380D01*
X154075000Y-95152380D01*
X154170238Y-95200000D01*
X154217857Y-95247619D01*
X154265476Y-95342857D01*
X154265476Y-95485714D01*
X154217857Y-95580952D01*
X154170238Y-95628571D01*
X154075000Y-95676190D01*
X153694047Y-95676190D01*
X155027380Y-95628571D02*
X154694047Y-95628571D01*
X154694047Y-96152380D02*
X154694047Y-95152380D01*
X155170238Y-95152380D01*
X155694047Y-96152380D02*
X155598809Y-96104761D01*
X155551190Y-96057142D01*
X155503571Y-95961904D01*
X155503571Y-95676190D01*
X155551190Y-95580952D01*
X155598809Y-95533333D01*
X155694047Y-95485714D01*
X155836904Y-95485714D01*
X155932142Y-95533333D01*
X155979761Y-95580952D01*
X156027380Y-95676190D01*
X156027380Y-95961904D01*
X155979761Y-96057142D01*
X155932142Y-96104761D01*
X155836904Y-96152380D01*
X155694047Y-96152380D01*
X156884523Y-95485714D02*
X156884523Y-96152380D01*
X156455952Y-95485714D02*
X156455952Y-96009523D01*
X156503571Y-96104761D01*
X156598809Y-96152380D01*
X156741666Y-96152380D01*
X156836904Y-96104761D01*
X156884523Y-96057142D01*
X157217857Y-95485714D02*
X157598809Y-95485714D01*
X157360714Y-95152380D02*
X157360714Y-96009523D01*
X157408333Y-96104761D01*
X157503571Y-96152380D01*
X157598809Y-96152380D01*
X143840476Y-96202380D02*
X143507142Y-95726190D01*
X143269047Y-96202380D02*
X143269047Y-95202380D01*
X143650000Y-95202380D01*
X143745238Y-95250000D01*
X143792857Y-95297619D01*
X143840476Y-95392857D01*
X143840476Y-95535714D01*
X143792857Y-95630952D01*
X143745238Y-95678571D01*
X143650000Y-95726190D01*
X143269047Y-95726190D01*
X144602380Y-95678571D02*
X144269047Y-95678571D01*
X144269047Y-96202380D02*
X144269047Y-95202380D01*
X144745238Y-95202380D01*
X145126190Y-96202380D02*
X145126190Y-95535714D01*
X145126190Y-95202380D02*
X145078571Y-95250000D01*
X145126190Y-95297619D01*
X145173809Y-95250000D01*
X145126190Y-95202380D01*
X145126190Y-95297619D01*
X145602380Y-95535714D02*
X145602380Y-96202380D01*
X145602380Y-95630952D02*
X145650000Y-95583333D01*
X145745238Y-95535714D01*
X145888095Y-95535714D01*
X145983333Y-95583333D01*
X146030952Y-95678571D01*
X146030952Y-96202380D01*
X141735595Y-102977380D02*
X141735595Y-101977380D01*
X141735595Y-102453571D02*
X142307023Y-102453571D01*
X142307023Y-102977380D02*
X142307023Y-101977380D01*
X142783214Y-102977380D02*
X142783214Y-101977380D01*
X143116547Y-102691666D01*
X143449880Y-101977380D01*
X143449880Y-102977380D01*
X144497500Y-102882142D02*
X144449880Y-102929761D01*
X144307023Y-102977380D01*
X144211785Y-102977380D01*
X144068928Y-102929761D01*
X143973690Y-102834523D01*
X143926071Y-102739285D01*
X143878452Y-102548809D01*
X143878452Y-102405952D01*
X143926071Y-102215476D01*
X143973690Y-102120238D01*
X144068928Y-102025000D01*
X144211785Y-101977380D01*
X144307023Y-101977380D01*
X144449880Y-102025000D01*
X144497500Y-102072619D01*
X145354642Y-102310714D02*
X145354642Y-102977380D01*
X145116547Y-101929761D02*
X144878452Y-102644047D01*
X145497500Y-102644047D01*
X146307023Y-102310714D02*
X146307023Y-102977380D01*
X146068928Y-101929761D02*
X145830833Y-102644047D01*
X146449880Y-102644047D01*
X146735595Y-101977380D02*
X147402261Y-101977380D01*
X146973690Y-102977380D01*
X148259404Y-102977380D02*
X147783214Y-102977380D01*
X147783214Y-101977380D01*
X149164166Y-102882142D02*
X149116547Y-102929761D01*
X148973690Y-102977380D01*
X148878452Y-102977380D01*
X148735595Y-102929761D01*
X148640357Y-102834523D01*
X148592738Y-102739285D01*
X148545119Y-102548809D01*
X148545119Y-102405952D01*
X148592738Y-102215476D01*
X148640357Y-102120238D01*
X148735595Y-102025000D01*
X148878452Y-101977380D01*
X148973690Y-101977380D01*
X149116547Y-102025000D01*
X149164166Y-102072619D01*
X149497500Y-101977380D02*
X150116547Y-101977380D01*
X149783214Y-102358333D01*
X149926071Y-102358333D01*
X150021309Y-102405952D01*
X150068928Y-102453571D01*
X150116547Y-102548809D01*
X150116547Y-102786904D01*
X150068928Y-102882142D01*
X150021309Y-102929761D01*
X149926071Y-102977380D01*
X149640357Y-102977380D01*
X149545119Y-102929761D01*
X149497500Y-102882142D01*
X141735595Y-104627380D02*
X141735595Y-103627380D01*
X142116547Y-103627380D01*
X142211785Y-103675000D01*
X142259404Y-103722619D01*
X142307023Y-103817857D01*
X142307023Y-103960714D01*
X142259404Y-104055952D01*
X142211785Y-104103571D01*
X142116547Y-104151190D01*
X141735595Y-104151190D01*
X142735595Y-104627380D02*
X142735595Y-103627380D01*
X143164166Y-104627380D02*
X143164166Y-104103571D01*
X143116547Y-104008333D01*
X143021309Y-103960714D01*
X142878452Y-103960714D01*
X142783214Y-104008333D01*
X142735595Y-104055952D01*
X143640357Y-104627380D02*
X143640357Y-103960714D01*
X143640357Y-103627380D02*
X143592738Y-103675000D01*
X143640357Y-103722619D01*
X143687976Y-103675000D01*
X143640357Y-103627380D01*
X143640357Y-103722619D01*
X144259404Y-104627380D02*
X144164166Y-104579761D01*
X144116547Y-104484523D01*
X144116547Y-103627380D01*
X144640357Y-104627380D02*
X144640357Y-103960714D01*
X144640357Y-103627380D02*
X144592738Y-103675000D01*
X144640357Y-103722619D01*
X144687976Y-103675000D01*
X144640357Y-103627380D01*
X144640357Y-103722619D01*
X145116547Y-103960714D02*
X145116547Y-104960714D01*
X145116547Y-104008333D02*
X145211785Y-103960714D01*
X145402261Y-103960714D01*
X145497500Y-104008333D01*
X145545119Y-104055952D01*
X145592738Y-104151190D01*
X145592738Y-104436904D01*
X145545119Y-104532142D01*
X145497500Y-104579761D01*
X145402261Y-104627380D01*
X145211785Y-104627380D01*
X145116547Y-104579761D01*
X146021309Y-103960714D02*
X146021309Y-104960714D01*
X146021309Y-104008333D02*
X146116547Y-103960714D01*
X146307023Y-103960714D01*
X146402261Y-104008333D01*
X146449880Y-104055952D01*
X146497500Y-104151190D01*
X146497500Y-104436904D01*
X146449880Y-104532142D01*
X146402261Y-104579761D01*
X146307023Y-104627380D01*
X146116547Y-104627380D01*
X146021309Y-104579761D01*
X147307023Y-104579761D02*
X147211785Y-104627380D01*
X147021309Y-104627380D01*
X146926071Y-104579761D01*
X146878452Y-104484523D01*
X146878452Y-104103571D01*
X146926071Y-104008333D01*
X147021309Y-103960714D01*
X147211785Y-103960714D01*
X147307023Y-104008333D01*
X147354642Y-104103571D01*
X147354642Y-104198809D01*
X146878452Y-104294047D01*
X148402261Y-103627380D02*
X148973690Y-103627380D01*
X148687976Y-104627380D02*
X148687976Y-103627380D01*
X149307023Y-104627380D02*
X149307023Y-103960714D01*
X149307023Y-104151190D02*
X149354642Y-104055952D01*
X149402261Y-104008333D01*
X149497500Y-103960714D01*
X149592738Y-103960714D01*
X150068928Y-104627380D02*
X149973690Y-104579761D01*
X149926071Y-104532142D01*
X149878452Y-104436904D01*
X149878452Y-104151190D01*
X149926071Y-104055952D01*
X149973690Y-104008333D01*
X150068928Y-103960714D01*
X150211785Y-103960714D01*
X150307023Y-104008333D01*
X150354642Y-104055952D01*
X150402261Y-104151190D01*
X150402261Y-104436904D01*
X150354642Y-104532142D01*
X150307023Y-104579761D01*
X150211785Y-104627380D01*
X150068928Y-104627380D01*
X150687976Y-103960714D02*
X151068928Y-103960714D01*
X150830833Y-103627380D02*
X150830833Y-104484523D01*
X150878452Y-104579761D01*
X150973690Y-104627380D01*
X151068928Y-104627380D01*
X151259404Y-103960714D02*
X151640357Y-103960714D01*
X151402261Y-103627380D02*
X151402261Y-104484523D01*
X151449880Y-104579761D01*
X151545119Y-104627380D01*
X151640357Y-104627380D01*
X151973690Y-104627380D02*
X151973690Y-103960714D01*
X151973690Y-103627380D02*
X151926071Y-103675000D01*
X151973690Y-103722619D01*
X152021309Y-103675000D01*
X151973690Y-103627380D01*
X151973690Y-103722619D01*
X152830833Y-104579761D02*
X152735595Y-104627380D01*
X152545119Y-104627380D01*
X152449880Y-104579761D01*
X152402261Y-104484523D01*
X152402261Y-104103571D01*
X152449880Y-104008333D01*
X152545119Y-103960714D01*
X152735595Y-103960714D01*
X152830833Y-104008333D01*
X152878452Y-104103571D01*
X152878452Y-104198809D01*
X152402261Y-104294047D01*
X153307023Y-104627380D02*
X153307023Y-103960714D01*
X153307023Y-104151190D02*
X153354642Y-104055952D01*
X153402261Y-104008333D01*
X153497500Y-103960714D01*
X153592738Y-103960714D01*
X154640357Y-103722619D02*
X154687976Y-103675000D01*
X154783214Y-103627380D01*
X155021309Y-103627380D01*
X155116547Y-103675000D01*
X155164166Y-103722619D01*
X155211785Y-103817857D01*
X155211785Y-103913095D01*
X155164166Y-104055952D01*
X154592738Y-104627380D01*
X155211785Y-104627380D01*
X155830833Y-103627380D02*
X155926071Y-103627380D01*
X156021309Y-103675000D01*
X156068928Y-103722619D01*
X156116547Y-103817857D01*
X156164166Y-104008333D01*
X156164166Y-104246428D01*
X156116547Y-104436904D01*
X156068928Y-104532142D01*
X156021309Y-104579761D01*
X155926071Y-104627380D01*
X155830833Y-104627380D01*
X155735595Y-104579761D01*
X155687976Y-104532142D01*
X155640357Y-104436904D01*
X155592738Y-104246428D01*
X155592738Y-104008333D01*
X155640357Y-103817857D01*
X155687976Y-103722619D01*
X155735595Y-103675000D01*
X155830833Y-103627380D01*
X156545119Y-103722619D02*
X156592738Y-103675000D01*
X156687976Y-103627380D01*
X156926071Y-103627380D01*
X157021309Y-103675000D01*
X157068928Y-103722619D01*
X157116547Y-103817857D01*
X157116547Y-103913095D01*
X157068928Y-104055952D01*
X156497500Y-104627380D01*
X157116547Y-104627380D01*
X157735595Y-103627380D02*
X157830833Y-103627380D01*
X157926071Y-103675000D01*
X157973690Y-103722619D01*
X158021309Y-103817857D01*
X158068928Y-104008333D01*
X158068928Y-104246428D01*
X158021309Y-104436904D01*
X157973690Y-104532142D01*
X157926071Y-104579761D01*
X157830833Y-104627380D01*
X157735595Y-104627380D01*
X157640357Y-104579761D01*
X157592738Y-104532142D01*
X157545119Y-104436904D01*
X157497500Y-104246428D01*
X157497500Y-104008333D01*
X157545119Y-103817857D01*
X157592738Y-103722619D01*
X157640357Y-103675000D01*
X157735595Y-103627380D01*
X141735595Y-105753571D02*
X142068928Y-105753571D01*
X142211785Y-106277380D02*
X141735595Y-106277380D01*
X141735595Y-105277380D01*
X142211785Y-105277380D01*
X142640357Y-106277380D02*
X142640357Y-105610714D01*
X142640357Y-105801190D02*
X142687976Y-105705952D01*
X142735595Y-105658333D01*
X142830833Y-105610714D01*
X142926071Y-105610714D01*
X143259404Y-105753571D02*
X144021309Y-105753571D01*
X144021309Y-106039285D02*
X143259404Y-106039285D01*
X144926071Y-105610714D02*
X144926071Y-106277380D01*
X144687976Y-105229761D02*
X144449880Y-105944047D01*
X145068928Y-105944047D01*
X145449880Y-106182142D02*
X145497500Y-106229761D01*
X145449880Y-106277380D01*
X145402261Y-106229761D01*
X145449880Y-106182142D01*
X145449880Y-106277380D01*
X146116547Y-105277380D02*
X146211785Y-105277380D01*
X146307023Y-105325000D01*
X146354642Y-105372619D01*
X146402261Y-105467857D01*
X146449880Y-105658333D01*
X146449880Y-105896428D01*
X146402261Y-106086904D01*
X146354642Y-106182142D01*
X146307023Y-106229761D01*
X146211785Y-106277380D01*
X146116547Y-106277380D01*
X146021309Y-106229761D01*
X145973690Y-106182142D01*
X145926071Y-106086904D01*
X145878452Y-105896428D01*
X145878452Y-105658333D01*
X145926071Y-105467857D01*
X145973690Y-105372619D01*
X146021309Y-105325000D01*
X146116547Y-105277380D01*
X147354642Y-105277380D02*
X146878452Y-105277380D01*
X146830833Y-105753571D01*
X146878452Y-105705952D01*
X146973690Y-105658333D01*
X147211785Y-105658333D01*
X147307023Y-105705952D01*
X147354642Y-105753571D01*
X147402261Y-105848809D01*
X147402261Y-106086904D01*
X147354642Y-106182142D01*
X147307023Y-106229761D01*
X147211785Y-106277380D01*
X146973690Y-106277380D01*
X146878452Y-106229761D01*
X146830833Y-106182142D01*
X148592738Y-106277380D02*
X148592738Y-105277380D01*
X148592738Y-105753571D02*
X149164166Y-105753571D01*
X149164166Y-106277380D02*
X149164166Y-105277380D01*
X149640357Y-105753571D02*
X150402261Y-105753571D01*
X150402261Y-106039285D02*
X149640357Y-106039285D01*
X151068928Y-105277380D02*
X151164166Y-105277380D01*
X151259404Y-105325000D01*
X151307023Y-105372619D01*
X151354642Y-105467857D01*
X151402261Y-105658333D01*
X151402261Y-105896428D01*
X151354642Y-106086904D01*
X151307023Y-106182142D01*
X151259404Y-106229761D01*
X151164166Y-106277380D01*
X151068928Y-106277380D01*
X150973690Y-106229761D01*
X150926071Y-106182142D01*
X150878452Y-106086904D01*
X150830833Y-105896428D01*
X150830833Y-105658333D01*
X150878452Y-105467857D01*
X150926071Y-105372619D01*
X150973690Y-105325000D01*
X151068928Y-105277380D01*
X151830833Y-106182142D02*
X151878452Y-106229761D01*
X151830833Y-106277380D01*
X151783214Y-106229761D01*
X151830833Y-106182142D01*
X151830833Y-106277380D01*
X152497500Y-105277380D02*
X152592738Y-105277380D01*
X152687976Y-105325000D01*
X152735595Y-105372619D01*
X152783214Y-105467857D01*
X152830833Y-105658333D01*
X152830833Y-105896428D01*
X152783214Y-106086904D01*
X152735595Y-106182142D01*
X152687976Y-106229761D01*
X152592738Y-106277380D01*
X152497500Y-106277380D01*
X152402261Y-106229761D01*
X152354642Y-106182142D01*
X152307023Y-106086904D01*
X152259404Y-105896428D01*
X152259404Y-105658333D01*
X152307023Y-105467857D01*
X152354642Y-105372619D01*
X152402261Y-105325000D01*
X152497500Y-105277380D01*
X153402261Y-105705952D02*
X153307023Y-105658333D01*
X153259404Y-105610714D01*
X153211785Y-105515476D01*
X153211785Y-105467857D01*
X153259404Y-105372619D01*
X153307023Y-105325000D01*
X153402261Y-105277380D01*
X153592738Y-105277380D01*
X153687976Y-105325000D01*
X153735595Y-105372619D01*
X153783214Y-105467857D01*
X153783214Y-105515476D01*
X153735595Y-105610714D01*
X153687976Y-105658333D01*
X153592738Y-105705952D01*
X153402261Y-105705952D01*
X153307023Y-105753571D01*
X153259404Y-105801190D01*
X153211785Y-105896428D01*
X153211785Y-106086904D01*
X153259404Y-106182142D01*
X153307023Y-106229761D01*
X153402261Y-106277380D01*
X153592738Y-106277380D01*
X153687976Y-106229761D01*
X153735595Y-106182142D01*
X153783214Y-106086904D01*
X153783214Y-105896428D01*
X153735595Y-105801190D01*
X153687976Y-105753571D01*
X153592738Y-105705952D01*
X154354642Y-105705952D02*
X154259404Y-105658333D01*
X154211785Y-105610714D01*
X154164166Y-105515476D01*
X154164166Y-105467857D01*
X154211785Y-105372619D01*
X154259404Y-105325000D01*
X154354642Y-105277380D01*
X154545119Y-105277380D01*
X154640357Y-105325000D01*
X154687976Y-105372619D01*
X154735595Y-105467857D01*
X154735595Y-105515476D01*
X154687976Y-105610714D01*
X154640357Y-105658333D01*
X154545119Y-105705952D01*
X154354642Y-105705952D01*
X154259404Y-105753571D01*
X154211785Y-105801190D01*
X154164166Y-105896428D01*
X154164166Y-106086904D01*
X154211785Y-106182142D01*
X154259404Y-106229761D01*
X154354642Y-106277380D01*
X154545119Y-106277380D01*
X154640357Y-106229761D01*
X154687976Y-106182142D01*
X154735595Y-106086904D01*
X154735595Y-105896428D01*
X154687976Y-105801190D01*
X154640357Y-105753571D01*
X154545119Y-105705952D01*
X155211785Y-106277380D02*
X155402261Y-106277380D01*
X155497500Y-106229761D01*
X155545119Y-106182142D01*
X155640357Y-106039285D01*
X155687976Y-105848809D01*
X155687976Y-105467857D01*
X155640357Y-105372619D01*
X155592738Y-105325000D01*
X155497500Y-105277380D01*
X155307023Y-105277380D01*
X155211785Y-105325000D01*
X155164166Y-105372619D01*
X155116547Y-105467857D01*
X155116547Y-105705952D01*
X155164166Y-105801190D01*
X155211785Y-105848809D01*
X155307023Y-105896428D01*
X155497500Y-105896428D01*
X155592738Y-105848809D01*
X155640357Y-105801190D01*
X155687976Y-105705952D01*
X156116547Y-106277380D02*
X156116547Y-105610714D01*
X156116547Y-105705952D02*
X156164166Y-105658333D01*
X156259404Y-105610714D01*
X156402261Y-105610714D01*
X156497500Y-105658333D01*
X156545119Y-105753571D01*
X156545119Y-106277380D01*
X156545119Y-105753571D02*
X156592738Y-105658333D01*
X156687976Y-105610714D01*
X156830833Y-105610714D01*
X156926071Y-105658333D01*
X156973690Y-105753571D01*
X156973690Y-106277380D01*
X157449880Y-106277380D02*
X157449880Y-105610714D01*
X157449880Y-105705952D02*
X157497500Y-105658333D01*
X157592738Y-105610714D01*
X157735595Y-105610714D01*
X157830833Y-105658333D01*
X157878452Y-105753571D01*
X157878452Y-106277380D01*
X157878452Y-105753571D02*
X157926071Y-105658333D01*
X158021309Y-105610714D01*
X158164166Y-105610714D01*
X158259404Y-105658333D01*
X158307023Y-105753571D01*
X158307023Y-106277380D01*
%TO.C,U1*%
X151650000Y-91850000D02*
X151650000Y-92375000D01*
X148350000Y-95150000D02*
X148350000Y-94625000D01*
X151650000Y-95150000D02*
X151650000Y-94625000D01*
X148350000Y-91850000D02*
X148875000Y-91850000D01*
X148350000Y-95150000D02*
X148875000Y-95150000D01*
X151650000Y-95150000D02*
X151125000Y-95150000D01*
X151650000Y-91850000D02*
X151125000Y-91850000D01*
D11*
%TO.C,C4*%
X150624721Y-88640000D02*
X150950279Y-88640000D01*
X150624721Y-89660000D02*
X150950279Y-89660000D01*
%TO.C,C5*%
X150797936Y-86860000D02*
X152002064Y-86860000D01*
X150797936Y-85040000D02*
X152002064Y-85040000D01*
%TO.C,U1*%
D10*
X149238095Y-95702380D02*
X149238095Y-96511904D01*
X149285714Y-96607142D01*
X149333333Y-96654761D01*
X149428571Y-96702380D01*
X149619047Y-96702380D01*
X149714285Y-96654761D01*
X149761904Y-96607142D01*
X149809523Y-96511904D01*
X149809523Y-95702380D01*
X150809523Y-96702380D02*
X150238095Y-96702380D01*
X150523809Y-96702380D02*
X150523809Y-95702380D01*
X150428571Y-95845238D01*
X150333333Y-95940476D01*
X150238095Y-95988095D01*
%TO.C,C3*%
X153283333Y-90882142D02*
X153235714Y-90929761D01*
X153092857Y-90977380D01*
X152997619Y-90977380D01*
X152854761Y-90929761D01*
X152759523Y-90834523D01*
X152711904Y-90739285D01*
X152664285Y-90548809D01*
X152664285Y-90405952D01*
X152711904Y-90215476D01*
X152759523Y-90120238D01*
X152854761Y-90025000D01*
X152997619Y-89977380D01*
X153092857Y-89977380D01*
X153235714Y-90025000D01*
X153283333Y-90072619D01*
X153616666Y-89977380D02*
X154235714Y-89977380D01*
X153902380Y-90358333D01*
X154045238Y-90358333D01*
X154140476Y-90405952D01*
X154188095Y-90453571D01*
X154235714Y-90548809D01*
X154235714Y-90786904D01*
X154188095Y-90882142D01*
X154140476Y-90929761D01*
X154045238Y-90977380D01*
X153759523Y-90977380D01*
X153664285Y-90929761D01*
X153616666Y-90882142D01*
%TO.C,J1*%
X137996666Y-99402380D02*
X137996666Y-100116666D01*
X137949047Y-100259523D01*
X137853809Y-100354761D01*
X137710952Y-100402380D01*
X137615714Y-100402380D01*
X138996666Y-100402380D02*
X138425238Y-100402380D01*
X138710952Y-100402380D02*
X138710952Y-99402380D01*
X138615714Y-99545238D01*
X138520476Y-99640476D01*
X138425238Y-99688095D01*
%TO.C,J2*%
X161126666Y-99312380D02*
X161126666Y-100026666D01*
X161079047Y-100169523D01*
X160983809Y-100264761D01*
X160840952Y-100312380D01*
X160745714Y-100312380D01*
X161555238Y-99407619D02*
X161602857Y-99360000D01*
X161698095Y-99312380D01*
X161936190Y-99312380D01*
X162031428Y-99360000D01*
X162079047Y-99407619D01*
X162126666Y-99502857D01*
X162126666Y-99598095D01*
X162079047Y-99740952D01*
X161507619Y-100312380D01*
X162126666Y-100312380D01*
%TO.C,J3*%
X156416666Y-81152380D02*
X156416666Y-81866666D01*
X156369047Y-82009523D01*
X156273809Y-82104761D01*
X156130952Y-82152380D01*
X156035714Y-82152380D01*
X156797619Y-81152380D02*
X157416666Y-81152380D01*
X157083333Y-81533333D01*
X157226190Y-81533333D01*
X157321428Y-81580952D01*
X157369047Y-81628571D01*
X157416666Y-81723809D01*
X157416666Y-81961904D01*
X157369047Y-82057142D01*
X157321428Y-82104761D01*
X157226190Y-82152380D01*
X156940476Y-82152380D01*
X156845238Y-82104761D01*
X156797619Y-82057142D01*
%TO.C,C2*%
X158083333Y-92107142D02*
X158035714Y-92154761D01*
X157892857Y-92202380D01*
X157797619Y-92202380D01*
X157654761Y-92154761D01*
X157559523Y-92059523D01*
X157511904Y-91964285D01*
X157464285Y-91773809D01*
X157464285Y-91630952D01*
X157511904Y-91440476D01*
X157559523Y-91345238D01*
X157654761Y-91250000D01*
X157797619Y-91202380D01*
X157892857Y-91202380D01*
X158035714Y-91250000D01*
X158083333Y-91297619D01*
X158464285Y-91297619D02*
X158511904Y-91250000D01*
X158607142Y-91202380D01*
X158845238Y-91202380D01*
X158940476Y-91250000D01*
X158988095Y-91297619D01*
X159035714Y-91392857D01*
X159035714Y-91488095D01*
X158988095Y-91630952D01*
X158416666Y-92202380D01*
X159035714Y-92202380D01*
%TO.C,C1*%
X141583333Y-92207142D02*
X141535714Y-92254761D01*
X141392857Y-92302380D01*
X141297619Y-92302380D01*
X141154761Y-92254761D01*
X141059523Y-92159523D01*
X141011904Y-92064285D01*
X140964285Y-91873809D01*
X140964285Y-91730952D01*
X141011904Y-91540476D01*
X141059523Y-91445238D01*
X141154761Y-91350000D01*
X141297619Y-91302380D01*
X141392857Y-91302380D01*
X141535714Y-91350000D01*
X141583333Y-91397619D01*
X142535714Y-92302380D02*
X141964285Y-92302380D01*
X142250000Y-92302380D02*
X142250000Y-91302380D01*
X142154761Y-91445238D01*
X142059523Y-91540476D01*
X141964285Y-91588095D01*
%TO.C,C4*%
X153283333Y-89507142D02*
X153235714Y-89554761D01*
X153092857Y-89602380D01*
X152997619Y-89602380D01*
X152854761Y-89554761D01*
X152759523Y-89459523D01*
X152711904Y-89364285D01*
X152664285Y-89173809D01*
X152664285Y-89030952D01*
X152711904Y-88840476D01*
X152759523Y-88745238D01*
X152854761Y-88650000D01*
X152997619Y-88602380D01*
X153092857Y-88602380D01*
X153235714Y-88650000D01*
X153283333Y-88697619D01*
X154140476Y-88935714D02*
X154140476Y-89602380D01*
X153902380Y-88554761D02*
X153664285Y-89269047D01*
X154283333Y-89269047D01*
%TO.C,C5*%
X151233333Y-84487142D02*
X151185714Y-84534761D01*
X151042857Y-84582380D01*
X150947619Y-84582380D01*
X150804761Y-84534761D01*
X150709523Y-84439523D01*
X150661904Y-84344285D01*
X150614285Y-84153809D01*
X150614285Y-84010952D01*
X150661904Y-83820476D01*
X150709523Y-83725238D01*
X150804761Y-83630000D01*
X150947619Y-83582380D01*
X151042857Y-83582380D01*
X151185714Y-83630000D01*
X151233333Y-83677619D01*
X152138095Y-83582380D02*
X151661904Y-83582380D01*
X151614285Y-84058571D01*
X151661904Y-84010952D01*
X151757142Y-83963333D01*
X151995238Y-83963333D01*
X152090476Y-84010952D01*
X152138095Y-84058571D01*
X152185714Y-84153809D01*
X152185714Y-84391904D01*
X152138095Y-84487142D01*
X152090476Y-84534761D01*
X151995238Y-84582380D01*
X151757142Y-84582380D01*
X151661904Y-84534761D01*
X151614285Y-84487142D01*
%TD*%
M02*
