M48
; DRILL file {KiCad 5.1.7} date Sun Dec 13 02:00:26 2020
; FORMAT={-:-/ absolute / metric / decimal}
; #@! TF.CreationDate,2020-12-13T02:00:26+00:00
; #@! TF.GenerationSoftware,Kicad,Pcbnew,5.1.7
; #@! TF.FileFunction,Plated,1,4,PTH
FMAT,2
METRIC
T1C0.250
%
G90
G05
T1
X1.2Y-19.2
X1.202Y-4.244
X1.242Y-44.17
X1.249Y-12.502
X1.295Y-15.51
X1.354Y-46.822
X1.369Y-1.292
X1.379Y-32.942
X1.392Y-7.027
X1.402Y-35.694
X1.408Y-38.357
X1.413Y-9.605
X1.529Y-41.262
X1.805Y-22.375
X1.805Y-27.275
X1.805Y-30.775
X2.171Y-17.38
X2.612Y-37.002
X2.644Y-5.512
X2.71Y-48.229
X2.725Y-45.381
X2.726Y-11.09
X2.759Y-34.391
X2.8Y-23.4
X2.822Y-8.226
X2.859Y-2.695
X2.861Y-14.096
X2.863Y-39.911
X2.885Y-42.779
X3.2Y-27.0
X3.205Y-27.975
X3.3Y-19.2
X3.329Y-16.008
X3.905Y-22.375
X3.905Y-30.775
X4.011Y-38.437
X4.018Y-46.749
X4.091Y-1.31
X4.109Y-4.133
X4.154Y-9.897
X4.175Y-7.083
X4.176Y-35.78
X4.213Y-41.137
X4.224Y-44.233
X4.253Y-32.718
X4.299Y-12.442
X4.605Y-27.275
X4.938Y-14.717
X4.951Y-17.369
X5.405Y-5.556
X5.41Y-42.527
X5.473Y-8.528
X5.476Y-11.073
X5.487Y-39.931
X5.502Y-34.337
X5.574Y-48.212
X5.619Y-45.345
X5.685Y-2.656
X5.721Y-36.919
X6.005Y-19.575
X6.005Y-21.675
X6.005Y-28.675
X6.005Y-30.775
X6.1Y-23.3
X6.134Y-13.273
X6.424Y-16.037
X6.837Y-44.102
X6.865Y-38.301
X6.869Y-35.633
X6.875Y-9.725
X6.92Y-41.437
X7.025Y-32.978
X7.074Y-47.023
X7.075Y-6.921
X7.121Y-4.078
X7.125Y-1.497
X7.4Y-21.8
X7.405Y-20.275
X7.405Y-30.075
X7.719Y-11.944
X7.723Y-14.665
X7.772Y-17.31
X7.8Y-19.3
X8.235Y-40.027
X8.263Y-48.435
X8.296Y-42.664
X8.336Y-2.917
X8.375Y-45.372
X8.431Y-36.962
X8.483Y-5.587
X8.5Y-29.5
X8.503Y-8.522
X8.805Y-19.575
X8.805Y-30.775
X8.93Y-16.153
X9.073Y-10.414
X9.16Y-13.349
X9.614Y-44.004
X9.646Y-1.352
X9.685Y-46.927
X9.743Y-35.819
X9.761Y-38.37
X9.92Y-41.239
X9.93Y-7.096
X9.938Y-4.074
X10.205Y-30.075
X10.386Y-14.546
X10.451Y-17.516
X10.451Y-9.055
X10.485Y-11.703
X10.905Y-19.575
X11.058Y-45.3
X11.103Y-37.023
X11.132Y-48.408
X11.183Y-39.895
X11.205Y-2.907
X11.225Y-42.631
X11.311Y-5.623
X11.748Y-13.246
X11.754Y-16.241
X11.809Y-7.816
X11.895Y-33.474
X11.978Y-17.902
X12.03Y-32.205
X12.034Y-10.5
X12.1Y-23.8
X12.1Y-26.2
X12.458Y-46.824
X12.512Y-41.384
X12.519Y-1.258
X12.612Y-35.562
X12.623Y-43.939
X12.663Y-38.647
X12.69Y-4.272
X12.7Y-23.8
X12.7Y-26.2
X12.954Y-17.681
X13.006Y-32.513
X13.141Y-9.247
X13.148Y-12.004
X13.258Y-14.594
X13.3Y-23.8
X13.3Y-26.2
X13.323Y-6.317
X13.871Y-48.392
X13.882Y-39.817
X13.9Y-24.1
X13.9Y-24.7
X13.9Y-25.3
X13.9Y-25.9
X13.905Y-42.658
X13.931Y-17.46
X13.955Y-2.922
X13.983Y-32.82
X13.986Y-16.643
X14.064Y-45.557
X14.102Y-34.142
X14.107Y-37.104
X14.542Y-7.802
X14.64Y-10.591
X14.682Y-13.222
X14.749Y-4.885
X14.907Y-17.239
X14.959Y-33.128
X15.231Y-15.485
X15.243Y-44.192
X15.273Y-41.158
X15.352Y-35.774
X15.385Y-1.279
X15.482Y-38.495
X15.535Y-46.947
X15.883Y-17.018
X15.935Y-33.436
X15.964Y-6.424
X16.096Y-11.816
X16.143Y-3.375
X16.183Y-8.959
X16.677Y-39.824
X16.711Y-42.639
X16.747Y-37.227
X16.783Y-48.22
X16.847Y-45.631
X16.859Y-16.797
X16.912Y-33.744
X16.918Y-14.024
X17.407Y-4.944
X17.51Y-7.843
X17.523Y-1.999
X17.563Y-16.083
X17.567Y-10.459
X17.836Y-16.576
X17.888Y-34.052
X18.045Y-35.552
X18.048Y-38.31
X18.105Y-12.414
X18.172Y-41.233
X18.207Y-46.707
X18.281Y-43.929
X18.752Y-3.447
X18.812Y-16.355
X18.823Y-8.961
X18.864Y-34.36
X18.898Y-14.761
X19.035Y-6.279
X19.418Y-37.17
X19.471Y-42.79
X19.509Y-48.403
X19.547Y-39.786
X19.652Y-1.389
X19.724Y-11.071
X19.738Y-45.443
X19.788Y-16.134
X19.841Y-34.668
X20.151Y-13.367
X20.181Y-7.845
X20.229Y-4.87
X20.765Y-15.913
X20.817Y-34.976
X20.82Y-41.136
X20.874Y-46.908
X21.034Y-2.834
X21.055Y-15.38
X21.061Y-38.378
X21.072Y-9.655
X21.091Y-43.948
X21.53Y-36.238
X21.604Y-6.201
X21.741Y-15.692
X21.793Y-35.284
X21.828Y-11.903
X22.241Y-4.329
X22.253Y-39.801
X22.305Y-13.93
X22.33Y-48.238
X22.423Y-42.775
X22.434Y-1.374
X22.457Y-45.406
X22.542Y-8.29
X22.717Y-15.471
X22.77Y-35.591
X23.13Y-10.478
X23.248Y-37.878
X23.668Y-41.184
X23.694Y-15.25
X23.708Y-46.753
X23.746Y-35.899
X23.788Y-5.43
X23.844Y-12.542
X23.916Y-2.807
X23.936Y-44.141
X24.315Y-39.204
X24.349Y-7.551
X24.67Y-15.029
X24.722Y-36.207
X25.125Y-48.358
X25.141Y-4.143
X25.192Y-42.815
X25.197Y-9.932
X25.283Y-1.324
X25.334Y-45.538
X25.646Y-14.808
X25.698Y-36.515
X25.799Y-11.821
X25.857Y-6.37
X25.949Y-37.872
X26.014Y-40.488
X26.433Y-44.11
X26.473Y-47.011
X26.524Y-2.895
X26.623Y-14.587
X26.675Y-36.823
X26.738Y-8.288
X27.203Y-4.919
X27.342Y-42.026
X27.41Y-10.383
X27.429Y-39.334
X27.599Y-14.366
X27.651Y-37.131
X27.822Y-12.485
X27.828Y-7.029
X27.871Y-1.415
X27.93Y-48.161
X28.011Y-45.582
X28.509Y-40.75
X28.575Y-14.145
X28.627Y-37.439
X28.698Y-3.383
X28.827Y-9.169
X28.842Y-43.228
X29.214Y-11.012
X29.278Y-5.644
X29.353Y-47.05
X29.552Y-13.924
X29.604Y-37.747
X29.912Y-44.922
X29.933Y-7.619
X30.0Y-26.7
X30.115Y-2.244
X30.157Y-42.109
X30.161Y-39.256
X30.203Y-13.101
X30.528Y-13.702
X30.58Y-38.055
X30.65Y-4.289
X30.675Y-48.289
X30.945Y-9.758
X31.308Y-43.387
X31.423Y-6.104
X31.428Y-40.412
X31.504Y-13.481
X31.556Y-38.363
X31.597Y-46.206
X31.638Y-11.818
X32.022Y-1.305
X32.33Y-8.4
X32.481Y-13.26
X32.533Y-38.67
X32.856Y-3.451
X32.881Y-26.438
X32.882Y-44.893
X32.914Y-47.727
X32.952Y-10.593
X33.024Y-42.131
X33.457Y-13.039
X33.509Y-38.978
X33.546Y-5.519
X34.123Y-7.527
X34.135Y-43.5
X34.297Y-46.328
X34.333Y-40.445
X34.389Y-2.118
X34.433Y-12.818
X34.485Y-39.286
X34.815Y-48.12
X35.01Y-9.867
X35.099Y-25.801
X35.134Y-4.107
X35.409Y-12.597
X35.462Y-39.594
X35.5Y-19.8
X35.5Y-33.5
X35.568Y-11.755
X35.655Y-6.251
X35.701Y-44.915
X35.81Y-41.985
X36.208Y-27.259
X36.355Y-1.487
X36.386Y-12.376
X36.39Y-8.306
X36.433Y-19.694
X36.438Y-39.902
X36.494Y-47.046
X36.954Y-33.622
X37.073Y-10.372
X37.113Y-43.37
X37.195Y-3.487
X37.362Y-12.155
X37.414Y-40.21
X37.757Y-48.277
X37.797Y-45.574
X37.908Y-5.739
X37.947Y-25.999
X38.3Y-11.4
X38.338Y-11.934
X38.351Y-27.979
X38.391Y-40.518
X38.409Y-18.838
X38.447Y-42.076
X38.567Y-1.923
X38.635Y-7.775
X39.021Y-4.228
X39.139Y-9.713
X39.271Y-34.351
X39.283Y-46.783
X39.315Y-11.713
X39.326Y-44.101
X39.367Y-40.826
X39.6Y-19.3
X39.855Y-26.463
X39.924Y-6.156
X40.291Y-11.492
X40.343Y-41.134
X40.489Y-18.17
X40.511Y-8.251
X40.527Y-48.363
X40.648Y-45.374
X40.673Y-1.283
X40.747Y-42.602
X41.169Y-3.572
X41.267Y-11.271
X41.271Y-10.361
X41.289Y-35.135
X41.291Y-27.851
X41.32Y-41.441
X41.9Y-18.9
X41.907Y-5.597
X41.925Y-25.253
X42.075Y-44.054
X42.125Y-46.786
X42.244Y-11.05
X42.296Y-41.749
X42.602Y-17.481
X42.825Y-1.902
X42.85Y-7.627
X43.22Y-10.829
X43.231Y-45.45
X43.272Y-42.057
X43.33Y-35.656
X43.377Y-9.922
X43.48Y-48.349
X43.523Y-4.058
X43.536Y-26.469
X43.8Y-28.6
X43.902Y-6.286
X44.0Y-18.8
X44.035Y-43.254
X44.196Y-10.608
X44.248Y-42.365
X44.626Y-1.524
X44.77Y-16.627
X44.806Y-46.727
X44.822Y-8.385
X44.892Y-25.295
X45.173Y-10.387
X45.225Y-42.673
X45.361Y-35.012
X45.448Y-3.627
X45.496Y-44.682
X45.8Y-18.4
X45.8Y-28.5
X46.149Y-10.166
X46.173Y-5.599
X46.201Y-42.981
X46.239Y-48.162
X46.26Y-37.003
X46.339Y-26.489
X46.6Y-16.7
X46.781Y-2.157
X46.923Y-46.176
X47.125Y-9.945
X47.177Y-43.289
X47.4Y-19.9
X47.4Y-20.7
X47.4Y-21.5
X47.4Y-22.3
X47.4Y-23.1
X47.4Y-30.4
X47.4Y-31.2
X47.4Y-32.0
X47.4Y-32.8
X47.4Y-33.6
X47.417Y-4.012
X47.427Y-35.564
X47.461Y-6.907
X47.569Y-15.993
X47.631Y-27.981
X47.7Y-26.2
X47.716Y-25.335
X48.102Y-9.724
X48.154Y-43.597
X48.256Y-44.715
X48.353Y-18.005
X48.423Y-47.611
X48.87Y-5.544
X48.997Y-1.289
X49.078Y-9.502
X49.1Y-38.7
X49.1Y-43.9
X49.14Y-29.231
X49.3Y-34.0
X49.535Y-3.355
X49.626Y-36.354
X49.639Y-27.14
X49.654Y-19.488
X49.7Y-10.7
X49.7Y-11.5
X49.7Y-12.3
X49.7Y-13.1
X49.7Y-13.9
X49.7Y-39.7
X49.7Y-40.5
X49.7Y-41.3
X49.7Y-42.1
X49.7Y-42.9
X49.772Y-7.77
X49.78Y-15.481
X49.8Y-43.9
X49.839Y-46.14
X50.21Y-48.287
X50.522Y-30.675
X50.955Y-37.891
X51.0Y-10.1
X51.035Y-8.952
X51.08Y-2.063
X51.104Y-4.803
X51.122Y-28.7
X51.2Y-39.4
X51.4Y-22.8
X51.4Y-23.6
X51.4Y-24.4
X51.4Y-33.2
X51.4Y-34.0
X51.4Y-34.8
X51.5Y-14.2
X51.5Y-43.2
X51.738Y-25.908
X51.757Y-7.11
X51.9Y-36.5
X52.2Y-22.8
X52.2Y-23.6
X52.2Y-24.4
X52.2Y-27.5
X52.2Y-33.2
X52.2Y-34.0
X52.2Y-34.8
X52.3Y-17.0
X52.321Y-39.143
X52.381Y-3.371
X52.493Y-10.485
X52.5Y-37.6
X52.588Y-45.336
X52.6Y-11.8
X52.7Y-41.0
X53.065Y-5.745
X53.176Y-47.583
X53.2Y-20.2
X53.2Y-21.0
X53.2Y-21.7
X53.2Y-30.8
X53.2Y-31.6
X53.2Y-32.4
X53.2Y-35.7
X53.238Y-8.318
X53.246Y-1.361
X53.6Y-36.4
X53.7Y-13.5
X53.7Y-14.3
X53.7Y-15.1
X53.7Y-17.0
X53.7Y-42.5
X53.7Y-43.3
X53.7Y-44.1
X53.9Y-37.4
X54.0Y-26.3
X54.1Y-24.0
X54.1Y-25.0
X54.45Y-34.55
X54.5Y-13.5
X54.5Y-14.3
X54.5Y-15.1
X54.5Y-42.5
X54.5Y-43.3
X54.5Y-44.1
X54.574Y-7.013
X54.597Y-2.876
X54.7Y-27.4
X54.8Y-48.7
X55.0Y-16.7
X55.0Y-33.2
X55.1Y-26.2
X55.174Y-46.794
X55.3Y-36.0
X55.321Y-4.701
X55.4Y-16.0
X55.4Y-32.3
X55.4Y-45.0
X55.5Y-11.0
X55.5Y-11.8
X55.5Y-12.6
X55.5Y-40.0
X55.5Y-40.8
X55.5Y-41.6
X55.8Y-17.2
X55.928Y-1.485
X56.5Y-43.8
X56.519Y-3.444
X56.567Y-6.22
X56.6Y-16.4
X56.65Y-14.8
X56.673Y-48.11
X56.688Y-45.459
X57.2Y-42.5
X57.3Y-13.3
X57.4Y-41.6
X57.7Y-12.5
X57.978Y-2.057
X58.126Y-47.037
X58.168Y-7.691
X58.18Y-5.02
X59.217Y-24.0
X59.217Y-26.0
X59.263Y-18.893
X59.263Y-31.157
X59.312Y-3.469
X59.421Y-6.355
X59.558Y-48.115
X60.002Y-8.383
X60.117Y-20.975
X60.117Y-29.075
X60.173Y-1.266
X60.22Y-24.0
X60.22Y-26.0
X60.259Y-46.183
X60.707Y-11.885
X60.707Y-38.215
X60.903Y-44.239
X61.013Y-4.778
X61.317Y-19.072
X61.317Y-30.978
X61.39Y-10.005
X61.39Y-40.095
X61.478Y-6.874
X61.607Y-2.663
X61.666Y-41.113
X61.694Y-47.523
X62.171Y-21.153
X62.171Y-28.897
X62.338Y-10.35
X62.338Y-39.75
X62.374Y-9.132
X62.408Y-45.578
X62.603Y-12.574
X62.603Y-37.526
X62.981Y-4.252
X63.017Y-42.719
X63.094Y-1.328
X63.287Y-10.695
X63.287Y-39.405
X63.371Y-19.25
X63.371Y-30.8
X63.512Y-27.267
X63.551Y-12.919
X63.551Y-37.181
X63.583Y-40.537
X63.598Y-17.594
X63.599Y-22.404
X63.675Y-47.03
X63.782Y-32.259
X63.809Y-35.048
X63.821Y-14.834
X63.828Y-6.192
X64.224Y-21.332
X64.224Y-28.718
X64.228Y-8.497
X64.233Y-24.0
X64.233Y-26.0
X64.235Y-11.04
X64.235Y-39.06
X64.397Y-19.339
X64.397Y-30.711
X64.421Y-2.768
X64.5Y-13.264
X64.5Y-36.836
X64.502Y-43.971
X64.905Y-4.902
X64.96Y-48.339
X65.003Y-41.896
X65.032Y-33.416
X65.156Y-16.209
X65.183Y-11.384
X65.183Y-38.716
X65.237Y-24.0
X65.237Y-26.0
X65.251Y-21.421
X65.251Y-28.629
X65.424Y-19.429
X65.424Y-30.621
X65.448Y-13.609
X65.448Y-36.491
X65.705Y-9.869
X65.755Y-45.441
X65.767Y-39.853
X65.809Y-18.167
X65.891Y-7.113
X65.9Y-22.8
X65.919Y-1.302
X66.131Y-11.729
X66.131Y-38.371
X66.24Y-24.0
X66.24Y-26.0
X66.278Y-21.511
X66.278Y-28.539
X66.367Y-32.076
X66.396Y-13.954
X66.396Y-36.146
X66.451Y-19.518
X66.451Y-30.532
X66.5Y-3.578
X66.506Y-43.376
X66.632Y-27.292
X67.004Y-41.419
X67.021Y-15.424
X67.03Y-46.716
X67.08Y-12.074
X67.08Y-38.026
X67.172Y-34.273
X67.243Y-24.0
X67.243Y-26.0
X67.262Y-5.593
X67.304Y-21.6
X67.304Y-28.45
X67.305Y-8.443
X67.344Y-14.298
X67.344Y-35.802
X67.478Y-19.607
X67.478Y-30.443
X67.728Y-39.093
X67.795Y-2.137
X67.936Y-44.609
X67.949Y-17.468
X68.024Y-10.496
X68.028Y-12.419
X68.028Y-37.681
X68.247Y-24.0
X68.247Y-26.0
X68.293Y-14.643
X68.293Y-35.457
X68.331Y-21.689
X68.331Y-28.361
X68.4Y-22.6
X68.496Y-48.442
X68.504Y-19.697
X68.504Y-30.353
X68.513Y-31.334
X68.575Y-42.677
X68.613Y-6.847
X68.646Y-4.209
X68.976Y-12.764
X68.976Y-37.336
X69.131Y-40.51
X69.161Y-33.453
X69.215Y-46.093
X69.241Y-14.988
X69.241Y-35.112
X69.25Y-24.0
X69.25Y-26.0
X69.358Y-21.778
X69.358Y-28.272
X69.368Y-8.931
X69.396Y-27.238
X69.531Y-19.786
X69.531Y-30.264
X69.821Y-16.667
X69.852Y-38.38
X69.876Y-44.24
X69.902Y-11.141
X69.925Y-13.108
X69.925Y-36.992
X70.032Y-1.387
X70.035Y-5.741
X70.189Y-15.333
X70.189Y-34.767
X70.253Y-24.0
X70.253Y-26.0
X70.385Y-21.868
X70.385Y-28.182
X70.5Y-47.419
X70.558Y-19.875
X70.558Y-30.175
X70.578Y-3.401
X70.604Y-18.738
X70.7Y-23.0
X70.754Y-7.506
X70.755Y-41.841
X70.806Y-32.312
X70.873Y-13.453
X70.873Y-36.647
X71.138Y-15.678
X71.138Y-34.422
X71.239Y-9.742
X71.257Y-24.0
X71.257Y-26.0
X71.288Y-40.04
X71.345Y-45.453
X71.412Y-21.957
X71.412Y-28.093
X71.585Y-19.964
X71.585Y-30.086
X71.821Y-13.798
X71.821Y-36.302
X71.961Y-17.47
X72.086Y-37.687
X72.086Y-16.023
X72.086Y-34.077
X72.109Y-4.952
X72.157Y-43.235
X72.193Y-12.002
X72.221Y-2.124
X72.26Y-24.0
X72.26Y-26.0
X72.438Y-22.046
X72.438Y-28.004
X72.612Y-20.054
X72.612Y-29.996
X72.667Y-41.194
X72.745Y-6.869
X72.769Y-14.143
X72.769Y-35.957
X72.794Y-46.775
X72.833Y-31.386
X73.034Y-16.367
X73.034Y-33.733
X73.263Y-24.0
X73.263Y-26.0
X73.397Y-8.943
X73.442Y-18.702
X73.465Y-22.136
X73.465Y-27.914
X73.493Y-3.606
X73.5Y-39.034
X73.54Y-44.805
X73.638Y-20.143
X73.638Y-29.907
X73.718Y-14.488
X73.718Y-35.612
X73.982Y-16.712
X73.982Y-33.388
X74.098Y-37.135
X74.135Y-1.424
X74.267Y-24.0
X74.267Y-26.0
X74.273Y-42.605
X74.293Y-11.219
X74.344Y-5.623
X74.348Y-48.242
X74.4Y-23.0
X74.492Y-22.225
X74.492Y-27.825
X74.665Y-20.232
X74.665Y-29.818
X74.666Y-14.833
X74.666Y-35.267
X74.762Y-7.681
X74.784Y-46.255
X74.795Y-30.806
X74.931Y-17.057
X74.931Y-33.043
X74.931Y-13.31
X74.986Y-40.432
X75.27Y-24.0
X75.27Y-26.0
X75.519Y-22.314
X75.519Y-27.736
X75.549Y-38.326
X75.614Y-15.177
X75.614Y-34.923
X75.673Y-44.175
X75.692Y-20.322
X75.692Y-29.728
X75.726Y-9.62
X75.738Y-2.619
X75.879Y-17.402
X75.879Y-32.698
X76.196Y-42.092
X76.206Y-18.772
X76.223Y-47.598
X76.273Y-24.0
X76.273Y-26.0
X76.291Y-36.435
X76.4Y-5.027
X76.414Y-11.917
X76.546Y-22.403
X76.546Y-27.647
X76.562Y-15.522
X76.562Y-34.578
X76.719Y-20.411
X76.719Y-29.639
X76.827Y-17.747
X76.827Y-32.353
X76.932Y-39.742
X76.956Y-1.306
X76.959Y-7.096
X77.051Y-13.959
X77.085Y-45.481
X77.277Y-24.0
X77.277Y-26.0
X77.511Y-15.867
X77.511Y-34.233
X77.564Y-3.422
X77.572Y-22.493
X77.572Y-27.557
X77.639Y-30.613
X77.7Y-23.4
X77.707Y-37.611
X77.715Y-8.9
X77.746Y-20.5
X77.746Y-29.55
X77.775Y-18.092
X77.775Y-32.008
X77.816Y-43.312
X78.28Y-24.0
X78.28Y-26.0
X78.399Y-35.601
X78.459Y-16.212
X78.459Y-33.888
X78.473Y-41.16
X78.483Y-11.234
X78.501Y-46.797
X78.533Y-5.614
X78.599Y-22.582
X78.599Y-27.468
X78.724Y-18.436
X78.724Y-31.664
X78.772Y-20.589
X78.772Y-29.461
X78.932Y-7.524
X78.94Y-44.862
X79.027Y-2.082
X79.038Y-39.315
X79.078Y-13.229
X79.1Y-19.6
X79.283Y-24.0
X79.283Y-26.0
X79.407Y-16.557
X79.407Y-33.543
X79.626Y-22.671
X79.626Y-27.379
X79.631Y-15.33
X79.672Y-18.781
X79.672Y-31.319
X79.756Y-42.768
X79.799Y-20.679
X79.799Y-29.371
X79.861Y-48.173
X79.909Y-4.109
X79.925Y-37.184
X79.946Y-9.722
X80.287Y-24.0
X80.287Y-26.0
X80.342Y-46.107
X80.356Y-16.902
X80.356Y-33.198
X80.377Y-40.702
X80.384Y-34.437
X80.539Y-6.395
X80.592Y-11.734
X80.62Y-19.126
X80.62Y-30.974
X80.653Y-22.761
X80.653Y-27.289
X80.826Y-20.768
X80.826Y-29.282
X81.058Y-38.497
X81.096Y-8.36
X81.123Y-1.433
X81.178Y-44.246
X81.197Y-14.039
X81.304Y-17.246
X81.304Y-32.854
X81.569Y-19.471
X81.569Y-30.629
X81.679Y-22.85
X81.679Y-27.2
X81.75Y-16.22
X81.769Y-35.55
X81.82Y-41.878
X81.853Y-20.857
X81.853Y-29.193
X81.861Y-3.595
X81.974Y-47.564
X82.009Y-10.397
X82.252Y-17.591
X82.252Y-32.509
X82.423Y-33.537
X82.46Y-5.514
X82.517Y-19.816
X82.517Y-30.284
X82.552Y-45.524
X82.61Y-12.715
X82.684Y-39.845
X82.706Y-22.939
X82.706Y-27.111
X82.879Y-20.947
X82.879Y-29.103
X83.177Y-2.143
X83.198Y-36.988
X83.2Y-17.936
X83.2Y-32.164
X83.306Y-7.657
X83.378Y-14.518
X83.449Y-43.351
X83.465Y-20.16
X83.465Y-29.94
X83.733Y-23.028
X83.733Y-27.022
X83.893Y-46.871
X83.906Y-21.036
X83.906Y-29.014
X83.952Y-4.114
X83.995Y-9.778
X84.11Y-41.193
X84.111Y-34.861
X84.125Y-16.653
X84.149Y-18.281
X84.149Y-31.819
X84.3Y-25.0
X84.413Y-20.505
X84.413Y-29.595
X84.511Y-38.577
X84.538Y-32.942
X84.572Y-12.028
X84.741Y-44.872
X84.76Y-23.118
X84.76Y-26.932
X84.821Y-6.296
X84.933Y-21.125
X84.933Y-28.925
X85.097Y-18.626
X85.097Y-31.474
X85.211Y-42.674
X85.269Y-1.408
X85.272Y-14.055
X85.362Y-20.85
X85.362Y-29.25
X85.442Y-36.412
X85.443Y-8.534
X85.535Y-48.169
X85.787Y-23.207
X85.787Y-26.843
X85.916Y-34.377
X85.979Y-46.346
X85.991Y-10.305
X86.038Y-39.775
X86.045Y-18.971
X86.045Y-31.129
X86.07Y-3.643
X86.126Y-16.16
X86.31Y-21.195
X86.31Y-28.905
X86.625Y-37.91
X86.745Y-12.685
X86.824Y-5.605
X86.875Y-44.169
X86.88Y-32.113
X86.993Y-19.315
X86.993Y-30.785
X87.346Y-35.593
X87.347Y-17.453
X87.377Y-14.611
X87.41Y-47.721
X87.421Y-2.218
X87.512Y-41.207
X87.557Y-7.561
X87.75Y-25.0
X88.036Y-4.158
X88.053Y-33.617
X88.168Y-9.63
X88.296Y-45.485
X88.315Y-39.304
X88.5Y-23.0
X88.5Y-27.0
X88.739Y-31.468
X88.772Y-6.151
X88.785Y-42.507
X88.91Y-37.116
X88.923Y-11.833
X88.926Y-16.215
X89.434Y-8.303
X89.435Y-13.917
X89.5Y-23.0
X89.5Y-27.0
X89.56Y-1.335
X89.602Y-46.955
X89.688Y-18.002
X89.707Y-34.866
X89.739Y-40.559
X90.161Y-44.212
X90.223Y-3.388
X90.266Y-38.591
X90.341Y-10.352
X90.415Y-33.029
X90.5Y-23.0
X90.5Y-27.0
X90.804Y-36.259
X90.818Y-15.264
X90.825Y-42.126
X90.925Y-5.51
X90.959Y-48.417
X91.091Y-12.42
X91.115Y-19.534
X91.137Y-30.184
X91.5Y-23.0
X91.5Y-27.0
X91.581Y-45.572
X91.707Y-17.377
X91.733Y-34.296
X91.777Y-39.747
X91.79Y-2.113
X91.825Y-7.539
X92.263Y-37.621
X92.321Y-31.315
X92.34Y-28.772
X92.364Y-14.072
X92.391Y-20.959
X92.423Y-4.013
X92.498Y-9.841
X92.5Y-23.0
X92.5Y-27.0
X92.501Y-43.207
X92.999Y-12.033
X93.027Y-41.384
X93.093Y-35.841
X93.153Y-46.874
X93.199Y-18.839
X93.21Y-15.982
X93.228Y-6.325
X93.5Y-23.0
X93.5Y-27.0
X93.748Y-32.885
X93.77Y-8.538
X93.792Y-39.121
X93.819Y-44.716
X93.891Y-30.086
X93.897Y-1.295
X94.356Y-37.078
X94.5Y-23.0
X94.5Y-27.0
X94.529Y-17.611
X94.544Y-10.399
X94.589Y-28.1
X94.62Y-48.32
X94.625Y-42.813
X94.629Y-13.217
X94.638Y-3.528
X95.013Y-5.531
X95.108Y-40.446
X95.139Y-15.355
X95.258Y-31.526
X95.265Y-34.156
X95.316Y-46.174
X95.5Y-23.0
X95.5Y-27.0
X95.762Y-7.623
X95.913Y-38.515
X95.939Y-11.812
X95.955Y-2.081
X96.026Y-43.93
X96.426Y-13.983
X96.451Y-47.591
X96.5Y-23.0
X96.5Y-27.0
X96.52Y-16.787
X96.545Y-35.707
X96.646Y-9.845
X96.675Y-32.914
X96.739Y-41.836
X96.748Y-4.086
X97.0Y-19.5
X97.0Y-30.5
X97.167Y-45.375
X97.277Y-39.919
X97.312Y-6.398
X97.5Y-23.0
X97.5Y-27.0
X97.5Y-28.1
X97.847Y-43.414
X97.873Y-36.973
X97.88Y-34.197
X97.959Y-11.23
X98.038Y-18.191
X98.067Y-15.436
X98.074Y-8.411
X98.116Y-1.4
X98.3Y-23.4
X98.3Y-26.6
X98.546Y-13.368
X98.622Y-30.835
X98.674Y-46.92
X98.799Y-3.493
X98.835Y-41.343
X98.9Y-24.1
X98.9Y-25.9
X99.1Y-25.0
T0
M30
