M48
; DRILL file {KiCad 5.1.7} date Mon Dec 14 18:01:21 2020
; FORMAT={-:-/ absolute / inch / decimal}
; #@! TF.CreationDate,2020-12-14T18:01:21+00:00
; #@! TF.GenerationSoftware,Kicad,Pcbnew,5.1.7
; #@! TF.FileFunction,Plated,1,4,PTH
FMAT,2
INCH
T1C0.0098
%
G90
G05
T1
X0.0256Y-0.0702
X0.0256Y-0.1097
X0.0256Y-0.1492
X0.0256Y-0.1888
X0.0256Y-0.2283
X0.0256Y-0.2678
X0.0256Y-0.3073
X0.0256Y-0.3469
X0.0256Y-0.3864
X0.0256Y-0.4259
X0.0256Y-0.4654
X0.0256Y-0.505
X0.0256Y-0.5445
X0.0256Y-0.584
X0.0256Y-1.3135
X0.0256Y-1.3533
X0.0256Y-1.3931
X0.0256Y-1.4329
X0.0256Y-1.4727
X0.0256Y-1.5125
X0.0256Y-1.5523
X0.0256Y-1.5921
X0.0256Y-1.6319
X0.0256Y-1.6717
X0.0256Y-1.7115
X0.0256Y-1.7513
X0.0256Y-1.7911
X0.0256Y-1.8309
X0.0256Y-1.8707
X0.0256Y-1.9105
X0.0283Y-0.0312
X0.0354Y-1.2781
X0.0389Y-1.9429
X0.0389Y-0.6161
X0.0531Y-0.0531
X0.0531Y-0.0943
X0.0531Y-0.1355
X0.0531Y-0.1767
X0.0531Y-0.2179
X0.0531Y-0.2591
X0.0531Y-0.3003
X0.0531Y-0.3415
X0.0531Y-0.3826
X0.0531Y-0.4238
X0.0531Y-0.465
X0.0531Y-0.5062
X0.0531Y-0.5474
X0.0531Y-0.5886
X0.0531Y-1.3051
X0.0531Y-1.3458
X0.0531Y-1.3865
X0.0531Y-1.4272
X0.0531Y-1.4678
X0.0531Y-1.5085
X0.0531Y-1.5492
X0.0531Y-1.5899
X0.0531Y-1.6306
X0.0531Y-1.6713
X0.0531Y-1.7119
X0.0531Y-1.7526
X0.0531Y-1.7933
X0.0531Y-1.834
X0.0531Y-1.8747
X0.0531Y-1.9154
X0.0551Y-0.748
X0.0551Y-1.2205
X0.066Y-0.0256
X0.0752Y-1.2776
X0.0786Y-1.9429
X0.0786Y-0.6161
X0.0827Y-0.748
X0.0827Y-1.2205
X0.0926Y-0.0531
X0.0926Y-1.9154
X0.0927Y-0.5886
X0.0949Y-1.3051
X0.0958Y-1.6258
X0.0963Y-0.38
X0.0981Y-1.3501
X0.0993Y-1.4884
X0.1017Y-0.2445
X0.1033Y-0.1047
X0.1034Y-1.7667
X0.1048Y-0.5209
X0.1055Y-0.0256
X0.1102Y-0.748
X0.1102Y-1.2205
X0.115Y-1.2776
X0.118Y-1.9429
X0.1181Y-0.6161
X0.122Y-1.8776
X0.1321Y-0.0531
X0.1321Y-1.9154
X0.1323Y-0.5886
X0.1366Y-1.3051
X0.1378Y-0.748
X0.1378Y-1.2205
X0.145Y-0.0256
X0.1548Y-1.2776
X0.1573Y-1.9429
X0.1575Y-0.6161
X0.1654Y-0.748
X0.1654Y-1.2205
X0.1716Y-0.0531
X0.1716Y-1.9154
X0.1718Y-0.5886
X0.1782Y-0.3015
X0.1783Y-1.3051
X0.1824Y-0.4444
X0.1845Y-0.0256
X0.1854Y-1.539
X0.1857Y-1.404
X0.1869Y-0.1669
X0.187Y-1.6846
X0.1929Y-0.748
X0.1929Y-1.2205
X0.1946Y-1.2776
X0.1967Y-1.9429
X0.197Y-0.6161
X0.2111Y-0.0531
X0.2111Y-1.9154
X0.2114Y-0.5886
X0.2141Y-0.544
X0.2146Y-1.7852
X0.22Y-1.3051
X0.2205Y-0.748
X0.2205Y-1.2205
X0.2241Y-0.0256
X0.2344Y-1.2776
X0.2361Y-1.9429
X0.2364Y-0.6161
X0.248Y-0.748
X0.248Y-1.2205
X0.2506Y-0.0531
X0.2506Y-1.9154
X0.2509Y-0.5886
X0.2615Y-1.8685
X0.2617Y-1.3051
X0.2619Y-0.1079
X0.2622Y-1.4855
X0.2636Y-0.0256
X0.2662Y-1.3432
X0.2683Y-0.3827
X0.2742Y-1.2776
X0.2754Y-1.9429
X0.2758Y-0.6161
X0.2901Y-0.0531
X0.2901Y-1.9154
X0.2905Y-0.5886
X0.2955Y-0.4982
X0.3031Y-0.0256
X0.3035Y-1.3051
X0.314Y-1.2776
X0.3146Y-1.5648
X0.3148Y-1.9429
X0.3153Y-0.6161
X0.3174Y-0.1909
X0.3243Y-1.7576
X0.3296Y-0.0531
X0.3296Y-1.9154
X0.33Y-0.5886
X0.3426Y-0.0256
X0.3448Y-1.3998
X0.3452Y-1.3051
X0.3538Y-1.2776
X0.3542Y-1.9429
X0.3547Y-0.6161
X0.3691Y-0.0531
X0.3691Y-1.9154
X0.3696Y-0.5886
X0.3697Y-0.336
X0.3738Y-1.8422
X0.3775Y-0.5478
X0.3822Y-0.0256
X0.3869Y-1.3051
X0.3936Y-1.9429
X0.3936Y-1.2776
X0.3941Y-0.6161
X0.395Y-1.4922
X0.3964Y-0.4361
X0.3991Y-0.1091
X0.4071Y-1.6282
X0.4086Y-0.0531
X0.4086Y-1.9154
X0.4091Y-0.5886
X0.4217Y-0.0256
X0.428Y-0.2243
X0.4286Y-1.3051
X0.4302Y-1.3465
X0.4329Y-1.9429
X0.4334Y-1.2776
X0.4336Y-0.6161
X0.4357Y-1.7319
X0.4481Y-0.0531
X0.4481Y-1.9154
X0.4487Y-0.5886
X0.4612Y-0.0256
X0.4703Y-1.3051
X0.4723Y-1.9429
X0.473Y-0.6161
X0.4732Y-1.2776
X0.4776Y-1.5765
X0.4804Y-0.2998
X0.4823Y-1.4279
X0.4841Y-1.8205
X0.4876Y-0.0531
X0.4876Y-1.9154
X0.4883Y-0.5886
X0.4886Y-0.4988
X0.5007Y-0.0256
X0.5087Y-1.3172
X0.509Y-1.6806
X0.5113Y-0.1396
X0.5117Y-1.9429
X0.5118Y-1.2893
X0.5125Y-0.6161
X0.5271Y-0.0531
X0.5271Y-1.9154
X0.5278Y-0.5886
X0.5347Y-0.3835
X0.5403Y-0.0256
X0.5471Y-1.3293
X0.5503Y-1.3015
X0.5511Y-1.9429
X0.5519Y-0.6161
X0.5632Y-1.4872
X0.5665Y-0.0531
X0.5665Y-1.9154
X0.5669Y-0.2163
X0.5674Y-0.5886
X0.5727Y-0.5514
X0.574Y-1.7661
X0.5798Y-0.0256
X0.5855Y-1.3414
X0.5889Y-1.3136
X0.5904Y-1.9429
X0.5913Y-0.6161
X0.5945Y-1.5984
X0.5985Y-1.8736
X0.606Y-0.0531
X0.606Y-1.9154
X0.6069Y-0.5886
X0.6187Y-0.446
X0.6192Y-1.4107
X0.6193Y-0.0256
X0.6237Y-0.1025
X0.6239Y-1.3535
X0.6274Y-1.3258
X0.6276Y-0.3004
X0.6298Y-1.9429
X0.6308Y-0.6161
X0.6455Y-0.0531
X0.6455Y-1.9154
X0.6465Y-0.5886
X0.656Y-1.6831
X0.6589Y-0.0256
X0.6622Y-1.3656
X0.6659Y-1.3379
X0.6692Y-1.9429
X0.6702Y-0.6161
X0.6715Y-1.5168
X0.6731Y-0.1938
X0.6732Y-1.1457
X0.674Y-1.7944
X0.6827Y-0.5198
X0.685Y-0.0531
X0.685Y-1.9154
X0.686Y-0.5886
X0.6929Y-1.1654
X0.6984Y-0.0256
X0.7006Y-1.3777
X0.7041Y-0.3632
X0.7044Y-1.3501
X0.7086Y-1.9429
X0.7096Y-0.6161
X0.7126Y-1.0827
X0.7126Y-1.1142
X0.7126Y-1.1457
X0.7126Y-1.185
X0.7245Y-0.0531
X0.7245Y-1.9154
X0.7256Y-0.5886
X0.7318Y-1.6009
X0.7321Y-1.8747
X0.7323Y-1.1654
X0.7323Y-1.2047
X0.7353Y-1.4378
X0.7379Y-0.0256
X0.739Y-1.3899
X0.743Y-1.3622
X0.7479Y-1.9429
X0.7491Y-0.6161
X0.752Y-0.7874
X0.752Y-1.185
X0.752Y-1.2244
X0.7544Y-1.7028
X0.7553Y-0.4451
X0.7567Y-0.2457
X0.7572Y-0.114
X0.764Y-0.0531
X0.764Y-1.9154
X0.7651Y-0.5886
X0.7677Y-0.7677
X0.7717Y-0.8307
X0.7717Y-1.2047
X0.7717Y-1.2441
X0.7774Y-1.402
X0.7774Y-0.0256
X0.7815Y-1.3744
X0.7818Y-0.5514
X0.7835Y-0.7874
X0.7873Y-1.9429
X0.7885Y-0.6161
X0.7913Y-1.185
X0.7913Y-1.2244
X0.7913Y-1.2638
X0.7992Y-0.7677
X0.8035Y-0.0531
X0.8035Y-1.9154
X0.8047Y-0.5886
X0.8095Y-1.4909
X0.8123Y-1.7883
X0.8132Y-0.3237
X0.8158Y-1.4141
X0.817Y-0.0256
X0.82Y-1.3865
X0.8267Y-1.9429
X0.8269Y-0.6099
X0.8377Y-1.6296
X0.843Y-0.0531
X0.843Y-1.9154
X0.8437Y-0.1578
X0.8542Y-1.4262
X0.8543Y-0.5709
X0.8543Y-1.3976
X0.8565Y-0.0256
X0.8583Y-0.5984
X0.8622Y-0.9331
X0.8622Y-1.0354
X0.8661Y-1.9429
X0.867Y-0.4087
X0.8693Y-1.8724
X0.8825Y-0.0531
X0.8825Y-1.9154
X0.8858Y-0.5591
X0.8898Y-0.9331
X0.8898Y-1.0354
X0.8925Y-1.4383
X0.8937Y-1.4094
X0.896Y-0.0256
X0.8968Y-1.7026
X0.897Y-0.2422
X0.8994Y-1.5398
X0.9054Y-1.9429
X0.9134Y-0.5787
X0.9172Y-0.5482
X0.9173Y-0.9331
X0.9173Y-1.0354
X0.922Y-0.0531
X0.922Y-1.9154
X0.9283Y-0.1103
X0.9288Y-0.4938
X0.9309Y-1.4504
X0.9331Y-0.9528
X0.9331Y-1.0157
X0.9355Y-0.0256
X0.9356Y-1.4229
X0.9448Y-1.9429
X0.9488Y-0.5669
X0.9547Y-0.5348
X0.9556Y-0.3313
X0.9596Y-1.7881
X0.9615Y-0.0531
X0.9615Y-1.9154
X0.9693Y-1.4625
X0.9741Y-1.4351
X0.9751Y-0.0256
X0.9802Y-0.1908
X0.9803Y-0.5551
X0.983Y-1.5966
X0.9842Y-1.9429
X0.9923Y-0.5213
X1.001Y-0.0531
X1.001Y-1.9154
X1.0044Y-1.8676
X1.0077Y-1.4746
X1.0093Y-0.4171
X1.0125Y-0.5433
X1.0126Y-1.4472
X1.0146Y-0.0256
X1.0235Y-1.9429
X1.0298Y-0.5078
X1.0305Y-0.2707
X1.0328Y-1.6839
X1.0404Y-0.0531
X1.0404Y-1.9154
X1.0461Y-1.4867
X1.0496Y-0.53
X1.0512Y-1.4594
X1.0541Y-0.0256
X1.0575Y-1.5425
X1.0629Y-1.9429
X1.0633Y-0.1082
X1.0673Y-0.4944
X1.0799Y-0.0531
X1.0799Y-1.9154
X1.0845Y-1.4988
X1.0868Y-0.5167
X1.0885Y-0.356
X1.0897Y-1.4715
X1.0911Y-1.7596
X1.0936Y-0.0256
X1.1023Y-1.9429
X1.1048Y-0.4809
X1.1194Y-0.0531
X1.1194Y-1.9154
X1.1225Y-0.1867
X1.1229Y-1.5109
X1.1232Y-1.6202
X1.1239Y-0.5034
X1.1282Y-1.4837
X1.1332Y-0.0256
X1.1402Y-0.9922
X1.1417Y-1.9429
X1.1423Y-0.4675
X1.1487Y-1.839
X1.1589Y-0.0531
X1.1589Y-1.9154
X1.161Y-0.49
X1.1612Y-1.523
X1.1667Y-1.4958
X1.1697Y-0.4132
X1.1727Y-0.0256
X1.1766Y-0.2723
X1.1777Y-1.7051
X1.1798Y-0.454
X1.181Y-1.9429
X1.1973Y-0.1086
X1.1981Y-0.4767
X1.1984Y-0.0531
X1.1984Y-1.9154
X1.1996Y-1.5351
X1.2053Y-1.508
X1.2122Y-0.0256
X1.2173Y-0.4406
X1.2204Y-1.9429
X1.2237Y-1.5908
X1.2319Y-1.7933
X1.2352Y-0.4634
X1.2379Y-0.0531
X1.2379Y-1.9154
X1.238Y-1.5472
X1.2438Y-1.5201
X1.2517Y-0.0256
X1.2548Y-0.4271
X1.2598Y-1.9429
X1.2617Y-0.3362
X1.2623Y-0.1853
X1.2624Y-0.9625
X1.2724Y-0.4501
X1.2764Y-1.5593
X1.2774Y-0.0531
X1.2774Y-1.9154
X1.2814Y-1.8691
X1.2816Y-1.6753
X1.2823Y-1.5323
X1.2913Y-0.0256
X1.2923Y-0.4136
X1.2992Y-1.9429
X1.3095Y-0.4368
X1.312Y-1.2658
X1.3136Y-0.7143
X1.3148Y-1.5714
X1.3169Y-0.0531
X1.3169Y-1.9154
X1.3208Y-1.5444
X1.3299Y-0.4002
X1.3308Y-0.0256
X1.3338Y-0.2434
X1.3385Y-1.9429
X1.3394Y-1.7686
X1.3408Y-0.1026
X1.3419Y-1.0142
X1.3466Y-0.4235
X1.3532Y-1.5835
X1.3564Y-0.0531
X1.3564Y-1.9154
X1.3594Y-1.5566
X1.3674Y-0.3867
X1.3703Y-0.0256
X1.3779Y-1.9429
X1.3837Y-0.4101
X1.3873Y-1.8465
X1.3874Y-0.932
X1.3882Y-0.3306
X1.3915Y-1.5956
X1.3959Y-0.0531
X1.3959Y-1.9154
X1.3979Y-1.5687
X1.3986Y-1.6492
X1.4049Y-0.3733
X1.4098Y-0.0256
X1.4173Y-1.9429
X1.4186Y-0.1619
X1.4208Y-0.3968
X1.4268Y-1.2912
X1.4299Y-1.6077
X1.4354Y-0.0531
X1.4354Y-1.9154
X1.4364Y-1.5809
X1.4424Y-0.3598
X1.448Y-0.6659
X1.4494Y-0.0256
X1.4542Y-1.7328
X1.4567Y-1.9429
X1.458Y-0.3835
X1.4683Y-1.6198
X1.4701Y-0.2425
X1.4749Y-0.0531
X1.4749Y-1.9154
X1.4749Y-1.593
X1.4799Y-0.3464
X1.4817Y-0.9907
X1.4889Y-0.0256
X1.4951Y-0.3702
X1.496Y-1.9429
X1.5038Y-1.8153
X1.5067Y-1.632
X1.5106Y-0.1061
X1.5134Y-1.6052
X1.5143Y-0.0531
X1.5143Y-1.9154
X1.5174Y-0.3329
X1.5284Y-0.0256
X1.5299Y-1.3284
X1.5322Y-0.3569
X1.5354Y-1.9429
X1.5366Y-0.9063
X1.5451Y-1.6441
X1.552Y-1.6173
X1.5538Y-1.7054
X1.5538Y-0.196
X1.5538Y-0.0531
X1.5538Y-1.9154
X1.5549Y-0.3194
X1.5568Y-1.0476
X1.5623Y-0.6368
X1.568Y-0.0256
X1.5693Y-0.3436
X1.5748Y-1.9429
X1.5835Y-1.6562
X1.5889Y-1.8683
X1.5905Y-1.6295
X1.5924Y-0.306
X1.5933Y-0.0531
X1.5933Y-1.9154
X1.6064Y-0.3302
X1.6075Y-0.0256
X1.6141Y-1.9429
X1.6146Y-0.968
X1.6147Y-1.3771
X1.6219Y-1.6683
X1.629Y-1.6416
X1.63Y-0.2925
X1.6328Y-0.0531
X1.6328Y-1.9154
X1.6392Y-0.5724
X1.6398Y-0.107
X1.6436Y-0.3169
X1.647Y-0.0256
X1.6487Y-1.7688
X1.6535Y-1.9429
X1.6602Y-1.6804
X1.6675Y-0.2791
X1.6675Y-1.6538
X1.6686Y-0.2227
X1.6711Y-0.8512
X1.6723Y-0.0531
X1.6723Y-1.9154
X1.6807Y-0.3036
X1.6865Y-0.0256
X1.6929Y-1.9429
X1.694Y-1.3224
X1.6956Y-1.8436
X1.6986Y-1.6925
X1.7023Y-1.0211
X1.705Y-0.2656
X1.7061Y-1.6659
X1.7118Y-0.0531
X1.7118Y-1.9154
X1.7178Y-0.2903
X1.7261Y-0.0256
X1.7323Y-1.9429
X1.737Y-1.7046
X1.7425Y-0.2522
X1.7446Y-1.6781
X1.748Y-0.1355
X1.7487Y-0.9056
X1.7513Y-0.0531
X1.7513Y-1.9154
X1.7516Y-0.5474
X1.7549Y-0.277
X1.7588Y-1.4
X1.7656Y-0.0256
X1.7716Y-1.9429
X1.7754Y-1.7167
X1.7785Y-1.7962
X1.78Y-0.2387
X1.7831Y-1.6902
X1.7908Y-0.0531
X1.7908Y-1.9154
X1.7921Y-0.2637
X1.8051Y-0.0256
X1.811Y-1.9429
X1.8138Y-1.7288
X1.8175Y-0.2253
X1.8184Y-0.8622
X1.8216Y-1.7024
X1.8292Y-0.2503
X1.8303Y-0.0531
X1.8303Y-1.9154
X1.834Y-1.8707
X1.8446Y-0.0256
X1.8465Y-1.3307
X1.8504Y-1.9429
X1.8522Y-1.7409
X1.855Y-0.2118
X1.8569Y-0.4912
X1.8583Y-1.1457
X1.8583Y-1.1772
X1.8583Y-1.2087
X1.8583Y-1.2402
X1.8583Y-1.2717
X1.8602Y-1.7145
X1.8603Y-0.109
X1.8663Y-0.237
X1.8683Y-0.9968
X1.8698Y-0.0531
X1.8698Y-1.9154
X1.878Y-1.0866
X1.8824Y-0.8627
X1.8824Y-0.9291
X1.8842Y-0.0256
X1.8898Y-1.9429
X1.8905Y-1.753
X1.8925Y-0.1983
X1.8937Y-0.6142
X1.8937Y-0.6457
X1.8937Y-0.6772
X1.8937Y-0.7087
X1.8937Y-0.7402
X1.8937Y-1.063
X1.9034Y-0.2237
X1.9055Y-1.1339
X1.9093Y-0.0531
X1.9093Y-1.9154
X1.9134Y-1.0394
X1.9134Y-1.0866
X1.916Y-1.8168
X1.9237Y-0.0256
X1.9291Y-1.1063
X1.9291Y-1.1575
X1.9291Y-1.9429
X1.9301Y-0.1849
X1.9331Y-0.5906
X1.9331Y-1.0157
X1.9331Y-1.063
X1.9331Y-1.2874
X1.937Y-1.1299
X1.9405Y-0.2104
X1.9449Y-0.9291
X1.9449Y-1.4055
X1.9449Y-1.4449
X1.9449Y-1.7441
X1.9488Y-0.0531
X1.9488Y-1.9154
X1.9488Y-0.9961
X1.9488Y-1.0394
X1.9488Y-1.0866
X1.9528Y-0.6102
X1.9528Y-1.1811
X1.9567Y-1.563
X1.9567Y-1.5945
X1.9567Y-1.626
X1.9567Y-1.6575
X1.9567Y-1.689
X1.9606Y-1.1535
X1.9606Y-1.3858
X1.9606Y-1.4252
X1.9606Y-1.4646
X1.9632Y-0.0256
X1.9646Y-0.5866
X1.9646Y-0.9724
X1.9646Y-1.0157
X1.9646Y-1.063
X1.9676Y-0.1714
X1.9685Y-1.126
X1.9685Y-1.9429
X1.9724Y-0.6299
X1.9764Y-1.2047
X1.9764Y-1.3661
X1.9764Y-1.4055
X1.9764Y-1.4449
X1.9764Y-1.4843
X1.9777Y-0.1971
X1.9803Y-0.9134
X1.9803Y-0.9528
X1.9803Y-0.9921
X1.9803Y-1.0394
X1.9803Y-1.0866
X1.9843Y-0.6063
X1.9843Y-1.1772
X1.9882Y-0.0531
X1.9882Y-1.9154
X1.9921Y-0.6496
X1.9921Y-1.3858
X1.9921Y-1.4252
X1.9921Y-1.4646
X1.9921Y-1.5039
X1.9921Y-1.5394
X1.994Y-1.8784
X1.9961Y-0.5827
X1.9961Y-0.8937
X1.9961Y-0.9331
X1.9961Y-0.9724
X1.9961Y-1.0157
X1.9961Y-1.063
X1.9961Y-1.2244
X1.9968Y-0.5254
X2.0026Y-0.1128
X2.0027Y-0.0256
X2.0039Y-0.626
X2.0051Y-0.158
X2.0079Y-1.2441
X2.0079Y-1.2677
X2.0079Y-1.2913
X2.0079Y-1.315
X2.0079Y-1.3661
X2.0079Y-1.4055
X2.0079Y-1.4449
X2.0079Y-1.4843
X2.0079Y-1.9429
X2.0118Y-0.6693
X2.0118Y-0.874
X2.0118Y-0.9134
X2.0118Y-0.9528
X2.0118Y-0.9921
X2.0118Y-1.0394
X2.0118Y-1.5591
X2.0148Y-0.1838
X2.0157Y-0.6024
X2.0236Y-0.6457
X2.0236Y-1.3858
X2.0236Y-1.4252
X2.0236Y-1.4646
X2.0236Y-1.5039
X2.0236Y-1.5354
X2.0271Y-1.9154
X2.0276Y-0.8543
X2.0276Y-0.8937
X2.0276Y-0.9331
X2.0276Y-0.9724
X2.0276Y-1.0157
X2.0276Y-1.063
X2.0276Y-1.7008
X2.0277Y-0.0531
X2.0315Y-0.689
X2.0315Y-1.2441
X2.0315Y-1.2677
X2.0315Y-1.2913
X2.0315Y-1.315
X2.0315Y-1.5787
X2.0394Y-1.4055
X2.0394Y-1.4449
X2.0394Y-1.4843
X2.0394Y-1.8228
X2.0394Y-1.8622
X2.0423Y-0.0256
X2.0426Y-0.1445
X2.0433Y-0.7165
X2.0433Y-0.7402
X2.0433Y-0.7638
X2.0433Y-0.7874
X2.0433Y-0.8346
X2.0433Y-0.874
X2.0433Y-0.9134
X2.0433Y-0.9528
X2.0433Y-0.9921
X2.0433Y-1.0394
X2.0433Y-1.5551
X2.0473Y-1.9429
X2.0512Y-1.2323
X2.0512Y-1.2559
X2.0512Y-1.2795
X2.0512Y-1.3031
X2.0512Y-1.5984
X2.0519Y-0.1705
X2.0551Y-1.3858
X2.0551Y-1.4252
X2.0551Y-1.4646
X2.0551Y-1.5039
X2.0551Y-1.5315
X2.0551Y-1.8031
X2.0551Y-1.8425
X2.0551Y-1.8819
X2.0591Y-0.4016
X2.0591Y-0.689
X2.0591Y-0.8543
X2.0591Y-0.8937
X2.0591Y-0.9331
X2.0591Y-0.9724
X2.0591Y-1.0157
X2.0591Y-1.063
X2.063Y-1.5748
X2.0666Y-1.9154
X2.0669Y-0.7165
X2.0669Y-0.7402
X2.0669Y-0.7638
X2.0669Y-0.7874
X2.0672Y-0.0531
X2.0709Y-0.2205
X2.0709Y-0.252
X2.0709Y-0.2835
X2.0709Y-0.315
X2.0709Y-0.3465
X2.0709Y-1.4055
X2.0709Y-1.4449
X2.0709Y-1.4843
X2.0709Y-1.6181
X2.0709Y-1.7835
X2.0709Y-1.8228
X2.0709Y-1.8622
X2.0748Y-0.8346
X2.0748Y-0.874
X2.0748Y-0.9134
X2.0748Y-0.9528
X2.0748Y-0.9921
X2.0748Y-1.0394
X2.0748Y-1.5512
X2.0787Y-0.5118
X2.0818Y-0.0256
X2.0827Y-1.2244
X2.0827Y-1.5945
X2.0866Y-1.3543
X2.0866Y-1.3858
X2.0866Y-1.4252
X2.0866Y-1.4646
X2.0866Y-1.5039
X2.0866Y-1.8031
X2.0866Y-1.8425
X2.0866Y-1.8819
X2.0866Y-1.9429
X2.0906Y-0.1732
X2.0906Y-0.7047
X2.0906Y-0.7283
X2.0906Y-0.752
X2.0906Y-0.7756
X2.0906Y-0.8543
X2.0906Y-0.8937
X2.0906Y-0.9331
X2.0906Y-0.9724
X2.0906Y-1.0157
X2.0906Y-1.1299
X2.0906Y-1.1535
X2.0906Y-1.1772
X2.0906Y-1.2008
X2.0906Y-1.6378
X2.0945Y-0.4921
X2.1024Y-1.4055
X2.1024Y-1.4449
X2.1024Y-1.4843
X2.1024Y-1.7835
X2.1024Y-1.8228
X2.1024Y-1.8622
X2.1061Y-1.9154
X2.1063Y-0.8346
X2.1063Y-0.874
X2.1063Y-0.9134
X2.1063Y-0.9528
X2.1063Y-0.9921
X2.1063Y-1.2244
X2.1063Y-1.6614
X2.1063Y-1.685
X2.1063Y-1.7087
X2.1063Y-1.7323
X2.1067Y-0.0531
X2.1102Y-0.1969
X2.1102Y-0.4724
X2.1102Y-0.5118
X2.1181Y-0.6929
X2.1181Y-1.4252
X2.1181Y-1.4646
X2.1181Y-1.6417
X2.1181Y-1.8031
X2.1181Y-1.8425
X2.1181Y-1.8819
X2.1213Y-0.0256
X2.122Y-0.1693
X2.122Y-0.8543
X2.122Y-0.8937
X2.122Y-0.9331
X2.122Y-0.9724
X2.126Y-0.4528
X2.126Y-0.4921
X2.126Y-0.5984
X2.126Y-0.622
X2.126Y-0.6457
X2.126Y-0.6693
X2.126Y-1.9429
X2.1299Y-0.2165
X2.1299Y-1.6614
X2.1299Y-1.685
X2.1299Y-1.7087
X2.1299Y-1.7323
X2.1324Y-0.1062
X2.1339Y-1.4449
X2.1339Y-1.8228
X2.1339Y-1.8622
X2.1358Y-1.3091
X2.1378Y-0.8346
X2.1378Y-0.874
X2.1417Y-0.1929
X2.1417Y-0.3583
X2.1417Y-0.4724
X2.1417Y-0.5118
X2.1417Y-0.6929
X2.1456Y-1.9154
X2.1462Y-0.0531
X2.1496Y-0.2362
X2.1496Y-1.6496
X2.1496Y-1.6732
X2.1496Y-1.6969
X2.1496Y-1.7205
X2.1496Y-1.8031
X2.1496Y-1.8425
X2.1496Y-1.8819
X2.1539Y-0.8538
X2.1575Y-0.1654
X2.1575Y-0.4528
X2.1575Y-0.4921
X2.1608Y-0.0256
X2.1614Y-0.2126
X2.1614Y-0.7776
X2.1614Y-0.8051
X2.1654Y-1.8228
X2.1654Y-1.8622
X2.1654Y-1.9429
X2.1693Y-0.2559
X2.1732Y-0.189
X2.1732Y-0.4331
X2.1732Y-0.4724
X2.1732Y-0.5118
X2.1772Y-1.6378
X2.1811Y-0.2323
X2.1811Y-1.8031
X2.1811Y-1.8425
X2.1811Y-1.8819
X2.1811Y-1.7717
X2.185Y-1.5433
X2.185Y-1.5669
X2.185Y-1.5906
X2.185Y-1.6142
X2.1851Y-1.9154
X2.1857Y-0.0531
X2.189Y-0.1614
X2.189Y-0.2756
X2.189Y-0.4528
X2.189Y-0.4921
X2.1929Y-0.2087
X2.1969Y-1.8228
X2.1969Y-1.8622
X2.2004Y-0.0256
X2.2008Y-0.252
X2.2008Y-1.6378
X2.2047Y-0.4331
X2.2047Y-0.4724
X2.2047Y-0.5118
X2.2047Y-1.9429
X2.2087Y-0.2953
X2.2126Y-1.8425
X2.2126Y-1.8819
X2.2205Y-0.3189
X2.2205Y-0.3425
X2.2205Y-0.3661
X2.2205Y-0.3898
X2.2205Y-0.4528
X2.2205Y-0.4921
X2.224Y-1.9154
X2.2244Y-1.7244
X2.2252Y-0.0531
X2.2283Y-1.8622
X2.2323Y-0.2953
X2.2362Y-0.4724
X2.2362Y-0.5118
X2.2399Y-0.0256
X2.2441Y-0.3189
X2.2441Y-0.3425
X2.2441Y-0.3661
X2.2441Y-0.3898
X2.2441Y-1.9429
X2.252Y-0.4528
X2.252Y-0.4921
X2.2531Y-1.7912
X2.2559Y-0.2953
X2.2638Y-0.3307
X2.2638Y-0.3543
X2.2638Y-0.378
X2.2638Y-0.4016
X2.2647Y-0.0531
X2.2647Y-1.9154
X2.2677Y-0.4724
X2.2677Y-0.5118
X2.2756Y-1.1398
X2.2794Y-0.0256
X2.2835Y-0.4921
X2.2835Y-1.9429
X2.284Y-1.0926
X2.2874Y-0.2992
X2.2953Y-0.2047
X2.2953Y-0.2283
X2.2953Y-0.252
X2.2953Y-0.2756
X2.2953Y-0.4291
X2.2983Y-0.6578
X2.2992Y-0.4724
X2.3042Y-0.0531
X2.3042Y-1.9154
X2.3081Y-1.8754
X2.311Y-0.2992
X2.311Y-0.6083
X2.3135Y-0.8785
X2.315Y-0.4528
X2.3189Y-0.0256
X2.3229Y-1.9429
X2.3312Y-1.188
X2.3437Y-0.0531
X2.3437Y-1.9154
X2.3445Y-0.3819
X2.3585Y-0.0256
X2.3619Y-0.5729
X2.3622Y-1.9429
X2.3647Y-1.087
X2.3661Y-1.5551
X2.3685Y-0.7874
X2.3746Y-0.6781
X2.383Y-1.6014
X2.3832Y-0.0531
X2.3832Y-1.9154
X2.3867Y-1.4953
X2.3912Y-1.7354
X2.3934Y-0.8908
X2.398Y-0.0256
X2.4016Y-1.9429
X2.4119Y-1.1824
X2.4178Y-1.8431
X2.4203Y-1.5878
X2.4227Y-0.0531
X2.4227Y-1.9154
X2.424Y-1.4817
X2.4356Y-1.6592
X2.4375Y-0.0256
X2.4382Y-0.5932
X2.441Y-1.9429
X2.4454Y-1.0814
X2.4483Y-0.7997
X2.4509Y-0.6985
X2.4576Y-1.5742
X2.4613Y-1.4681
X2.4622Y-0.0531
X2.4622Y-1.9154
X2.468Y-1.2956
X2.4771Y-0.0256
X2.4803Y-0.2126
X2.4804Y-1.9429
X2.489Y-0.2758
X2.4924Y-1.7617
X2.4926Y-1.1768
X2.495Y-1.5606
X2.4962Y-1.4086
X2.4977Y-0.1048
X2.4987Y-1.4546
X2.5016Y-0.0531
X2.5016Y-1.9154
X2.5062Y-0.1707
X2.5131Y-0.9093
X2.5145Y-0.6136
X2.5166Y-0.0256
X2.5197Y-1.9429
X2.5204Y-0.5008
X2.5211Y-1.8747
X2.5236Y-0.2972
X2.524Y-0.3555
X2.5261Y-1.0758
X2.5264Y-0.9634
X2.5272Y-0.7189
X2.5278Y-0.7729
X2.5282Y-0.8121
X2.5323Y-1.5471
X2.5329Y-1.174
X2.536Y-1.441
X2.5408Y-0.1921
X2.5411Y-0.0531
X2.5411Y-1.9154
X2.5457Y-1.6006
X2.5471Y-1.2149
X2.5526Y-0.6238
X2.553Y-0.9155
X2.5561Y-0.0256
X2.5582Y-0.3186
X2.5591Y-1.9429
X2.5654Y-0.7291
X2.5665Y-1.073
X2.5681Y-0.8183
X2.5696Y-1.5335
X2.5733Y-1.1711
X2.5733Y-1.4274
X2.5754Y-0.2135
X2.5786Y-0.5768
X2.5805Y-0.1581
X2.5805Y-1.3161
X2.5806Y-0.0531
X2.5806Y-1.9154
X2.5826Y-1.7038
X2.5908Y-0.634
X2.5928Y-0.34
X2.5929Y-0.9217
X2.5956Y-0.0256
X2.5985Y-1.9429
X2.6035Y-0.7392
X2.6064Y-1.0244
X2.6068Y-1.0701
X2.607Y-1.5199
X2.6073Y-1.8196
X2.608Y-0.8244
X2.6096Y-0.4168
X2.61Y-0.2348
X2.6107Y-1.4138
X2.6137Y-1.1683
X2.6201Y-0.0531
X2.6201Y-1.9154
X2.6274Y-0.3613
X2.6289Y-0.6441
X2.6328Y-0.9279
X2.6352Y-0.0256
X2.6379Y-1.9429
X2.6417Y-0.7494
X2.6443Y-1.5063
X2.6445Y-0.2562
X2.6472Y-1.0673
X2.6479Y-0.8306
X2.648Y-1.4003
X2.654Y-1.1655
X2.6552Y-1.2343
X2.6553Y-0.4929
X2.658Y-1.5673
X2.6588Y-0.1121
X2.6596Y-0.0531
X2.6596Y-1.9154
X2.662Y-0.3827
X2.667Y-0.6543
X2.6728Y-0.9341
X2.6747Y-0.0256
X2.6772Y-1.9429
X2.6791Y-0.2776
X2.6798Y-0.7596
X2.6816Y-1.4928
X2.6836Y-0.6107
X2.6845Y-1.6866
X2.6851Y-1.872
X2.6853Y-1.3867
X2.6875Y-1.0645
X2.6878Y-0.8368
X2.6936Y-0.2251
X2.6944Y-1.1627
X2.6966Y-0.4041
X2.6991Y-0.0531
X2.6991Y-1.9154
X2.7052Y-0.6645
X2.7127Y-0.9402
X2.7137Y-0.299
X2.7142Y-0.0256
X2.7162Y-0.9867
X2.7166Y-1.9429
X2.718Y-0.7698
X2.719Y-1.4792
X2.7225Y-1.3237
X2.7227Y-1.3731
X2.7277Y-0.843
X2.7279Y-1.0617
X2.7312Y-0.4254
X2.7347Y-1.1599
X2.7386Y-0.0531
X2.7386Y-1.9154
X2.7426Y-1.7675
X2.7433Y-0.6747
X2.7483Y-0.3203
X2.7526Y-0.9464
X2.7537Y-0.0256
X2.756Y-1.9429
X2.7561Y-0.78
X2.7563Y-1.4656
X2.76Y-1.3595
X2.7655Y-0.1418
X2.7658Y-0.4468
X2.7675Y-1.2177
X2.7676Y-0.8491
X2.7682Y-1.0589
X2.7683Y-0.2814
X2.7731Y-0.5232
X2.7751Y-1.1571
X2.7766Y-1.5201
X2.7781Y-0.0531
X2.7781Y-1.9154
X2.7815Y-0.6849
X2.7829Y-0.3417
X2.7925Y-0.9526
X2.7933Y-0.0256
X2.7935Y-1.841
X2.7936Y-1.452
X2.7943Y-0.7901
X2.7953Y-1.9429
X2.7973Y-1.346
X2.8003Y-0.4682
X2.8022Y-0.6353
X2.8027Y-1.6308
X2.8076Y-0.8553
X2.8086Y-1.0561
X2.8154Y-1.1543
X2.8175Y-0.3631
X2.8176Y-0.0531
X2.8176Y-1.9154
X2.8196Y-0.6951
X2.831Y-1.4385
X2.8314Y-1.2884
X2.8324Y-0.8003
X2.8324Y-0.9588
X2.8328Y-0.0256
X2.8347Y-1.3324
X2.8347Y-1.9429
X2.8349Y-0.4896
X2.8475Y-0.8615
X2.8489Y-1.0533
X2.8494Y-0.185
X2.8521Y-0.3845
X2.8533Y-0.3269
X2.8558Y-1.1515
X2.8571Y-0.0531
X2.8571Y-1.9154
X2.8578Y-0.7052
X2.8578Y-1.706
X2.8683Y-1.4249
X2.8695Y-0.5109
X2.8706Y-0.8105
X2.872Y-1.3188
X2.8723Y-0.0256
X2.8723Y-0.9649
X2.8741Y-1.9429
X2.877Y-0.5715
X2.8865Y-1.4833
X2.8867Y-0.4058
X2.8874Y-0.8677
X2.8893Y-1.0505
X2.8959Y-0.7154
X2.8961Y-1.1486
X2.8966Y-0.0531
X2.8966Y-1.9154
X2.9041Y-0.5323
X2.9043Y-1.7907
X2.9056Y-1.4113
X2.9084Y-0.1033
X2.9087Y-0.8207
X2.9093Y-1.3052
X2.9097Y-1.209
X2.9118Y-0.0256
X2.9122Y-0.9711
X2.9135Y-1.9429
X2.9144Y-1.6037
X2.9213Y-0.4272
X2.9273Y-0.8738
X2.9296Y-1.0476
X2.9341Y-0.7256
X2.9343Y-0.3865
X2.9361Y-0.0531
X2.9361Y-1.9154
X2.9365Y-1.1458
X2.9387Y-0.5537
X2.939Y-0.6549
X2.943Y-1.3977
X2.9436Y-0.2448
X2.9467Y-1.2917
X2.9469Y-0.8309
X2.9514Y-0.0256
X2.9522Y-0.9773
X2.9528Y-1.9429
X2.9558Y-0.4486
X2.9607Y-1.6861
X2.9611Y-1.8776
X2.9672Y-0.88
X2.97Y-1.0448
X2.9722Y-0.7358
X2.9733Y-0.575
X2.9755Y-0.0531
X2.9755Y-1.9154
X2.9768Y-1.143
X2.9803Y-1.3842
X2.984Y-1.2781
X2.985Y-0.8411
X2.9892Y-1.4383
X2.9904Y-0.4699
X2.9909Y-0.0256
X2.9921Y-0.9835
X2.9922Y-1.9429
X2.9949Y-0.1646
X3.0071Y-0.8862
X3.0079Y-0.5964
X3.0104Y-1.042
X3.0104Y-0.746
X3.0147Y-1.5434
X3.015Y-0.0531
X3.015Y-1.9154
X3.0172Y-1.1402
X3.0176Y-1.3706
X3.0187Y-1.7652
X3.0213Y-1.2645
X3.0221Y-1.1906
X3.0231Y-0.8512
X3.025Y-0.4913
X3.026Y-0.3068
X3.0304Y-0.0256
X3.0316Y-1.9429
X3.032Y-0.9896
X3.0406Y-0.6841
X3.0425Y-0.6178
X3.0439Y-0.4186
X3.047Y-0.8924
X3.0485Y-0.7561
X3.0507Y-1.0392
X3.0545Y-0.0531
X3.0545Y-1.9154
X3.055Y-1.357
X3.0576Y-1.1374
X3.0587Y-1.2509
X3.0596Y-0.5127
X3.0613Y-0.8614
X3.0699Y-0.0256
X3.071Y-1.9429
X3.0719Y-0.9958
X3.0751Y-0.1083
X3.0771Y-0.6392
X3.0817Y-1.6315
X3.0817Y-1.8433
X3.0867Y-0.7663
X3.0869Y-0.8986
X3.0911Y-1.0364
X3.0923Y-1.3434
X3.094Y-0.0531
X3.094Y-1.9154
X3.0942Y-0.5341
X3.096Y-1.2374
X3.0966Y-0.2166
X3.0979Y-1.1346
X3.0986Y-0.4945
X3.099Y-1.4065
X3.0994Y-0.8716
X3.1095Y-0.0256
X3.1103Y-1.9429
X3.1116Y-0.6605
X3.1118Y-1.002
X3.1248Y-0.7765
X3.1269Y-0.9047
X3.1274Y-1.713
X3.1282Y-0.3337
X3.1288Y-0.5554
X3.1296Y-1.3298
X3.1314Y-1.0336
X3.1328Y-1.5185
X3.1333Y-1.2238
X3.1335Y-0.0531
X3.1335Y-1.9154
X3.1376Y-0.8818
X3.1383Y-1.1318
X3.1462Y-0.6819
X3.149Y-0.0256
X3.1497Y-1.9429
X3.1517Y-1.0082
X3.163Y-0.7867
X3.1634Y-0.5768
X3.1668Y-0.9109
X3.167Y-1.3163
X3.1707Y-1.2102
X3.1718Y-1.0308
X3.173Y-0.0531
X3.173Y-1.9154
X3.1757Y-0.892
X3.1786Y-1.129
X3.1806Y-1.5995
X3.1808Y-0.7033
X3.1834Y-1.7881
X3.1839Y-0.1427
X3.1868Y-0.4146
X3.1885Y-0.0256
X3.1891Y-1.9429
X3.1916Y-1.0144
X3.198Y-0.5982
X3.2011Y-0.7969
X3.2043Y-1.3027
X3.208Y-1.1966
X3.2101Y-0.2441
X3.2109Y-0.5273
X3.2121Y-1.028
X3.2125Y-0.0531
X3.2125Y-1.9154
X3.2139Y-0.9022
X3.2149Y-1.3443
X3.2154Y-0.7247
X3.219Y-1.1261
X3.228Y-0.0256
X3.2285Y-1.9429
X3.2326Y-0.6196
X3.2361Y-1.6811
X3.2393Y-0.8071
X3.2413Y-1.8672
X3.2416Y-1.2891
X3.2453Y-1.183
X3.2457Y-1.4626
X3.2466Y-0.9233
X3.25Y-0.746
X3.252Y-0.0531
X3.252Y-1.9154
X3.2525Y-1.0251
X3.2593Y-1.1233
X3.2636Y-0.3342
X3.2672Y-0.6409
X3.2676Y-0.0256
X3.2678Y-1.9429
X3.2774Y-0.8172
X3.279Y-1.2755
X3.2827Y-1.1695
X3.2846Y-0.7674
X3.2902Y-0.9225
X3.2915Y-0.0531
X3.2915Y-1.9154
X3.2924Y-1.5482
X3.297Y-0.1047
X3.2978Y-0.5805
X3.2997Y-1.1205
X3.3009Y-1.7614
X3.3017Y-0.6623
X3.3022Y-0.4398
X3.3071Y-0.0256
X3.3072Y-1.9429
X3.3156Y-0.8274
X3.3163Y-1.262
X3.3169Y-0.2155
X3.317Y-1.3227
X3.3189Y-0.9843
X3.3192Y-0.7888
X3.32Y-1.1559
X3.331Y-0.0531
X3.331Y-1.9154
X3.3363Y-0.6837
X3.34Y-1.1177
X3.3466Y-1.9429
X3.3466Y-0.0256
X3.3483Y-1.8506
X3.3525Y-1.6285
X3.3529Y-1.4369
X3.3536Y-1.2484
X3.3537Y-0.8376
X3.3538Y-0.8101
X3.3548Y-0.9345
X3.3573Y-1.1423
X3.3705Y-0.0531
X3.3705Y-1.9154
X3.3709Y-0.705
X3.3714Y-0.6382
X3.3736Y-0.306
X3.3804Y-1.1149
X3.3804Y-0.4888
X3.386Y-1.9429
X3.3862Y-0.0256
X3.3884Y-0.8315
X3.391Y-1.2348
X3.3947Y-1.1287
X3.4025Y-1.7074
X3.4027Y-0.1399
X3.4055Y-0.7264
X3.4094Y-1.5101
X3.41Y-0.0531
X3.41Y-1.9154
X3.4173Y-0.9055
X3.4173Y-0.9409
X3.4173Y-1.0276
X3.4173Y-1.063
X3.4253Y-1.9429
X3.4257Y-0.0256
X3.4265Y-0.391
X3.4283Y-1.2212
X3.433Y-1.2708
X3.4488Y-0.811
X3.4488Y-0.9055
X3.4488Y-1.063
X3.4488Y-1.1614
X3.4494Y-0.0531
X3.4494Y-1.9154
X3.4546Y-0.7578
X3.4547Y-0.9843
X3.4568Y-1.7935
X3.4579Y-0.2177
X3.4587Y-1.5966
X3.46Y-1.374
X3.4625Y-0.5486
X3.4647Y-1.9429
X3.4652Y-0.0256
X3.4665Y-0.7069
X3.4843Y-0.9055
X3.4843Y-1.063
X3.4889Y-0.0531
X3.4889Y-1.9154
X3.4953Y-1.2854
X3.4961Y-1.2522
X3.4999Y-0.6791
X3.5Y-0.7124
X3.5041Y-1.9429
X3.5047Y-0.0256
X3.5104Y-0.6309
X3.5183Y-0.1092
X3.5184Y-1.6765
X3.5193Y-1.8689
X3.5212Y-0.3013
X3.5212Y-1.4587
X3.5223Y-0.4395
X3.5236Y-0.9055
X3.5236Y-1.063
X3.5247Y-1.2235
X3.5282Y-0.7406
X3.5284Y-0.0531
X3.5284Y-1.9154
X3.5286Y-1.2586
X3.5334Y-0.7068
X3.5434Y-1.9429
X3.5443Y-0.0256
X3.5488Y-1.3159
X3.5569Y-1.2303
X3.5572Y-1.2028
X3.5583Y-0.7657
X3.563Y-0.9055
X3.563Y-1.063
X3.5648Y-0.7382
X3.5675Y-0.1985
X3.5679Y-0.0531
X3.5679Y-1.9154
X3.571Y-1.762
X3.5711Y-1.549
X3.5716Y-0.5258
X3.5828Y-1.9429
X3.5838Y-0.0256
X3.594Y-0.6817
X3.5958Y-0.3911
X3.5977Y-1.2028
X3.5978Y-1.2303
X3.601Y-0.7657
X3.6017Y-1.4022
X3.6024Y-0.9055
X3.6024Y-1.063
X3.6046Y-0.7382
X3.6051Y-1.158
X3.6074Y-0.0531
X3.6074Y-1.9154
X3.6222Y-1.9429
X3.6233Y-0.0256
X3.6291Y-1.844
X3.6295Y-0.8254
X3.6382Y-1.2028
X3.6386Y-1.2303
X3.6417Y-0.9055
X3.6417Y-1.063
X3.6438Y-0.7657
X3.6445Y-0.7382
X3.6469Y-0.0531
X3.6469Y-1.9154
X3.6502Y-1.4844
X3.6512Y-0.111
X3.6519Y-0.4629
X3.6551Y-1.2936
X3.657Y-0.6069
X3.6616Y-1.9429
X3.6628Y-0.0256
X3.6787Y-1.2028
X3.6795Y-1.2303
X3.6811Y-0.9055
X3.6811Y-1.063
X3.6844Y-0.7382
X3.6864Y-0.0531
X3.6864Y-1.9154
X3.6865Y-0.7657
X3.6868Y-1.1035
X3.7009Y-1.9429
X3.7024Y-0.0256
X3.7066Y-1.5755
X3.7114Y-0.3619
X3.7129Y-0.1893
X3.7131Y-1.7406
X3.714Y-1.3778
X3.7204Y-1.2303
X3.7205Y-0.9055
X3.7205Y-1.063
X3.7243Y-0.7382
X3.7259Y-0.0531
X3.7259Y-1.9154
X3.7309Y-0.6665
X3.731Y-0.5285
X3.7339Y-1.8741
X3.7403Y-1.9429
X3.7419Y-0.0256
X3.7577Y-1.6529
X3.7583Y-0.2814
X3.7594Y-1.455
X3.7598Y-0.9055
X3.7598Y-1.063
X3.7612Y-1.2303
X3.7642Y-0.7382
X3.7654Y-0.0531
X3.7654Y-1.9154
X3.7797Y-1.9429
X3.7814Y-0.0256
X3.7851Y-1.288
X3.7875Y-0.1078
X3.7949Y-0.4106
X3.7976Y-1.7944
X3.7992Y-0.9055
X3.7992Y-1.063
X3.8021Y-1.2303
X3.8041Y-0.7382
X3.8049Y-0.0531
X3.8049Y-1.9154
X3.8135Y-0.5712
X3.8191Y-1.9429
X3.8209Y-0.0256
X3.8245Y-1.5461
X3.8386Y-0.9055
X3.8386Y-1.063
X3.843Y-1.2303
X3.844Y-0.7382
X3.8444Y-0.0531
X3.8444Y-1.9154
X3.8508Y-1.108
X3.8584Y-1.9429
X3.8605Y-0.0256
X3.8839Y-0.0531
X3.8839Y-0.0934
X3.8839Y-0.1337
X3.8839Y-0.174
X3.8839Y-0.2143
X3.8839Y-0.2546
X3.8839Y-0.2949
X3.8839Y-0.3352
X3.8839Y-0.3755
X3.8839Y-0.4158
X3.8839Y-0.4561
X3.8839Y-0.4964
X3.8839Y-0.5367
X3.8839Y-0.577
X3.8839Y-0.6173
X3.8839Y-0.6576
X3.8839Y-0.6979
X3.8839Y-0.7382
X3.8839Y-1.2303
X3.8839Y-1.2706
X3.8839Y-1.3109
X3.8839Y-1.3512
X3.8839Y-1.3915
X3.8839Y-1.4318
X3.8839Y-1.4721
X3.8839Y-1.5124
X3.8839Y-1.5527
X3.8839Y-1.593
X3.8839Y-1.6333
X3.8839Y-1.6736
X3.8839Y-1.7139
X3.8839Y-1.7542
X3.8839Y-1.7945
X3.8839Y-1.8348
X3.8839Y-1.8751
X3.8839Y-1.9154
X3.8954Y-0.8868
X3.8978Y-1.9429
X3.9Y-0.0258
X3.9114Y-0.0596
X3.9114Y-0.0991
X3.9114Y-0.1387
X3.9114Y-0.1782
X3.9114Y-0.2177
X3.9114Y-0.2572
X3.9114Y-0.2968
X3.9114Y-0.3363
X3.9114Y-0.3758
X3.9114Y-0.4153
X3.9114Y-0.4549
X3.9114Y-0.4944
X3.9114Y-0.5339
X3.9114Y-0.5734
X3.9114Y-0.613
X3.9114Y-0.6525
X3.9114Y-0.692
X3.9114Y-0.7315
X3.9114Y-1.2191
X3.9114Y-1.2596
X3.9114Y-1.3001
X3.9114Y-1.3406
X3.9114Y-1.3811
X3.9114Y-1.4216
X3.9114Y-1.4621
X3.9114Y-1.5026
X3.9114Y-1.5431
X3.9114Y-1.5836
X3.9114Y-1.6242
X3.9114Y-1.6647
X3.9114Y-1.7052
X3.9114Y-1.7457
X3.9114Y-1.7862
X3.9114Y-1.8267
X3.9114Y-1.8672
X3.9114Y-1.9077
T0
M30
