%TF.GenerationSoftware,KiCad,Pcbnew,5.1.7*%
%TF.CreationDate,2020-12-14T19:51:55+00:00*%
%TF.ProjectId,LT3045-4,4c543330-3435-42d3-942e-6b696361645f,rev?*%
%TF.SameCoordinates,Original*%
%TF.FileFunction,Copper,L3,Inr*%
%TF.FilePolarity,Positive*%
%FSLAX46Y46*%
G04 Gerber Fmt 4.6, Leading zero omitted, Abs format (unit mm)*
G04 Created by KiCad (PCBNEW 5.1.7) date 2020-12-14 19:51:55*
%MOMM*%
%LPD*%
G01*
G04 APERTURE LIST*
%TA.AperFunction,ViaPad*%
%ADD10C,0.500000*%
%TD*%
%TA.AperFunction,Conductor*%
%ADD11C,0.500000*%
%TD*%
%TA.AperFunction,Conductor*%
%ADD12C,1.000000*%
%TD*%
%TA.AperFunction,Conductor*%
%ADD13C,1.500000*%
%TD*%
%TA.AperFunction,Conductor*%
%ADD14C,0.200000*%
%TD*%
%TA.AperFunction,Conductor*%
%ADD15C,0.254000*%
%TD*%
%TA.AperFunction,Conductor*%
%ADD16C,0.100000*%
%TD*%
%TA.AperFunction,Conductor*%
%ADD17C,0.025400*%
%TD*%
G04 APERTURE END LIST*
D10*
%TO.N,GND*%
X51489175Y-48650000D03*
X52492268Y-48650000D03*
X53495360Y-48650000D03*
X54498453Y-48650000D03*
X55501546Y-48650000D03*
X56489175Y-48650000D03*
X89616644Y-18811618D03*
X91466227Y-19450000D03*
X92551696Y-19450000D03*
X93637166Y-19450000D03*
X99350000Y-18581299D03*
X99350000Y-17577337D03*
X99350000Y-16573375D03*
X99350000Y-15569413D03*
X99350000Y-14565451D03*
X99350000Y-13561489D03*
X99350000Y-12557527D03*
X99350000Y-11553565D03*
X99350000Y-10549603D03*
X99350000Y-9545641D03*
X99350000Y-8541679D03*
X99350000Y-7537717D03*
X99350000Y-6533755D03*
X99350000Y-5529793D03*
X99350000Y-4525831D03*
X99350000Y-3521869D03*
X99350000Y-2517907D03*
X99350000Y-1513945D03*
X99059472Y-655089D03*
X98055800Y-650000D03*
X97051838Y-650000D03*
X96047876Y-650000D03*
X95043914Y-650000D03*
X94039952Y-650000D03*
X93035990Y-650000D03*
X92032029Y-650000D03*
X91028067Y-650000D03*
X90024105Y-650000D03*
X89020143Y-650000D03*
X88016181Y-650000D03*
X87012219Y-650000D03*
X86008257Y-650000D03*
X85004295Y-650000D03*
X84000333Y-650000D03*
X82996371Y-650000D03*
X81992409Y-650000D03*
X80988447Y-650000D03*
X79984485Y-650000D03*
X78980523Y-650000D03*
X77976561Y-650000D03*
X76972599Y-650000D03*
X75968637Y-650000D03*
X74964675Y-650000D03*
X73960713Y-650000D03*
X72956751Y-650000D03*
X71952789Y-650000D03*
X70948827Y-650000D03*
X69944865Y-650000D03*
X68940903Y-650000D03*
X67936941Y-650000D03*
X66932979Y-650000D03*
X65929017Y-650000D03*
X64925055Y-650000D03*
X63921093Y-650000D03*
X62917131Y-650000D03*
X61913169Y-650000D03*
X60909207Y-650000D03*
X59905245Y-650000D03*
X58901283Y-650000D03*
X57897322Y-650000D03*
X56893360Y-650000D03*
X55889398Y-650000D03*
X54885436Y-650000D03*
X53881474Y-650000D03*
X52877512Y-650000D03*
X51873550Y-650000D03*
X50869588Y-650000D03*
X49865626Y-650000D03*
X48861664Y-650000D03*
X47857702Y-650000D03*
X46853740Y-650000D03*
X45849778Y-650000D03*
X44845816Y-650000D03*
X43841854Y-650000D03*
X42837892Y-650000D03*
X41833930Y-650000D03*
X40829968Y-650000D03*
X39826006Y-650000D03*
X38822044Y-650000D03*
X37818082Y-650000D03*
X36814120Y-650000D03*
X35810158Y-650000D03*
X34806196Y-650000D03*
X33802234Y-650000D03*
X32798272Y-650000D03*
X31794310Y-650000D03*
X30790348Y-650000D03*
X29786386Y-650000D03*
X28782424Y-650000D03*
X27778462Y-650000D03*
X26774500Y-650000D03*
X25770538Y-650000D03*
X24766577Y-650000D03*
X23762615Y-650000D03*
X22758653Y-650000D03*
X21754691Y-650000D03*
X20750729Y-650000D03*
X19746767Y-650000D03*
X18742805Y-650000D03*
X17738843Y-650000D03*
X16734881Y-650000D03*
X15730919Y-650000D03*
X14726957Y-650000D03*
X13722995Y-650000D03*
X12719033Y-650000D03*
X11715071Y-650000D03*
X10711109Y-650000D03*
X9707147Y-650000D03*
X8703185Y-650000D03*
X7699223Y-650000D03*
X6695261Y-650000D03*
X5691299Y-650000D03*
X4687337Y-650000D03*
X3683375Y-650000D03*
X2679413Y-650000D03*
X1675451Y-650000D03*
X717644Y-793178D03*
X650000Y-1782693D03*
X650000Y-2786655D03*
X650000Y-3790617D03*
X650000Y-4794579D03*
X650000Y-5798541D03*
X650000Y-6802503D03*
X650000Y-7806465D03*
X650000Y-8810427D03*
X650000Y-9814389D03*
X650000Y-10818350D03*
X650000Y-11822312D03*
X650000Y-12826274D03*
X650000Y-13830236D03*
X650000Y-14834198D03*
X1997610Y-15650000D03*
X2999311Y-15650000D03*
X4001012Y-15650000D03*
X5002713Y-15650000D03*
X6004414Y-15650000D03*
X7006115Y-15650000D03*
X8007815Y-15650000D03*
X9009516Y-15650000D03*
X10011217Y-15650000D03*
X11012918Y-15650000D03*
X12014619Y-15650000D03*
X13016320Y-15650000D03*
X14018020Y-15650000D03*
X15019721Y-15650000D03*
X16021422Y-15650000D03*
X17023123Y-15650000D03*
X18024824Y-15650000D03*
X19026525Y-15650000D03*
X20028226Y-15650000D03*
X21003513Y-15491213D03*
X25717857Y-13800036D03*
X26660726Y-13461800D03*
X27603594Y-13123565D03*
X28546463Y-12785329D03*
X29489332Y-12447094D03*
X30432200Y-12108859D03*
X31375069Y-11770623D03*
X32317938Y-11432388D03*
X33260806Y-11094152D03*
X34203675Y-10755917D03*
X35146544Y-10417681D03*
X36089413Y-10079446D03*
X37032281Y-9741211D03*
X37975150Y-9402975D03*
X38918019Y-9064740D03*
X39860887Y-8726504D03*
X40803756Y-8388269D03*
X41746625Y-8050033D03*
X42689493Y-7711798D03*
X43632362Y-7373562D03*
X44575231Y-7035327D03*
X45518100Y-6697092D03*
X46460968Y-6358856D03*
X47403837Y-6020621D03*
X48346706Y-5682385D03*
X49289574Y-5344150D03*
X50232443Y-5005914D03*
X51175312Y-4667679D03*
X87747487Y-19247487D03*
X88900000Y-18094974D03*
X90380775Y-19449471D03*
X988384Y-15649807D03*
X52118181Y-4329444D03*
X50929009Y-4012357D03*
X49976200Y-4354158D03*
X49023391Y-4695960D03*
X48070582Y-5037761D03*
X47117773Y-5379562D03*
X46164964Y-5721364D03*
X45212155Y-6063165D03*
X44259346Y-6404966D03*
X43306537Y-6746767D03*
X42353728Y-7088569D03*
X41400919Y-7430370D03*
X40448110Y-7772172D03*
X39495301Y-8113973D03*
X38542492Y-8455774D03*
X37589683Y-8797576D03*
X36636874Y-9139377D03*
X35684065Y-9481178D03*
X34731256Y-9822980D03*
X33778447Y-10164781D03*
X32825638Y-10506582D03*
X31872829Y-10848384D03*
X30920020Y-11190185D03*
X29967211Y-11531986D03*
X29014402Y-11873788D03*
X28061593Y-12215589D03*
X27108784Y-12557390D03*
X26155975Y-12899192D03*
X25203166Y-13240993D03*
X24250357Y-13582794D03*
X23297548Y-13924596D03*
X19434430Y-14950000D03*
X18429739Y-14950000D03*
X17425049Y-14950000D03*
X16420358Y-14950000D03*
X15415668Y-14950000D03*
X14410977Y-14950000D03*
X13406286Y-14950000D03*
X12401596Y-14950000D03*
X11396905Y-14950000D03*
X10392215Y-14950000D03*
X9387524Y-14950000D03*
X8382834Y-14950000D03*
X7378143Y-14950000D03*
X6373452Y-14950000D03*
X5368762Y-14950000D03*
X4364071Y-14950000D03*
X3359381Y-14950000D03*
X2354690Y-14950000D03*
X1350000Y-13903846D03*
X1350000Y-12857692D03*
X1350000Y-11811538D03*
X1350000Y-10765384D03*
X1350000Y-9719230D03*
X1350000Y-8673076D03*
X1350000Y-7626923D03*
X1350000Y-6580769D03*
X1350000Y-5534615D03*
X1350000Y-4488461D03*
X1350000Y-3442307D03*
X1350000Y-2396153D03*
X2353092Y-1350000D03*
X3356185Y-1350000D03*
X4359278Y-1350000D03*
X5362371Y-1350000D03*
X6365463Y-1350000D03*
X7368556Y-1350000D03*
X8371649Y-1350000D03*
X9374742Y-1350000D03*
X10377835Y-1350000D03*
X11380927Y-1350000D03*
X12384020Y-1350000D03*
X13387113Y-1350000D03*
X14390206Y-1350000D03*
X15393298Y-1350000D03*
X16396391Y-1350000D03*
X17399484Y-1350000D03*
X18402577Y-1350000D03*
X19405670Y-1350000D03*
X20408762Y-1350000D03*
X21411855Y-1350000D03*
X22414948Y-1350000D03*
X23418041Y-1350000D03*
X24421134Y-1350000D03*
X25424226Y-1350000D03*
X26427319Y-1350000D03*
X27430412Y-1350000D03*
X28433505Y-1350000D03*
X29436597Y-1350000D03*
X30439690Y-1350000D03*
X31442783Y-1350000D03*
X32445876Y-1350000D03*
X33448969Y-1350000D03*
X34452061Y-1350000D03*
X35455154Y-1350000D03*
X36458247Y-1350000D03*
X37461340Y-1350000D03*
X38464432Y-1350000D03*
X39467525Y-1350000D03*
X40470618Y-1350000D03*
X41473711Y-1350000D03*
X42476804Y-1350000D03*
X43479896Y-1350000D03*
X44482989Y-1350000D03*
X45486082Y-1350000D03*
X46489175Y-1350000D03*
X47492268Y-1350000D03*
X48495360Y-1350000D03*
X49498453Y-1350000D03*
X50501546Y-1350000D03*
X51504639Y-1350000D03*
X52507731Y-1350000D03*
X53510824Y-1350000D03*
X54513917Y-1350000D03*
X55517010Y-1350000D03*
X56520103Y-1350000D03*
X57523195Y-1350000D03*
X58526288Y-1350000D03*
X59529381Y-1350000D03*
X60532474Y-1350000D03*
X61535567Y-1350000D03*
X62538659Y-1350000D03*
X63541752Y-1350000D03*
X64544845Y-1350000D03*
X65547938Y-1350000D03*
X66551030Y-1350000D03*
X67554123Y-1350000D03*
X68557216Y-1350000D03*
X69560309Y-1350000D03*
X70563402Y-1350000D03*
X71566494Y-1350000D03*
X72569587Y-1350000D03*
X73572680Y-1350000D03*
X74575773Y-1350000D03*
X75578865Y-1350000D03*
X76581958Y-1350000D03*
X77585051Y-1350000D03*
X78588144Y-1350000D03*
X79591237Y-1350000D03*
X80594329Y-1350000D03*
X81597422Y-1350000D03*
X82600515Y-1350000D03*
X83603608Y-1350000D03*
X84606701Y-1350000D03*
X85609793Y-1350000D03*
X86612886Y-1350000D03*
X87615979Y-1350000D03*
X88619072Y-1350000D03*
X89622164Y-1350000D03*
X90625257Y-1350000D03*
X91628350Y-1350000D03*
X92631443Y-1350000D03*
X93634536Y-1350000D03*
X94637628Y-1350000D03*
X95640721Y-1350000D03*
X96643814Y-1350000D03*
X97646907Y-1350000D03*
X98650000Y-2373529D03*
X98650000Y-3397058D03*
X98650000Y-4420588D03*
X98650000Y-5444117D03*
X98650000Y-6467647D03*
X98650000Y-7491176D03*
X98650000Y-8514705D03*
X98650000Y-9538235D03*
X98650000Y-10561764D03*
X98650000Y-11585294D03*
X98650000Y-12608823D03*
X98650000Y-13632352D03*
X98650000Y-14655882D03*
X98650000Y-15679411D03*
X98650000Y-16702941D03*
X98650000Y-17726470D03*
X97636871Y-18750000D03*
X96623743Y-18750000D03*
X95610615Y-18750000D03*
X94597487Y-18750000D03*
X93584358Y-18750000D03*
X92571230Y-18750000D03*
X91558102Y-18750000D03*
X89748414Y-17953440D03*
X88898223Y-17250005D03*
X88049072Y-17955953D03*
X51881818Y-3670556D03*
X20439121Y-14950000D03*
X1350000Y-14950000D03*
X1350000Y-1350000D03*
X98650000Y-1350000D03*
X98650000Y-18750000D03*
X90544974Y-18750000D03*
X47248234Y-43549027D03*
X46269718Y-43240438D03*
X45291201Y-42931850D03*
X44312685Y-42623261D03*
X43334169Y-42314672D03*
X42355652Y-42006084D03*
X41377136Y-41697495D03*
X40398620Y-41388906D03*
X39420103Y-41080317D03*
X38441587Y-40771729D03*
X37463071Y-40463140D03*
X36484554Y-40154551D03*
X35506038Y-39845963D03*
X34527522Y-39537374D03*
X33549005Y-39228785D03*
X32570489Y-38920197D03*
X31591973Y-38611608D03*
X30613457Y-38303019D03*
X29634940Y-37994430D03*
X28656424Y-37685842D03*
X27677908Y-37377253D03*
X26699391Y-37068664D03*
X25720875Y-36760076D03*
X24742359Y-36451487D03*
X23763842Y-36142898D03*
X20828293Y-35217132D03*
X19849777Y-34908543D03*
X18871261Y-34599955D03*
X17892744Y-34291366D03*
X16914228Y-33982777D03*
X15935712Y-33674189D03*
X14957195Y-33365600D03*
X13978679Y-33057011D03*
X13000163Y-32748422D03*
X11008279Y-32450000D03*
X9997308Y-32450000D03*
X8986337Y-32450000D03*
X7975366Y-32450000D03*
X6964395Y-32450000D03*
X5953424Y-32450000D03*
X4942453Y-32450000D03*
X3931482Y-32450000D03*
X2920511Y-32450000D03*
X1909540Y-32450000D03*
X899982Y-32464594D03*
X650000Y-33362622D03*
X650000Y-34373594D03*
X650000Y-35384565D03*
X650000Y-36395536D03*
X650000Y-37406507D03*
X650000Y-38417478D03*
X650000Y-39428449D03*
X650000Y-40439420D03*
X650000Y-41450391D03*
X650000Y-42461362D03*
X650000Y-43472333D03*
X650000Y-44483304D03*
X650000Y-45494275D03*
X650000Y-46505246D03*
X650000Y-47516217D03*
X650000Y-48527188D03*
X1995995Y-49350000D03*
X2996080Y-49350000D03*
X3996166Y-49350000D03*
X4996251Y-49350000D03*
X5996336Y-49350000D03*
X6996422Y-49350000D03*
X7996507Y-49350000D03*
X8996592Y-49350000D03*
X9996678Y-49350000D03*
X10996763Y-49350000D03*
X11996848Y-49350000D03*
X12996934Y-49350000D03*
X13997019Y-49350000D03*
X14997105Y-49350000D03*
X15997190Y-49350000D03*
X16997275Y-49350000D03*
X17997361Y-49350000D03*
X18997446Y-49350000D03*
X19997531Y-49350000D03*
X20997617Y-49350000D03*
X21997702Y-49350000D03*
X22997788Y-49350000D03*
X23997873Y-49350000D03*
X24997958Y-49350000D03*
X25998044Y-49350000D03*
X26998129Y-49350000D03*
X27998214Y-49350000D03*
X28998300Y-49350000D03*
X29998385Y-49350000D03*
X30998470Y-49350000D03*
X31998556Y-49350000D03*
X32998641Y-49350000D03*
X33998727Y-49350000D03*
X34998812Y-49350000D03*
X35998897Y-49350000D03*
X36998983Y-49350000D03*
X37999068Y-49350000D03*
X38999153Y-49350000D03*
X39999239Y-49350000D03*
X40999324Y-49350000D03*
X41999410Y-49350000D03*
X42999495Y-49350000D03*
X43999580Y-49350000D03*
X44999666Y-49350000D03*
X45999751Y-49350000D03*
X46999836Y-49350000D03*
X47999922Y-49350000D03*
X49000007Y-49350000D03*
X50000093Y-49350000D03*
X51000178Y-49350000D03*
X52000263Y-49350000D03*
X53000349Y-49350000D03*
X54000434Y-49350000D03*
X55000519Y-49350000D03*
X56000605Y-49350000D03*
X57000690Y-49350000D03*
X58000775Y-49350000D03*
X59000861Y-49350000D03*
X60000946Y-49350000D03*
X61001032Y-49350000D03*
X62001117Y-49350000D03*
X63001202Y-49350000D03*
X64001288Y-49350000D03*
X65001373Y-49350000D03*
X66001458Y-49350000D03*
X67001544Y-49350000D03*
X68001629Y-49350000D03*
X69001715Y-49350000D03*
X70001800Y-49350000D03*
X71001885Y-49350000D03*
X72001971Y-49350000D03*
X73002056Y-49350000D03*
X74002141Y-49350000D03*
X75002227Y-49350000D03*
X76002312Y-49350000D03*
X77002397Y-49350000D03*
X78002483Y-49350000D03*
X79002568Y-49350000D03*
X80002654Y-49350000D03*
X81002739Y-49350000D03*
X82002824Y-49350000D03*
X83002910Y-49350000D03*
X84002995Y-49350000D03*
X85003080Y-49350000D03*
X86003166Y-49350000D03*
X87003251Y-49350000D03*
X88003337Y-49350000D03*
X89003422Y-49350000D03*
X90003507Y-49350000D03*
X91003593Y-49350000D03*
X92003678Y-49350000D03*
X93003763Y-49350000D03*
X94003849Y-49350000D03*
X95003934Y-49350000D03*
X96004020Y-49350000D03*
X97004105Y-49350000D03*
X98004190Y-49350000D03*
X99350000Y-48456301D03*
X99350000Y-47427342D03*
X99350000Y-46398382D03*
X99350000Y-45369422D03*
X99350000Y-44340463D03*
X99350000Y-43311503D03*
X99350000Y-42282543D03*
X99350000Y-41253584D03*
X99350000Y-40224624D03*
X99350000Y-39195664D03*
X99350000Y-38166705D03*
X99350000Y-37137745D03*
X99350000Y-36108786D03*
X99350000Y-35079826D03*
X99350000Y-34050866D03*
X99350000Y-33021907D03*
X99350000Y-31992947D03*
X99350000Y-30963987D03*
X93440009Y-30550000D03*
X92411049Y-30550000D03*
X91382089Y-30550000D03*
X90353130Y-30550000D03*
X89527584Y-31077441D03*
X12019233Y-32450529D03*
X988383Y-49349807D03*
X99004276Y-49349974D03*
X88800000Y-31805026D03*
X89627308Y-31967665D03*
X91383102Y-31250000D03*
X92421230Y-31250000D03*
X93459358Y-31250000D03*
X94497487Y-31250000D03*
X95535615Y-31250000D03*
X96573743Y-31250000D03*
X97611871Y-31250000D03*
X98650000Y-32273529D03*
X98650000Y-33297058D03*
X98650000Y-34320588D03*
X98650000Y-35344117D03*
X98650000Y-36367647D03*
X98650000Y-37391176D03*
X98650000Y-38414705D03*
X98650000Y-39438235D03*
X98650000Y-40461764D03*
X98650000Y-41485294D03*
X98650000Y-42508823D03*
X98650000Y-43532352D03*
X98650000Y-44555882D03*
X98650000Y-45579411D03*
X98650000Y-46602941D03*
X98650000Y-47626470D03*
X97646907Y-48650000D03*
X96643814Y-48650000D03*
X95640721Y-48650000D03*
X94637628Y-48650000D03*
X93634536Y-48650000D03*
X92631443Y-48650000D03*
X91628350Y-48650000D03*
X90625257Y-48650000D03*
X89622164Y-48650000D03*
X88619072Y-48650000D03*
X87615979Y-48650000D03*
X86612886Y-48650000D03*
X85609793Y-48650000D03*
X84606701Y-48650000D03*
X83603608Y-48650000D03*
X82600515Y-48650000D03*
X81597422Y-48650000D03*
X80594329Y-48650000D03*
X79591237Y-48650000D03*
X78588144Y-48650000D03*
X77585051Y-48650000D03*
X76581958Y-48650000D03*
X75578865Y-48650000D03*
X74575773Y-48650000D03*
X73572680Y-48650000D03*
X72569587Y-48650000D03*
X71566494Y-48650000D03*
X70563402Y-48650000D03*
X69560309Y-48650000D03*
X68557216Y-48650000D03*
X67554123Y-48650000D03*
X66551030Y-48650000D03*
X65547938Y-48650000D03*
X64544845Y-48650000D03*
X63541752Y-48650000D03*
X62538659Y-48650000D03*
X61535567Y-48650000D03*
X60532474Y-48650000D03*
X59529381Y-48650000D03*
X58526288Y-48650000D03*
X57523195Y-48650000D03*
X50501546Y-48650000D03*
X49498453Y-48650000D03*
X48495360Y-48650000D03*
X47492268Y-48650000D03*
X46489175Y-48650000D03*
X45486082Y-48650000D03*
X44482989Y-48650000D03*
X43479896Y-48650000D03*
X42476804Y-48650000D03*
X41473711Y-48650000D03*
X40470618Y-48650000D03*
X39467525Y-48650000D03*
X38464432Y-48650000D03*
X37461340Y-48650000D03*
X36458247Y-48650000D03*
X35455154Y-48650000D03*
X34452061Y-48650000D03*
X33448969Y-48650000D03*
X32445876Y-48650000D03*
X31442783Y-48650000D03*
X30439690Y-48650000D03*
X29436597Y-48650000D03*
X28433505Y-48650000D03*
X27430412Y-48650000D03*
X26427319Y-48650000D03*
X25424226Y-48650000D03*
X24421134Y-48650000D03*
X23418041Y-48650000D03*
X22414948Y-48650000D03*
X21411855Y-48650000D03*
X20408762Y-48650000D03*
X19405670Y-48650000D03*
X18402577Y-48650000D03*
X17399484Y-48650000D03*
X16396391Y-48650000D03*
X15393298Y-48650000D03*
X14390206Y-48650000D03*
X13387113Y-48650000D03*
X12384020Y-48650000D03*
X11380927Y-48650000D03*
X10377835Y-48650000D03*
X9374742Y-48650000D03*
X8371649Y-48650000D03*
X7368556Y-48650000D03*
X6365463Y-48650000D03*
X5362371Y-48650000D03*
X4359278Y-48650000D03*
X3356185Y-48650000D03*
X2353092Y-48650000D03*
X1350000Y-47616666D03*
X1350000Y-46583333D03*
X1350000Y-45550000D03*
X1350000Y-44516666D03*
X1350000Y-43483333D03*
X1350000Y-42450000D03*
X1350000Y-41416666D03*
X1350000Y-40383333D03*
X1350000Y-39350000D03*
X1350000Y-38316666D03*
X1350000Y-37283333D03*
X1350000Y-36250000D03*
X1350000Y-35216666D03*
X1350000Y-34183333D03*
X2409611Y-33150000D03*
X3469223Y-33150000D03*
X4528835Y-33150000D03*
X5588447Y-33150000D03*
X6648059Y-33150000D03*
X7707670Y-33150000D03*
X8767282Y-33150000D03*
X9826894Y-33150000D03*
X10886506Y-33150000D03*
X12921081Y-33457468D03*
X13896045Y-33764936D03*
X14871008Y-34072404D03*
X15845972Y-34379873D03*
X16820935Y-34687341D03*
X17795899Y-34994809D03*
X18770862Y-35302278D03*
X19745826Y-35609746D03*
X20720789Y-35917214D03*
X21695753Y-36224682D03*
X22670717Y-36532151D03*
X23645680Y-36839619D03*
X24620644Y-37147087D03*
X25595607Y-37454556D03*
X26570571Y-37762024D03*
X27545534Y-38069492D03*
X28520498Y-38376960D03*
X29495461Y-38684429D03*
X30470425Y-38991897D03*
X31445389Y-39299365D03*
X32420352Y-39606834D03*
X33395316Y-39914302D03*
X34370279Y-40221770D03*
X35345243Y-40529238D03*
X36320206Y-40836707D03*
X37295170Y-41144175D03*
X38270133Y-41451643D03*
X39245097Y-41759112D03*
X40220061Y-42066580D03*
X41195024Y-42374048D03*
X42169988Y-42681516D03*
X43144951Y-42988985D03*
X44119915Y-43296453D03*
X45094878Y-43603921D03*
X46069842Y-43911390D03*
X47044805Y-44218858D03*
X48019769Y-44526326D03*
X88780490Y-32649456D03*
X90344974Y-31250000D03*
X98650000Y-31250000D03*
X98650000Y-48650000D03*
X1350000Y-48650000D03*
X1350000Y-33150000D03*
X11946118Y-33150000D03*
X19500000Y-19500000D03*
X59211897Y-30175547D03*
X61261897Y-30032690D03*
X63311897Y-29889833D03*
X64336897Y-29818404D03*
X65361897Y-29746976D03*
X66386897Y-29675547D03*
X67411897Y-29604118D03*
X68436897Y-29532690D03*
X69461897Y-29461261D03*
X70486897Y-29389833D03*
X71511897Y-29318404D03*
X72536897Y-29246976D03*
X73561897Y-29175547D03*
X74586897Y-29104118D03*
X75611897Y-29032690D03*
X76636897Y-28961261D03*
X77661897Y-28889833D03*
X78686897Y-28818404D03*
X79711897Y-28746976D03*
X80736897Y-28675547D03*
X81761897Y-28604118D03*
X82786897Y-28532690D03*
X83811897Y-28461261D03*
X84836897Y-28389833D03*
X85861897Y-28318404D03*
X82613103Y-26038738D03*
X81588103Y-26110166D03*
X80563103Y-26181595D03*
X79538103Y-26253024D03*
X78513103Y-26324452D03*
X77488103Y-26395881D03*
X76463103Y-26467309D03*
X75438103Y-26538738D03*
X74413103Y-26610166D03*
X73388103Y-26681595D03*
X72363103Y-26753024D03*
X71338103Y-26824452D03*
X70313103Y-26895881D03*
X69288103Y-26967309D03*
X68263103Y-27038738D03*
X67238103Y-27110166D03*
X66213103Y-27181595D03*
X65188103Y-27253024D03*
X64163103Y-27324452D03*
X58013103Y-27753024D03*
X61475454Y-40329914D03*
X62423730Y-39985086D03*
X63372006Y-39640259D03*
X64320282Y-39295431D03*
X65268558Y-38950604D03*
X66216834Y-38605776D03*
X67165110Y-38260948D03*
X68113385Y-37916121D03*
X69061661Y-37571293D03*
X70009937Y-37226466D03*
X70958213Y-36881638D03*
X71906489Y-36536810D03*
X72854765Y-36191983D03*
X73803041Y-35847155D03*
X74751316Y-35502328D03*
X75699592Y-35157500D03*
X76647868Y-34812673D03*
X77596144Y-34467845D03*
X78544420Y-34123017D03*
X79492696Y-33778190D03*
X80440972Y-33433362D03*
X81389247Y-33088535D03*
X82337523Y-32743707D03*
X83285799Y-32398879D03*
X84234075Y-32054052D03*
X85182351Y-31709224D03*
X86130627Y-31364397D03*
X87078903Y-31019569D03*
X60527179Y-40674742D03*
X86224545Y-28670085D03*
X85276269Y-29014913D03*
X84327993Y-29359740D03*
X83379717Y-29704568D03*
X82431441Y-30049395D03*
X81483165Y-30394223D03*
X80534889Y-30739051D03*
X79586614Y-31083878D03*
X78638338Y-31428706D03*
X77690062Y-31773533D03*
X76741786Y-32118361D03*
X75793510Y-32463189D03*
X74845234Y-32808016D03*
X73896958Y-33152844D03*
X72948683Y-33497671D03*
X72000407Y-33842499D03*
X71052131Y-34187326D03*
X70103855Y-34532154D03*
X69155579Y-34876982D03*
X68207303Y-35221809D03*
X67259027Y-35566637D03*
X66310752Y-35911464D03*
X65362476Y-36256292D03*
X64414200Y-36601120D03*
X63465924Y-36945947D03*
X62517648Y-37290775D03*
X61569372Y-37635602D03*
X60621096Y-37980430D03*
X80436003Y-23137119D03*
X79422210Y-22980223D03*
X78408417Y-22823326D03*
X77394624Y-22666430D03*
X76380831Y-22509533D03*
X75367038Y-22352637D03*
X74353244Y-22195740D03*
X73339451Y-22038843D03*
X72325658Y-21881947D03*
X71311865Y-21725050D03*
X70298072Y-21568154D03*
X69284279Y-21411257D03*
X68270486Y-21254361D03*
X67256693Y-21097464D03*
X66242900Y-20940568D03*
X65229107Y-20783671D03*
X64215313Y-20626774D03*
X62187727Y-20312981D03*
X60160141Y-19999188D03*
X60791582Y-22626673D03*
X63832961Y-23097362D03*
X64846755Y-23254259D03*
X65860548Y-23411156D03*
X66874341Y-23568052D03*
X67888134Y-23724949D03*
X68901927Y-23881845D03*
X69915720Y-24038742D03*
X70929513Y-24195638D03*
X71943306Y-24352535D03*
X72957099Y-24509431D03*
X73970892Y-24666328D03*
X74984686Y-24823225D03*
X75998479Y-24980121D03*
X77012272Y-25137018D03*
X78026065Y-25293914D03*
X79039858Y-25450811D03*
X80053651Y-25607707D03*
X81067444Y-25764604D03*
X54708824Y-21685294D03*
X85184414Y-21275036D03*
X84215448Y-21016415D03*
X83246483Y-20757795D03*
X82277517Y-20499174D03*
X81308552Y-20240553D03*
X80339586Y-19981933D03*
X79370621Y-19723312D03*
X78401655Y-19464691D03*
X77432690Y-19206071D03*
X76463724Y-18947450D03*
X75494759Y-18688829D03*
X74525793Y-18430209D03*
X73556828Y-18171588D03*
X72587862Y-17912967D03*
X71618897Y-17654346D03*
X70649931Y-17395726D03*
X69680966Y-17137105D03*
X68712000Y-16878484D03*
X67743035Y-16619864D03*
X66774069Y-16361243D03*
X65805104Y-16102622D03*
X64836138Y-15844002D03*
X63867173Y-15585381D03*
X61929242Y-15068140D03*
X59991311Y-14550898D03*
X60315585Y-17224963D03*
X62253516Y-17742204D03*
X64191447Y-18259446D03*
X65160413Y-18518066D03*
X66129378Y-18776687D03*
X67098344Y-19035308D03*
X68067309Y-19293928D03*
X69036275Y-19552549D03*
X70005240Y-19811170D03*
X70974206Y-20069790D03*
X71943171Y-20328411D03*
X72912137Y-20587032D03*
X73881102Y-20845653D03*
X74850068Y-21104273D03*
X75819033Y-21362894D03*
X76787999Y-21621515D03*
X77756964Y-21880135D03*
X78725930Y-22138756D03*
X79694895Y-22397377D03*
X80663861Y-22655997D03*
X81632826Y-22914618D03*
X83570757Y-23431859D03*
X58377655Y-16707722D03*
X86499907Y-18450901D03*
X85621335Y-17908044D03*
X84742764Y-17365187D03*
X83864192Y-16822330D03*
X82985621Y-16279473D03*
X82107050Y-15736616D03*
X81228478Y-15193758D03*
X80349907Y-14650901D03*
X79471335Y-14108044D03*
X78592764Y-13565187D03*
X77714192Y-13022330D03*
X76835621Y-12479473D03*
X75957050Y-11936616D03*
X75078478Y-11393758D03*
X74199907Y-10850901D03*
X73321335Y-10308044D03*
X72442764Y-9765187D03*
X71564192Y-9222330D03*
X70685621Y-8679473D03*
X69807050Y-8136616D03*
X68928478Y-7593758D03*
X68049907Y-7050901D03*
X67171335Y-6508044D03*
X66292764Y-5965187D03*
X65414192Y-5422330D03*
X64535621Y-4879473D03*
X63657050Y-4336616D03*
X63221521Y-7006241D03*
X64100092Y-7549098D03*
X64978664Y-8091955D03*
X65857235Y-8634812D03*
X66735807Y-9177669D03*
X67614378Y-9720526D03*
X68492950Y-10263384D03*
X69371521Y-10806241D03*
X70250092Y-11349098D03*
X71128664Y-11891955D03*
X72007235Y-12434812D03*
X72885807Y-12977669D03*
X73764378Y-13520526D03*
X74642950Y-14063384D03*
X75521521Y-14606241D03*
X76400092Y-15149098D03*
X77278664Y-15691955D03*
X78157235Y-16234812D03*
X79035807Y-16777669D03*
X79914378Y-17320526D03*
X80792950Y-17863384D03*
X81671521Y-18406241D03*
X82550092Y-18949098D03*
X83428664Y-19491955D03*
X84307235Y-20034812D03*
X85185807Y-20577669D03*
X86064378Y-21120526D03*
X56600000Y-47300000D03*
X54600000Y-47800000D03*
X53800000Y-46800000D03*
X55400000Y-46800000D03*
X54200000Y-47300000D03*
X51800000Y-46300000D03*
X52200000Y-45800000D03*
X53000000Y-46800000D03*
X53400000Y-47300000D03*
X52600000Y-47300000D03*
X56200000Y-46800000D03*
X52200000Y-47800000D03*
X56200000Y-47800000D03*
X52200000Y-46800000D03*
X55000000Y-46300000D03*
X51800000Y-47300000D03*
X55000000Y-47300000D03*
X53800000Y-45800000D03*
X53000000Y-47800000D03*
X53400000Y-46300000D03*
X53400000Y-45300000D03*
X53800000Y-47800000D03*
X53000000Y-45800000D03*
X55400000Y-45800000D03*
X54200000Y-46300000D03*
X55800000Y-46300000D03*
X54600000Y-46800000D03*
X52600000Y-45300000D03*
X55800000Y-47300000D03*
X55400000Y-47800000D03*
X52600000Y-46300000D03*
X54600000Y-45800000D03*
X54600000Y-42500000D03*
X54600000Y-43700000D03*
X54100000Y-43400000D03*
X54100000Y-42800000D03*
X54100000Y-42200000D03*
X53500000Y-42200000D03*
X53500000Y-42800000D03*
X53500000Y-43400000D03*
X54100000Y-44000000D03*
X53500000Y-44000000D03*
X51000000Y-31600000D03*
X51600000Y-31600000D03*
X52100000Y-31900000D03*
X52100000Y-33100000D03*
X51600000Y-32200000D03*
X51000000Y-32200000D03*
X51600000Y-32800000D03*
X51000000Y-32800000D03*
X51600000Y-33400000D03*
X51000000Y-33400000D03*
X52500000Y-18200000D03*
X51900000Y-18200000D03*
X53100000Y-18500000D03*
X53100000Y-19700000D03*
X52500000Y-18800000D03*
X51900000Y-18800000D03*
X52500000Y-19400000D03*
X51900000Y-19400000D03*
X52500000Y-20000000D03*
X51900000Y-20000000D03*
X57500000Y-10200000D03*
X57500000Y-9600000D03*
X57500000Y-8400000D03*
X57000000Y-8700000D03*
X57000000Y-8100000D03*
X56400000Y-8100000D03*
X56400000Y-8700000D03*
X56400000Y-9300000D03*
X57000000Y-9900000D03*
X56400000Y-9900000D03*
X19600000Y-21100000D03*
X56100000Y-7500000D03*
X56700000Y-7500000D03*
X57300000Y-7500000D03*
X57500000Y-9000000D03*
X57000000Y-9300000D03*
X55600000Y-7000000D03*
X55100000Y-6500000D03*
X54600000Y-6000000D03*
X54100000Y-5500000D03*
X53600000Y-5000000D03*
X55200000Y-11000000D03*
X56000000Y-11000000D03*
X55600000Y-11500000D03*
X56400000Y-11500000D03*
X57200000Y-11500000D03*
X57600000Y-12000000D03*
X56800000Y-12000000D03*
X56000000Y-12000000D03*
X55200000Y-12000000D03*
X58800000Y-11500000D03*
X58400000Y-12000000D03*
X58000000Y-12500000D03*
X57200000Y-12500000D03*
X56400000Y-12500000D03*
X55600000Y-12500000D03*
X54800000Y-11500000D03*
X54800000Y-12500000D03*
X53100000Y-19100000D03*
X51600000Y-17500000D03*
X52300000Y-17500000D03*
X53100000Y-17900000D03*
X51100000Y-17000000D03*
X50600000Y-16500000D03*
X50100000Y-16000000D03*
X49600000Y-15500000D03*
X49100000Y-15000000D03*
X50400000Y-15400000D03*
X50900000Y-15900000D03*
X49900000Y-14900000D03*
X51400000Y-16400000D03*
X50700000Y-14800000D03*
X51200000Y-15300000D03*
X54400000Y-4900000D03*
X54900000Y-5400000D03*
X55400000Y-5900000D03*
X55900000Y-6400000D03*
X55200000Y-4800000D03*
X55700000Y-5300000D03*
X52100000Y-32500000D03*
X52100000Y-31300000D03*
X54600000Y-43100000D03*
X54600000Y-41900000D03*
X51900000Y-21200000D03*
X52700000Y-21200000D03*
X52300000Y-21700000D03*
X53100000Y-21700000D03*
X53500000Y-21200000D03*
X54300000Y-21200000D03*
X53900000Y-21700000D03*
X51500000Y-21700000D03*
X51100000Y-22200000D03*
X51900000Y-22200000D03*
X52700000Y-22200000D03*
X53500000Y-22200000D03*
X54300000Y-22200000D03*
X53900000Y-22700000D03*
X53100000Y-22700000D03*
X52300000Y-22700000D03*
X51500000Y-22700000D03*
X50700000Y-22700000D03*
X51100000Y-23200000D03*
X51900000Y-23200000D03*
X52700000Y-23200000D03*
X53500000Y-23200000D03*
X50300000Y-23200000D03*
X54400000Y-12000000D03*
X54000000Y-12500000D03*
X53600000Y-13000000D03*
X54400000Y-13000000D03*
X55200000Y-13000000D03*
X56000000Y-13000000D03*
X56800000Y-13000000D03*
X57600000Y-13000000D03*
X53000000Y-35200000D03*
X52200000Y-35200000D03*
X51400000Y-35200000D03*
X50600000Y-35200000D03*
X49800000Y-35200000D03*
X50200000Y-34700000D03*
X51000000Y-34700000D03*
X52600000Y-35700000D03*
X51800000Y-35700000D03*
X51000000Y-35700000D03*
X50200000Y-35700000D03*
X53400000Y-35700000D03*
X53000000Y-36200000D03*
X52200000Y-36200000D03*
X51400000Y-36200000D03*
X50600000Y-36200000D03*
X49800000Y-36200000D03*
X49400000Y-35700000D03*
X49400000Y-36700000D03*
X50200000Y-36700000D03*
X51000000Y-36700000D03*
X51800000Y-36700000D03*
X52600000Y-36700000D03*
X53400000Y-36700000D03*
X53800000Y-36200000D03*
X54200000Y-36700000D03*
X53800000Y-37200000D03*
X53000000Y-37200000D03*
X52200000Y-37200000D03*
X51400000Y-37200000D03*
X50600000Y-37200000D03*
X49800000Y-37200000D03*
X17100000Y-29100000D03*
X17600000Y-29600000D03*
X18100000Y-30100000D03*
X18600000Y-30600000D03*
X19100000Y-31100000D03*
X19600000Y-31600000D03*
X19100000Y-30100000D03*
X19600000Y-30600000D03*
X20100000Y-31100000D03*
X18100000Y-29100000D03*
X18600000Y-29600000D03*
X20100000Y-30100000D03*
X20100000Y-32100000D03*
X18100000Y-28300000D03*
X18100000Y-27500000D03*
X82463589Y-23450912D03*
X60063103Y-27610166D03*
X62113103Y-27467309D03*
X58763996Y-22312880D03*
X19100000Y-20000000D03*
X19900000Y-20000000D03*
X20300000Y-19500000D03*
X21700000Y-35500000D03*
X22700000Y-35800000D03*
X24900000Y-14100000D03*
X24100000Y-14400000D03*
X23200000Y-14700000D03*
X22500000Y-14200000D03*
X21700000Y-14500000D03*
X21800000Y-15200000D03*
X53400000Y-37700000D03*
X52600000Y-37700000D03*
X51800000Y-37700000D03*
X51000000Y-37700000D03*
X50200000Y-37700000D03*
X53800000Y-41700000D03*
X53100000Y-41600000D03*
X53100000Y-23700000D03*
X52300000Y-23700000D03*
X51500000Y-23700000D03*
X50700000Y-23700000D03*
X53900000Y-23700000D03*
X53500000Y-24200000D03*
X52700000Y-24200000D03*
X51900000Y-24200000D03*
X51100000Y-24200000D03*
X50300000Y-24200000D03*
X50700000Y-24700000D03*
X51500000Y-24700000D03*
X52300000Y-24700000D03*
X53100000Y-24700000D03*
X53900000Y-24700000D03*
X49900000Y-24700000D03*
X52600000Y-41100000D03*
X52100000Y-40600000D03*
X51600000Y-40100000D03*
X51100000Y-39600000D03*
X51900000Y-39500000D03*
X52400000Y-40000000D03*
X52900000Y-40500000D03*
X52700000Y-39400000D03*
X50600000Y-39100000D03*
X51400000Y-39000000D03*
X52200000Y-38900000D03*
X53000000Y-38200000D03*
X52200000Y-38200000D03*
X51400000Y-38200000D03*
X50600000Y-38200000D03*
X50700000Y-31100000D03*
X50200000Y-30600000D03*
X49600000Y-30000000D03*
X49000000Y-29400000D03*
X48400000Y-28800000D03*
X49200000Y-28700000D03*
X49800000Y-29300000D03*
X50400000Y-29900000D03*
X50000000Y-28600000D03*
X52800000Y-13000000D03*
X53200000Y-12500000D03*
X53600000Y-12000000D03*
X54000000Y-11500000D03*
X53100000Y-4400000D03*
X53900000Y-4300000D03*
X54800000Y-4200000D03*
X55600000Y-4100000D03*
X53500000Y-25200000D03*
X52700000Y-25200000D03*
X53100000Y-25800000D03*
X52300000Y-25800000D03*
X51500000Y-25800000D03*
X51900000Y-25200000D03*
X51100000Y-25200000D03*
X50300000Y-25200000D03*
X50700000Y-25800000D03*
X49900000Y-25800000D03*
X52700000Y-26400000D03*
X51900000Y-26400000D03*
X51100000Y-26400000D03*
X50300000Y-26400000D03*
X52300000Y-27000000D03*
X51500000Y-27000000D03*
X50700000Y-27000000D03*
X49900000Y-27000000D03*
X49500000Y-26400000D03*
X49500000Y-25300000D03*
X50300000Y-27600000D03*
X49500000Y-27600000D03*
X49100000Y-27000000D03*
X48600000Y-27600000D03*
X49100000Y-25800000D03*
X48600000Y-26400000D03*
X48100000Y-27000000D03*
X47700000Y-27600000D03*
X49000000Y-28100000D03*
X2624576Y-2658403D03*
X2583322Y-6210299D03*
X2447040Y-9652738D03*
X2663016Y-13230000D03*
X2490857Y-34291349D03*
X2522915Y-37805930D03*
X2433967Y-41295212D03*
X2625385Y-44875323D03*
X3097948Y-47691733D03*
X4747114Y-4238817D03*
X4525659Y-7659275D03*
X4632648Y-11286984D03*
X4717864Y-35660715D03*
X4708155Y-39090470D03*
X4750324Y-42787833D03*
X5438141Y-13817270D03*
X5450221Y-45343767D03*
X6653204Y-2741501D03*
X6813611Y-9721175D03*
X6761053Y-34117199D03*
X6659303Y-37731517D03*
X6640853Y-47459515D03*
X7505339Y-12655521D03*
X8062176Y-4849491D03*
X7991151Y-39745449D03*
X8236772Y-44643792D03*
X8758009Y-35555756D03*
X9391012Y-8535617D03*
X9588670Y-13914840D03*
X9495617Y-46791502D03*
X10136108Y-2771106D03*
X10069518Y-11076254D03*
X10032495Y-37902401D03*
X10339472Y-41356749D03*
X10870370Y-5697042D03*
X10928318Y-34199958D03*
X11065765Y-43989293D03*
X12201807Y-7615549D03*
X12411077Y-12670127D03*
X12249241Y-36268970D03*
X12130408Y-40044224D03*
X12295737Y-46239535D03*
X12988187Y-3545440D03*
X12928657Y-42687997D03*
X13582094Y-9740932D03*
X14398675Y-5493911D03*
X14547597Y-14005195D03*
X14304993Y-37774808D03*
X14579306Y-44860120D03*
X15100252Y-40598110D03*
X15202136Y-47589923D03*
X15843082Y-2604696D03*
X15939884Y-7630715D03*
X15714714Y-11327666D03*
X15727786Y-35830991D03*
X16662007Y-42751710D03*
X17095823Y-4923272D03*
X17341669Y-13202601D03*
X17055769Y-38526460D03*
X17119765Y-45577210D03*
X17884960Y-9224099D03*
X18677735Y-36521366D03*
X18588842Y-40663031D03*
X18596366Y-47616496D03*
X19232997Y-2895588D03*
X19219104Y-6241780D03*
X19183507Y-11306288D03*
X19162415Y-43251426D03*
X19857466Y-14004666D03*
X20654889Y-8220948D03*
X20560223Y-37868854D03*
X20632526Y-45424015D03*
X21430880Y-4008531D03*
X21277878Y-41392196D03*
X22021400Y-10380644D03*
X22079566Y-47558885D03*
X22784112Y-6151499D03*
X22844543Y-39110576D03*
X22779953Y-43246925D03*
X23578552Y-2800509D03*
X23592782Y-12541650D03*
X24271854Y-8416029D03*
X24373967Y-45417457D03*
X24896552Y-4845629D03*
X24967873Y-40553798D03*
X25636060Y-10595345D03*
X25512405Y-47437573D03*
X26175645Y-6876059D03*
X26233725Y-42770292D03*
X27009023Y-2748058D03*
X26861452Y-39179409D03*
X27646631Y-9042692D03*
X27714210Y-44694778D03*
X28510507Y-4740964D03*
X28530481Y-41151944D03*
X28962134Y-25202370D03*
X29177586Y-46711787D03*
X29886346Y-6915366D03*
X29710339Y-10496423D03*
X29912360Y-43309462D03*
X30410937Y-2757813D03*
X31081843Y-40405588D03*
X31291018Y-45550408D03*
X32061308Y-4706973D03*
X32048358Y-8539284D03*
X32065878Y-24447839D03*
X32553239Y-42552444D03*
X32547794Y-47476322D03*
X33364404Y-18142042D03*
X33325733Y-32150849D03*
X34055554Y-2606444D03*
X33879168Y-6181468D03*
X34084826Y-25761727D03*
X34020157Y-44922277D03*
X35261052Y-8396209D03*
X35239672Y-23672471D03*
X35525382Y-41888741D03*
X35237628Y-46901234D03*
X36033387Y-4111013D03*
X36239656Y-32797367D03*
X36778328Y-16914696D03*
X36936372Y-44012927D03*
X37340559Y-6159708D03*
X37635879Y-25162968D03*
X38368906Y-2694362D03*
X38197297Y-46107640D03*
X39028390Y-23020684D03*
X38858214Y-33742243D03*
X39467382Y-4977484D03*
X39681304Y-16174940D03*
X39543905Y-26608915D03*
X39465436Y-43315970D03*
X40356924Y-47454750D03*
X41010577Y-24587280D03*
X41014500Y-34977496D03*
X41652033Y-2718971D03*
X41635348Y-14538204D03*
X41877399Y-44926964D03*
X42383238Y-5657539D03*
X42444855Y-21620962D03*
X43237439Y-25936688D03*
X43027720Y-33590057D03*
X43067163Y-46827247D03*
X44398007Y-3442870D03*
X44490086Y-13904823D03*
X44417585Y-23001497D03*
X44672803Y-35558902D03*
X45173701Y-45623957D03*
X46582986Y-47516063D03*
X47250422Y-2768496D03*
X47164733Y-12475462D03*
X47455200Y-25319873D03*
X48666783Y-46145984D03*
X50866942Y-2864959D03*
X50719089Y-13344441D03*
X50648470Y-47711266D03*
X54162146Y-2696386D03*
X57229305Y-45496771D03*
X58624714Y-47634224D03*
X60736342Y-44078414D03*
X61413092Y-46815624D03*
X61863407Y-42142479D03*
X62688203Y-32907850D03*
X63441950Y-2660790D03*
X63403872Y-35778769D03*
X63308172Y-44747316D03*
X64108486Y-9030549D03*
X64017747Y-12720522D03*
X64205791Y-19631826D03*
X64171128Y-24471403D03*
X64037165Y-47617126D03*
X64696270Y-30858654D03*
X64661433Y-40654977D03*
X65544258Y-4016618D03*
X65497438Y-14651488D03*
X65544409Y-33427775D03*
X65598050Y-43275700D03*
X66284541Y-10585636D03*
X66203489Y-26018713D03*
X66224346Y-46217319D03*
X67532840Y-2848361D03*
X67444215Y-12518918D03*
X67442720Y-31351768D03*
X67512879Y-39809436D03*
X68418192Y-5716633D03*
X68163735Y-15510561D03*
X68186134Y-42839061D03*
X68200909Y-47547743D03*
X68991677Y-25061973D03*
X69151537Y-33621338D03*
X69661199Y-44894979D03*
X70243367Y-3601125D03*
X70315460Y-7146741D03*
X70437693Y-13289887D03*
X70293829Y-30929790D03*
X70525394Y-38610716D03*
X71176784Y-16137123D03*
X71189056Y-41421851D03*
X70954467Y-46762530D03*
X71917812Y-32725600D03*
X72375093Y-4700176D03*
X72474185Y-8304260D03*
X72588815Y-43331710D03*
X73074632Y-14515937D03*
X73316474Y-37676399D03*
X73873841Y-2624110D03*
X73906378Y-30707807D03*
X74025396Y-40733513D03*
X73767963Y-45482651D03*
X74767976Y-6218741D03*
X74531547Y-9816604D03*
X74649553Y-16633887D03*
X75200639Y-42827311D03*
X75212566Y-47691923D03*
X76071503Y-4179808D03*
X75924896Y-36532267D03*
X76860307Y-7791876D03*
X76761309Y-30242394D03*
X76573449Y-39202566D03*
X76674856Y-44836627D03*
X77313828Y-10631979D03*
X77231938Y-17375133D03*
X78108432Y-2750425D03*
X78274798Y-41440744D03*
X78276159Y-46820884D03*
X78653904Y-5502711D03*
X78705589Y-12561470D03*
X78713916Y-35723942D03*
X79456804Y-8476308D03*
X79572592Y-38571138D03*
X79435101Y-43510904D03*
X80870167Y-3625483D03*
X80945237Y-10530977D03*
X80786238Y-40626641D03*
X80859373Y-45416575D03*
X81535688Y-6199127D03*
X81556740Y-13393238D03*
X81657931Y-34145233D03*
X82439835Y-37151135D03*
X82196281Y-42699071D03*
X82329640Y-47427187D03*
X82896059Y-8487473D03*
X83743127Y-2658619D03*
X83876077Y-11170313D03*
X83765301Y-14743550D03*
X83626836Y-39323687D03*
X83844031Y-44740782D03*
X84248797Y-5473904D03*
X84251280Y-33596182D03*
X85212209Y-23735669D03*
X85163425Y-36497406D03*
X85153765Y-41362844D03*
X85046958Y-47004382D03*
X85688200Y-7771562D03*
X85863140Y-12415603D03*
X85634219Y-16209200D03*
X86429288Y-3553356D03*
X86597495Y-38356108D03*
X86422515Y-43367928D03*
X87033095Y-9932483D03*
X87198763Y-32278737D03*
X87829909Y-5528417D03*
X87947483Y-13934477D03*
X87882935Y-34898523D03*
X87850500Y-40553932D03*
X87802076Y-45556152D03*
X89363864Y-2773683D03*
X89438137Y-7654244D03*
X89467082Y-11164342D03*
X89163443Y-16025465D03*
X89439428Y-37049813D03*
X89368465Y-42582188D03*
X89389144Y-47469818D03*
X90140306Y-33422969D03*
X90613847Y-5040734D03*
X90718695Y-13355141D03*
X90705298Y-39344121D03*
X90703125Y-44756016D03*
X91333965Y-9934611D03*
X91287486Y-17313995D03*
X91570161Y-29413871D03*
X91483827Y-35616448D03*
X92188561Y-20964446D03*
X92178630Y-46836890D03*
X92741265Y-2818753D03*
X92759006Y-11756558D03*
X92889030Y-15416500D03*
X92840249Y-32856384D03*
X92714361Y-37703161D03*
X93644356Y-28028812D03*
X94308415Y-4807538D03*
X94269451Y-9192992D03*
X94336815Y-34996799D03*
X94147904Y-40017300D03*
X94311965Y-44210441D03*
X94767892Y-13424882D03*
X94764804Y-16928376D03*
X94840818Y-47601725D03*
X95460622Y-7148136D03*
X95488627Y-36955925D03*
X95444418Y-41984410D03*
X96202742Y-2737039D03*
X96389881Y-10430339D03*
X96142574Y-32714053D03*
X96457868Y-45578715D03*
X96862242Y-14508109D03*
X97143015Y-39271665D03*
X97809091Y-28142814D03*
X98944399Y-22524252D03*
%TO.N,Net-(R5-Pad2)*%
X54900000Y-20450000D03*
X84300000Y-25000000D03*
%TO.N,/VOUT*%
X58300000Y-5200000D03*
X58300000Y-6400000D03*
X58300000Y-7000000D03*
X58700000Y-7600000D03*
X58100000Y-7600000D03*
X58300000Y-5800000D03*
X53800000Y-17600000D03*
X54000000Y-16400000D03*
X54000000Y-15200000D03*
X54000000Y-17000000D03*
X54400000Y-17600000D03*
X54000000Y-15800000D03*
X53100000Y-29900000D03*
X53100000Y-28700000D03*
X52900000Y-31100000D03*
X53100000Y-30500000D03*
X53500000Y-31100000D03*
X53100000Y-29300000D03*
X97500000Y-23000000D03*
X96500000Y-23000000D03*
X95500000Y-23000000D03*
X94500000Y-23000000D03*
X97500000Y-27000000D03*
X96500000Y-27000000D03*
X95500000Y-27000000D03*
X94500000Y-27000000D03*
X93500000Y-27000000D03*
X92500000Y-27000000D03*
X93500000Y-23000000D03*
X92500000Y-23000000D03*
X87750000Y-25000000D03*
X55300000Y-41600000D03*
X91500000Y-23000000D03*
X90500000Y-23000000D03*
X89500000Y-23000000D03*
X88500000Y-23000000D03*
X91500000Y-27000000D03*
X90500000Y-27000000D03*
X89500000Y-27000000D03*
X88500000Y-27000000D03*
X55900000Y-41600000D03*
X55500000Y-41000000D03*
X55500000Y-40400000D03*
X55500000Y-39800000D03*
X55500000Y-39200000D03*
X87600000Y-23000000D03*
X87600000Y-27000000D03*
X86800000Y-23900000D03*
X86800000Y-26100000D03*
X87600000Y-29500000D03*
X86800000Y-27000000D03*
X86800000Y-23000000D03*
X87600000Y-20600000D03*
X63000000Y-5400000D03*
X58700000Y-15450000D03*
X57800000Y-28950000D03*
X60100000Y-39500000D03*
%TO.N,/VIN*%
X23700000Y-24200000D03*
X23700000Y-25800000D03*
X21900000Y-23700000D03*
X21900000Y-26300000D03*
X52600000Y-5600000D03*
X52600000Y-6400000D03*
X52600000Y-7200000D03*
X52600000Y-8000000D03*
X52600000Y-8800000D03*
X48100000Y-15600000D03*
X48100000Y-16400000D03*
X48100000Y-17200000D03*
X48100000Y-18000000D03*
X48100000Y-18800000D03*
X47200000Y-29100000D03*
X47200000Y-29900000D03*
X47200000Y-30700000D03*
X47200000Y-31500000D03*
X47200000Y-32300000D03*
X49700000Y-39700000D03*
X49700000Y-40500000D03*
X49700000Y-41300000D03*
X49700000Y-42100000D03*
X49700000Y-42900000D03*
X53000000Y-34400000D03*
X49100000Y-32700000D03*
X58300000Y-10900000D03*
X55400006Y-45000000D03*
X54400000Y-9100000D03*
X51500000Y-43200000D03*
X23300000Y-23700000D03*
X23300000Y-26300000D03*
X22600000Y-26300000D03*
X22600000Y-23700000D03*
%TO.N,Net-(C11-Pad1)*%
X56500000Y-43800000D03*
X54250000Y-33250000D03*
X59550000Y-9700000D03*
X54900000Y-19750000D03*
X49400000Y-23600000D03*
%TO.N,Net-(J1-Pad2)*%
X1400000Y-31000000D03*
X2100000Y-31000000D03*
X2800000Y-31000000D03*
X3500000Y-31000000D03*
X4200000Y-31000000D03*
X4900000Y-31000000D03*
X5600000Y-31000000D03*
X6300000Y-31000000D03*
X1400000Y-19000000D03*
X2100000Y-19000000D03*
X2800000Y-19000000D03*
X3500000Y-19000000D03*
X4200000Y-19000000D03*
X4900000Y-19000000D03*
X5600000Y-19000000D03*
X6300000Y-19000000D03*
%TO.N,/ILim*%
X49400000Y-44300000D03*
X46900000Y-33800000D03*
X47812500Y-23600000D03*
X47812500Y-21912500D03*
X46187500Y-21900000D03*
X52300000Y-10200000D03*
%TD*%
D11*
%TO.N,Net-(R5-Pad2)*%
X84300000Y-25000000D02*
X54900000Y-20450000D01*
D12*
%TO.N,/VOUT*%
X87600000Y-29500000D02*
X87600000Y-29500000D01*
D13*
X59400000Y-5400000D02*
X62900000Y-5400000D01*
D12*
X59400000Y-5400000D02*
X59340770Y-5401453D01*
X59340770Y-5401453D02*
X59281682Y-5405812D01*
X59281682Y-5405812D02*
X59222880Y-5413064D01*
X59222880Y-5413064D02*
X59164504Y-5423193D01*
D13*
X54850000Y-15450000D02*
X58700000Y-15450000D01*
D12*
X54850000Y-15450000D02*
X54790770Y-15451453D01*
X54790770Y-15451453D02*
X54731682Y-15455812D01*
X54731682Y-15455812D02*
X54672880Y-15463064D01*
X53872880Y-28963064D02*
X53931682Y-28955812D01*
X53931682Y-28955812D02*
X53990770Y-28951453D01*
X53990770Y-28951453D02*
X54050000Y-28950000D01*
D13*
X54050000Y-28950000D02*
X57800000Y-28950000D01*
D12*
X56264504Y-39523193D02*
X56322880Y-39513064D01*
X56322880Y-39513064D02*
X56381682Y-39505812D01*
X56381682Y-39505812D02*
X56440770Y-39501453D01*
X56440770Y-39501453D02*
X56500000Y-39500000D01*
D13*
X56500000Y-39500000D02*
X60000000Y-39500000D01*
D12*
X87600000Y-20600000D02*
X87600000Y-20600000D01*
X86800000Y-23000000D02*
X86800000Y-23000000D01*
X86800000Y-27000000D02*
X86800000Y-27000000D01*
X87600000Y-29500000D02*
X60100000Y-39500000D01*
X86800000Y-27000000D02*
X58100000Y-29000000D01*
X86800000Y-23000000D02*
X58700000Y-15500000D01*
X87600000Y-20600000D02*
X63000000Y-5400000D01*
X63000000Y-5400000D02*
X63000000Y-5400000D01*
D13*
X58700000Y-15450000D02*
X58700000Y-15450000D01*
X57800000Y-28950000D02*
X57800000Y-28950000D01*
D12*
X60100000Y-39500000D02*
X60100000Y-39500000D01*
D14*
%TO.N,/VIN*%
X49385786Y-32985786D02*
X49100000Y-32700000D01*
X49385786Y-32985786D02*
X49557426Y-33149200D01*
X49557426Y-33149200D02*
X49736878Y-33303996D01*
X49736878Y-33303996D02*
X49923709Y-33449800D01*
X49923709Y-33449800D02*
X50117469Y-33586262D01*
X50117469Y-33586262D02*
X50317692Y-33713051D01*
X50317692Y-33713051D02*
X50523895Y-33829864D01*
X50523895Y-33829864D02*
X50735581Y-33936418D01*
X50735581Y-33936418D02*
X50952241Y-34032456D01*
X50952241Y-34032456D02*
X51173351Y-34117748D01*
X51173351Y-34117748D02*
X51398381Y-34192088D01*
X51398381Y-34192088D02*
X51626787Y-34255296D01*
X51626787Y-34255296D02*
X51858020Y-34307221D01*
X51858020Y-34307221D02*
X52091522Y-34347738D01*
X52091522Y-34347738D02*
X52326731Y-34376748D01*
X52326731Y-34376748D02*
X52563080Y-34394182D01*
X52563080Y-34394182D02*
X52800000Y-34400000D01*
X52800000Y-34400000D02*
X53000000Y-34400000D01*
X58200000Y-10800000D02*
X58300000Y-10900000D01*
X55300000Y-44900000D02*
X55400000Y-45000000D01*
X55400000Y-45000000D02*
X55400006Y-45000000D01*
X55400000Y-45000000D02*
X55400006Y-45000000D01*
X58200000Y-10900000D02*
X58300000Y-10900000D01*
X58200000Y-10900000D02*
X57963080Y-10894183D01*
X57963080Y-10894183D02*
X57726731Y-10876749D01*
X57726731Y-10876749D02*
X57491522Y-10847739D01*
X57491522Y-10847739D02*
X57258020Y-10807223D01*
X57258020Y-10807223D02*
X57026787Y-10755298D01*
X57026787Y-10755298D02*
X56798381Y-10692089D01*
X56798381Y-10692089D02*
X56573351Y-10617749D01*
X56573351Y-10617749D02*
X56352240Y-10532457D01*
X56352240Y-10532457D02*
X56135581Y-10436419D01*
X56135581Y-10436419D02*
X55923894Y-10329865D01*
X55923894Y-10329865D02*
X55717691Y-10213052D01*
X55717691Y-10213052D02*
X55517469Y-10086263D01*
X55517469Y-10086263D02*
X55323708Y-9949801D01*
X55323708Y-9949801D02*
X55136877Y-9803997D01*
X55136877Y-9803997D02*
X54957425Y-9649201D01*
X54957425Y-9649201D02*
X54785786Y-9485786D01*
X54785786Y-9485786D02*
X54400000Y-9100000D01*
X55300000Y-45000000D02*
X55400006Y-45000000D01*
X55300000Y-45000000D02*
X55063080Y-44994183D01*
X55063080Y-44994183D02*
X54826731Y-44976749D01*
X54826731Y-44976749D02*
X54591522Y-44947739D01*
X54591522Y-44947739D02*
X54358020Y-44907223D01*
X54358020Y-44907223D02*
X54126787Y-44855298D01*
X54126787Y-44855298D02*
X53898381Y-44792089D01*
X53898381Y-44792089D02*
X53673351Y-44717749D01*
X53673351Y-44717749D02*
X53452240Y-44632457D01*
X53452240Y-44632457D02*
X53235581Y-44536419D01*
X53235581Y-44536419D02*
X53023894Y-44429865D01*
X53023894Y-44429865D02*
X52817691Y-44313052D01*
X52817691Y-44313052D02*
X52617469Y-44186263D01*
X52617469Y-44186263D02*
X52423708Y-44049801D01*
X52423708Y-44049801D02*
X52236877Y-43903997D01*
X52236877Y-43903997D02*
X52057425Y-43749201D01*
X52057425Y-43749201D02*
X51885786Y-43585786D01*
X51885786Y-43585786D02*
X51500000Y-43200000D01*
%TO.N,Net-(C11-Pad1)*%
X54400000Y-19750000D02*
X54900000Y-19750000D01*
X53500000Y-20600000D02*
X54400000Y-19750000D01*
X49400000Y-23600000D02*
X49400000Y-22500000D01*
X51300000Y-20600000D02*
X53500000Y-20600000D01*
X49400000Y-22500000D02*
X51300000Y-20600000D01*
%TD*%
D15*
%TO.N,/VIN*%
X52659195Y-5142471D02*
X52760953Y-5184621D01*
X52848332Y-5251668D01*
X52915379Y-5339047D01*
X52957529Y-5440805D01*
X52973000Y-5558321D01*
X52973000Y-8841679D01*
X52957529Y-8959195D01*
X52915379Y-9060953D01*
X52848332Y-9148332D01*
X52760953Y-9215379D01*
X52659195Y-9257529D01*
X52537732Y-9273520D01*
X52180658Y-9295929D01*
X52164874Y-9297918D01*
X51809158Y-9365603D01*
X51793746Y-9369550D01*
X51449283Y-9481177D01*
X51441792Y-9483867D01*
X29491756Y-18150834D01*
X29479119Y-18156643D01*
X29298240Y-18252109D01*
X29275240Y-18267682D01*
X29119442Y-18400187D01*
X29100378Y-18420388D01*
X28977111Y-18583595D01*
X28962895Y-18607458D01*
X28878058Y-18793559D01*
X28869370Y-18819940D01*
X28827019Y-19020034D01*
X28824273Y-19047675D01*
X28826436Y-19252190D01*
X28829765Y-19279765D01*
X28876336Y-19478918D01*
X28885505Y-19504954D01*
X28974597Y-19690573D01*
X28989068Y-19713876D01*
X29115939Y-19876035D01*
X29135076Y-19895688D01*
X29293808Y-20026823D01*
X29316719Y-20041908D01*
X29499906Y-20135899D01*
X29525520Y-20145712D01*
X29724617Y-20198177D01*
X29751743Y-20202261D01*
X29957460Y-20210750D01*
X29984828Y-20208915D01*
X30187571Y-20173034D01*
X30200948Y-20169912D01*
X47120323Y-15242841D01*
X47522274Y-15156105D01*
X47932420Y-15127000D01*
X48041679Y-15127000D01*
X48159195Y-15142471D01*
X48260953Y-15184621D01*
X48348332Y-15251668D01*
X48415379Y-15339047D01*
X48457529Y-15440805D01*
X48473000Y-15558321D01*
X48473000Y-18941679D01*
X48457529Y-19059195D01*
X48415379Y-19160953D01*
X48348332Y-19248332D01*
X48260953Y-19315379D01*
X48159195Y-19357529D01*
X48041679Y-19373000D01*
X47832452Y-19373000D01*
X47825447Y-19373193D01*
X47495018Y-19391446D01*
X47481094Y-19392989D01*
X47154685Y-19447525D01*
X47147808Y-19448870D01*
X27850357Y-23779030D01*
X27838555Y-23782283D01*
X27632845Y-23849807D01*
X27610451Y-23859636D01*
X27421497Y-23965337D01*
X27401402Y-23979277D01*
X27236212Y-24119236D01*
X27219162Y-24136768D01*
X27083860Y-24305794D01*
X27070486Y-24326269D01*
X26970091Y-24518095D01*
X26960890Y-24540754D01*
X26899124Y-24748266D01*
X26894436Y-24772269D01*
X26873590Y-24987772D01*
X26873670Y-25013030D01*
X26895297Y-25222711D01*
X26900616Y-25248223D01*
X26964587Y-25449075D01*
X26975002Y-25472963D01*
X27078623Y-25656530D01*
X27093694Y-25677790D01*
X27232601Y-25836341D01*
X27251695Y-25854077D01*
X27420041Y-25980937D01*
X27442353Y-25994403D01*
X27633049Y-26084230D01*
X27657638Y-26092857D01*
X27862654Y-26141870D01*
X27875483Y-26144248D01*
X46386908Y-28599845D01*
X46395240Y-28600672D01*
X46789743Y-28626724D01*
X46798112Y-28627000D01*
X47141679Y-28627000D01*
X47259195Y-28642471D01*
X47360953Y-28684621D01*
X47448332Y-28751668D01*
X47515379Y-28839047D01*
X47557529Y-28940805D01*
X47573000Y-29058321D01*
X47573000Y-32441679D01*
X47557529Y-32559195D01*
X47515379Y-32660953D01*
X47448332Y-32748332D01*
X47360953Y-32815379D01*
X47259195Y-32857529D01*
X47141679Y-32873000D01*
X46838974Y-32873000D01*
X46383617Y-32837477D01*
X30200700Y-30297136D01*
X30188033Y-30295795D01*
X30001184Y-30285439D01*
X29975767Y-30286582D01*
X29790602Y-30313679D01*
X29765921Y-30319867D01*
X29589875Y-30383331D01*
X29566925Y-30394314D01*
X29407061Y-30491596D01*
X29386759Y-30506933D01*
X29249496Y-30634129D01*
X29232660Y-30653206D01*
X29123506Y-30805211D01*
X29110810Y-30827260D01*
X29034146Y-30997972D01*
X29025829Y-31023345D01*
X28988315Y-31198103D01*
X28985491Y-31225920D01*
X28987126Y-31404652D01*
X28990458Y-31432411D01*
X29031161Y-31606454D01*
X29040486Y-31632812D01*
X29118286Y-31793732D01*
X29133152Y-31817411D01*
X29244277Y-31957407D01*
X29263965Y-31977259D01*
X29403030Y-32089547D01*
X29426584Y-32104611D01*
X29586850Y-32183749D01*
X29599726Y-32189246D01*
X48460450Y-39039161D01*
X48467450Y-39041476D01*
X48801057Y-39141141D01*
X48815401Y-39144533D01*
X49158308Y-39204874D01*
X49172948Y-39206582D01*
X49520537Y-39226786D01*
X49527907Y-39227000D01*
X49591679Y-39227000D01*
X49722136Y-39244175D01*
X49835951Y-39291319D01*
X49933686Y-39366314D01*
X50008681Y-39464049D01*
X50055825Y-39577864D01*
X50073000Y-39708321D01*
X50073000Y-42891679D01*
X50055825Y-43022136D01*
X50008681Y-43135951D01*
X49933686Y-43233686D01*
X49835951Y-43308681D01*
X49722136Y-43355825D01*
X49591679Y-43373000D01*
X49496859Y-43373000D01*
X49181813Y-43355865D01*
X48873923Y-43305227D01*
X48569984Y-43220559D01*
X21280222Y-33994484D01*
X21080826Y-33909574D01*
X20900872Y-33797825D01*
X20736369Y-33656763D01*
X20672464Y-33592858D01*
X20591796Y-33487729D01*
X20544296Y-33373054D01*
X20505347Y-33077212D01*
X20496767Y-33045188D01*
X20436472Y-32899622D01*
X20419895Y-32870910D01*
X20323979Y-32745910D01*
X20313026Y-32733420D01*
X20240052Y-32660446D01*
X20268305Y-32654826D01*
X20373312Y-32611331D01*
X20467816Y-32548185D01*
X20548185Y-32467816D01*
X20611331Y-32373312D01*
X20654826Y-32268305D01*
X20677000Y-32156830D01*
X20677000Y-32043170D01*
X20654826Y-31931695D01*
X20611331Y-31826688D01*
X20548185Y-31732184D01*
X20467816Y-31651815D01*
X20390270Y-31600000D01*
X20467816Y-31548185D01*
X20548185Y-31467816D01*
X20611331Y-31373312D01*
X20654826Y-31268305D01*
X20677000Y-31156830D01*
X20677000Y-31043170D01*
X20654826Y-30931695D01*
X20611331Y-30826688D01*
X20548185Y-30732184D01*
X20467816Y-30651815D01*
X20390270Y-30600000D01*
X20467816Y-30548185D01*
X20548185Y-30467816D01*
X20611331Y-30373312D01*
X20654826Y-30268305D01*
X20677000Y-30156830D01*
X20677000Y-30043170D01*
X20654826Y-29931695D01*
X20611331Y-29826688D01*
X20548185Y-29732184D01*
X20467816Y-29651815D01*
X20373312Y-29588669D01*
X20268305Y-29545174D01*
X20156830Y-29523000D01*
X20043170Y-29523000D01*
X19931695Y-29545174D01*
X19826688Y-29588669D01*
X19732184Y-29651815D01*
X19651815Y-29732184D01*
X19600000Y-29809730D01*
X19548185Y-29732184D01*
X19467816Y-29651815D01*
X19373312Y-29588669D01*
X19268305Y-29545174D01*
X19173654Y-29526346D01*
X19154826Y-29431695D01*
X19111331Y-29326688D01*
X19048185Y-29232184D01*
X18967816Y-29151815D01*
X18873312Y-29088669D01*
X18768305Y-29045174D01*
X18673654Y-29026346D01*
X18654826Y-28931695D01*
X18611331Y-28826688D01*
X18548185Y-28732184D01*
X18516001Y-28700000D01*
X18548185Y-28667816D01*
X18611331Y-28573312D01*
X18654826Y-28468305D01*
X18677000Y-28356830D01*
X18677000Y-28243170D01*
X18654826Y-28131695D01*
X18611331Y-28026688D01*
X18548185Y-27932184D01*
X18516001Y-27900000D01*
X18548185Y-27867816D01*
X18611331Y-27773312D01*
X18654826Y-27668305D01*
X18677000Y-27556830D01*
X18677000Y-27443170D01*
X18654826Y-27331695D01*
X18611331Y-27226688D01*
X18548185Y-27132184D01*
X18467816Y-27051815D01*
X18373312Y-26988669D01*
X18268305Y-26945174D01*
X18156830Y-26923000D01*
X18043170Y-26923000D01*
X17931695Y-26945174D01*
X17826688Y-26988669D01*
X17732184Y-27051815D01*
X17651815Y-27132184D01*
X17588669Y-27226688D01*
X17545174Y-27331695D01*
X17523000Y-27443170D01*
X17523000Y-27556830D01*
X17545174Y-27668305D01*
X17588669Y-27773312D01*
X17651815Y-27867816D01*
X17683999Y-27900000D01*
X17651815Y-27932184D01*
X17588669Y-28026688D01*
X17545174Y-28131695D01*
X17523000Y-28243170D01*
X17523000Y-28356830D01*
X17545174Y-28468305D01*
X17588669Y-28573312D01*
X17651815Y-28667816D01*
X17683999Y-28700000D01*
X17651815Y-28732184D01*
X17600000Y-28809730D01*
X17548185Y-28732184D01*
X17467816Y-28651815D01*
X17373312Y-28588669D01*
X17268305Y-28545174D01*
X17156830Y-28523000D01*
X17043170Y-28523000D01*
X16931695Y-28545174D01*
X16826688Y-28588669D01*
X16732184Y-28651815D01*
X16651815Y-28732184D01*
X16588669Y-28826688D01*
X16557712Y-28901425D01*
X16466010Y-28764182D01*
X16319732Y-28467559D01*
X16213426Y-28154392D01*
X16148902Y-27830014D01*
X16127000Y-27495844D01*
X16127000Y-27107127D01*
X16142149Y-26972676D01*
X16184469Y-26851733D01*
X16252637Y-26743244D01*
X16343244Y-26652637D01*
X16451733Y-26584469D01*
X16572676Y-26542149D01*
X16712066Y-26526444D01*
X16974330Y-26505803D01*
X16994014Y-26502685D01*
X17251871Y-26440779D01*
X17270824Y-26434621D01*
X17515822Y-26333140D01*
X17533579Y-26324092D01*
X17759685Y-26185533D01*
X17775807Y-26173820D01*
X17977455Y-26001597D01*
X17984778Y-25994828D01*
X18089803Y-25889803D01*
X18095483Y-25883737D01*
X18272162Y-25682274D01*
X18282276Y-25669094D01*
X18431146Y-25446293D01*
X18439452Y-25431907D01*
X18557968Y-25191581D01*
X18564325Y-25176233D01*
X18650458Y-24922493D01*
X18654758Y-24906447D01*
X18707035Y-24643635D01*
X18709203Y-24627164D01*
X18726728Y-24359778D01*
X18727000Y-24351472D01*
X18727000Y-21546201D01*
X18745263Y-21220994D01*
X18799228Y-20903375D01*
X18888409Y-20593823D01*
X18908536Y-20545233D01*
X18931695Y-20554826D01*
X19043170Y-20577000D01*
X19156830Y-20577000D01*
X19268305Y-20554826D01*
X19373312Y-20511331D01*
X19467816Y-20448185D01*
X19500000Y-20416001D01*
X19532184Y-20448185D01*
X19626688Y-20511331D01*
X19654860Y-20523000D01*
X19543170Y-20523000D01*
X19431695Y-20545174D01*
X19326688Y-20588669D01*
X19232184Y-20651815D01*
X19151815Y-20732184D01*
X19088669Y-20826688D01*
X19045174Y-20931695D01*
X19023000Y-21043170D01*
X19023000Y-21156830D01*
X19045174Y-21268305D01*
X19088669Y-21373312D01*
X19151815Y-21467816D01*
X19232184Y-21548185D01*
X19326688Y-21611331D01*
X19431695Y-21654826D01*
X19543170Y-21677000D01*
X19656830Y-21677000D01*
X19768305Y-21654826D01*
X19873312Y-21611331D01*
X19967816Y-21548185D01*
X20048185Y-21467816D01*
X20111331Y-21373312D01*
X20154826Y-21268305D01*
X20177000Y-21156830D01*
X20177000Y-21043170D01*
X20154826Y-20931695D01*
X20111331Y-20826688D01*
X20048185Y-20732184D01*
X19967816Y-20651815D01*
X19873312Y-20588669D01*
X19845140Y-20577000D01*
X19956830Y-20577000D01*
X20068305Y-20554826D01*
X20173312Y-20511331D01*
X20267816Y-20448185D01*
X20348185Y-20367816D01*
X20411331Y-20273312D01*
X20454826Y-20168305D01*
X20477000Y-20056830D01*
X20477000Y-20051224D01*
X20573312Y-20011331D01*
X20667816Y-19948185D01*
X20748185Y-19867816D01*
X20811331Y-19773312D01*
X20854826Y-19668305D01*
X20877000Y-19556830D01*
X20877000Y-19443170D01*
X20854826Y-19331695D01*
X20811331Y-19226688D01*
X20748185Y-19132184D01*
X20667816Y-19051815D01*
X20573312Y-18988669D01*
X20468305Y-18945174D01*
X20356830Y-18923000D01*
X20243170Y-18923000D01*
X20131695Y-18945174D01*
X20046706Y-18980378D01*
X20182154Y-18777665D01*
X20190460Y-18763278D01*
X20330132Y-18480051D01*
X20336489Y-18464703D01*
X20437998Y-18165667D01*
X20442298Y-18149620D01*
X20503906Y-17839894D01*
X20506074Y-17823424D01*
X20526728Y-17508306D01*
X20527000Y-17500000D01*
X20527000Y-16859787D01*
X20541563Y-16711930D01*
X20582872Y-16575753D01*
X20649957Y-16450245D01*
X20741211Y-16339052D01*
X20901187Y-16201225D01*
X21081083Y-16087766D01*
X21244031Y-16016127D01*
X21276825Y-16002544D01*
X21280375Y-16000172D01*
X24194149Y-14969577D01*
X24268305Y-14954826D01*
X24373312Y-14911331D01*
X24389605Y-14900444D01*
X51553514Y-5292631D01*
X51869369Y-5200675D01*
X52190068Y-5145630D01*
X52518512Y-5127000D01*
X52541679Y-5127000D01*
X52659195Y-5142471D01*
%TA.AperFunction,Conductor*%
D16*
G36*
X52659195Y-5142471D02*
G01*
X52760953Y-5184621D01*
X52848332Y-5251668D01*
X52915379Y-5339047D01*
X52957529Y-5440805D01*
X52973000Y-5558321D01*
X52973000Y-8841679D01*
X52957529Y-8959195D01*
X52915379Y-9060953D01*
X52848332Y-9148332D01*
X52760953Y-9215379D01*
X52659195Y-9257529D01*
X52537732Y-9273520D01*
X52180658Y-9295929D01*
X52164874Y-9297918D01*
X51809158Y-9365603D01*
X51793746Y-9369550D01*
X51449283Y-9481177D01*
X51441792Y-9483867D01*
X29491756Y-18150834D01*
X29479119Y-18156643D01*
X29298240Y-18252109D01*
X29275240Y-18267682D01*
X29119442Y-18400187D01*
X29100378Y-18420388D01*
X28977111Y-18583595D01*
X28962895Y-18607458D01*
X28878058Y-18793559D01*
X28869370Y-18819940D01*
X28827019Y-19020034D01*
X28824273Y-19047675D01*
X28826436Y-19252190D01*
X28829765Y-19279765D01*
X28876336Y-19478918D01*
X28885505Y-19504954D01*
X28974597Y-19690573D01*
X28989068Y-19713876D01*
X29115939Y-19876035D01*
X29135076Y-19895688D01*
X29293808Y-20026823D01*
X29316719Y-20041908D01*
X29499906Y-20135899D01*
X29525520Y-20145712D01*
X29724617Y-20198177D01*
X29751743Y-20202261D01*
X29957460Y-20210750D01*
X29984828Y-20208915D01*
X30187571Y-20173034D01*
X30200948Y-20169912D01*
X47120323Y-15242841D01*
X47522274Y-15156105D01*
X47932420Y-15127000D01*
X48041679Y-15127000D01*
X48159195Y-15142471D01*
X48260953Y-15184621D01*
X48348332Y-15251668D01*
X48415379Y-15339047D01*
X48457529Y-15440805D01*
X48473000Y-15558321D01*
X48473000Y-18941679D01*
X48457529Y-19059195D01*
X48415379Y-19160953D01*
X48348332Y-19248332D01*
X48260953Y-19315379D01*
X48159195Y-19357529D01*
X48041679Y-19373000D01*
X47832452Y-19373000D01*
X47825447Y-19373193D01*
X47495018Y-19391446D01*
X47481094Y-19392989D01*
X47154685Y-19447525D01*
X47147808Y-19448870D01*
X27850357Y-23779030D01*
X27838555Y-23782283D01*
X27632845Y-23849807D01*
X27610451Y-23859636D01*
X27421497Y-23965337D01*
X27401402Y-23979277D01*
X27236212Y-24119236D01*
X27219162Y-24136768D01*
X27083860Y-24305794D01*
X27070486Y-24326269D01*
X26970091Y-24518095D01*
X26960890Y-24540754D01*
X26899124Y-24748266D01*
X26894436Y-24772269D01*
X26873590Y-24987772D01*
X26873670Y-25013030D01*
X26895297Y-25222711D01*
X26900616Y-25248223D01*
X26964587Y-25449075D01*
X26975002Y-25472963D01*
X27078623Y-25656530D01*
X27093694Y-25677790D01*
X27232601Y-25836341D01*
X27251695Y-25854077D01*
X27420041Y-25980937D01*
X27442353Y-25994403D01*
X27633049Y-26084230D01*
X27657638Y-26092857D01*
X27862654Y-26141870D01*
X27875483Y-26144248D01*
X46386908Y-28599845D01*
X46395240Y-28600672D01*
X46789743Y-28626724D01*
X46798112Y-28627000D01*
X47141679Y-28627000D01*
X47259195Y-28642471D01*
X47360953Y-28684621D01*
X47448332Y-28751668D01*
X47515379Y-28839047D01*
X47557529Y-28940805D01*
X47573000Y-29058321D01*
X47573000Y-32441679D01*
X47557529Y-32559195D01*
X47515379Y-32660953D01*
X47448332Y-32748332D01*
X47360953Y-32815379D01*
X47259195Y-32857529D01*
X47141679Y-32873000D01*
X46838974Y-32873000D01*
X46383617Y-32837477D01*
X30200700Y-30297136D01*
X30188033Y-30295795D01*
X30001184Y-30285439D01*
X29975767Y-30286582D01*
X29790602Y-30313679D01*
X29765921Y-30319867D01*
X29589875Y-30383331D01*
X29566925Y-30394314D01*
X29407061Y-30491596D01*
X29386759Y-30506933D01*
X29249496Y-30634129D01*
X29232660Y-30653206D01*
X29123506Y-30805211D01*
X29110810Y-30827260D01*
X29034146Y-30997972D01*
X29025829Y-31023345D01*
X28988315Y-31198103D01*
X28985491Y-31225920D01*
X28987126Y-31404652D01*
X28990458Y-31432411D01*
X29031161Y-31606454D01*
X29040486Y-31632812D01*
X29118286Y-31793732D01*
X29133152Y-31817411D01*
X29244277Y-31957407D01*
X29263965Y-31977259D01*
X29403030Y-32089547D01*
X29426584Y-32104611D01*
X29586850Y-32183749D01*
X29599726Y-32189246D01*
X48460450Y-39039161D01*
X48467450Y-39041476D01*
X48801057Y-39141141D01*
X48815401Y-39144533D01*
X49158308Y-39204874D01*
X49172948Y-39206582D01*
X49520537Y-39226786D01*
X49527907Y-39227000D01*
X49591679Y-39227000D01*
X49722136Y-39244175D01*
X49835951Y-39291319D01*
X49933686Y-39366314D01*
X50008681Y-39464049D01*
X50055825Y-39577864D01*
X50073000Y-39708321D01*
X50073000Y-42891679D01*
X50055825Y-43022136D01*
X50008681Y-43135951D01*
X49933686Y-43233686D01*
X49835951Y-43308681D01*
X49722136Y-43355825D01*
X49591679Y-43373000D01*
X49496859Y-43373000D01*
X49181813Y-43355865D01*
X48873923Y-43305227D01*
X48569984Y-43220559D01*
X21280222Y-33994484D01*
X21080826Y-33909574D01*
X20900872Y-33797825D01*
X20736369Y-33656763D01*
X20672464Y-33592858D01*
X20591796Y-33487729D01*
X20544296Y-33373054D01*
X20505347Y-33077212D01*
X20496767Y-33045188D01*
X20436472Y-32899622D01*
X20419895Y-32870910D01*
X20323979Y-32745910D01*
X20313026Y-32733420D01*
X20240052Y-32660446D01*
X20268305Y-32654826D01*
X20373312Y-32611331D01*
X20467816Y-32548185D01*
X20548185Y-32467816D01*
X20611331Y-32373312D01*
X20654826Y-32268305D01*
X20677000Y-32156830D01*
X20677000Y-32043170D01*
X20654826Y-31931695D01*
X20611331Y-31826688D01*
X20548185Y-31732184D01*
X20467816Y-31651815D01*
X20390270Y-31600000D01*
X20467816Y-31548185D01*
X20548185Y-31467816D01*
X20611331Y-31373312D01*
X20654826Y-31268305D01*
X20677000Y-31156830D01*
X20677000Y-31043170D01*
X20654826Y-30931695D01*
X20611331Y-30826688D01*
X20548185Y-30732184D01*
X20467816Y-30651815D01*
X20390270Y-30600000D01*
X20467816Y-30548185D01*
X20548185Y-30467816D01*
X20611331Y-30373312D01*
X20654826Y-30268305D01*
X20677000Y-30156830D01*
X20677000Y-30043170D01*
X20654826Y-29931695D01*
X20611331Y-29826688D01*
X20548185Y-29732184D01*
X20467816Y-29651815D01*
X20373312Y-29588669D01*
X20268305Y-29545174D01*
X20156830Y-29523000D01*
X20043170Y-29523000D01*
X19931695Y-29545174D01*
X19826688Y-29588669D01*
X19732184Y-29651815D01*
X19651815Y-29732184D01*
X19600000Y-29809730D01*
X19548185Y-29732184D01*
X19467816Y-29651815D01*
X19373312Y-29588669D01*
X19268305Y-29545174D01*
X19173654Y-29526346D01*
X19154826Y-29431695D01*
X19111331Y-29326688D01*
X19048185Y-29232184D01*
X18967816Y-29151815D01*
X18873312Y-29088669D01*
X18768305Y-29045174D01*
X18673654Y-29026346D01*
X18654826Y-28931695D01*
X18611331Y-28826688D01*
X18548185Y-28732184D01*
X18516001Y-28700000D01*
X18548185Y-28667816D01*
X18611331Y-28573312D01*
X18654826Y-28468305D01*
X18677000Y-28356830D01*
X18677000Y-28243170D01*
X18654826Y-28131695D01*
X18611331Y-28026688D01*
X18548185Y-27932184D01*
X18516001Y-27900000D01*
X18548185Y-27867816D01*
X18611331Y-27773312D01*
X18654826Y-27668305D01*
X18677000Y-27556830D01*
X18677000Y-27443170D01*
X18654826Y-27331695D01*
X18611331Y-27226688D01*
X18548185Y-27132184D01*
X18467816Y-27051815D01*
X18373312Y-26988669D01*
X18268305Y-26945174D01*
X18156830Y-26923000D01*
X18043170Y-26923000D01*
X17931695Y-26945174D01*
X17826688Y-26988669D01*
X17732184Y-27051815D01*
X17651815Y-27132184D01*
X17588669Y-27226688D01*
X17545174Y-27331695D01*
X17523000Y-27443170D01*
X17523000Y-27556830D01*
X17545174Y-27668305D01*
X17588669Y-27773312D01*
X17651815Y-27867816D01*
X17683999Y-27900000D01*
X17651815Y-27932184D01*
X17588669Y-28026688D01*
X17545174Y-28131695D01*
X17523000Y-28243170D01*
X17523000Y-28356830D01*
X17545174Y-28468305D01*
X17588669Y-28573312D01*
X17651815Y-28667816D01*
X17683999Y-28700000D01*
X17651815Y-28732184D01*
X17600000Y-28809730D01*
X17548185Y-28732184D01*
X17467816Y-28651815D01*
X17373312Y-28588669D01*
X17268305Y-28545174D01*
X17156830Y-28523000D01*
X17043170Y-28523000D01*
X16931695Y-28545174D01*
X16826688Y-28588669D01*
X16732184Y-28651815D01*
X16651815Y-28732184D01*
X16588669Y-28826688D01*
X16557712Y-28901425D01*
X16466010Y-28764182D01*
X16319732Y-28467559D01*
X16213426Y-28154392D01*
X16148902Y-27830014D01*
X16127000Y-27495844D01*
X16127000Y-27107127D01*
X16142149Y-26972676D01*
X16184469Y-26851733D01*
X16252637Y-26743244D01*
X16343244Y-26652637D01*
X16451733Y-26584469D01*
X16572676Y-26542149D01*
X16712066Y-26526444D01*
X16974330Y-26505803D01*
X16994014Y-26502685D01*
X17251871Y-26440779D01*
X17270824Y-26434621D01*
X17515822Y-26333140D01*
X17533579Y-26324092D01*
X17759685Y-26185533D01*
X17775807Y-26173820D01*
X17977455Y-26001597D01*
X17984778Y-25994828D01*
X18089803Y-25889803D01*
X18095483Y-25883737D01*
X18272162Y-25682274D01*
X18282276Y-25669094D01*
X18431146Y-25446293D01*
X18439452Y-25431907D01*
X18557968Y-25191581D01*
X18564325Y-25176233D01*
X18650458Y-24922493D01*
X18654758Y-24906447D01*
X18707035Y-24643635D01*
X18709203Y-24627164D01*
X18726728Y-24359778D01*
X18727000Y-24351472D01*
X18727000Y-21546201D01*
X18745263Y-21220994D01*
X18799228Y-20903375D01*
X18888409Y-20593823D01*
X18908536Y-20545233D01*
X18931695Y-20554826D01*
X19043170Y-20577000D01*
X19156830Y-20577000D01*
X19268305Y-20554826D01*
X19373312Y-20511331D01*
X19467816Y-20448185D01*
X19500000Y-20416001D01*
X19532184Y-20448185D01*
X19626688Y-20511331D01*
X19654860Y-20523000D01*
X19543170Y-20523000D01*
X19431695Y-20545174D01*
X19326688Y-20588669D01*
X19232184Y-20651815D01*
X19151815Y-20732184D01*
X19088669Y-20826688D01*
X19045174Y-20931695D01*
X19023000Y-21043170D01*
X19023000Y-21156830D01*
X19045174Y-21268305D01*
X19088669Y-21373312D01*
X19151815Y-21467816D01*
X19232184Y-21548185D01*
X19326688Y-21611331D01*
X19431695Y-21654826D01*
X19543170Y-21677000D01*
X19656830Y-21677000D01*
X19768305Y-21654826D01*
X19873312Y-21611331D01*
X19967816Y-21548185D01*
X20048185Y-21467816D01*
X20111331Y-21373312D01*
X20154826Y-21268305D01*
X20177000Y-21156830D01*
X20177000Y-21043170D01*
X20154826Y-20931695D01*
X20111331Y-20826688D01*
X20048185Y-20732184D01*
X19967816Y-20651815D01*
X19873312Y-20588669D01*
X19845140Y-20577000D01*
X19956830Y-20577000D01*
X20068305Y-20554826D01*
X20173312Y-20511331D01*
X20267816Y-20448185D01*
X20348185Y-20367816D01*
X20411331Y-20273312D01*
X20454826Y-20168305D01*
X20477000Y-20056830D01*
X20477000Y-20051224D01*
X20573312Y-20011331D01*
X20667816Y-19948185D01*
X20748185Y-19867816D01*
X20811331Y-19773312D01*
X20854826Y-19668305D01*
X20877000Y-19556830D01*
X20877000Y-19443170D01*
X20854826Y-19331695D01*
X20811331Y-19226688D01*
X20748185Y-19132184D01*
X20667816Y-19051815D01*
X20573312Y-18988669D01*
X20468305Y-18945174D01*
X20356830Y-18923000D01*
X20243170Y-18923000D01*
X20131695Y-18945174D01*
X20046706Y-18980378D01*
X20182154Y-18777665D01*
X20190460Y-18763278D01*
X20330132Y-18480051D01*
X20336489Y-18464703D01*
X20437998Y-18165667D01*
X20442298Y-18149620D01*
X20503906Y-17839894D01*
X20506074Y-17823424D01*
X20526728Y-17508306D01*
X20527000Y-17500000D01*
X20527000Y-16859787D01*
X20541563Y-16711930D01*
X20582872Y-16575753D01*
X20649957Y-16450245D01*
X20741211Y-16339052D01*
X20901187Y-16201225D01*
X21081083Y-16087766D01*
X21244031Y-16016127D01*
X21276825Y-16002544D01*
X21280375Y-16000172D01*
X24194149Y-14969577D01*
X24268305Y-14954826D01*
X24373312Y-14911331D01*
X24389605Y-14900444D01*
X51553514Y-5292631D01*
X51869369Y-5200675D01*
X52190068Y-5145630D01*
X52518512Y-5127000D01*
X52541679Y-5127000D01*
X52659195Y-5142471D01*
G37*
%TD.AperFunction*%
%TD*%
D17*
%TO.N,/VIN*%
X54637556Y-9112311D02*
X54637870Y-9123585D01*
X54637937Y-9124580D01*
X54640094Y-9144767D01*
X54640245Y-9145789D01*
X54643979Y-9165434D01*
X54644221Y-9166467D01*
X54649534Y-9185567D01*
X54649863Y-9186584D01*
X54656753Y-9205141D01*
X54657165Y-9206122D01*
X54665632Y-9224136D01*
X54666116Y-9225065D01*
X54676162Y-9242535D01*
X54676703Y-9243393D01*
X54688326Y-9260319D01*
X54688906Y-9261098D01*
X54702107Y-9277481D01*
X54702710Y-9278177D01*
X54709120Y-9285048D01*
X54585048Y-9409120D01*
X54578177Y-9402710D01*
X54577481Y-9402107D01*
X54561098Y-9388906D01*
X54560319Y-9388326D01*
X54543393Y-9376703D01*
X54542535Y-9376162D01*
X54525065Y-9366116D01*
X54524136Y-9365632D01*
X54506122Y-9357165D01*
X54505141Y-9356753D01*
X54486584Y-9349863D01*
X54485567Y-9349534D01*
X54466467Y-9344221D01*
X54465434Y-9343979D01*
X54445789Y-9340245D01*
X54444767Y-9340094D01*
X54424580Y-9337937D01*
X54423585Y-9337870D01*
X54412311Y-9337556D01*
X54329591Y-9029591D01*
X54637556Y-9112311D01*
%TA.AperFunction,Conductor*%
D16*
G36*
X54637556Y-9112311D02*
G01*
X54637870Y-9123585D01*
X54637937Y-9124580D01*
X54640094Y-9144767D01*
X54640245Y-9145789D01*
X54643979Y-9165434D01*
X54644221Y-9166467D01*
X54649534Y-9185567D01*
X54649863Y-9186584D01*
X54656753Y-9205141D01*
X54657165Y-9206122D01*
X54665632Y-9224136D01*
X54666116Y-9225065D01*
X54676162Y-9242535D01*
X54676703Y-9243393D01*
X54688326Y-9260319D01*
X54688906Y-9261098D01*
X54702107Y-9277481D01*
X54702710Y-9278177D01*
X54709120Y-9285048D01*
X54585048Y-9409120D01*
X54578177Y-9402710D01*
X54577481Y-9402107D01*
X54561098Y-9388906D01*
X54560319Y-9388326D01*
X54543393Y-9376703D01*
X54542535Y-9376162D01*
X54525065Y-9366116D01*
X54524136Y-9365632D01*
X54506122Y-9357165D01*
X54505141Y-9356753D01*
X54486584Y-9349863D01*
X54485567Y-9349534D01*
X54466467Y-9344221D01*
X54465434Y-9343979D01*
X54445789Y-9340245D01*
X54444767Y-9340094D01*
X54424580Y-9337937D01*
X54423585Y-9337870D01*
X54412311Y-9337556D01*
X54329591Y-9029591D01*
X54637556Y-9112311D01*
G37*
%TD.AperFunction*%
%TD*%
D17*
%TO.N,/VIN*%
X51737556Y-43212311D02*
X51737870Y-43223585D01*
X51737937Y-43224580D01*
X51740094Y-43244767D01*
X51740245Y-43245789D01*
X51743979Y-43265434D01*
X51744221Y-43266467D01*
X51749534Y-43285567D01*
X51749863Y-43286584D01*
X51756753Y-43305141D01*
X51757165Y-43306122D01*
X51765632Y-43324136D01*
X51766116Y-43325065D01*
X51776162Y-43342535D01*
X51776703Y-43343393D01*
X51788326Y-43360319D01*
X51788906Y-43361098D01*
X51802107Y-43377481D01*
X51802710Y-43378177D01*
X51809120Y-43385048D01*
X51685048Y-43509120D01*
X51678177Y-43502710D01*
X51677481Y-43502107D01*
X51661098Y-43488906D01*
X51660319Y-43488326D01*
X51643393Y-43476703D01*
X51642535Y-43476162D01*
X51625065Y-43466116D01*
X51624136Y-43465632D01*
X51606122Y-43457165D01*
X51605141Y-43456753D01*
X51586584Y-43449863D01*
X51585567Y-43449534D01*
X51566467Y-43444221D01*
X51565434Y-43443979D01*
X51545789Y-43440245D01*
X51544767Y-43440094D01*
X51524580Y-43437937D01*
X51523585Y-43437870D01*
X51512311Y-43437556D01*
X51429591Y-43129591D01*
X51737556Y-43212311D01*
%TA.AperFunction,Conductor*%
D16*
G36*
X51737556Y-43212311D02*
G01*
X51737870Y-43223585D01*
X51737937Y-43224580D01*
X51740094Y-43244767D01*
X51740245Y-43245789D01*
X51743979Y-43265434D01*
X51744221Y-43266467D01*
X51749534Y-43285567D01*
X51749863Y-43286584D01*
X51756753Y-43305141D01*
X51757165Y-43306122D01*
X51765632Y-43324136D01*
X51766116Y-43325065D01*
X51776162Y-43342535D01*
X51776703Y-43343393D01*
X51788326Y-43360319D01*
X51788906Y-43361098D01*
X51802107Y-43377481D01*
X51802710Y-43378177D01*
X51809120Y-43385048D01*
X51685048Y-43509120D01*
X51678177Y-43502710D01*
X51677481Y-43502107D01*
X51661098Y-43488906D01*
X51660319Y-43488326D01*
X51643393Y-43476703D01*
X51642535Y-43476162D01*
X51625065Y-43466116D01*
X51624136Y-43465632D01*
X51606122Y-43457165D01*
X51605141Y-43456753D01*
X51586584Y-43449863D01*
X51585567Y-43449534D01*
X51566467Y-43444221D01*
X51565434Y-43443979D01*
X51545789Y-43440245D01*
X51544767Y-43440094D01*
X51524580Y-43437937D01*
X51523585Y-43437870D01*
X51512311Y-43437556D01*
X51429591Y-43129591D01*
X51737556Y-43212311D01*
G37*
%TD.AperFunction*%
%TD*%
D17*
%TO.N,/VIN*%
X49337556Y-32712311D02*
X49337870Y-32723585D01*
X49337937Y-32724580D01*
X49340094Y-32744767D01*
X49340245Y-32745789D01*
X49343979Y-32765434D01*
X49344221Y-32766467D01*
X49349534Y-32785567D01*
X49349863Y-32786584D01*
X49356753Y-32805141D01*
X49357165Y-32806122D01*
X49365632Y-32824136D01*
X49366116Y-32825065D01*
X49376162Y-32842535D01*
X49376703Y-32843393D01*
X49388326Y-32860319D01*
X49388906Y-32861098D01*
X49402107Y-32877481D01*
X49402710Y-32878177D01*
X49409120Y-32885048D01*
X49285048Y-33009120D01*
X49278177Y-33002710D01*
X49277481Y-33002107D01*
X49261098Y-32988906D01*
X49260319Y-32988326D01*
X49243393Y-32976703D01*
X49242535Y-32976162D01*
X49225065Y-32966116D01*
X49224136Y-32965632D01*
X49206122Y-32957165D01*
X49205141Y-32956753D01*
X49186584Y-32949863D01*
X49185567Y-32949534D01*
X49166467Y-32944221D01*
X49165434Y-32943979D01*
X49145789Y-32940245D01*
X49144767Y-32940094D01*
X49124580Y-32937937D01*
X49123585Y-32937870D01*
X49112311Y-32937556D01*
X49029591Y-32629591D01*
X49337556Y-32712311D01*
%TA.AperFunction,Conductor*%
D16*
G36*
X49337556Y-32712311D02*
G01*
X49337870Y-32723585D01*
X49337937Y-32724580D01*
X49340094Y-32744767D01*
X49340245Y-32745789D01*
X49343979Y-32765434D01*
X49344221Y-32766467D01*
X49349534Y-32785567D01*
X49349863Y-32786584D01*
X49356753Y-32805141D01*
X49357165Y-32806122D01*
X49365632Y-32824136D01*
X49366116Y-32825065D01*
X49376162Y-32842535D01*
X49376703Y-32843393D01*
X49388326Y-32860319D01*
X49388906Y-32861098D01*
X49402107Y-32877481D01*
X49402710Y-32878177D01*
X49409120Y-32885048D01*
X49285048Y-33009120D01*
X49278177Y-33002710D01*
X49277481Y-33002107D01*
X49261098Y-32988906D01*
X49260319Y-32988326D01*
X49243393Y-32976703D01*
X49242535Y-32976162D01*
X49225065Y-32966116D01*
X49224136Y-32965632D01*
X49206122Y-32957165D01*
X49205141Y-32956753D01*
X49186584Y-32949863D01*
X49185567Y-32949534D01*
X49166467Y-32944221D01*
X49165434Y-32943979D01*
X49145789Y-32940245D01*
X49144767Y-32940094D01*
X49124580Y-32937937D01*
X49123585Y-32937870D01*
X49112311Y-32937556D01*
X49029591Y-32629591D01*
X49337556Y-32712311D01*
G37*
%TD.AperFunction*%
%TD*%
D15*
%TO.N,Net-(J1-Pad2)*%
X11773000Y-25200000D02*
X11775440Y-25224776D01*
X11782667Y-25248601D01*
X11794403Y-25270557D01*
X11810197Y-25289803D01*
X13010197Y-26489803D01*
X13029443Y-26505597D01*
X13051399Y-26517333D01*
X13075224Y-26524560D01*
X13100000Y-26527000D01*
X15673000Y-26527000D01*
X15673000Y-28547394D01*
X12547394Y-31673000D01*
X627000Y-31673000D01*
X627000Y-16427000D01*
X11773000Y-16427000D01*
X11773000Y-25200000D01*
%TA.AperFunction,Conductor*%
D16*
G36*
X11773000Y-25200000D02*
G01*
X11775440Y-25224776D01*
X11782667Y-25248601D01*
X11794403Y-25270557D01*
X11810197Y-25289803D01*
X13010197Y-26489803D01*
X13029443Y-26505597D01*
X13051399Y-26517333D01*
X13075224Y-26524560D01*
X13100000Y-26527000D01*
X15673000Y-26527000D01*
X15673000Y-28547394D01*
X12547394Y-31673000D01*
X627000Y-31673000D01*
X627000Y-16427000D01*
X11773000Y-16427000D01*
X11773000Y-25200000D01*
G37*
%TD.AperFunction*%
%TD*%
D14*
%TO.N,GND*%
X99636054Y-363946D02*
X99675000Y-411402D01*
X99675000Y-21821086D01*
X99650698Y-21850698D01*
X99521964Y-21956348D01*
X99375095Y-22034851D01*
X99215731Y-22083193D01*
X99045092Y-22100000D01*
X93015257Y-22100000D01*
X92836347Y-22082527D01*
X92668874Y-22032172D01*
X92514310Y-21950366D01*
X92374702Y-21837122D01*
X89641794Y-19139706D01*
X89634709Y-19133350D01*
X89487301Y-19013255D01*
X89471486Y-19002701D01*
X89304011Y-18912677D01*
X89286484Y-18905308D01*
X89104998Y-18848610D01*
X89086392Y-18844691D01*
X88897454Y-18823369D01*
X88878443Y-18823042D01*
X88688885Y-18837867D01*
X88670156Y-18841145D01*
X88486831Y-18891580D01*
X88469061Y-18898344D01*
X88298595Y-18982567D01*
X88282426Y-18992572D01*
X88130983Y-19107538D01*
X88117001Y-19120422D01*
X87990056Y-19261973D01*
X87984046Y-19269353D01*
X87665933Y-19700345D01*
X63876214Y-5001007D01*
X63874767Y-4996238D01*
X63777267Y-4813829D01*
X63646054Y-4653946D01*
X63486171Y-4522733D01*
X63303762Y-4425233D01*
X63105836Y-4365193D01*
X62951578Y-4350000D01*
X59348422Y-4350000D01*
X59194164Y-4365193D01*
X59079420Y-4400000D01*
X58800000Y-4400000D01*
X58770594Y-4401445D01*
X58575504Y-4420660D01*
X58517826Y-4432133D01*
X58330233Y-4489038D01*
X58275898Y-4511544D01*
X58103011Y-4603954D01*
X58054112Y-4636627D01*
X57902575Y-4760990D01*
X57860990Y-4802575D01*
X57736627Y-4954112D01*
X57703954Y-5003011D01*
X57611544Y-5175898D01*
X57589038Y-5230233D01*
X57532133Y-5417826D01*
X57520660Y-5475504D01*
X57501445Y-5670594D01*
X57500000Y-5700000D01*
X57500000Y-6900000D01*
X57501445Y-6929406D01*
X57520660Y-7124496D01*
X57532133Y-7182174D01*
X57589038Y-7369767D01*
X57594544Y-7383060D01*
X57571136Y-7439571D01*
X57550000Y-7545830D01*
X57550000Y-7654170D01*
X57571136Y-7760429D01*
X57612597Y-7860523D01*
X57672787Y-7950604D01*
X57749396Y-8027213D01*
X57839477Y-8087403D01*
X57939571Y-8128864D01*
X58045830Y-8150000D01*
X58154170Y-8150000D01*
X58260429Y-8128864D01*
X58316940Y-8105456D01*
X58330233Y-8110962D01*
X58517826Y-8167867D01*
X58575504Y-8179340D01*
X58770594Y-8198555D01*
X58800000Y-8200000D01*
X60785786Y-8200000D01*
X60815191Y-8198555D01*
X61010282Y-8179340D01*
X61067961Y-8167867D01*
X61255554Y-8110962D01*
X61309889Y-8088456D01*
X61482776Y-7996046D01*
X61531676Y-7963373D01*
X61683212Y-7839010D01*
X61705025Y-7819239D01*
X62919239Y-6605025D01*
X62939010Y-6583212D01*
X63056843Y-6439632D01*
X63105836Y-6434807D01*
X63137337Y-6425251D01*
X86840884Y-21071347D01*
X86435803Y-21997245D01*
X86433281Y-22003592D01*
X86410214Y-22067960D01*
X59603647Y-14913182D01*
X59577267Y-14863829D01*
X59446054Y-14703946D01*
X59286171Y-14572733D01*
X59103762Y-14475233D01*
X58905836Y-14415193D01*
X58751578Y-14400000D01*
X54400000Y-14400000D01*
X54370594Y-14401445D01*
X54175504Y-14420660D01*
X54117826Y-14432133D01*
X53930233Y-14489038D01*
X53875898Y-14511544D01*
X53703011Y-14603954D01*
X53654112Y-14636627D01*
X53502575Y-14760990D01*
X53460990Y-14802575D01*
X53336627Y-14954112D01*
X53303954Y-15003011D01*
X53211544Y-15175898D01*
X53189038Y-15230233D01*
X53132133Y-15417826D01*
X53120660Y-15475504D01*
X53101445Y-15670594D01*
X53100000Y-15700000D01*
X53100000Y-16900000D01*
X53101445Y-16929406D01*
X53120660Y-17124496D01*
X53132133Y-17182174D01*
X53189038Y-17369767D01*
X53211544Y-17424102D01*
X53257217Y-17509549D01*
X53250000Y-17545830D01*
X53250000Y-17654170D01*
X53271136Y-17760429D01*
X53312597Y-17860523D01*
X53372787Y-17950604D01*
X53449396Y-18027213D01*
X53539477Y-18087403D01*
X53639571Y-18128864D01*
X53745830Y-18150000D01*
X53854170Y-18150000D01*
X53960429Y-18128864D01*
X53972612Y-18123817D01*
X54117826Y-18167867D01*
X54175504Y-18179340D01*
X54370594Y-18198555D01*
X54400000Y-18200000D01*
X56585786Y-18200000D01*
X56615191Y-18198555D01*
X56810282Y-18179340D01*
X56867961Y-18167867D01*
X57055554Y-18110962D01*
X57109889Y-18088456D01*
X57282776Y-17996046D01*
X57331676Y-17963373D01*
X57483212Y-17839010D01*
X57505025Y-17819239D01*
X58719239Y-16605025D01*
X58739010Y-16583212D01*
X58812201Y-16494029D01*
X58905836Y-16484807D01*
X59084467Y-16430620D01*
X85969731Y-23606402D01*
X85723692Y-24475741D01*
X85721751Y-24483887D01*
X85689813Y-24648150D01*
X85688005Y-24664786D01*
X85683905Y-24832075D01*
X85684896Y-24848779D01*
X85708749Y-25014409D01*
X85710289Y-25022641D01*
X85994493Y-26254192D01*
X58504532Y-28169870D01*
X58386171Y-28072733D01*
X58203762Y-27975233D01*
X58005836Y-27915193D01*
X57851578Y-27900000D01*
X53500000Y-27900000D01*
X53470594Y-27901445D01*
X53275504Y-27920660D01*
X53217826Y-27932133D01*
X53030233Y-27989038D01*
X52975898Y-28011544D01*
X52803011Y-28103954D01*
X52754112Y-28136627D01*
X52602575Y-28260990D01*
X52560990Y-28302575D01*
X52436627Y-28454112D01*
X52403954Y-28503011D01*
X52311544Y-28675898D01*
X52289038Y-28730233D01*
X52232133Y-28917826D01*
X52220660Y-28975504D01*
X52201445Y-29170594D01*
X52200000Y-29200000D01*
X52200000Y-30400000D01*
X52201445Y-30429406D01*
X52220660Y-30624496D01*
X52232133Y-30682174D01*
X52289038Y-30869767D01*
X52311544Y-30924102D01*
X52357217Y-31009549D01*
X52350000Y-31045830D01*
X52350000Y-31154170D01*
X52371136Y-31260429D01*
X52412597Y-31360523D01*
X52472787Y-31450604D01*
X52549396Y-31527213D01*
X52639477Y-31587403D01*
X52739571Y-31628864D01*
X52845830Y-31650000D01*
X52954170Y-31650000D01*
X53060429Y-31628864D01*
X53072612Y-31623817D01*
X53217826Y-31667867D01*
X53275504Y-31679340D01*
X53470594Y-31698555D01*
X53500000Y-31700000D01*
X55685786Y-31700000D01*
X55715191Y-31698555D01*
X55910282Y-31679340D01*
X55967961Y-31667867D01*
X56155554Y-31610962D01*
X56209889Y-31588456D01*
X56382776Y-31496046D01*
X56431676Y-31463373D01*
X56583212Y-31339010D01*
X56605025Y-31319239D01*
X57819239Y-30105025D01*
X57839010Y-30083212D01*
X57912201Y-29994029D01*
X58005836Y-29984807D01*
X58203762Y-29924767D01*
X58386171Y-29827267D01*
X58446450Y-29777797D01*
X86358762Y-27832689D01*
X86382485Y-27935490D01*
X86384871Y-27944066D01*
X86440117Y-28113126D01*
X86443256Y-28121456D01*
X86794735Y-28941574D01*
X60418301Y-38533004D01*
X60403762Y-38525233D01*
X60205836Y-38465193D01*
X60051578Y-38450000D01*
X59657016Y-38450000D01*
X59615974Y-38435639D01*
X59550480Y-38420690D01*
X59383589Y-38401886D01*
X59350000Y-38400000D01*
X55900000Y-38400000D01*
X55870594Y-38401445D01*
X55675504Y-38420660D01*
X55617826Y-38432133D01*
X55430233Y-38489038D01*
X55375898Y-38511544D01*
X55203011Y-38603954D01*
X55154112Y-38636627D01*
X55002575Y-38760990D01*
X54960990Y-38802575D01*
X54836627Y-38954112D01*
X54803954Y-39003011D01*
X54711544Y-39175898D01*
X54689038Y-39230233D01*
X54632133Y-39417826D01*
X54620660Y-39475504D01*
X54601445Y-39670594D01*
X54600000Y-39700000D01*
X54600000Y-40900000D01*
X54601445Y-40929406D01*
X54620660Y-41124496D01*
X54632133Y-41182174D01*
X54689038Y-41369767D01*
X54711544Y-41424102D01*
X54757217Y-41509549D01*
X54750000Y-41545830D01*
X54750000Y-41654170D01*
X54771136Y-41760429D01*
X54812597Y-41860523D01*
X54872787Y-41950604D01*
X54949396Y-42027213D01*
X55039477Y-42087403D01*
X55139571Y-42128864D01*
X55245830Y-42150000D01*
X55354170Y-42150000D01*
X55460429Y-42128864D01*
X55472612Y-42123817D01*
X55617826Y-42167867D01*
X55675504Y-42179340D01*
X55870594Y-42198555D01*
X55900000Y-42200000D01*
X57985786Y-42200000D01*
X58015191Y-42198555D01*
X58210282Y-42179340D01*
X58267961Y-42167867D01*
X58455554Y-42110962D01*
X58509889Y-42088456D01*
X58682776Y-41996046D01*
X58731676Y-41963373D01*
X58883212Y-41839010D01*
X58905025Y-41819239D01*
X60019239Y-40705025D01*
X60039010Y-40683212D01*
X60156843Y-40539632D01*
X60205836Y-40534807D01*
X60403762Y-40474767D01*
X60586171Y-40377267D01*
X60746054Y-40246054D01*
X60877267Y-40086171D01*
X60888920Y-40064370D01*
X87680541Y-30321963D01*
X87996145Y-30637567D01*
X88003250Y-30644020D01*
X88151209Y-30765981D01*
X88167106Y-30776702D01*
X88335623Y-30868182D01*
X88353275Y-30875673D01*
X88536155Y-30933307D01*
X88554911Y-30937290D01*
X88745428Y-30958960D01*
X88764600Y-30959291D01*
X88955751Y-30944199D01*
X88974633Y-30940864D01*
X89159390Y-30889567D01*
X89177289Y-30882690D01*
X89348859Y-30797072D01*
X89365116Y-30786904D01*
X89517190Y-30670114D01*
X89524513Y-30663910D01*
X92276644Y-28095255D01*
X92413899Y-27989375D01*
X92564291Y-27913108D01*
X92726275Y-27866248D01*
X92898862Y-27850000D01*
X98995092Y-27850000D01*
X99175485Y-27867768D01*
X99344229Y-27918955D01*
X99499745Y-28002080D01*
X99636054Y-28113946D01*
X99675001Y-28161402D01*
X99675001Y-49588597D01*
X99636054Y-49636054D01*
X99588598Y-49675000D01*
X411402Y-49675000D01*
X363946Y-49636054D01*
X325000Y-49588598D01*
X325000Y-32411402D01*
X363946Y-32363946D01*
X500255Y-32252080D01*
X655771Y-32168955D01*
X824515Y-32117768D01*
X1004908Y-32100000D01*
X11872170Y-32100000D01*
X12100098Y-32127753D01*
X19628953Y-33988818D01*
X19638867Y-33990743D01*
X19838586Y-34019152D01*
X19858743Y-34019964D01*
X20060099Y-34007712D01*
X20080008Y-34004462D01*
X20274809Y-33952046D01*
X20293661Y-33944867D01*
X20378199Y-33902463D01*
X20437868Y-33962132D01*
X20454715Y-33977736D01*
X20630312Y-34128311D01*
X20667334Y-34155433D01*
X20863844Y-34277463D01*
X20904569Y-34298621D01*
X21117392Y-34389249D01*
X21138849Y-34397431D01*
X48436508Y-43626176D01*
X48452084Y-43630974D01*
X48765987Y-43718417D01*
X48797806Y-43725444D01*
X49119341Y-43778326D01*
X49151734Y-43781860D01*
X49206491Y-43784838D01*
X49139477Y-43812597D01*
X49049396Y-43872787D01*
X48972787Y-43949396D01*
X48912597Y-44039477D01*
X48871136Y-44139571D01*
X48850000Y-44245830D01*
X48850000Y-44354170D01*
X48871136Y-44460429D01*
X48912597Y-44560523D01*
X48972787Y-44650604D01*
X49049396Y-44727213D01*
X49139477Y-44787403D01*
X49239571Y-44828864D01*
X49345830Y-44850000D01*
X49454170Y-44850000D01*
X49560429Y-44828864D01*
X49660523Y-44787403D01*
X49750604Y-44727213D01*
X49827213Y-44650604D01*
X49887403Y-44560523D01*
X49928864Y-44460429D01*
X49950000Y-44354170D01*
X49950000Y-44245830D01*
X49928864Y-44139571D01*
X49887403Y-44039477D01*
X49827213Y-43949396D01*
X49750604Y-43872787D01*
X49660523Y-43812597D01*
X49625997Y-43798296D01*
X49639159Y-43797433D01*
X49794450Y-43776988D01*
X49870095Y-43756719D01*
X50014804Y-43696779D01*
X50082628Y-43657621D01*
X50206892Y-43562270D01*
X50262270Y-43506892D01*
X50357621Y-43382628D01*
X50396779Y-43314804D01*
X50456719Y-43170095D01*
X50463220Y-43145830D01*
X50950000Y-43145830D01*
X50950000Y-43254170D01*
X50971136Y-43360429D01*
X51012597Y-43460523D01*
X51072787Y-43550604D01*
X51149396Y-43627213D01*
X51239477Y-43687403D01*
X51339571Y-43728864D01*
X51445830Y-43750000D01*
X51484314Y-43750000D01*
X51592537Y-43858223D01*
X51595740Y-43861936D01*
X51606385Y-43872071D01*
X51616835Y-43882521D01*
X51620645Y-43885648D01*
X51774513Y-44032144D01*
X51781280Y-44039251D01*
X51788707Y-44045657D01*
X51795837Y-44052446D01*
X51803598Y-44058503D01*
X51968184Y-44200476D01*
X51975297Y-44207248D01*
X51983038Y-44213289D01*
X51990485Y-44219713D01*
X51998525Y-44225375D01*
X52169886Y-44359106D01*
X52177322Y-44365521D01*
X52185350Y-44371175D01*
X52193105Y-44377227D01*
X52201415Y-44382489D01*
X52379123Y-44507646D01*
X52386872Y-44513693D01*
X52395176Y-44518951D01*
X52403209Y-44524609D01*
X52411761Y-44529454D01*
X52595412Y-44645750D01*
X52603437Y-44651402D01*
X52611978Y-44656240D01*
X52620290Y-44661504D01*
X52629075Y-44665926D01*
X52818204Y-44773067D01*
X52826501Y-44778321D01*
X52835270Y-44782735D01*
X52843828Y-44787583D01*
X52852821Y-44791569D01*
X53046976Y-44889299D01*
X53055524Y-44894141D01*
X53064504Y-44898122D01*
X53073286Y-44902542D01*
X53082459Y-44906080D01*
X53281171Y-44994163D01*
X53289952Y-44998583D01*
X53299124Y-45002121D01*
X53308105Y-45006102D01*
X53317435Y-45009184D01*
X53520233Y-45087412D01*
X53529223Y-45091397D01*
X53538561Y-45094482D01*
X53547723Y-45098016D01*
X53557189Y-45100636D01*
X53763580Y-45168818D01*
X53772760Y-45172359D01*
X53782247Y-45174984D01*
X53791563Y-45178062D01*
X53801138Y-45180212D01*
X54010653Y-45238193D01*
X54019978Y-45241274D01*
X54029562Y-45243426D01*
X54039036Y-45246048D01*
X54048723Y-45247729D01*
X54260812Y-45295355D01*
X54270279Y-45297975D01*
X54279958Y-45299654D01*
X54289548Y-45301808D01*
X54299305Y-45303011D01*
X54513489Y-45340176D01*
X54523059Y-45342325D01*
X54532794Y-45343526D01*
X54542495Y-45345209D01*
X54552315Y-45345933D01*
X54768030Y-45372539D01*
X54777712Y-45374219D01*
X54787511Y-45374942D01*
X54797266Y-45376145D01*
X54807091Y-45376386D01*
X55013825Y-45391636D01*
X55049402Y-45427213D01*
X55139483Y-45487403D01*
X55239577Y-45528864D01*
X55345836Y-45550000D01*
X55454176Y-45550000D01*
X55560435Y-45528864D01*
X55660529Y-45487403D01*
X55750610Y-45427213D01*
X55827219Y-45350604D01*
X55887409Y-45260523D01*
X55928870Y-45160429D01*
X55950006Y-45054170D01*
X55950006Y-44945830D01*
X55928870Y-44839571D01*
X55887409Y-44739477D01*
X55827219Y-44649396D01*
X55750610Y-44572787D01*
X55660529Y-44512597D01*
X55560435Y-44471136D01*
X55454176Y-44450000D01*
X55345836Y-44450000D01*
X55239577Y-44471136D01*
X55139483Y-44512597D01*
X55049402Y-44572787D01*
X55031427Y-44590762D01*
X54865941Y-44578555D01*
X54650241Y-44551951D01*
X54436073Y-44514790D01*
X54224019Y-44467172D01*
X54014527Y-44409197D01*
X53808144Y-44341017D01*
X53605367Y-44262798D01*
X53406661Y-44174718D01*
X53212512Y-44076992D01*
X53023390Y-43969855D01*
X52839764Y-43853576D01*
X52686777Y-43745830D01*
X55950000Y-43745830D01*
X55950000Y-43854170D01*
X55971136Y-43960429D01*
X56012597Y-44060523D01*
X56072787Y-44150604D01*
X56149396Y-44227213D01*
X56239477Y-44287403D01*
X56339571Y-44328864D01*
X56445830Y-44350000D01*
X56554170Y-44350000D01*
X56660429Y-44328864D01*
X56760523Y-44287403D01*
X56850604Y-44227213D01*
X56927213Y-44150604D01*
X56987403Y-44060523D01*
X57028864Y-43960429D01*
X57050000Y-43854170D01*
X57050000Y-43745830D01*
X57028864Y-43639571D01*
X56987403Y-43539477D01*
X56927213Y-43449396D01*
X56850604Y-43372787D01*
X56760523Y-43312597D01*
X56660429Y-43271136D01*
X56554170Y-43250000D01*
X56445830Y-43250000D01*
X56339571Y-43271136D01*
X56239477Y-43312597D01*
X56149396Y-43372787D01*
X56072787Y-43449396D01*
X56012597Y-43539477D01*
X55971136Y-43639571D01*
X55950000Y-43745830D01*
X52686777Y-43745830D01*
X52662067Y-43728428D01*
X52490711Y-43594701D01*
X52326135Y-43452737D01*
X52165195Y-43299509D01*
X52050000Y-43184314D01*
X52050000Y-43145830D01*
X52028864Y-43039571D01*
X51987403Y-42939477D01*
X51927213Y-42849396D01*
X51850604Y-42772787D01*
X51760523Y-42712597D01*
X51660429Y-42671136D01*
X51554170Y-42650000D01*
X51445830Y-42650000D01*
X51339571Y-42671136D01*
X51239477Y-42712597D01*
X51149396Y-42772787D01*
X51072787Y-42849396D01*
X51012597Y-42939477D01*
X50971136Y-43039571D01*
X50950000Y-43145830D01*
X50463220Y-43145830D01*
X50476988Y-43094450D01*
X50497433Y-42939159D01*
X50500000Y-42900000D01*
X50500000Y-39700000D01*
X50497433Y-39660841D01*
X50476988Y-39505550D01*
X50456719Y-39429905D01*
X50396779Y-39285196D01*
X50357621Y-39217372D01*
X50262270Y-39093108D01*
X50206892Y-39037730D01*
X50082628Y-38942379D01*
X50014804Y-38903221D01*
X49870095Y-38843281D01*
X49794450Y-38823012D01*
X49639159Y-38802567D01*
X49600000Y-38800000D01*
X49536610Y-38800000D01*
X49215137Y-38781314D01*
X48906584Y-38727018D01*
X48598017Y-38634834D01*
X29761057Y-31793550D01*
X29645431Y-31736455D01*
X29558066Y-31665912D01*
X29488252Y-31577960D01*
X29439376Y-31476865D01*
X29413804Y-31367521D01*
X29412777Y-31255239D01*
X29436662Y-31143971D01*
X29487961Y-31029742D01*
X29561881Y-30926801D01*
X29654838Y-30840663D01*
X29763093Y-30774786D01*
X29882321Y-30731805D01*
X30007710Y-30713455D01*
X30149358Y-30721306D01*
X46322276Y-33260078D01*
X46345467Y-33262798D01*
X46694051Y-33289991D01*
X46639477Y-33312597D01*
X46549396Y-33372787D01*
X46472787Y-33449396D01*
X46412597Y-33539477D01*
X46371136Y-33639571D01*
X46350000Y-33745830D01*
X46350000Y-33854170D01*
X46371136Y-33960429D01*
X46412597Y-34060523D01*
X46472787Y-34150604D01*
X46549396Y-34227213D01*
X46639477Y-34287403D01*
X46739571Y-34328864D01*
X46845830Y-34350000D01*
X46954170Y-34350000D01*
X47060429Y-34328864D01*
X47160523Y-34287403D01*
X47250604Y-34227213D01*
X47327213Y-34150604D01*
X47387403Y-34060523D01*
X47428864Y-33960429D01*
X47450000Y-33854170D01*
X47450000Y-33745830D01*
X47428864Y-33639571D01*
X47387403Y-33539477D01*
X47327213Y-33449396D01*
X47250604Y-33372787D01*
X47160523Y-33312597D01*
X47130112Y-33300000D01*
X47150000Y-33300000D01*
X47189158Y-33297433D01*
X47331508Y-33278692D01*
X47407154Y-33258423D01*
X47539804Y-33203478D01*
X47607628Y-33164320D01*
X47721537Y-33076915D01*
X47776915Y-33021537D01*
X47864320Y-32907628D01*
X47903478Y-32839804D01*
X47958423Y-32707154D01*
X47974854Y-32645830D01*
X48550000Y-32645830D01*
X48550000Y-32754170D01*
X48571136Y-32860429D01*
X48612597Y-32960523D01*
X48672787Y-33050604D01*
X48749396Y-33127213D01*
X48839477Y-33187403D01*
X48939571Y-33228864D01*
X49045830Y-33250000D01*
X49084315Y-33250000D01*
X49092534Y-33258219D01*
X49095742Y-33261938D01*
X49106404Y-33272089D01*
X49116835Y-33282520D01*
X49120640Y-33285643D01*
X49274508Y-33432137D01*
X49281281Y-33439250D01*
X49288717Y-33445664D01*
X49295840Y-33452446D01*
X49303592Y-33458496D01*
X49468185Y-33600475D01*
X49475298Y-33607247D01*
X49483039Y-33613288D01*
X49490486Y-33619712D01*
X49498526Y-33625374D01*
X49669878Y-33759099D01*
X49677322Y-33765520D01*
X49685361Y-33771182D01*
X49693106Y-33777226D01*
X49701405Y-33782482D01*
X49879142Y-33907658D01*
X49886873Y-33913692D01*
X49895157Y-33918938D01*
X49903208Y-33924608D01*
X49911776Y-33929462D01*
X50095417Y-34045752D01*
X50103438Y-34051401D01*
X50111974Y-34056236D01*
X50120292Y-34061504D01*
X50129084Y-34065930D01*
X50318199Y-34173063D01*
X50326501Y-34178320D01*
X50335280Y-34182739D01*
X50343829Y-34187582D01*
X50352812Y-34191564D01*
X50546992Y-34289306D01*
X50555525Y-34294140D01*
X50564490Y-34298114D01*
X50573285Y-34302541D01*
X50582471Y-34306085D01*
X50781195Y-34394173D01*
X50789952Y-34398581D01*
X50799099Y-34402109D01*
X50808106Y-34406102D01*
X50817459Y-34409192D01*
X51020237Y-34487413D01*
X51029223Y-34491396D01*
X51038555Y-34494479D01*
X51047722Y-34498015D01*
X51057194Y-34500636D01*
X51263589Y-34568820D01*
X51272762Y-34572358D01*
X51282236Y-34574980D01*
X51291563Y-34578061D01*
X51301150Y-34580214D01*
X51510644Y-34638188D01*
X51519978Y-34641272D01*
X51529572Y-34643426D01*
X51539038Y-34646046D01*
X51548717Y-34647725D01*
X51760818Y-34695354D01*
X51770277Y-34697972D01*
X51779945Y-34699650D01*
X51789548Y-34701806D01*
X51799316Y-34703011D01*
X52013474Y-34740172D01*
X52023059Y-34742324D01*
X52032807Y-34743526D01*
X52042493Y-34745207D01*
X52052301Y-34745931D01*
X52268030Y-34772538D01*
X52277712Y-34774218D01*
X52287511Y-34774941D01*
X52297266Y-34776144D01*
X52307091Y-34776385D01*
X52523861Y-34792375D01*
X52533620Y-34793579D01*
X52543453Y-34793820D01*
X52553248Y-34794543D01*
X52563065Y-34794302D01*
X52617830Y-34795647D01*
X52649396Y-34827213D01*
X52739477Y-34887403D01*
X52839571Y-34928864D01*
X52945830Y-34950000D01*
X53054170Y-34950000D01*
X53160429Y-34928864D01*
X53260523Y-34887403D01*
X53350604Y-34827213D01*
X53427213Y-34750604D01*
X53487403Y-34660523D01*
X53528864Y-34560429D01*
X53550000Y-34454170D01*
X53550000Y-34345830D01*
X53528864Y-34239571D01*
X53487403Y-34139477D01*
X53427213Y-34049396D01*
X53350604Y-33972787D01*
X53260523Y-33912597D01*
X53160429Y-33871136D01*
X53054170Y-33850000D01*
X52945830Y-33850000D01*
X52839571Y-33871136D01*
X52739477Y-33912597D01*
X52649396Y-33972787D01*
X52626562Y-33995621D01*
X52582711Y-33994544D01*
X52365941Y-33978554D01*
X52150230Y-33951949D01*
X51936091Y-33914792D01*
X51724012Y-33867168D01*
X51514530Y-33809197D01*
X51308146Y-33741017D01*
X51105356Y-33662792D01*
X50906662Y-33574717D01*
X50712506Y-33476987D01*
X50523383Y-33369850D01*
X50339762Y-33253573D01*
X50257774Y-33195830D01*
X53700000Y-33195830D01*
X53700000Y-33304170D01*
X53721136Y-33410429D01*
X53762597Y-33510523D01*
X53822787Y-33600604D01*
X53899396Y-33677213D01*
X53989477Y-33737403D01*
X54089571Y-33778864D01*
X54195830Y-33800000D01*
X54304170Y-33800000D01*
X54410429Y-33778864D01*
X54510523Y-33737403D01*
X54600604Y-33677213D01*
X54677213Y-33600604D01*
X54737403Y-33510523D01*
X54778864Y-33410429D01*
X54800000Y-33304170D01*
X54800000Y-33195830D01*
X54778864Y-33089571D01*
X54737403Y-32989477D01*
X54677213Y-32899396D01*
X54600604Y-32822787D01*
X54510523Y-32762597D01*
X54410429Y-32721136D01*
X54304170Y-32700000D01*
X54195830Y-32700000D01*
X54089571Y-32721136D01*
X53989477Y-32762597D01*
X53899396Y-32822787D01*
X53822787Y-32899396D01*
X53762597Y-32989477D01*
X53721136Y-33089571D01*
X53700000Y-33195830D01*
X50257774Y-33195830D01*
X50162060Y-33128420D01*
X49990712Y-32994700D01*
X49826135Y-32852735D01*
X49665170Y-32699485D01*
X49650000Y-32684315D01*
X49650000Y-32645830D01*
X49628864Y-32539571D01*
X49587403Y-32439477D01*
X49527213Y-32349396D01*
X49450604Y-32272787D01*
X49360523Y-32212597D01*
X49260429Y-32171136D01*
X49154170Y-32150000D01*
X49045830Y-32150000D01*
X48939571Y-32171136D01*
X48839477Y-32212597D01*
X48749396Y-32272787D01*
X48672787Y-32349396D01*
X48612597Y-32439477D01*
X48571136Y-32539571D01*
X48550000Y-32645830D01*
X47974854Y-32645830D01*
X47978692Y-32631508D01*
X47997433Y-32489158D01*
X48000000Y-32450000D01*
X48000000Y-29050000D01*
X47997433Y-29010842D01*
X47978692Y-28868492D01*
X47958423Y-28792846D01*
X47903478Y-28660196D01*
X47864320Y-28592372D01*
X47776915Y-28478463D01*
X47721537Y-28423085D01*
X47607628Y-28335680D01*
X47539804Y-28296522D01*
X47407154Y-28241577D01*
X47331508Y-28221308D01*
X47189158Y-28202567D01*
X47150000Y-28200000D01*
X46808007Y-28200000D01*
X46433253Y-28175252D01*
X27946932Y-25722985D01*
X27787018Y-25684755D01*
X27652303Y-25621298D01*
X27533386Y-25531686D01*
X27435259Y-25419682D01*
X27362060Y-25290007D01*
X27316869Y-25148120D01*
X27301493Y-24999042D01*
X27316658Y-24842267D01*
X27361866Y-24690383D01*
X27435347Y-24549982D01*
X27534381Y-24426264D01*
X27655285Y-24323827D01*
X27793590Y-24246459D01*
X27957974Y-24192500D01*
X30839872Y-23545830D01*
X47262500Y-23545830D01*
X47262500Y-23654170D01*
X47283636Y-23760429D01*
X47325097Y-23860523D01*
X47385287Y-23950604D01*
X47461896Y-24027213D01*
X47551977Y-24087403D01*
X47652071Y-24128864D01*
X47758330Y-24150000D01*
X47866670Y-24150000D01*
X47972929Y-24128864D01*
X48073023Y-24087403D01*
X48163104Y-24027213D01*
X48239713Y-23950604D01*
X48299903Y-23860523D01*
X48341364Y-23760429D01*
X48362500Y-23654170D01*
X48362500Y-23545830D01*
X48850000Y-23545830D01*
X48850000Y-23654170D01*
X48871136Y-23760429D01*
X48912597Y-23860523D01*
X48972787Y-23950604D01*
X49049396Y-24027213D01*
X49139477Y-24087403D01*
X49239571Y-24128864D01*
X49345830Y-24150000D01*
X49454170Y-24150000D01*
X49560429Y-24128864D01*
X49660523Y-24087403D01*
X49750604Y-24027213D01*
X49827213Y-23950604D01*
X49887403Y-23860523D01*
X49928864Y-23760429D01*
X49950000Y-23654170D01*
X49950000Y-23545830D01*
X49928864Y-23439571D01*
X49887403Y-23339477D01*
X49827213Y-23249396D01*
X49800000Y-23222183D01*
X49800000Y-22665685D01*
X51465686Y-21000000D01*
X53474623Y-21000000D01*
X53488521Y-21001771D01*
X53513919Y-21000000D01*
X53519647Y-21000000D01*
X53533536Y-20998632D01*
X53567123Y-20996290D01*
X53572677Y-20994777D01*
X53578414Y-20994212D01*
X53610668Y-20984428D01*
X53643145Y-20975581D01*
X53648297Y-20973013D01*
X53653814Y-20971340D01*
X53683537Y-20955453D01*
X53713667Y-20940438D01*
X53718221Y-20936914D01*
X53723303Y-20934197D01*
X53749359Y-20912813D01*
X53760365Y-20904295D01*
X53764519Y-20900372D01*
X53784211Y-20884211D01*
X53793104Y-20873375D01*
X54361207Y-20336835D01*
X54353841Y-20365476D01*
X54352992Y-20380786D01*
X54350000Y-20395830D01*
X54350000Y-20434772D01*
X54347845Y-20473650D01*
X54350000Y-20488834D01*
X54350000Y-20504170D01*
X54357598Y-20542370D01*
X54363069Y-20580915D01*
X54368143Y-20595382D01*
X54371136Y-20610429D01*
X54386040Y-20646411D01*
X54398926Y-20683150D01*
X54406728Y-20696353D01*
X54412597Y-20710523D01*
X54434237Y-20742909D01*
X54454040Y-20776424D01*
X54464263Y-20787847D01*
X54472787Y-20800604D01*
X54500330Y-20828147D01*
X54526291Y-20857155D01*
X54538549Y-20866366D01*
X54549396Y-20877213D01*
X54581786Y-20898855D01*
X54612904Y-20922238D01*
X54626721Y-20928880D01*
X54639477Y-20937403D01*
X54675458Y-20952307D01*
X54710549Y-20969175D01*
X54725401Y-20972994D01*
X54739571Y-20978864D01*
X54777774Y-20986463D01*
X54789183Y-20989397D01*
X54804238Y-20991727D01*
X54845830Y-21000000D01*
X54857695Y-21000000D01*
X84204235Y-25541726D01*
X84245830Y-25550000D01*
X84284776Y-25550000D01*
X84323650Y-25552155D01*
X84338834Y-25550000D01*
X84354170Y-25550000D01*
X84392370Y-25542402D01*
X84430915Y-25536931D01*
X84445382Y-25531857D01*
X84460429Y-25528864D01*
X84496411Y-25513960D01*
X84533150Y-25501074D01*
X84546353Y-25493272D01*
X84560523Y-25487403D01*
X84592909Y-25465763D01*
X84626424Y-25445960D01*
X84637847Y-25435737D01*
X84650604Y-25427213D01*
X84678147Y-25399670D01*
X84707155Y-25373709D01*
X84716366Y-25361451D01*
X84727213Y-25350604D01*
X84748855Y-25318214D01*
X84772238Y-25287096D01*
X84778880Y-25273279D01*
X84787403Y-25260523D01*
X84802307Y-25224542D01*
X84819175Y-25189451D01*
X84822994Y-25174599D01*
X84828864Y-25160429D01*
X84836462Y-25122230D01*
X84846159Y-25084524D01*
X84847008Y-25069214D01*
X84850000Y-25054170D01*
X84850000Y-25015228D01*
X84852155Y-24976350D01*
X84850000Y-24961166D01*
X84850000Y-24945830D01*
X84842402Y-24907632D01*
X84836931Y-24869084D01*
X84831857Y-24854616D01*
X84828864Y-24839571D01*
X84813962Y-24803595D01*
X84801074Y-24766849D01*
X84793271Y-24753643D01*
X84787403Y-24739477D01*
X84765769Y-24707099D01*
X84745960Y-24673575D01*
X84735734Y-24662149D01*
X84727213Y-24649396D01*
X84699678Y-24621861D01*
X84673709Y-24592844D01*
X84661447Y-24583630D01*
X84650604Y-24572787D01*
X84618226Y-24551153D01*
X84587096Y-24527761D01*
X84573274Y-24521117D01*
X84560523Y-24512597D01*
X84524557Y-24497699D01*
X84489451Y-24480824D01*
X84474593Y-24477003D01*
X84460429Y-24471136D01*
X84422244Y-24463541D01*
X84410817Y-24460602D01*
X84395739Y-24458269D01*
X84354170Y-24450000D01*
X84342312Y-24450000D01*
X55403611Y-19971393D01*
X55428864Y-19910429D01*
X55450000Y-19804170D01*
X55450000Y-19695830D01*
X55428864Y-19589571D01*
X55387403Y-19489477D01*
X55327213Y-19399396D01*
X55250604Y-19322787D01*
X55160523Y-19262597D01*
X55060429Y-19221136D01*
X54954170Y-19200000D01*
X54845830Y-19200000D01*
X54739571Y-19221136D01*
X54639477Y-19262597D01*
X54549396Y-19322787D01*
X54522183Y-19350000D01*
X54425377Y-19350000D01*
X54411479Y-19348229D01*
X54386081Y-19350000D01*
X54380353Y-19350000D01*
X54366465Y-19351368D01*
X54332876Y-19353710D01*
X54327321Y-19355223D01*
X54321586Y-19355788D01*
X54289341Y-19365569D01*
X54256854Y-19374419D01*
X54251700Y-19376987D01*
X54246186Y-19378660D01*
X54216477Y-19394540D01*
X54186332Y-19409562D01*
X54181776Y-19413088D01*
X54176697Y-19415803D01*
X54150657Y-19437173D01*
X54139634Y-19445705D01*
X54135474Y-19449634D01*
X54115789Y-19465789D01*
X54106899Y-19476621D01*
X53340969Y-20200000D01*
X51319647Y-20200000D01*
X51300000Y-20198065D01*
X51221586Y-20205788D01*
X51146186Y-20228660D01*
X51076697Y-20265803D01*
X51031049Y-20303265D01*
X51031047Y-20303267D01*
X51015789Y-20315789D01*
X51003267Y-20331047D01*
X49131048Y-22203267D01*
X49115790Y-22215789D01*
X49103268Y-22231047D01*
X49103265Y-22231050D01*
X49065803Y-22276698D01*
X49028661Y-22346186D01*
X49005788Y-22421587D01*
X48998065Y-22500000D01*
X49000001Y-22519656D01*
X49000000Y-23222183D01*
X48972787Y-23249396D01*
X48912597Y-23339477D01*
X48871136Y-23439571D01*
X48850000Y-23545830D01*
X48362500Y-23545830D01*
X48341364Y-23439571D01*
X48299903Y-23339477D01*
X48239713Y-23249396D01*
X48163104Y-23172787D01*
X48073023Y-23112597D01*
X47972929Y-23071136D01*
X47866670Y-23050000D01*
X47758330Y-23050000D01*
X47652071Y-23071136D01*
X47551977Y-23112597D01*
X47461896Y-23172787D01*
X47385287Y-23249396D01*
X47325097Y-23339477D01*
X47283636Y-23439571D01*
X47262500Y-23545830D01*
X30839872Y-23545830D01*
X38415958Y-21845830D01*
X45637500Y-21845830D01*
X45637500Y-21954170D01*
X45658636Y-22060429D01*
X45700097Y-22160523D01*
X45760287Y-22250604D01*
X45836896Y-22327213D01*
X45926977Y-22387403D01*
X46027071Y-22428864D01*
X46133330Y-22450000D01*
X46241670Y-22450000D01*
X46347929Y-22428864D01*
X46448023Y-22387403D01*
X46538104Y-22327213D01*
X46614713Y-22250604D01*
X46674903Y-22160523D01*
X46716364Y-22060429D01*
X46737500Y-21954170D01*
X46737500Y-21858330D01*
X47262500Y-21858330D01*
X47262500Y-21966670D01*
X47283636Y-22072929D01*
X47325097Y-22173023D01*
X47385287Y-22263104D01*
X47461896Y-22339713D01*
X47551977Y-22399903D01*
X47652071Y-22441364D01*
X47758330Y-22462500D01*
X47866670Y-22462500D01*
X47972929Y-22441364D01*
X48073023Y-22399903D01*
X48163104Y-22339713D01*
X48239713Y-22263104D01*
X48299903Y-22173023D01*
X48341364Y-22072929D01*
X48362500Y-21966670D01*
X48362500Y-21858330D01*
X48341364Y-21752071D01*
X48299903Y-21651977D01*
X48239713Y-21561896D01*
X48163104Y-21485287D01*
X48073023Y-21425097D01*
X47972929Y-21383636D01*
X47866670Y-21362500D01*
X47758330Y-21362500D01*
X47652071Y-21383636D01*
X47551977Y-21425097D01*
X47461896Y-21485287D01*
X47385287Y-21561896D01*
X47325097Y-21651977D01*
X47283636Y-21752071D01*
X47262500Y-21858330D01*
X46737500Y-21858330D01*
X46737500Y-21845830D01*
X46716364Y-21739571D01*
X46674903Y-21639477D01*
X46614713Y-21549396D01*
X46538104Y-21472787D01*
X46448023Y-21412597D01*
X46347929Y-21371136D01*
X46241670Y-21350000D01*
X46133330Y-21350000D01*
X46027071Y-21371136D01*
X45926977Y-21412597D01*
X45836896Y-21472787D01*
X45760287Y-21549396D01*
X45700097Y-21639477D01*
X45658636Y-21739571D01*
X45637500Y-21845830D01*
X38415958Y-21845830D01*
X47233226Y-19867321D01*
X47535115Y-19816882D01*
X47840726Y-19800000D01*
X48050000Y-19800000D01*
X48089158Y-19797433D01*
X48231508Y-19778692D01*
X48307154Y-19758423D01*
X48439804Y-19703478D01*
X48507628Y-19664320D01*
X48621537Y-19576915D01*
X48676915Y-19521537D01*
X48764320Y-19407628D01*
X48803478Y-19339804D01*
X48858423Y-19207154D01*
X48878692Y-19131508D01*
X48897433Y-18989158D01*
X48900000Y-18950000D01*
X48900000Y-15550000D01*
X48897433Y-15510842D01*
X48878692Y-15368492D01*
X48858423Y-15292846D01*
X48803478Y-15160196D01*
X48764320Y-15092372D01*
X48676915Y-14978463D01*
X48621537Y-14923085D01*
X48507628Y-14835680D01*
X48439804Y-14796522D01*
X48307154Y-14741577D01*
X48231508Y-14721308D01*
X48089158Y-14702567D01*
X48050000Y-14700000D01*
X47927925Y-14700000D01*
X47906690Y-14700752D01*
X47483053Y-14730814D01*
X47441008Y-14736812D01*
X47025861Y-14826396D01*
X47005263Y-14831611D01*
X30097161Y-19755399D01*
X29942507Y-19782769D01*
X29801910Y-19776968D01*
X29665836Y-19741110D01*
X29540643Y-19676875D01*
X29432160Y-19587253D01*
X29345450Y-19476426D01*
X29284651Y-19349753D01*
X29253063Y-19214672D01*
X29251598Y-19076163D01*
X29280281Y-18940646D01*
X29337737Y-18814609D01*
X29421222Y-18704074D01*
X29526738Y-18614334D01*
X29663876Y-18541953D01*
X51589866Y-9884481D01*
X51907472Y-9781557D01*
X51948417Y-9773766D01*
X51872787Y-9849396D01*
X51812597Y-9939477D01*
X51771136Y-10039571D01*
X51750000Y-10145830D01*
X51750000Y-10254170D01*
X51771136Y-10360429D01*
X51812597Y-10460523D01*
X51872787Y-10550604D01*
X51949396Y-10627213D01*
X52039477Y-10687403D01*
X52139571Y-10728864D01*
X52245830Y-10750000D01*
X52354170Y-10750000D01*
X52460429Y-10728864D01*
X52560523Y-10687403D01*
X52650604Y-10627213D01*
X52727213Y-10550604D01*
X52787403Y-10460523D01*
X52828864Y-10360429D01*
X52850000Y-10254170D01*
X52850000Y-10145830D01*
X52828864Y-10039571D01*
X52787403Y-9939477D01*
X52727213Y-9849396D01*
X52650604Y-9772787D01*
X52560523Y-9712597D01*
X52533966Y-9701597D01*
X52568790Y-9699411D01*
X52589158Y-9697433D01*
X52731508Y-9678692D01*
X52807154Y-9658423D01*
X52939804Y-9603478D01*
X53007628Y-9564320D01*
X53121537Y-9476915D01*
X53176915Y-9421537D01*
X53264320Y-9307628D01*
X53303478Y-9239804D01*
X53358423Y-9107154D01*
X53374854Y-9045830D01*
X53850000Y-9045830D01*
X53850000Y-9154170D01*
X53871136Y-9260429D01*
X53912597Y-9360523D01*
X53972787Y-9450604D01*
X54049396Y-9527213D01*
X54139477Y-9587403D01*
X54239571Y-9628864D01*
X54345830Y-9650000D01*
X54384314Y-9650000D01*
X54492537Y-9758223D01*
X54495740Y-9761936D01*
X54506385Y-9772071D01*
X54516835Y-9782521D01*
X54520645Y-9785648D01*
X54674513Y-9932144D01*
X54681280Y-9939251D01*
X54688707Y-9945657D01*
X54695837Y-9952446D01*
X54703598Y-9958503D01*
X54868184Y-10100476D01*
X54875297Y-10107248D01*
X54883038Y-10113289D01*
X54890485Y-10119713D01*
X54898525Y-10125375D01*
X55069886Y-10259106D01*
X55077322Y-10265521D01*
X55085350Y-10271175D01*
X55093105Y-10277227D01*
X55101415Y-10282489D01*
X55279123Y-10407646D01*
X55286872Y-10413693D01*
X55295176Y-10418951D01*
X55303209Y-10424609D01*
X55311761Y-10429454D01*
X55495412Y-10545750D01*
X55503437Y-10551402D01*
X55511978Y-10556240D01*
X55520290Y-10561504D01*
X55529075Y-10565926D01*
X55718204Y-10673067D01*
X55726501Y-10678321D01*
X55735270Y-10682735D01*
X55743828Y-10687583D01*
X55752821Y-10691569D01*
X55946976Y-10789299D01*
X55955524Y-10794141D01*
X55964504Y-10798122D01*
X55973286Y-10802542D01*
X55982459Y-10806080D01*
X56181171Y-10894163D01*
X56189952Y-10898583D01*
X56199124Y-10902121D01*
X56208105Y-10906102D01*
X56217435Y-10909184D01*
X56420233Y-10987412D01*
X56429223Y-10991397D01*
X56438561Y-10994482D01*
X56447723Y-10998016D01*
X56457189Y-11000636D01*
X56663580Y-11068818D01*
X56672760Y-11072359D01*
X56682247Y-11074984D01*
X56691563Y-11078062D01*
X56701138Y-11080212D01*
X56910653Y-11138193D01*
X56919978Y-11141274D01*
X56929562Y-11143426D01*
X56939036Y-11146048D01*
X56948723Y-11147729D01*
X57160812Y-11195355D01*
X57170279Y-11197975D01*
X57179958Y-11199654D01*
X57189548Y-11201808D01*
X57199305Y-11203011D01*
X57413489Y-11240176D01*
X57423059Y-11242325D01*
X57432794Y-11243526D01*
X57442495Y-11245209D01*
X57452315Y-11245933D01*
X57668030Y-11272539D01*
X57677712Y-11274219D01*
X57687511Y-11274942D01*
X57697266Y-11276145D01*
X57707091Y-11276386D01*
X57913818Y-11291635D01*
X57949396Y-11327213D01*
X58039477Y-11387403D01*
X58139571Y-11428864D01*
X58245830Y-11450000D01*
X58354170Y-11450000D01*
X58460429Y-11428864D01*
X58560523Y-11387403D01*
X58650604Y-11327213D01*
X58727213Y-11250604D01*
X58787403Y-11160523D01*
X58828864Y-11060429D01*
X58850000Y-10954170D01*
X58850000Y-10845830D01*
X58828864Y-10739571D01*
X58787403Y-10639477D01*
X58727213Y-10549396D01*
X58650604Y-10472787D01*
X58560523Y-10412597D01*
X58460429Y-10371136D01*
X58354170Y-10350000D01*
X58245830Y-10350000D01*
X58139571Y-10371136D01*
X58039477Y-10412597D01*
X57949396Y-10472787D01*
X57931421Y-10490762D01*
X57765941Y-10478555D01*
X57550241Y-10451951D01*
X57336073Y-10414790D01*
X57124019Y-10367172D01*
X56914527Y-10309197D01*
X56708144Y-10241017D01*
X56505367Y-10162798D01*
X56306661Y-10074718D01*
X56112512Y-9976992D01*
X55923390Y-9869855D01*
X55739764Y-9753576D01*
X55586777Y-9645830D01*
X59000000Y-9645830D01*
X59000000Y-9754170D01*
X59021136Y-9860429D01*
X59062597Y-9960523D01*
X59122787Y-10050604D01*
X59199396Y-10127213D01*
X59289477Y-10187403D01*
X59389571Y-10228864D01*
X59495830Y-10250000D01*
X59604170Y-10250000D01*
X59710429Y-10228864D01*
X59810523Y-10187403D01*
X59900604Y-10127213D01*
X59977213Y-10050604D01*
X60037403Y-9960523D01*
X60078864Y-9860429D01*
X60100000Y-9754170D01*
X60100000Y-9645830D01*
X60078864Y-9539571D01*
X60037403Y-9439477D01*
X59977213Y-9349396D01*
X59900604Y-9272787D01*
X59810523Y-9212597D01*
X59710429Y-9171136D01*
X59604170Y-9150000D01*
X59495830Y-9150000D01*
X59389571Y-9171136D01*
X59289477Y-9212597D01*
X59199396Y-9272787D01*
X59122787Y-9349396D01*
X59062597Y-9439477D01*
X59021136Y-9539571D01*
X59000000Y-9645830D01*
X55586777Y-9645830D01*
X55562067Y-9628428D01*
X55390711Y-9494701D01*
X55226135Y-9352737D01*
X55065195Y-9199509D01*
X54950000Y-9084314D01*
X54950000Y-9045830D01*
X54928864Y-8939571D01*
X54887403Y-8839477D01*
X54827213Y-8749396D01*
X54750604Y-8672787D01*
X54660523Y-8612597D01*
X54560429Y-8571136D01*
X54454170Y-8550000D01*
X54345830Y-8550000D01*
X54239571Y-8571136D01*
X54139477Y-8612597D01*
X54049396Y-8672787D01*
X53972787Y-8749396D01*
X53912597Y-8839477D01*
X53871136Y-8939571D01*
X53850000Y-9045830D01*
X53374854Y-9045830D01*
X53378692Y-9031508D01*
X53397433Y-8889158D01*
X53400000Y-8850000D01*
X53400000Y-5550000D01*
X53397433Y-5510842D01*
X53378692Y-5368492D01*
X53358423Y-5292846D01*
X53303478Y-5160196D01*
X53264320Y-5092372D01*
X53176915Y-4978463D01*
X53121537Y-4923085D01*
X53007628Y-4835680D01*
X52939804Y-4796522D01*
X52807154Y-4741577D01*
X52731508Y-4721308D01*
X52589158Y-4702567D01*
X52550000Y-4700000D01*
X52514917Y-4700000D01*
X52497928Y-4700481D01*
X52158690Y-4719723D01*
X52124929Y-4723566D01*
X51790042Y-4781046D01*
X51756933Y-4788681D01*
X51430695Y-4883660D01*
X51414518Y-4888871D01*
X21133282Y-15599276D01*
X21112579Y-15607475D01*
X20900583Y-15700677D01*
X20861285Y-15721560D01*
X20665409Y-15845097D01*
X20629632Y-15871563D01*
X20454186Y-16022718D01*
X20418096Y-16059683D01*
X20346311Y-16147154D01*
X20233904Y-16087320D01*
X20215847Y-16079869D01*
X20028853Y-16023356D01*
X20009690Y-16019558D01*
X19815277Y-16000478D01*
X19805510Y-16000000D01*
X1004908Y-16000000D01*
X824515Y-15982232D01*
X655771Y-15931045D01*
X500255Y-15847920D01*
X363946Y-15736054D01*
X325000Y-15688598D01*
X325000Y-411402D01*
X363946Y-363946D01*
X411402Y-325000D01*
X99588598Y-325000D01*
X99636054Y-363946D01*
%TA.AperFunction,Conductor*%
D16*
G36*
X99636054Y-363946D02*
G01*
X99675000Y-411402D01*
X99675000Y-21821086D01*
X99650698Y-21850698D01*
X99521964Y-21956348D01*
X99375095Y-22034851D01*
X99215731Y-22083193D01*
X99045092Y-22100000D01*
X93015257Y-22100000D01*
X92836347Y-22082527D01*
X92668874Y-22032172D01*
X92514310Y-21950366D01*
X92374702Y-21837122D01*
X89641794Y-19139706D01*
X89634709Y-19133350D01*
X89487301Y-19013255D01*
X89471486Y-19002701D01*
X89304011Y-18912677D01*
X89286484Y-18905308D01*
X89104998Y-18848610D01*
X89086392Y-18844691D01*
X88897454Y-18823369D01*
X88878443Y-18823042D01*
X88688885Y-18837867D01*
X88670156Y-18841145D01*
X88486831Y-18891580D01*
X88469061Y-18898344D01*
X88298595Y-18982567D01*
X88282426Y-18992572D01*
X88130983Y-19107538D01*
X88117001Y-19120422D01*
X87990056Y-19261973D01*
X87984046Y-19269353D01*
X87665933Y-19700345D01*
X63876214Y-5001007D01*
X63874767Y-4996238D01*
X63777267Y-4813829D01*
X63646054Y-4653946D01*
X63486171Y-4522733D01*
X63303762Y-4425233D01*
X63105836Y-4365193D01*
X62951578Y-4350000D01*
X59348422Y-4350000D01*
X59194164Y-4365193D01*
X59079420Y-4400000D01*
X58800000Y-4400000D01*
X58770594Y-4401445D01*
X58575504Y-4420660D01*
X58517826Y-4432133D01*
X58330233Y-4489038D01*
X58275898Y-4511544D01*
X58103011Y-4603954D01*
X58054112Y-4636627D01*
X57902575Y-4760990D01*
X57860990Y-4802575D01*
X57736627Y-4954112D01*
X57703954Y-5003011D01*
X57611544Y-5175898D01*
X57589038Y-5230233D01*
X57532133Y-5417826D01*
X57520660Y-5475504D01*
X57501445Y-5670594D01*
X57500000Y-5700000D01*
X57500000Y-6900000D01*
X57501445Y-6929406D01*
X57520660Y-7124496D01*
X57532133Y-7182174D01*
X57589038Y-7369767D01*
X57594544Y-7383060D01*
X57571136Y-7439571D01*
X57550000Y-7545830D01*
X57550000Y-7654170D01*
X57571136Y-7760429D01*
X57612597Y-7860523D01*
X57672787Y-7950604D01*
X57749396Y-8027213D01*
X57839477Y-8087403D01*
X57939571Y-8128864D01*
X58045830Y-8150000D01*
X58154170Y-8150000D01*
X58260429Y-8128864D01*
X58316940Y-8105456D01*
X58330233Y-8110962D01*
X58517826Y-8167867D01*
X58575504Y-8179340D01*
X58770594Y-8198555D01*
X58800000Y-8200000D01*
X60785786Y-8200000D01*
X60815191Y-8198555D01*
X61010282Y-8179340D01*
X61067961Y-8167867D01*
X61255554Y-8110962D01*
X61309889Y-8088456D01*
X61482776Y-7996046D01*
X61531676Y-7963373D01*
X61683212Y-7839010D01*
X61705025Y-7819239D01*
X62919239Y-6605025D01*
X62939010Y-6583212D01*
X63056843Y-6439632D01*
X63105836Y-6434807D01*
X63137337Y-6425251D01*
X86840884Y-21071347D01*
X86435803Y-21997245D01*
X86433281Y-22003592D01*
X86410214Y-22067960D01*
X59603647Y-14913182D01*
X59577267Y-14863829D01*
X59446054Y-14703946D01*
X59286171Y-14572733D01*
X59103762Y-14475233D01*
X58905836Y-14415193D01*
X58751578Y-14400000D01*
X54400000Y-14400000D01*
X54370594Y-14401445D01*
X54175504Y-14420660D01*
X54117826Y-14432133D01*
X53930233Y-14489038D01*
X53875898Y-14511544D01*
X53703011Y-14603954D01*
X53654112Y-14636627D01*
X53502575Y-14760990D01*
X53460990Y-14802575D01*
X53336627Y-14954112D01*
X53303954Y-15003011D01*
X53211544Y-15175898D01*
X53189038Y-15230233D01*
X53132133Y-15417826D01*
X53120660Y-15475504D01*
X53101445Y-15670594D01*
X53100000Y-15700000D01*
X53100000Y-16900000D01*
X53101445Y-16929406D01*
X53120660Y-17124496D01*
X53132133Y-17182174D01*
X53189038Y-17369767D01*
X53211544Y-17424102D01*
X53257217Y-17509549D01*
X53250000Y-17545830D01*
X53250000Y-17654170D01*
X53271136Y-17760429D01*
X53312597Y-17860523D01*
X53372787Y-17950604D01*
X53449396Y-18027213D01*
X53539477Y-18087403D01*
X53639571Y-18128864D01*
X53745830Y-18150000D01*
X53854170Y-18150000D01*
X53960429Y-18128864D01*
X53972612Y-18123817D01*
X54117826Y-18167867D01*
X54175504Y-18179340D01*
X54370594Y-18198555D01*
X54400000Y-18200000D01*
X56585786Y-18200000D01*
X56615191Y-18198555D01*
X56810282Y-18179340D01*
X56867961Y-18167867D01*
X57055554Y-18110962D01*
X57109889Y-18088456D01*
X57282776Y-17996046D01*
X57331676Y-17963373D01*
X57483212Y-17839010D01*
X57505025Y-17819239D01*
X58719239Y-16605025D01*
X58739010Y-16583212D01*
X58812201Y-16494029D01*
X58905836Y-16484807D01*
X59084467Y-16430620D01*
X85969731Y-23606402D01*
X85723692Y-24475741D01*
X85721751Y-24483887D01*
X85689813Y-24648150D01*
X85688005Y-24664786D01*
X85683905Y-24832075D01*
X85684896Y-24848779D01*
X85708749Y-25014409D01*
X85710289Y-25022641D01*
X85994493Y-26254192D01*
X58504532Y-28169870D01*
X58386171Y-28072733D01*
X58203762Y-27975233D01*
X58005836Y-27915193D01*
X57851578Y-27900000D01*
X53500000Y-27900000D01*
X53470594Y-27901445D01*
X53275504Y-27920660D01*
X53217826Y-27932133D01*
X53030233Y-27989038D01*
X52975898Y-28011544D01*
X52803011Y-28103954D01*
X52754112Y-28136627D01*
X52602575Y-28260990D01*
X52560990Y-28302575D01*
X52436627Y-28454112D01*
X52403954Y-28503011D01*
X52311544Y-28675898D01*
X52289038Y-28730233D01*
X52232133Y-28917826D01*
X52220660Y-28975504D01*
X52201445Y-29170594D01*
X52200000Y-29200000D01*
X52200000Y-30400000D01*
X52201445Y-30429406D01*
X52220660Y-30624496D01*
X52232133Y-30682174D01*
X52289038Y-30869767D01*
X52311544Y-30924102D01*
X52357217Y-31009549D01*
X52350000Y-31045830D01*
X52350000Y-31154170D01*
X52371136Y-31260429D01*
X52412597Y-31360523D01*
X52472787Y-31450604D01*
X52549396Y-31527213D01*
X52639477Y-31587403D01*
X52739571Y-31628864D01*
X52845830Y-31650000D01*
X52954170Y-31650000D01*
X53060429Y-31628864D01*
X53072612Y-31623817D01*
X53217826Y-31667867D01*
X53275504Y-31679340D01*
X53470594Y-31698555D01*
X53500000Y-31700000D01*
X55685786Y-31700000D01*
X55715191Y-31698555D01*
X55910282Y-31679340D01*
X55967961Y-31667867D01*
X56155554Y-31610962D01*
X56209889Y-31588456D01*
X56382776Y-31496046D01*
X56431676Y-31463373D01*
X56583212Y-31339010D01*
X56605025Y-31319239D01*
X57819239Y-30105025D01*
X57839010Y-30083212D01*
X57912201Y-29994029D01*
X58005836Y-29984807D01*
X58203762Y-29924767D01*
X58386171Y-29827267D01*
X58446450Y-29777797D01*
X86358762Y-27832689D01*
X86382485Y-27935490D01*
X86384871Y-27944066D01*
X86440117Y-28113126D01*
X86443256Y-28121456D01*
X86794735Y-28941574D01*
X60418301Y-38533004D01*
X60403762Y-38525233D01*
X60205836Y-38465193D01*
X60051578Y-38450000D01*
X59657016Y-38450000D01*
X59615974Y-38435639D01*
X59550480Y-38420690D01*
X59383589Y-38401886D01*
X59350000Y-38400000D01*
X55900000Y-38400000D01*
X55870594Y-38401445D01*
X55675504Y-38420660D01*
X55617826Y-38432133D01*
X55430233Y-38489038D01*
X55375898Y-38511544D01*
X55203011Y-38603954D01*
X55154112Y-38636627D01*
X55002575Y-38760990D01*
X54960990Y-38802575D01*
X54836627Y-38954112D01*
X54803954Y-39003011D01*
X54711544Y-39175898D01*
X54689038Y-39230233D01*
X54632133Y-39417826D01*
X54620660Y-39475504D01*
X54601445Y-39670594D01*
X54600000Y-39700000D01*
X54600000Y-40900000D01*
X54601445Y-40929406D01*
X54620660Y-41124496D01*
X54632133Y-41182174D01*
X54689038Y-41369767D01*
X54711544Y-41424102D01*
X54757217Y-41509549D01*
X54750000Y-41545830D01*
X54750000Y-41654170D01*
X54771136Y-41760429D01*
X54812597Y-41860523D01*
X54872787Y-41950604D01*
X54949396Y-42027213D01*
X55039477Y-42087403D01*
X55139571Y-42128864D01*
X55245830Y-42150000D01*
X55354170Y-42150000D01*
X55460429Y-42128864D01*
X55472612Y-42123817D01*
X55617826Y-42167867D01*
X55675504Y-42179340D01*
X55870594Y-42198555D01*
X55900000Y-42200000D01*
X57985786Y-42200000D01*
X58015191Y-42198555D01*
X58210282Y-42179340D01*
X58267961Y-42167867D01*
X58455554Y-42110962D01*
X58509889Y-42088456D01*
X58682776Y-41996046D01*
X58731676Y-41963373D01*
X58883212Y-41839010D01*
X58905025Y-41819239D01*
X60019239Y-40705025D01*
X60039010Y-40683212D01*
X60156843Y-40539632D01*
X60205836Y-40534807D01*
X60403762Y-40474767D01*
X60586171Y-40377267D01*
X60746054Y-40246054D01*
X60877267Y-40086171D01*
X60888920Y-40064370D01*
X87680541Y-30321963D01*
X87996145Y-30637567D01*
X88003250Y-30644020D01*
X88151209Y-30765981D01*
X88167106Y-30776702D01*
X88335623Y-30868182D01*
X88353275Y-30875673D01*
X88536155Y-30933307D01*
X88554911Y-30937290D01*
X88745428Y-30958960D01*
X88764600Y-30959291D01*
X88955751Y-30944199D01*
X88974633Y-30940864D01*
X89159390Y-30889567D01*
X89177289Y-30882690D01*
X89348859Y-30797072D01*
X89365116Y-30786904D01*
X89517190Y-30670114D01*
X89524513Y-30663910D01*
X92276644Y-28095255D01*
X92413899Y-27989375D01*
X92564291Y-27913108D01*
X92726275Y-27866248D01*
X92898862Y-27850000D01*
X98995092Y-27850000D01*
X99175485Y-27867768D01*
X99344229Y-27918955D01*
X99499745Y-28002080D01*
X99636054Y-28113946D01*
X99675001Y-28161402D01*
X99675001Y-49588597D01*
X99636054Y-49636054D01*
X99588598Y-49675000D01*
X411402Y-49675000D01*
X363946Y-49636054D01*
X325000Y-49588598D01*
X325000Y-32411402D01*
X363946Y-32363946D01*
X500255Y-32252080D01*
X655771Y-32168955D01*
X824515Y-32117768D01*
X1004908Y-32100000D01*
X11872170Y-32100000D01*
X12100098Y-32127753D01*
X19628953Y-33988818D01*
X19638867Y-33990743D01*
X19838586Y-34019152D01*
X19858743Y-34019964D01*
X20060099Y-34007712D01*
X20080008Y-34004462D01*
X20274809Y-33952046D01*
X20293661Y-33944867D01*
X20378199Y-33902463D01*
X20437868Y-33962132D01*
X20454715Y-33977736D01*
X20630312Y-34128311D01*
X20667334Y-34155433D01*
X20863844Y-34277463D01*
X20904569Y-34298621D01*
X21117392Y-34389249D01*
X21138849Y-34397431D01*
X48436508Y-43626176D01*
X48452084Y-43630974D01*
X48765987Y-43718417D01*
X48797806Y-43725444D01*
X49119341Y-43778326D01*
X49151734Y-43781860D01*
X49206491Y-43784838D01*
X49139477Y-43812597D01*
X49049396Y-43872787D01*
X48972787Y-43949396D01*
X48912597Y-44039477D01*
X48871136Y-44139571D01*
X48850000Y-44245830D01*
X48850000Y-44354170D01*
X48871136Y-44460429D01*
X48912597Y-44560523D01*
X48972787Y-44650604D01*
X49049396Y-44727213D01*
X49139477Y-44787403D01*
X49239571Y-44828864D01*
X49345830Y-44850000D01*
X49454170Y-44850000D01*
X49560429Y-44828864D01*
X49660523Y-44787403D01*
X49750604Y-44727213D01*
X49827213Y-44650604D01*
X49887403Y-44560523D01*
X49928864Y-44460429D01*
X49950000Y-44354170D01*
X49950000Y-44245830D01*
X49928864Y-44139571D01*
X49887403Y-44039477D01*
X49827213Y-43949396D01*
X49750604Y-43872787D01*
X49660523Y-43812597D01*
X49625997Y-43798296D01*
X49639159Y-43797433D01*
X49794450Y-43776988D01*
X49870095Y-43756719D01*
X50014804Y-43696779D01*
X50082628Y-43657621D01*
X50206892Y-43562270D01*
X50262270Y-43506892D01*
X50357621Y-43382628D01*
X50396779Y-43314804D01*
X50456719Y-43170095D01*
X50463220Y-43145830D01*
X50950000Y-43145830D01*
X50950000Y-43254170D01*
X50971136Y-43360429D01*
X51012597Y-43460523D01*
X51072787Y-43550604D01*
X51149396Y-43627213D01*
X51239477Y-43687403D01*
X51339571Y-43728864D01*
X51445830Y-43750000D01*
X51484314Y-43750000D01*
X51592537Y-43858223D01*
X51595740Y-43861936D01*
X51606385Y-43872071D01*
X51616835Y-43882521D01*
X51620645Y-43885648D01*
X51774513Y-44032144D01*
X51781280Y-44039251D01*
X51788707Y-44045657D01*
X51795837Y-44052446D01*
X51803598Y-44058503D01*
X51968184Y-44200476D01*
X51975297Y-44207248D01*
X51983038Y-44213289D01*
X51990485Y-44219713D01*
X51998525Y-44225375D01*
X52169886Y-44359106D01*
X52177322Y-44365521D01*
X52185350Y-44371175D01*
X52193105Y-44377227D01*
X52201415Y-44382489D01*
X52379123Y-44507646D01*
X52386872Y-44513693D01*
X52395176Y-44518951D01*
X52403209Y-44524609D01*
X52411761Y-44529454D01*
X52595412Y-44645750D01*
X52603437Y-44651402D01*
X52611978Y-44656240D01*
X52620290Y-44661504D01*
X52629075Y-44665926D01*
X52818204Y-44773067D01*
X52826501Y-44778321D01*
X52835270Y-44782735D01*
X52843828Y-44787583D01*
X52852821Y-44791569D01*
X53046976Y-44889299D01*
X53055524Y-44894141D01*
X53064504Y-44898122D01*
X53073286Y-44902542D01*
X53082459Y-44906080D01*
X53281171Y-44994163D01*
X53289952Y-44998583D01*
X53299124Y-45002121D01*
X53308105Y-45006102D01*
X53317435Y-45009184D01*
X53520233Y-45087412D01*
X53529223Y-45091397D01*
X53538561Y-45094482D01*
X53547723Y-45098016D01*
X53557189Y-45100636D01*
X53763580Y-45168818D01*
X53772760Y-45172359D01*
X53782247Y-45174984D01*
X53791563Y-45178062D01*
X53801138Y-45180212D01*
X54010653Y-45238193D01*
X54019978Y-45241274D01*
X54029562Y-45243426D01*
X54039036Y-45246048D01*
X54048723Y-45247729D01*
X54260812Y-45295355D01*
X54270279Y-45297975D01*
X54279958Y-45299654D01*
X54289548Y-45301808D01*
X54299305Y-45303011D01*
X54513489Y-45340176D01*
X54523059Y-45342325D01*
X54532794Y-45343526D01*
X54542495Y-45345209D01*
X54552315Y-45345933D01*
X54768030Y-45372539D01*
X54777712Y-45374219D01*
X54787511Y-45374942D01*
X54797266Y-45376145D01*
X54807091Y-45376386D01*
X55013825Y-45391636D01*
X55049402Y-45427213D01*
X55139483Y-45487403D01*
X55239577Y-45528864D01*
X55345836Y-45550000D01*
X55454176Y-45550000D01*
X55560435Y-45528864D01*
X55660529Y-45487403D01*
X55750610Y-45427213D01*
X55827219Y-45350604D01*
X55887409Y-45260523D01*
X55928870Y-45160429D01*
X55950006Y-45054170D01*
X55950006Y-44945830D01*
X55928870Y-44839571D01*
X55887409Y-44739477D01*
X55827219Y-44649396D01*
X55750610Y-44572787D01*
X55660529Y-44512597D01*
X55560435Y-44471136D01*
X55454176Y-44450000D01*
X55345836Y-44450000D01*
X55239577Y-44471136D01*
X55139483Y-44512597D01*
X55049402Y-44572787D01*
X55031427Y-44590762D01*
X54865941Y-44578555D01*
X54650241Y-44551951D01*
X54436073Y-44514790D01*
X54224019Y-44467172D01*
X54014527Y-44409197D01*
X53808144Y-44341017D01*
X53605367Y-44262798D01*
X53406661Y-44174718D01*
X53212512Y-44076992D01*
X53023390Y-43969855D01*
X52839764Y-43853576D01*
X52686777Y-43745830D01*
X55950000Y-43745830D01*
X55950000Y-43854170D01*
X55971136Y-43960429D01*
X56012597Y-44060523D01*
X56072787Y-44150604D01*
X56149396Y-44227213D01*
X56239477Y-44287403D01*
X56339571Y-44328864D01*
X56445830Y-44350000D01*
X56554170Y-44350000D01*
X56660429Y-44328864D01*
X56760523Y-44287403D01*
X56850604Y-44227213D01*
X56927213Y-44150604D01*
X56987403Y-44060523D01*
X57028864Y-43960429D01*
X57050000Y-43854170D01*
X57050000Y-43745830D01*
X57028864Y-43639571D01*
X56987403Y-43539477D01*
X56927213Y-43449396D01*
X56850604Y-43372787D01*
X56760523Y-43312597D01*
X56660429Y-43271136D01*
X56554170Y-43250000D01*
X56445830Y-43250000D01*
X56339571Y-43271136D01*
X56239477Y-43312597D01*
X56149396Y-43372787D01*
X56072787Y-43449396D01*
X56012597Y-43539477D01*
X55971136Y-43639571D01*
X55950000Y-43745830D01*
X52686777Y-43745830D01*
X52662067Y-43728428D01*
X52490711Y-43594701D01*
X52326135Y-43452737D01*
X52165195Y-43299509D01*
X52050000Y-43184314D01*
X52050000Y-43145830D01*
X52028864Y-43039571D01*
X51987403Y-42939477D01*
X51927213Y-42849396D01*
X51850604Y-42772787D01*
X51760523Y-42712597D01*
X51660429Y-42671136D01*
X51554170Y-42650000D01*
X51445830Y-42650000D01*
X51339571Y-42671136D01*
X51239477Y-42712597D01*
X51149396Y-42772787D01*
X51072787Y-42849396D01*
X51012597Y-42939477D01*
X50971136Y-43039571D01*
X50950000Y-43145830D01*
X50463220Y-43145830D01*
X50476988Y-43094450D01*
X50497433Y-42939159D01*
X50500000Y-42900000D01*
X50500000Y-39700000D01*
X50497433Y-39660841D01*
X50476988Y-39505550D01*
X50456719Y-39429905D01*
X50396779Y-39285196D01*
X50357621Y-39217372D01*
X50262270Y-39093108D01*
X50206892Y-39037730D01*
X50082628Y-38942379D01*
X50014804Y-38903221D01*
X49870095Y-38843281D01*
X49794450Y-38823012D01*
X49639159Y-38802567D01*
X49600000Y-38800000D01*
X49536610Y-38800000D01*
X49215137Y-38781314D01*
X48906584Y-38727018D01*
X48598017Y-38634834D01*
X29761057Y-31793550D01*
X29645431Y-31736455D01*
X29558066Y-31665912D01*
X29488252Y-31577960D01*
X29439376Y-31476865D01*
X29413804Y-31367521D01*
X29412777Y-31255239D01*
X29436662Y-31143971D01*
X29487961Y-31029742D01*
X29561881Y-30926801D01*
X29654838Y-30840663D01*
X29763093Y-30774786D01*
X29882321Y-30731805D01*
X30007710Y-30713455D01*
X30149358Y-30721306D01*
X46322276Y-33260078D01*
X46345467Y-33262798D01*
X46694051Y-33289991D01*
X46639477Y-33312597D01*
X46549396Y-33372787D01*
X46472787Y-33449396D01*
X46412597Y-33539477D01*
X46371136Y-33639571D01*
X46350000Y-33745830D01*
X46350000Y-33854170D01*
X46371136Y-33960429D01*
X46412597Y-34060523D01*
X46472787Y-34150604D01*
X46549396Y-34227213D01*
X46639477Y-34287403D01*
X46739571Y-34328864D01*
X46845830Y-34350000D01*
X46954170Y-34350000D01*
X47060429Y-34328864D01*
X47160523Y-34287403D01*
X47250604Y-34227213D01*
X47327213Y-34150604D01*
X47387403Y-34060523D01*
X47428864Y-33960429D01*
X47450000Y-33854170D01*
X47450000Y-33745830D01*
X47428864Y-33639571D01*
X47387403Y-33539477D01*
X47327213Y-33449396D01*
X47250604Y-33372787D01*
X47160523Y-33312597D01*
X47130112Y-33300000D01*
X47150000Y-33300000D01*
X47189158Y-33297433D01*
X47331508Y-33278692D01*
X47407154Y-33258423D01*
X47539804Y-33203478D01*
X47607628Y-33164320D01*
X47721537Y-33076915D01*
X47776915Y-33021537D01*
X47864320Y-32907628D01*
X47903478Y-32839804D01*
X47958423Y-32707154D01*
X47974854Y-32645830D01*
X48550000Y-32645830D01*
X48550000Y-32754170D01*
X48571136Y-32860429D01*
X48612597Y-32960523D01*
X48672787Y-33050604D01*
X48749396Y-33127213D01*
X48839477Y-33187403D01*
X48939571Y-33228864D01*
X49045830Y-33250000D01*
X49084315Y-33250000D01*
X49092534Y-33258219D01*
X49095742Y-33261938D01*
X49106404Y-33272089D01*
X49116835Y-33282520D01*
X49120640Y-33285643D01*
X49274508Y-33432137D01*
X49281281Y-33439250D01*
X49288717Y-33445664D01*
X49295840Y-33452446D01*
X49303592Y-33458496D01*
X49468185Y-33600475D01*
X49475298Y-33607247D01*
X49483039Y-33613288D01*
X49490486Y-33619712D01*
X49498526Y-33625374D01*
X49669878Y-33759099D01*
X49677322Y-33765520D01*
X49685361Y-33771182D01*
X49693106Y-33777226D01*
X49701405Y-33782482D01*
X49879142Y-33907658D01*
X49886873Y-33913692D01*
X49895157Y-33918938D01*
X49903208Y-33924608D01*
X49911776Y-33929462D01*
X50095417Y-34045752D01*
X50103438Y-34051401D01*
X50111974Y-34056236D01*
X50120292Y-34061504D01*
X50129084Y-34065930D01*
X50318199Y-34173063D01*
X50326501Y-34178320D01*
X50335280Y-34182739D01*
X50343829Y-34187582D01*
X50352812Y-34191564D01*
X50546992Y-34289306D01*
X50555525Y-34294140D01*
X50564490Y-34298114D01*
X50573285Y-34302541D01*
X50582471Y-34306085D01*
X50781195Y-34394173D01*
X50789952Y-34398581D01*
X50799099Y-34402109D01*
X50808106Y-34406102D01*
X50817459Y-34409192D01*
X51020237Y-34487413D01*
X51029223Y-34491396D01*
X51038555Y-34494479D01*
X51047722Y-34498015D01*
X51057194Y-34500636D01*
X51263589Y-34568820D01*
X51272762Y-34572358D01*
X51282236Y-34574980D01*
X51291563Y-34578061D01*
X51301150Y-34580214D01*
X51510644Y-34638188D01*
X51519978Y-34641272D01*
X51529572Y-34643426D01*
X51539038Y-34646046D01*
X51548717Y-34647725D01*
X51760818Y-34695354D01*
X51770277Y-34697972D01*
X51779945Y-34699650D01*
X51789548Y-34701806D01*
X51799316Y-34703011D01*
X52013474Y-34740172D01*
X52023059Y-34742324D01*
X52032807Y-34743526D01*
X52042493Y-34745207D01*
X52052301Y-34745931D01*
X52268030Y-34772538D01*
X52277712Y-34774218D01*
X52287511Y-34774941D01*
X52297266Y-34776144D01*
X52307091Y-34776385D01*
X52523861Y-34792375D01*
X52533620Y-34793579D01*
X52543453Y-34793820D01*
X52553248Y-34794543D01*
X52563065Y-34794302D01*
X52617830Y-34795647D01*
X52649396Y-34827213D01*
X52739477Y-34887403D01*
X52839571Y-34928864D01*
X52945830Y-34950000D01*
X53054170Y-34950000D01*
X53160429Y-34928864D01*
X53260523Y-34887403D01*
X53350604Y-34827213D01*
X53427213Y-34750604D01*
X53487403Y-34660523D01*
X53528864Y-34560429D01*
X53550000Y-34454170D01*
X53550000Y-34345830D01*
X53528864Y-34239571D01*
X53487403Y-34139477D01*
X53427213Y-34049396D01*
X53350604Y-33972787D01*
X53260523Y-33912597D01*
X53160429Y-33871136D01*
X53054170Y-33850000D01*
X52945830Y-33850000D01*
X52839571Y-33871136D01*
X52739477Y-33912597D01*
X52649396Y-33972787D01*
X52626562Y-33995621D01*
X52582711Y-33994544D01*
X52365941Y-33978554D01*
X52150230Y-33951949D01*
X51936091Y-33914792D01*
X51724012Y-33867168D01*
X51514530Y-33809197D01*
X51308146Y-33741017D01*
X51105356Y-33662792D01*
X50906662Y-33574717D01*
X50712506Y-33476987D01*
X50523383Y-33369850D01*
X50339762Y-33253573D01*
X50257774Y-33195830D01*
X53700000Y-33195830D01*
X53700000Y-33304170D01*
X53721136Y-33410429D01*
X53762597Y-33510523D01*
X53822787Y-33600604D01*
X53899396Y-33677213D01*
X53989477Y-33737403D01*
X54089571Y-33778864D01*
X54195830Y-33800000D01*
X54304170Y-33800000D01*
X54410429Y-33778864D01*
X54510523Y-33737403D01*
X54600604Y-33677213D01*
X54677213Y-33600604D01*
X54737403Y-33510523D01*
X54778864Y-33410429D01*
X54800000Y-33304170D01*
X54800000Y-33195830D01*
X54778864Y-33089571D01*
X54737403Y-32989477D01*
X54677213Y-32899396D01*
X54600604Y-32822787D01*
X54510523Y-32762597D01*
X54410429Y-32721136D01*
X54304170Y-32700000D01*
X54195830Y-32700000D01*
X54089571Y-32721136D01*
X53989477Y-32762597D01*
X53899396Y-32822787D01*
X53822787Y-32899396D01*
X53762597Y-32989477D01*
X53721136Y-33089571D01*
X53700000Y-33195830D01*
X50257774Y-33195830D01*
X50162060Y-33128420D01*
X49990712Y-32994700D01*
X49826135Y-32852735D01*
X49665170Y-32699485D01*
X49650000Y-32684315D01*
X49650000Y-32645830D01*
X49628864Y-32539571D01*
X49587403Y-32439477D01*
X49527213Y-32349396D01*
X49450604Y-32272787D01*
X49360523Y-32212597D01*
X49260429Y-32171136D01*
X49154170Y-32150000D01*
X49045830Y-32150000D01*
X48939571Y-32171136D01*
X48839477Y-32212597D01*
X48749396Y-32272787D01*
X48672787Y-32349396D01*
X48612597Y-32439477D01*
X48571136Y-32539571D01*
X48550000Y-32645830D01*
X47974854Y-32645830D01*
X47978692Y-32631508D01*
X47997433Y-32489158D01*
X48000000Y-32450000D01*
X48000000Y-29050000D01*
X47997433Y-29010842D01*
X47978692Y-28868492D01*
X47958423Y-28792846D01*
X47903478Y-28660196D01*
X47864320Y-28592372D01*
X47776915Y-28478463D01*
X47721537Y-28423085D01*
X47607628Y-28335680D01*
X47539804Y-28296522D01*
X47407154Y-28241577D01*
X47331508Y-28221308D01*
X47189158Y-28202567D01*
X47150000Y-28200000D01*
X46808007Y-28200000D01*
X46433253Y-28175252D01*
X27946932Y-25722985D01*
X27787018Y-25684755D01*
X27652303Y-25621298D01*
X27533386Y-25531686D01*
X27435259Y-25419682D01*
X27362060Y-25290007D01*
X27316869Y-25148120D01*
X27301493Y-24999042D01*
X27316658Y-24842267D01*
X27361866Y-24690383D01*
X27435347Y-24549982D01*
X27534381Y-24426264D01*
X27655285Y-24323827D01*
X27793590Y-24246459D01*
X27957974Y-24192500D01*
X30839872Y-23545830D01*
X47262500Y-23545830D01*
X47262500Y-23654170D01*
X47283636Y-23760429D01*
X47325097Y-23860523D01*
X47385287Y-23950604D01*
X47461896Y-24027213D01*
X47551977Y-24087403D01*
X47652071Y-24128864D01*
X47758330Y-24150000D01*
X47866670Y-24150000D01*
X47972929Y-24128864D01*
X48073023Y-24087403D01*
X48163104Y-24027213D01*
X48239713Y-23950604D01*
X48299903Y-23860523D01*
X48341364Y-23760429D01*
X48362500Y-23654170D01*
X48362500Y-23545830D01*
X48850000Y-23545830D01*
X48850000Y-23654170D01*
X48871136Y-23760429D01*
X48912597Y-23860523D01*
X48972787Y-23950604D01*
X49049396Y-24027213D01*
X49139477Y-24087403D01*
X49239571Y-24128864D01*
X49345830Y-24150000D01*
X49454170Y-24150000D01*
X49560429Y-24128864D01*
X49660523Y-24087403D01*
X49750604Y-24027213D01*
X49827213Y-23950604D01*
X49887403Y-23860523D01*
X49928864Y-23760429D01*
X49950000Y-23654170D01*
X49950000Y-23545830D01*
X49928864Y-23439571D01*
X49887403Y-23339477D01*
X49827213Y-23249396D01*
X49800000Y-23222183D01*
X49800000Y-22665685D01*
X51465686Y-21000000D01*
X53474623Y-21000000D01*
X53488521Y-21001771D01*
X53513919Y-21000000D01*
X53519647Y-21000000D01*
X53533536Y-20998632D01*
X53567123Y-20996290D01*
X53572677Y-20994777D01*
X53578414Y-20994212D01*
X53610668Y-20984428D01*
X53643145Y-20975581D01*
X53648297Y-20973013D01*
X53653814Y-20971340D01*
X53683537Y-20955453D01*
X53713667Y-20940438D01*
X53718221Y-20936914D01*
X53723303Y-20934197D01*
X53749359Y-20912813D01*
X53760365Y-20904295D01*
X53764519Y-20900372D01*
X53784211Y-20884211D01*
X53793104Y-20873375D01*
X54361207Y-20336835D01*
X54353841Y-20365476D01*
X54352992Y-20380786D01*
X54350000Y-20395830D01*
X54350000Y-20434772D01*
X54347845Y-20473650D01*
X54350000Y-20488834D01*
X54350000Y-20504170D01*
X54357598Y-20542370D01*
X54363069Y-20580915D01*
X54368143Y-20595382D01*
X54371136Y-20610429D01*
X54386040Y-20646411D01*
X54398926Y-20683150D01*
X54406728Y-20696353D01*
X54412597Y-20710523D01*
X54434237Y-20742909D01*
X54454040Y-20776424D01*
X54464263Y-20787847D01*
X54472787Y-20800604D01*
X54500330Y-20828147D01*
X54526291Y-20857155D01*
X54538549Y-20866366D01*
X54549396Y-20877213D01*
X54581786Y-20898855D01*
X54612904Y-20922238D01*
X54626721Y-20928880D01*
X54639477Y-20937403D01*
X54675458Y-20952307D01*
X54710549Y-20969175D01*
X54725401Y-20972994D01*
X54739571Y-20978864D01*
X54777774Y-20986463D01*
X54789183Y-20989397D01*
X54804238Y-20991727D01*
X54845830Y-21000000D01*
X54857695Y-21000000D01*
X84204235Y-25541726D01*
X84245830Y-25550000D01*
X84284776Y-25550000D01*
X84323650Y-25552155D01*
X84338834Y-25550000D01*
X84354170Y-25550000D01*
X84392370Y-25542402D01*
X84430915Y-25536931D01*
X84445382Y-25531857D01*
X84460429Y-25528864D01*
X84496411Y-25513960D01*
X84533150Y-25501074D01*
X84546353Y-25493272D01*
X84560523Y-25487403D01*
X84592909Y-25465763D01*
X84626424Y-25445960D01*
X84637847Y-25435737D01*
X84650604Y-25427213D01*
X84678147Y-25399670D01*
X84707155Y-25373709D01*
X84716366Y-25361451D01*
X84727213Y-25350604D01*
X84748855Y-25318214D01*
X84772238Y-25287096D01*
X84778880Y-25273279D01*
X84787403Y-25260523D01*
X84802307Y-25224542D01*
X84819175Y-25189451D01*
X84822994Y-25174599D01*
X84828864Y-25160429D01*
X84836462Y-25122230D01*
X84846159Y-25084524D01*
X84847008Y-25069214D01*
X84850000Y-25054170D01*
X84850000Y-25015228D01*
X84852155Y-24976350D01*
X84850000Y-24961166D01*
X84850000Y-24945830D01*
X84842402Y-24907632D01*
X84836931Y-24869084D01*
X84831857Y-24854616D01*
X84828864Y-24839571D01*
X84813962Y-24803595D01*
X84801074Y-24766849D01*
X84793271Y-24753643D01*
X84787403Y-24739477D01*
X84765769Y-24707099D01*
X84745960Y-24673575D01*
X84735734Y-24662149D01*
X84727213Y-24649396D01*
X84699678Y-24621861D01*
X84673709Y-24592844D01*
X84661447Y-24583630D01*
X84650604Y-24572787D01*
X84618226Y-24551153D01*
X84587096Y-24527761D01*
X84573274Y-24521117D01*
X84560523Y-24512597D01*
X84524557Y-24497699D01*
X84489451Y-24480824D01*
X84474593Y-24477003D01*
X84460429Y-24471136D01*
X84422244Y-24463541D01*
X84410817Y-24460602D01*
X84395739Y-24458269D01*
X84354170Y-24450000D01*
X84342312Y-24450000D01*
X55403611Y-19971393D01*
X55428864Y-19910429D01*
X55450000Y-19804170D01*
X55450000Y-19695830D01*
X55428864Y-19589571D01*
X55387403Y-19489477D01*
X55327213Y-19399396D01*
X55250604Y-19322787D01*
X55160523Y-19262597D01*
X55060429Y-19221136D01*
X54954170Y-19200000D01*
X54845830Y-19200000D01*
X54739571Y-19221136D01*
X54639477Y-19262597D01*
X54549396Y-19322787D01*
X54522183Y-19350000D01*
X54425377Y-19350000D01*
X54411479Y-19348229D01*
X54386081Y-19350000D01*
X54380353Y-19350000D01*
X54366465Y-19351368D01*
X54332876Y-19353710D01*
X54327321Y-19355223D01*
X54321586Y-19355788D01*
X54289341Y-19365569D01*
X54256854Y-19374419D01*
X54251700Y-19376987D01*
X54246186Y-19378660D01*
X54216477Y-19394540D01*
X54186332Y-19409562D01*
X54181776Y-19413088D01*
X54176697Y-19415803D01*
X54150657Y-19437173D01*
X54139634Y-19445705D01*
X54135474Y-19449634D01*
X54115789Y-19465789D01*
X54106899Y-19476621D01*
X53340969Y-20200000D01*
X51319647Y-20200000D01*
X51300000Y-20198065D01*
X51221586Y-20205788D01*
X51146186Y-20228660D01*
X51076697Y-20265803D01*
X51031049Y-20303265D01*
X51031047Y-20303267D01*
X51015789Y-20315789D01*
X51003267Y-20331047D01*
X49131048Y-22203267D01*
X49115790Y-22215789D01*
X49103268Y-22231047D01*
X49103265Y-22231050D01*
X49065803Y-22276698D01*
X49028661Y-22346186D01*
X49005788Y-22421587D01*
X48998065Y-22500000D01*
X49000001Y-22519656D01*
X49000000Y-23222183D01*
X48972787Y-23249396D01*
X48912597Y-23339477D01*
X48871136Y-23439571D01*
X48850000Y-23545830D01*
X48362500Y-23545830D01*
X48341364Y-23439571D01*
X48299903Y-23339477D01*
X48239713Y-23249396D01*
X48163104Y-23172787D01*
X48073023Y-23112597D01*
X47972929Y-23071136D01*
X47866670Y-23050000D01*
X47758330Y-23050000D01*
X47652071Y-23071136D01*
X47551977Y-23112597D01*
X47461896Y-23172787D01*
X47385287Y-23249396D01*
X47325097Y-23339477D01*
X47283636Y-23439571D01*
X47262500Y-23545830D01*
X30839872Y-23545830D01*
X38415958Y-21845830D01*
X45637500Y-21845830D01*
X45637500Y-21954170D01*
X45658636Y-22060429D01*
X45700097Y-22160523D01*
X45760287Y-22250604D01*
X45836896Y-22327213D01*
X45926977Y-22387403D01*
X46027071Y-22428864D01*
X46133330Y-22450000D01*
X46241670Y-22450000D01*
X46347929Y-22428864D01*
X46448023Y-22387403D01*
X46538104Y-22327213D01*
X46614713Y-22250604D01*
X46674903Y-22160523D01*
X46716364Y-22060429D01*
X46737500Y-21954170D01*
X46737500Y-21858330D01*
X47262500Y-21858330D01*
X47262500Y-21966670D01*
X47283636Y-22072929D01*
X47325097Y-22173023D01*
X47385287Y-22263104D01*
X47461896Y-22339713D01*
X47551977Y-22399903D01*
X47652071Y-22441364D01*
X47758330Y-22462500D01*
X47866670Y-22462500D01*
X47972929Y-22441364D01*
X48073023Y-22399903D01*
X48163104Y-22339713D01*
X48239713Y-22263104D01*
X48299903Y-22173023D01*
X48341364Y-22072929D01*
X48362500Y-21966670D01*
X48362500Y-21858330D01*
X48341364Y-21752071D01*
X48299903Y-21651977D01*
X48239713Y-21561896D01*
X48163104Y-21485287D01*
X48073023Y-21425097D01*
X47972929Y-21383636D01*
X47866670Y-21362500D01*
X47758330Y-21362500D01*
X47652071Y-21383636D01*
X47551977Y-21425097D01*
X47461896Y-21485287D01*
X47385287Y-21561896D01*
X47325097Y-21651977D01*
X47283636Y-21752071D01*
X47262500Y-21858330D01*
X46737500Y-21858330D01*
X46737500Y-21845830D01*
X46716364Y-21739571D01*
X46674903Y-21639477D01*
X46614713Y-21549396D01*
X46538104Y-21472787D01*
X46448023Y-21412597D01*
X46347929Y-21371136D01*
X46241670Y-21350000D01*
X46133330Y-21350000D01*
X46027071Y-21371136D01*
X45926977Y-21412597D01*
X45836896Y-21472787D01*
X45760287Y-21549396D01*
X45700097Y-21639477D01*
X45658636Y-21739571D01*
X45637500Y-21845830D01*
X38415958Y-21845830D01*
X47233226Y-19867321D01*
X47535115Y-19816882D01*
X47840726Y-19800000D01*
X48050000Y-19800000D01*
X48089158Y-19797433D01*
X48231508Y-19778692D01*
X48307154Y-19758423D01*
X48439804Y-19703478D01*
X48507628Y-19664320D01*
X48621537Y-19576915D01*
X48676915Y-19521537D01*
X48764320Y-19407628D01*
X48803478Y-19339804D01*
X48858423Y-19207154D01*
X48878692Y-19131508D01*
X48897433Y-18989158D01*
X48900000Y-18950000D01*
X48900000Y-15550000D01*
X48897433Y-15510842D01*
X48878692Y-15368492D01*
X48858423Y-15292846D01*
X48803478Y-15160196D01*
X48764320Y-15092372D01*
X48676915Y-14978463D01*
X48621537Y-14923085D01*
X48507628Y-14835680D01*
X48439804Y-14796522D01*
X48307154Y-14741577D01*
X48231508Y-14721308D01*
X48089158Y-14702567D01*
X48050000Y-14700000D01*
X47927925Y-14700000D01*
X47906690Y-14700752D01*
X47483053Y-14730814D01*
X47441008Y-14736812D01*
X47025861Y-14826396D01*
X47005263Y-14831611D01*
X30097161Y-19755399D01*
X29942507Y-19782769D01*
X29801910Y-19776968D01*
X29665836Y-19741110D01*
X29540643Y-19676875D01*
X29432160Y-19587253D01*
X29345450Y-19476426D01*
X29284651Y-19349753D01*
X29253063Y-19214672D01*
X29251598Y-19076163D01*
X29280281Y-18940646D01*
X29337737Y-18814609D01*
X29421222Y-18704074D01*
X29526738Y-18614334D01*
X29663876Y-18541953D01*
X51589866Y-9884481D01*
X51907472Y-9781557D01*
X51948417Y-9773766D01*
X51872787Y-9849396D01*
X51812597Y-9939477D01*
X51771136Y-10039571D01*
X51750000Y-10145830D01*
X51750000Y-10254170D01*
X51771136Y-10360429D01*
X51812597Y-10460523D01*
X51872787Y-10550604D01*
X51949396Y-10627213D01*
X52039477Y-10687403D01*
X52139571Y-10728864D01*
X52245830Y-10750000D01*
X52354170Y-10750000D01*
X52460429Y-10728864D01*
X52560523Y-10687403D01*
X52650604Y-10627213D01*
X52727213Y-10550604D01*
X52787403Y-10460523D01*
X52828864Y-10360429D01*
X52850000Y-10254170D01*
X52850000Y-10145830D01*
X52828864Y-10039571D01*
X52787403Y-9939477D01*
X52727213Y-9849396D01*
X52650604Y-9772787D01*
X52560523Y-9712597D01*
X52533966Y-9701597D01*
X52568790Y-9699411D01*
X52589158Y-9697433D01*
X52731508Y-9678692D01*
X52807154Y-9658423D01*
X52939804Y-9603478D01*
X53007628Y-9564320D01*
X53121537Y-9476915D01*
X53176915Y-9421537D01*
X53264320Y-9307628D01*
X53303478Y-9239804D01*
X53358423Y-9107154D01*
X53374854Y-9045830D01*
X53850000Y-9045830D01*
X53850000Y-9154170D01*
X53871136Y-9260429D01*
X53912597Y-9360523D01*
X53972787Y-9450604D01*
X54049396Y-9527213D01*
X54139477Y-9587403D01*
X54239571Y-9628864D01*
X54345830Y-9650000D01*
X54384314Y-9650000D01*
X54492537Y-9758223D01*
X54495740Y-9761936D01*
X54506385Y-9772071D01*
X54516835Y-9782521D01*
X54520645Y-9785648D01*
X54674513Y-9932144D01*
X54681280Y-9939251D01*
X54688707Y-9945657D01*
X54695837Y-9952446D01*
X54703598Y-9958503D01*
X54868184Y-10100476D01*
X54875297Y-10107248D01*
X54883038Y-10113289D01*
X54890485Y-10119713D01*
X54898525Y-10125375D01*
X55069886Y-10259106D01*
X55077322Y-10265521D01*
X55085350Y-10271175D01*
X55093105Y-10277227D01*
X55101415Y-10282489D01*
X55279123Y-10407646D01*
X55286872Y-10413693D01*
X55295176Y-10418951D01*
X55303209Y-10424609D01*
X55311761Y-10429454D01*
X55495412Y-10545750D01*
X55503437Y-10551402D01*
X55511978Y-10556240D01*
X55520290Y-10561504D01*
X55529075Y-10565926D01*
X55718204Y-10673067D01*
X55726501Y-10678321D01*
X55735270Y-10682735D01*
X55743828Y-10687583D01*
X55752821Y-10691569D01*
X55946976Y-10789299D01*
X55955524Y-10794141D01*
X55964504Y-10798122D01*
X55973286Y-10802542D01*
X55982459Y-10806080D01*
X56181171Y-10894163D01*
X56189952Y-10898583D01*
X56199124Y-10902121D01*
X56208105Y-10906102D01*
X56217435Y-10909184D01*
X56420233Y-10987412D01*
X56429223Y-10991397D01*
X56438561Y-10994482D01*
X56447723Y-10998016D01*
X56457189Y-11000636D01*
X56663580Y-11068818D01*
X56672760Y-11072359D01*
X56682247Y-11074984D01*
X56691563Y-11078062D01*
X56701138Y-11080212D01*
X56910653Y-11138193D01*
X56919978Y-11141274D01*
X56929562Y-11143426D01*
X56939036Y-11146048D01*
X56948723Y-11147729D01*
X57160812Y-11195355D01*
X57170279Y-11197975D01*
X57179958Y-11199654D01*
X57189548Y-11201808D01*
X57199305Y-11203011D01*
X57413489Y-11240176D01*
X57423059Y-11242325D01*
X57432794Y-11243526D01*
X57442495Y-11245209D01*
X57452315Y-11245933D01*
X57668030Y-11272539D01*
X57677712Y-11274219D01*
X57687511Y-11274942D01*
X57697266Y-11276145D01*
X57707091Y-11276386D01*
X57913818Y-11291635D01*
X57949396Y-11327213D01*
X58039477Y-11387403D01*
X58139571Y-11428864D01*
X58245830Y-11450000D01*
X58354170Y-11450000D01*
X58460429Y-11428864D01*
X58560523Y-11387403D01*
X58650604Y-11327213D01*
X58727213Y-11250604D01*
X58787403Y-11160523D01*
X58828864Y-11060429D01*
X58850000Y-10954170D01*
X58850000Y-10845830D01*
X58828864Y-10739571D01*
X58787403Y-10639477D01*
X58727213Y-10549396D01*
X58650604Y-10472787D01*
X58560523Y-10412597D01*
X58460429Y-10371136D01*
X58354170Y-10350000D01*
X58245830Y-10350000D01*
X58139571Y-10371136D01*
X58039477Y-10412597D01*
X57949396Y-10472787D01*
X57931421Y-10490762D01*
X57765941Y-10478555D01*
X57550241Y-10451951D01*
X57336073Y-10414790D01*
X57124019Y-10367172D01*
X56914527Y-10309197D01*
X56708144Y-10241017D01*
X56505367Y-10162798D01*
X56306661Y-10074718D01*
X56112512Y-9976992D01*
X55923390Y-9869855D01*
X55739764Y-9753576D01*
X55586777Y-9645830D01*
X59000000Y-9645830D01*
X59000000Y-9754170D01*
X59021136Y-9860429D01*
X59062597Y-9960523D01*
X59122787Y-10050604D01*
X59199396Y-10127213D01*
X59289477Y-10187403D01*
X59389571Y-10228864D01*
X59495830Y-10250000D01*
X59604170Y-10250000D01*
X59710429Y-10228864D01*
X59810523Y-10187403D01*
X59900604Y-10127213D01*
X59977213Y-10050604D01*
X60037403Y-9960523D01*
X60078864Y-9860429D01*
X60100000Y-9754170D01*
X60100000Y-9645830D01*
X60078864Y-9539571D01*
X60037403Y-9439477D01*
X59977213Y-9349396D01*
X59900604Y-9272787D01*
X59810523Y-9212597D01*
X59710429Y-9171136D01*
X59604170Y-9150000D01*
X59495830Y-9150000D01*
X59389571Y-9171136D01*
X59289477Y-9212597D01*
X59199396Y-9272787D01*
X59122787Y-9349396D01*
X59062597Y-9439477D01*
X59021136Y-9539571D01*
X59000000Y-9645830D01*
X55586777Y-9645830D01*
X55562067Y-9628428D01*
X55390711Y-9494701D01*
X55226135Y-9352737D01*
X55065195Y-9199509D01*
X54950000Y-9084314D01*
X54950000Y-9045830D01*
X54928864Y-8939571D01*
X54887403Y-8839477D01*
X54827213Y-8749396D01*
X54750604Y-8672787D01*
X54660523Y-8612597D01*
X54560429Y-8571136D01*
X54454170Y-8550000D01*
X54345830Y-8550000D01*
X54239571Y-8571136D01*
X54139477Y-8612597D01*
X54049396Y-8672787D01*
X53972787Y-8749396D01*
X53912597Y-8839477D01*
X53871136Y-8939571D01*
X53850000Y-9045830D01*
X53374854Y-9045830D01*
X53378692Y-9031508D01*
X53397433Y-8889158D01*
X53400000Y-8850000D01*
X53400000Y-5550000D01*
X53397433Y-5510842D01*
X53378692Y-5368492D01*
X53358423Y-5292846D01*
X53303478Y-5160196D01*
X53264320Y-5092372D01*
X53176915Y-4978463D01*
X53121537Y-4923085D01*
X53007628Y-4835680D01*
X52939804Y-4796522D01*
X52807154Y-4741577D01*
X52731508Y-4721308D01*
X52589158Y-4702567D01*
X52550000Y-4700000D01*
X52514917Y-4700000D01*
X52497928Y-4700481D01*
X52158690Y-4719723D01*
X52124929Y-4723566D01*
X51790042Y-4781046D01*
X51756933Y-4788681D01*
X51430695Y-4883660D01*
X51414518Y-4888871D01*
X21133282Y-15599276D01*
X21112579Y-15607475D01*
X20900583Y-15700677D01*
X20861285Y-15721560D01*
X20665409Y-15845097D01*
X20629632Y-15871563D01*
X20454186Y-16022718D01*
X20418096Y-16059683D01*
X20346311Y-16147154D01*
X20233904Y-16087320D01*
X20215847Y-16079869D01*
X20028853Y-16023356D01*
X20009690Y-16019558D01*
X19815277Y-16000478D01*
X19805510Y-16000000D01*
X1004908Y-16000000D01*
X824515Y-15982232D01*
X655771Y-15931045D01*
X500255Y-15847920D01*
X363946Y-15736054D01*
X325000Y-15688598D01*
X325000Y-411402D01*
X363946Y-363946D01*
X411402Y-325000D01*
X99588598Y-325000D01*
X99636054Y-363946D01*
G37*
%TD.AperFunction*%
%TD*%
D15*
%TO.N,/VOUT*%
X59488451Y-38843403D02*
X59619960Y-38889419D01*
X59737930Y-38963545D01*
X59836455Y-39062070D01*
X59910581Y-39180040D01*
X59956597Y-39311549D01*
X59973000Y-39457128D01*
X59973000Y-39779552D01*
X59955624Y-39955976D01*
X59905978Y-40119637D01*
X59825363Y-40270458D01*
X59712898Y-40407496D01*
X58607496Y-41512898D01*
X58470458Y-41625363D01*
X58319637Y-41705978D01*
X58155976Y-41755624D01*
X57979552Y-41773000D01*
X55906234Y-41773000D01*
X55729811Y-41755624D01*
X55566150Y-41705978D01*
X55415328Y-41625362D01*
X55283130Y-41516870D01*
X55174638Y-41384672D01*
X55094022Y-41233850D01*
X55044376Y-41070189D01*
X55027000Y-40893766D01*
X55027000Y-39706234D01*
X55044376Y-39529811D01*
X55094022Y-39366150D01*
X55174638Y-39215328D01*
X55283130Y-39083130D01*
X55415328Y-38974638D01*
X55566150Y-38894022D01*
X55729811Y-38844376D01*
X55906234Y-38827000D01*
X59342872Y-38827000D01*
X59488451Y-38843403D01*
%TA.AperFunction,Conductor*%
D16*
G36*
X59488451Y-38843403D02*
G01*
X59619960Y-38889419D01*
X59737930Y-38963545D01*
X59836455Y-39062070D01*
X59910581Y-39180040D01*
X59956597Y-39311549D01*
X59973000Y-39457128D01*
X59973000Y-39779552D01*
X59955624Y-39955976D01*
X59905978Y-40119637D01*
X59825363Y-40270458D01*
X59712898Y-40407496D01*
X58607496Y-41512898D01*
X58470458Y-41625363D01*
X58319637Y-41705978D01*
X58155976Y-41755624D01*
X57979552Y-41773000D01*
X55906234Y-41773000D01*
X55729811Y-41755624D01*
X55566150Y-41705978D01*
X55415328Y-41625362D01*
X55283130Y-41516870D01*
X55174638Y-41384672D01*
X55094022Y-41233850D01*
X55044376Y-41070189D01*
X55027000Y-40893766D01*
X55027000Y-39706234D01*
X55044376Y-39529811D01*
X55094022Y-39366150D01*
X55174638Y-39215328D01*
X55283130Y-39083130D01*
X55415328Y-38974638D01*
X55566150Y-38894022D01*
X55729811Y-38844376D01*
X55906234Y-38827000D01*
X59342872Y-38827000D01*
X59488451Y-38843403D01*
G37*
%TD.AperFunction*%
%TD*%
D15*
%TO.N,/VOUT*%
X57327324Y-28342149D02*
X57448267Y-28384469D01*
X57556756Y-28452637D01*
X57647363Y-28543244D01*
X57715531Y-28651733D01*
X57757851Y-28772676D01*
X57773000Y-28907127D01*
X57773000Y-29179552D01*
X57755624Y-29355976D01*
X57705978Y-29519637D01*
X57625363Y-29670458D01*
X57512898Y-29807496D01*
X56307496Y-31012898D01*
X56170458Y-31125363D01*
X56019637Y-31205978D01*
X55855976Y-31255624D01*
X55679552Y-31273000D01*
X53506234Y-31273000D01*
X53329811Y-31255624D01*
X53166150Y-31205978D01*
X53015328Y-31125362D01*
X52883130Y-31016870D01*
X52774638Y-30884672D01*
X52694022Y-30733850D01*
X52644376Y-30570189D01*
X52627000Y-30393766D01*
X52627000Y-29206234D01*
X52644376Y-29029811D01*
X52694022Y-28866150D01*
X52774638Y-28715328D01*
X52883130Y-28583130D01*
X53015328Y-28474638D01*
X53166150Y-28394022D01*
X53329811Y-28344376D01*
X53506234Y-28327000D01*
X57192873Y-28327000D01*
X57327324Y-28342149D01*
%TA.AperFunction,Conductor*%
D16*
G36*
X57327324Y-28342149D02*
G01*
X57448267Y-28384469D01*
X57556756Y-28452637D01*
X57647363Y-28543244D01*
X57715531Y-28651733D01*
X57757851Y-28772676D01*
X57773000Y-28907127D01*
X57773000Y-29179552D01*
X57755624Y-29355976D01*
X57705978Y-29519637D01*
X57625363Y-29670458D01*
X57512898Y-29807496D01*
X56307496Y-31012898D01*
X56170458Y-31125363D01*
X56019637Y-31205978D01*
X55855976Y-31255624D01*
X55679552Y-31273000D01*
X53506234Y-31273000D01*
X53329811Y-31255624D01*
X53166150Y-31205978D01*
X53015328Y-31125362D01*
X52883130Y-31016870D01*
X52774638Y-30884672D01*
X52694022Y-30733850D01*
X52644376Y-30570189D01*
X52627000Y-30393766D01*
X52627000Y-29206234D01*
X52644376Y-29029811D01*
X52694022Y-28866150D01*
X52774638Y-28715328D01*
X52883130Y-28583130D01*
X53015328Y-28474638D01*
X53166150Y-28394022D01*
X53329811Y-28344376D01*
X53506234Y-28327000D01*
X57192873Y-28327000D01*
X57327324Y-28342149D01*
G37*
%TD.AperFunction*%
%TD*%
D15*
%TO.N,/VOUT*%
X58227324Y-14842149D02*
X58348267Y-14884469D01*
X58456756Y-14952637D01*
X58547363Y-15043244D01*
X58615531Y-15151733D01*
X58657851Y-15272676D01*
X58673000Y-15407127D01*
X58673000Y-15679552D01*
X58655624Y-15855976D01*
X58605978Y-16019637D01*
X58535827Y-16150880D01*
X58434485Y-16130722D01*
X58320825Y-16130722D01*
X58209350Y-16152896D01*
X58104343Y-16196391D01*
X58009839Y-16259537D01*
X57929470Y-16339906D01*
X57866324Y-16434410D01*
X57822829Y-16539417D01*
X57800655Y-16650892D01*
X57800655Y-16764552D01*
X57822829Y-16876027D01*
X57829137Y-16891257D01*
X57207496Y-17512898D01*
X57070458Y-17625363D01*
X56919637Y-17705978D01*
X56755976Y-17755624D01*
X56579552Y-17773000D01*
X54406234Y-17773000D01*
X54229811Y-17755624D01*
X54066150Y-17705978D01*
X53915328Y-17625362D01*
X53783130Y-17516870D01*
X53674638Y-17384672D01*
X53594022Y-17233850D01*
X53544376Y-17070189D01*
X53527000Y-16893766D01*
X53527000Y-15706234D01*
X53544376Y-15529811D01*
X53594022Y-15366150D01*
X53674638Y-15215328D01*
X53783130Y-15083130D01*
X53915328Y-14974638D01*
X54066150Y-14894022D01*
X54229811Y-14844376D01*
X54406234Y-14827000D01*
X58092873Y-14827000D01*
X58227324Y-14842149D01*
%TA.AperFunction,Conductor*%
D16*
G36*
X58227324Y-14842149D02*
G01*
X58348267Y-14884469D01*
X58456756Y-14952637D01*
X58547363Y-15043244D01*
X58615531Y-15151733D01*
X58657851Y-15272676D01*
X58673000Y-15407127D01*
X58673000Y-15679552D01*
X58655624Y-15855976D01*
X58605978Y-16019637D01*
X58535827Y-16150880D01*
X58434485Y-16130722D01*
X58320825Y-16130722D01*
X58209350Y-16152896D01*
X58104343Y-16196391D01*
X58009839Y-16259537D01*
X57929470Y-16339906D01*
X57866324Y-16434410D01*
X57822829Y-16539417D01*
X57800655Y-16650892D01*
X57800655Y-16764552D01*
X57822829Y-16876027D01*
X57829137Y-16891257D01*
X57207496Y-17512898D01*
X57070458Y-17625363D01*
X56919637Y-17705978D01*
X56755976Y-17755624D01*
X56579552Y-17773000D01*
X54406234Y-17773000D01*
X54229811Y-17755624D01*
X54066150Y-17705978D01*
X53915328Y-17625362D01*
X53783130Y-17516870D01*
X53674638Y-17384672D01*
X53594022Y-17233850D01*
X53544376Y-17070189D01*
X53527000Y-16893766D01*
X53527000Y-15706234D01*
X53544376Y-15529811D01*
X53594022Y-15366150D01*
X53674638Y-15215328D01*
X53783130Y-15083130D01*
X53915328Y-14974638D01*
X54066150Y-14894022D01*
X54229811Y-14844376D01*
X54406234Y-14827000D01*
X58092873Y-14827000D01*
X58227324Y-14842149D01*
G37*
%TD.AperFunction*%
%TD*%
D15*
%TO.N,/VOUT*%
X62427324Y-4842149D02*
X62548267Y-4884469D01*
X62656756Y-4952637D01*
X62747363Y-5043244D01*
X62815531Y-5151733D01*
X62857851Y-5272676D01*
X62873000Y-5407127D01*
X62873000Y-5679552D01*
X62855624Y-5855976D01*
X62805978Y-6019637D01*
X62725363Y-6170458D01*
X62612898Y-6307496D01*
X61407496Y-7512898D01*
X61270458Y-7625363D01*
X61119637Y-7705978D01*
X60955976Y-7755624D01*
X60779552Y-7773000D01*
X58806234Y-7773000D01*
X58629811Y-7755624D01*
X58466150Y-7705978D01*
X58315328Y-7625362D01*
X58183130Y-7516870D01*
X58074638Y-7384672D01*
X57994022Y-7233850D01*
X57944376Y-7070189D01*
X57927000Y-6893766D01*
X57927000Y-5706234D01*
X57944376Y-5529811D01*
X57994022Y-5366150D01*
X58074638Y-5215328D01*
X58183130Y-5083130D01*
X58315328Y-4974638D01*
X58466150Y-4894022D01*
X58629811Y-4844376D01*
X58806234Y-4827000D01*
X62292873Y-4827000D01*
X62427324Y-4842149D01*
%TA.AperFunction,Conductor*%
D16*
G36*
X62427324Y-4842149D02*
G01*
X62548267Y-4884469D01*
X62656756Y-4952637D01*
X62747363Y-5043244D01*
X62815531Y-5151733D01*
X62857851Y-5272676D01*
X62873000Y-5407127D01*
X62873000Y-5679552D01*
X62855624Y-5855976D01*
X62805978Y-6019637D01*
X62725363Y-6170458D01*
X62612898Y-6307496D01*
X61407496Y-7512898D01*
X61270458Y-7625363D01*
X61119637Y-7705978D01*
X60955976Y-7755624D01*
X60779552Y-7773000D01*
X58806234Y-7773000D01*
X58629811Y-7755624D01*
X58466150Y-7705978D01*
X58315328Y-7625362D01*
X58183130Y-7516870D01*
X58074638Y-7384672D01*
X57994022Y-7233850D01*
X57944376Y-7070189D01*
X57927000Y-6893766D01*
X57927000Y-5706234D01*
X57944376Y-5529811D01*
X57994022Y-5366150D01*
X58074638Y-5215328D01*
X58183130Y-5083130D01*
X58315328Y-4974638D01*
X58466150Y-4894022D01*
X58629811Y-4844376D01*
X58806234Y-4827000D01*
X62292873Y-4827000D01*
X62427324Y-4842149D01*
G37*
%TD.AperFunction*%
%TD*%
D14*
%TO.N,/VOUT*%
X88974829Y-19351448D02*
X89145166Y-19393658D01*
X89302419Y-19471551D01*
X89443472Y-19584894D01*
X91843503Y-21984925D01*
X91848279Y-21989398D01*
X92044969Y-22161891D01*
X92055347Y-22169854D01*
X92272870Y-22315198D01*
X92284198Y-22321738D01*
X92518831Y-22437446D01*
X92530916Y-22442452D01*
X92778645Y-22526545D01*
X92791280Y-22529931D01*
X93047866Y-22580969D01*
X93060835Y-22582676D01*
X93321887Y-22599786D01*
X93328427Y-22600000D01*
X97168298Y-22600000D01*
X97419542Y-22616467D01*
X97663277Y-22664949D01*
X97898591Y-22744828D01*
X98121464Y-22854737D01*
X98328087Y-22992797D01*
X98517388Y-23158810D01*
X98841190Y-23482612D01*
X99007203Y-23671913D01*
X99145263Y-23878536D01*
X99255172Y-24101409D01*
X99335051Y-24336723D01*
X99383533Y-24580458D01*
X99400000Y-24831702D01*
X99400000Y-25168298D01*
X99383533Y-25419542D01*
X99335051Y-25663277D01*
X99255172Y-25898591D01*
X99145263Y-26121464D01*
X99007203Y-26328087D01*
X98841190Y-26517388D01*
X98517388Y-26841190D01*
X98328087Y-27007203D01*
X98121464Y-27145263D01*
X97898591Y-27255172D01*
X97663277Y-27335051D01*
X97419542Y-27383533D01*
X97168298Y-27400000D01*
X93078427Y-27400000D01*
X93071887Y-27400214D01*
X92810835Y-27417324D01*
X92797866Y-27419031D01*
X92541280Y-27470069D01*
X92528645Y-27473455D01*
X92280916Y-27557548D01*
X92268831Y-27562554D01*
X92034198Y-27678262D01*
X92022870Y-27684802D01*
X91805347Y-27830146D01*
X91794969Y-27838109D01*
X91598279Y-28010602D01*
X91593503Y-28015075D01*
X89373297Y-30235281D01*
X89241892Y-30341883D01*
X89095979Y-30416713D01*
X88937771Y-30459851D01*
X88774068Y-30469441D01*
X88611902Y-30445070D01*
X88458251Y-30387786D01*
X88319710Y-30300051D01*
X88198493Y-30181987D01*
X87766010Y-29663007D01*
X87603554Y-29436542D01*
X87475499Y-29188972D01*
X86932047Y-27920919D01*
X86858095Y-27717462D01*
X86807458Y-27507002D01*
X86413972Y-25342830D01*
X86386382Y-25113829D01*
X86386382Y-24886171D01*
X86413972Y-24657170D01*
X86807458Y-22492998D01*
X86858095Y-22282538D01*
X86932042Y-22079097D01*
X87505698Y-20740564D01*
X87597429Y-20554826D01*
X87708594Y-20380014D01*
X88203218Y-19687541D01*
X88323718Y-19552552D01*
X88466027Y-19449866D01*
X88627106Y-19380226D01*
X88799402Y-19346898D01*
X88974829Y-19351448D01*
%TA.AperFunction,Conductor*%
D16*
G36*
X88974829Y-19351448D02*
G01*
X89145166Y-19393658D01*
X89302419Y-19471551D01*
X89443472Y-19584894D01*
X91843503Y-21984925D01*
X91848279Y-21989398D01*
X92044969Y-22161891D01*
X92055347Y-22169854D01*
X92272870Y-22315198D01*
X92284198Y-22321738D01*
X92518831Y-22437446D01*
X92530916Y-22442452D01*
X92778645Y-22526545D01*
X92791280Y-22529931D01*
X93047866Y-22580969D01*
X93060835Y-22582676D01*
X93321887Y-22599786D01*
X93328427Y-22600000D01*
X97168298Y-22600000D01*
X97419542Y-22616467D01*
X97663277Y-22664949D01*
X97898591Y-22744828D01*
X98121464Y-22854737D01*
X98328087Y-22992797D01*
X98517388Y-23158810D01*
X98841190Y-23482612D01*
X99007203Y-23671913D01*
X99145263Y-23878536D01*
X99255172Y-24101409D01*
X99335051Y-24336723D01*
X99383533Y-24580458D01*
X99400000Y-24831702D01*
X99400000Y-25168298D01*
X99383533Y-25419542D01*
X99335051Y-25663277D01*
X99255172Y-25898591D01*
X99145263Y-26121464D01*
X99007203Y-26328087D01*
X98841190Y-26517388D01*
X98517388Y-26841190D01*
X98328087Y-27007203D01*
X98121464Y-27145263D01*
X97898591Y-27255172D01*
X97663277Y-27335051D01*
X97419542Y-27383533D01*
X97168298Y-27400000D01*
X93078427Y-27400000D01*
X93071887Y-27400214D01*
X92810835Y-27417324D01*
X92797866Y-27419031D01*
X92541280Y-27470069D01*
X92528645Y-27473455D01*
X92280916Y-27557548D01*
X92268831Y-27562554D01*
X92034198Y-27678262D01*
X92022870Y-27684802D01*
X91805347Y-27830146D01*
X91794969Y-27838109D01*
X91598279Y-28010602D01*
X91593503Y-28015075D01*
X89373297Y-30235281D01*
X89241892Y-30341883D01*
X89095979Y-30416713D01*
X88937771Y-30459851D01*
X88774068Y-30469441D01*
X88611902Y-30445070D01*
X88458251Y-30387786D01*
X88319710Y-30300051D01*
X88198493Y-30181987D01*
X87766010Y-29663007D01*
X87603554Y-29436542D01*
X87475499Y-29188972D01*
X86932047Y-27920919D01*
X86858095Y-27717462D01*
X86807458Y-27507002D01*
X86413972Y-25342830D01*
X86386382Y-25113829D01*
X86386382Y-24886171D01*
X86413972Y-24657170D01*
X86807458Y-22492998D01*
X86858095Y-22282538D01*
X86932042Y-22079097D01*
X87505698Y-20740564D01*
X87597429Y-20554826D01*
X87708594Y-20380014D01*
X88203218Y-19687541D01*
X88323718Y-19552552D01*
X88466027Y-19449866D01*
X88627106Y-19380226D01*
X88799402Y-19346898D01*
X88974829Y-19351448D01*
G37*
%TD.AperFunction*%
%TD*%
M02*
