%TF.GenerationSoftware,KiCad,Pcbnew,5.1.7*%
%TF.CreationDate,2020-12-14T18:01:03+00:00*%
%TF.ProjectId,LT3045-4,4c543330-3435-42d3-942e-6b696361645f,rev?*%
%TF.SameCoordinates,Original*%
%TF.FileFunction,Soldermask,Bot*%
%TF.FilePolarity,Negative*%
%FSLAX46Y46*%
G04 Gerber Fmt 4.6, Leading zero omitted, Abs format (unit mm)*
G04 Created by KiCad (PCBNEW 5.1.7) date 2020-12-14 18:01:03*
%MOMM*%
%LPD*%
G01*
G04 APERTURE LIST*
%ADD10C,0.100000*%
%ADD11C,3.300000*%
G04 APERTURE END LIST*
D10*
G36*
X99500000Y-49500000D02*
G01*
X500000Y-49500000D01*
X500000Y-48000000D01*
X99500000Y-48000000D01*
X99500000Y-49500000D01*
G37*
X99500000Y-49500000D02*
X500000Y-49500000D01*
X500000Y-48000000D01*
X99500000Y-48000000D01*
X99500000Y-49500000D01*
G36*
X99500000Y-49500000D02*
G01*
X98000000Y-49500000D01*
X98000000Y-500000D01*
X99500000Y-500000D01*
X99500000Y-49500000D01*
G37*
X99500000Y-49500000D02*
X98000000Y-49500000D01*
X98000000Y-500000D01*
X99500000Y-500000D01*
X99500000Y-49500000D01*
G36*
X2000000Y-49500000D02*
G01*
X500000Y-49500000D01*
X500000Y-500000D01*
X2000000Y-500000D01*
X2000000Y-49500000D01*
G37*
X2000000Y-49500000D02*
X500000Y-49500000D01*
X500000Y-500000D01*
X2000000Y-500000D01*
X2000000Y-49500000D01*
G36*
X99500000Y-2000000D02*
G01*
X500000Y-2000000D01*
X500000Y-500000D01*
X99500000Y-500000D01*
X99500000Y-2000000D01*
G37*
X99500000Y-2000000D02*
X500000Y-2000000D01*
X500000Y-500000D01*
X99500000Y-500000D01*
X99500000Y-2000000D01*
%TO.C,J1*%
G36*
G01*
X460000Y-19950000D02*
X5540000Y-19950000D01*
G75*
G02*
X5590000Y-20000000I0J-50000D01*
G01*
X5590000Y-21500000D01*
G75*
G02*
X5540000Y-21550000I-50000J0D01*
G01*
X460000Y-21550000D01*
G75*
G02*
X410000Y-21500000I0J50000D01*
G01*
X410000Y-20000000D01*
G75*
G02*
X460000Y-19950000I50000J0D01*
G01*
G37*
G36*
G01*
X460000Y-28450000D02*
X5540000Y-28450000D01*
G75*
G02*
X5590000Y-28500000I0J-50000D01*
G01*
X5590000Y-30000000D01*
G75*
G02*
X5540000Y-30050000I-50000J0D01*
G01*
X460000Y-30050000D01*
G75*
G02*
X410000Y-30000000I0J50000D01*
G01*
X410000Y-28500000D01*
G75*
G02*
X460000Y-28450000I50000J0D01*
G01*
G37*
%TD*%
%TO.C,J2*%
G36*
G01*
X99540000Y-21550000D02*
X94460000Y-21550000D01*
G75*
G02*
X94410000Y-21500000I0J50000D01*
G01*
X94410000Y-20000000D01*
G75*
G02*
X94460000Y-19950000I50000J0D01*
G01*
X99540000Y-19950000D01*
G75*
G02*
X99590000Y-20000000I0J-50000D01*
G01*
X99590000Y-21500000D01*
G75*
G02*
X99540000Y-21550000I-50000J0D01*
G01*
G37*
G36*
G01*
X99540000Y-30050000D02*
X94460000Y-30050000D01*
G75*
G02*
X94410000Y-30000000I0J50000D01*
G01*
X94410000Y-28500000D01*
G75*
G02*
X94460000Y-28450000I50000J0D01*
G01*
X99540000Y-28450000D01*
G75*
G02*
X99590000Y-28500000I0J-50000D01*
G01*
X99590000Y-30000000D01*
G75*
G02*
X99540000Y-30050000I-50000J0D01*
G01*
G37*
%TD*%
D11*
%TO.C,MH1*%
X92500000Y-7500000D03*
%TD*%
%TO.C,MH2*%
X92500000Y-42500000D03*
%TD*%
%TO.C,MH3*%
X7500000Y-7500000D03*
%TD*%
%TO.C,MH4*%
X7500000Y-42500000D03*
%TD*%
M02*
