%TF.GenerationSoftware,KiCad,Pcbnew,5.1.7*%
%TF.CreationDate,2020-11-10T23:09:26+00:00*%
%TF.ProjectId,LT3045-4,4c543330-3435-42d3-942e-6b696361645f,rev?*%
%TF.SameCoordinates,Original*%
%TF.FileFunction,Copper,L3,Inr*%
%TF.FilePolarity,Positive*%
%FSLAX46Y46*%
G04 Gerber Fmt 4.6, Leading zero omitted, Abs format (unit mm)*
G04 Created by KiCad (PCBNEW 5.1.7) date 2020-11-10 23:09:26*
%MOMM*%
%LPD*%
G01*
G04 APERTURE LIST*
%TA.AperFunction,ViaPad*%
%ADD10C,0.800000*%
%TD*%
%TA.AperFunction,ViaPad*%
%ADD11C,0.500000*%
%TD*%
%TA.AperFunction,Conductor*%
%ADD12C,0.200000*%
%TD*%
%TA.AperFunction,Conductor*%
%ADD13C,0.250000*%
%TD*%
%TA.AperFunction,Conductor*%
%ADD14C,1.000000*%
%TD*%
%TA.AperFunction,Conductor*%
%ADD15C,0.100000*%
%TD*%
%TA.AperFunction,Conductor*%
%ADD16C,0.254000*%
%TD*%
G04 APERTURE END LIST*
D10*
%TO.N,GND*%
X45800000Y-18400000D03*
X45800000Y-28500000D03*
X52300000Y-46300000D03*
X49800000Y-37000000D03*
X51900000Y-26200000D03*
X53700000Y-42500000D03*
X54500000Y-42500000D03*
X54500000Y-43300000D03*
X53700000Y-43300000D03*
X53700000Y-44100000D03*
X54500000Y-44100000D03*
X51400000Y-33200000D03*
X52200000Y-33200000D03*
X51400000Y-34000000D03*
X52200000Y-34000000D03*
X52200000Y-34800000D03*
D11*
X51400000Y-34800000D03*
D10*
X53700000Y-13500000D03*
X54500000Y-13500000D03*
X54500000Y-14300000D03*
X53700000Y-14300000D03*
D11*
X53700000Y-15100000D03*
D10*
X54500000Y-15100000D03*
X51400000Y-22800000D03*
X52200000Y-22800000D03*
X52200000Y-23600000D03*
X51400000Y-23600000D03*
X52200000Y-24400000D03*
X51400000Y-24400000D03*
X81750000Y-25750000D03*
X81750000Y-23750000D03*
X97000000Y-19500000D03*
X97000000Y-30500000D03*
X52300000Y-17000000D03*
X86200000Y-28900000D03*
X86300000Y-21200000D03*
X64300000Y-12900000D03*
X64500000Y-19500000D03*
X64550000Y-30600000D03*
X64700000Y-37000000D03*
X64600000Y-25500000D03*
X64500000Y-28700000D03*
X64500000Y-21200000D03*
X64500000Y-23600000D03*
X59600000Y-40750000D03*
X58800000Y-7800000D03*
X49800000Y-9300000D03*
X46100000Y-10000000D03*
X41800000Y-11000000D03*
X38000000Y-11900000D03*
X34400000Y-12700000D03*
X31800000Y-13000000D03*
X28100000Y-13800000D03*
X23000000Y-15100000D03*
X18300000Y-16100000D03*
X13700000Y-17000000D03*
X35900000Y-20200000D03*
X47400000Y-15800000D03*
X46200000Y-25100000D03*
X35100000Y-26800000D03*
X45900000Y-34900000D03*
X35800000Y-33600000D03*
X47500000Y-37400000D03*
X47100000Y-44100000D03*
X31800000Y-39300000D03*
X15600000Y-34200000D03*
X22600000Y-36800000D03*
X39900000Y-41900000D03*
X41000000Y-25500000D03*
X40700000Y-27700000D03*
X40800000Y-33900000D03*
X42200000Y-36000000D03*
X42500000Y-17900000D03*
X40900000Y-19700000D03*
X39200000Y-18500000D03*
X38400000Y-19900000D03*
X25600000Y-14600000D03*
X26400000Y-37800000D03*
X34400000Y-39900000D03*
X36700000Y-40900000D03*
X42400000Y-42600000D03*
X44900000Y-43100000D03*
X19400000Y-35800000D03*
X13600000Y-33500000D03*
X62800000Y-40500000D03*
X67700000Y-38200000D03*
X73800000Y-35500000D03*
X79500000Y-33900000D03*
X84700000Y-31800000D03*
X86500000Y-18800000D03*
X81400000Y-16200000D03*
X76300000Y-14200000D03*
X69600000Y-11800000D03*
X65600000Y-10100000D03*
X62800000Y-9000000D03*
X83100000Y-20800000D03*
X70500000Y-19600000D03*
X61100000Y-18400000D03*
X61100000Y-12500000D03*
X70900000Y-16100000D03*
X76900000Y-18000000D03*
X81000000Y-19300000D03*
X77500000Y-20400000D03*
X66400000Y-18900000D03*
X68700000Y-22000000D03*
X77800000Y-22300000D03*
X73400000Y-23500000D03*
X67200000Y-23600000D03*
X79000000Y-23600000D03*
X78900000Y-26000000D03*
X75400000Y-27900000D03*
X68900000Y-25800000D03*
X68600000Y-28100000D03*
X74800000Y-26000000D03*
X80800000Y-29200000D03*
X71300000Y-30300000D03*
X77100000Y-31800000D03*
X83300000Y-30000000D03*
X70800000Y-34200000D03*
X68100000Y-31000000D03*
X61100000Y-37600000D03*
X59800000Y-48300000D03*
X59800000Y-42900000D03*
X59800000Y-44900000D03*
X59000000Y-2300000D03*
X59200000Y-4700000D03*
%TO.N,Net-(C2-Pad1)*%
X56800000Y-43800000D03*
X54450000Y-34550000D03*
X56650000Y-14800000D03*
X54350000Y-24050000D03*
%TO.N,Net-(R5-Pad2)*%
X84250000Y-24750000D03*
X53250000Y-25550000D03*
%TO.N,/VOUT*%
X97500000Y-23000000D03*
X96500000Y-23000000D03*
X95500000Y-23000000D03*
X94500000Y-23000000D03*
X97500000Y-27000000D03*
X96500000Y-27000000D03*
X95500000Y-27000000D03*
X94500000Y-27000000D03*
X93500000Y-27000000D03*
X92500000Y-27000000D03*
X93500000Y-23000000D03*
X92500000Y-23000000D03*
X87750000Y-24750000D03*
X55500000Y-12600000D03*
X55500000Y-11800000D03*
X55500000Y-11000000D03*
X53200000Y-21800000D03*
X53200000Y-21000000D03*
X53200000Y-20200000D03*
X53200000Y-32400000D03*
X53200000Y-31600000D03*
X53200000Y-30800000D03*
X55500000Y-41600000D03*
X55500000Y-40800000D03*
X55500000Y-40000000D03*
%TO.N,/VIN*%
X51500000Y-13800000D03*
X49400000Y-33600000D03*
X55100000Y-16200000D03*
X53000000Y-36000000D03*
X55300000Y-45500000D03*
X51700000Y-43100000D03*
X49700000Y-10700000D03*
X49700000Y-11500000D03*
X49700000Y-12300000D03*
X49700000Y-13100000D03*
X49700000Y-13900000D03*
X47400000Y-19900000D03*
X47400000Y-20700000D03*
X47400000Y-21500000D03*
X47400000Y-22300000D03*
D11*
X47400000Y-23100000D03*
D10*
X47400000Y-30400000D03*
X47400000Y-31200000D03*
X47400000Y-32000000D03*
X47400000Y-32800000D03*
X47400000Y-33600000D03*
X49700000Y-39700000D03*
X49700000Y-40500000D03*
X49700000Y-41300000D03*
X49700000Y-42100000D03*
X49700000Y-42900000D03*
X12200000Y-25000000D03*
%TD*%
D12*
%TO.N,Net-(R5-Pad2)*%
X84250000Y-24750000D02*
X55200000Y-24750000D01*
D13*
X55200000Y-24750000D02*
X53250000Y-25550000D01*
%TO.N,/VOUT*%
X87600000Y-20600000D02*
X60100000Y-10600000D01*
D12*
X87600000Y-29500000D02*
X60100000Y-39500000D01*
X86900000Y-22300000D02*
X58150000Y-19800000D01*
X86900000Y-27750000D02*
X58150000Y-30250000D01*
D14*
X56000000Y-10500000D02*
X55500000Y-11000000D01*
X60000000Y-10500000D02*
X56000000Y-10500000D01*
X56000000Y-39500000D02*
X55500000Y-40000000D01*
X60000000Y-39500000D02*
X56000000Y-39500000D01*
X53750000Y-30250000D02*
X53200000Y-30800000D01*
X58000000Y-30250000D02*
X53750000Y-30250000D01*
X53650000Y-19750000D02*
X53200000Y-20200000D01*
X58000000Y-19750000D02*
X53650000Y-19750000D01*
D13*
%TO.N,/VIN*%
X53826998Y-16200000D02*
X51500000Y-13873002D01*
X55100000Y-16200000D02*
X53826998Y-16200000D01*
X51726998Y-36000000D02*
X49400000Y-33673002D01*
X53000000Y-36000000D02*
X51726998Y-36000000D01*
X51700000Y-43173002D02*
X51700000Y-43100000D01*
X55300000Y-45500000D02*
X54026998Y-45500000D01*
X54026998Y-45500000D02*
X51700000Y-43173002D01*
%TD*%
D12*
%TO.N,/VOUT*%
X88974829Y-19351448D02*
X89145166Y-19393658D01*
X89302419Y-19471551D01*
X89443472Y-19584894D01*
X91843503Y-21984925D01*
X91848279Y-21989398D01*
X92044969Y-22161891D01*
X92055347Y-22169854D01*
X92272870Y-22315198D01*
X92284198Y-22321738D01*
X92518831Y-22437446D01*
X92530916Y-22442452D01*
X92778645Y-22526545D01*
X92791280Y-22529931D01*
X93047866Y-22580969D01*
X93060835Y-22582676D01*
X93321887Y-22599786D01*
X93328427Y-22600000D01*
X97168298Y-22600000D01*
X97419542Y-22616467D01*
X97663277Y-22664949D01*
X97898591Y-22744828D01*
X98121464Y-22854737D01*
X98328087Y-22992797D01*
X98517388Y-23158810D01*
X98841190Y-23482612D01*
X99007203Y-23671913D01*
X99145263Y-23878536D01*
X99255172Y-24101409D01*
X99335051Y-24336723D01*
X99383533Y-24580458D01*
X99400000Y-24831702D01*
X99400000Y-25168298D01*
X99383533Y-25419542D01*
X99335051Y-25663277D01*
X99255172Y-25898591D01*
X99145263Y-26121464D01*
X99007203Y-26328087D01*
X98841190Y-26517388D01*
X98517388Y-26841190D01*
X98328087Y-27007203D01*
X98121464Y-27145263D01*
X97898591Y-27255172D01*
X97663277Y-27335051D01*
X97419542Y-27383533D01*
X97168298Y-27400000D01*
X93078427Y-27400000D01*
X93071887Y-27400214D01*
X92810835Y-27417324D01*
X92797866Y-27419031D01*
X92541280Y-27470069D01*
X92528645Y-27473455D01*
X92280916Y-27557548D01*
X92268831Y-27562554D01*
X92034198Y-27678262D01*
X92022870Y-27684802D01*
X91805347Y-27830146D01*
X91794969Y-27838109D01*
X91598279Y-28010602D01*
X91593503Y-28015075D01*
X89373297Y-30235281D01*
X89241892Y-30341883D01*
X89095979Y-30416713D01*
X88937771Y-30459851D01*
X88774068Y-30469441D01*
X88611902Y-30445070D01*
X88458251Y-30387786D01*
X88319710Y-30300051D01*
X88198493Y-30181987D01*
X87766010Y-29663007D01*
X87603554Y-29436542D01*
X87475499Y-29188972D01*
X86932047Y-27920919D01*
X86858095Y-27717462D01*
X86807458Y-27507002D01*
X86413972Y-25342830D01*
X86386382Y-25113829D01*
X86386382Y-24886171D01*
X86413972Y-24657170D01*
X86807458Y-22492998D01*
X86858095Y-22282538D01*
X86932042Y-22079097D01*
X87505698Y-20740564D01*
X87597429Y-20554826D01*
X87708594Y-20380014D01*
X88203218Y-19687541D01*
X88323718Y-19552552D01*
X88466027Y-19449866D01*
X88627106Y-19380226D01*
X88799402Y-19346898D01*
X88974829Y-19351448D01*
%TA.AperFunction,Conductor*%
D15*
G36*
X88974829Y-19351448D02*
G01*
X89145166Y-19393658D01*
X89302419Y-19471551D01*
X89443472Y-19584894D01*
X91843503Y-21984925D01*
X91848279Y-21989398D01*
X92044969Y-22161891D01*
X92055347Y-22169854D01*
X92272870Y-22315198D01*
X92284198Y-22321738D01*
X92518831Y-22437446D01*
X92530916Y-22442452D01*
X92778645Y-22526545D01*
X92791280Y-22529931D01*
X93047866Y-22580969D01*
X93060835Y-22582676D01*
X93321887Y-22599786D01*
X93328427Y-22600000D01*
X97168298Y-22600000D01*
X97419542Y-22616467D01*
X97663277Y-22664949D01*
X97898591Y-22744828D01*
X98121464Y-22854737D01*
X98328087Y-22992797D01*
X98517388Y-23158810D01*
X98841190Y-23482612D01*
X99007203Y-23671913D01*
X99145263Y-23878536D01*
X99255172Y-24101409D01*
X99335051Y-24336723D01*
X99383533Y-24580458D01*
X99400000Y-24831702D01*
X99400000Y-25168298D01*
X99383533Y-25419542D01*
X99335051Y-25663277D01*
X99255172Y-25898591D01*
X99145263Y-26121464D01*
X99007203Y-26328087D01*
X98841190Y-26517388D01*
X98517388Y-26841190D01*
X98328087Y-27007203D01*
X98121464Y-27145263D01*
X97898591Y-27255172D01*
X97663277Y-27335051D01*
X97419542Y-27383533D01*
X97168298Y-27400000D01*
X93078427Y-27400000D01*
X93071887Y-27400214D01*
X92810835Y-27417324D01*
X92797866Y-27419031D01*
X92541280Y-27470069D01*
X92528645Y-27473455D01*
X92280916Y-27557548D01*
X92268831Y-27562554D01*
X92034198Y-27678262D01*
X92022870Y-27684802D01*
X91805347Y-27830146D01*
X91794969Y-27838109D01*
X91598279Y-28010602D01*
X91593503Y-28015075D01*
X89373297Y-30235281D01*
X89241892Y-30341883D01*
X89095979Y-30416713D01*
X88937771Y-30459851D01*
X88774068Y-30469441D01*
X88611902Y-30445070D01*
X88458251Y-30387786D01*
X88319710Y-30300051D01*
X88198493Y-30181987D01*
X87766010Y-29663007D01*
X87603554Y-29436542D01*
X87475499Y-29188972D01*
X86932047Y-27920919D01*
X86858095Y-27717462D01*
X86807458Y-27507002D01*
X86413972Y-25342830D01*
X86386382Y-25113829D01*
X86386382Y-24886171D01*
X86413972Y-24657170D01*
X86807458Y-22492998D01*
X86858095Y-22282538D01*
X86932042Y-22079097D01*
X87505698Y-20740564D01*
X87597429Y-20554826D01*
X87708594Y-20380014D01*
X88203218Y-19687541D01*
X88323718Y-19552552D01*
X88466027Y-19449866D01*
X88627106Y-19380226D01*
X88799402Y-19346898D01*
X88974829Y-19351448D01*
G37*
%TD.AperFunction*%
%TD*%
D12*
%TO.N,GND*%
X98675485Y-617768D02*
X98844229Y-668955D01*
X98999745Y-752080D01*
X99136054Y-863946D01*
X99247920Y-1000255D01*
X99331045Y-1155771D01*
X99382232Y-1324515D01*
X99400000Y-1504908D01*
X99400000Y-22729397D01*
X99385268Y-22825938D01*
X99345787Y-22906790D01*
X99283984Y-22972191D01*
X99205494Y-23016182D01*
X99117453Y-23034762D01*
X99027873Y-23026240D01*
X98944918Y-22991392D01*
X98870264Y-22928442D01*
X98474066Y-22475645D01*
X98466640Y-22468018D01*
X98310437Y-22323815D01*
X98293372Y-22311137D01*
X98110215Y-22203212D01*
X98090856Y-22194427D01*
X97889025Y-22127657D01*
X97868246Y-22123164D01*
X97656861Y-22100567D01*
X97646232Y-22100000D01*
X93015257Y-22100000D01*
X92836347Y-22082527D01*
X92668874Y-22032172D01*
X92514310Y-21950366D01*
X92374702Y-21837122D01*
X89641794Y-19139706D01*
X89634709Y-19133350D01*
X89487301Y-19013255D01*
X89471486Y-19002701D01*
X89304011Y-18912677D01*
X89286484Y-18905308D01*
X89104998Y-18848610D01*
X89086392Y-18844691D01*
X88897454Y-18823369D01*
X88878443Y-18823042D01*
X88688885Y-18837867D01*
X88670156Y-18841145D01*
X88486831Y-18891580D01*
X88469061Y-18898344D01*
X88298595Y-18982567D01*
X88282426Y-18992572D01*
X88130983Y-19107538D01*
X88117001Y-19120422D01*
X87990056Y-19261973D01*
X87984046Y-19269353D01*
X87391618Y-20071997D01*
X60794036Y-10400151D01*
X60788424Y-10343173D01*
X60742679Y-10192372D01*
X60668393Y-10053394D01*
X60568422Y-9931578D01*
X60446606Y-9831607D01*
X60307628Y-9757321D01*
X60156827Y-9711576D01*
X60039293Y-9700000D01*
X56039291Y-9700000D01*
X56000000Y-9696130D01*
X55960709Y-9700000D01*
X55960707Y-9700000D01*
X55843173Y-9711576D01*
X55692372Y-9757321D01*
X55553393Y-9831607D01*
X55541245Y-9841577D01*
X55431578Y-9931578D01*
X55406523Y-9962108D01*
X54906531Y-10462099D01*
X54831607Y-10553394D01*
X54757321Y-10692373D01*
X54711577Y-10843173D01*
X54696130Y-11000000D01*
X54711577Y-11156827D01*
X54757321Y-11307627D01*
X54831607Y-11446606D01*
X54869554Y-11492844D01*
X54826901Y-11595818D01*
X54800000Y-11731056D01*
X54800000Y-11868944D01*
X54826901Y-12004182D01*
X54879668Y-12131574D01*
X54925388Y-12200000D01*
X54879668Y-12268426D01*
X54826901Y-12395818D01*
X54800000Y-12531056D01*
X54800000Y-12668944D01*
X54826901Y-12804182D01*
X54879668Y-12931574D01*
X54956274Y-13046224D01*
X55053776Y-13143726D01*
X55168426Y-13220332D01*
X55295818Y-13273099D01*
X55431056Y-13300000D01*
X55568944Y-13300000D01*
X55704182Y-13273099D01*
X55831574Y-13220332D01*
X55946224Y-13143726D01*
X56043726Y-13046224D01*
X56120332Y-12931574D01*
X56173099Y-12804182D01*
X56200000Y-12668944D01*
X56200000Y-12531056D01*
X56173099Y-12395818D01*
X56120332Y-12268426D01*
X56074612Y-12200000D01*
X56120332Y-12131574D01*
X56173099Y-12004182D01*
X56200000Y-11868944D01*
X56200000Y-11731056D01*
X56173099Y-11595818D01*
X56132813Y-11498557D01*
X56331369Y-11300000D01*
X60039293Y-11300000D01*
X60156827Y-11288424D01*
X60307628Y-11242679D01*
X60435615Y-11174268D01*
X86952293Y-20816697D01*
X86494437Y-21863223D01*
X58745064Y-19450236D01*
X58742679Y-19442372D01*
X58668393Y-19303394D01*
X58568422Y-19181578D01*
X58446606Y-19081607D01*
X58307628Y-19007321D01*
X58156827Y-18961576D01*
X58039293Y-18950000D01*
X53689290Y-18950000D01*
X53649999Y-18946130D01*
X53610708Y-18950000D01*
X53610707Y-18950000D01*
X53493173Y-18961576D01*
X53366506Y-19000000D01*
X53342372Y-19007321D01*
X53203393Y-19081607D01*
X53155233Y-19121131D01*
X53081578Y-19181578D01*
X53056527Y-19212103D01*
X52606531Y-19662099D01*
X52531607Y-19753394D01*
X52457321Y-19892373D01*
X52411577Y-20043173D01*
X52396130Y-20200000D01*
X52411577Y-20356827D01*
X52457321Y-20507627D01*
X52531607Y-20646606D01*
X52569554Y-20692844D01*
X52526901Y-20795818D01*
X52500000Y-20931056D01*
X52500000Y-21068944D01*
X52526901Y-21204182D01*
X52579668Y-21331574D01*
X52625388Y-21400000D01*
X52579668Y-21468426D01*
X52526901Y-21595818D01*
X52500000Y-21731056D01*
X52500000Y-21868944D01*
X52526901Y-22004182D01*
X52579668Y-22131574D01*
X52656274Y-22246224D01*
X52753776Y-22343726D01*
X52868426Y-22420332D01*
X52995818Y-22473099D01*
X53131056Y-22500000D01*
X53268944Y-22500000D01*
X53404182Y-22473099D01*
X53531574Y-22420332D01*
X53646224Y-22343726D01*
X53743726Y-22246224D01*
X53820332Y-22131574D01*
X53873099Y-22004182D01*
X53900000Y-21868944D01*
X53900000Y-21731056D01*
X53873099Y-21595818D01*
X53820332Y-21468426D01*
X53774612Y-21400000D01*
X53820332Y-21331574D01*
X53873099Y-21204182D01*
X53900000Y-21068944D01*
X53900000Y-20931056D01*
X53873099Y-20795818D01*
X53832813Y-20698557D01*
X53981370Y-20550000D01*
X58039293Y-20550000D01*
X58156827Y-20538424D01*
X58307628Y-20492679D01*
X58446606Y-20418393D01*
X58568422Y-20318422D01*
X58630107Y-20243258D01*
X86242026Y-22644294D01*
X85723692Y-24475741D01*
X85721751Y-24483887D01*
X85689813Y-24648150D01*
X85688005Y-24664786D01*
X85683905Y-24832075D01*
X85684896Y-24848779D01*
X85708749Y-25014409D01*
X85710289Y-25022641D01*
X86259869Y-27404154D01*
X58668403Y-29803412D01*
X58668393Y-29803394D01*
X58568422Y-29681578D01*
X58446606Y-29581607D01*
X58307628Y-29507321D01*
X58156827Y-29461576D01*
X58039293Y-29450000D01*
X53789282Y-29450000D01*
X53749999Y-29446131D01*
X53710716Y-29450000D01*
X53710707Y-29450000D01*
X53593173Y-29461576D01*
X53442372Y-29507321D01*
X53351803Y-29555731D01*
X53303393Y-29581607D01*
X53237505Y-29635680D01*
X53181578Y-29681578D01*
X53156531Y-29712098D01*
X52606531Y-30262099D01*
X52531607Y-30353394D01*
X52457321Y-30492373D01*
X52411577Y-30643173D01*
X52396130Y-30800000D01*
X52411577Y-30956827D01*
X52457321Y-31107627D01*
X52531607Y-31246606D01*
X52569554Y-31292844D01*
X52526901Y-31395818D01*
X52500000Y-31531056D01*
X52500000Y-31668944D01*
X52526901Y-31804182D01*
X52579668Y-31931574D01*
X52625388Y-32000000D01*
X52579668Y-32068426D01*
X52526901Y-32195818D01*
X52500000Y-32331056D01*
X52500000Y-32468944D01*
X52526901Y-32604182D01*
X52579668Y-32731574D01*
X52656274Y-32846224D01*
X52753776Y-32943726D01*
X52868426Y-33020332D01*
X52995818Y-33073099D01*
X53131056Y-33100000D01*
X53268944Y-33100000D01*
X53404182Y-33073099D01*
X53531574Y-33020332D01*
X53646224Y-32943726D01*
X53743726Y-32846224D01*
X53820332Y-32731574D01*
X53873099Y-32604182D01*
X53900000Y-32468944D01*
X53900000Y-32331056D01*
X53873099Y-32195818D01*
X53820332Y-32068426D01*
X53774612Y-32000000D01*
X53820332Y-31931574D01*
X53873099Y-31804182D01*
X53900000Y-31668944D01*
X53900000Y-31531056D01*
X53873099Y-31395818D01*
X53832813Y-31298557D01*
X54081371Y-31050000D01*
X58039293Y-31050000D01*
X58156827Y-31038424D01*
X58307628Y-30992679D01*
X58446606Y-30918393D01*
X58568422Y-30818422D01*
X58668393Y-30696606D01*
X58718942Y-30602036D01*
X86472084Y-28188720D01*
X86952551Y-29309811D01*
X60545169Y-38912495D01*
X60446606Y-38831607D01*
X60307628Y-38757321D01*
X60156827Y-38711576D01*
X60039293Y-38700000D01*
X56039291Y-38700000D01*
X56000000Y-38696130D01*
X55960709Y-38700000D01*
X55960707Y-38700000D01*
X55843173Y-38711576D01*
X55692372Y-38757321D01*
X55553393Y-38831607D01*
X55541245Y-38841577D01*
X55431578Y-38931578D01*
X55406523Y-38962108D01*
X54906531Y-39462099D01*
X54831607Y-39553394D01*
X54757321Y-39692373D01*
X54711577Y-39843173D01*
X54696130Y-40000000D01*
X54711577Y-40156827D01*
X54757321Y-40307627D01*
X54831607Y-40446606D01*
X54869554Y-40492844D01*
X54826901Y-40595818D01*
X54800000Y-40731056D01*
X54800000Y-40868944D01*
X54826901Y-41004182D01*
X54879668Y-41131574D01*
X54925388Y-41200000D01*
X54879668Y-41268426D01*
X54826901Y-41395818D01*
X54800000Y-41531056D01*
X54800000Y-41668944D01*
X54826901Y-41804182D01*
X54879668Y-41931574D01*
X54956274Y-42046224D01*
X55053776Y-42143726D01*
X55168426Y-42220332D01*
X55295818Y-42273099D01*
X55431056Y-42300000D01*
X55568944Y-42300000D01*
X55704182Y-42273099D01*
X55831574Y-42220332D01*
X55946224Y-42143726D01*
X56043726Y-42046224D01*
X56120332Y-41931574D01*
X56173099Y-41804182D01*
X56200000Y-41668944D01*
X56200000Y-41531056D01*
X56173099Y-41395818D01*
X56120332Y-41268426D01*
X56074612Y-41200000D01*
X56120332Y-41131574D01*
X56173099Y-41004182D01*
X56200000Y-40868944D01*
X56200000Y-40731056D01*
X56173099Y-40595818D01*
X56132813Y-40498557D01*
X56331369Y-40300000D01*
X60039293Y-40300000D01*
X60156827Y-40288424D01*
X60307628Y-40242679D01*
X60446606Y-40168393D01*
X60568422Y-40068422D01*
X60668393Y-39946606D01*
X60742679Y-39807628D01*
X60782129Y-39677578D01*
X87368416Y-30009838D01*
X87996145Y-30637567D01*
X88003250Y-30644020D01*
X88151209Y-30765981D01*
X88167106Y-30776702D01*
X88335623Y-30868182D01*
X88353275Y-30875673D01*
X88536155Y-30933307D01*
X88554911Y-30937290D01*
X88745428Y-30958960D01*
X88764600Y-30959291D01*
X88955751Y-30944199D01*
X88974633Y-30940864D01*
X89159390Y-30889567D01*
X89177289Y-30882690D01*
X89348859Y-30797072D01*
X89365116Y-30786904D01*
X89517190Y-30670114D01*
X89524513Y-30663910D01*
X92276644Y-28095255D01*
X92413899Y-27989375D01*
X92564291Y-27913108D01*
X92726275Y-27866248D01*
X92898862Y-27850000D01*
X98495092Y-27850000D01*
X98675485Y-27867768D01*
X98844229Y-27918955D01*
X98999745Y-28002080D01*
X99136054Y-28113946D01*
X99247920Y-28250255D01*
X99331045Y-28405771D01*
X99382232Y-28574515D01*
X99400000Y-28754908D01*
X99400000Y-48495092D01*
X99382232Y-48675485D01*
X99331045Y-48844229D01*
X99247920Y-48999745D01*
X99136054Y-49136054D01*
X98999745Y-49247920D01*
X98844229Y-49331045D01*
X98675485Y-49382232D01*
X98495092Y-49400000D01*
X1504908Y-49400000D01*
X1324515Y-49382232D01*
X1155771Y-49331045D01*
X1000255Y-49247920D01*
X863946Y-49136054D01*
X752080Y-48999745D01*
X668955Y-48844229D01*
X617768Y-48675485D01*
X600000Y-48495092D01*
X600000Y-24931056D01*
X11500000Y-24931056D01*
X11500000Y-25068944D01*
X11526901Y-25204182D01*
X11579668Y-25331574D01*
X11600000Y-25362003D01*
X11600000Y-29504302D01*
X11600495Y-29521524D01*
X11620268Y-29865393D01*
X11624216Y-29899610D01*
X11683274Y-30238947D01*
X11691118Y-30272485D01*
X11788682Y-30602815D01*
X11800319Y-30635234D01*
X11935104Y-30952204D01*
X11950379Y-30983075D01*
X12120608Y-31282507D01*
X12139322Y-31311423D01*
X12342750Y-31589369D01*
X12364655Y-31615951D01*
X12598602Y-31868747D01*
X12623409Y-31892641D01*
X12884790Y-32116956D01*
X12912173Y-32137850D01*
X13197543Y-32330725D01*
X13227140Y-32348343D01*
X13532737Y-32507238D01*
X13564158Y-32521347D01*
X13885954Y-32644166D01*
X13902221Y-32649844D01*
X48566625Y-43645542D01*
X48581377Y-43649810D01*
X48878404Y-43727545D01*
X48908465Y-43733788D01*
X49211882Y-43780758D01*
X49242425Y-43783896D01*
X49549053Y-43799607D01*
X49564404Y-43800000D01*
X49650000Y-43800000D01*
X49689158Y-43797433D01*
X49831508Y-43778692D01*
X49907154Y-43758423D01*
X50039804Y-43703478D01*
X50107628Y-43664320D01*
X50221537Y-43576915D01*
X50276915Y-43521537D01*
X50364320Y-43407628D01*
X50403478Y-43339804D01*
X50458423Y-43207154D01*
X50478692Y-43131508D01*
X50491916Y-43031056D01*
X51000000Y-43031056D01*
X51000000Y-43168944D01*
X51026901Y-43304182D01*
X51079668Y-43431574D01*
X51156274Y-43546224D01*
X51253776Y-43643726D01*
X51368426Y-43720332D01*
X51495818Y-43773099D01*
X51631056Y-43800000D01*
X51725958Y-43800000D01*
X53711719Y-45785762D01*
X53725024Y-45801974D01*
X53789738Y-45855084D01*
X53863571Y-45894548D01*
X53919381Y-45911478D01*
X53943683Y-45918850D01*
X53952096Y-45919679D01*
X54006124Y-45925000D01*
X54006130Y-45925000D01*
X54026997Y-45927055D01*
X54047864Y-45925000D01*
X54742093Y-45925000D01*
X54756274Y-45946224D01*
X54853776Y-46043726D01*
X54968426Y-46120332D01*
X55095818Y-46173099D01*
X55231056Y-46200000D01*
X55368944Y-46200000D01*
X55504182Y-46173099D01*
X55631574Y-46120332D01*
X55746224Y-46043726D01*
X55843726Y-45946224D01*
X55920332Y-45831574D01*
X55973099Y-45704182D01*
X56000000Y-45568944D01*
X56000000Y-45431056D01*
X55973099Y-45295818D01*
X55920332Y-45168426D01*
X55843726Y-45053776D01*
X55746224Y-44956274D01*
X55631574Y-44879668D01*
X55504182Y-44826901D01*
X55368944Y-44800000D01*
X55231056Y-44800000D01*
X55095818Y-44826901D01*
X54968426Y-44879668D01*
X54853776Y-44956274D01*
X54756274Y-45053776D01*
X54742093Y-45075000D01*
X54203039Y-45075000D01*
X52859095Y-43731056D01*
X56100000Y-43731056D01*
X56100000Y-43868944D01*
X56126901Y-44004182D01*
X56179668Y-44131574D01*
X56256274Y-44246224D01*
X56353776Y-44343726D01*
X56468426Y-44420332D01*
X56595818Y-44473099D01*
X56731056Y-44500000D01*
X56868944Y-44500000D01*
X57004182Y-44473099D01*
X57131574Y-44420332D01*
X57246224Y-44343726D01*
X57343726Y-44246224D01*
X57420332Y-44131574D01*
X57473099Y-44004182D01*
X57500000Y-43868944D01*
X57500000Y-43731056D01*
X57473099Y-43595818D01*
X57420332Y-43468426D01*
X57343726Y-43353776D01*
X57246224Y-43256274D01*
X57131574Y-43179668D01*
X57004182Y-43126901D01*
X56868944Y-43100000D01*
X56731056Y-43100000D01*
X56595818Y-43126901D01*
X56468426Y-43179668D01*
X56353776Y-43256274D01*
X56256274Y-43353776D01*
X56179668Y-43468426D01*
X56126901Y-43595818D01*
X56100000Y-43731056D01*
X52859095Y-43731056D01*
X52382908Y-43254870D01*
X52400000Y-43168944D01*
X52400000Y-43031056D01*
X52373099Y-42895818D01*
X52320332Y-42768426D01*
X52243726Y-42653776D01*
X52146224Y-42556274D01*
X52031574Y-42479668D01*
X51904182Y-42426901D01*
X51768944Y-42400000D01*
X51631056Y-42400000D01*
X51495818Y-42426901D01*
X51368426Y-42479668D01*
X51253776Y-42556274D01*
X51156274Y-42653776D01*
X51079668Y-42768426D01*
X51026901Y-42895818D01*
X51000000Y-43031056D01*
X50491916Y-43031056D01*
X50497433Y-42989158D01*
X50500000Y-42950000D01*
X50500000Y-39650000D01*
X50497433Y-39610842D01*
X50478692Y-39468492D01*
X50458423Y-39392846D01*
X50403478Y-39260196D01*
X50364320Y-39192372D01*
X50276915Y-39078463D01*
X50221537Y-39023085D01*
X50107628Y-38935680D01*
X50039804Y-38896522D01*
X49907154Y-38841577D01*
X49831508Y-38821308D01*
X49689158Y-38802567D01*
X49650000Y-38800000D01*
X49600391Y-38800000D01*
X49300135Y-38783706D01*
X49011440Y-38736335D01*
X48721718Y-38655821D01*
X34848183Y-33976903D01*
X34715641Y-33916986D01*
X34609674Y-33840832D01*
X34520819Y-33745275D01*
X34452559Y-33634064D01*
X34407580Y-33511574D01*
X34387648Y-33382614D01*
X34393549Y-33252262D01*
X34425048Y-33125636D01*
X34480911Y-33007709D01*
X34558941Y-32903119D01*
X34656064Y-32815982D01*
X34768478Y-32749713D01*
X34891745Y-32706927D01*
X35021041Y-32689297D01*
X35166220Y-32698465D01*
X46510654Y-34556605D01*
X46534820Y-34559562D01*
X47019738Y-34599012D01*
X47044064Y-34600000D01*
X47350000Y-34600000D01*
X47389158Y-34597433D01*
X47531508Y-34578692D01*
X47607154Y-34558423D01*
X47739804Y-34503478D01*
X47807628Y-34464320D01*
X47921537Y-34376915D01*
X47976915Y-34321537D01*
X48064320Y-34207628D01*
X48103478Y-34139804D01*
X48158423Y-34007154D01*
X48178692Y-33931508D01*
X48197433Y-33789158D01*
X48200000Y-33750000D01*
X48200000Y-33531056D01*
X48700000Y-33531056D01*
X48700000Y-33668944D01*
X48726901Y-33804182D01*
X48779668Y-33931574D01*
X48856274Y-34046224D01*
X48953776Y-34143726D01*
X49068426Y-34220332D01*
X49195818Y-34273099D01*
X49331056Y-34300000D01*
X49425958Y-34300000D01*
X51411719Y-36285762D01*
X51425024Y-36301974D01*
X51489738Y-36355084D01*
X51563571Y-36394548D01*
X51619381Y-36411478D01*
X51643683Y-36418850D01*
X51652096Y-36419679D01*
X51706124Y-36425000D01*
X51706130Y-36425000D01*
X51726997Y-36427055D01*
X51747864Y-36425000D01*
X52442093Y-36425000D01*
X52456274Y-36446224D01*
X52553776Y-36543726D01*
X52668426Y-36620332D01*
X52795818Y-36673099D01*
X52931056Y-36700000D01*
X53068944Y-36700000D01*
X53204182Y-36673099D01*
X53331574Y-36620332D01*
X53446224Y-36543726D01*
X53543726Y-36446224D01*
X53620332Y-36331574D01*
X53673099Y-36204182D01*
X53700000Y-36068944D01*
X53700000Y-35931056D01*
X53673099Y-35795818D01*
X53620332Y-35668426D01*
X53543726Y-35553776D01*
X53446224Y-35456274D01*
X53331574Y-35379668D01*
X53204182Y-35326901D01*
X53068944Y-35300000D01*
X52931056Y-35300000D01*
X52795818Y-35326901D01*
X52668426Y-35379668D01*
X52553776Y-35456274D01*
X52456274Y-35553776D01*
X52442093Y-35575000D01*
X51903039Y-35575000D01*
X50809095Y-34481056D01*
X53750000Y-34481056D01*
X53750000Y-34618944D01*
X53776901Y-34754182D01*
X53829668Y-34881574D01*
X53906274Y-34996224D01*
X54003776Y-35093726D01*
X54118426Y-35170332D01*
X54245818Y-35223099D01*
X54381056Y-35250000D01*
X54518944Y-35250000D01*
X54654182Y-35223099D01*
X54781574Y-35170332D01*
X54896224Y-35093726D01*
X54993726Y-34996224D01*
X55070332Y-34881574D01*
X55123099Y-34754182D01*
X55150000Y-34618944D01*
X55150000Y-34481056D01*
X55123099Y-34345818D01*
X55070332Y-34218426D01*
X54993726Y-34103776D01*
X54896224Y-34006274D01*
X54781574Y-33929668D01*
X54654182Y-33876901D01*
X54518944Y-33850000D01*
X54381056Y-33850000D01*
X54245818Y-33876901D01*
X54118426Y-33929668D01*
X54003776Y-34006274D01*
X53906274Y-34103776D01*
X53829668Y-34218426D01*
X53776901Y-34345818D01*
X53750000Y-34481056D01*
X50809095Y-34481056D01*
X50082908Y-33754870D01*
X50100000Y-33668944D01*
X50100000Y-33531056D01*
X50073099Y-33395818D01*
X50020332Y-33268426D01*
X49943726Y-33153776D01*
X49846224Y-33056274D01*
X49731574Y-32979668D01*
X49604182Y-32926901D01*
X49468944Y-32900000D01*
X49331056Y-32900000D01*
X49195818Y-32926901D01*
X49068426Y-32979668D01*
X48953776Y-33056274D01*
X48856274Y-33153776D01*
X48779668Y-33268426D01*
X48726901Y-33395818D01*
X48700000Y-33531056D01*
X48200000Y-33531056D01*
X48200000Y-30350000D01*
X48197433Y-30310842D01*
X48178692Y-30168492D01*
X48158423Y-30092846D01*
X48103478Y-29960196D01*
X48064320Y-29892372D01*
X47976915Y-29778463D01*
X47921537Y-29723085D01*
X47807628Y-29635680D01*
X47739804Y-29596522D01*
X47607154Y-29541577D01*
X47531508Y-29521308D01*
X47389158Y-29502567D01*
X47350000Y-29500000D01*
X47016210Y-29500000D01*
X46626805Y-29473271D01*
X35227504Y-27900954D01*
X35026607Y-27856621D01*
X34846578Y-27785251D01*
X34680245Y-27686070D01*
X34531866Y-27561618D01*
X34405251Y-27415090D01*
X34303632Y-27250227D01*
X34229624Y-27071272D01*
X34185118Y-26882793D01*
X34171255Y-26689634D01*
X34188391Y-26496734D01*
X34236087Y-26309039D01*
X34313120Y-26131361D01*
X34417515Y-25968253D01*
X34546604Y-25823886D01*
X34697069Y-25701969D01*
X34865061Y-25605622D01*
X35046271Y-25537315D01*
X35247879Y-25496399D01*
X35375006Y-25481056D01*
X52550000Y-25481056D01*
X52550000Y-25618944D01*
X52576901Y-25754182D01*
X52629668Y-25881574D01*
X52706274Y-25996224D01*
X52803776Y-26093726D01*
X52918426Y-26170332D01*
X53045818Y-26223099D01*
X53181056Y-26250000D01*
X53318944Y-26250000D01*
X53454182Y-26223099D01*
X53581574Y-26170332D01*
X53696224Y-26093726D01*
X53793726Y-25996224D01*
X53870332Y-25881574D01*
X53923099Y-25754182D01*
X53927637Y-25731370D01*
X55344728Y-25150000D01*
X83675388Y-25150000D01*
X83706274Y-25196224D01*
X83803776Y-25293726D01*
X83918426Y-25370332D01*
X84045818Y-25423099D01*
X84181056Y-25450000D01*
X84318944Y-25450000D01*
X84454182Y-25423099D01*
X84581574Y-25370332D01*
X84696224Y-25293726D01*
X84793726Y-25196224D01*
X84870332Y-25081574D01*
X84923099Y-24954182D01*
X84950000Y-24818944D01*
X84950000Y-24681056D01*
X84923099Y-24545818D01*
X84870332Y-24418426D01*
X84793726Y-24303776D01*
X84696224Y-24206274D01*
X84581574Y-24129668D01*
X84454182Y-24076901D01*
X84318944Y-24050000D01*
X84181056Y-24050000D01*
X84045818Y-24076901D01*
X83918426Y-24129668D01*
X83803776Y-24206274D01*
X83706274Y-24303776D01*
X83675388Y-24350000D01*
X55345196Y-24350000D01*
X55284731Y-24331434D01*
X55201444Y-24322947D01*
X55118102Y-24330871D01*
X55058000Y-24348881D01*
X54967319Y-24386084D01*
X54970332Y-24381574D01*
X55023099Y-24254182D01*
X55050000Y-24118944D01*
X55050000Y-23981056D01*
X55023099Y-23845818D01*
X54970332Y-23718426D01*
X54893726Y-23603776D01*
X54796224Y-23506274D01*
X54681574Y-23429668D01*
X54554182Y-23376901D01*
X54418944Y-23350000D01*
X54281056Y-23350000D01*
X54145818Y-23376901D01*
X54018426Y-23429668D01*
X53903776Y-23506274D01*
X53806274Y-23603776D01*
X53729668Y-23718426D01*
X53676901Y-23845818D01*
X53650000Y-23981056D01*
X53650000Y-24118944D01*
X53676901Y-24254182D01*
X53729668Y-24381574D01*
X53806274Y-24496224D01*
X53903776Y-24593726D01*
X54018426Y-24670332D01*
X54145818Y-24723099D01*
X54145836Y-24723103D01*
X53604688Y-24945112D01*
X53581574Y-24929668D01*
X53454182Y-24876901D01*
X53318944Y-24850000D01*
X53181056Y-24850000D01*
X53045818Y-24876901D01*
X52918426Y-24929668D01*
X52803776Y-25006274D01*
X52706274Y-25103776D01*
X52629668Y-25218426D01*
X52576901Y-25345818D01*
X52550000Y-25481056D01*
X35375006Y-25481056D01*
X46647929Y-24120531D01*
X46989387Y-24100000D01*
X47350000Y-24100000D01*
X47389158Y-24097433D01*
X47531508Y-24078692D01*
X47607154Y-24058423D01*
X47739804Y-24003478D01*
X47807628Y-23964320D01*
X47921537Y-23876915D01*
X47976915Y-23821537D01*
X48064320Y-23707628D01*
X48103478Y-23639804D01*
X48158423Y-23507154D01*
X48178692Y-23431508D01*
X48197433Y-23289158D01*
X48200000Y-23250000D01*
X48200000Y-19850000D01*
X48197433Y-19810842D01*
X48178692Y-19668492D01*
X48158423Y-19592846D01*
X48103478Y-19460196D01*
X48064320Y-19392372D01*
X47976915Y-19278463D01*
X47921537Y-19223085D01*
X47807628Y-19135680D01*
X47739804Y-19096522D01*
X47607154Y-19041577D01*
X47531508Y-19021308D01*
X47389158Y-19002567D01*
X47350000Y-19000000D01*
X47050399Y-19000000D01*
X47025446Y-19001040D01*
X46528113Y-19042550D01*
X46503333Y-19045661D01*
X35164968Y-20951680D01*
X35020460Y-20961411D01*
X34891725Y-20944398D01*
X34768879Y-20902318D01*
X34656751Y-20836826D01*
X34559750Y-20750497D01*
X34481689Y-20646721D01*
X34425642Y-20529589D01*
X34393809Y-20403698D01*
X34387443Y-20273998D01*
X34406793Y-20145597D01*
X34451101Y-20023533D01*
X34518620Y-19912618D01*
X34606704Y-19817198D01*
X34711873Y-19741043D01*
X34843643Y-19680914D01*
X48718061Y-14947288D01*
X49010684Y-14865043D01*
X49302406Y-14816648D01*
X49605908Y-14800000D01*
X49650000Y-14800000D01*
X49689158Y-14797433D01*
X49831508Y-14778692D01*
X49907154Y-14758423D01*
X50039804Y-14703478D01*
X50107628Y-14664320D01*
X50221537Y-14576915D01*
X50276915Y-14521537D01*
X50364320Y-14407628D01*
X50403478Y-14339804D01*
X50458423Y-14207154D01*
X50478692Y-14131508D01*
X50497433Y-13989158D01*
X50500000Y-13950000D01*
X50500000Y-13731056D01*
X50800000Y-13731056D01*
X50800000Y-13868944D01*
X50826901Y-14004182D01*
X50879668Y-14131574D01*
X50956274Y-14246224D01*
X51053776Y-14343726D01*
X51168426Y-14420332D01*
X51295818Y-14473099D01*
X51431056Y-14500000D01*
X51525958Y-14500000D01*
X53511719Y-16485762D01*
X53525024Y-16501974D01*
X53589738Y-16555084D01*
X53663571Y-16594548D01*
X53719381Y-16611478D01*
X53743683Y-16618850D01*
X53752096Y-16619679D01*
X53806124Y-16625000D01*
X53806130Y-16625000D01*
X53826997Y-16627055D01*
X53847864Y-16625000D01*
X54542093Y-16625000D01*
X54556274Y-16646224D01*
X54653776Y-16743726D01*
X54768426Y-16820332D01*
X54895818Y-16873099D01*
X55031056Y-16900000D01*
X55168944Y-16900000D01*
X55304182Y-16873099D01*
X55431574Y-16820332D01*
X55546224Y-16743726D01*
X55643726Y-16646224D01*
X55720332Y-16531574D01*
X55773099Y-16404182D01*
X55800000Y-16268944D01*
X55800000Y-16131056D01*
X55773099Y-15995818D01*
X55720332Y-15868426D01*
X55643726Y-15753776D01*
X55546224Y-15656274D01*
X55431574Y-15579668D01*
X55304182Y-15526901D01*
X55168944Y-15500000D01*
X55031056Y-15500000D01*
X54895818Y-15526901D01*
X54768426Y-15579668D01*
X54653776Y-15656274D01*
X54556274Y-15753776D01*
X54542093Y-15775000D01*
X54003039Y-15775000D01*
X52959095Y-14731056D01*
X55950000Y-14731056D01*
X55950000Y-14868944D01*
X55976901Y-15004182D01*
X56029668Y-15131574D01*
X56106274Y-15246224D01*
X56203776Y-15343726D01*
X56318426Y-15420332D01*
X56445818Y-15473099D01*
X56581056Y-15500000D01*
X56718944Y-15500000D01*
X56854182Y-15473099D01*
X56981574Y-15420332D01*
X57096224Y-15343726D01*
X57193726Y-15246224D01*
X57270332Y-15131574D01*
X57323099Y-15004182D01*
X57350000Y-14868944D01*
X57350000Y-14731056D01*
X57323099Y-14595818D01*
X57270332Y-14468426D01*
X57193726Y-14353776D01*
X57096224Y-14256274D01*
X56981574Y-14179668D01*
X56854182Y-14126901D01*
X56718944Y-14100000D01*
X56581056Y-14100000D01*
X56445818Y-14126901D01*
X56318426Y-14179668D01*
X56203776Y-14256274D01*
X56106274Y-14353776D01*
X56029668Y-14468426D01*
X55976901Y-14595818D01*
X55950000Y-14731056D01*
X52959095Y-14731056D01*
X52182908Y-13954870D01*
X52200000Y-13868944D01*
X52200000Y-13731056D01*
X52173099Y-13595818D01*
X52120332Y-13468426D01*
X52043726Y-13353776D01*
X51946224Y-13256274D01*
X51831574Y-13179668D01*
X51704182Y-13126901D01*
X51568944Y-13100000D01*
X51431056Y-13100000D01*
X51295818Y-13126901D01*
X51168426Y-13179668D01*
X51053776Y-13256274D01*
X50956274Y-13353776D01*
X50879668Y-13468426D01*
X50826901Y-13595818D01*
X50800000Y-13731056D01*
X50500000Y-13731056D01*
X50500000Y-10650000D01*
X50497433Y-10610842D01*
X50478692Y-10468492D01*
X50458423Y-10392846D01*
X50403478Y-10260196D01*
X50364320Y-10192372D01*
X50276915Y-10078463D01*
X50221537Y-10023085D01*
X50107628Y-9935680D01*
X50039804Y-9896522D01*
X49907154Y-9841577D01*
X49831508Y-9821308D01*
X49689158Y-9802567D01*
X49650000Y-9800000D01*
X49434499Y-9800000D01*
X49417852Y-9800462D01*
X49085413Y-9818938D01*
X49052322Y-9822628D01*
X48723978Y-9877829D01*
X48707638Y-9881045D01*
X14173139Y-17679158D01*
X14156807Y-17683331D01*
X13832771Y-17775905D01*
X13800939Y-17786968D01*
X13489329Y-17915301D01*
X13458937Y-17929864D01*
X13163687Y-18092337D01*
X13135121Y-18110217D01*
X12859957Y-18304778D01*
X12833578Y-18325749D01*
X12581970Y-18549944D01*
X12558107Y-18573742D01*
X12333233Y-18824743D01*
X12312192Y-18851065D01*
X12116887Y-19125702D01*
X12098929Y-19154220D01*
X11935659Y-19449030D01*
X11921014Y-19479382D01*
X11791839Y-19790643D01*
X11780690Y-19822444D01*
X11687239Y-20146229D01*
X11679727Y-20179082D01*
X11623181Y-20511305D01*
X11619402Y-20544793D01*
X11600474Y-20881263D01*
X11600000Y-20898113D01*
X11600000Y-24637997D01*
X11579668Y-24668426D01*
X11526901Y-24795818D01*
X11500000Y-24931056D01*
X600000Y-24931056D01*
X600000Y-1504908D01*
X617768Y-1324515D01*
X668955Y-1155771D01*
X752080Y-1000255D01*
X863946Y-863946D01*
X1000255Y-752080D01*
X1155771Y-668955D01*
X1324515Y-617768D01*
X1504908Y-600000D01*
X98495092Y-600000D01*
X98675485Y-617768D01*
%TA.AperFunction,Conductor*%
D15*
G36*
X98675485Y-617768D02*
G01*
X98844229Y-668955D01*
X98999745Y-752080D01*
X99136054Y-863946D01*
X99247920Y-1000255D01*
X99331045Y-1155771D01*
X99382232Y-1324515D01*
X99400000Y-1504908D01*
X99400000Y-22729397D01*
X99385268Y-22825938D01*
X99345787Y-22906790D01*
X99283984Y-22972191D01*
X99205494Y-23016182D01*
X99117453Y-23034762D01*
X99027873Y-23026240D01*
X98944918Y-22991392D01*
X98870264Y-22928442D01*
X98474066Y-22475645D01*
X98466640Y-22468018D01*
X98310437Y-22323815D01*
X98293372Y-22311137D01*
X98110215Y-22203212D01*
X98090856Y-22194427D01*
X97889025Y-22127657D01*
X97868246Y-22123164D01*
X97656861Y-22100567D01*
X97646232Y-22100000D01*
X93015257Y-22100000D01*
X92836347Y-22082527D01*
X92668874Y-22032172D01*
X92514310Y-21950366D01*
X92374702Y-21837122D01*
X89641794Y-19139706D01*
X89634709Y-19133350D01*
X89487301Y-19013255D01*
X89471486Y-19002701D01*
X89304011Y-18912677D01*
X89286484Y-18905308D01*
X89104998Y-18848610D01*
X89086392Y-18844691D01*
X88897454Y-18823369D01*
X88878443Y-18823042D01*
X88688885Y-18837867D01*
X88670156Y-18841145D01*
X88486831Y-18891580D01*
X88469061Y-18898344D01*
X88298595Y-18982567D01*
X88282426Y-18992572D01*
X88130983Y-19107538D01*
X88117001Y-19120422D01*
X87990056Y-19261973D01*
X87984046Y-19269353D01*
X87391618Y-20071997D01*
X60794036Y-10400151D01*
X60788424Y-10343173D01*
X60742679Y-10192372D01*
X60668393Y-10053394D01*
X60568422Y-9931578D01*
X60446606Y-9831607D01*
X60307628Y-9757321D01*
X60156827Y-9711576D01*
X60039293Y-9700000D01*
X56039291Y-9700000D01*
X56000000Y-9696130D01*
X55960709Y-9700000D01*
X55960707Y-9700000D01*
X55843173Y-9711576D01*
X55692372Y-9757321D01*
X55553393Y-9831607D01*
X55541245Y-9841577D01*
X55431578Y-9931578D01*
X55406523Y-9962108D01*
X54906531Y-10462099D01*
X54831607Y-10553394D01*
X54757321Y-10692373D01*
X54711577Y-10843173D01*
X54696130Y-11000000D01*
X54711577Y-11156827D01*
X54757321Y-11307627D01*
X54831607Y-11446606D01*
X54869554Y-11492844D01*
X54826901Y-11595818D01*
X54800000Y-11731056D01*
X54800000Y-11868944D01*
X54826901Y-12004182D01*
X54879668Y-12131574D01*
X54925388Y-12200000D01*
X54879668Y-12268426D01*
X54826901Y-12395818D01*
X54800000Y-12531056D01*
X54800000Y-12668944D01*
X54826901Y-12804182D01*
X54879668Y-12931574D01*
X54956274Y-13046224D01*
X55053776Y-13143726D01*
X55168426Y-13220332D01*
X55295818Y-13273099D01*
X55431056Y-13300000D01*
X55568944Y-13300000D01*
X55704182Y-13273099D01*
X55831574Y-13220332D01*
X55946224Y-13143726D01*
X56043726Y-13046224D01*
X56120332Y-12931574D01*
X56173099Y-12804182D01*
X56200000Y-12668944D01*
X56200000Y-12531056D01*
X56173099Y-12395818D01*
X56120332Y-12268426D01*
X56074612Y-12200000D01*
X56120332Y-12131574D01*
X56173099Y-12004182D01*
X56200000Y-11868944D01*
X56200000Y-11731056D01*
X56173099Y-11595818D01*
X56132813Y-11498557D01*
X56331369Y-11300000D01*
X60039293Y-11300000D01*
X60156827Y-11288424D01*
X60307628Y-11242679D01*
X60435615Y-11174268D01*
X86952293Y-20816697D01*
X86494437Y-21863223D01*
X58745064Y-19450236D01*
X58742679Y-19442372D01*
X58668393Y-19303394D01*
X58568422Y-19181578D01*
X58446606Y-19081607D01*
X58307628Y-19007321D01*
X58156827Y-18961576D01*
X58039293Y-18950000D01*
X53689290Y-18950000D01*
X53649999Y-18946130D01*
X53610708Y-18950000D01*
X53610707Y-18950000D01*
X53493173Y-18961576D01*
X53366506Y-19000000D01*
X53342372Y-19007321D01*
X53203393Y-19081607D01*
X53155233Y-19121131D01*
X53081578Y-19181578D01*
X53056527Y-19212103D01*
X52606531Y-19662099D01*
X52531607Y-19753394D01*
X52457321Y-19892373D01*
X52411577Y-20043173D01*
X52396130Y-20200000D01*
X52411577Y-20356827D01*
X52457321Y-20507627D01*
X52531607Y-20646606D01*
X52569554Y-20692844D01*
X52526901Y-20795818D01*
X52500000Y-20931056D01*
X52500000Y-21068944D01*
X52526901Y-21204182D01*
X52579668Y-21331574D01*
X52625388Y-21400000D01*
X52579668Y-21468426D01*
X52526901Y-21595818D01*
X52500000Y-21731056D01*
X52500000Y-21868944D01*
X52526901Y-22004182D01*
X52579668Y-22131574D01*
X52656274Y-22246224D01*
X52753776Y-22343726D01*
X52868426Y-22420332D01*
X52995818Y-22473099D01*
X53131056Y-22500000D01*
X53268944Y-22500000D01*
X53404182Y-22473099D01*
X53531574Y-22420332D01*
X53646224Y-22343726D01*
X53743726Y-22246224D01*
X53820332Y-22131574D01*
X53873099Y-22004182D01*
X53900000Y-21868944D01*
X53900000Y-21731056D01*
X53873099Y-21595818D01*
X53820332Y-21468426D01*
X53774612Y-21400000D01*
X53820332Y-21331574D01*
X53873099Y-21204182D01*
X53900000Y-21068944D01*
X53900000Y-20931056D01*
X53873099Y-20795818D01*
X53832813Y-20698557D01*
X53981370Y-20550000D01*
X58039293Y-20550000D01*
X58156827Y-20538424D01*
X58307628Y-20492679D01*
X58446606Y-20418393D01*
X58568422Y-20318422D01*
X58630107Y-20243258D01*
X86242026Y-22644294D01*
X85723692Y-24475741D01*
X85721751Y-24483887D01*
X85689813Y-24648150D01*
X85688005Y-24664786D01*
X85683905Y-24832075D01*
X85684896Y-24848779D01*
X85708749Y-25014409D01*
X85710289Y-25022641D01*
X86259869Y-27404154D01*
X58668403Y-29803412D01*
X58668393Y-29803394D01*
X58568422Y-29681578D01*
X58446606Y-29581607D01*
X58307628Y-29507321D01*
X58156827Y-29461576D01*
X58039293Y-29450000D01*
X53789282Y-29450000D01*
X53749999Y-29446131D01*
X53710716Y-29450000D01*
X53710707Y-29450000D01*
X53593173Y-29461576D01*
X53442372Y-29507321D01*
X53351803Y-29555731D01*
X53303393Y-29581607D01*
X53237505Y-29635680D01*
X53181578Y-29681578D01*
X53156531Y-29712098D01*
X52606531Y-30262099D01*
X52531607Y-30353394D01*
X52457321Y-30492373D01*
X52411577Y-30643173D01*
X52396130Y-30800000D01*
X52411577Y-30956827D01*
X52457321Y-31107627D01*
X52531607Y-31246606D01*
X52569554Y-31292844D01*
X52526901Y-31395818D01*
X52500000Y-31531056D01*
X52500000Y-31668944D01*
X52526901Y-31804182D01*
X52579668Y-31931574D01*
X52625388Y-32000000D01*
X52579668Y-32068426D01*
X52526901Y-32195818D01*
X52500000Y-32331056D01*
X52500000Y-32468944D01*
X52526901Y-32604182D01*
X52579668Y-32731574D01*
X52656274Y-32846224D01*
X52753776Y-32943726D01*
X52868426Y-33020332D01*
X52995818Y-33073099D01*
X53131056Y-33100000D01*
X53268944Y-33100000D01*
X53404182Y-33073099D01*
X53531574Y-33020332D01*
X53646224Y-32943726D01*
X53743726Y-32846224D01*
X53820332Y-32731574D01*
X53873099Y-32604182D01*
X53900000Y-32468944D01*
X53900000Y-32331056D01*
X53873099Y-32195818D01*
X53820332Y-32068426D01*
X53774612Y-32000000D01*
X53820332Y-31931574D01*
X53873099Y-31804182D01*
X53900000Y-31668944D01*
X53900000Y-31531056D01*
X53873099Y-31395818D01*
X53832813Y-31298557D01*
X54081371Y-31050000D01*
X58039293Y-31050000D01*
X58156827Y-31038424D01*
X58307628Y-30992679D01*
X58446606Y-30918393D01*
X58568422Y-30818422D01*
X58668393Y-30696606D01*
X58718942Y-30602036D01*
X86472084Y-28188720D01*
X86952551Y-29309811D01*
X60545169Y-38912495D01*
X60446606Y-38831607D01*
X60307628Y-38757321D01*
X60156827Y-38711576D01*
X60039293Y-38700000D01*
X56039291Y-38700000D01*
X56000000Y-38696130D01*
X55960709Y-38700000D01*
X55960707Y-38700000D01*
X55843173Y-38711576D01*
X55692372Y-38757321D01*
X55553393Y-38831607D01*
X55541245Y-38841577D01*
X55431578Y-38931578D01*
X55406523Y-38962108D01*
X54906531Y-39462099D01*
X54831607Y-39553394D01*
X54757321Y-39692373D01*
X54711577Y-39843173D01*
X54696130Y-40000000D01*
X54711577Y-40156827D01*
X54757321Y-40307627D01*
X54831607Y-40446606D01*
X54869554Y-40492844D01*
X54826901Y-40595818D01*
X54800000Y-40731056D01*
X54800000Y-40868944D01*
X54826901Y-41004182D01*
X54879668Y-41131574D01*
X54925388Y-41200000D01*
X54879668Y-41268426D01*
X54826901Y-41395818D01*
X54800000Y-41531056D01*
X54800000Y-41668944D01*
X54826901Y-41804182D01*
X54879668Y-41931574D01*
X54956274Y-42046224D01*
X55053776Y-42143726D01*
X55168426Y-42220332D01*
X55295818Y-42273099D01*
X55431056Y-42300000D01*
X55568944Y-42300000D01*
X55704182Y-42273099D01*
X55831574Y-42220332D01*
X55946224Y-42143726D01*
X56043726Y-42046224D01*
X56120332Y-41931574D01*
X56173099Y-41804182D01*
X56200000Y-41668944D01*
X56200000Y-41531056D01*
X56173099Y-41395818D01*
X56120332Y-41268426D01*
X56074612Y-41200000D01*
X56120332Y-41131574D01*
X56173099Y-41004182D01*
X56200000Y-40868944D01*
X56200000Y-40731056D01*
X56173099Y-40595818D01*
X56132813Y-40498557D01*
X56331369Y-40300000D01*
X60039293Y-40300000D01*
X60156827Y-40288424D01*
X60307628Y-40242679D01*
X60446606Y-40168393D01*
X60568422Y-40068422D01*
X60668393Y-39946606D01*
X60742679Y-39807628D01*
X60782129Y-39677578D01*
X87368416Y-30009838D01*
X87996145Y-30637567D01*
X88003250Y-30644020D01*
X88151209Y-30765981D01*
X88167106Y-30776702D01*
X88335623Y-30868182D01*
X88353275Y-30875673D01*
X88536155Y-30933307D01*
X88554911Y-30937290D01*
X88745428Y-30958960D01*
X88764600Y-30959291D01*
X88955751Y-30944199D01*
X88974633Y-30940864D01*
X89159390Y-30889567D01*
X89177289Y-30882690D01*
X89348859Y-30797072D01*
X89365116Y-30786904D01*
X89517190Y-30670114D01*
X89524513Y-30663910D01*
X92276644Y-28095255D01*
X92413899Y-27989375D01*
X92564291Y-27913108D01*
X92726275Y-27866248D01*
X92898862Y-27850000D01*
X98495092Y-27850000D01*
X98675485Y-27867768D01*
X98844229Y-27918955D01*
X98999745Y-28002080D01*
X99136054Y-28113946D01*
X99247920Y-28250255D01*
X99331045Y-28405771D01*
X99382232Y-28574515D01*
X99400000Y-28754908D01*
X99400000Y-48495092D01*
X99382232Y-48675485D01*
X99331045Y-48844229D01*
X99247920Y-48999745D01*
X99136054Y-49136054D01*
X98999745Y-49247920D01*
X98844229Y-49331045D01*
X98675485Y-49382232D01*
X98495092Y-49400000D01*
X1504908Y-49400000D01*
X1324515Y-49382232D01*
X1155771Y-49331045D01*
X1000255Y-49247920D01*
X863946Y-49136054D01*
X752080Y-48999745D01*
X668955Y-48844229D01*
X617768Y-48675485D01*
X600000Y-48495092D01*
X600000Y-24931056D01*
X11500000Y-24931056D01*
X11500000Y-25068944D01*
X11526901Y-25204182D01*
X11579668Y-25331574D01*
X11600000Y-25362003D01*
X11600000Y-29504302D01*
X11600495Y-29521524D01*
X11620268Y-29865393D01*
X11624216Y-29899610D01*
X11683274Y-30238947D01*
X11691118Y-30272485D01*
X11788682Y-30602815D01*
X11800319Y-30635234D01*
X11935104Y-30952204D01*
X11950379Y-30983075D01*
X12120608Y-31282507D01*
X12139322Y-31311423D01*
X12342750Y-31589369D01*
X12364655Y-31615951D01*
X12598602Y-31868747D01*
X12623409Y-31892641D01*
X12884790Y-32116956D01*
X12912173Y-32137850D01*
X13197543Y-32330725D01*
X13227140Y-32348343D01*
X13532737Y-32507238D01*
X13564158Y-32521347D01*
X13885954Y-32644166D01*
X13902221Y-32649844D01*
X48566625Y-43645542D01*
X48581377Y-43649810D01*
X48878404Y-43727545D01*
X48908465Y-43733788D01*
X49211882Y-43780758D01*
X49242425Y-43783896D01*
X49549053Y-43799607D01*
X49564404Y-43800000D01*
X49650000Y-43800000D01*
X49689158Y-43797433D01*
X49831508Y-43778692D01*
X49907154Y-43758423D01*
X50039804Y-43703478D01*
X50107628Y-43664320D01*
X50221537Y-43576915D01*
X50276915Y-43521537D01*
X50364320Y-43407628D01*
X50403478Y-43339804D01*
X50458423Y-43207154D01*
X50478692Y-43131508D01*
X50491916Y-43031056D01*
X51000000Y-43031056D01*
X51000000Y-43168944D01*
X51026901Y-43304182D01*
X51079668Y-43431574D01*
X51156274Y-43546224D01*
X51253776Y-43643726D01*
X51368426Y-43720332D01*
X51495818Y-43773099D01*
X51631056Y-43800000D01*
X51725958Y-43800000D01*
X53711719Y-45785762D01*
X53725024Y-45801974D01*
X53789738Y-45855084D01*
X53863571Y-45894548D01*
X53919381Y-45911478D01*
X53943683Y-45918850D01*
X53952096Y-45919679D01*
X54006124Y-45925000D01*
X54006130Y-45925000D01*
X54026997Y-45927055D01*
X54047864Y-45925000D01*
X54742093Y-45925000D01*
X54756274Y-45946224D01*
X54853776Y-46043726D01*
X54968426Y-46120332D01*
X55095818Y-46173099D01*
X55231056Y-46200000D01*
X55368944Y-46200000D01*
X55504182Y-46173099D01*
X55631574Y-46120332D01*
X55746224Y-46043726D01*
X55843726Y-45946224D01*
X55920332Y-45831574D01*
X55973099Y-45704182D01*
X56000000Y-45568944D01*
X56000000Y-45431056D01*
X55973099Y-45295818D01*
X55920332Y-45168426D01*
X55843726Y-45053776D01*
X55746224Y-44956274D01*
X55631574Y-44879668D01*
X55504182Y-44826901D01*
X55368944Y-44800000D01*
X55231056Y-44800000D01*
X55095818Y-44826901D01*
X54968426Y-44879668D01*
X54853776Y-44956274D01*
X54756274Y-45053776D01*
X54742093Y-45075000D01*
X54203039Y-45075000D01*
X52859095Y-43731056D01*
X56100000Y-43731056D01*
X56100000Y-43868944D01*
X56126901Y-44004182D01*
X56179668Y-44131574D01*
X56256274Y-44246224D01*
X56353776Y-44343726D01*
X56468426Y-44420332D01*
X56595818Y-44473099D01*
X56731056Y-44500000D01*
X56868944Y-44500000D01*
X57004182Y-44473099D01*
X57131574Y-44420332D01*
X57246224Y-44343726D01*
X57343726Y-44246224D01*
X57420332Y-44131574D01*
X57473099Y-44004182D01*
X57500000Y-43868944D01*
X57500000Y-43731056D01*
X57473099Y-43595818D01*
X57420332Y-43468426D01*
X57343726Y-43353776D01*
X57246224Y-43256274D01*
X57131574Y-43179668D01*
X57004182Y-43126901D01*
X56868944Y-43100000D01*
X56731056Y-43100000D01*
X56595818Y-43126901D01*
X56468426Y-43179668D01*
X56353776Y-43256274D01*
X56256274Y-43353776D01*
X56179668Y-43468426D01*
X56126901Y-43595818D01*
X56100000Y-43731056D01*
X52859095Y-43731056D01*
X52382908Y-43254870D01*
X52400000Y-43168944D01*
X52400000Y-43031056D01*
X52373099Y-42895818D01*
X52320332Y-42768426D01*
X52243726Y-42653776D01*
X52146224Y-42556274D01*
X52031574Y-42479668D01*
X51904182Y-42426901D01*
X51768944Y-42400000D01*
X51631056Y-42400000D01*
X51495818Y-42426901D01*
X51368426Y-42479668D01*
X51253776Y-42556274D01*
X51156274Y-42653776D01*
X51079668Y-42768426D01*
X51026901Y-42895818D01*
X51000000Y-43031056D01*
X50491916Y-43031056D01*
X50497433Y-42989158D01*
X50500000Y-42950000D01*
X50500000Y-39650000D01*
X50497433Y-39610842D01*
X50478692Y-39468492D01*
X50458423Y-39392846D01*
X50403478Y-39260196D01*
X50364320Y-39192372D01*
X50276915Y-39078463D01*
X50221537Y-39023085D01*
X50107628Y-38935680D01*
X50039804Y-38896522D01*
X49907154Y-38841577D01*
X49831508Y-38821308D01*
X49689158Y-38802567D01*
X49650000Y-38800000D01*
X49600391Y-38800000D01*
X49300135Y-38783706D01*
X49011440Y-38736335D01*
X48721718Y-38655821D01*
X34848183Y-33976903D01*
X34715641Y-33916986D01*
X34609674Y-33840832D01*
X34520819Y-33745275D01*
X34452559Y-33634064D01*
X34407580Y-33511574D01*
X34387648Y-33382614D01*
X34393549Y-33252262D01*
X34425048Y-33125636D01*
X34480911Y-33007709D01*
X34558941Y-32903119D01*
X34656064Y-32815982D01*
X34768478Y-32749713D01*
X34891745Y-32706927D01*
X35021041Y-32689297D01*
X35166220Y-32698465D01*
X46510654Y-34556605D01*
X46534820Y-34559562D01*
X47019738Y-34599012D01*
X47044064Y-34600000D01*
X47350000Y-34600000D01*
X47389158Y-34597433D01*
X47531508Y-34578692D01*
X47607154Y-34558423D01*
X47739804Y-34503478D01*
X47807628Y-34464320D01*
X47921537Y-34376915D01*
X47976915Y-34321537D01*
X48064320Y-34207628D01*
X48103478Y-34139804D01*
X48158423Y-34007154D01*
X48178692Y-33931508D01*
X48197433Y-33789158D01*
X48200000Y-33750000D01*
X48200000Y-33531056D01*
X48700000Y-33531056D01*
X48700000Y-33668944D01*
X48726901Y-33804182D01*
X48779668Y-33931574D01*
X48856274Y-34046224D01*
X48953776Y-34143726D01*
X49068426Y-34220332D01*
X49195818Y-34273099D01*
X49331056Y-34300000D01*
X49425958Y-34300000D01*
X51411719Y-36285762D01*
X51425024Y-36301974D01*
X51489738Y-36355084D01*
X51563571Y-36394548D01*
X51619381Y-36411478D01*
X51643683Y-36418850D01*
X51652096Y-36419679D01*
X51706124Y-36425000D01*
X51706130Y-36425000D01*
X51726997Y-36427055D01*
X51747864Y-36425000D01*
X52442093Y-36425000D01*
X52456274Y-36446224D01*
X52553776Y-36543726D01*
X52668426Y-36620332D01*
X52795818Y-36673099D01*
X52931056Y-36700000D01*
X53068944Y-36700000D01*
X53204182Y-36673099D01*
X53331574Y-36620332D01*
X53446224Y-36543726D01*
X53543726Y-36446224D01*
X53620332Y-36331574D01*
X53673099Y-36204182D01*
X53700000Y-36068944D01*
X53700000Y-35931056D01*
X53673099Y-35795818D01*
X53620332Y-35668426D01*
X53543726Y-35553776D01*
X53446224Y-35456274D01*
X53331574Y-35379668D01*
X53204182Y-35326901D01*
X53068944Y-35300000D01*
X52931056Y-35300000D01*
X52795818Y-35326901D01*
X52668426Y-35379668D01*
X52553776Y-35456274D01*
X52456274Y-35553776D01*
X52442093Y-35575000D01*
X51903039Y-35575000D01*
X50809095Y-34481056D01*
X53750000Y-34481056D01*
X53750000Y-34618944D01*
X53776901Y-34754182D01*
X53829668Y-34881574D01*
X53906274Y-34996224D01*
X54003776Y-35093726D01*
X54118426Y-35170332D01*
X54245818Y-35223099D01*
X54381056Y-35250000D01*
X54518944Y-35250000D01*
X54654182Y-35223099D01*
X54781574Y-35170332D01*
X54896224Y-35093726D01*
X54993726Y-34996224D01*
X55070332Y-34881574D01*
X55123099Y-34754182D01*
X55150000Y-34618944D01*
X55150000Y-34481056D01*
X55123099Y-34345818D01*
X55070332Y-34218426D01*
X54993726Y-34103776D01*
X54896224Y-34006274D01*
X54781574Y-33929668D01*
X54654182Y-33876901D01*
X54518944Y-33850000D01*
X54381056Y-33850000D01*
X54245818Y-33876901D01*
X54118426Y-33929668D01*
X54003776Y-34006274D01*
X53906274Y-34103776D01*
X53829668Y-34218426D01*
X53776901Y-34345818D01*
X53750000Y-34481056D01*
X50809095Y-34481056D01*
X50082908Y-33754870D01*
X50100000Y-33668944D01*
X50100000Y-33531056D01*
X50073099Y-33395818D01*
X50020332Y-33268426D01*
X49943726Y-33153776D01*
X49846224Y-33056274D01*
X49731574Y-32979668D01*
X49604182Y-32926901D01*
X49468944Y-32900000D01*
X49331056Y-32900000D01*
X49195818Y-32926901D01*
X49068426Y-32979668D01*
X48953776Y-33056274D01*
X48856274Y-33153776D01*
X48779668Y-33268426D01*
X48726901Y-33395818D01*
X48700000Y-33531056D01*
X48200000Y-33531056D01*
X48200000Y-30350000D01*
X48197433Y-30310842D01*
X48178692Y-30168492D01*
X48158423Y-30092846D01*
X48103478Y-29960196D01*
X48064320Y-29892372D01*
X47976915Y-29778463D01*
X47921537Y-29723085D01*
X47807628Y-29635680D01*
X47739804Y-29596522D01*
X47607154Y-29541577D01*
X47531508Y-29521308D01*
X47389158Y-29502567D01*
X47350000Y-29500000D01*
X47016210Y-29500000D01*
X46626805Y-29473271D01*
X35227504Y-27900954D01*
X35026607Y-27856621D01*
X34846578Y-27785251D01*
X34680245Y-27686070D01*
X34531866Y-27561618D01*
X34405251Y-27415090D01*
X34303632Y-27250227D01*
X34229624Y-27071272D01*
X34185118Y-26882793D01*
X34171255Y-26689634D01*
X34188391Y-26496734D01*
X34236087Y-26309039D01*
X34313120Y-26131361D01*
X34417515Y-25968253D01*
X34546604Y-25823886D01*
X34697069Y-25701969D01*
X34865061Y-25605622D01*
X35046271Y-25537315D01*
X35247879Y-25496399D01*
X35375006Y-25481056D01*
X52550000Y-25481056D01*
X52550000Y-25618944D01*
X52576901Y-25754182D01*
X52629668Y-25881574D01*
X52706274Y-25996224D01*
X52803776Y-26093726D01*
X52918426Y-26170332D01*
X53045818Y-26223099D01*
X53181056Y-26250000D01*
X53318944Y-26250000D01*
X53454182Y-26223099D01*
X53581574Y-26170332D01*
X53696224Y-26093726D01*
X53793726Y-25996224D01*
X53870332Y-25881574D01*
X53923099Y-25754182D01*
X53927637Y-25731370D01*
X55344728Y-25150000D01*
X83675388Y-25150000D01*
X83706274Y-25196224D01*
X83803776Y-25293726D01*
X83918426Y-25370332D01*
X84045818Y-25423099D01*
X84181056Y-25450000D01*
X84318944Y-25450000D01*
X84454182Y-25423099D01*
X84581574Y-25370332D01*
X84696224Y-25293726D01*
X84793726Y-25196224D01*
X84870332Y-25081574D01*
X84923099Y-24954182D01*
X84950000Y-24818944D01*
X84950000Y-24681056D01*
X84923099Y-24545818D01*
X84870332Y-24418426D01*
X84793726Y-24303776D01*
X84696224Y-24206274D01*
X84581574Y-24129668D01*
X84454182Y-24076901D01*
X84318944Y-24050000D01*
X84181056Y-24050000D01*
X84045818Y-24076901D01*
X83918426Y-24129668D01*
X83803776Y-24206274D01*
X83706274Y-24303776D01*
X83675388Y-24350000D01*
X55345196Y-24350000D01*
X55284731Y-24331434D01*
X55201444Y-24322947D01*
X55118102Y-24330871D01*
X55058000Y-24348881D01*
X54967319Y-24386084D01*
X54970332Y-24381574D01*
X55023099Y-24254182D01*
X55050000Y-24118944D01*
X55050000Y-23981056D01*
X55023099Y-23845818D01*
X54970332Y-23718426D01*
X54893726Y-23603776D01*
X54796224Y-23506274D01*
X54681574Y-23429668D01*
X54554182Y-23376901D01*
X54418944Y-23350000D01*
X54281056Y-23350000D01*
X54145818Y-23376901D01*
X54018426Y-23429668D01*
X53903776Y-23506274D01*
X53806274Y-23603776D01*
X53729668Y-23718426D01*
X53676901Y-23845818D01*
X53650000Y-23981056D01*
X53650000Y-24118944D01*
X53676901Y-24254182D01*
X53729668Y-24381574D01*
X53806274Y-24496224D01*
X53903776Y-24593726D01*
X54018426Y-24670332D01*
X54145818Y-24723099D01*
X54145836Y-24723103D01*
X53604688Y-24945112D01*
X53581574Y-24929668D01*
X53454182Y-24876901D01*
X53318944Y-24850000D01*
X53181056Y-24850000D01*
X53045818Y-24876901D01*
X52918426Y-24929668D01*
X52803776Y-25006274D01*
X52706274Y-25103776D01*
X52629668Y-25218426D01*
X52576901Y-25345818D01*
X52550000Y-25481056D01*
X35375006Y-25481056D01*
X46647929Y-24120531D01*
X46989387Y-24100000D01*
X47350000Y-24100000D01*
X47389158Y-24097433D01*
X47531508Y-24078692D01*
X47607154Y-24058423D01*
X47739804Y-24003478D01*
X47807628Y-23964320D01*
X47921537Y-23876915D01*
X47976915Y-23821537D01*
X48064320Y-23707628D01*
X48103478Y-23639804D01*
X48158423Y-23507154D01*
X48178692Y-23431508D01*
X48197433Y-23289158D01*
X48200000Y-23250000D01*
X48200000Y-19850000D01*
X48197433Y-19810842D01*
X48178692Y-19668492D01*
X48158423Y-19592846D01*
X48103478Y-19460196D01*
X48064320Y-19392372D01*
X47976915Y-19278463D01*
X47921537Y-19223085D01*
X47807628Y-19135680D01*
X47739804Y-19096522D01*
X47607154Y-19041577D01*
X47531508Y-19021308D01*
X47389158Y-19002567D01*
X47350000Y-19000000D01*
X47050399Y-19000000D01*
X47025446Y-19001040D01*
X46528113Y-19042550D01*
X46503333Y-19045661D01*
X35164968Y-20951680D01*
X35020460Y-20961411D01*
X34891725Y-20944398D01*
X34768879Y-20902318D01*
X34656751Y-20836826D01*
X34559750Y-20750497D01*
X34481689Y-20646721D01*
X34425642Y-20529589D01*
X34393809Y-20403698D01*
X34387443Y-20273998D01*
X34406793Y-20145597D01*
X34451101Y-20023533D01*
X34518620Y-19912618D01*
X34606704Y-19817198D01*
X34711873Y-19741043D01*
X34843643Y-19680914D01*
X48718061Y-14947288D01*
X49010684Y-14865043D01*
X49302406Y-14816648D01*
X49605908Y-14800000D01*
X49650000Y-14800000D01*
X49689158Y-14797433D01*
X49831508Y-14778692D01*
X49907154Y-14758423D01*
X50039804Y-14703478D01*
X50107628Y-14664320D01*
X50221537Y-14576915D01*
X50276915Y-14521537D01*
X50364320Y-14407628D01*
X50403478Y-14339804D01*
X50458423Y-14207154D01*
X50478692Y-14131508D01*
X50497433Y-13989158D01*
X50500000Y-13950000D01*
X50500000Y-13731056D01*
X50800000Y-13731056D01*
X50800000Y-13868944D01*
X50826901Y-14004182D01*
X50879668Y-14131574D01*
X50956274Y-14246224D01*
X51053776Y-14343726D01*
X51168426Y-14420332D01*
X51295818Y-14473099D01*
X51431056Y-14500000D01*
X51525958Y-14500000D01*
X53511719Y-16485762D01*
X53525024Y-16501974D01*
X53589738Y-16555084D01*
X53663571Y-16594548D01*
X53719381Y-16611478D01*
X53743683Y-16618850D01*
X53752096Y-16619679D01*
X53806124Y-16625000D01*
X53806130Y-16625000D01*
X53826997Y-16627055D01*
X53847864Y-16625000D01*
X54542093Y-16625000D01*
X54556274Y-16646224D01*
X54653776Y-16743726D01*
X54768426Y-16820332D01*
X54895818Y-16873099D01*
X55031056Y-16900000D01*
X55168944Y-16900000D01*
X55304182Y-16873099D01*
X55431574Y-16820332D01*
X55546224Y-16743726D01*
X55643726Y-16646224D01*
X55720332Y-16531574D01*
X55773099Y-16404182D01*
X55800000Y-16268944D01*
X55800000Y-16131056D01*
X55773099Y-15995818D01*
X55720332Y-15868426D01*
X55643726Y-15753776D01*
X55546224Y-15656274D01*
X55431574Y-15579668D01*
X55304182Y-15526901D01*
X55168944Y-15500000D01*
X55031056Y-15500000D01*
X54895818Y-15526901D01*
X54768426Y-15579668D01*
X54653776Y-15656274D01*
X54556274Y-15753776D01*
X54542093Y-15775000D01*
X54003039Y-15775000D01*
X52959095Y-14731056D01*
X55950000Y-14731056D01*
X55950000Y-14868944D01*
X55976901Y-15004182D01*
X56029668Y-15131574D01*
X56106274Y-15246224D01*
X56203776Y-15343726D01*
X56318426Y-15420332D01*
X56445818Y-15473099D01*
X56581056Y-15500000D01*
X56718944Y-15500000D01*
X56854182Y-15473099D01*
X56981574Y-15420332D01*
X57096224Y-15343726D01*
X57193726Y-15246224D01*
X57270332Y-15131574D01*
X57323099Y-15004182D01*
X57350000Y-14868944D01*
X57350000Y-14731056D01*
X57323099Y-14595818D01*
X57270332Y-14468426D01*
X57193726Y-14353776D01*
X57096224Y-14256274D01*
X56981574Y-14179668D01*
X56854182Y-14126901D01*
X56718944Y-14100000D01*
X56581056Y-14100000D01*
X56445818Y-14126901D01*
X56318426Y-14179668D01*
X56203776Y-14256274D01*
X56106274Y-14353776D01*
X56029668Y-14468426D01*
X55976901Y-14595818D01*
X55950000Y-14731056D01*
X52959095Y-14731056D01*
X52182908Y-13954870D01*
X52200000Y-13868944D01*
X52200000Y-13731056D01*
X52173099Y-13595818D01*
X52120332Y-13468426D01*
X52043726Y-13353776D01*
X51946224Y-13256274D01*
X51831574Y-13179668D01*
X51704182Y-13126901D01*
X51568944Y-13100000D01*
X51431056Y-13100000D01*
X51295818Y-13126901D01*
X51168426Y-13179668D01*
X51053776Y-13256274D01*
X50956274Y-13353776D01*
X50879668Y-13468426D01*
X50826901Y-13595818D01*
X50800000Y-13731056D01*
X50500000Y-13731056D01*
X50500000Y-10650000D01*
X50497433Y-10610842D01*
X50478692Y-10468492D01*
X50458423Y-10392846D01*
X50403478Y-10260196D01*
X50364320Y-10192372D01*
X50276915Y-10078463D01*
X50221537Y-10023085D01*
X50107628Y-9935680D01*
X50039804Y-9896522D01*
X49907154Y-9841577D01*
X49831508Y-9821308D01*
X49689158Y-9802567D01*
X49650000Y-9800000D01*
X49434499Y-9800000D01*
X49417852Y-9800462D01*
X49085413Y-9818938D01*
X49052322Y-9822628D01*
X48723978Y-9877829D01*
X48707638Y-9881045D01*
X14173139Y-17679158D01*
X14156807Y-17683331D01*
X13832771Y-17775905D01*
X13800939Y-17786968D01*
X13489329Y-17915301D01*
X13458937Y-17929864D01*
X13163687Y-18092337D01*
X13135121Y-18110217D01*
X12859957Y-18304778D01*
X12833578Y-18325749D01*
X12581970Y-18549944D01*
X12558107Y-18573742D01*
X12333233Y-18824743D01*
X12312192Y-18851065D01*
X12116887Y-19125702D01*
X12098929Y-19154220D01*
X11935659Y-19449030D01*
X11921014Y-19479382D01*
X11791839Y-19790643D01*
X11780690Y-19822444D01*
X11687239Y-20146229D01*
X11679727Y-20179082D01*
X11623181Y-20511305D01*
X11619402Y-20544793D01*
X11600474Y-20881263D01*
X11600000Y-20898113D01*
X11600000Y-24637997D01*
X11579668Y-24668426D01*
X11526901Y-24795818D01*
X11500000Y-24931056D01*
X600000Y-24931056D01*
X600000Y-1504908D01*
X617768Y-1324515D01*
X668955Y-1155771D01*
X752080Y-1000255D01*
X863946Y-863946D01*
X1000255Y-752080D01*
X1155771Y-668955D01*
X1324515Y-617768D01*
X1504908Y-600000D01*
X98495092Y-600000D01*
X98675485Y-617768D01*
G37*
%TD.AperFunction*%
%TD*%
D16*
%TO.N,/VIN*%
X49759195Y-10242471D02*
X49860953Y-10284621D01*
X49948332Y-10351668D01*
X50015379Y-10439047D01*
X50057529Y-10540805D01*
X50073000Y-10658321D01*
X50073000Y-13941679D01*
X50057529Y-14059195D01*
X50015379Y-14160953D01*
X49948332Y-14248332D01*
X49860953Y-14315379D01*
X49759195Y-14357529D01*
X49641679Y-14373000D01*
X49597681Y-14373000D01*
X49590725Y-14373191D01*
X49262590Y-14391190D01*
X49248761Y-14392711D01*
X48924563Y-14446494D01*
X48910985Y-14449519D01*
X48594616Y-14538438D01*
X48587971Y-14540504D01*
X39092468Y-17780147D01*
X38987942Y-17800938D01*
X38855636Y-17855741D01*
X38839712Y-17866381D01*
X34691654Y-19281601D01*
X34679939Y-19286259D01*
X34507415Y-19364986D01*
X34485653Y-19377661D01*
X34332056Y-19488883D01*
X34313223Y-19505603D01*
X34184592Y-19644946D01*
X34169429Y-19665053D01*
X34070822Y-19827037D01*
X34059924Y-19849741D01*
X33995219Y-20027998D01*
X33989016Y-20052405D01*
X33960756Y-20239925D01*
X33959491Y-20265078D01*
X33968789Y-20454488D01*
X33972511Y-20479394D01*
X34018999Y-20663245D01*
X34027563Y-20686928D01*
X34109415Y-20857991D01*
X34122484Y-20879519D01*
X34236481Y-21031067D01*
X34253540Y-21049592D01*
X34395200Y-21175668D01*
X34415580Y-21190463D01*
X34579331Y-21286107D01*
X34602229Y-21296590D01*
X34781633Y-21358043D01*
X34806149Y-21363801D01*
X34994152Y-21388646D01*
X35019324Y-21389454D01*
X35208533Y-21376713D01*
X35221054Y-21375243D01*
X40861884Y-20427000D01*
X40971603Y-20427000D01*
X41112058Y-20399062D01*
X41169419Y-20375302D01*
X46568905Y-19467630D01*
X47055690Y-19427000D01*
X47341679Y-19427000D01*
X47459195Y-19442471D01*
X47560953Y-19484621D01*
X47648332Y-19551668D01*
X47715379Y-19639047D01*
X47757529Y-19740805D01*
X47773000Y-19858321D01*
X47773000Y-23241679D01*
X47757529Y-23359195D01*
X47715379Y-23460953D01*
X47648332Y-23548332D01*
X47560953Y-23615379D01*
X47459195Y-23657529D01*
X47341679Y-23673000D01*
X46980380Y-23673000D01*
X46972758Y-23673229D01*
X46613298Y-23694842D01*
X46605703Y-23695528D01*
X35184783Y-25073915D01*
X35174740Y-25075537D01*
X34937736Y-25123637D01*
X34918200Y-25129263D01*
X34691907Y-25214564D01*
X34673520Y-25223234D01*
X34463737Y-25343549D01*
X34446968Y-25355042D01*
X34259071Y-25507288D01*
X34244351Y-25521309D01*
X34083153Y-25701586D01*
X34070858Y-25717776D01*
X33940490Y-25921464D01*
X33930937Y-25939410D01*
X33834741Y-26161290D01*
X33828173Y-26180529D01*
X33768612Y-26414916D01*
X33765198Y-26434956D01*
X33743799Y-26675843D01*
X33743627Y-26696172D01*
X33760938Y-26937387D01*
X33764011Y-26957483D01*
X33819589Y-27192846D01*
X33825830Y-27212194D01*
X33918251Y-27435674D01*
X33927499Y-27453778D01*
X34054393Y-27659647D01*
X34066411Y-27676043D01*
X34224529Y-27859028D01*
X34239009Y-27873298D01*
X34424298Y-28028708D01*
X34440870Y-28040483D01*
X34648583Y-28164338D01*
X34666821Y-28173319D01*
X34891635Y-28262444D01*
X34911072Y-28268399D01*
X35147226Y-28320512D01*
X35157240Y-28322305D01*
X46578657Y-29897672D01*
X46587313Y-29898565D01*
X46997225Y-29926702D01*
X47005922Y-29927000D01*
X47341679Y-29927000D01*
X47459195Y-29942471D01*
X47560953Y-29984621D01*
X47648332Y-30051668D01*
X47715379Y-30139047D01*
X47757529Y-30240805D01*
X47773000Y-30358321D01*
X47773000Y-33741679D01*
X47757529Y-33859195D01*
X47715379Y-33960953D01*
X47648332Y-34048332D01*
X47560953Y-34115379D01*
X47459195Y-34157529D01*
X47341679Y-34173000D01*
X47049224Y-34173000D01*
X46574582Y-34134386D01*
X41101287Y-33237898D01*
X41012058Y-33200938D01*
X40871603Y-33173000D01*
X40728397Y-33173000D01*
X40717862Y-33175096D01*
X35220528Y-32274670D01*
X35208004Y-32273252D01*
X35018125Y-32261262D01*
X34992963Y-32262174D01*
X34804449Y-32287878D01*
X34779962Y-32293736D01*
X34600224Y-32356124D01*
X34577374Y-32366697D01*
X34413476Y-32463316D01*
X34393160Y-32478190D01*
X34251544Y-32605244D01*
X34234562Y-32623833D01*
X34120793Y-32776328D01*
X34107812Y-32797901D01*
X34026362Y-32969843D01*
X34017892Y-32993554D01*
X33971963Y-33178184D01*
X33968337Y-33203099D01*
X33959733Y-33393162D01*
X33961093Y-33418304D01*
X33990154Y-33606329D01*
X33996447Y-33630707D01*
X34062029Y-33809305D01*
X34073009Y-33831963D01*
X34172535Y-33994112D01*
X34187767Y-34014159D01*
X34317325Y-34153489D01*
X34336214Y-34170137D01*
X34490712Y-34281169D01*
X34512514Y-34293764D01*
X34685881Y-34372136D01*
X34697610Y-34376751D01*
X48592966Y-39063028D01*
X48599546Y-39065051D01*
X48912792Y-39152103D01*
X48926233Y-39155064D01*
X49247059Y-39207707D01*
X49260741Y-39209196D01*
X49585380Y-39226813D01*
X49592262Y-39227000D01*
X49641679Y-39227000D01*
X49759195Y-39242471D01*
X49860953Y-39284621D01*
X49948332Y-39351668D01*
X50015379Y-39439047D01*
X50057529Y-39540805D01*
X50073000Y-39658321D01*
X50073000Y-42941679D01*
X50057529Y-43059195D01*
X50015379Y-43160953D01*
X49948332Y-43248332D01*
X49860953Y-43315379D01*
X49759195Y-43357529D01*
X49641679Y-43373000D01*
X49567663Y-43373000D01*
X49270770Y-43357788D01*
X48980217Y-43312809D01*
X48692638Y-43237547D01*
X14034804Y-32243933D01*
X13723239Y-32125019D01*
X13430600Y-31972861D01*
X13157337Y-31788169D01*
X12907029Y-31573357D01*
X12683010Y-31331289D01*
X12488206Y-31065126D01*
X12325193Y-30778387D01*
X12196127Y-30474866D01*
X12102697Y-30158532D01*
X12046145Y-29833595D01*
X12027000Y-29500646D01*
X12027000Y-20901691D01*
X12045327Y-20575902D01*
X12099474Y-20257772D01*
X12188961Y-19947722D01*
X12312661Y-19649653D01*
X12469010Y-19367340D01*
X12656031Y-19104352D01*
X12871371Y-18863993D01*
X13112312Y-18649303D01*
X13375810Y-18462991D01*
X13658539Y-18307408D01*
X13956940Y-18184515D01*
X14270668Y-18094886D01*
X48798255Y-10298334D01*
X49116155Y-10244888D01*
X49438019Y-10227000D01*
X49641679Y-10227000D01*
X49759195Y-10242471D01*
%TA.AperFunction,Conductor*%
D15*
G36*
X49759195Y-10242471D02*
G01*
X49860953Y-10284621D01*
X49948332Y-10351668D01*
X50015379Y-10439047D01*
X50057529Y-10540805D01*
X50073000Y-10658321D01*
X50073000Y-13941679D01*
X50057529Y-14059195D01*
X50015379Y-14160953D01*
X49948332Y-14248332D01*
X49860953Y-14315379D01*
X49759195Y-14357529D01*
X49641679Y-14373000D01*
X49597681Y-14373000D01*
X49590725Y-14373191D01*
X49262590Y-14391190D01*
X49248761Y-14392711D01*
X48924563Y-14446494D01*
X48910985Y-14449519D01*
X48594616Y-14538438D01*
X48587971Y-14540504D01*
X39092468Y-17780147D01*
X38987942Y-17800938D01*
X38855636Y-17855741D01*
X38839712Y-17866381D01*
X34691654Y-19281601D01*
X34679939Y-19286259D01*
X34507415Y-19364986D01*
X34485653Y-19377661D01*
X34332056Y-19488883D01*
X34313223Y-19505603D01*
X34184592Y-19644946D01*
X34169429Y-19665053D01*
X34070822Y-19827037D01*
X34059924Y-19849741D01*
X33995219Y-20027998D01*
X33989016Y-20052405D01*
X33960756Y-20239925D01*
X33959491Y-20265078D01*
X33968789Y-20454488D01*
X33972511Y-20479394D01*
X34018999Y-20663245D01*
X34027563Y-20686928D01*
X34109415Y-20857991D01*
X34122484Y-20879519D01*
X34236481Y-21031067D01*
X34253540Y-21049592D01*
X34395200Y-21175668D01*
X34415580Y-21190463D01*
X34579331Y-21286107D01*
X34602229Y-21296590D01*
X34781633Y-21358043D01*
X34806149Y-21363801D01*
X34994152Y-21388646D01*
X35019324Y-21389454D01*
X35208533Y-21376713D01*
X35221054Y-21375243D01*
X40861884Y-20427000D01*
X40971603Y-20427000D01*
X41112058Y-20399062D01*
X41169419Y-20375302D01*
X46568905Y-19467630D01*
X47055690Y-19427000D01*
X47341679Y-19427000D01*
X47459195Y-19442471D01*
X47560953Y-19484621D01*
X47648332Y-19551668D01*
X47715379Y-19639047D01*
X47757529Y-19740805D01*
X47773000Y-19858321D01*
X47773000Y-23241679D01*
X47757529Y-23359195D01*
X47715379Y-23460953D01*
X47648332Y-23548332D01*
X47560953Y-23615379D01*
X47459195Y-23657529D01*
X47341679Y-23673000D01*
X46980380Y-23673000D01*
X46972758Y-23673229D01*
X46613298Y-23694842D01*
X46605703Y-23695528D01*
X35184783Y-25073915D01*
X35174740Y-25075537D01*
X34937736Y-25123637D01*
X34918200Y-25129263D01*
X34691907Y-25214564D01*
X34673520Y-25223234D01*
X34463737Y-25343549D01*
X34446968Y-25355042D01*
X34259071Y-25507288D01*
X34244351Y-25521309D01*
X34083153Y-25701586D01*
X34070858Y-25717776D01*
X33940490Y-25921464D01*
X33930937Y-25939410D01*
X33834741Y-26161290D01*
X33828173Y-26180529D01*
X33768612Y-26414916D01*
X33765198Y-26434956D01*
X33743799Y-26675843D01*
X33743627Y-26696172D01*
X33760938Y-26937387D01*
X33764011Y-26957483D01*
X33819589Y-27192846D01*
X33825830Y-27212194D01*
X33918251Y-27435674D01*
X33927499Y-27453778D01*
X34054393Y-27659647D01*
X34066411Y-27676043D01*
X34224529Y-27859028D01*
X34239009Y-27873298D01*
X34424298Y-28028708D01*
X34440870Y-28040483D01*
X34648583Y-28164338D01*
X34666821Y-28173319D01*
X34891635Y-28262444D01*
X34911072Y-28268399D01*
X35147226Y-28320512D01*
X35157240Y-28322305D01*
X46578657Y-29897672D01*
X46587313Y-29898565D01*
X46997225Y-29926702D01*
X47005922Y-29927000D01*
X47341679Y-29927000D01*
X47459195Y-29942471D01*
X47560953Y-29984621D01*
X47648332Y-30051668D01*
X47715379Y-30139047D01*
X47757529Y-30240805D01*
X47773000Y-30358321D01*
X47773000Y-33741679D01*
X47757529Y-33859195D01*
X47715379Y-33960953D01*
X47648332Y-34048332D01*
X47560953Y-34115379D01*
X47459195Y-34157529D01*
X47341679Y-34173000D01*
X47049224Y-34173000D01*
X46574582Y-34134386D01*
X41101287Y-33237898D01*
X41012058Y-33200938D01*
X40871603Y-33173000D01*
X40728397Y-33173000D01*
X40717862Y-33175096D01*
X35220528Y-32274670D01*
X35208004Y-32273252D01*
X35018125Y-32261262D01*
X34992963Y-32262174D01*
X34804449Y-32287878D01*
X34779962Y-32293736D01*
X34600224Y-32356124D01*
X34577374Y-32366697D01*
X34413476Y-32463316D01*
X34393160Y-32478190D01*
X34251544Y-32605244D01*
X34234562Y-32623833D01*
X34120793Y-32776328D01*
X34107812Y-32797901D01*
X34026362Y-32969843D01*
X34017892Y-32993554D01*
X33971963Y-33178184D01*
X33968337Y-33203099D01*
X33959733Y-33393162D01*
X33961093Y-33418304D01*
X33990154Y-33606329D01*
X33996447Y-33630707D01*
X34062029Y-33809305D01*
X34073009Y-33831963D01*
X34172535Y-33994112D01*
X34187767Y-34014159D01*
X34317325Y-34153489D01*
X34336214Y-34170137D01*
X34490712Y-34281169D01*
X34512514Y-34293764D01*
X34685881Y-34372136D01*
X34697610Y-34376751D01*
X48592966Y-39063028D01*
X48599546Y-39065051D01*
X48912792Y-39152103D01*
X48926233Y-39155064D01*
X49247059Y-39207707D01*
X49260741Y-39209196D01*
X49585380Y-39226813D01*
X49592262Y-39227000D01*
X49641679Y-39227000D01*
X49759195Y-39242471D01*
X49860953Y-39284621D01*
X49948332Y-39351668D01*
X50015379Y-39439047D01*
X50057529Y-39540805D01*
X50073000Y-39658321D01*
X50073000Y-42941679D01*
X50057529Y-43059195D01*
X50015379Y-43160953D01*
X49948332Y-43248332D01*
X49860953Y-43315379D01*
X49759195Y-43357529D01*
X49641679Y-43373000D01*
X49567663Y-43373000D01*
X49270770Y-43357788D01*
X48980217Y-43312809D01*
X48692638Y-43237547D01*
X14034804Y-32243933D01*
X13723239Y-32125019D01*
X13430600Y-31972861D01*
X13157337Y-31788169D01*
X12907029Y-31573357D01*
X12683010Y-31331289D01*
X12488206Y-31065126D01*
X12325193Y-30778387D01*
X12196127Y-30474866D01*
X12102697Y-30158532D01*
X12046145Y-29833595D01*
X12027000Y-29500646D01*
X12027000Y-20901691D01*
X12045327Y-20575902D01*
X12099474Y-20257772D01*
X12188961Y-19947722D01*
X12312661Y-19649653D01*
X12469010Y-19367340D01*
X12656031Y-19104352D01*
X12871371Y-18863993D01*
X13112312Y-18649303D01*
X13375810Y-18462991D01*
X13658539Y-18307408D01*
X13956940Y-18184515D01*
X14270668Y-18094886D01*
X48798255Y-10298334D01*
X49116155Y-10244888D01*
X49438019Y-10227000D01*
X49641679Y-10227000D01*
X49759195Y-10242471D01*
G37*
%TD.AperFunction*%
%TD*%
M02*
