%TF.GenerationSoftware,KiCad,Pcbnew,5.1.7*%
%TF.CreationDate,2020-12-14T19:49:32+00:00*%
%TF.ProjectId,LT3045-4,4c543330-3435-42d3-942e-6b696361645f,rev?*%
%TF.SameCoordinates,Original*%
%TF.FileFunction,Copper,L2,Inr*%
%TF.FilePolarity,Positive*%
%FSLAX46Y46*%
G04 Gerber Fmt 4.6, Leading zero omitted, Abs format (unit mm)*
G04 Created by KiCad (PCBNEW 5.1.7) date 2020-12-14 19:49:32*
%MOMM*%
%LPD*%
G01*
G04 APERTURE LIST*
%TA.AperFunction,ViaPad*%
%ADD10C,0.500000*%
%TD*%
%TA.AperFunction,Conductor*%
%ADD11C,0.200000*%
%TD*%
%TA.AperFunction,Conductor*%
%ADD12C,0.100000*%
%TD*%
%TA.AperFunction,Conductor*%
%ADD13C,0.254000*%
%TD*%
G04 APERTURE END LIST*
D10*
%TO.N,GND*%
X51489175Y-48650000D03*
X52492268Y-48650000D03*
X53495360Y-48650000D03*
X54498453Y-48650000D03*
X55501546Y-48650000D03*
X56489175Y-48650000D03*
X89616644Y-18811618D03*
X91466227Y-19450000D03*
X92551696Y-19450000D03*
X93637166Y-19450000D03*
X99350000Y-18581299D03*
X99350000Y-17577337D03*
X99350000Y-16573375D03*
X99350000Y-15569413D03*
X99350000Y-14565451D03*
X99350000Y-13561489D03*
X99350000Y-12557527D03*
X99350000Y-11553565D03*
X99350000Y-10549603D03*
X99350000Y-9545641D03*
X99350000Y-8541679D03*
X99350000Y-7537717D03*
X99350000Y-6533755D03*
X99350000Y-5529793D03*
X99350000Y-4525831D03*
X99350000Y-3521869D03*
X99350000Y-2517907D03*
X99350000Y-1513945D03*
X99059472Y-655089D03*
X98055800Y-650000D03*
X97051838Y-650000D03*
X96047876Y-650000D03*
X95043914Y-650000D03*
X94039952Y-650000D03*
X93035990Y-650000D03*
X92032029Y-650000D03*
X91028067Y-650000D03*
X90024105Y-650000D03*
X89020143Y-650000D03*
X88016181Y-650000D03*
X87012219Y-650000D03*
X86008257Y-650000D03*
X85004295Y-650000D03*
X84000333Y-650000D03*
X82996371Y-650000D03*
X81992409Y-650000D03*
X80988447Y-650000D03*
X79984485Y-650000D03*
X78980523Y-650000D03*
X77976561Y-650000D03*
X76972599Y-650000D03*
X75968637Y-650000D03*
X74964675Y-650000D03*
X73960713Y-650000D03*
X72956751Y-650000D03*
X71952789Y-650000D03*
X70948827Y-650000D03*
X69944865Y-650000D03*
X68940903Y-650000D03*
X67936941Y-650000D03*
X66932979Y-650000D03*
X65929017Y-650000D03*
X64925055Y-650000D03*
X63921093Y-650000D03*
X62917131Y-650000D03*
X61913169Y-650000D03*
X60909207Y-650000D03*
X59905245Y-650000D03*
X58901283Y-650000D03*
X57897322Y-650000D03*
X56893360Y-650000D03*
X55889398Y-650000D03*
X54885436Y-650000D03*
X53881474Y-650000D03*
X52877512Y-650000D03*
X51873550Y-650000D03*
X50869588Y-650000D03*
X49865626Y-650000D03*
X48861664Y-650000D03*
X47857702Y-650000D03*
X46853740Y-650000D03*
X45849778Y-650000D03*
X44845816Y-650000D03*
X43841854Y-650000D03*
X42837892Y-650000D03*
X41833930Y-650000D03*
X40829968Y-650000D03*
X39826006Y-650000D03*
X38822044Y-650000D03*
X37818082Y-650000D03*
X36814120Y-650000D03*
X35810158Y-650000D03*
X34806196Y-650000D03*
X33802234Y-650000D03*
X32798272Y-650000D03*
X31794310Y-650000D03*
X30790348Y-650000D03*
X29786386Y-650000D03*
X28782424Y-650000D03*
X27778462Y-650000D03*
X26774500Y-650000D03*
X25770538Y-650000D03*
X24766577Y-650000D03*
X23762615Y-650000D03*
X22758653Y-650000D03*
X21754691Y-650000D03*
X20750729Y-650000D03*
X19746767Y-650000D03*
X18742805Y-650000D03*
X17738843Y-650000D03*
X16734881Y-650000D03*
X15730919Y-650000D03*
X14726957Y-650000D03*
X13722995Y-650000D03*
X12719033Y-650000D03*
X11715071Y-650000D03*
X10711109Y-650000D03*
X9707147Y-650000D03*
X8703185Y-650000D03*
X7699223Y-650000D03*
X6695261Y-650000D03*
X5691299Y-650000D03*
X4687337Y-650000D03*
X3683375Y-650000D03*
X2679413Y-650000D03*
X1675451Y-650000D03*
X717644Y-793178D03*
X650000Y-1782693D03*
X650000Y-2786655D03*
X650000Y-3790617D03*
X650000Y-4794579D03*
X650000Y-5798541D03*
X650000Y-6802503D03*
X650000Y-7806465D03*
X650000Y-8810427D03*
X650000Y-9814389D03*
X650000Y-10818350D03*
X650000Y-11822312D03*
X650000Y-12826274D03*
X650000Y-13830236D03*
X650000Y-14834198D03*
X1997610Y-15650000D03*
X2999311Y-15650000D03*
X4001012Y-15650000D03*
X5002713Y-15650000D03*
X6004414Y-15650000D03*
X7006115Y-15650000D03*
X8007815Y-15650000D03*
X9009516Y-15650000D03*
X10011217Y-15650000D03*
X11012918Y-15650000D03*
X12014619Y-15650000D03*
X13016320Y-15650000D03*
X14018020Y-15650000D03*
X15019721Y-15650000D03*
X16021422Y-15650000D03*
X17023123Y-15650000D03*
X18024824Y-15650000D03*
X19026525Y-15650000D03*
X20028226Y-15650000D03*
X21003513Y-15491213D03*
X25717857Y-13800036D03*
X26660726Y-13461800D03*
X27603594Y-13123565D03*
X28546463Y-12785329D03*
X29489332Y-12447094D03*
X30432200Y-12108859D03*
X31375069Y-11770623D03*
X32317938Y-11432388D03*
X33260806Y-11094152D03*
X34203675Y-10755917D03*
X35146544Y-10417681D03*
X36089413Y-10079446D03*
X37032281Y-9741211D03*
X37975150Y-9402975D03*
X38918019Y-9064740D03*
X39860887Y-8726504D03*
X40803756Y-8388269D03*
X41746625Y-8050033D03*
X42689493Y-7711798D03*
X43632362Y-7373562D03*
X44575231Y-7035327D03*
X45518100Y-6697092D03*
X46460968Y-6358856D03*
X47403837Y-6020621D03*
X48346706Y-5682385D03*
X49289574Y-5344150D03*
X50232443Y-5005914D03*
X51175312Y-4667679D03*
X87747487Y-19247487D03*
X88900000Y-18094974D03*
X90380775Y-19449471D03*
X988384Y-15649807D03*
X52118181Y-4329444D03*
X50929009Y-4012357D03*
X49976200Y-4354158D03*
X49023391Y-4695960D03*
X48070582Y-5037761D03*
X47117773Y-5379562D03*
X46164964Y-5721364D03*
X45212155Y-6063165D03*
X44259346Y-6404966D03*
X43306537Y-6746767D03*
X42353728Y-7088569D03*
X41400919Y-7430370D03*
X40448110Y-7772172D03*
X39495301Y-8113973D03*
X38542492Y-8455774D03*
X37589683Y-8797576D03*
X36636874Y-9139377D03*
X35684065Y-9481178D03*
X34731256Y-9822980D03*
X33778447Y-10164781D03*
X32825638Y-10506582D03*
X31872829Y-10848384D03*
X30920020Y-11190185D03*
X29967211Y-11531986D03*
X29014402Y-11873788D03*
X28061593Y-12215589D03*
X27108784Y-12557390D03*
X26155975Y-12899192D03*
X25203166Y-13240993D03*
X24250357Y-13582794D03*
X23297548Y-13924596D03*
X19434430Y-14950000D03*
X18429739Y-14950000D03*
X17425049Y-14950000D03*
X16420358Y-14950000D03*
X15415668Y-14950000D03*
X14410977Y-14950000D03*
X13406286Y-14950000D03*
X12401596Y-14950000D03*
X11396905Y-14950000D03*
X10392215Y-14950000D03*
X9387524Y-14950000D03*
X8382834Y-14950000D03*
X7378143Y-14950000D03*
X6373452Y-14950000D03*
X5368762Y-14950000D03*
X4364071Y-14950000D03*
X3359381Y-14950000D03*
X2354690Y-14950000D03*
X1350000Y-13903846D03*
X1350000Y-12857692D03*
X1350000Y-11811538D03*
X1350000Y-10765384D03*
X1350000Y-9719230D03*
X1350000Y-8673076D03*
X1350000Y-7626923D03*
X1350000Y-6580769D03*
X1350000Y-5534615D03*
X1350000Y-4488461D03*
X1350000Y-3442307D03*
X1350000Y-2396153D03*
X2353092Y-1350000D03*
X3356185Y-1350000D03*
X4359278Y-1350000D03*
X5362371Y-1350000D03*
X6365463Y-1350000D03*
X7368556Y-1350000D03*
X8371649Y-1350000D03*
X9374742Y-1350000D03*
X10377835Y-1350000D03*
X11380927Y-1350000D03*
X12384020Y-1350000D03*
X13387113Y-1350000D03*
X14390206Y-1350000D03*
X15393298Y-1350000D03*
X16396391Y-1350000D03*
X17399484Y-1350000D03*
X18402577Y-1350000D03*
X19405670Y-1350000D03*
X20408762Y-1350000D03*
X21411855Y-1350000D03*
X22414948Y-1350000D03*
X23418041Y-1350000D03*
X24421134Y-1350000D03*
X25424226Y-1350000D03*
X26427319Y-1350000D03*
X27430412Y-1350000D03*
X28433505Y-1350000D03*
X29436597Y-1350000D03*
X30439690Y-1350000D03*
X31442783Y-1350000D03*
X32445876Y-1350000D03*
X33448969Y-1350000D03*
X34452061Y-1350000D03*
X35455154Y-1350000D03*
X36458247Y-1350000D03*
X37461340Y-1350000D03*
X38464432Y-1350000D03*
X39467525Y-1350000D03*
X40470618Y-1350000D03*
X41473711Y-1350000D03*
X42476804Y-1350000D03*
X43479896Y-1350000D03*
X44482989Y-1350000D03*
X45486082Y-1350000D03*
X46489175Y-1350000D03*
X47492268Y-1350000D03*
X48495360Y-1350000D03*
X49498453Y-1350000D03*
X50501546Y-1350000D03*
X51504639Y-1350000D03*
X52507731Y-1350000D03*
X53510824Y-1350000D03*
X54513917Y-1350000D03*
X55517010Y-1350000D03*
X56520103Y-1350000D03*
X57523195Y-1350000D03*
X58526288Y-1350000D03*
X59529381Y-1350000D03*
X60532474Y-1350000D03*
X61535567Y-1350000D03*
X62538659Y-1350000D03*
X63541752Y-1350000D03*
X64544845Y-1350000D03*
X65547938Y-1350000D03*
X66551030Y-1350000D03*
X67554123Y-1350000D03*
X68557216Y-1350000D03*
X69560309Y-1350000D03*
X70563402Y-1350000D03*
X71566494Y-1350000D03*
X72569587Y-1350000D03*
X73572680Y-1350000D03*
X74575773Y-1350000D03*
X75578865Y-1350000D03*
X76581958Y-1350000D03*
X77585051Y-1350000D03*
X78588144Y-1350000D03*
X79591237Y-1350000D03*
X80594329Y-1350000D03*
X81597422Y-1350000D03*
X82600515Y-1350000D03*
X83603608Y-1350000D03*
X84606701Y-1350000D03*
X85609793Y-1350000D03*
X86612886Y-1350000D03*
X87615979Y-1350000D03*
X88619072Y-1350000D03*
X89622164Y-1350000D03*
X90625257Y-1350000D03*
X91628350Y-1350000D03*
X92631443Y-1350000D03*
X93634536Y-1350000D03*
X94637628Y-1350000D03*
X95640721Y-1350000D03*
X96643814Y-1350000D03*
X97646907Y-1350000D03*
X98650000Y-2373529D03*
X98650000Y-3397058D03*
X98650000Y-4420588D03*
X98650000Y-5444117D03*
X98650000Y-6467647D03*
X98650000Y-7491176D03*
X98650000Y-8514705D03*
X98650000Y-9538235D03*
X98650000Y-10561764D03*
X98650000Y-11585294D03*
X98650000Y-12608823D03*
X98650000Y-13632352D03*
X98650000Y-14655882D03*
X98650000Y-15679411D03*
X98650000Y-16702941D03*
X98650000Y-17726470D03*
X97636871Y-18750000D03*
X96623743Y-18750000D03*
X95610615Y-18750000D03*
X94597487Y-18750000D03*
X93584358Y-18750000D03*
X92571230Y-18750000D03*
X91558102Y-18750000D03*
X89748414Y-17953440D03*
X88898223Y-17250005D03*
X88049072Y-17955953D03*
X51881818Y-3670556D03*
X20439121Y-14950000D03*
X1350000Y-14950000D03*
X1350000Y-1350000D03*
X98650000Y-1350000D03*
X98650000Y-18750000D03*
X90544974Y-18750000D03*
X47248234Y-43549027D03*
X46269718Y-43240438D03*
X45291201Y-42931850D03*
X44312685Y-42623261D03*
X43334169Y-42314672D03*
X42355652Y-42006084D03*
X41377136Y-41697495D03*
X40398620Y-41388906D03*
X39420103Y-41080317D03*
X38441587Y-40771729D03*
X37463071Y-40463140D03*
X36484554Y-40154551D03*
X35506038Y-39845963D03*
X34527522Y-39537374D03*
X33549005Y-39228785D03*
X32570489Y-38920197D03*
X31591973Y-38611608D03*
X30613457Y-38303019D03*
X29634940Y-37994430D03*
X28656424Y-37685842D03*
X27677908Y-37377253D03*
X26699391Y-37068664D03*
X25720875Y-36760076D03*
X24742359Y-36451487D03*
X23763842Y-36142898D03*
X20828293Y-35217132D03*
X19849777Y-34908543D03*
X18871261Y-34599955D03*
X17892744Y-34291366D03*
X16914228Y-33982777D03*
X15935712Y-33674189D03*
X14957195Y-33365600D03*
X13978679Y-33057011D03*
X13000163Y-32748422D03*
X11008279Y-32450000D03*
X9997308Y-32450000D03*
X8986337Y-32450000D03*
X7975366Y-32450000D03*
X6964395Y-32450000D03*
X5953424Y-32450000D03*
X4942453Y-32450000D03*
X3931482Y-32450000D03*
X2920511Y-32450000D03*
X1909540Y-32450000D03*
X899982Y-32464594D03*
X650000Y-33362622D03*
X650000Y-34373594D03*
X650000Y-35384565D03*
X650000Y-36395536D03*
X650000Y-37406507D03*
X650000Y-38417478D03*
X650000Y-39428449D03*
X650000Y-40439420D03*
X650000Y-41450391D03*
X650000Y-42461362D03*
X650000Y-43472333D03*
X650000Y-44483304D03*
X650000Y-45494275D03*
X650000Y-46505246D03*
X650000Y-47516217D03*
X650000Y-48527188D03*
X1995995Y-49350000D03*
X2996080Y-49350000D03*
X3996166Y-49350000D03*
X4996251Y-49350000D03*
X5996336Y-49350000D03*
X6996422Y-49350000D03*
X7996507Y-49350000D03*
X8996592Y-49350000D03*
X9996678Y-49350000D03*
X10996763Y-49350000D03*
X11996848Y-49350000D03*
X12996934Y-49350000D03*
X13997019Y-49350000D03*
X14997105Y-49350000D03*
X15997190Y-49350000D03*
X16997275Y-49350000D03*
X17997361Y-49350000D03*
X18997446Y-49350000D03*
X19997531Y-49350000D03*
X20997617Y-49350000D03*
X21997702Y-49350000D03*
X22997788Y-49350000D03*
X23997873Y-49350000D03*
X24997958Y-49350000D03*
X25998044Y-49350000D03*
X26998129Y-49350000D03*
X27998214Y-49350000D03*
X28998300Y-49350000D03*
X29998385Y-49350000D03*
X30998470Y-49350000D03*
X31998556Y-49350000D03*
X32998641Y-49350000D03*
X33998727Y-49350000D03*
X34998812Y-49350000D03*
X35998897Y-49350000D03*
X36998983Y-49350000D03*
X37999068Y-49350000D03*
X38999153Y-49350000D03*
X39999239Y-49350000D03*
X40999324Y-49350000D03*
X41999410Y-49350000D03*
X42999495Y-49350000D03*
X43999580Y-49350000D03*
X44999666Y-49350000D03*
X45999751Y-49350000D03*
X46999836Y-49350000D03*
X47999922Y-49350000D03*
X49000007Y-49350000D03*
X50000093Y-49350000D03*
X51000178Y-49350000D03*
X52000263Y-49350000D03*
X53000349Y-49350000D03*
X54000434Y-49350000D03*
X55000519Y-49350000D03*
X56000605Y-49350000D03*
X57000690Y-49350000D03*
X58000775Y-49350000D03*
X59000861Y-49350000D03*
X60000946Y-49350000D03*
X61001032Y-49350000D03*
X62001117Y-49350000D03*
X63001202Y-49350000D03*
X64001288Y-49350000D03*
X65001373Y-49350000D03*
X66001458Y-49350000D03*
X67001544Y-49350000D03*
X68001629Y-49350000D03*
X69001715Y-49350000D03*
X70001800Y-49350000D03*
X71001885Y-49350000D03*
X72001971Y-49350000D03*
X73002056Y-49350000D03*
X74002141Y-49350000D03*
X75002227Y-49350000D03*
X76002312Y-49350000D03*
X77002397Y-49350000D03*
X78002483Y-49350000D03*
X79002568Y-49350000D03*
X80002654Y-49350000D03*
X81002739Y-49350000D03*
X82002824Y-49350000D03*
X83002910Y-49350000D03*
X84002995Y-49350000D03*
X85003080Y-49350000D03*
X86003166Y-49350000D03*
X87003251Y-49350000D03*
X88003337Y-49350000D03*
X89003422Y-49350000D03*
X90003507Y-49350000D03*
X91003593Y-49350000D03*
X92003678Y-49350000D03*
X93003763Y-49350000D03*
X94003849Y-49350000D03*
X95003934Y-49350000D03*
X96004020Y-49350000D03*
X97004105Y-49350000D03*
X98004190Y-49350000D03*
X99350000Y-48456301D03*
X99350000Y-47427342D03*
X99350000Y-46398382D03*
X99350000Y-45369422D03*
X99350000Y-44340463D03*
X99350000Y-43311503D03*
X99350000Y-42282543D03*
X99350000Y-41253584D03*
X99350000Y-40224624D03*
X99350000Y-39195664D03*
X99350000Y-38166705D03*
X99350000Y-37137745D03*
X99350000Y-36108786D03*
X99350000Y-35079826D03*
X99350000Y-34050866D03*
X99350000Y-33021907D03*
X99350000Y-31992947D03*
X99350000Y-30963987D03*
X93440009Y-30550000D03*
X92411049Y-30550000D03*
X91382089Y-30550000D03*
X90353130Y-30550000D03*
X89527584Y-31077441D03*
X12019233Y-32450529D03*
X988383Y-49349807D03*
X99004276Y-49349974D03*
X88800000Y-31805026D03*
X89627308Y-31967665D03*
X91383102Y-31250000D03*
X92421230Y-31250000D03*
X93459358Y-31250000D03*
X94497487Y-31250000D03*
X95535615Y-31250000D03*
X96573743Y-31250000D03*
X97611871Y-31250000D03*
X98650000Y-32273529D03*
X98650000Y-33297058D03*
X98650000Y-34320588D03*
X98650000Y-35344117D03*
X98650000Y-36367647D03*
X98650000Y-37391176D03*
X98650000Y-38414705D03*
X98650000Y-39438235D03*
X98650000Y-40461764D03*
X98650000Y-41485294D03*
X98650000Y-42508823D03*
X98650000Y-43532352D03*
X98650000Y-44555882D03*
X98650000Y-45579411D03*
X98650000Y-46602941D03*
X98650000Y-47626470D03*
X97646907Y-48650000D03*
X96643814Y-48650000D03*
X95640721Y-48650000D03*
X94637628Y-48650000D03*
X93634536Y-48650000D03*
X92631443Y-48650000D03*
X91628350Y-48650000D03*
X90625257Y-48650000D03*
X89622164Y-48650000D03*
X88619072Y-48650000D03*
X87615979Y-48650000D03*
X86612886Y-48650000D03*
X85609793Y-48650000D03*
X84606701Y-48650000D03*
X83603608Y-48650000D03*
X82600515Y-48650000D03*
X81597422Y-48650000D03*
X80594329Y-48650000D03*
X79591237Y-48650000D03*
X78588144Y-48650000D03*
X77585051Y-48650000D03*
X76581958Y-48650000D03*
X75578865Y-48650000D03*
X74575773Y-48650000D03*
X73572680Y-48650000D03*
X72569587Y-48650000D03*
X71566494Y-48650000D03*
X70563402Y-48650000D03*
X69560309Y-48650000D03*
X68557216Y-48650000D03*
X67554123Y-48650000D03*
X66551030Y-48650000D03*
X65547938Y-48650000D03*
X64544845Y-48650000D03*
X63541752Y-48650000D03*
X62538659Y-48650000D03*
X61535567Y-48650000D03*
X60532474Y-48650000D03*
X59529381Y-48650000D03*
X58526288Y-48650000D03*
X57523195Y-48650000D03*
X50501546Y-48650000D03*
X49498453Y-48650000D03*
X48495360Y-48650000D03*
X47492268Y-48650000D03*
X46489175Y-48650000D03*
X45486082Y-48650000D03*
X44482989Y-48650000D03*
X43479896Y-48650000D03*
X42476804Y-48650000D03*
X41473711Y-48650000D03*
X40470618Y-48650000D03*
X39467525Y-48650000D03*
X38464432Y-48650000D03*
X37461340Y-48650000D03*
X36458247Y-48650000D03*
X35455154Y-48650000D03*
X34452061Y-48650000D03*
X33448969Y-48650000D03*
X32445876Y-48650000D03*
X31442783Y-48650000D03*
X30439690Y-48650000D03*
X29436597Y-48650000D03*
X28433505Y-48650000D03*
X27430412Y-48650000D03*
X26427319Y-48650000D03*
X25424226Y-48650000D03*
X24421134Y-48650000D03*
X23418041Y-48650000D03*
X22414948Y-48650000D03*
X21411855Y-48650000D03*
X20408762Y-48650000D03*
X19405670Y-48650000D03*
X18402577Y-48650000D03*
X17399484Y-48650000D03*
X16396391Y-48650000D03*
X15393298Y-48650000D03*
X14390206Y-48650000D03*
X13387113Y-48650000D03*
X12384020Y-48650000D03*
X11380927Y-48650000D03*
X10377835Y-48650000D03*
X9374742Y-48650000D03*
X8371649Y-48650000D03*
X7368556Y-48650000D03*
X6365463Y-48650000D03*
X5362371Y-48650000D03*
X4359278Y-48650000D03*
X3356185Y-48650000D03*
X2353092Y-48650000D03*
X1350000Y-47616666D03*
X1350000Y-46583333D03*
X1350000Y-45550000D03*
X1350000Y-44516666D03*
X1350000Y-43483333D03*
X1350000Y-42450000D03*
X1350000Y-41416666D03*
X1350000Y-40383333D03*
X1350000Y-39350000D03*
X1350000Y-38316666D03*
X1350000Y-37283333D03*
X1350000Y-36250000D03*
X1350000Y-35216666D03*
X1350000Y-34183333D03*
X2409611Y-33150000D03*
X3469223Y-33150000D03*
X4528835Y-33150000D03*
X5588447Y-33150000D03*
X6648059Y-33150000D03*
X7707670Y-33150000D03*
X8767282Y-33150000D03*
X9826894Y-33150000D03*
X10886506Y-33150000D03*
X12921081Y-33457468D03*
X13896045Y-33764936D03*
X14871008Y-34072404D03*
X15845972Y-34379873D03*
X16820935Y-34687341D03*
X17795899Y-34994809D03*
X18770862Y-35302278D03*
X19745826Y-35609746D03*
X20720789Y-35917214D03*
X21695753Y-36224682D03*
X22670717Y-36532151D03*
X23645680Y-36839619D03*
X24620644Y-37147087D03*
X25595607Y-37454556D03*
X26570571Y-37762024D03*
X27545534Y-38069492D03*
X28520498Y-38376960D03*
X29495461Y-38684429D03*
X30470425Y-38991897D03*
X31445389Y-39299365D03*
X32420352Y-39606834D03*
X33395316Y-39914302D03*
X34370279Y-40221770D03*
X35345243Y-40529238D03*
X36320206Y-40836707D03*
X37295170Y-41144175D03*
X38270133Y-41451643D03*
X39245097Y-41759112D03*
X40220061Y-42066580D03*
X41195024Y-42374048D03*
X42169988Y-42681516D03*
X43144951Y-42988985D03*
X44119915Y-43296453D03*
X45094878Y-43603921D03*
X46069842Y-43911390D03*
X47044805Y-44218858D03*
X48019769Y-44526326D03*
X88780490Y-32649456D03*
X90344974Y-31250000D03*
X98650000Y-31250000D03*
X98650000Y-48650000D03*
X1350000Y-48650000D03*
X1350000Y-33150000D03*
X11946118Y-33150000D03*
X19500000Y-19500000D03*
X59211897Y-30175547D03*
X61261897Y-30032690D03*
X63311897Y-29889833D03*
X64336897Y-29818404D03*
X65361897Y-29746976D03*
X66386897Y-29675547D03*
X67411897Y-29604118D03*
X68436897Y-29532690D03*
X69461897Y-29461261D03*
X70486897Y-29389833D03*
X71511897Y-29318404D03*
X72536897Y-29246976D03*
X73561897Y-29175547D03*
X74586897Y-29104118D03*
X75611897Y-29032690D03*
X76636897Y-28961261D03*
X77661897Y-28889833D03*
X78686897Y-28818404D03*
X79711897Y-28746976D03*
X80736897Y-28675547D03*
X81761897Y-28604118D03*
X82786897Y-28532690D03*
X83811897Y-28461261D03*
X84836897Y-28389833D03*
X85861897Y-28318404D03*
X82613103Y-26038738D03*
X81588103Y-26110166D03*
X80563103Y-26181595D03*
X79538103Y-26253024D03*
X78513103Y-26324452D03*
X77488103Y-26395881D03*
X76463103Y-26467309D03*
X75438103Y-26538738D03*
X74413103Y-26610166D03*
X73388103Y-26681595D03*
X72363103Y-26753024D03*
X71338103Y-26824452D03*
X70313103Y-26895881D03*
X69288103Y-26967309D03*
X68263103Y-27038738D03*
X67238103Y-27110166D03*
X66213103Y-27181595D03*
X65188103Y-27253024D03*
X64163103Y-27324452D03*
X58013103Y-27753024D03*
X61475454Y-40329914D03*
X62423730Y-39985086D03*
X63372006Y-39640259D03*
X64320282Y-39295431D03*
X65268558Y-38950604D03*
X66216834Y-38605776D03*
X67165110Y-38260948D03*
X68113385Y-37916121D03*
X69061661Y-37571293D03*
X70009937Y-37226466D03*
X70958213Y-36881638D03*
X71906489Y-36536810D03*
X72854765Y-36191983D03*
X73803041Y-35847155D03*
X74751316Y-35502328D03*
X75699592Y-35157500D03*
X76647868Y-34812673D03*
X77596144Y-34467845D03*
X78544420Y-34123017D03*
X79492696Y-33778190D03*
X80440972Y-33433362D03*
X81389247Y-33088535D03*
X82337523Y-32743707D03*
X83285799Y-32398879D03*
X84234075Y-32054052D03*
X85182351Y-31709224D03*
X86130627Y-31364397D03*
X87078903Y-31019569D03*
X60527179Y-40674742D03*
X86224545Y-28670085D03*
X85276269Y-29014913D03*
X84327993Y-29359740D03*
X83379717Y-29704568D03*
X82431441Y-30049395D03*
X81483165Y-30394223D03*
X80534889Y-30739051D03*
X79586614Y-31083878D03*
X78638338Y-31428706D03*
X77690062Y-31773533D03*
X76741786Y-32118361D03*
X75793510Y-32463189D03*
X74845234Y-32808016D03*
X73896958Y-33152844D03*
X72948683Y-33497671D03*
X72000407Y-33842499D03*
X71052131Y-34187326D03*
X70103855Y-34532154D03*
X69155579Y-34876982D03*
X68207303Y-35221809D03*
X67259027Y-35566637D03*
X66310752Y-35911464D03*
X65362476Y-36256292D03*
X64414200Y-36601120D03*
X63465924Y-36945947D03*
X62517648Y-37290775D03*
X61569372Y-37635602D03*
X60621096Y-37980430D03*
X80436003Y-23137119D03*
X79422210Y-22980223D03*
X78408417Y-22823326D03*
X77394624Y-22666430D03*
X76380831Y-22509533D03*
X75367038Y-22352637D03*
X74353244Y-22195740D03*
X73339451Y-22038843D03*
X72325658Y-21881947D03*
X71311865Y-21725050D03*
X70298072Y-21568154D03*
X69284279Y-21411257D03*
X68270486Y-21254361D03*
X67256693Y-21097464D03*
X66242900Y-20940568D03*
X65229107Y-20783671D03*
X64215313Y-20626774D03*
X62187727Y-20312981D03*
X60160141Y-19999188D03*
X60791582Y-22626673D03*
X63832961Y-23097362D03*
X64846755Y-23254259D03*
X65860548Y-23411156D03*
X66874341Y-23568052D03*
X67888134Y-23724949D03*
X68901927Y-23881845D03*
X69915720Y-24038742D03*
X70929513Y-24195638D03*
X71943306Y-24352535D03*
X72957099Y-24509431D03*
X73970892Y-24666328D03*
X74984686Y-24823225D03*
X75998479Y-24980121D03*
X77012272Y-25137018D03*
X78026065Y-25293914D03*
X79039858Y-25450811D03*
X80053651Y-25607707D03*
X81067444Y-25764604D03*
X54708824Y-21685294D03*
X85184414Y-21275036D03*
X84215448Y-21016415D03*
X83246483Y-20757795D03*
X82277517Y-20499174D03*
X81308552Y-20240553D03*
X80339586Y-19981933D03*
X79370621Y-19723312D03*
X78401655Y-19464691D03*
X77432690Y-19206071D03*
X76463724Y-18947450D03*
X75494759Y-18688829D03*
X74525793Y-18430209D03*
X73556828Y-18171588D03*
X72587862Y-17912967D03*
X71618897Y-17654346D03*
X70649931Y-17395726D03*
X69680966Y-17137105D03*
X68712000Y-16878484D03*
X67743035Y-16619864D03*
X66774069Y-16361243D03*
X65805104Y-16102622D03*
X64836138Y-15844002D03*
X63867173Y-15585381D03*
X61929242Y-15068140D03*
X59991311Y-14550898D03*
X60315585Y-17224963D03*
X62253516Y-17742204D03*
X64191447Y-18259446D03*
X65160413Y-18518066D03*
X66129378Y-18776687D03*
X67098344Y-19035308D03*
X68067309Y-19293928D03*
X69036275Y-19552549D03*
X70005240Y-19811170D03*
X70974206Y-20069790D03*
X71943171Y-20328411D03*
X72912137Y-20587032D03*
X73881102Y-20845653D03*
X74850068Y-21104273D03*
X75819033Y-21362894D03*
X76787999Y-21621515D03*
X77756964Y-21880135D03*
X78725930Y-22138756D03*
X79694895Y-22397377D03*
X80663861Y-22655997D03*
X81632826Y-22914618D03*
X83570757Y-23431859D03*
X58377655Y-16707722D03*
X86499907Y-18450901D03*
X85621335Y-17908044D03*
X84742764Y-17365187D03*
X83864192Y-16822330D03*
X82985621Y-16279473D03*
X82107050Y-15736616D03*
X81228478Y-15193758D03*
X80349907Y-14650901D03*
X79471335Y-14108044D03*
X78592764Y-13565187D03*
X77714192Y-13022330D03*
X76835621Y-12479473D03*
X75957050Y-11936616D03*
X75078478Y-11393758D03*
X74199907Y-10850901D03*
X73321335Y-10308044D03*
X72442764Y-9765187D03*
X71564192Y-9222330D03*
X70685621Y-8679473D03*
X69807050Y-8136616D03*
X68928478Y-7593758D03*
X68049907Y-7050901D03*
X67171335Y-6508044D03*
X66292764Y-5965187D03*
X65414192Y-5422330D03*
X64535621Y-4879473D03*
X63657050Y-4336616D03*
X63221521Y-7006241D03*
X64100092Y-7549098D03*
X64978664Y-8091955D03*
X65857235Y-8634812D03*
X66735807Y-9177669D03*
X67614378Y-9720526D03*
X68492950Y-10263384D03*
X69371521Y-10806241D03*
X70250092Y-11349098D03*
X71128664Y-11891955D03*
X72007235Y-12434812D03*
X72885807Y-12977669D03*
X73764378Y-13520526D03*
X74642950Y-14063384D03*
X75521521Y-14606241D03*
X76400092Y-15149098D03*
X77278664Y-15691955D03*
X78157235Y-16234812D03*
X79035807Y-16777669D03*
X79914378Y-17320526D03*
X80792950Y-17863384D03*
X81671521Y-18406241D03*
X82550092Y-18949098D03*
X83428664Y-19491955D03*
X84307235Y-20034812D03*
X85185807Y-20577669D03*
X86064378Y-21120526D03*
X56600000Y-47300000D03*
X54600000Y-47800000D03*
X53800000Y-46800000D03*
X55400000Y-46800000D03*
X54200000Y-47300000D03*
X51800000Y-46300000D03*
X52200000Y-45800000D03*
X53000000Y-46800000D03*
X53400000Y-47300000D03*
X52600000Y-47300000D03*
X56200000Y-46800000D03*
X52200000Y-47800000D03*
X56200000Y-47800000D03*
X52200000Y-46800000D03*
X55000000Y-46300000D03*
X51800000Y-47300000D03*
X55000000Y-47300000D03*
X53800000Y-45800000D03*
X53000000Y-47800000D03*
X53400000Y-46300000D03*
X53400000Y-45300000D03*
X53800000Y-47800000D03*
X53000000Y-45800000D03*
X55400000Y-45800000D03*
X54200000Y-46300000D03*
X55800000Y-46300000D03*
X54600000Y-46800000D03*
X52600000Y-45300000D03*
X55800000Y-47300000D03*
X55400000Y-47800000D03*
X52600000Y-46300000D03*
X54600000Y-45800000D03*
X54600000Y-42500000D03*
X54600000Y-43700000D03*
X54100000Y-43400000D03*
X54100000Y-42800000D03*
X54100000Y-42200000D03*
X53500000Y-42200000D03*
X53500000Y-42800000D03*
X53500000Y-43400000D03*
X54100000Y-44000000D03*
X53500000Y-44000000D03*
X51000000Y-31600000D03*
X51600000Y-31600000D03*
X52100000Y-31900000D03*
X52100000Y-33100000D03*
X51600000Y-32200000D03*
X51000000Y-32200000D03*
X51600000Y-32800000D03*
X51000000Y-32800000D03*
X51600000Y-33400000D03*
X51000000Y-33400000D03*
X52500000Y-18200000D03*
X51900000Y-18200000D03*
X53100000Y-18500000D03*
X53100000Y-19700000D03*
X52500000Y-18800000D03*
X51900000Y-18800000D03*
X52500000Y-19400000D03*
X51900000Y-19400000D03*
X52500000Y-20000000D03*
X51900000Y-20000000D03*
X57500000Y-10200000D03*
X57500000Y-9600000D03*
X57500000Y-8400000D03*
X57000000Y-8700000D03*
X57000000Y-8100000D03*
X56400000Y-8100000D03*
X56400000Y-8700000D03*
X56400000Y-9300000D03*
X57000000Y-9900000D03*
X56400000Y-9900000D03*
X19600000Y-21100000D03*
X56100000Y-7500000D03*
X56700000Y-7500000D03*
X57300000Y-7500000D03*
X57500000Y-9000000D03*
X57000000Y-9300000D03*
X55600000Y-7000000D03*
X55100000Y-6500000D03*
X54600000Y-6000000D03*
X54100000Y-5500000D03*
X53600000Y-5000000D03*
X55200000Y-11000000D03*
X56000000Y-11000000D03*
X55600000Y-11500000D03*
X56400000Y-11500000D03*
X57200000Y-11500000D03*
X57600000Y-12000000D03*
X56800000Y-12000000D03*
X56000000Y-12000000D03*
X55200000Y-12000000D03*
X58800000Y-11500000D03*
X58400000Y-12000000D03*
X58000000Y-12500000D03*
X57200000Y-12500000D03*
X56400000Y-12500000D03*
X55600000Y-12500000D03*
X54800000Y-11500000D03*
X54800000Y-12500000D03*
X53100000Y-19100000D03*
X51600000Y-17500000D03*
X52300000Y-17500000D03*
X53100000Y-17900000D03*
X51100000Y-17000000D03*
X50600000Y-16500000D03*
X50100000Y-16000000D03*
X49600000Y-15500000D03*
X49100000Y-15000000D03*
X50400000Y-15400000D03*
X50900000Y-15900000D03*
X49900000Y-14900000D03*
X51400000Y-16400000D03*
X50700000Y-14800000D03*
X51200000Y-15300000D03*
X54400000Y-4900000D03*
X54900000Y-5400000D03*
X55400000Y-5900000D03*
X55900000Y-6400000D03*
X55200000Y-4800000D03*
X55700000Y-5300000D03*
X52100000Y-32500000D03*
X52100000Y-31300000D03*
X54600000Y-43100000D03*
X54600000Y-41900000D03*
X51900000Y-21200000D03*
X52700000Y-21200000D03*
X52300000Y-21700000D03*
X53100000Y-21700000D03*
X53500000Y-21200000D03*
X54300000Y-21200000D03*
X53900000Y-21700000D03*
X51500000Y-21700000D03*
X51100000Y-22200000D03*
X51900000Y-22200000D03*
X52700000Y-22200000D03*
X53500000Y-22200000D03*
X54300000Y-22200000D03*
X53900000Y-22700000D03*
X53100000Y-22700000D03*
X52300000Y-22700000D03*
X51500000Y-22700000D03*
X50700000Y-22700000D03*
X51100000Y-23200000D03*
X51900000Y-23200000D03*
X52700000Y-23200000D03*
X53500000Y-23200000D03*
X50300000Y-23200000D03*
X54400000Y-12000000D03*
X54000000Y-12500000D03*
X53600000Y-13000000D03*
X54400000Y-13000000D03*
X55200000Y-13000000D03*
X56000000Y-13000000D03*
X56800000Y-13000000D03*
X57600000Y-13000000D03*
X53000000Y-35200000D03*
X52200000Y-35200000D03*
X51400000Y-35200000D03*
X50600000Y-35200000D03*
X49800000Y-35200000D03*
X50200000Y-34700000D03*
X51000000Y-34700000D03*
X52600000Y-35700000D03*
X51800000Y-35700000D03*
X51000000Y-35700000D03*
X50200000Y-35700000D03*
X53400000Y-35700000D03*
X53000000Y-36200000D03*
X52200000Y-36200000D03*
X51400000Y-36200000D03*
X50600000Y-36200000D03*
X49800000Y-36200000D03*
X49400000Y-35700000D03*
X49400000Y-36700000D03*
X50200000Y-36700000D03*
X51000000Y-36700000D03*
X51800000Y-36700000D03*
X52600000Y-36700000D03*
X53400000Y-36700000D03*
X53800000Y-36200000D03*
X54200000Y-36700000D03*
X53800000Y-37200000D03*
X53000000Y-37200000D03*
X52200000Y-37200000D03*
X51400000Y-37200000D03*
X50600000Y-37200000D03*
X49800000Y-37200000D03*
X17100000Y-29100000D03*
X17600000Y-29600000D03*
X18100000Y-30100000D03*
X18600000Y-30600000D03*
X19100000Y-31100000D03*
X19600000Y-31600000D03*
X19100000Y-30100000D03*
X19600000Y-30600000D03*
X20100000Y-31100000D03*
X18100000Y-29100000D03*
X18600000Y-29600000D03*
X20100000Y-30100000D03*
X20100000Y-32100000D03*
X18100000Y-28300000D03*
X18100000Y-27500000D03*
X82463589Y-23450912D03*
X60063103Y-27610166D03*
X62113103Y-27467309D03*
X58763996Y-22312880D03*
X19100000Y-20000000D03*
X19900000Y-20000000D03*
X20300000Y-19500000D03*
X21700000Y-35500000D03*
X22700000Y-35800000D03*
X24900000Y-14100000D03*
X24100000Y-14400000D03*
X23200000Y-14700000D03*
X22500000Y-14200000D03*
X21700000Y-14500000D03*
X21800000Y-15200000D03*
X53400000Y-37700000D03*
X52600000Y-37700000D03*
X51800000Y-37700000D03*
X51000000Y-37700000D03*
X50200000Y-37700000D03*
X53800000Y-41700000D03*
X53100000Y-41600000D03*
X53100000Y-23700000D03*
X52300000Y-23700000D03*
X51500000Y-23700000D03*
X50700000Y-23700000D03*
X53900000Y-23700000D03*
X53500000Y-24200000D03*
X52700000Y-24200000D03*
X51900000Y-24200000D03*
X51100000Y-24200000D03*
X50300000Y-24200000D03*
X50700000Y-24700000D03*
X51500000Y-24700000D03*
X52300000Y-24700000D03*
X53100000Y-24700000D03*
X53900000Y-24700000D03*
X49900000Y-24700000D03*
X52600000Y-41100000D03*
X52100000Y-40600000D03*
X51600000Y-40100000D03*
X51100000Y-39600000D03*
X51900000Y-39500000D03*
X52400000Y-40000000D03*
X52900000Y-40500000D03*
X52700000Y-39400000D03*
X50600000Y-39100000D03*
X51400000Y-39000000D03*
X52200000Y-38900000D03*
X53000000Y-38200000D03*
X52200000Y-38200000D03*
X51400000Y-38200000D03*
X50600000Y-38200000D03*
X50700000Y-31100000D03*
X50200000Y-30600000D03*
X49600000Y-30000000D03*
X49000000Y-29400000D03*
X48400000Y-28800000D03*
X49200000Y-28700000D03*
X49800000Y-29300000D03*
X50400000Y-29900000D03*
X50000000Y-28600000D03*
X52800000Y-13000000D03*
X53200000Y-12500000D03*
X53600000Y-12000000D03*
X54000000Y-11500000D03*
X53100000Y-4400000D03*
X53900000Y-4300000D03*
X54800000Y-4200000D03*
X55600000Y-4100000D03*
X53500000Y-25200000D03*
X52700000Y-25200000D03*
X53100000Y-25800000D03*
X52300000Y-25800000D03*
X51500000Y-25800000D03*
X51900000Y-25200000D03*
X51100000Y-25200000D03*
X50300000Y-25200000D03*
X50700000Y-25800000D03*
X49900000Y-25800000D03*
X52700000Y-26400000D03*
X51900000Y-26400000D03*
X51100000Y-26400000D03*
X50300000Y-26400000D03*
X52300000Y-27000000D03*
X51500000Y-27000000D03*
X50700000Y-27000000D03*
X49900000Y-27000000D03*
X49500000Y-26400000D03*
X49500000Y-25300000D03*
X50300000Y-27600000D03*
X49500000Y-27600000D03*
X49100000Y-27000000D03*
X48600000Y-27600000D03*
X49100000Y-25800000D03*
X48600000Y-26400000D03*
X48100000Y-27000000D03*
X47700000Y-27600000D03*
X49000000Y-28100000D03*
X2624576Y-2658403D03*
X2583322Y-6210299D03*
X2447040Y-9652738D03*
X2663016Y-13230000D03*
X2490857Y-34291349D03*
X2522915Y-37805930D03*
X2433967Y-41295212D03*
X2625385Y-44875323D03*
X3097948Y-47691733D03*
X4747114Y-4238817D03*
X4525659Y-7659275D03*
X4632648Y-11286984D03*
X4717864Y-35660715D03*
X4708155Y-39090470D03*
X4750324Y-42787833D03*
X5438141Y-13817270D03*
X5450221Y-45343767D03*
X6653204Y-2741501D03*
X6813611Y-9721175D03*
X6761053Y-34117199D03*
X6659303Y-37731517D03*
X6640853Y-47459515D03*
X7505339Y-12655521D03*
X8062176Y-4849491D03*
X7991151Y-39745449D03*
X8236772Y-44643792D03*
X8758009Y-35555756D03*
X9391012Y-8535617D03*
X9588670Y-13914840D03*
X9495617Y-46791502D03*
X10136108Y-2771106D03*
X10069518Y-11076254D03*
X10032495Y-37902401D03*
X10339472Y-41356749D03*
X10870370Y-5697042D03*
X10928318Y-34199958D03*
X11065765Y-43989293D03*
X12201807Y-7615549D03*
X12411077Y-12670127D03*
X12249241Y-36268970D03*
X12130408Y-40044224D03*
X12295737Y-46239535D03*
X12988187Y-3545440D03*
X12928657Y-42687997D03*
X13582094Y-9740932D03*
X14398675Y-5493911D03*
X14547597Y-14005195D03*
X14304993Y-37774808D03*
X14579306Y-44860120D03*
X15100252Y-40598110D03*
X15202136Y-47589923D03*
X15843082Y-2604696D03*
X15939884Y-7630715D03*
X15714714Y-11327666D03*
X15727786Y-35830991D03*
X16662007Y-42751710D03*
X17095823Y-4923272D03*
X17341669Y-13202601D03*
X17055769Y-38526460D03*
X17119765Y-45577210D03*
X17884960Y-9224099D03*
X18677735Y-36521366D03*
X18588842Y-40663031D03*
X18596366Y-47616496D03*
X19232997Y-2895588D03*
X19219104Y-6241780D03*
X19183507Y-11306288D03*
X19162415Y-43251426D03*
X19857466Y-14004666D03*
X20654889Y-8220948D03*
X20560223Y-37868854D03*
X20632526Y-45424015D03*
X21430880Y-4008531D03*
X21277878Y-41392196D03*
X22021400Y-10380644D03*
X22079566Y-47558885D03*
X22784112Y-6151499D03*
X22844543Y-39110576D03*
X22779953Y-43246925D03*
X23578552Y-2800509D03*
X23592782Y-12541650D03*
X24271854Y-8416029D03*
X24373967Y-45417457D03*
X24896552Y-4845629D03*
X24967873Y-40553798D03*
X25636060Y-10595345D03*
X25512405Y-47437573D03*
X26175645Y-6876059D03*
X26233725Y-42770292D03*
X27009023Y-2748058D03*
X26861452Y-39179409D03*
X27646631Y-9042692D03*
X27714210Y-44694778D03*
X28510507Y-4740964D03*
X28530481Y-41151944D03*
X28962134Y-25202370D03*
X29177586Y-46711787D03*
X29886346Y-6915366D03*
X29710339Y-10496423D03*
X29912360Y-43309462D03*
X30410937Y-2757813D03*
X31081843Y-40405588D03*
X31291018Y-45550408D03*
X32061308Y-4706973D03*
X32048358Y-8539284D03*
X32065878Y-24447839D03*
X32553239Y-42552444D03*
X32547794Y-47476322D03*
X33364404Y-18142042D03*
X33325733Y-32150849D03*
X34055554Y-2606444D03*
X33879168Y-6181468D03*
X34084826Y-25761727D03*
X34020157Y-44922277D03*
X35261052Y-8396209D03*
X35239672Y-23672471D03*
X35525382Y-41888741D03*
X35237628Y-46901234D03*
X36033387Y-4111013D03*
X36239656Y-32797367D03*
X36778328Y-16914696D03*
X36936372Y-44012927D03*
X37340559Y-6159708D03*
X37635879Y-25162968D03*
X38368906Y-2694362D03*
X38197297Y-46107640D03*
X39028390Y-23020684D03*
X38858214Y-33742243D03*
X39467382Y-4977484D03*
X39681304Y-16174940D03*
X39543905Y-26608915D03*
X39465436Y-43315970D03*
X40356924Y-47454750D03*
X41010577Y-24587280D03*
X41014500Y-34977496D03*
X41652033Y-2718971D03*
X41635348Y-14538204D03*
X41877399Y-44926964D03*
X42383238Y-5657539D03*
X42444855Y-21620962D03*
X43237439Y-25936688D03*
X43027720Y-33590057D03*
X43067163Y-46827247D03*
X44398007Y-3442870D03*
X44490086Y-13904823D03*
X44417585Y-23001497D03*
X44672803Y-35558902D03*
X45173701Y-45623957D03*
X46582986Y-47516063D03*
X47250422Y-2768496D03*
X47164733Y-12475462D03*
X47455200Y-25319873D03*
X48666783Y-46145984D03*
X50866942Y-2864959D03*
X50719089Y-13344441D03*
X50648470Y-47711266D03*
X54162146Y-2696386D03*
X57229305Y-45496771D03*
X58624714Y-47634224D03*
X60736342Y-44078414D03*
X61413092Y-46815624D03*
X61863407Y-42142479D03*
X62688203Y-32907850D03*
X63441950Y-2660790D03*
X63403872Y-35778769D03*
X63308172Y-44747316D03*
X64108486Y-9030549D03*
X64017747Y-12720522D03*
X64205791Y-19631826D03*
X64171128Y-24471403D03*
X64037165Y-47617126D03*
X64696270Y-30858654D03*
X64661433Y-40654977D03*
X65544258Y-4016618D03*
X65497438Y-14651488D03*
X65544409Y-33427775D03*
X65598050Y-43275700D03*
X66284541Y-10585636D03*
X66203489Y-26018713D03*
X66224346Y-46217319D03*
X67532840Y-2848361D03*
X67444215Y-12518918D03*
X67442720Y-31351768D03*
X67512879Y-39809436D03*
X68418192Y-5716633D03*
X68163735Y-15510561D03*
X68186134Y-42839061D03*
X68200909Y-47547743D03*
X68991677Y-25061973D03*
X69151537Y-33621338D03*
X69661199Y-44894979D03*
X70243367Y-3601125D03*
X70315460Y-7146741D03*
X70437693Y-13289887D03*
X70293829Y-30929790D03*
X70525394Y-38610716D03*
X71176784Y-16137123D03*
X71189056Y-41421851D03*
X70954467Y-46762530D03*
X71917812Y-32725600D03*
X72375093Y-4700176D03*
X72474185Y-8304260D03*
X72588815Y-43331710D03*
X73074632Y-14515937D03*
X73316474Y-37676399D03*
X73873841Y-2624110D03*
X73906378Y-30707807D03*
X74025396Y-40733513D03*
X73767963Y-45482651D03*
X74767976Y-6218741D03*
X74531547Y-9816604D03*
X74649553Y-16633887D03*
X75200639Y-42827311D03*
X75212566Y-47691923D03*
X76071503Y-4179808D03*
X75924896Y-36532267D03*
X76860307Y-7791876D03*
X76761309Y-30242394D03*
X76573449Y-39202566D03*
X76674856Y-44836627D03*
X77313828Y-10631979D03*
X77231938Y-17375133D03*
X78108432Y-2750425D03*
X78274798Y-41440744D03*
X78276159Y-46820884D03*
X78653904Y-5502711D03*
X78705589Y-12561470D03*
X78713916Y-35723942D03*
X79456804Y-8476308D03*
X79572592Y-38571138D03*
X79435101Y-43510904D03*
X80870167Y-3625483D03*
X80945237Y-10530977D03*
X80786238Y-40626641D03*
X80859373Y-45416575D03*
X81535688Y-6199127D03*
X81556740Y-13393238D03*
X81657931Y-34145233D03*
X82439835Y-37151135D03*
X82196281Y-42699071D03*
X82329640Y-47427187D03*
X82896059Y-8487473D03*
X83743127Y-2658619D03*
X83876077Y-11170313D03*
X83765301Y-14743550D03*
X83626836Y-39323687D03*
X83844031Y-44740782D03*
X84248797Y-5473904D03*
X84251280Y-33596182D03*
X85212209Y-23735669D03*
X85163425Y-36497406D03*
X85153765Y-41362844D03*
X85046958Y-47004382D03*
X85688200Y-7771562D03*
X85863140Y-12415603D03*
X85634219Y-16209200D03*
X86429288Y-3553356D03*
X86597495Y-38356108D03*
X86422515Y-43367928D03*
X87033095Y-9932483D03*
X87198763Y-32278737D03*
X87829909Y-5528417D03*
X87947483Y-13934477D03*
X87882935Y-34898523D03*
X87850500Y-40553932D03*
X87802076Y-45556152D03*
X89363864Y-2773683D03*
X89438137Y-7654244D03*
X89467082Y-11164342D03*
X89163443Y-16025465D03*
X89439428Y-37049813D03*
X89368465Y-42582188D03*
X89389144Y-47469818D03*
X90140306Y-33422969D03*
X90613847Y-5040734D03*
X90718695Y-13355141D03*
X90705298Y-39344121D03*
X90703125Y-44756016D03*
X91333965Y-9934611D03*
X91287486Y-17313995D03*
X91570161Y-29413871D03*
X91483827Y-35616448D03*
X92188561Y-20964446D03*
X92178630Y-46836890D03*
X92741265Y-2818753D03*
X92759006Y-11756558D03*
X92889030Y-15416500D03*
X92840249Y-32856384D03*
X92714361Y-37703161D03*
X93644356Y-28028812D03*
X94308415Y-4807538D03*
X94269451Y-9192992D03*
X94336815Y-34996799D03*
X94147904Y-40017300D03*
X94311965Y-44210441D03*
X94767892Y-13424882D03*
X94764804Y-16928376D03*
X94840818Y-47601725D03*
X95460622Y-7148136D03*
X95488627Y-36955925D03*
X95444418Y-41984410D03*
X96202742Y-2737039D03*
X96389881Y-10430339D03*
X96142574Y-32714053D03*
X96457868Y-45578715D03*
X96862242Y-14508109D03*
X97143015Y-39271665D03*
X97809091Y-28142814D03*
X98944399Y-22524252D03*
%TO.N,Net-(R5-Pad2)*%
X54900000Y-20450000D03*
X84300000Y-25000000D03*
%TO.N,/VOUT*%
X58300000Y-5200000D03*
X58300000Y-6400000D03*
X58300000Y-7000000D03*
X58700000Y-7600000D03*
X58100000Y-7600000D03*
X58300000Y-5800000D03*
X53800000Y-17600000D03*
X54000000Y-16400000D03*
X54000000Y-15200000D03*
X54000000Y-17000000D03*
X54400000Y-17600000D03*
X54000000Y-15800000D03*
X53100000Y-29900000D03*
X53100000Y-28700000D03*
X52900000Y-31100000D03*
X53100000Y-30500000D03*
X53500000Y-31100000D03*
X53100000Y-29300000D03*
X97500000Y-23000000D03*
X96500000Y-23000000D03*
X95500000Y-23000000D03*
X94500000Y-23000000D03*
X97500000Y-27000000D03*
X96500000Y-27000000D03*
X95500000Y-27000000D03*
X94500000Y-27000000D03*
X93500000Y-27000000D03*
X92500000Y-27000000D03*
X93500000Y-23000000D03*
X92500000Y-23000000D03*
X87750000Y-25000000D03*
X55300000Y-41600000D03*
X91500000Y-23000000D03*
X90500000Y-23000000D03*
X89500000Y-23000000D03*
X88500000Y-23000000D03*
X91500000Y-27000000D03*
X90500000Y-27000000D03*
X89500000Y-27000000D03*
X88500000Y-27000000D03*
X55900000Y-41600000D03*
X55500000Y-41000000D03*
X55500000Y-40400000D03*
X55500000Y-39800000D03*
X55500000Y-39200000D03*
X87600000Y-23000000D03*
X87600000Y-27000000D03*
X86800000Y-23900000D03*
X86800000Y-26100000D03*
X87600000Y-29500000D03*
X86800000Y-27000000D03*
X86800000Y-23000000D03*
X87600000Y-20600000D03*
X63000000Y-5400000D03*
X58700000Y-15450000D03*
X57800000Y-28950000D03*
X60100000Y-39500000D03*
%TO.N,/VIN*%
X23700000Y-24200000D03*
X23700000Y-25800000D03*
X21900000Y-23700000D03*
X21900000Y-26300000D03*
X52600000Y-5600000D03*
X52600000Y-6400000D03*
X52600000Y-7200000D03*
X52600000Y-8000000D03*
X52600000Y-8800000D03*
X48100000Y-15600000D03*
X48100000Y-16400000D03*
X48100000Y-17200000D03*
X48100000Y-18000000D03*
X48100000Y-18800000D03*
X47200000Y-29100000D03*
X47200000Y-29900000D03*
X47200000Y-30700000D03*
X47200000Y-31500000D03*
X47200000Y-32300000D03*
X49700000Y-39700000D03*
X49700000Y-40500000D03*
X49700000Y-41300000D03*
X49700000Y-42100000D03*
X49700000Y-42900000D03*
X53000000Y-34400000D03*
X49100000Y-32700000D03*
X58300000Y-10900000D03*
X55400006Y-45000000D03*
X54400000Y-9100000D03*
X51500000Y-43200000D03*
X23300000Y-23700000D03*
X23300000Y-26300000D03*
X22600000Y-26300000D03*
X22600000Y-23700000D03*
%TO.N,Net-(C11-Pad1)*%
X56500000Y-43800000D03*
X54250000Y-33250000D03*
X59550000Y-9700000D03*
X54900000Y-19750000D03*
X49400000Y-23600000D03*
%TO.N,Net-(J1-Pad2)*%
X1400000Y-31000000D03*
X2100000Y-31000000D03*
X2800000Y-31000000D03*
X3500000Y-31000000D03*
X4200000Y-31000000D03*
X4900000Y-31000000D03*
X5600000Y-31000000D03*
X6300000Y-31000000D03*
X1400000Y-19000000D03*
X2100000Y-19000000D03*
X2800000Y-19000000D03*
X3500000Y-19000000D03*
X4200000Y-19000000D03*
X4900000Y-19000000D03*
X5600000Y-19000000D03*
X6300000Y-19000000D03*
%TO.N,/ILim*%
X49400000Y-44300000D03*
X46900000Y-33800000D03*
X47812500Y-23600000D03*
X47812500Y-21912500D03*
X46187500Y-21900000D03*
X52300000Y-10200000D03*
%TD*%
D11*
%TO.N,/ILim*%
X52300000Y-10200000D02*
X51900000Y-10200000D01*
X46187500Y-15912500D02*
X46187500Y-21900000D01*
X51900000Y-10200000D02*
X46187500Y-15912500D01*
X46187500Y-33087500D02*
X46900000Y-33800000D01*
X46187500Y-21900000D02*
X46187500Y-33087500D01*
X46900000Y-41800000D02*
X49400000Y-44300000D01*
X46900000Y-33800000D02*
X46900000Y-41800000D01*
%TD*%
%TO.N,Net-(C11-Pad1)*%
X60755600Y-9007193D02*
X60777904Y-9022096D01*
X60792807Y-9044400D01*
X60800000Y-9080559D01*
X60800000Y-13219765D01*
X60785107Y-13385061D01*
X60742112Y-13540680D01*
X60671998Y-13686099D01*
X60574358Y-13820304D01*
X60321081Y-14109764D01*
X60251834Y-14063495D01*
X60151740Y-14022034D01*
X60045481Y-14000898D01*
X59937141Y-14000898D01*
X59830882Y-14022034D01*
X59730788Y-14063495D01*
X59640707Y-14123685D01*
X59564098Y-14200294D01*
X59503908Y-14290375D01*
X59462447Y-14390469D01*
X59441311Y-14496728D01*
X59441311Y-14605068D01*
X59462447Y-14711327D01*
X59503908Y-14811421D01*
X59564098Y-14901502D01*
X59598344Y-14935748D01*
X59239956Y-15345335D01*
X59228864Y-15289571D01*
X59187403Y-15189477D01*
X59127213Y-15099396D01*
X59050604Y-15022787D01*
X58960523Y-14962597D01*
X58860429Y-14921136D01*
X58754170Y-14900000D01*
X58645830Y-14900000D01*
X58539571Y-14921136D01*
X58439477Y-14962597D01*
X58349396Y-15022787D01*
X58272787Y-15099396D01*
X58212597Y-15189477D01*
X58171136Y-15289571D01*
X58150000Y-15395830D01*
X58150000Y-15504170D01*
X58171136Y-15610429D01*
X58212597Y-15710523D01*
X58272787Y-15800604D01*
X58349396Y-15877213D01*
X58439477Y-15937403D01*
X58539571Y-15978864D01*
X58645830Y-16000000D01*
X58667124Y-16000000D01*
X58514694Y-16174205D01*
X58431825Y-16157722D01*
X58323485Y-16157722D01*
X58217226Y-16178858D01*
X58117132Y-16220319D01*
X58027051Y-16280509D01*
X57950442Y-16357118D01*
X57890252Y-16447199D01*
X57848791Y-16547293D01*
X57827655Y-16653552D01*
X57827655Y-16761892D01*
X57848791Y-16868151D01*
X57867651Y-16913683D01*
X57572165Y-17251381D01*
X57566560Y-17258399D01*
X57460977Y-17403520D01*
X57451764Y-17418921D01*
X57373821Y-17580577D01*
X57367508Y-17597377D01*
X57319715Y-17770362D01*
X57316507Y-17788020D01*
X57300403Y-17966762D01*
X57300000Y-17975735D01*
X57300000Y-20685786D01*
X57300482Y-20695588D01*
X57319697Y-20890679D01*
X57323521Y-20909905D01*
X57380426Y-21097498D01*
X57387928Y-21115610D01*
X57480338Y-21288497D01*
X57491229Y-21304797D01*
X57615592Y-21456333D01*
X57622182Y-21463604D01*
X58032923Y-21874345D01*
X58147922Y-22014471D01*
X58231045Y-22169984D01*
X58231407Y-22171178D01*
X58213996Y-22258710D01*
X58213996Y-22367050D01*
X58235132Y-22473309D01*
X58276593Y-22573403D01*
X58300000Y-22608434D01*
X58300000Y-26581311D01*
X58285123Y-26694312D01*
X58244036Y-26793505D01*
X58178679Y-26878679D01*
X58093505Y-26944036D01*
X57994312Y-26985123D01*
X57881311Y-27000000D01*
X56353553Y-27000000D01*
X56343751Y-27000482D01*
X56177231Y-27016883D01*
X56158004Y-27020707D01*
X55997884Y-27069279D01*
X55979773Y-27076781D01*
X55832205Y-27155658D01*
X55815906Y-27166549D01*
X55686561Y-27272699D01*
X55672908Y-27286307D01*
X55565933Y-27415786D01*
X55555302Y-27431472D01*
X55474672Y-27578805D01*
X55467191Y-27596214D01*
X55415801Y-27756112D01*
X55411739Y-27774620D01*
X55391433Y-27941341D01*
X55390734Y-27950800D01*
X55207921Y-34897711D01*
X55208136Y-34907413D01*
X55221843Y-35100782D01*
X55225082Y-35119895D01*
X55275841Y-35306985D01*
X55282706Y-35325114D01*
X55368608Y-35498896D01*
X55373325Y-35507376D01*
X57366811Y-38714288D01*
X57441437Y-38862555D01*
X57487077Y-39017443D01*
X57504773Y-39182483D01*
X57588055Y-44096124D01*
X57574696Y-44234178D01*
X57532447Y-44360282D01*
X57462921Y-44473655D01*
X57369683Y-44568487D01*
X57257508Y-44639922D01*
X57132138Y-44684303D01*
X56999936Y-44699360D01*
X56866628Y-44684341D01*
X56739943Y-44640011D01*
X56626304Y-44568607D01*
X56531393Y-44473696D01*
X56459989Y-44360057D01*
X56415659Y-44233372D01*
X56400000Y-44094387D01*
X56400000Y-41830112D01*
X56428864Y-41760429D01*
X56450000Y-41654170D01*
X56450000Y-41545830D01*
X56428864Y-41439571D01*
X56400000Y-41369888D01*
X56400000Y-39496440D01*
X56399539Y-39486849D01*
X56381140Y-39295904D01*
X56377477Y-39277073D01*
X56322956Y-39093154D01*
X56315765Y-39075370D01*
X56227129Y-38905246D01*
X56222288Y-38896953D01*
X54746006Y-36625750D01*
X54728864Y-36539571D01*
X54687403Y-36439477D01*
X54627213Y-36349396D01*
X54550604Y-36272787D01*
X54490457Y-36232598D01*
X53942889Y-35390186D01*
X53862914Y-35237747D01*
X53813947Y-35077599D01*
X53794997Y-34906502D01*
X53738417Y-31596560D01*
X53760523Y-31587403D01*
X53850604Y-31527213D01*
X53927213Y-31450604D01*
X53987403Y-31360523D01*
X54028864Y-31260429D01*
X54050000Y-31154170D01*
X54050000Y-31045830D01*
X54028864Y-30939571D01*
X53987403Y-30839477D01*
X53927213Y-30749396D01*
X53850604Y-30672787D01*
X53760523Y-30612597D01*
X53721320Y-30596358D01*
X53700958Y-29405162D01*
X53704760Y-29302459D01*
X54077617Y-25221744D01*
X54160523Y-25187403D01*
X54250604Y-25127213D01*
X54327213Y-25050604D01*
X54387403Y-24960523D01*
X54428864Y-24860429D01*
X54450000Y-24754170D01*
X54450000Y-24645830D01*
X54428864Y-24539571D01*
X54387403Y-24439477D01*
X54327213Y-24349396D01*
X54250604Y-24272787D01*
X54169289Y-24218454D01*
X54172880Y-24179146D01*
X54250604Y-24127213D01*
X54327213Y-24050604D01*
X54387403Y-23960523D01*
X54428864Y-23860429D01*
X54450000Y-23754170D01*
X54450000Y-23645830D01*
X54428864Y-23539571D01*
X54387403Y-23439477D01*
X54327213Y-23349396D01*
X54255269Y-23277452D01*
X54270846Y-23106971D01*
X54327213Y-23050604D01*
X54387403Y-22960523D01*
X54428864Y-22860429D01*
X54450000Y-22754170D01*
X54450000Y-22730938D01*
X54460429Y-22728864D01*
X54560523Y-22687403D01*
X54650604Y-22627213D01*
X54727213Y-22550604D01*
X54787403Y-22460523D01*
X54828864Y-22360429D01*
X54850000Y-22254170D01*
X54850000Y-22217988D01*
X54869253Y-22214158D01*
X54969347Y-22172697D01*
X55059428Y-22112507D01*
X55136037Y-22035898D01*
X55196227Y-21945817D01*
X55237688Y-21845723D01*
X55258824Y-21739464D01*
X55258824Y-21631124D01*
X55237688Y-21524865D01*
X55196227Y-21424771D01*
X55136037Y-21334690D01*
X55059428Y-21258081D01*
X54969347Y-21197891D01*
X54869253Y-21156430D01*
X54850000Y-21152600D01*
X54850000Y-21145830D01*
X54828864Y-21039571D01*
X54809478Y-20992769D01*
X54845830Y-21000000D01*
X54954170Y-21000000D01*
X55060429Y-20978864D01*
X55160523Y-20937403D01*
X55250604Y-20877213D01*
X55327213Y-20800604D01*
X55387403Y-20710523D01*
X55428864Y-20610429D01*
X55450000Y-20504170D01*
X55450000Y-20395830D01*
X55428864Y-20289571D01*
X55387403Y-20189477D01*
X55327213Y-20099396D01*
X55250604Y-20022787D01*
X55160523Y-19962597D01*
X55060429Y-19921136D01*
X54954170Y-19900000D01*
X54845830Y-19900000D01*
X54739571Y-19921136D01*
X54639477Y-19962597D01*
X54552861Y-20020472D01*
X54579569Y-19728167D01*
X54617744Y-19536756D01*
X54695243Y-19357624D01*
X58311949Y-12953041D01*
X58350604Y-12927213D01*
X58427213Y-12850604D01*
X58487403Y-12760523D01*
X58528864Y-12660429D01*
X58550000Y-12554170D01*
X58550000Y-12531493D01*
X58550353Y-12530868D01*
X58560429Y-12528864D01*
X58660523Y-12487403D01*
X58750604Y-12427213D01*
X58827213Y-12350604D01*
X58887403Y-12260523D01*
X58928864Y-12160429D01*
X58950000Y-12054170D01*
X58950000Y-12030938D01*
X58960429Y-12028864D01*
X59060523Y-11987403D01*
X59150604Y-11927213D01*
X59227213Y-11850604D01*
X59287403Y-11760523D01*
X59328864Y-11660429D01*
X59350000Y-11554170D01*
X59350000Y-11445830D01*
X59328864Y-11339571D01*
X59287403Y-11239477D01*
X59280538Y-11229203D01*
X59332812Y-11114734D01*
X59338563Y-11098615D01*
X59382070Y-10933092D01*
X59384988Y-10916228D01*
X59399633Y-10745711D01*
X59400000Y-10737154D01*
X59400000Y-9251272D01*
X59420188Y-9149782D01*
X59472096Y-9072096D01*
X59549782Y-9020188D01*
X59651272Y-9000000D01*
X60719441Y-9000000D01*
X60755600Y-9007193D01*
%TA.AperFunction,Conductor*%
D12*
G36*
X60755600Y-9007193D02*
G01*
X60777904Y-9022096D01*
X60792807Y-9044400D01*
X60800000Y-9080559D01*
X60800000Y-13219765D01*
X60785107Y-13385061D01*
X60742112Y-13540680D01*
X60671998Y-13686099D01*
X60574358Y-13820304D01*
X60321081Y-14109764D01*
X60251834Y-14063495D01*
X60151740Y-14022034D01*
X60045481Y-14000898D01*
X59937141Y-14000898D01*
X59830882Y-14022034D01*
X59730788Y-14063495D01*
X59640707Y-14123685D01*
X59564098Y-14200294D01*
X59503908Y-14290375D01*
X59462447Y-14390469D01*
X59441311Y-14496728D01*
X59441311Y-14605068D01*
X59462447Y-14711327D01*
X59503908Y-14811421D01*
X59564098Y-14901502D01*
X59598344Y-14935748D01*
X59239956Y-15345335D01*
X59228864Y-15289571D01*
X59187403Y-15189477D01*
X59127213Y-15099396D01*
X59050604Y-15022787D01*
X58960523Y-14962597D01*
X58860429Y-14921136D01*
X58754170Y-14900000D01*
X58645830Y-14900000D01*
X58539571Y-14921136D01*
X58439477Y-14962597D01*
X58349396Y-15022787D01*
X58272787Y-15099396D01*
X58212597Y-15189477D01*
X58171136Y-15289571D01*
X58150000Y-15395830D01*
X58150000Y-15504170D01*
X58171136Y-15610429D01*
X58212597Y-15710523D01*
X58272787Y-15800604D01*
X58349396Y-15877213D01*
X58439477Y-15937403D01*
X58539571Y-15978864D01*
X58645830Y-16000000D01*
X58667124Y-16000000D01*
X58514694Y-16174205D01*
X58431825Y-16157722D01*
X58323485Y-16157722D01*
X58217226Y-16178858D01*
X58117132Y-16220319D01*
X58027051Y-16280509D01*
X57950442Y-16357118D01*
X57890252Y-16447199D01*
X57848791Y-16547293D01*
X57827655Y-16653552D01*
X57827655Y-16761892D01*
X57848791Y-16868151D01*
X57867651Y-16913683D01*
X57572165Y-17251381D01*
X57566560Y-17258399D01*
X57460977Y-17403520D01*
X57451764Y-17418921D01*
X57373821Y-17580577D01*
X57367508Y-17597377D01*
X57319715Y-17770362D01*
X57316507Y-17788020D01*
X57300403Y-17966762D01*
X57300000Y-17975735D01*
X57300000Y-20685786D01*
X57300482Y-20695588D01*
X57319697Y-20890679D01*
X57323521Y-20909905D01*
X57380426Y-21097498D01*
X57387928Y-21115610D01*
X57480338Y-21288497D01*
X57491229Y-21304797D01*
X57615592Y-21456333D01*
X57622182Y-21463604D01*
X58032923Y-21874345D01*
X58147922Y-22014471D01*
X58231045Y-22169984D01*
X58231407Y-22171178D01*
X58213996Y-22258710D01*
X58213996Y-22367050D01*
X58235132Y-22473309D01*
X58276593Y-22573403D01*
X58300000Y-22608434D01*
X58300000Y-26581311D01*
X58285123Y-26694312D01*
X58244036Y-26793505D01*
X58178679Y-26878679D01*
X58093505Y-26944036D01*
X57994312Y-26985123D01*
X57881311Y-27000000D01*
X56353553Y-27000000D01*
X56343751Y-27000482D01*
X56177231Y-27016883D01*
X56158004Y-27020707D01*
X55997884Y-27069279D01*
X55979773Y-27076781D01*
X55832205Y-27155658D01*
X55815906Y-27166549D01*
X55686561Y-27272699D01*
X55672908Y-27286307D01*
X55565933Y-27415786D01*
X55555302Y-27431472D01*
X55474672Y-27578805D01*
X55467191Y-27596214D01*
X55415801Y-27756112D01*
X55411739Y-27774620D01*
X55391433Y-27941341D01*
X55390734Y-27950800D01*
X55207921Y-34897711D01*
X55208136Y-34907413D01*
X55221843Y-35100782D01*
X55225082Y-35119895D01*
X55275841Y-35306985D01*
X55282706Y-35325114D01*
X55368608Y-35498896D01*
X55373325Y-35507376D01*
X57366811Y-38714288D01*
X57441437Y-38862555D01*
X57487077Y-39017443D01*
X57504773Y-39182483D01*
X57588055Y-44096124D01*
X57574696Y-44234178D01*
X57532447Y-44360282D01*
X57462921Y-44473655D01*
X57369683Y-44568487D01*
X57257508Y-44639922D01*
X57132138Y-44684303D01*
X56999936Y-44699360D01*
X56866628Y-44684341D01*
X56739943Y-44640011D01*
X56626304Y-44568607D01*
X56531393Y-44473696D01*
X56459989Y-44360057D01*
X56415659Y-44233372D01*
X56400000Y-44094387D01*
X56400000Y-41830112D01*
X56428864Y-41760429D01*
X56450000Y-41654170D01*
X56450000Y-41545830D01*
X56428864Y-41439571D01*
X56400000Y-41369888D01*
X56400000Y-39496440D01*
X56399539Y-39486849D01*
X56381140Y-39295904D01*
X56377477Y-39277073D01*
X56322956Y-39093154D01*
X56315765Y-39075370D01*
X56227129Y-38905246D01*
X56222288Y-38896953D01*
X54746006Y-36625750D01*
X54728864Y-36539571D01*
X54687403Y-36439477D01*
X54627213Y-36349396D01*
X54550604Y-36272787D01*
X54490457Y-36232598D01*
X53942889Y-35390186D01*
X53862914Y-35237747D01*
X53813947Y-35077599D01*
X53794997Y-34906502D01*
X53738417Y-31596560D01*
X53760523Y-31587403D01*
X53850604Y-31527213D01*
X53927213Y-31450604D01*
X53987403Y-31360523D01*
X54028864Y-31260429D01*
X54050000Y-31154170D01*
X54050000Y-31045830D01*
X54028864Y-30939571D01*
X53987403Y-30839477D01*
X53927213Y-30749396D01*
X53850604Y-30672787D01*
X53760523Y-30612597D01*
X53721320Y-30596358D01*
X53700958Y-29405162D01*
X53704760Y-29302459D01*
X54077617Y-25221744D01*
X54160523Y-25187403D01*
X54250604Y-25127213D01*
X54327213Y-25050604D01*
X54387403Y-24960523D01*
X54428864Y-24860429D01*
X54450000Y-24754170D01*
X54450000Y-24645830D01*
X54428864Y-24539571D01*
X54387403Y-24439477D01*
X54327213Y-24349396D01*
X54250604Y-24272787D01*
X54169289Y-24218454D01*
X54172880Y-24179146D01*
X54250604Y-24127213D01*
X54327213Y-24050604D01*
X54387403Y-23960523D01*
X54428864Y-23860429D01*
X54450000Y-23754170D01*
X54450000Y-23645830D01*
X54428864Y-23539571D01*
X54387403Y-23439477D01*
X54327213Y-23349396D01*
X54255269Y-23277452D01*
X54270846Y-23106971D01*
X54327213Y-23050604D01*
X54387403Y-22960523D01*
X54428864Y-22860429D01*
X54450000Y-22754170D01*
X54450000Y-22730938D01*
X54460429Y-22728864D01*
X54560523Y-22687403D01*
X54650604Y-22627213D01*
X54727213Y-22550604D01*
X54787403Y-22460523D01*
X54828864Y-22360429D01*
X54850000Y-22254170D01*
X54850000Y-22217988D01*
X54869253Y-22214158D01*
X54969347Y-22172697D01*
X55059428Y-22112507D01*
X55136037Y-22035898D01*
X55196227Y-21945817D01*
X55237688Y-21845723D01*
X55258824Y-21739464D01*
X55258824Y-21631124D01*
X55237688Y-21524865D01*
X55196227Y-21424771D01*
X55136037Y-21334690D01*
X55059428Y-21258081D01*
X54969347Y-21197891D01*
X54869253Y-21156430D01*
X54850000Y-21152600D01*
X54850000Y-21145830D01*
X54828864Y-21039571D01*
X54809478Y-20992769D01*
X54845830Y-21000000D01*
X54954170Y-21000000D01*
X55060429Y-20978864D01*
X55160523Y-20937403D01*
X55250604Y-20877213D01*
X55327213Y-20800604D01*
X55387403Y-20710523D01*
X55428864Y-20610429D01*
X55450000Y-20504170D01*
X55450000Y-20395830D01*
X55428864Y-20289571D01*
X55387403Y-20189477D01*
X55327213Y-20099396D01*
X55250604Y-20022787D01*
X55160523Y-19962597D01*
X55060429Y-19921136D01*
X54954170Y-19900000D01*
X54845830Y-19900000D01*
X54739571Y-19921136D01*
X54639477Y-19962597D01*
X54552861Y-20020472D01*
X54579569Y-19728167D01*
X54617744Y-19536756D01*
X54695243Y-19357624D01*
X58311949Y-12953041D01*
X58350604Y-12927213D01*
X58427213Y-12850604D01*
X58487403Y-12760523D01*
X58528864Y-12660429D01*
X58550000Y-12554170D01*
X58550000Y-12531493D01*
X58550353Y-12530868D01*
X58560429Y-12528864D01*
X58660523Y-12487403D01*
X58750604Y-12427213D01*
X58827213Y-12350604D01*
X58887403Y-12260523D01*
X58928864Y-12160429D01*
X58950000Y-12054170D01*
X58950000Y-12030938D01*
X58960429Y-12028864D01*
X59060523Y-11987403D01*
X59150604Y-11927213D01*
X59227213Y-11850604D01*
X59287403Y-11760523D01*
X59328864Y-11660429D01*
X59350000Y-11554170D01*
X59350000Y-11445830D01*
X59328864Y-11339571D01*
X59287403Y-11239477D01*
X59280538Y-11229203D01*
X59332812Y-11114734D01*
X59338563Y-11098615D01*
X59382070Y-10933092D01*
X59384988Y-10916228D01*
X59399633Y-10745711D01*
X59400000Y-10737154D01*
X59400000Y-9251272D01*
X59420188Y-9149782D01*
X59472096Y-9072096D01*
X59549782Y-9020188D01*
X59651272Y-9000000D01*
X60719441Y-9000000D01*
X60755600Y-9007193D01*
G37*
%TD.AperFunction*%
%TD*%
D13*
%TO.N,GND*%
X99648001Y-49648000D02*
X352000Y-49648000D01*
X352000Y-44062845D01*
X6116761Y-44062845D01*
X6284802Y-44388643D01*
X6676607Y-44589426D01*
X7100055Y-44709914D01*
X7538873Y-44745476D01*
X7976197Y-44694746D01*
X8395221Y-44559674D01*
X8715198Y-44388643D01*
X8883239Y-44062845D01*
X7500000Y-42679605D01*
X6116761Y-44062845D01*
X352000Y-44062845D01*
X352000Y-42538873D01*
X5254524Y-42538873D01*
X5305254Y-42976197D01*
X5440326Y-43395221D01*
X5611357Y-43715198D01*
X5937155Y-43883239D01*
X7320395Y-42500000D01*
X7679605Y-42500000D01*
X9062845Y-43883239D01*
X9388643Y-43715198D01*
X9589426Y-43323393D01*
X9709914Y-42899945D01*
X9745476Y-42461127D01*
X9694746Y-42023803D01*
X9559674Y-41604779D01*
X9388643Y-41284802D01*
X9062845Y-41116761D01*
X7679605Y-42500000D01*
X7320395Y-42500000D01*
X5937155Y-41116761D01*
X5611357Y-41284802D01*
X5410574Y-41676607D01*
X5290086Y-42100055D01*
X5254524Y-42538873D01*
X352000Y-42538873D01*
X352000Y-40937155D01*
X6116761Y-40937155D01*
X7500000Y-42320395D01*
X8883239Y-40937155D01*
X8715198Y-40611357D01*
X8323393Y-40410574D01*
X7899945Y-40290086D01*
X7461127Y-40254524D01*
X7023803Y-40305254D01*
X6604779Y-40440326D01*
X6284802Y-40611357D01*
X6116761Y-40937155D01*
X352000Y-40937155D01*
X352000Y-32127000D01*
X11984537Y-32127000D01*
X20869524Y-34323289D01*
X20894162Y-34326866D01*
X20919025Y-34325567D01*
X20943156Y-34319443D01*
X20965629Y-34308728D01*
X20985580Y-34293836D01*
X21002242Y-34275337D01*
X21014975Y-34253943D01*
X21023289Y-34230476D01*
X21026998Y-34199298D01*
X20983042Y-26243170D01*
X21323000Y-26243170D01*
X21323000Y-26356830D01*
X21345174Y-26468305D01*
X21388669Y-26573312D01*
X21451815Y-26667816D01*
X21532184Y-26748185D01*
X21626688Y-26811331D01*
X21731695Y-26854826D01*
X21843170Y-26877000D01*
X21956830Y-26877000D01*
X22068305Y-26854826D01*
X22173312Y-26811331D01*
X22250000Y-26760089D01*
X22326688Y-26811331D01*
X22431695Y-26854826D01*
X22543170Y-26877000D01*
X22656830Y-26877000D01*
X22768305Y-26854826D01*
X22873312Y-26811331D01*
X22950000Y-26760089D01*
X23026688Y-26811331D01*
X23131695Y-26854826D01*
X23243170Y-26877000D01*
X23356830Y-26877000D01*
X23468305Y-26854826D01*
X23573312Y-26811331D01*
X23667816Y-26748185D01*
X23748185Y-26667816D01*
X23811331Y-26573312D01*
X23854826Y-26468305D01*
X23877000Y-26356830D01*
X23877000Y-26351224D01*
X23973312Y-26311331D01*
X24067816Y-26248185D01*
X24148185Y-26167816D01*
X24211331Y-26073312D01*
X24254826Y-25968305D01*
X24277000Y-25856830D01*
X24277000Y-25743170D01*
X24254826Y-25631695D01*
X24211331Y-25526688D01*
X24148185Y-25432184D01*
X24067816Y-25351815D01*
X23973312Y-25288669D01*
X23868305Y-25245174D01*
X23756830Y-25223000D01*
X23643170Y-25223000D01*
X23531695Y-25245174D01*
X23426688Y-25288669D01*
X23332184Y-25351815D01*
X23251815Y-25432184D01*
X23188669Y-25526688D01*
X23145174Y-25631695D01*
X23123000Y-25743170D01*
X23123000Y-25748776D01*
X23026688Y-25788669D01*
X22950000Y-25839911D01*
X22873312Y-25788669D01*
X22768305Y-25745174D01*
X22656830Y-25723000D01*
X22543170Y-25723000D01*
X22431695Y-25745174D01*
X22326688Y-25788669D01*
X22250000Y-25839911D01*
X22173312Y-25788669D01*
X22068305Y-25745174D01*
X21956830Y-25723000D01*
X21843170Y-25723000D01*
X21731695Y-25745174D01*
X21626688Y-25788669D01*
X21532184Y-25851815D01*
X21451815Y-25932184D01*
X21388669Y-26026688D01*
X21345174Y-26131695D01*
X21323000Y-26243170D01*
X20983042Y-26243170D01*
X20968678Y-23643170D01*
X21323000Y-23643170D01*
X21323000Y-23756830D01*
X21345174Y-23868305D01*
X21388669Y-23973312D01*
X21451815Y-24067816D01*
X21532184Y-24148185D01*
X21626688Y-24211331D01*
X21731695Y-24254826D01*
X21843170Y-24277000D01*
X21956830Y-24277000D01*
X22068305Y-24254826D01*
X22173312Y-24211331D01*
X22250000Y-24160089D01*
X22326688Y-24211331D01*
X22431695Y-24254826D01*
X22543170Y-24277000D01*
X22656830Y-24277000D01*
X22768305Y-24254826D01*
X22873312Y-24211331D01*
X22950000Y-24160089D01*
X23026688Y-24211331D01*
X23123000Y-24251224D01*
X23123000Y-24256830D01*
X23145174Y-24368305D01*
X23188669Y-24473312D01*
X23251815Y-24567816D01*
X23332184Y-24648185D01*
X23426688Y-24711331D01*
X23531695Y-24754826D01*
X23643170Y-24777000D01*
X23756830Y-24777000D01*
X23868305Y-24754826D01*
X23973312Y-24711331D01*
X24067816Y-24648185D01*
X24148185Y-24567816D01*
X24211331Y-24473312D01*
X24254826Y-24368305D01*
X24277000Y-24256830D01*
X24277000Y-24143170D01*
X24254826Y-24031695D01*
X24211331Y-23926688D01*
X24148185Y-23832184D01*
X24067816Y-23751815D01*
X23973312Y-23688669D01*
X23877000Y-23648776D01*
X23877000Y-23643170D01*
X23854826Y-23531695D01*
X23811331Y-23426688D01*
X23748185Y-23332184D01*
X23667816Y-23251815D01*
X23573312Y-23188669D01*
X23468305Y-23145174D01*
X23356830Y-23123000D01*
X23243170Y-23123000D01*
X23131695Y-23145174D01*
X23026688Y-23188669D01*
X22950000Y-23239911D01*
X22873312Y-23188669D01*
X22768305Y-23145174D01*
X22656830Y-23123000D01*
X22543170Y-23123000D01*
X22431695Y-23145174D01*
X22326688Y-23188669D01*
X22250000Y-23239911D01*
X22173312Y-23188669D01*
X22068305Y-23145174D01*
X21956830Y-23123000D01*
X21843170Y-23123000D01*
X21731695Y-23145174D01*
X21626688Y-23188669D01*
X21532184Y-23251815D01*
X21451815Y-23332184D01*
X21388669Y-23426688D01*
X21345174Y-23531695D01*
X21323000Y-23643170D01*
X20968678Y-23643170D01*
X20927661Y-16219227D01*
X45175299Y-16219227D01*
X45270747Y-33590805D01*
X45272474Y-33622624D01*
X45292486Y-33816259D01*
X45305162Y-33878640D01*
X45362310Y-34064730D01*
X45386832Y-34123473D01*
X45478951Y-34294965D01*
X45514389Y-34347845D01*
X45637988Y-34498240D01*
X45659396Y-34521844D01*
X45664525Y-34526973D01*
X45758264Y-34641194D01*
X45820309Y-34757271D01*
X45858517Y-34883228D01*
X45873000Y-35030275D01*
X45873000Y-42385786D01*
X45874575Y-42417838D01*
X45893790Y-42612929D01*
X45906295Y-42675799D01*
X45963200Y-42863392D01*
X45987732Y-42922617D01*
X46080142Y-43095504D01*
X46115756Y-43148804D01*
X46240119Y-43300340D01*
X46261669Y-43324117D01*
X48075883Y-45138331D01*
X48099660Y-45159881D01*
X48251196Y-45284244D01*
X48304496Y-45319858D01*
X48477383Y-45412268D01*
X48536608Y-45436800D01*
X48724201Y-45493705D01*
X48787071Y-45506210D01*
X48982162Y-45525425D01*
X49014214Y-45527000D01*
X49600000Y-45527000D01*
X49642683Y-45524202D01*
X49797974Y-45503757D01*
X49880428Y-45481664D01*
X50025137Y-45421724D01*
X50099065Y-45379042D01*
X50223329Y-45283691D01*
X50283691Y-45223329D01*
X50379042Y-45099065D01*
X50421724Y-45025137D01*
X50455675Y-44943170D01*
X54823006Y-44943170D01*
X54823006Y-45056830D01*
X54845180Y-45168305D01*
X54888675Y-45273312D01*
X54951821Y-45367816D01*
X55032190Y-45448185D01*
X55126694Y-45511331D01*
X55231701Y-45554826D01*
X55343176Y-45577000D01*
X55456836Y-45577000D01*
X55568311Y-45554826D01*
X55673318Y-45511331D01*
X55767822Y-45448185D01*
X55848191Y-45367816D01*
X55911337Y-45273312D01*
X55954832Y-45168305D01*
X55977006Y-45056830D01*
X55977006Y-44943170D01*
X55954832Y-44831695D01*
X55911337Y-44726688D01*
X55848191Y-44632184D01*
X55767822Y-44551815D01*
X55673318Y-44488669D01*
X55568311Y-44445174D01*
X55456836Y-44423000D01*
X55343176Y-44423000D01*
X55231701Y-44445174D01*
X55126694Y-44488669D01*
X55032190Y-44551815D01*
X54951821Y-44632184D01*
X54888675Y-44726688D01*
X54845180Y-44831695D01*
X54823006Y-44943170D01*
X50455675Y-44943170D01*
X50481664Y-44880428D01*
X50503757Y-44797974D01*
X50524202Y-44642683D01*
X50527000Y-44600000D01*
X50527000Y-44414214D01*
X50525425Y-44382162D01*
X50506210Y-44187071D01*
X50493705Y-44124201D01*
X50436800Y-43936608D01*
X50412268Y-43877383D01*
X50319858Y-43704496D01*
X50284244Y-43651196D01*
X50159881Y-43499660D01*
X50138331Y-43475883D01*
X50033537Y-43371089D01*
X50067816Y-43348185D01*
X50148185Y-43267816D01*
X50211331Y-43173312D01*
X50223816Y-43143170D01*
X50923000Y-43143170D01*
X50923000Y-43256830D01*
X50945174Y-43368305D01*
X50988669Y-43473312D01*
X51051815Y-43567816D01*
X51132184Y-43648185D01*
X51226688Y-43711331D01*
X51331695Y-43754826D01*
X51443170Y-43777000D01*
X51556830Y-43777000D01*
X51668305Y-43754826D01*
X51773312Y-43711331D01*
X51867816Y-43648185D01*
X51948185Y-43567816D01*
X52011331Y-43473312D01*
X52054826Y-43368305D01*
X52077000Y-43256830D01*
X52077000Y-43143170D01*
X52054826Y-43031695D01*
X52011331Y-42926688D01*
X51948185Y-42832184D01*
X51867816Y-42751815D01*
X51773312Y-42688669D01*
X51668305Y-42645174D01*
X51556830Y-42623000D01*
X51443170Y-42623000D01*
X51331695Y-42645174D01*
X51226688Y-42688669D01*
X51132184Y-42751815D01*
X51051815Y-42832184D01*
X50988669Y-42926688D01*
X50945174Y-43031695D01*
X50923000Y-43143170D01*
X50223816Y-43143170D01*
X50254826Y-43068305D01*
X50277000Y-42956830D01*
X50277000Y-42843170D01*
X50254826Y-42731695D01*
X50211331Y-42626688D01*
X50148185Y-42532184D01*
X50116001Y-42500000D01*
X50148185Y-42467816D01*
X50211331Y-42373312D01*
X50254826Y-42268305D01*
X50277000Y-42156830D01*
X50277000Y-42043170D01*
X50254826Y-41931695D01*
X50211331Y-41826688D01*
X50148185Y-41732184D01*
X50116001Y-41700000D01*
X50148185Y-41667816D01*
X50211331Y-41573312D01*
X50254826Y-41468305D01*
X50277000Y-41356830D01*
X50277000Y-41243170D01*
X50254826Y-41131695D01*
X50211331Y-41026688D01*
X50148185Y-40932184D01*
X50116001Y-40900000D01*
X50148185Y-40867816D01*
X50211331Y-40773312D01*
X50254826Y-40668305D01*
X50277000Y-40556830D01*
X50277000Y-40443170D01*
X50254826Y-40331695D01*
X50211331Y-40226688D01*
X50148185Y-40132184D01*
X50116001Y-40100000D01*
X50148185Y-40067816D01*
X50211331Y-39973312D01*
X50254826Y-39868305D01*
X50277000Y-39756830D01*
X50277000Y-39643170D01*
X50254826Y-39531695D01*
X50211331Y-39426688D01*
X50148185Y-39332184D01*
X50067816Y-39251815D01*
X49973312Y-39188669D01*
X49868305Y-39145174D01*
X49756830Y-39123000D01*
X49643170Y-39123000D01*
X49531695Y-39145174D01*
X49426688Y-39188669D01*
X49332184Y-39251815D01*
X49251815Y-39332184D01*
X49188669Y-39426688D01*
X49145174Y-39531695D01*
X49123000Y-39643170D01*
X49123000Y-39756830D01*
X49145174Y-39868305D01*
X49188669Y-39973312D01*
X49251815Y-40067816D01*
X49283999Y-40100000D01*
X49251815Y-40132184D01*
X49188669Y-40226688D01*
X49145174Y-40331695D01*
X49123000Y-40443170D01*
X49123000Y-40556830D01*
X49145174Y-40668305D01*
X49188669Y-40773312D01*
X49251815Y-40867816D01*
X49283999Y-40900000D01*
X49251815Y-40932184D01*
X49188669Y-41026688D01*
X49145174Y-41131695D01*
X49123000Y-41243170D01*
X49123000Y-41356830D01*
X49145174Y-41468305D01*
X49188669Y-41573312D01*
X49251815Y-41667816D01*
X49283999Y-41700000D01*
X49251815Y-41732184D01*
X49188669Y-41826688D01*
X49145174Y-41931695D01*
X49123000Y-42043170D01*
X49123000Y-42156830D01*
X49145174Y-42268305D01*
X49188669Y-42373312D01*
X49251815Y-42467816D01*
X49283999Y-42500000D01*
X49251815Y-42532184D01*
X49228911Y-42566463D01*
X48235475Y-41573027D01*
X48141736Y-41458806D01*
X48079691Y-41342729D01*
X48041483Y-41216772D01*
X48027000Y-41069725D01*
X48027000Y-34114214D01*
X48025425Y-34082162D01*
X48006210Y-33887071D01*
X47993705Y-33824201D01*
X47936800Y-33636608D01*
X47912268Y-33577383D01*
X47819858Y-33404496D01*
X47784244Y-33351196D01*
X47659881Y-33199660D01*
X47638331Y-33175883D01*
X47325741Y-32863293D01*
X47368305Y-32854826D01*
X47473312Y-32811331D01*
X47567816Y-32748185D01*
X47648185Y-32667816D01*
X47664653Y-32643170D01*
X48523000Y-32643170D01*
X48523000Y-32756830D01*
X48545174Y-32868305D01*
X48588669Y-32973312D01*
X48651815Y-33067816D01*
X48732184Y-33148185D01*
X48826688Y-33211331D01*
X48931695Y-33254826D01*
X49043170Y-33277000D01*
X49156830Y-33277000D01*
X49268305Y-33254826D01*
X49373312Y-33211331D01*
X49467816Y-33148185D01*
X49548185Y-33067816D01*
X49611331Y-32973312D01*
X49654826Y-32868305D01*
X49677000Y-32756830D01*
X49677000Y-32643170D01*
X49654826Y-32531695D01*
X49611331Y-32426688D01*
X49548185Y-32332184D01*
X49467816Y-32251815D01*
X49373312Y-32188669D01*
X49268305Y-32145174D01*
X49156830Y-32123000D01*
X49043170Y-32123000D01*
X48931695Y-32145174D01*
X48826688Y-32188669D01*
X48732184Y-32251815D01*
X48651815Y-32332184D01*
X48588669Y-32426688D01*
X48545174Y-32531695D01*
X48523000Y-32643170D01*
X47664653Y-32643170D01*
X47711331Y-32573312D01*
X47754826Y-32468305D01*
X47777000Y-32356830D01*
X47777000Y-32243170D01*
X47754826Y-32131695D01*
X47711331Y-32026688D01*
X47648185Y-31932184D01*
X47616001Y-31900000D01*
X47648185Y-31867816D01*
X47711331Y-31773312D01*
X47754826Y-31668305D01*
X47777000Y-31556830D01*
X47777000Y-31443170D01*
X47754826Y-31331695D01*
X47711331Y-31226688D01*
X47648185Y-31132184D01*
X47616001Y-31100000D01*
X47648185Y-31067816D01*
X47664653Y-31043170D01*
X52323000Y-31043170D01*
X52323000Y-31156830D01*
X52345174Y-31268305D01*
X52388669Y-31373312D01*
X52451815Y-31467816D01*
X52532184Y-31548185D01*
X52626688Y-31611331D01*
X52731695Y-31654826D01*
X52843170Y-31677000D01*
X52956830Y-31677000D01*
X53068305Y-31654826D01*
X53173312Y-31611331D01*
X53200000Y-31593499D01*
X53226688Y-31611331D01*
X53312214Y-31646757D01*
X53351429Y-33940865D01*
X53273312Y-33888669D01*
X53168305Y-33845174D01*
X53056830Y-33823000D01*
X52943170Y-33823000D01*
X52831695Y-33845174D01*
X52726688Y-33888669D01*
X52632184Y-33951815D01*
X52551815Y-34032184D01*
X52488669Y-34126688D01*
X52445174Y-34231695D01*
X52423000Y-34343170D01*
X52423000Y-34456830D01*
X52445174Y-34568305D01*
X52488669Y-34673312D01*
X52551815Y-34767816D01*
X52632184Y-34848185D01*
X52726688Y-34911331D01*
X52831695Y-34954826D01*
X52943170Y-34977000D01*
X53056830Y-34977000D01*
X53168305Y-34954826D01*
X53273312Y-34911331D01*
X53366949Y-34848765D01*
X53368140Y-34918465D01*
X53370079Y-34948874D01*
X53390572Y-35133900D01*
X53402876Y-35193516D01*
X53457308Y-35371538D01*
X53480448Y-35427841D01*
X53566933Y-35592690D01*
X53582331Y-35618984D01*
X55534942Y-38623000D01*
X55443170Y-38623000D01*
X55331695Y-38645174D01*
X55226688Y-38688669D01*
X55132184Y-38751815D01*
X55051815Y-38832184D01*
X54988669Y-38926688D01*
X54945174Y-39031695D01*
X54923000Y-39143170D01*
X54923000Y-39256830D01*
X54945174Y-39368305D01*
X54988669Y-39473312D01*
X55006501Y-39500000D01*
X54988669Y-39526688D01*
X54945174Y-39631695D01*
X54923000Y-39743170D01*
X54923000Y-39856830D01*
X54945174Y-39968305D01*
X54988669Y-40073312D01*
X55006501Y-40100000D01*
X54988669Y-40126688D01*
X54945174Y-40231695D01*
X54923000Y-40343170D01*
X54923000Y-40456830D01*
X54945174Y-40568305D01*
X54988669Y-40673312D01*
X55006501Y-40700000D01*
X54988669Y-40726688D01*
X54945174Y-40831695D01*
X54923000Y-40943170D01*
X54923000Y-41056830D01*
X54940755Y-41146088D01*
X54932184Y-41151815D01*
X54851815Y-41232184D01*
X54788669Y-41326688D01*
X54745174Y-41431695D01*
X54723000Y-41543170D01*
X54723000Y-41656830D01*
X54745174Y-41768305D01*
X54788669Y-41873312D01*
X54851815Y-41967816D01*
X54932184Y-42048185D01*
X55026688Y-42111331D01*
X55131695Y-42154826D01*
X55243170Y-42177000D01*
X55356830Y-42177000D01*
X55468305Y-42154826D01*
X55573312Y-42111331D01*
X55600000Y-42093499D01*
X55626688Y-42111331D01*
X55731695Y-42154826D01*
X55843170Y-42177000D01*
X55956830Y-42177000D01*
X55973000Y-42173784D01*
X55973000Y-43564517D01*
X55945174Y-43631695D01*
X55923000Y-43743170D01*
X55923000Y-43856830D01*
X55945174Y-43968305D01*
X55973000Y-44035483D01*
X55973000Y-44100000D01*
X55975056Y-44136611D01*
X55992606Y-44292376D01*
X56008901Y-44363767D01*
X56060673Y-44511721D01*
X56092443Y-44577693D01*
X56175839Y-44710417D01*
X56221494Y-44767667D01*
X56332333Y-44878506D01*
X56389583Y-44924161D01*
X56522307Y-45007557D01*
X56588279Y-45039327D01*
X56736233Y-45091099D01*
X56807624Y-45107394D01*
X56963389Y-45124944D01*
X57037005Y-45124899D01*
X57191776Y-45107271D01*
X57263893Y-45090627D01*
X57410735Y-45038645D01*
X57477259Y-45006211D01*
X57608651Y-44922539D01*
X57666180Y-44875974D01*
X57775390Y-44764897D01*
X57820973Y-44706589D01*
X57902407Y-44573798D01*
X57933710Y-44506731D01*
X57983195Y-44359029D01*
X57998614Y-44286643D01*
X58013617Y-44131596D01*
X58015090Y-44094559D01*
X58014553Y-44062845D01*
X91116761Y-44062845D01*
X91284802Y-44388643D01*
X91676607Y-44589426D01*
X92100055Y-44709914D01*
X92538873Y-44745476D01*
X92976197Y-44694746D01*
X93395221Y-44559674D01*
X93715198Y-44388643D01*
X93883239Y-44062845D01*
X92500000Y-42679605D01*
X91116761Y-44062845D01*
X58014553Y-44062845D01*
X57988723Y-42538873D01*
X90254524Y-42538873D01*
X90305254Y-42976197D01*
X90440326Y-43395221D01*
X90611357Y-43715198D01*
X90937155Y-43883239D01*
X92320395Y-42500000D01*
X92679605Y-42500000D01*
X94062845Y-43883239D01*
X94388643Y-43715198D01*
X94589426Y-43323393D01*
X94709914Y-42899945D01*
X94745476Y-42461127D01*
X94694746Y-42023803D01*
X94559674Y-41604779D01*
X94388643Y-41284802D01*
X94062845Y-41116761D01*
X92679605Y-42500000D01*
X92320395Y-42500000D01*
X90937155Y-41116761D01*
X90611357Y-41284802D01*
X90410574Y-41676607D01*
X90290086Y-42100055D01*
X90254524Y-42538873D01*
X57988723Y-42538873D01*
X57961576Y-40937155D01*
X91116761Y-40937155D01*
X92500000Y-42320395D01*
X93883239Y-40937155D01*
X93715198Y-40611357D01*
X93323393Y-40410574D01*
X92899945Y-40290086D01*
X92461127Y-40254524D01*
X92023803Y-40305254D01*
X91604779Y-40440326D01*
X91284802Y-40611357D01*
X91116761Y-40937155D01*
X57961576Y-40937155D01*
X57936254Y-39443170D01*
X59523000Y-39443170D01*
X59523000Y-39556830D01*
X59545174Y-39668305D01*
X59588669Y-39773312D01*
X59651815Y-39867816D01*
X59732184Y-39948185D01*
X59826688Y-40011331D01*
X59931695Y-40054826D01*
X60043170Y-40077000D01*
X60156830Y-40077000D01*
X60268305Y-40054826D01*
X60373312Y-40011331D01*
X60467816Y-39948185D01*
X60548185Y-39867816D01*
X60611331Y-39773312D01*
X60654826Y-39668305D01*
X60677000Y-39556830D01*
X60677000Y-39443170D01*
X60654826Y-39331695D01*
X60611331Y-39226688D01*
X60548185Y-39132184D01*
X60467816Y-39051815D01*
X60373312Y-38988669D01*
X60268305Y-38945174D01*
X60156830Y-38923000D01*
X60043170Y-38923000D01*
X59931695Y-38945174D01*
X59826688Y-38988669D01*
X59732184Y-39051815D01*
X59651815Y-39132184D01*
X59588669Y-39226688D01*
X59545174Y-39331695D01*
X59523000Y-39443170D01*
X57936254Y-39443170D01*
X57931636Y-39170756D01*
X57929819Y-39141435D01*
X57910682Y-38962960D01*
X57899212Y-38905396D01*
X57848477Y-38733218D01*
X57826900Y-38678631D01*
X57746201Y-38518297D01*
X57731828Y-38492677D01*
X55744360Y-35295446D01*
X55679604Y-35164443D01*
X55645523Y-35038827D01*
X55635191Y-34893063D01*
X55793082Y-28893170D01*
X57223000Y-28893170D01*
X57223000Y-29006830D01*
X57245174Y-29118305D01*
X57288669Y-29223312D01*
X57351815Y-29317816D01*
X57432184Y-29398185D01*
X57526688Y-29461331D01*
X57631695Y-29504826D01*
X57743170Y-29527000D01*
X57856830Y-29527000D01*
X57968305Y-29504826D01*
X58073312Y-29461331D01*
X58100491Y-29443170D01*
X87023000Y-29443170D01*
X87023000Y-29556830D01*
X87045174Y-29668305D01*
X87088669Y-29773312D01*
X87151815Y-29867816D01*
X87232184Y-29948185D01*
X87326688Y-30011331D01*
X87431695Y-30054826D01*
X87543170Y-30077000D01*
X87656830Y-30077000D01*
X87768305Y-30054826D01*
X87873312Y-30011331D01*
X87967816Y-29948185D01*
X88048185Y-29867816D01*
X88111331Y-29773312D01*
X88154826Y-29668305D01*
X88177000Y-29556830D01*
X88177000Y-29443170D01*
X88154826Y-29331695D01*
X88111331Y-29226688D01*
X88048185Y-29132184D01*
X87967816Y-29051815D01*
X87873312Y-28988669D01*
X87768305Y-28945174D01*
X87656830Y-28923000D01*
X87543170Y-28923000D01*
X87431695Y-28945174D01*
X87326688Y-28988669D01*
X87232184Y-29051815D01*
X87151815Y-29132184D01*
X87088669Y-29226688D01*
X87045174Y-29331695D01*
X87023000Y-29443170D01*
X58100491Y-29443170D01*
X58167816Y-29398185D01*
X58248185Y-29317816D01*
X58311331Y-29223312D01*
X58354826Y-29118305D01*
X58377000Y-29006830D01*
X58377000Y-28893170D01*
X58354826Y-28781695D01*
X58311331Y-28676688D01*
X58248185Y-28582184D01*
X58167816Y-28501815D01*
X58073312Y-28438669D01*
X57968305Y-28395174D01*
X57856830Y-28373000D01*
X57743170Y-28373000D01*
X57631695Y-28395174D01*
X57526688Y-28438669D01*
X57432184Y-28501815D01*
X57351815Y-28582184D01*
X57288669Y-28676688D01*
X57245174Y-28781695D01*
X57223000Y-28893170D01*
X55793082Y-28893170D01*
X55817178Y-27977550D01*
X55831843Y-27857141D01*
X55864191Y-27756491D01*
X55914935Y-27663767D01*
X55981924Y-27582687D01*
X56061896Y-27517056D01*
X56152658Y-27468542D01*
X56251136Y-27438669D01*
X56369614Y-27427000D01*
X57887868Y-27427000D01*
X57930549Y-27424203D01*
X58063098Y-27406753D01*
X58145556Y-27384658D01*
X58269073Y-27333495D01*
X58342999Y-27290814D01*
X58449065Y-27209427D01*
X58509427Y-27149065D01*
X58590814Y-27042999D01*
X58633495Y-26969073D01*
X58684658Y-26845556D01*
X58706753Y-26763098D01*
X58724203Y-26630549D01*
X58727000Y-26587868D01*
X58727000Y-26043170D01*
X86223000Y-26043170D01*
X86223000Y-26156830D01*
X86245174Y-26268305D01*
X86288669Y-26373312D01*
X86351815Y-26467816D01*
X86432184Y-26548185D01*
X86434900Y-26550000D01*
X86432184Y-26551815D01*
X86351815Y-26632184D01*
X86288669Y-26726688D01*
X86245174Y-26831695D01*
X86223000Y-26943170D01*
X86223000Y-27056830D01*
X86245174Y-27168305D01*
X86288669Y-27273312D01*
X86351815Y-27367816D01*
X86432184Y-27448185D01*
X86526688Y-27511331D01*
X86631695Y-27554826D01*
X86743170Y-27577000D01*
X86856830Y-27577000D01*
X86968305Y-27554826D01*
X87073312Y-27511331D01*
X87167816Y-27448185D01*
X87200000Y-27416001D01*
X87232184Y-27448185D01*
X87326688Y-27511331D01*
X87431695Y-27554826D01*
X87543170Y-27577000D01*
X87656830Y-27577000D01*
X87768305Y-27554826D01*
X87873312Y-27511331D01*
X87967816Y-27448185D01*
X88048185Y-27367816D01*
X88050000Y-27365100D01*
X88051815Y-27367816D01*
X88132184Y-27448185D01*
X88226688Y-27511331D01*
X88331695Y-27554826D01*
X88443170Y-27577000D01*
X88556830Y-27577000D01*
X88668305Y-27554826D01*
X88773312Y-27511331D01*
X88867816Y-27448185D01*
X88948185Y-27367816D01*
X89000000Y-27290270D01*
X89051815Y-27367816D01*
X89132184Y-27448185D01*
X89226688Y-27511331D01*
X89331695Y-27554826D01*
X89443170Y-27577000D01*
X89556830Y-27577000D01*
X89668305Y-27554826D01*
X89773312Y-27511331D01*
X89867816Y-27448185D01*
X89948185Y-27367816D01*
X90000000Y-27290270D01*
X90051815Y-27367816D01*
X90132184Y-27448185D01*
X90226688Y-27511331D01*
X90331695Y-27554826D01*
X90443170Y-27577000D01*
X90556830Y-27577000D01*
X90668305Y-27554826D01*
X90773312Y-27511331D01*
X90867816Y-27448185D01*
X90948185Y-27367816D01*
X91000000Y-27290270D01*
X91051815Y-27367816D01*
X91132184Y-27448185D01*
X91226688Y-27511331D01*
X91331695Y-27554826D01*
X91443170Y-27577000D01*
X91556830Y-27577000D01*
X91668305Y-27554826D01*
X91773312Y-27511331D01*
X91867816Y-27448185D01*
X91948185Y-27367816D01*
X92000000Y-27290270D01*
X92051815Y-27367816D01*
X92132184Y-27448185D01*
X92226688Y-27511331D01*
X92331695Y-27554826D01*
X92443170Y-27577000D01*
X92556830Y-27577000D01*
X92668305Y-27554826D01*
X92773312Y-27511331D01*
X92867816Y-27448185D01*
X92948185Y-27367816D01*
X93000000Y-27290270D01*
X93051815Y-27367816D01*
X93132184Y-27448185D01*
X93226688Y-27511331D01*
X93331695Y-27554826D01*
X93443170Y-27577000D01*
X93556830Y-27577000D01*
X93668305Y-27554826D01*
X93773312Y-27511331D01*
X93867816Y-27448185D01*
X93948185Y-27367816D01*
X94000000Y-27290270D01*
X94051815Y-27367816D01*
X94132184Y-27448185D01*
X94226688Y-27511331D01*
X94331695Y-27554826D01*
X94443170Y-27577000D01*
X94556830Y-27577000D01*
X94668305Y-27554826D01*
X94773312Y-27511331D01*
X94867816Y-27448185D01*
X94948185Y-27367816D01*
X95000000Y-27290270D01*
X95051815Y-27367816D01*
X95132184Y-27448185D01*
X95226688Y-27511331D01*
X95331695Y-27554826D01*
X95443170Y-27577000D01*
X95556830Y-27577000D01*
X95668305Y-27554826D01*
X95773312Y-27511331D01*
X95867816Y-27448185D01*
X95948185Y-27367816D01*
X96000000Y-27290270D01*
X96051815Y-27367816D01*
X96132184Y-27448185D01*
X96226688Y-27511331D01*
X96331695Y-27554826D01*
X96443170Y-27577000D01*
X96556830Y-27577000D01*
X96668305Y-27554826D01*
X96773312Y-27511331D01*
X96867816Y-27448185D01*
X96948185Y-27367816D01*
X97000000Y-27290270D01*
X97051815Y-27367816D01*
X97132184Y-27448185D01*
X97226688Y-27511331D01*
X97331695Y-27554826D01*
X97443170Y-27577000D01*
X97556830Y-27577000D01*
X97668305Y-27554826D01*
X97773312Y-27511331D01*
X97867816Y-27448185D01*
X97948185Y-27367816D01*
X98011331Y-27273312D01*
X98054826Y-27168305D01*
X98077000Y-27056830D01*
X98077000Y-26943170D01*
X98054826Y-26831695D01*
X98011331Y-26726688D01*
X97948185Y-26632184D01*
X97867816Y-26551815D01*
X97773312Y-26488669D01*
X97668305Y-26445174D01*
X97556830Y-26423000D01*
X97443170Y-26423000D01*
X97331695Y-26445174D01*
X97226688Y-26488669D01*
X97132184Y-26551815D01*
X97051815Y-26632184D01*
X97000000Y-26709730D01*
X96948185Y-26632184D01*
X96867816Y-26551815D01*
X96773312Y-26488669D01*
X96668305Y-26445174D01*
X96556830Y-26423000D01*
X96443170Y-26423000D01*
X96331695Y-26445174D01*
X96226688Y-26488669D01*
X96132184Y-26551815D01*
X96051815Y-26632184D01*
X96000000Y-26709730D01*
X95948185Y-26632184D01*
X95867816Y-26551815D01*
X95773312Y-26488669D01*
X95668305Y-26445174D01*
X95556830Y-26423000D01*
X95443170Y-26423000D01*
X95331695Y-26445174D01*
X95226688Y-26488669D01*
X95132184Y-26551815D01*
X95051815Y-26632184D01*
X95000000Y-26709730D01*
X94948185Y-26632184D01*
X94867816Y-26551815D01*
X94773312Y-26488669D01*
X94668305Y-26445174D01*
X94556830Y-26423000D01*
X94443170Y-26423000D01*
X94331695Y-26445174D01*
X94226688Y-26488669D01*
X94132184Y-26551815D01*
X94051815Y-26632184D01*
X94000000Y-26709730D01*
X93948185Y-26632184D01*
X93867816Y-26551815D01*
X93773312Y-26488669D01*
X93668305Y-26445174D01*
X93556830Y-26423000D01*
X93443170Y-26423000D01*
X93331695Y-26445174D01*
X93226688Y-26488669D01*
X93132184Y-26551815D01*
X93051815Y-26632184D01*
X93000000Y-26709730D01*
X92948185Y-26632184D01*
X92867816Y-26551815D01*
X92773312Y-26488669D01*
X92668305Y-26445174D01*
X92556830Y-26423000D01*
X92443170Y-26423000D01*
X92331695Y-26445174D01*
X92226688Y-26488669D01*
X92132184Y-26551815D01*
X92051815Y-26632184D01*
X92000000Y-26709730D01*
X91948185Y-26632184D01*
X91867816Y-26551815D01*
X91773312Y-26488669D01*
X91668305Y-26445174D01*
X91556830Y-26423000D01*
X91443170Y-26423000D01*
X91331695Y-26445174D01*
X91226688Y-26488669D01*
X91132184Y-26551815D01*
X91051815Y-26632184D01*
X91000000Y-26709730D01*
X90948185Y-26632184D01*
X90867816Y-26551815D01*
X90773312Y-26488669D01*
X90668305Y-26445174D01*
X90556830Y-26423000D01*
X90443170Y-26423000D01*
X90331695Y-26445174D01*
X90226688Y-26488669D01*
X90132184Y-26551815D01*
X90051815Y-26632184D01*
X90000000Y-26709730D01*
X89948185Y-26632184D01*
X89867816Y-26551815D01*
X89773312Y-26488669D01*
X89668305Y-26445174D01*
X89556830Y-26423000D01*
X89443170Y-26423000D01*
X89331695Y-26445174D01*
X89226688Y-26488669D01*
X89132184Y-26551815D01*
X89051815Y-26632184D01*
X89000000Y-26709730D01*
X88948185Y-26632184D01*
X88867816Y-26551815D01*
X88773312Y-26488669D01*
X88668305Y-26445174D01*
X88556830Y-26423000D01*
X88443170Y-26423000D01*
X88331695Y-26445174D01*
X88226688Y-26488669D01*
X88132184Y-26551815D01*
X88051815Y-26632184D01*
X88050000Y-26634900D01*
X88048185Y-26632184D01*
X87967816Y-26551815D01*
X87873312Y-26488669D01*
X87768305Y-26445174D01*
X87656830Y-26423000D01*
X87543170Y-26423000D01*
X87431695Y-26445174D01*
X87326688Y-26488669D01*
X87232184Y-26551815D01*
X87200000Y-26583999D01*
X87167816Y-26551815D01*
X87165100Y-26550000D01*
X87167816Y-26548185D01*
X87248185Y-26467816D01*
X87311331Y-26373312D01*
X87354826Y-26268305D01*
X87377000Y-26156830D01*
X87377000Y-26043170D01*
X87354826Y-25931695D01*
X87311331Y-25826688D01*
X87248185Y-25732184D01*
X87167816Y-25651815D01*
X87073312Y-25588669D01*
X86968305Y-25545174D01*
X86856830Y-25523000D01*
X86743170Y-25523000D01*
X86631695Y-25545174D01*
X86526688Y-25588669D01*
X86432184Y-25651815D01*
X86351815Y-25732184D01*
X86288669Y-25826688D01*
X86245174Y-25931695D01*
X86223000Y-26043170D01*
X58727000Y-26043170D01*
X58727000Y-24943170D01*
X83723000Y-24943170D01*
X83723000Y-25056830D01*
X83745174Y-25168305D01*
X83788669Y-25273312D01*
X83851815Y-25367816D01*
X83932184Y-25448185D01*
X84026688Y-25511331D01*
X84131695Y-25554826D01*
X84243170Y-25577000D01*
X84356830Y-25577000D01*
X84468305Y-25554826D01*
X84573312Y-25511331D01*
X84667816Y-25448185D01*
X84748185Y-25367816D01*
X84811331Y-25273312D01*
X84854826Y-25168305D01*
X84877000Y-25056830D01*
X84877000Y-24943170D01*
X87173000Y-24943170D01*
X87173000Y-25056830D01*
X87195174Y-25168305D01*
X87238669Y-25273312D01*
X87301815Y-25367816D01*
X87382184Y-25448185D01*
X87476688Y-25511331D01*
X87581695Y-25554826D01*
X87693170Y-25577000D01*
X87806830Y-25577000D01*
X87918305Y-25554826D01*
X88023312Y-25511331D01*
X88117816Y-25448185D01*
X88198185Y-25367816D01*
X88261331Y-25273312D01*
X88304826Y-25168305D01*
X88327000Y-25056830D01*
X88327000Y-24943170D01*
X88304826Y-24831695D01*
X88261331Y-24726688D01*
X88198185Y-24632184D01*
X88117816Y-24551815D01*
X88023312Y-24488669D01*
X87918305Y-24445174D01*
X87806830Y-24423000D01*
X87693170Y-24423000D01*
X87581695Y-24445174D01*
X87476688Y-24488669D01*
X87382184Y-24551815D01*
X87301815Y-24632184D01*
X87238669Y-24726688D01*
X87195174Y-24831695D01*
X87173000Y-24943170D01*
X84877000Y-24943170D01*
X84854826Y-24831695D01*
X84811331Y-24726688D01*
X84748185Y-24632184D01*
X84667816Y-24551815D01*
X84573312Y-24488669D01*
X84468305Y-24445174D01*
X84356830Y-24423000D01*
X84243170Y-24423000D01*
X84131695Y-24445174D01*
X84026688Y-24488669D01*
X83932184Y-24551815D01*
X83851815Y-24632184D01*
X83788669Y-24726688D01*
X83745174Y-24831695D01*
X83723000Y-24943170D01*
X58727000Y-24943170D01*
X58727000Y-22943170D01*
X86223000Y-22943170D01*
X86223000Y-23056830D01*
X86245174Y-23168305D01*
X86288669Y-23273312D01*
X86351815Y-23367816D01*
X86432184Y-23448185D01*
X86434900Y-23450000D01*
X86432184Y-23451815D01*
X86351815Y-23532184D01*
X86288669Y-23626688D01*
X86245174Y-23731695D01*
X86223000Y-23843170D01*
X86223000Y-23956830D01*
X86245174Y-24068305D01*
X86288669Y-24173312D01*
X86351815Y-24267816D01*
X86432184Y-24348185D01*
X86526688Y-24411331D01*
X86631695Y-24454826D01*
X86743170Y-24477000D01*
X86856830Y-24477000D01*
X86968305Y-24454826D01*
X87073312Y-24411331D01*
X87167816Y-24348185D01*
X87248185Y-24267816D01*
X87311331Y-24173312D01*
X87354826Y-24068305D01*
X87377000Y-23956830D01*
X87377000Y-23843170D01*
X87354826Y-23731695D01*
X87311331Y-23626688D01*
X87248185Y-23532184D01*
X87167816Y-23451815D01*
X87165100Y-23450000D01*
X87167816Y-23448185D01*
X87200000Y-23416001D01*
X87232184Y-23448185D01*
X87326688Y-23511331D01*
X87431695Y-23554826D01*
X87543170Y-23577000D01*
X87656830Y-23577000D01*
X87768305Y-23554826D01*
X87873312Y-23511331D01*
X87967816Y-23448185D01*
X88048185Y-23367816D01*
X88050000Y-23365100D01*
X88051815Y-23367816D01*
X88132184Y-23448185D01*
X88226688Y-23511331D01*
X88331695Y-23554826D01*
X88443170Y-23577000D01*
X88556830Y-23577000D01*
X88668305Y-23554826D01*
X88773312Y-23511331D01*
X88867816Y-23448185D01*
X88948185Y-23367816D01*
X89000000Y-23290270D01*
X89051815Y-23367816D01*
X89132184Y-23448185D01*
X89226688Y-23511331D01*
X89331695Y-23554826D01*
X89443170Y-23577000D01*
X89556830Y-23577000D01*
X89668305Y-23554826D01*
X89773312Y-23511331D01*
X89867816Y-23448185D01*
X89948185Y-23367816D01*
X90000000Y-23290270D01*
X90051815Y-23367816D01*
X90132184Y-23448185D01*
X90226688Y-23511331D01*
X90331695Y-23554826D01*
X90443170Y-23577000D01*
X90556830Y-23577000D01*
X90668305Y-23554826D01*
X90773312Y-23511331D01*
X90867816Y-23448185D01*
X90948185Y-23367816D01*
X91000000Y-23290270D01*
X91051815Y-23367816D01*
X91132184Y-23448185D01*
X91226688Y-23511331D01*
X91331695Y-23554826D01*
X91443170Y-23577000D01*
X91556830Y-23577000D01*
X91668305Y-23554826D01*
X91773312Y-23511331D01*
X91867816Y-23448185D01*
X91948185Y-23367816D01*
X92000000Y-23290270D01*
X92051815Y-23367816D01*
X92132184Y-23448185D01*
X92226688Y-23511331D01*
X92331695Y-23554826D01*
X92443170Y-23577000D01*
X92556830Y-23577000D01*
X92668305Y-23554826D01*
X92773312Y-23511331D01*
X92867816Y-23448185D01*
X92948185Y-23367816D01*
X93000000Y-23290270D01*
X93051815Y-23367816D01*
X93132184Y-23448185D01*
X93226688Y-23511331D01*
X93331695Y-23554826D01*
X93443170Y-23577000D01*
X93556830Y-23577000D01*
X93668305Y-23554826D01*
X93773312Y-23511331D01*
X93867816Y-23448185D01*
X93948185Y-23367816D01*
X94000000Y-23290270D01*
X94051815Y-23367816D01*
X94132184Y-23448185D01*
X94226688Y-23511331D01*
X94331695Y-23554826D01*
X94443170Y-23577000D01*
X94556830Y-23577000D01*
X94668305Y-23554826D01*
X94773312Y-23511331D01*
X94867816Y-23448185D01*
X94948185Y-23367816D01*
X95000000Y-23290270D01*
X95051815Y-23367816D01*
X95132184Y-23448185D01*
X95226688Y-23511331D01*
X95331695Y-23554826D01*
X95443170Y-23577000D01*
X95556830Y-23577000D01*
X95668305Y-23554826D01*
X95773312Y-23511331D01*
X95867816Y-23448185D01*
X95948185Y-23367816D01*
X96000000Y-23290270D01*
X96051815Y-23367816D01*
X96132184Y-23448185D01*
X96226688Y-23511331D01*
X96331695Y-23554826D01*
X96443170Y-23577000D01*
X96556830Y-23577000D01*
X96668305Y-23554826D01*
X96773312Y-23511331D01*
X96867816Y-23448185D01*
X96948185Y-23367816D01*
X97000000Y-23290270D01*
X97051815Y-23367816D01*
X97132184Y-23448185D01*
X97226688Y-23511331D01*
X97331695Y-23554826D01*
X97443170Y-23577000D01*
X97556830Y-23577000D01*
X97668305Y-23554826D01*
X97773312Y-23511331D01*
X97867816Y-23448185D01*
X97948185Y-23367816D01*
X98011331Y-23273312D01*
X98054826Y-23168305D01*
X98077000Y-23056830D01*
X98077000Y-22943170D01*
X98054826Y-22831695D01*
X98011331Y-22726688D01*
X97948185Y-22632184D01*
X97867816Y-22551815D01*
X97773312Y-22488669D01*
X97668305Y-22445174D01*
X97556830Y-22423000D01*
X97443170Y-22423000D01*
X97331695Y-22445174D01*
X97226688Y-22488669D01*
X97132184Y-22551815D01*
X97051815Y-22632184D01*
X97000000Y-22709730D01*
X96948185Y-22632184D01*
X96867816Y-22551815D01*
X96773312Y-22488669D01*
X96668305Y-22445174D01*
X96556830Y-22423000D01*
X96443170Y-22423000D01*
X96331695Y-22445174D01*
X96226688Y-22488669D01*
X96132184Y-22551815D01*
X96051815Y-22632184D01*
X96000000Y-22709730D01*
X95948185Y-22632184D01*
X95867816Y-22551815D01*
X95773312Y-22488669D01*
X95668305Y-22445174D01*
X95556830Y-22423000D01*
X95443170Y-22423000D01*
X95331695Y-22445174D01*
X95226688Y-22488669D01*
X95132184Y-22551815D01*
X95051815Y-22632184D01*
X95000000Y-22709730D01*
X94948185Y-22632184D01*
X94867816Y-22551815D01*
X94773312Y-22488669D01*
X94668305Y-22445174D01*
X94556830Y-22423000D01*
X94443170Y-22423000D01*
X94331695Y-22445174D01*
X94226688Y-22488669D01*
X94132184Y-22551815D01*
X94051815Y-22632184D01*
X94000000Y-22709730D01*
X93948185Y-22632184D01*
X93867816Y-22551815D01*
X93773312Y-22488669D01*
X93668305Y-22445174D01*
X93556830Y-22423000D01*
X93443170Y-22423000D01*
X93331695Y-22445174D01*
X93226688Y-22488669D01*
X93132184Y-22551815D01*
X93051815Y-22632184D01*
X93000000Y-22709730D01*
X92948185Y-22632184D01*
X92867816Y-22551815D01*
X92773312Y-22488669D01*
X92668305Y-22445174D01*
X92556830Y-22423000D01*
X92443170Y-22423000D01*
X92331695Y-22445174D01*
X92226688Y-22488669D01*
X92132184Y-22551815D01*
X92051815Y-22632184D01*
X92000000Y-22709730D01*
X91948185Y-22632184D01*
X91867816Y-22551815D01*
X91773312Y-22488669D01*
X91668305Y-22445174D01*
X91556830Y-22423000D01*
X91443170Y-22423000D01*
X91331695Y-22445174D01*
X91226688Y-22488669D01*
X91132184Y-22551815D01*
X91051815Y-22632184D01*
X91000000Y-22709730D01*
X90948185Y-22632184D01*
X90867816Y-22551815D01*
X90773312Y-22488669D01*
X90668305Y-22445174D01*
X90556830Y-22423000D01*
X90443170Y-22423000D01*
X90331695Y-22445174D01*
X90226688Y-22488669D01*
X90132184Y-22551815D01*
X90051815Y-22632184D01*
X90000000Y-22709730D01*
X89948185Y-22632184D01*
X89867816Y-22551815D01*
X89773312Y-22488669D01*
X89668305Y-22445174D01*
X89556830Y-22423000D01*
X89443170Y-22423000D01*
X89331695Y-22445174D01*
X89226688Y-22488669D01*
X89132184Y-22551815D01*
X89051815Y-22632184D01*
X89000000Y-22709730D01*
X88948185Y-22632184D01*
X88867816Y-22551815D01*
X88773312Y-22488669D01*
X88668305Y-22445174D01*
X88556830Y-22423000D01*
X88443170Y-22423000D01*
X88331695Y-22445174D01*
X88226688Y-22488669D01*
X88132184Y-22551815D01*
X88051815Y-22632184D01*
X88050000Y-22634900D01*
X88048185Y-22632184D01*
X87967816Y-22551815D01*
X87873312Y-22488669D01*
X87768305Y-22445174D01*
X87656830Y-22423000D01*
X87543170Y-22423000D01*
X87431695Y-22445174D01*
X87326688Y-22488669D01*
X87232184Y-22551815D01*
X87200000Y-22583999D01*
X87167816Y-22551815D01*
X87073312Y-22488669D01*
X86968305Y-22445174D01*
X86856830Y-22423000D01*
X86743170Y-22423000D01*
X86631695Y-22445174D01*
X86526688Y-22488669D01*
X86432184Y-22551815D01*
X86351815Y-22632184D01*
X86288669Y-22726688D01*
X86245174Y-22831695D01*
X86223000Y-22943170D01*
X58727000Y-22943170D01*
X58727000Y-22514214D01*
X58725425Y-22482162D01*
X58706210Y-22287071D01*
X58693705Y-22224201D01*
X58636800Y-22036608D01*
X58612268Y-21977383D01*
X58519858Y-21804496D01*
X58484244Y-21751196D01*
X58359881Y-21599660D01*
X58338331Y-21575883D01*
X57935475Y-21173027D01*
X57841736Y-21058806D01*
X57779691Y-20942729D01*
X57741483Y-20816772D01*
X57727000Y-20669725D01*
X57727000Y-20543170D01*
X87023000Y-20543170D01*
X87023000Y-20656830D01*
X87045174Y-20768305D01*
X87088669Y-20873312D01*
X87151815Y-20967816D01*
X87232184Y-21048185D01*
X87326688Y-21111331D01*
X87431695Y-21154826D01*
X87543170Y-21177000D01*
X87656830Y-21177000D01*
X87768305Y-21154826D01*
X87873312Y-21111331D01*
X87967816Y-21048185D01*
X88048185Y-20967816D01*
X88111331Y-20873312D01*
X88154826Y-20768305D01*
X88177000Y-20656830D01*
X88177000Y-20543170D01*
X88154826Y-20431695D01*
X88111331Y-20326688D01*
X88048185Y-20232184D01*
X87967816Y-20151815D01*
X87873312Y-20088669D01*
X87768305Y-20045174D01*
X87656830Y-20023000D01*
X87543170Y-20023000D01*
X87431695Y-20045174D01*
X87326688Y-20088669D01*
X87232184Y-20151815D01*
X87151815Y-20232184D01*
X87088669Y-20326688D01*
X87045174Y-20431695D01*
X87023000Y-20543170D01*
X57727000Y-20543170D01*
X57727000Y-17990438D01*
X57739142Y-17855674D01*
X57771242Y-17739489D01*
X57823593Y-17630910D01*
X57903195Y-17521501D01*
X60898670Y-14098100D01*
X60916999Y-14075149D01*
X61022582Y-13930028D01*
X61052710Y-13879666D01*
X61130653Y-13718010D01*
X61151294Y-13663074D01*
X61199087Y-13490089D01*
X61209577Y-13432350D01*
X61225681Y-13253608D01*
X61227000Y-13224265D01*
X61227000Y-9070711D01*
X61226226Y-9062845D01*
X91116761Y-9062845D01*
X91284802Y-9388643D01*
X91676607Y-9589426D01*
X92100055Y-9709914D01*
X92538873Y-9745476D01*
X92976197Y-9694746D01*
X93395221Y-9559674D01*
X93715198Y-9388643D01*
X93883239Y-9062845D01*
X92500000Y-7679605D01*
X91116761Y-9062845D01*
X61226226Y-9062845D01*
X61220716Y-9006914D01*
X61207721Y-8941586D01*
X61189115Y-8880248D01*
X61158897Y-8823714D01*
X61121892Y-8768331D01*
X61081222Y-8718774D01*
X61031669Y-8678108D01*
X60976286Y-8641103D01*
X60919756Y-8610887D01*
X60858414Y-8592279D01*
X60793086Y-8579284D01*
X60729289Y-8573000D01*
X59641421Y-8573000D01*
X59577627Y-8579283D01*
X59446971Y-8605272D01*
X59385627Y-8623881D01*
X59329093Y-8654099D01*
X59218328Y-8728110D01*
X59168776Y-8768776D01*
X59128110Y-8818328D01*
X59054099Y-8929093D01*
X59023880Y-8985628D01*
X59005272Y-9046971D01*
X58979283Y-9177627D01*
X58973000Y-9241421D01*
X58973000Y-10723132D01*
X58961957Y-10851707D01*
X58932729Y-10962906D01*
X58879122Y-11080294D01*
X54320828Y-19152272D01*
X54305448Y-19183221D01*
X54221634Y-19376947D01*
X54201065Y-19442833D01*
X54159781Y-19649835D01*
X54154823Y-19684038D01*
X53377495Y-28191464D01*
X53373312Y-28188669D01*
X53268305Y-28145174D01*
X53156830Y-28123000D01*
X53043170Y-28123000D01*
X52931695Y-28145174D01*
X52826688Y-28188669D01*
X52732184Y-28251815D01*
X52651815Y-28332184D01*
X52588669Y-28426688D01*
X52545174Y-28531695D01*
X52523000Y-28643170D01*
X52523000Y-28756830D01*
X52545174Y-28868305D01*
X52588669Y-28973312D01*
X52606501Y-29000000D01*
X52588669Y-29026688D01*
X52545174Y-29131695D01*
X52523000Y-29243170D01*
X52523000Y-29356830D01*
X52545174Y-29468305D01*
X52588669Y-29573312D01*
X52606501Y-29600000D01*
X52588669Y-29626688D01*
X52545174Y-29731695D01*
X52523000Y-29843170D01*
X52523000Y-29956830D01*
X52545174Y-30068305D01*
X52588669Y-30173312D01*
X52606501Y-30200000D01*
X52588669Y-30226688D01*
X52545174Y-30331695D01*
X52523000Y-30443170D01*
X52523000Y-30556830D01*
X52540755Y-30646088D01*
X52532184Y-30651815D01*
X52451815Y-30732184D01*
X52388669Y-30826688D01*
X52345174Y-30931695D01*
X52323000Y-31043170D01*
X47664653Y-31043170D01*
X47711331Y-30973312D01*
X47754826Y-30868305D01*
X47777000Y-30756830D01*
X47777000Y-30643170D01*
X47754826Y-30531695D01*
X47711331Y-30426688D01*
X47648185Y-30332184D01*
X47616001Y-30300000D01*
X47648185Y-30267816D01*
X47711331Y-30173312D01*
X47754826Y-30068305D01*
X47777000Y-29956830D01*
X47777000Y-29843170D01*
X47754826Y-29731695D01*
X47711331Y-29626688D01*
X47648185Y-29532184D01*
X47616001Y-29500000D01*
X47648185Y-29467816D01*
X47711331Y-29373312D01*
X47754826Y-29268305D01*
X47777000Y-29156830D01*
X47777000Y-29043170D01*
X47754826Y-28931695D01*
X47711331Y-28826688D01*
X47648185Y-28732184D01*
X47567816Y-28651815D01*
X47473312Y-28588669D01*
X47368305Y-28545174D01*
X47256830Y-28523000D01*
X47143170Y-28523000D01*
X47031695Y-28545174D01*
X47027000Y-28547119D01*
X47027000Y-23543170D01*
X47235500Y-23543170D01*
X47235500Y-23656830D01*
X47257674Y-23768305D01*
X47301169Y-23873312D01*
X47364315Y-23967816D01*
X47444684Y-24048185D01*
X47539188Y-24111331D01*
X47644195Y-24154826D01*
X47755670Y-24177000D01*
X47869330Y-24177000D01*
X47980805Y-24154826D01*
X48085812Y-24111331D01*
X48180316Y-24048185D01*
X48260685Y-23967816D01*
X48323831Y-23873312D01*
X48367326Y-23768305D01*
X48389500Y-23656830D01*
X48389500Y-23543170D01*
X48823000Y-23543170D01*
X48823000Y-23656830D01*
X48845174Y-23768305D01*
X48888669Y-23873312D01*
X48951815Y-23967816D01*
X49032184Y-24048185D01*
X49126688Y-24111331D01*
X49231695Y-24154826D01*
X49343170Y-24177000D01*
X49456830Y-24177000D01*
X49568305Y-24154826D01*
X49673312Y-24111331D01*
X49767816Y-24048185D01*
X49848185Y-23967816D01*
X49911331Y-23873312D01*
X49954826Y-23768305D01*
X49977000Y-23656830D01*
X49977000Y-23543170D01*
X49954826Y-23431695D01*
X49911331Y-23326688D01*
X49848185Y-23232184D01*
X49767816Y-23151815D01*
X49673312Y-23088669D01*
X49568305Y-23045174D01*
X49456830Y-23023000D01*
X49343170Y-23023000D01*
X49231695Y-23045174D01*
X49126688Y-23088669D01*
X49032184Y-23151815D01*
X48951815Y-23232184D01*
X48888669Y-23326688D01*
X48845174Y-23431695D01*
X48823000Y-23543170D01*
X48389500Y-23543170D01*
X48367326Y-23431695D01*
X48323831Y-23326688D01*
X48260685Y-23232184D01*
X48180316Y-23151815D01*
X48085812Y-23088669D01*
X47980805Y-23045174D01*
X47869330Y-23023000D01*
X47755670Y-23023000D01*
X47644195Y-23045174D01*
X47539188Y-23088669D01*
X47444684Y-23151815D01*
X47364315Y-23232184D01*
X47301169Y-23326688D01*
X47257674Y-23431695D01*
X47235500Y-23543170D01*
X47027000Y-23543170D01*
X47027000Y-21855670D01*
X47235500Y-21855670D01*
X47235500Y-21969330D01*
X47257674Y-22080805D01*
X47301169Y-22185812D01*
X47364315Y-22280316D01*
X47444684Y-22360685D01*
X47539188Y-22423831D01*
X47644195Y-22467326D01*
X47755670Y-22489500D01*
X47869330Y-22489500D01*
X47980805Y-22467326D01*
X48085812Y-22423831D01*
X48180316Y-22360685D01*
X48260685Y-22280316D01*
X48323831Y-22185812D01*
X48367326Y-22080805D01*
X48389500Y-21969330D01*
X48389500Y-21855670D01*
X48367326Y-21744195D01*
X48323831Y-21639188D01*
X48260685Y-21544684D01*
X48180316Y-21464315D01*
X48085812Y-21401169D01*
X47980805Y-21357674D01*
X47869330Y-21335500D01*
X47755670Y-21335500D01*
X47644195Y-21357674D01*
X47539188Y-21401169D01*
X47444684Y-21464315D01*
X47364315Y-21544684D01*
X47301169Y-21639188D01*
X47257674Y-21744195D01*
X47235500Y-21855670D01*
X47027000Y-21855670D01*
X47027000Y-16630275D01*
X47041483Y-16483228D01*
X47079691Y-16357271D01*
X47141736Y-16241194D01*
X47235475Y-16126973D01*
X47559517Y-15802931D01*
X47588669Y-15873312D01*
X47651815Y-15967816D01*
X47683999Y-16000000D01*
X47651815Y-16032184D01*
X47588669Y-16126688D01*
X47545174Y-16231695D01*
X47523000Y-16343170D01*
X47523000Y-16456830D01*
X47545174Y-16568305D01*
X47588669Y-16673312D01*
X47651815Y-16767816D01*
X47683999Y-16800000D01*
X47651815Y-16832184D01*
X47588669Y-16926688D01*
X47545174Y-17031695D01*
X47523000Y-17143170D01*
X47523000Y-17256830D01*
X47545174Y-17368305D01*
X47588669Y-17473312D01*
X47651815Y-17567816D01*
X47683999Y-17600000D01*
X47651815Y-17632184D01*
X47588669Y-17726688D01*
X47545174Y-17831695D01*
X47523000Y-17943170D01*
X47523000Y-18056830D01*
X47545174Y-18168305D01*
X47588669Y-18273312D01*
X47651815Y-18367816D01*
X47683999Y-18400000D01*
X47651815Y-18432184D01*
X47588669Y-18526688D01*
X47545174Y-18631695D01*
X47523000Y-18743170D01*
X47523000Y-18856830D01*
X47545174Y-18968305D01*
X47588669Y-19073312D01*
X47651815Y-19167816D01*
X47732184Y-19248185D01*
X47826688Y-19311331D01*
X47931695Y-19354826D01*
X48043170Y-19377000D01*
X48156830Y-19377000D01*
X48268305Y-19354826D01*
X48373312Y-19311331D01*
X48467816Y-19248185D01*
X48548185Y-19167816D01*
X48611331Y-19073312D01*
X48654826Y-18968305D01*
X48677000Y-18856830D01*
X48677000Y-18743170D01*
X48654826Y-18631695D01*
X48611331Y-18526688D01*
X48548185Y-18432184D01*
X48516001Y-18400000D01*
X48548185Y-18367816D01*
X48611331Y-18273312D01*
X48654826Y-18168305D01*
X48677000Y-18056830D01*
X48677000Y-17943170D01*
X48654826Y-17831695D01*
X48611331Y-17726688D01*
X48548185Y-17632184D01*
X48516001Y-17600000D01*
X48548185Y-17567816D01*
X48564653Y-17543170D01*
X53223000Y-17543170D01*
X53223000Y-17656830D01*
X53245174Y-17768305D01*
X53288669Y-17873312D01*
X53351815Y-17967816D01*
X53432184Y-18048185D01*
X53526688Y-18111331D01*
X53631695Y-18154826D01*
X53743170Y-18177000D01*
X53856830Y-18177000D01*
X53968305Y-18154826D01*
X54073312Y-18111331D01*
X54100000Y-18093499D01*
X54126688Y-18111331D01*
X54231695Y-18154826D01*
X54343170Y-18177000D01*
X54456830Y-18177000D01*
X54568305Y-18154826D01*
X54673312Y-18111331D01*
X54767816Y-18048185D01*
X54848185Y-17967816D01*
X54911331Y-17873312D01*
X54954826Y-17768305D01*
X54977000Y-17656830D01*
X54977000Y-17543170D01*
X54954826Y-17431695D01*
X54911331Y-17326688D01*
X54848185Y-17232184D01*
X54767816Y-17151815D01*
X54673312Y-17088669D01*
X54577000Y-17048776D01*
X54577000Y-16943170D01*
X54554826Y-16831695D01*
X54511331Y-16726688D01*
X54493499Y-16700000D01*
X54511331Y-16673312D01*
X54554826Y-16568305D01*
X54577000Y-16456830D01*
X54577000Y-16343170D01*
X54554826Y-16231695D01*
X54511331Y-16126688D01*
X54493499Y-16100000D01*
X54511331Y-16073312D01*
X54554826Y-15968305D01*
X54577000Y-15856830D01*
X54577000Y-15743170D01*
X54554826Y-15631695D01*
X54511331Y-15526688D01*
X54493499Y-15500000D01*
X54511331Y-15473312D01*
X54554826Y-15368305D01*
X54577000Y-15256830D01*
X54577000Y-15143170D01*
X54554826Y-15031695D01*
X54511331Y-14926688D01*
X54448185Y-14832184D01*
X54367816Y-14751815D01*
X54273312Y-14688669D01*
X54168305Y-14645174D01*
X54056830Y-14623000D01*
X53943170Y-14623000D01*
X53831695Y-14645174D01*
X53726688Y-14688669D01*
X53632184Y-14751815D01*
X53551815Y-14832184D01*
X53488669Y-14926688D01*
X53445174Y-15031695D01*
X53423000Y-15143170D01*
X53423000Y-15256830D01*
X53445174Y-15368305D01*
X53488669Y-15473312D01*
X53506501Y-15500000D01*
X53488669Y-15526688D01*
X53445174Y-15631695D01*
X53423000Y-15743170D01*
X53423000Y-15856830D01*
X53445174Y-15968305D01*
X53488669Y-16073312D01*
X53506501Y-16100000D01*
X53488669Y-16126688D01*
X53445174Y-16231695D01*
X53423000Y-16343170D01*
X53423000Y-16456830D01*
X53445174Y-16568305D01*
X53488669Y-16673312D01*
X53506501Y-16700000D01*
X53488669Y-16726688D01*
X53445174Y-16831695D01*
X53423000Y-16943170D01*
X53423000Y-17056830D01*
X53440755Y-17146088D01*
X53432184Y-17151815D01*
X53351815Y-17232184D01*
X53288669Y-17326688D01*
X53245174Y-17431695D01*
X53223000Y-17543170D01*
X48564653Y-17543170D01*
X48611331Y-17473312D01*
X48654826Y-17368305D01*
X48677000Y-17256830D01*
X48677000Y-17143170D01*
X48654826Y-17031695D01*
X48611331Y-16926688D01*
X48548185Y-16832184D01*
X48516001Y-16800000D01*
X48548185Y-16767816D01*
X48611331Y-16673312D01*
X48654826Y-16568305D01*
X48677000Y-16456830D01*
X48677000Y-16343170D01*
X48654826Y-16231695D01*
X48611331Y-16126688D01*
X48548185Y-16032184D01*
X48516001Y-16000000D01*
X48548185Y-15967816D01*
X48611331Y-15873312D01*
X48654826Y-15768305D01*
X48677000Y-15656830D01*
X48677000Y-15543170D01*
X48654826Y-15431695D01*
X48611331Y-15326688D01*
X48548185Y-15232184D01*
X48467816Y-15151815D01*
X48373312Y-15088669D01*
X48302931Y-15059517D01*
X51726973Y-11635475D01*
X51841194Y-11541736D01*
X51957271Y-11479691D01*
X52083228Y-11441483D01*
X52230275Y-11427000D01*
X52400000Y-11427000D01*
X52442683Y-11424202D01*
X52597974Y-11403757D01*
X52680428Y-11381664D01*
X52825137Y-11321724D01*
X52899065Y-11279042D01*
X53023329Y-11183691D01*
X53083691Y-11123329D01*
X53179042Y-10999065D01*
X53221724Y-10925137D01*
X53255675Y-10843170D01*
X57723000Y-10843170D01*
X57723000Y-10956830D01*
X57745174Y-11068305D01*
X57788669Y-11173312D01*
X57851815Y-11267816D01*
X57932184Y-11348185D01*
X58026688Y-11411331D01*
X58131695Y-11454826D01*
X58243170Y-11477000D01*
X58356830Y-11477000D01*
X58468305Y-11454826D01*
X58573312Y-11411331D01*
X58667816Y-11348185D01*
X58748185Y-11267816D01*
X58811331Y-11173312D01*
X58854826Y-11068305D01*
X58877000Y-10956830D01*
X58877000Y-10843170D01*
X58854826Y-10731695D01*
X58811331Y-10626688D01*
X58748185Y-10532184D01*
X58667816Y-10451815D01*
X58573312Y-10388669D01*
X58468305Y-10345174D01*
X58356830Y-10323000D01*
X58243170Y-10323000D01*
X58131695Y-10345174D01*
X58026688Y-10388669D01*
X57932184Y-10451815D01*
X57851815Y-10532184D01*
X57788669Y-10626688D01*
X57745174Y-10731695D01*
X57723000Y-10843170D01*
X53255675Y-10843170D01*
X53281664Y-10780428D01*
X53303757Y-10697974D01*
X53324202Y-10542683D01*
X53327000Y-10500000D01*
X53327000Y-10250000D01*
X53324203Y-10207318D01*
X53302055Y-10039086D01*
X53279961Y-9956631D01*
X53215026Y-9799863D01*
X53172342Y-9725934D01*
X53069044Y-9591315D01*
X53008685Y-9530956D01*
X52874066Y-9427658D01*
X52800137Y-9384974D01*
X52740639Y-9360329D01*
X52768305Y-9354826D01*
X52873312Y-9311331D01*
X52967816Y-9248185D01*
X53048185Y-9167816D01*
X53111331Y-9073312D01*
X53123816Y-9043170D01*
X53823000Y-9043170D01*
X53823000Y-9156830D01*
X53845174Y-9268305D01*
X53888669Y-9373312D01*
X53951815Y-9467816D01*
X54032184Y-9548185D01*
X54126688Y-9611331D01*
X54231695Y-9654826D01*
X54343170Y-9677000D01*
X54456830Y-9677000D01*
X54568305Y-9654826D01*
X54673312Y-9611331D01*
X54767816Y-9548185D01*
X54848185Y-9467816D01*
X54911331Y-9373312D01*
X54954826Y-9268305D01*
X54977000Y-9156830D01*
X54977000Y-9043170D01*
X54954826Y-8931695D01*
X54911331Y-8826688D01*
X54848185Y-8732184D01*
X54767816Y-8651815D01*
X54673312Y-8588669D01*
X54568305Y-8545174D01*
X54456830Y-8523000D01*
X54343170Y-8523000D01*
X54231695Y-8545174D01*
X54126688Y-8588669D01*
X54032184Y-8651815D01*
X53951815Y-8732184D01*
X53888669Y-8826688D01*
X53845174Y-8931695D01*
X53823000Y-9043170D01*
X53123816Y-9043170D01*
X53154826Y-8968305D01*
X53177000Y-8856830D01*
X53177000Y-8743170D01*
X53154826Y-8631695D01*
X53111331Y-8526688D01*
X53048185Y-8432184D01*
X53016001Y-8400000D01*
X53048185Y-8367816D01*
X53111331Y-8273312D01*
X53154826Y-8168305D01*
X53177000Y-8056830D01*
X53177000Y-7943170D01*
X53154826Y-7831695D01*
X53111331Y-7726688D01*
X53048185Y-7632184D01*
X53016001Y-7600000D01*
X53048185Y-7567816D01*
X53064653Y-7543170D01*
X57523000Y-7543170D01*
X57523000Y-7656830D01*
X57545174Y-7768305D01*
X57588669Y-7873312D01*
X57651815Y-7967816D01*
X57732184Y-8048185D01*
X57826688Y-8111331D01*
X57931695Y-8154826D01*
X58043170Y-8177000D01*
X58156830Y-8177000D01*
X58268305Y-8154826D01*
X58373312Y-8111331D01*
X58400000Y-8093499D01*
X58426688Y-8111331D01*
X58531695Y-8154826D01*
X58643170Y-8177000D01*
X58756830Y-8177000D01*
X58868305Y-8154826D01*
X58973312Y-8111331D01*
X59067816Y-8048185D01*
X59148185Y-7967816D01*
X59211331Y-7873312D01*
X59254826Y-7768305D01*
X59277000Y-7656830D01*
X59277000Y-7543170D01*
X59276146Y-7538873D01*
X90254524Y-7538873D01*
X90305254Y-7976197D01*
X90440326Y-8395221D01*
X90611357Y-8715198D01*
X90937155Y-8883239D01*
X92320395Y-7500000D01*
X92679605Y-7500000D01*
X94062845Y-8883239D01*
X94388643Y-8715198D01*
X94589426Y-8323393D01*
X94709914Y-7899945D01*
X94745476Y-7461127D01*
X94694746Y-7023803D01*
X94559674Y-6604779D01*
X94388643Y-6284802D01*
X94062845Y-6116761D01*
X92679605Y-7500000D01*
X92320395Y-7500000D01*
X90937155Y-6116761D01*
X90611357Y-6284802D01*
X90410574Y-6676607D01*
X90290086Y-7100055D01*
X90254524Y-7538873D01*
X59276146Y-7538873D01*
X59254826Y-7431695D01*
X59211331Y-7326688D01*
X59148185Y-7232184D01*
X59067816Y-7151815D01*
X58973312Y-7088669D01*
X58877000Y-7048776D01*
X58877000Y-6943170D01*
X58854826Y-6831695D01*
X58811331Y-6726688D01*
X58793499Y-6700000D01*
X58811331Y-6673312D01*
X58854826Y-6568305D01*
X58877000Y-6456830D01*
X58877000Y-6343170D01*
X58854826Y-6231695D01*
X58811331Y-6126688D01*
X58793499Y-6100000D01*
X58811331Y-6073312D01*
X58854826Y-5968305D01*
X58877000Y-5856830D01*
X58877000Y-5743170D01*
X58854826Y-5631695D01*
X58811331Y-5526688D01*
X58793499Y-5500000D01*
X58811331Y-5473312D01*
X58854826Y-5368305D01*
X58859825Y-5343170D01*
X62423000Y-5343170D01*
X62423000Y-5456830D01*
X62445174Y-5568305D01*
X62488669Y-5673312D01*
X62551815Y-5767816D01*
X62632184Y-5848185D01*
X62726688Y-5911331D01*
X62831695Y-5954826D01*
X62943170Y-5977000D01*
X63056830Y-5977000D01*
X63168305Y-5954826D01*
X63210966Y-5937155D01*
X91116761Y-5937155D01*
X92500000Y-7320395D01*
X93883239Y-5937155D01*
X93715198Y-5611357D01*
X93323393Y-5410574D01*
X92899945Y-5290086D01*
X92461127Y-5254524D01*
X92023803Y-5305254D01*
X91604779Y-5440326D01*
X91284802Y-5611357D01*
X91116761Y-5937155D01*
X63210966Y-5937155D01*
X63273312Y-5911331D01*
X63367816Y-5848185D01*
X63448185Y-5767816D01*
X63511331Y-5673312D01*
X63554826Y-5568305D01*
X63577000Y-5456830D01*
X63577000Y-5343170D01*
X63554826Y-5231695D01*
X63511331Y-5126688D01*
X63448185Y-5032184D01*
X63367816Y-4951815D01*
X63273312Y-4888669D01*
X63168305Y-4845174D01*
X63056830Y-4823000D01*
X62943170Y-4823000D01*
X62831695Y-4845174D01*
X62726688Y-4888669D01*
X62632184Y-4951815D01*
X62551815Y-5032184D01*
X62488669Y-5126688D01*
X62445174Y-5231695D01*
X62423000Y-5343170D01*
X58859825Y-5343170D01*
X58877000Y-5256830D01*
X58877000Y-5143170D01*
X58854826Y-5031695D01*
X58811331Y-4926688D01*
X58748185Y-4832184D01*
X58667816Y-4751815D01*
X58573312Y-4688669D01*
X58468305Y-4645174D01*
X58356830Y-4623000D01*
X58243170Y-4623000D01*
X58131695Y-4645174D01*
X58026688Y-4688669D01*
X57932184Y-4751815D01*
X57851815Y-4832184D01*
X57788669Y-4926688D01*
X57745174Y-5031695D01*
X57723000Y-5143170D01*
X57723000Y-5256830D01*
X57745174Y-5368305D01*
X57788669Y-5473312D01*
X57806501Y-5500000D01*
X57788669Y-5526688D01*
X57745174Y-5631695D01*
X57723000Y-5743170D01*
X57723000Y-5856830D01*
X57745174Y-5968305D01*
X57788669Y-6073312D01*
X57806501Y-6100000D01*
X57788669Y-6126688D01*
X57745174Y-6231695D01*
X57723000Y-6343170D01*
X57723000Y-6456830D01*
X57745174Y-6568305D01*
X57788669Y-6673312D01*
X57806501Y-6700000D01*
X57788669Y-6726688D01*
X57745174Y-6831695D01*
X57723000Y-6943170D01*
X57723000Y-7056830D01*
X57740755Y-7146088D01*
X57732184Y-7151815D01*
X57651815Y-7232184D01*
X57588669Y-7326688D01*
X57545174Y-7431695D01*
X57523000Y-7543170D01*
X53064653Y-7543170D01*
X53111331Y-7473312D01*
X53154826Y-7368305D01*
X53177000Y-7256830D01*
X53177000Y-7143170D01*
X53154826Y-7031695D01*
X53111331Y-6926688D01*
X53048185Y-6832184D01*
X53016001Y-6800000D01*
X53048185Y-6767816D01*
X53111331Y-6673312D01*
X53154826Y-6568305D01*
X53177000Y-6456830D01*
X53177000Y-6343170D01*
X53154826Y-6231695D01*
X53111331Y-6126688D01*
X53048185Y-6032184D01*
X53016001Y-6000000D01*
X53048185Y-5967816D01*
X53111331Y-5873312D01*
X53154826Y-5768305D01*
X53177000Y-5656830D01*
X53177000Y-5543170D01*
X53154826Y-5431695D01*
X53111331Y-5326688D01*
X53048185Y-5232184D01*
X52967816Y-5151815D01*
X52873312Y-5088669D01*
X52768305Y-5045174D01*
X52656830Y-5023000D01*
X52543170Y-5023000D01*
X52431695Y-5045174D01*
X52326688Y-5088669D01*
X52232184Y-5151815D01*
X52151815Y-5232184D01*
X52088669Y-5326688D01*
X52045174Y-5431695D01*
X52023000Y-5543170D01*
X52023000Y-5656830D01*
X52045174Y-5768305D01*
X52088669Y-5873312D01*
X52151815Y-5967816D01*
X52183999Y-6000000D01*
X52151815Y-6032184D01*
X52088669Y-6126688D01*
X52045174Y-6231695D01*
X52023000Y-6343170D01*
X52023000Y-6456830D01*
X52045174Y-6568305D01*
X52088669Y-6673312D01*
X52151815Y-6767816D01*
X52183999Y-6800000D01*
X52151815Y-6832184D01*
X52088669Y-6926688D01*
X52045174Y-7031695D01*
X52023000Y-7143170D01*
X52023000Y-7256830D01*
X52045174Y-7368305D01*
X52088669Y-7473312D01*
X52151815Y-7567816D01*
X52183999Y-7600000D01*
X52151815Y-7632184D01*
X52088669Y-7726688D01*
X52045174Y-7831695D01*
X52023000Y-7943170D01*
X52023000Y-8056830D01*
X52045174Y-8168305D01*
X52088669Y-8273312D01*
X52151815Y-8367816D01*
X52183999Y-8400000D01*
X52151815Y-8432184D01*
X52088669Y-8526688D01*
X52045174Y-8631695D01*
X52023000Y-8743170D01*
X52023000Y-8856830D01*
X52045174Y-8968305D01*
X52088669Y-9073312D01*
X52151815Y-9167816D01*
X52232184Y-9248185D01*
X52269322Y-9273000D01*
X52114214Y-9273000D01*
X52082162Y-9274575D01*
X51887071Y-9293790D01*
X51824201Y-9306295D01*
X51636608Y-9363200D01*
X51577383Y-9387732D01*
X51404496Y-9480142D01*
X51351196Y-9515756D01*
X51199660Y-9640119D01*
X51175883Y-9661669D01*
X45563948Y-15273604D01*
X45542255Y-15297555D01*
X45417130Y-15450234D01*
X45381342Y-15503954D01*
X45288646Y-15678238D01*
X45264107Y-15737944D01*
X45207454Y-15927041D01*
X45195122Y-15990401D01*
X45176718Y-16186943D01*
X45175299Y-16219227D01*
X20927661Y-16219227D01*
X20926998Y-16099298D01*
X20924421Y-16074536D01*
X20917062Y-16050752D01*
X20905205Y-16028860D01*
X20889305Y-16009703D01*
X20869973Y-15994015D01*
X20847952Y-15982401D01*
X20824088Y-15975305D01*
X20800000Y-15973000D01*
X352000Y-15973000D01*
X352000Y-9062845D01*
X6116761Y-9062845D01*
X6284802Y-9388643D01*
X6676607Y-9589426D01*
X7100055Y-9709914D01*
X7538873Y-9745476D01*
X7976197Y-9694746D01*
X8395221Y-9559674D01*
X8715198Y-9388643D01*
X8883239Y-9062845D01*
X7500000Y-7679605D01*
X6116761Y-9062845D01*
X352000Y-9062845D01*
X352000Y-7538873D01*
X5254524Y-7538873D01*
X5305254Y-7976197D01*
X5440326Y-8395221D01*
X5611357Y-8715198D01*
X5937155Y-8883239D01*
X7320395Y-7500000D01*
X7679605Y-7500000D01*
X9062845Y-8883239D01*
X9388643Y-8715198D01*
X9589426Y-8323393D01*
X9709914Y-7899945D01*
X9745476Y-7461127D01*
X9694746Y-7023803D01*
X9559674Y-6604779D01*
X9388643Y-6284802D01*
X9062845Y-6116761D01*
X7679605Y-7500000D01*
X7320395Y-7500000D01*
X5937155Y-6116761D01*
X5611357Y-6284802D01*
X5410574Y-6676607D01*
X5290086Y-7100055D01*
X5254524Y-7538873D01*
X352000Y-7538873D01*
X352000Y-5937155D01*
X6116761Y-5937155D01*
X7500000Y-7320395D01*
X8883239Y-5937155D01*
X8715198Y-5611357D01*
X8323393Y-5410574D01*
X7899945Y-5290086D01*
X7461127Y-5254524D01*
X7023803Y-5305254D01*
X6604779Y-5440326D01*
X6284802Y-5611357D01*
X6116761Y-5937155D01*
X352000Y-5937155D01*
X352000Y-352000D01*
X99648000Y-352000D01*
X99648001Y-49648000D01*
%TA.AperFunction,Conductor*%
D12*
G36*
X99648001Y-49648000D02*
G01*
X352000Y-49648000D01*
X352000Y-44062845D01*
X6116761Y-44062845D01*
X6284802Y-44388643D01*
X6676607Y-44589426D01*
X7100055Y-44709914D01*
X7538873Y-44745476D01*
X7976197Y-44694746D01*
X8395221Y-44559674D01*
X8715198Y-44388643D01*
X8883239Y-44062845D01*
X7500000Y-42679605D01*
X6116761Y-44062845D01*
X352000Y-44062845D01*
X352000Y-42538873D01*
X5254524Y-42538873D01*
X5305254Y-42976197D01*
X5440326Y-43395221D01*
X5611357Y-43715198D01*
X5937155Y-43883239D01*
X7320395Y-42500000D01*
X7679605Y-42500000D01*
X9062845Y-43883239D01*
X9388643Y-43715198D01*
X9589426Y-43323393D01*
X9709914Y-42899945D01*
X9745476Y-42461127D01*
X9694746Y-42023803D01*
X9559674Y-41604779D01*
X9388643Y-41284802D01*
X9062845Y-41116761D01*
X7679605Y-42500000D01*
X7320395Y-42500000D01*
X5937155Y-41116761D01*
X5611357Y-41284802D01*
X5410574Y-41676607D01*
X5290086Y-42100055D01*
X5254524Y-42538873D01*
X352000Y-42538873D01*
X352000Y-40937155D01*
X6116761Y-40937155D01*
X7500000Y-42320395D01*
X8883239Y-40937155D01*
X8715198Y-40611357D01*
X8323393Y-40410574D01*
X7899945Y-40290086D01*
X7461127Y-40254524D01*
X7023803Y-40305254D01*
X6604779Y-40440326D01*
X6284802Y-40611357D01*
X6116761Y-40937155D01*
X352000Y-40937155D01*
X352000Y-32127000D01*
X11984537Y-32127000D01*
X20869524Y-34323289D01*
X20894162Y-34326866D01*
X20919025Y-34325567D01*
X20943156Y-34319443D01*
X20965629Y-34308728D01*
X20985580Y-34293836D01*
X21002242Y-34275337D01*
X21014975Y-34253943D01*
X21023289Y-34230476D01*
X21026998Y-34199298D01*
X20983042Y-26243170D01*
X21323000Y-26243170D01*
X21323000Y-26356830D01*
X21345174Y-26468305D01*
X21388669Y-26573312D01*
X21451815Y-26667816D01*
X21532184Y-26748185D01*
X21626688Y-26811331D01*
X21731695Y-26854826D01*
X21843170Y-26877000D01*
X21956830Y-26877000D01*
X22068305Y-26854826D01*
X22173312Y-26811331D01*
X22250000Y-26760089D01*
X22326688Y-26811331D01*
X22431695Y-26854826D01*
X22543170Y-26877000D01*
X22656830Y-26877000D01*
X22768305Y-26854826D01*
X22873312Y-26811331D01*
X22950000Y-26760089D01*
X23026688Y-26811331D01*
X23131695Y-26854826D01*
X23243170Y-26877000D01*
X23356830Y-26877000D01*
X23468305Y-26854826D01*
X23573312Y-26811331D01*
X23667816Y-26748185D01*
X23748185Y-26667816D01*
X23811331Y-26573312D01*
X23854826Y-26468305D01*
X23877000Y-26356830D01*
X23877000Y-26351224D01*
X23973312Y-26311331D01*
X24067816Y-26248185D01*
X24148185Y-26167816D01*
X24211331Y-26073312D01*
X24254826Y-25968305D01*
X24277000Y-25856830D01*
X24277000Y-25743170D01*
X24254826Y-25631695D01*
X24211331Y-25526688D01*
X24148185Y-25432184D01*
X24067816Y-25351815D01*
X23973312Y-25288669D01*
X23868305Y-25245174D01*
X23756830Y-25223000D01*
X23643170Y-25223000D01*
X23531695Y-25245174D01*
X23426688Y-25288669D01*
X23332184Y-25351815D01*
X23251815Y-25432184D01*
X23188669Y-25526688D01*
X23145174Y-25631695D01*
X23123000Y-25743170D01*
X23123000Y-25748776D01*
X23026688Y-25788669D01*
X22950000Y-25839911D01*
X22873312Y-25788669D01*
X22768305Y-25745174D01*
X22656830Y-25723000D01*
X22543170Y-25723000D01*
X22431695Y-25745174D01*
X22326688Y-25788669D01*
X22250000Y-25839911D01*
X22173312Y-25788669D01*
X22068305Y-25745174D01*
X21956830Y-25723000D01*
X21843170Y-25723000D01*
X21731695Y-25745174D01*
X21626688Y-25788669D01*
X21532184Y-25851815D01*
X21451815Y-25932184D01*
X21388669Y-26026688D01*
X21345174Y-26131695D01*
X21323000Y-26243170D01*
X20983042Y-26243170D01*
X20968678Y-23643170D01*
X21323000Y-23643170D01*
X21323000Y-23756830D01*
X21345174Y-23868305D01*
X21388669Y-23973312D01*
X21451815Y-24067816D01*
X21532184Y-24148185D01*
X21626688Y-24211331D01*
X21731695Y-24254826D01*
X21843170Y-24277000D01*
X21956830Y-24277000D01*
X22068305Y-24254826D01*
X22173312Y-24211331D01*
X22250000Y-24160089D01*
X22326688Y-24211331D01*
X22431695Y-24254826D01*
X22543170Y-24277000D01*
X22656830Y-24277000D01*
X22768305Y-24254826D01*
X22873312Y-24211331D01*
X22950000Y-24160089D01*
X23026688Y-24211331D01*
X23123000Y-24251224D01*
X23123000Y-24256830D01*
X23145174Y-24368305D01*
X23188669Y-24473312D01*
X23251815Y-24567816D01*
X23332184Y-24648185D01*
X23426688Y-24711331D01*
X23531695Y-24754826D01*
X23643170Y-24777000D01*
X23756830Y-24777000D01*
X23868305Y-24754826D01*
X23973312Y-24711331D01*
X24067816Y-24648185D01*
X24148185Y-24567816D01*
X24211331Y-24473312D01*
X24254826Y-24368305D01*
X24277000Y-24256830D01*
X24277000Y-24143170D01*
X24254826Y-24031695D01*
X24211331Y-23926688D01*
X24148185Y-23832184D01*
X24067816Y-23751815D01*
X23973312Y-23688669D01*
X23877000Y-23648776D01*
X23877000Y-23643170D01*
X23854826Y-23531695D01*
X23811331Y-23426688D01*
X23748185Y-23332184D01*
X23667816Y-23251815D01*
X23573312Y-23188669D01*
X23468305Y-23145174D01*
X23356830Y-23123000D01*
X23243170Y-23123000D01*
X23131695Y-23145174D01*
X23026688Y-23188669D01*
X22950000Y-23239911D01*
X22873312Y-23188669D01*
X22768305Y-23145174D01*
X22656830Y-23123000D01*
X22543170Y-23123000D01*
X22431695Y-23145174D01*
X22326688Y-23188669D01*
X22250000Y-23239911D01*
X22173312Y-23188669D01*
X22068305Y-23145174D01*
X21956830Y-23123000D01*
X21843170Y-23123000D01*
X21731695Y-23145174D01*
X21626688Y-23188669D01*
X21532184Y-23251815D01*
X21451815Y-23332184D01*
X21388669Y-23426688D01*
X21345174Y-23531695D01*
X21323000Y-23643170D01*
X20968678Y-23643170D01*
X20927661Y-16219227D01*
X45175299Y-16219227D01*
X45270747Y-33590805D01*
X45272474Y-33622624D01*
X45292486Y-33816259D01*
X45305162Y-33878640D01*
X45362310Y-34064730D01*
X45386832Y-34123473D01*
X45478951Y-34294965D01*
X45514389Y-34347845D01*
X45637988Y-34498240D01*
X45659396Y-34521844D01*
X45664525Y-34526973D01*
X45758264Y-34641194D01*
X45820309Y-34757271D01*
X45858517Y-34883228D01*
X45873000Y-35030275D01*
X45873000Y-42385786D01*
X45874575Y-42417838D01*
X45893790Y-42612929D01*
X45906295Y-42675799D01*
X45963200Y-42863392D01*
X45987732Y-42922617D01*
X46080142Y-43095504D01*
X46115756Y-43148804D01*
X46240119Y-43300340D01*
X46261669Y-43324117D01*
X48075883Y-45138331D01*
X48099660Y-45159881D01*
X48251196Y-45284244D01*
X48304496Y-45319858D01*
X48477383Y-45412268D01*
X48536608Y-45436800D01*
X48724201Y-45493705D01*
X48787071Y-45506210D01*
X48982162Y-45525425D01*
X49014214Y-45527000D01*
X49600000Y-45527000D01*
X49642683Y-45524202D01*
X49797974Y-45503757D01*
X49880428Y-45481664D01*
X50025137Y-45421724D01*
X50099065Y-45379042D01*
X50223329Y-45283691D01*
X50283691Y-45223329D01*
X50379042Y-45099065D01*
X50421724Y-45025137D01*
X50455675Y-44943170D01*
X54823006Y-44943170D01*
X54823006Y-45056830D01*
X54845180Y-45168305D01*
X54888675Y-45273312D01*
X54951821Y-45367816D01*
X55032190Y-45448185D01*
X55126694Y-45511331D01*
X55231701Y-45554826D01*
X55343176Y-45577000D01*
X55456836Y-45577000D01*
X55568311Y-45554826D01*
X55673318Y-45511331D01*
X55767822Y-45448185D01*
X55848191Y-45367816D01*
X55911337Y-45273312D01*
X55954832Y-45168305D01*
X55977006Y-45056830D01*
X55977006Y-44943170D01*
X55954832Y-44831695D01*
X55911337Y-44726688D01*
X55848191Y-44632184D01*
X55767822Y-44551815D01*
X55673318Y-44488669D01*
X55568311Y-44445174D01*
X55456836Y-44423000D01*
X55343176Y-44423000D01*
X55231701Y-44445174D01*
X55126694Y-44488669D01*
X55032190Y-44551815D01*
X54951821Y-44632184D01*
X54888675Y-44726688D01*
X54845180Y-44831695D01*
X54823006Y-44943170D01*
X50455675Y-44943170D01*
X50481664Y-44880428D01*
X50503757Y-44797974D01*
X50524202Y-44642683D01*
X50527000Y-44600000D01*
X50527000Y-44414214D01*
X50525425Y-44382162D01*
X50506210Y-44187071D01*
X50493705Y-44124201D01*
X50436800Y-43936608D01*
X50412268Y-43877383D01*
X50319858Y-43704496D01*
X50284244Y-43651196D01*
X50159881Y-43499660D01*
X50138331Y-43475883D01*
X50033537Y-43371089D01*
X50067816Y-43348185D01*
X50148185Y-43267816D01*
X50211331Y-43173312D01*
X50223816Y-43143170D01*
X50923000Y-43143170D01*
X50923000Y-43256830D01*
X50945174Y-43368305D01*
X50988669Y-43473312D01*
X51051815Y-43567816D01*
X51132184Y-43648185D01*
X51226688Y-43711331D01*
X51331695Y-43754826D01*
X51443170Y-43777000D01*
X51556830Y-43777000D01*
X51668305Y-43754826D01*
X51773312Y-43711331D01*
X51867816Y-43648185D01*
X51948185Y-43567816D01*
X52011331Y-43473312D01*
X52054826Y-43368305D01*
X52077000Y-43256830D01*
X52077000Y-43143170D01*
X52054826Y-43031695D01*
X52011331Y-42926688D01*
X51948185Y-42832184D01*
X51867816Y-42751815D01*
X51773312Y-42688669D01*
X51668305Y-42645174D01*
X51556830Y-42623000D01*
X51443170Y-42623000D01*
X51331695Y-42645174D01*
X51226688Y-42688669D01*
X51132184Y-42751815D01*
X51051815Y-42832184D01*
X50988669Y-42926688D01*
X50945174Y-43031695D01*
X50923000Y-43143170D01*
X50223816Y-43143170D01*
X50254826Y-43068305D01*
X50277000Y-42956830D01*
X50277000Y-42843170D01*
X50254826Y-42731695D01*
X50211331Y-42626688D01*
X50148185Y-42532184D01*
X50116001Y-42500000D01*
X50148185Y-42467816D01*
X50211331Y-42373312D01*
X50254826Y-42268305D01*
X50277000Y-42156830D01*
X50277000Y-42043170D01*
X50254826Y-41931695D01*
X50211331Y-41826688D01*
X50148185Y-41732184D01*
X50116001Y-41700000D01*
X50148185Y-41667816D01*
X50211331Y-41573312D01*
X50254826Y-41468305D01*
X50277000Y-41356830D01*
X50277000Y-41243170D01*
X50254826Y-41131695D01*
X50211331Y-41026688D01*
X50148185Y-40932184D01*
X50116001Y-40900000D01*
X50148185Y-40867816D01*
X50211331Y-40773312D01*
X50254826Y-40668305D01*
X50277000Y-40556830D01*
X50277000Y-40443170D01*
X50254826Y-40331695D01*
X50211331Y-40226688D01*
X50148185Y-40132184D01*
X50116001Y-40100000D01*
X50148185Y-40067816D01*
X50211331Y-39973312D01*
X50254826Y-39868305D01*
X50277000Y-39756830D01*
X50277000Y-39643170D01*
X50254826Y-39531695D01*
X50211331Y-39426688D01*
X50148185Y-39332184D01*
X50067816Y-39251815D01*
X49973312Y-39188669D01*
X49868305Y-39145174D01*
X49756830Y-39123000D01*
X49643170Y-39123000D01*
X49531695Y-39145174D01*
X49426688Y-39188669D01*
X49332184Y-39251815D01*
X49251815Y-39332184D01*
X49188669Y-39426688D01*
X49145174Y-39531695D01*
X49123000Y-39643170D01*
X49123000Y-39756830D01*
X49145174Y-39868305D01*
X49188669Y-39973312D01*
X49251815Y-40067816D01*
X49283999Y-40100000D01*
X49251815Y-40132184D01*
X49188669Y-40226688D01*
X49145174Y-40331695D01*
X49123000Y-40443170D01*
X49123000Y-40556830D01*
X49145174Y-40668305D01*
X49188669Y-40773312D01*
X49251815Y-40867816D01*
X49283999Y-40900000D01*
X49251815Y-40932184D01*
X49188669Y-41026688D01*
X49145174Y-41131695D01*
X49123000Y-41243170D01*
X49123000Y-41356830D01*
X49145174Y-41468305D01*
X49188669Y-41573312D01*
X49251815Y-41667816D01*
X49283999Y-41700000D01*
X49251815Y-41732184D01*
X49188669Y-41826688D01*
X49145174Y-41931695D01*
X49123000Y-42043170D01*
X49123000Y-42156830D01*
X49145174Y-42268305D01*
X49188669Y-42373312D01*
X49251815Y-42467816D01*
X49283999Y-42500000D01*
X49251815Y-42532184D01*
X49228911Y-42566463D01*
X48235475Y-41573027D01*
X48141736Y-41458806D01*
X48079691Y-41342729D01*
X48041483Y-41216772D01*
X48027000Y-41069725D01*
X48027000Y-34114214D01*
X48025425Y-34082162D01*
X48006210Y-33887071D01*
X47993705Y-33824201D01*
X47936800Y-33636608D01*
X47912268Y-33577383D01*
X47819858Y-33404496D01*
X47784244Y-33351196D01*
X47659881Y-33199660D01*
X47638331Y-33175883D01*
X47325741Y-32863293D01*
X47368305Y-32854826D01*
X47473312Y-32811331D01*
X47567816Y-32748185D01*
X47648185Y-32667816D01*
X47664653Y-32643170D01*
X48523000Y-32643170D01*
X48523000Y-32756830D01*
X48545174Y-32868305D01*
X48588669Y-32973312D01*
X48651815Y-33067816D01*
X48732184Y-33148185D01*
X48826688Y-33211331D01*
X48931695Y-33254826D01*
X49043170Y-33277000D01*
X49156830Y-33277000D01*
X49268305Y-33254826D01*
X49373312Y-33211331D01*
X49467816Y-33148185D01*
X49548185Y-33067816D01*
X49611331Y-32973312D01*
X49654826Y-32868305D01*
X49677000Y-32756830D01*
X49677000Y-32643170D01*
X49654826Y-32531695D01*
X49611331Y-32426688D01*
X49548185Y-32332184D01*
X49467816Y-32251815D01*
X49373312Y-32188669D01*
X49268305Y-32145174D01*
X49156830Y-32123000D01*
X49043170Y-32123000D01*
X48931695Y-32145174D01*
X48826688Y-32188669D01*
X48732184Y-32251815D01*
X48651815Y-32332184D01*
X48588669Y-32426688D01*
X48545174Y-32531695D01*
X48523000Y-32643170D01*
X47664653Y-32643170D01*
X47711331Y-32573312D01*
X47754826Y-32468305D01*
X47777000Y-32356830D01*
X47777000Y-32243170D01*
X47754826Y-32131695D01*
X47711331Y-32026688D01*
X47648185Y-31932184D01*
X47616001Y-31900000D01*
X47648185Y-31867816D01*
X47711331Y-31773312D01*
X47754826Y-31668305D01*
X47777000Y-31556830D01*
X47777000Y-31443170D01*
X47754826Y-31331695D01*
X47711331Y-31226688D01*
X47648185Y-31132184D01*
X47616001Y-31100000D01*
X47648185Y-31067816D01*
X47664653Y-31043170D01*
X52323000Y-31043170D01*
X52323000Y-31156830D01*
X52345174Y-31268305D01*
X52388669Y-31373312D01*
X52451815Y-31467816D01*
X52532184Y-31548185D01*
X52626688Y-31611331D01*
X52731695Y-31654826D01*
X52843170Y-31677000D01*
X52956830Y-31677000D01*
X53068305Y-31654826D01*
X53173312Y-31611331D01*
X53200000Y-31593499D01*
X53226688Y-31611331D01*
X53312214Y-31646757D01*
X53351429Y-33940865D01*
X53273312Y-33888669D01*
X53168305Y-33845174D01*
X53056830Y-33823000D01*
X52943170Y-33823000D01*
X52831695Y-33845174D01*
X52726688Y-33888669D01*
X52632184Y-33951815D01*
X52551815Y-34032184D01*
X52488669Y-34126688D01*
X52445174Y-34231695D01*
X52423000Y-34343170D01*
X52423000Y-34456830D01*
X52445174Y-34568305D01*
X52488669Y-34673312D01*
X52551815Y-34767816D01*
X52632184Y-34848185D01*
X52726688Y-34911331D01*
X52831695Y-34954826D01*
X52943170Y-34977000D01*
X53056830Y-34977000D01*
X53168305Y-34954826D01*
X53273312Y-34911331D01*
X53366949Y-34848765D01*
X53368140Y-34918465D01*
X53370079Y-34948874D01*
X53390572Y-35133900D01*
X53402876Y-35193516D01*
X53457308Y-35371538D01*
X53480448Y-35427841D01*
X53566933Y-35592690D01*
X53582331Y-35618984D01*
X55534942Y-38623000D01*
X55443170Y-38623000D01*
X55331695Y-38645174D01*
X55226688Y-38688669D01*
X55132184Y-38751815D01*
X55051815Y-38832184D01*
X54988669Y-38926688D01*
X54945174Y-39031695D01*
X54923000Y-39143170D01*
X54923000Y-39256830D01*
X54945174Y-39368305D01*
X54988669Y-39473312D01*
X55006501Y-39500000D01*
X54988669Y-39526688D01*
X54945174Y-39631695D01*
X54923000Y-39743170D01*
X54923000Y-39856830D01*
X54945174Y-39968305D01*
X54988669Y-40073312D01*
X55006501Y-40100000D01*
X54988669Y-40126688D01*
X54945174Y-40231695D01*
X54923000Y-40343170D01*
X54923000Y-40456830D01*
X54945174Y-40568305D01*
X54988669Y-40673312D01*
X55006501Y-40700000D01*
X54988669Y-40726688D01*
X54945174Y-40831695D01*
X54923000Y-40943170D01*
X54923000Y-41056830D01*
X54940755Y-41146088D01*
X54932184Y-41151815D01*
X54851815Y-41232184D01*
X54788669Y-41326688D01*
X54745174Y-41431695D01*
X54723000Y-41543170D01*
X54723000Y-41656830D01*
X54745174Y-41768305D01*
X54788669Y-41873312D01*
X54851815Y-41967816D01*
X54932184Y-42048185D01*
X55026688Y-42111331D01*
X55131695Y-42154826D01*
X55243170Y-42177000D01*
X55356830Y-42177000D01*
X55468305Y-42154826D01*
X55573312Y-42111331D01*
X55600000Y-42093499D01*
X55626688Y-42111331D01*
X55731695Y-42154826D01*
X55843170Y-42177000D01*
X55956830Y-42177000D01*
X55973000Y-42173784D01*
X55973000Y-43564517D01*
X55945174Y-43631695D01*
X55923000Y-43743170D01*
X55923000Y-43856830D01*
X55945174Y-43968305D01*
X55973000Y-44035483D01*
X55973000Y-44100000D01*
X55975056Y-44136611D01*
X55992606Y-44292376D01*
X56008901Y-44363767D01*
X56060673Y-44511721D01*
X56092443Y-44577693D01*
X56175839Y-44710417D01*
X56221494Y-44767667D01*
X56332333Y-44878506D01*
X56389583Y-44924161D01*
X56522307Y-45007557D01*
X56588279Y-45039327D01*
X56736233Y-45091099D01*
X56807624Y-45107394D01*
X56963389Y-45124944D01*
X57037005Y-45124899D01*
X57191776Y-45107271D01*
X57263893Y-45090627D01*
X57410735Y-45038645D01*
X57477259Y-45006211D01*
X57608651Y-44922539D01*
X57666180Y-44875974D01*
X57775390Y-44764897D01*
X57820973Y-44706589D01*
X57902407Y-44573798D01*
X57933710Y-44506731D01*
X57983195Y-44359029D01*
X57998614Y-44286643D01*
X58013617Y-44131596D01*
X58015090Y-44094559D01*
X58014553Y-44062845D01*
X91116761Y-44062845D01*
X91284802Y-44388643D01*
X91676607Y-44589426D01*
X92100055Y-44709914D01*
X92538873Y-44745476D01*
X92976197Y-44694746D01*
X93395221Y-44559674D01*
X93715198Y-44388643D01*
X93883239Y-44062845D01*
X92500000Y-42679605D01*
X91116761Y-44062845D01*
X58014553Y-44062845D01*
X57988723Y-42538873D01*
X90254524Y-42538873D01*
X90305254Y-42976197D01*
X90440326Y-43395221D01*
X90611357Y-43715198D01*
X90937155Y-43883239D01*
X92320395Y-42500000D01*
X92679605Y-42500000D01*
X94062845Y-43883239D01*
X94388643Y-43715198D01*
X94589426Y-43323393D01*
X94709914Y-42899945D01*
X94745476Y-42461127D01*
X94694746Y-42023803D01*
X94559674Y-41604779D01*
X94388643Y-41284802D01*
X94062845Y-41116761D01*
X92679605Y-42500000D01*
X92320395Y-42500000D01*
X90937155Y-41116761D01*
X90611357Y-41284802D01*
X90410574Y-41676607D01*
X90290086Y-42100055D01*
X90254524Y-42538873D01*
X57988723Y-42538873D01*
X57961576Y-40937155D01*
X91116761Y-40937155D01*
X92500000Y-42320395D01*
X93883239Y-40937155D01*
X93715198Y-40611357D01*
X93323393Y-40410574D01*
X92899945Y-40290086D01*
X92461127Y-40254524D01*
X92023803Y-40305254D01*
X91604779Y-40440326D01*
X91284802Y-40611357D01*
X91116761Y-40937155D01*
X57961576Y-40937155D01*
X57936254Y-39443170D01*
X59523000Y-39443170D01*
X59523000Y-39556830D01*
X59545174Y-39668305D01*
X59588669Y-39773312D01*
X59651815Y-39867816D01*
X59732184Y-39948185D01*
X59826688Y-40011331D01*
X59931695Y-40054826D01*
X60043170Y-40077000D01*
X60156830Y-40077000D01*
X60268305Y-40054826D01*
X60373312Y-40011331D01*
X60467816Y-39948185D01*
X60548185Y-39867816D01*
X60611331Y-39773312D01*
X60654826Y-39668305D01*
X60677000Y-39556830D01*
X60677000Y-39443170D01*
X60654826Y-39331695D01*
X60611331Y-39226688D01*
X60548185Y-39132184D01*
X60467816Y-39051815D01*
X60373312Y-38988669D01*
X60268305Y-38945174D01*
X60156830Y-38923000D01*
X60043170Y-38923000D01*
X59931695Y-38945174D01*
X59826688Y-38988669D01*
X59732184Y-39051815D01*
X59651815Y-39132184D01*
X59588669Y-39226688D01*
X59545174Y-39331695D01*
X59523000Y-39443170D01*
X57936254Y-39443170D01*
X57931636Y-39170756D01*
X57929819Y-39141435D01*
X57910682Y-38962960D01*
X57899212Y-38905396D01*
X57848477Y-38733218D01*
X57826900Y-38678631D01*
X57746201Y-38518297D01*
X57731828Y-38492677D01*
X55744360Y-35295446D01*
X55679604Y-35164443D01*
X55645523Y-35038827D01*
X55635191Y-34893063D01*
X55793082Y-28893170D01*
X57223000Y-28893170D01*
X57223000Y-29006830D01*
X57245174Y-29118305D01*
X57288669Y-29223312D01*
X57351815Y-29317816D01*
X57432184Y-29398185D01*
X57526688Y-29461331D01*
X57631695Y-29504826D01*
X57743170Y-29527000D01*
X57856830Y-29527000D01*
X57968305Y-29504826D01*
X58073312Y-29461331D01*
X58100491Y-29443170D01*
X87023000Y-29443170D01*
X87023000Y-29556830D01*
X87045174Y-29668305D01*
X87088669Y-29773312D01*
X87151815Y-29867816D01*
X87232184Y-29948185D01*
X87326688Y-30011331D01*
X87431695Y-30054826D01*
X87543170Y-30077000D01*
X87656830Y-30077000D01*
X87768305Y-30054826D01*
X87873312Y-30011331D01*
X87967816Y-29948185D01*
X88048185Y-29867816D01*
X88111331Y-29773312D01*
X88154826Y-29668305D01*
X88177000Y-29556830D01*
X88177000Y-29443170D01*
X88154826Y-29331695D01*
X88111331Y-29226688D01*
X88048185Y-29132184D01*
X87967816Y-29051815D01*
X87873312Y-28988669D01*
X87768305Y-28945174D01*
X87656830Y-28923000D01*
X87543170Y-28923000D01*
X87431695Y-28945174D01*
X87326688Y-28988669D01*
X87232184Y-29051815D01*
X87151815Y-29132184D01*
X87088669Y-29226688D01*
X87045174Y-29331695D01*
X87023000Y-29443170D01*
X58100491Y-29443170D01*
X58167816Y-29398185D01*
X58248185Y-29317816D01*
X58311331Y-29223312D01*
X58354826Y-29118305D01*
X58377000Y-29006830D01*
X58377000Y-28893170D01*
X58354826Y-28781695D01*
X58311331Y-28676688D01*
X58248185Y-28582184D01*
X58167816Y-28501815D01*
X58073312Y-28438669D01*
X57968305Y-28395174D01*
X57856830Y-28373000D01*
X57743170Y-28373000D01*
X57631695Y-28395174D01*
X57526688Y-28438669D01*
X57432184Y-28501815D01*
X57351815Y-28582184D01*
X57288669Y-28676688D01*
X57245174Y-28781695D01*
X57223000Y-28893170D01*
X55793082Y-28893170D01*
X55817178Y-27977550D01*
X55831843Y-27857141D01*
X55864191Y-27756491D01*
X55914935Y-27663767D01*
X55981924Y-27582687D01*
X56061896Y-27517056D01*
X56152658Y-27468542D01*
X56251136Y-27438669D01*
X56369614Y-27427000D01*
X57887868Y-27427000D01*
X57930549Y-27424203D01*
X58063098Y-27406753D01*
X58145556Y-27384658D01*
X58269073Y-27333495D01*
X58342999Y-27290814D01*
X58449065Y-27209427D01*
X58509427Y-27149065D01*
X58590814Y-27042999D01*
X58633495Y-26969073D01*
X58684658Y-26845556D01*
X58706753Y-26763098D01*
X58724203Y-26630549D01*
X58727000Y-26587868D01*
X58727000Y-26043170D01*
X86223000Y-26043170D01*
X86223000Y-26156830D01*
X86245174Y-26268305D01*
X86288669Y-26373312D01*
X86351815Y-26467816D01*
X86432184Y-26548185D01*
X86434900Y-26550000D01*
X86432184Y-26551815D01*
X86351815Y-26632184D01*
X86288669Y-26726688D01*
X86245174Y-26831695D01*
X86223000Y-26943170D01*
X86223000Y-27056830D01*
X86245174Y-27168305D01*
X86288669Y-27273312D01*
X86351815Y-27367816D01*
X86432184Y-27448185D01*
X86526688Y-27511331D01*
X86631695Y-27554826D01*
X86743170Y-27577000D01*
X86856830Y-27577000D01*
X86968305Y-27554826D01*
X87073312Y-27511331D01*
X87167816Y-27448185D01*
X87200000Y-27416001D01*
X87232184Y-27448185D01*
X87326688Y-27511331D01*
X87431695Y-27554826D01*
X87543170Y-27577000D01*
X87656830Y-27577000D01*
X87768305Y-27554826D01*
X87873312Y-27511331D01*
X87967816Y-27448185D01*
X88048185Y-27367816D01*
X88050000Y-27365100D01*
X88051815Y-27367816D01*
X88132184Y-27448185D01*
X88226688Y-27511331D01*
X88331695Y-27554826D01*
X88443170Y-27577000D01*
X88556830Y-27577000D01*
X88668305Y-27554826D01*
X88773312Y-27511331D01*
X88867816Y-27448185D01*
X88948185Y-27367816D01*
X89000000Y-27290270D01*
X89051815Y-27367816D01*
X89132184Y-27448185D01*
X89226688Y-27511331D01*
X89331695Y-27554826D01*
X89443170Y-27577000D01*
X89556830Y-27577000D01*
X89668305Y-27554826D01*
X89773312Y-27511331D01*
X89867816Y-27448185D01*
X89948185Y-27367816D01*
X90000000Y-27290270D01*
X90051815Y-27367816D01*
X90132184Y-27448185D01*
X90226688Y-27511331D01*
X90331695Y-27554826D01*
X90443170Y-27577000D01*
X90556830Y-27577000D01*
X90668305Y-27554826D01*
X90773312Y-27511331D01*
X90867816Y-27448185D01*
X90948185Y-27367816D01*
X91000000Y-27290270D01*
X91051815Y-27367816D01*
X91132184Y-27448185D01*
X91226688Y-27511331D01*
X91331695Y-27554826D01*
X91443170Y-27577000D01*
X91556830Y-27577000D01*
X91668305Y-27554826D01*
X91773312Y-27511331D01*
X91867816Y-27448185D01*
X91948185Y-27367816D01*
X92000000Y-27290270D01*
X92051815Y-27367816D01*
X92132184Y-27448185D01*
X92226688Y-27511331D01*
X92331695Y-27554826D01*
X92443170Y-27577000D01*
X92556830Y-27577000D01*
X92668305Y-27554826D01*
X92773312Y-27511331D01*
X92867816Y-27448185D01*
X92948185Y-27367816D01*
X93000000Y-27290270D01*
X93051815Y-27367816D01*
X93132184Y-27448185D01*
X93226688Y-27511331D01*
X93331695Y-27554826D01*
X93443170Y-27577000D01*
X93556830Y-27577000D01*
X93668305Y-27554826D01*
X93773312Y-27511331D01*
X93867816Y-27448185D01*
X93948185Y-27367816D01*
X94000000Y-27290270D01*
X94051815Y-27367816D01*
X94132184Y-27448185D01*
X94226688Y-27511331D01*
X94331695Y-27554826D01*
X94443170Y-27577000D01*
X94556830Y-27577000D01*
X94668305Y-27554826D01*
X94773312Y-27511331D01*
X94867816Y-27448185D01*
X94948185Y-27367816D01*
X95000000Y-27290270D01*
X95051815Y-27367816D01*
X95132184Y-27448185D01*
X95226688Y-27511331D01*
X95331695Y-27554826D01*
X95443170Y-27577000D01*
X95556830Y-27577000D01*
X95668305Y-27554826D01*
X95773312Y-27511331D01*
X95867816Y-27448185D01*
X95948185Y-27367816D01*
X96000000Y-27290270D01*
X96051815Y-27367816D01*
X96132184Y-27448185D01*
X96226688Y-27511331D01*
X96331695Y-27554826D01*
X96443170Y-27577000D01*
X96556830Y-27577000D01*
X96668305Y-27554826D01*
X96773312Y-27511331D01*
X96867816Y-27448185D01*
X96948185Y-27367816D01*
X97000000Y-27290270D01*
X97051815Y-27367816D01*
X97132184Y-27448185D01*
X97226688Y-27511331D01*
X97331695Y-27554826D01*
X97443170Y-27577000D01*
X97556830Y-27577000D01*
X97668305Y-27554826D01*
X97773312Y-27511331D01*
X97867816Y-27448185D01*
X97948185Y-27367816D01*
X98011331Y-27273312D01*
X98054826Y-27168305D01*
X98077000Y-27056830D01*
X98077000Y-26943170D01*
X98054826Y-26831695D01*
X98011331Y-26726688D01*
X97948185Y-26632184D01*
X97867816Y-26551815D01*
X97773312Y-26488669D01*
X97668305Y-26445174D01*
X97556830Y-26423000D01*
X97443170Y-26423000D01*
X97331695Y-26445174D01*
X97226688Y-26488669D01*
X97132184Y-26551815D01*
X97051815Y-26632184D01*
X97000000Y-26709730D01*
X96948185Y-26632184D01*
X96867816Y-26551815D01*
X96773312Y-26488669D01*
X96668305Y-26445174D01*
X96556830Y-26423000D01*
X96443170Y-26423000D01*
X96331695Y-26445174D01*
X96226688Y-26488669D01*
X96132184Y-26551815D01*
X96051815Y-26632184D01*
X96000000Y-26709730D01*
X95948185Y-26632184D01*
X95867816Y-26551815D01*
X95773312Y-26488669D01*
X95668305Y-26445174D01*
X95556830Y-26423000D01*
X95443170Y-26423000D01*
X95331695Y-26445174D01*
X95226688Y-26488669D01*
X95132184Y-26551815D01*
X95051815Y-26632184D01*
X95000000Y-26709730D01*
X94948185Y-26632184D01*
X94867816Y-26551815D01*
X94773312Y-26488669D01*
X94668305Y-26445174D01*
X94556830Y-26423000D01*
X94443170Y-26423000D01*
X94331695Y-26445174D01*
X94226688Y-26488669D01*
X94132184Y-26551815D01*
X94051815Y-26632184D01*
X94000000Y-26709730D01*
X93948185Y-26632184D01*
X93867816Y-26551815D01*
X93773312Y-26488669D01*
X93668305Y-26445174D01*
X93556830Y-26423000D01*
X93443170Y-26423000D01*
X93331695Y-26445174D01*
X93226688Y-26488669D01*
X93132184Y-26551815D01*
X93051815Y-26632184D01*
X93000000Y-26709730D01*
X92948185Y-26632184D01*
X92867816Y-26551815D01*
X92773312Y-26488669D01*
X92668305Y-26445174D01*
X92556830Y-26423000D01*
X92443170Y-26423000D01*
X92331695Y-26445174D01*
X92226688Y-26488669D01*
X92132184Y-26551815D01*
X92051815Y-26632184D01*
X92000000Y-26709730D01*
X91948185Y-26632184D01*
X91867816Y-26551815D01*
X91773312Y-26488669D01*
X91668305Y-26445174D01*
X91556830Y-26423000D01*
X91443170Y-26423000D01*
X91331695Y-26445174D01*
X91226688Y-26488669D01*
X91132184Y-26551815D01*
X91051815Y-26632184D01*
X91000000Y-26709730D01*
X90948185Y-26632184D01*
X90867816Y-26551815D01*
X90773312Y-26488669D01*
X90668305Y-26445174D01*
X90556830Y-26423000D01*
X90443170Y-26423000D01*
X90331695Y-26445174D01*
X90226688Y-26488669D01*
X90132184Y-26551815D01*
X90051815Y-26632184D01*
X90000000Y-26709730D01*
X89948185Y-26632184D01*
X89867816Y-26551815D01*
X89773312Y-26488669D01*
X89668305Y-26445174D01*
X89556830Y-26423000D01*
X89443170Y-26423000D01*
X89331695Y-26445174D01*
X89226688Y-26488669D01*
X89132184Y-26551815D01*
X89051815Y-26632184D01*
X89000000Y-26709730D01*
X88948185Y-26632184D01*
X88867816Y-26551815D01*
X88773312Y-26488669D01*
X88668305Y-26445174D01*
X88556830Y-26423000D01*
X88443170Y-26423000D01*
X88331695Y-26445174D01*
X88226688Y-26488669D01*
X88132184Y-26551815D01*
X88051815Y-26632184D01*
X88050000Y-26634900D01*
X88048185Y-26632184D01*
X87967816Y-26551815D01*
X87873312Y-26488669D01*
X87768305Y-26445174D01*
X87656830Y-26423000D01*
X87543170Y-26423000D01*
X87431695Y-26445174D01*
X87326688Y-26488669D01*
X87232184Y-26551815D01*
X87200000Y-26583999D01*
X87167816Y-26551815D01*
X87165100Y-26550000D01*
X87167816Y-26548185D01*
X87248185Y-26467816D01*
X87311331Y-26373312D01*
X87354826Y-26268305D01*
X87377000Y-26156830D01*
X87377000Y-26043170D01*
X87354826Y-25931695D01*
X87311331Y-25826688D01*
X87248185Y-25732184D01*
X87167816Y-25651815D01*
X87073312Y-25588669D01*
X86968305Y-25545174D01*
X86856830Y-25523000D01*
X86743170Y-25523000D01*
X86631695Y-25545174D01*
X86526688Y-25588669D01*
X86432184Y-25651815D01*
X86351815Y-25732184D01*
X86288669Y-25826688D01*
X86245174Y-25931695D01*
X86223000Y-26043170D01*
X58727000Y-26043170D01*
X58727000Y-24943170D01*
X83723000Y-24943170D01*
X83723000Y-25056830D01*
X83745174Y-25168305D01*
X83788669Y-25273312D01*
X83851815Y-25367816D01*
X83932184Y-25448185D01*
X84026688Y-25511331D01*
X84131695Y-25554826D01*
X84243170Y-25577000D01*
X84356830Y-25577000D01*
X84468305Y-25554826D01*
X84573312Y-25511331D01*
X84667816Y-25448185D01*
X84748185Y-25367816D01*
X84811331Y-25273312D01*
X84854826Y-25168305D01*
X84877000Y-25056830D01*
X84877000Y-24943170D01*
X87173000Y-24943170D01*
X87173000Y-25056830D01*
X87195174Y-25168305D01*
X87238669Y-25273312D01*
X87301815Y-25367816D01*
X87382184Y-25448185D01*
X87476688Y-25511331D01*
X87581695Y-25554826D01*
X87693170Y-25577000D01*
X87806830Y-25577000D01*
X87918305Y-25554826D01*
X88023312Y-25511331D01*
X88117816Y-25448185D01*
X88198185Y-25367816D01*
X88261331Y-25273312D01*
X88304826Y-25168305D01*
X88327000Y-25056830D01*
X88327000Y-24943170D01*
X88304826Y-24831695D01*
X88261331Y-24726688D01*
X88198185Y-24632184D01*
X88117816Y-24551815D01*
X88023312Y-24488669D01*
X87918305Y-24445174D01*
X87806830Y-24423000D01*
X87693170Y-24423000D01*
X87581695Y-24445174D01*
X87476688Y-24488669D01*
X87382184Y-24551815D01*
X87301815Y-24632184D01*
X87238669Y-24726688D01*
X87195174Y-24831695D01*
X87173000Y-24943170D01*
X84877000Y-24943170D01*
X84854826Y-24831695D01*
X84811331Y-24726688D01*
X84748185Y-24632184D01*
X84667816Y-24551815D01*
X84573312Y-24488669D01*
X84468305Y-24445174D01*
X84356830Y-24423000D01*
X84243170Y-24423000D01*
X84131695Y-24445174D01*
X84026688Y-24488669D01*
X83932184Y-24551815D01*
X83851815Y-24632184D01*
X83788669Y-24726688D01*
X83745174Y-24831695D01*
X83723000Y-24943170D01*
X58727000Y-24943170D01*
X58727000Y-22943170D01*
X86223000Y-22943170D01*
X86223000Y-23056830D01*
X86245174Y-23168305D01*
X86288669Y-23273312D01*
X86351815Y-23367816D01*
X86432184Y-23448185D01*
X86434900Y-23450000D01*
X86432184Y-23451815D01*
X86351815Y-23532184D01*
X86288669Y-23626688D01*
X86245174Y-23731695D01*
X86223000Y-23843170D01*
X86223000Y-23956830D01*
X86245174Y-24068305D01*
X86288669Y-24173312D01*
X86351815Y-24267816D01*
X86432184Y-24348185D01*
X86526688Y-24411331D01*
X86631695Y-24454826D01*
X86743170Y-24477000D01*
X86856830Y-24477000D01*
X86968305Y-24454826D01*
X87073312Y-24411331D01*
X87167816Y-24348185D01*
X87248185Y-24267816D01*
X87311331Y-24173312D01*
X87354826Y-24068305D01*
X87377000Y-23956830D01*
X87377000Y-23843170D01*
X87354826Y-23731695D01*
X87311331Y-23626688D01*
X87248185Y-23532184D01*
X87167816Y-23451815D01*
X87165100Y-23450000D01*
X87167816Y-23448185D01*
X87200000Y-23416001D01*
X87232184Y-23448185D01*
X87326688Y-23511331D01*
X87431695Y-23554826D01*
X87543170Y-23577000D01*
X87656830Y-23577000D01*
X87768305Y-23554826D01*
X87873312Y-23511331D01*
X87967816Y-23448185D01*
X88048185Y-23367816D01*
X88050000Y-23365100D01*
X88051815Y-23367816D01*
X88132184Y-23448185D01*
X88226688Y-23511331D01*
X88331695Y-23554826D01*
X88443170Y-23577000D01*
X88556830Y-23577000D01*
X88668305Y-23554826D01*
X88773312Y-23511331D01*
X88867816Y-23448185D01*
X88948185Y-23367816D01*
X89000000Y-23290270D01*
X89051815Y-23367816D01*
X89132184Y-23448185D01*
X89226688Y-23511331D01*
X89331695Y-23554826D01*
X89443170Y-23577000D01*
X89556830Y-23577000D01*
X89668305Y-23554826D01*
X89773312Y-23511331D01*
X89867816Y-23448185D01*
X89948185Y-23367816D01*
X90000000Y-23290270D01*
X90051815Y-23367816D01*
X90132184Y-23448185D01*
X90226688Y-23511331D01*
X90331695Y-23554826D01*
X90443170Y-23577000D01*
X90556830Y-23577000D01*
X90668305Y-23554826D01*
X90773312Y-23511331D01*
X90867816Y-23448185D01*
X90948185Y-23367816D01*
X91000000Y-23290270D01*
X91051815Y-23367816D01*
X91132184Y-23448185D01*
X91226688Y-23511331D01*
X91331695Y-23554826D01*
X91443170Y-23577000D01*
X91556830Y-23577000D01*
X91668305Y-23554826D01*
X91773312Y-23511331D01*
X91867816Y-23448185D01*
X91948185Y-23367816D01*
X92000000Y-23290270D01*
X92051815Y-23367816D01*
X92132184Y-23448185D01*
X92226688Y-23511331D01*
X92331695Y-23554826D01*
X92443170Y-23577000D01*
X92556830Y-23577000D01*
X92668305Y-23554826D01*
X92773312Y-23511331D01*
X92867816Y-23448185D01*
X92948185Y-23367816D01*
X93000000Y-23290270D01*
X93051815Y-23367816D01*
X93132184Y-23448185D01*
X93226688Y-23511331D01*
X93331695Y-23554826D01*
X93443170Y-23577000D01*
X93556830Y-23577000D01*
X93668305Y-23554826D01*
X93773312Y-23511331D01*
X93867816Y-23448185D01*
X93948185Y-23367816D01*
X94000000Y-23290270D01*
X94051815Y-23367816D01*
X94132184Y-23448185D01*
X94226688Y-23511331D01*
X94331695Y-23554826D01*
X94443170Y-23577000D01*
X94556830Y-23577000D01*
X94668305Y-23554826D01*
X94773312Y-23511331D01*
X94867816Y-23448185D01*
X94948185Y-23367816D01*
X95000000Y-23290270D01*
X95051815Y-23367816D01*
X95132184Y-23448185D01*
X95226688Y-23511331D01*
X95331695Y-23554826D01*
X95443170Y-23577000D01*
X95556830Y-23577000D01*
X95668305Y-23554826D01*
X95773312Y-23511331D01*
X95867816Y-23448185D01*
X95948185Y-23367816D01*
X96000000Y-23290270D01*
X96051815Y-23367816D01*
X96132184Y-23448185D01*
X96226688Y-23511331D01*
X96331695Y-23554826D01*
X96443170Y-23577000D01*
X96556830Y-23577000D01*
X96668305Y-23554826D01*
X96773312Y-23511331D01*
X96867816Y-23448185D01*
X96948185Y-23367816D01*
X97000000Y-23290270D01*
X97051815Y-23367816D01*
X97132184Y-23448185D01*
X97226688Y-23511331D01*
X97331695Y-23554826D01*
X97443170Y-23577000D01*
X97556830Y-23577000D01*
X97668305Y-23554826D01*
X97773312Y-23511331D01*
X97867816Y-23448185D01*
X97948185Y-23367816D01*
X98011331Y-23273312D01*
X98054826Y-23168305D01*
X98077000Y-23056830D01*
X98077000Y-22943170D01*
X98054826Y-22831695D01*
X98011331Y-22726688D01*
X97948185Y-22632184D01*
X97867816Y-22551815D01*
X97773312Y-22488669D01*
X97668305Y-22445174D01*
X97556830Y-22423000D01*
X97443170Y-22423000D01*
X97331695Y-22445174D01*
X97226688Y-22488669D01*
X97132184Y-22551815D01*
X97051815Y-22632184D01*
X97000000Y-22709730D01*
X96948185Y-22632184D01*
X96867816Y-22551815D01*
X96773312Y-22488669D01*
X96668305Y-22445174D01*
X96556830Y-22423000D01*
X96443170Y-22423000D01*
X96331695Y-22445174D01*
X96226688Y-22488669D01*
X96132184Y-22551815D01*
X96051815Y-22632184D01*
X96000000Y-22709730D01*
X95948185Y-22632184D01*
X95867816Y-22551815D01*
X95773312Y-22488669D01*
X95668305Y-22445174D01*
X95556830Y-22423000D01*
X95443170Y-22423000D01*
X95331695Y-22445174D01*
X95226688Y-22488669D01*
X95132184Y-22551815D01*
X95051815Y-22632184D01*
X95000000Y-22709730D01*
X94948185Y-22632184D01*
X94867816Y-22551815D01*
X94773312Y-22488669D01*
X94668305Y-22445174D01*
X94556830Y-22423000D01*
X94443170Y-22423000D01*
X94331695Y-22445174D01*
X94226688Y-22488669D01*
X94132184Y-22551815D01*
X94051815Y-22632184D01*
X94000000Y-22709730D01*
X93948185Y-22632184D01*
X93867816Y-22551815D01*
X93773312Y-22488669D01*
X93668305Y-22445174D01*
X93556830Y-22423000D01*
X93443170Y-22423000D01*
X93331695Y-22445174D01*
X93226688Y-22488669D01*
X93132184Y-22551815D01*
X93051815Y-22632184D01*
X93000000Y-22709730D01*
X92948185Y-22632184D01*
X92867816Y-22551815D01*
X92773312Y-22488669D01*
X92668305Y-22445174D01*
X92556830Y-22423000D01*
X92443170Y-22423000D01*
X92331695Y-22445174D01*
X92226688Y-22488669D01*
X92132184Y-22551815D01*
X92051815Y-22632184D01*
X92000000Y-22709730D01*
X91948185Y-22632184D01*
X91867816Y-22551815D01*
X91773312Y-22488669D01*
X91668305Y-22445174D01*
X91556830Y-22423000D01*
X91443170Y-22423000D01*
X91331695Y-22445174D01*
X91226688Y-22488669D01*
X91132184Y-22551815D01*
X91051815Y-22632184D01*
X91000000Y-22709730D01*
X90948185Y-22632184D01*
X90867816Y-22551815D01*
X90773312Y-22488669D01*
X90668305Y-22445174D01*
X90556830Y-22423000D01*
X90443170Y-22423000D01*
X90331695Y-22445174D01*
X90226688Y-22488669D01*
X90132184Y-22551815D01*
X90051815Y-22632184D01*
X90000000Y-22709730D01*
X89948185Y-22632184D01*
X89867816Y-22551815D01*
X89773312Y-22488669D01*
X89668305Y-22445174D01*
X89556830Y-22423000D01*
X89443170Y-22423000D01*
X89331695Y-22445174D01*
X89226688Y-22488669D01*
X89132184Y-22551815D01*
X89051815Y-22632184D01*
X89000000Y-22709730D01*
X88948185Y-22632184D01*
X88867816Y-22551815D01*
X88773312Y-22488669D01*
X88668305Y-22445174D01*
X88556830Y-22423000D01*
X88443170Y-22423000D01*
X88331695Y-22445174D01*
X88226688Y-22488669D01*
X88132184Y-22551815D01*
X88051815Y-22632184D01*
X88050000Y-22634900D01*
X88048185Y-22632184D01*
X87967816Y-22551815D01*
X87873312Y-22488669D01*
X87768305Y-22445174D01*
X87656830Y-22423000D01*
X87543170Y-22423000D01*
X87431695Y-22445174D01*
X87326688Y-22488669D01*
X87232184Y-22551815D01*
X87200000Y-22583999D01*
X87167816Y-22551815D01*
X87073312Y-22488669D01*
X86968305Y-22445174D01*
X86856830Y-22423000D01*
X86743170Y-22423000D01*
X86631695Y-22445174D01*
X86526688Y-22488669D01*
X86432184Y-22551815D01*
X86351815Y-22632184D01*
X86288669Y-22726688D01*
X86245174Y-22831695D01*
X86223000Y-22943170D01*
X58727000Y-22943170D01*
X58727000Y-22514214D01*
X58725425Y-22482162D01*
X58706210Y-22287071D01*
X58693705Y-22224201D01*
X58636800Y-22036608D01*
X58612268Y-21977383D01*
X58519858Y-21804496D01*
X58484244Y-21751196D01*
X58359881Y-21599660D01*
X58338331Y-21575883D01*
X57935475Y-21173027D01*
X57841736Y-21058806D01*
X57779691Y-20942729D01*
X57741483Y-20816772D01*
X57727000Y-20669725D01*
X57727000Y-20543170D01*
X87023000Y-20543170D01*
X87023000Y-20656830D01*
X87045174Y-20768305D01*
X87088669Y-20873312D01*
X87151815Y-20967816D01*
X87232184Y-21048185D01*
X87326688Y-21111331D01*
X87431695Y-21154826D01*
X87543170Y-21177000D01*
X87656830Y-21177000D01*
X87768305Y-21154826D01*
X87873312Y-21111331D01*
X87967816Y-21048185D01*
X88048185Y-20967816D01*
X88111331Y-20873312D01*
X88154826Y-20768305D01*
X88177000Y-20656830D01*
X88177000Y-20543170D01*
X88154826Y-20431695D01*
X88111331Y-20326688D01*
X88048185Y-20232184D01*
X87967816Y-20151815D01*
X87873312Y-20088669D01*
X87768305Y-20045174D01*
X87656830Y-20023000D01*
X87543170Y-20023000D01*
X87431695Y-20045174D01*
X87326688Y-20088669D01*
X87232184Y-20151815D01*
X87151815Y-20232184D01*
X87088669Y-20326688D01*
X87045174Y-20431695D01*
X87023000Y-20543170D01*
X57727000Y-20543170D01*
X57727000Y-17990438D01*
X57739142Y-17855674D01*
X57771242Y-17739489D01*
X57823593Y-17630910D01*
X57903195Y-17521501D01*
X60898670Y-14098100D01*
X60916999Y-14075149D01*
X61022582Y-13930028D01*
X61052710Y-13879666D01*
X61130653Y-13718010D01*
X61151294Y-13663074D01*
X61199087Y-13490089D01*
X61209577Y-13432350D01*
X61225681Y-13253608D01*
X61227000Y-13224265D01*
X61227000Y-9070711D01*
X61226226Y-9062845D01*
X91116761Y-9062845D01*
X91284802Y-9388643D01*
X91676607Y-9589426D01*
X92100055Y-9709914D01*
X92538873Y-9745476D01*
X92976197Y-9694746D01*
X93395221Y-9559674D01*
X93715198Y-9388643D01*
X93883239Y-9062845D01*
X92500000Y-7679605D01*
X91116761Y-9062845D01*
X61226226Y-9062845D01*
X61220716Y-9006914D01*
X61207721Y-8941586D01*
X61189115Y-8880248D01*
X61158897Y-8823714D01*
X61121892Y-8768331D01*
X61081222Y-8718774D01*
X61031669Y-8678108D01*
X60976286Y-8641103D01*
X60919756Y-8610887D01*
X60858414Y-8592279D01*
X60793086Y-8579284D01*
X60729289Y-8573000D01*
X59641421Y-8573000D01*
X59577627Y-8579283D01*
X59446971Y-8605272D01*
X59385627Y-8623881D01*
X59329093Y-8654099D01*
X59218328Y-8728110D01*
X59168776Y-8768776D01*
X59128110Y-8818328D01*
X59054099Y-8929093D01*
X59023880Y-8985628D01*
X59005272Y-9046971D01*
X58979283Y-9177627D01*
X58973000Y-9241421D01*
X58973000Y-10723132D01*
X58961957Y-10851707D01*
X58932729Y-10962906D01*
X58879122Y-11080294D01*
X54320828Y-19152272D01*
X54305448Y-19183221D01*
X54221634Y-19376947D01*
X54201065Y-19442833D01*
X54159781Y-19649835D01*
X54154823Y-19684038D01*
X53377495Y-28191464D01*
X53373312Y-28188669D01*
X53268305Y-28145174D01*
X53156830Y-28123000D01*
X53043170Y-28123000D01*
X52931695Y-28145174D01*
X52826688Y-28188669D01*
X52732184Y-28251815D01*
X52651815Y-28332184D01*
X52588669Y-28426688D01*
X52545174Y-28531695D01*
X52523000Y-28643170D01*
X52523000Y-28756830D01*
X52545174Y-28868305D01*
X52588669Y-28973312D01*
X52606501Y-29000000D01*
X52588669Y-29026688D01*
X52545174Y-29131695D01*
X52523000Y-29243170D01*
X52523000Y-29356830D01*
X52545174Y-29468305D01*
X52588669Y-29573312D01*
X52606501Y-29600000D01*
X52588669Y-29626688D01*
X52545174Y-29731695D01*
X52523000Y-29843170D01*
X52523000Y-29956830D01*
X52545174Y-30068305D01*
X52588669Y-30173312D01*
X52606501Y-30200000D01*
X52588669Y-30226688D01*
X52545174Y-30331695D01*
X52523000Y-30443170D01*
X52523000Y-30556830D01*
X52540755Y-30646088D01*
X52532184Y-30651815D01*
X52451815Y-30732184D01*
X52388669Y-30826688D01*
X52345174Y-30931695D01*
X52323000Y-31043170D01*
X47664653Y-31043170D01*
X47711331Y-30973312D01*
X47754826Y-30868305D01*
X47777000Y-30756830D01*
X47777000Y-30643170D01*
X47754826Y-30531695D01*
X47711331Y-30426688D01*
X47648185Y-30332184D01*
X47616001Y-30300000D01*
X47648185Y-30267816D01*
X47711331Y-30173312D01*
X47754826Y-30068305D01*
X47777000Y-29956830D01*
X47777000Y-29843170D01*
X47754826Y-29731695D01*
X47711331Y-29626688D01*
X47648185Y-29532184D01*
X47616001Y-29500000D01*
X47648185Y-29467816D01*
X47711331Y-29373312D01*
X47754826Y-29268305D01*
X47777000Y-29156830D01*
X47777000Y-29043170D01*
X47754826Y-28931695D01*
X47711331Y-28826688D01*
X47648185Y-28732184D01*
X47567816Y-28651815D01*
X47473312Y-28588669D01*
X47368305Y-28545174D01*
X47256830Y-28523000D01*
X47143170Y-28523000D01*
X47031695Y-28545174D01*
X47027000Y-28547119D01*
X47027000Y-23543170D01*
X47235500Y-23543170D01*
X47235500Y-23656830D01*
X47257674Y-23768305D01*
X47301169Y-23873312D01*
X47364315Y-23967816D01*
X47444684Y-24048185D01*
X47539188Y-24111331D01*
X47644195Y-24154826D01*
X47755670Y-24177000D01*
X47869330Y-24177000D01*
X47980805Y-24154826D01*
X48085812Y-24111331D01*
X48180316Y-24048185D01*
X48260685Y-23967816D01*
X48323831Y-23873312D01*
X48367326Y-23768305D01*
X48389500Y-23656830D01*
X48389500Y-23543170D01*
X48823000Y-23543170D01*
X48823000Y-23656830D01*
X48845174Y-23768305D01*
X48888669Y-23873312D01*
X48951815Y-23967816D01*
X49032184Y-24048185D01*
X49126688Y-24111331D01*
X49231695Y-24154826D01*
X49343170Y-24177000D01*
X49456830Y-24177000D01*
X49568305Y-24154826D01*
X49673312Y-24111331D01*
X49767816Y-24048185D01*
X49848185Y-23967816D01*
X49911331Y-23873312D01*
X49954826Y-23768305D01*
X49977000Y-23656830D01*
X49977000Y-23543170D01*
X49954826Y-23431695D01*
X49911331Y-23326688D01*
X49848185Y-23232184D01*
X49767816Y-23151815D01*
X49673312Y-23088669D01*
X49568305Y-23045174D01*
X49456830Y-23023000D01*
X49343170Y-23023000D01*
X49231695Y-23045174D01*
X49126688Y-23088669D01*
X49032184Y-23151815D01*
X48951815Y-23232184D01*
X48888669Y-23326688D01*
X48845174Y-23431695D01*
X48823000Y-23543170D01*
X48389500Y-23543170D01*
X48367326Y-23431695D01*
X48323831Y-23326688D01*
X48260685Y-23232184D01*
X48180316Y-23151815D01*
X48085812Y-23088669D01*
X47980805Y-23045174D01*
X47869330Y-23023000D01*
X47755670Y-23023000D01*
X47644195Y-23045174D01*
X47539188Y-23088669D01*
X47444684Y-23151815D01*
X47364315Y-23232184D01*
X47301169Y-23326688D01*
X47257674Y-23431695D01*
X47235500Y-23543170D01*
X47027000Y-23543170D01*
X47027000Y-21855670D01*
X47235500Y-21855670D01*
X47235500Y-21969330D01*
X47257674Y-22080805D01*
X47301169Y-22185812D01*
X47364315Y-22280316D01*
X47444684Y-22360685D01*
X47539188Y-22423831D01*
X47644195Y-22467326D01*
X47755670Y-22489500D01*
X47869330Y-22489500D01*
X47980805Y-22467326D01*
X48085812Y-22423831D01*
X48180316Y-22360685D01*
X48260685Y-22280316D01*
X48323831Y-22185812D01*
X48367326Y-22080805D01*
X48389500Y-21969330D01*
X48389500Y-21855670D01*
X48367326Y-21744195D01*
X48323831Y-21639188D01*
X48260685Y-21544684D01*
X48180316Y-21464315D01*
X48085812Y-21401169D01*
X47980805Y-21357674D01*
X47869330Y-21335500D01*
X47755670Y-21335500D01*
X47644195Y-21357674D01*
X47539188Y-21401169D01*
X47444684Y-21464315D01*
X47364315Y-21544684D01*
X47301169Y-21639188D01*
X47257674Y-21744195D01*
X47235500Y-21855670D01*
X47027000Y-21855670D01*
X47027000Y-16630275D01*
X47041483Y-16483228D01*
X47079691Y-16357271D01*
X47141736Y-16241194D01*
X47235475Y-16126973D01*
X47559517Y-15802931D01*
X47588669Y-15873312D01*
X47651815Y-15967816D01*
X47683999Y-16000000D01*
X47651815Y-16032184D01*
X47588669Y-16126688D01*
X47545174Y-16231695D01*
X47523000Y-16343170D01*
X47523000Y-16456830D01*
X47545174Y-16568305D01*
X47588669Y-16673312D01*
X47651815Y-16767816D01*
X47683999Y-16800000D01*
X47651815Y-16832184D01*
X47588669Y-16926688D01*
X47545174Y-17031695D01*
X47523000Y-17143170D01*
X47523000Y-17256830D01*
X47545174Y-17368305D01*
X47588669Y-17473312D01*
X47651815Y-17567816D01*
X47683999Y-17600000D01*
X47651815Y-17632184D01*
X47588669Y-17726688D01*
X47545174Y-17831695D01*
X47523000Y-17943170D01*
X47523000Y-18056830D01*
X47545174Y-18168305D01*
X47588669Y-18273312D01*
X47651815Y-18367816D01*
X47683999Y-18400000D01*
X47651815Y-18432184D01*
X47588669Y-18526688D01*
X47545174Y-18631695D01*
X47523000Y-18743170D01*
X47523000Y-18856830D01*
X47545174Y-18968305D01*
X47588669Y-19073312D01*
X47651815Y-19167816D01*
X47732184Y-19248185D01*
X47826688Y-19311331D01*
X47931695Y-19354826D01*
X48043170Y-19377000D01*
X48156830Y-19377000D01*
X48268305Y-19354826D01*
X48373312Y-19311331D01*
X48467816Y-19248185D01*
X48548185Y-19167816D01*
X48611331Y-19073312D01*
X48654826Y-18968305D01*
X48677000Y-18856830D01*
X48677000Y-18743170D01*
X48654826Y-18631695D01*
X48611331Y-18526688D01*
X48548185Y-18432184D01*
X48516001Y-18400000D01*
X48548185Y-18367816D01*
X48611331Y-18273312D01*
X48654826Y-18168305D01*
X48677000Y-18056830D01*
X48677000Y-17943170D01*
X48654826Y-17831695D01*
X48611331Y-17726688D01*
X48548185Y-17632184D01*
X48516001Y-17600000D01*
X48548185Y-17567816D01*
X48564653Y-17543170D01*
X53223000Y-17543170D01*
X53223000Y-17656830D01*
X53245174Y-17768305D01*
X53288669Y-17873312D01*
X53351815Y-17967816D01*
X53432184Y-18048185D01*
X53526688Y-18111331D01*
X53631695Y-18154826D01*
X53743170Y-18177000D01*
X53856830Y-18177000D01*
X53968305Y-18154826D01*
X54073312Y-18111331D01*
X54100000Y-18093499D01*
X54126688Y-18111331D01*
X54231695Y-18154826D01*
X54343170Y-18177000D01*
X54456830Y-18177000D01*
X54568305Y-18154826D01*
X54673312Y-18111331D01*
X54767816Y-18048185D01*
X54848185Y-17967816D01*
X54911331Y-17873312D01*
X54954826Y-17768305D01*
X54977000Y-17656830D01*
X54977000Y-17543170D01*
X54954826Y-17431695D01*
X54911331Y-17326688D01*
X54848185Y-17232184D01*
X54767816Y-17151815D01*
X54673312Y-17088669D01*
X54577000Y-17048776D01*
X54577000Y-16943170D01*
X54554826Y-16831695D01*
X54511331Y-16726688D01*
X54493499Y-16700000D01*
X54511331Y-16673312D01*
X54554826Y-16568305D01*
X54577000Y-16456830D01*
X54577000Y-16343170D01*
X54554826Y-16231695D01*
X54511331Y-16126688D01*
X54493499Y-16100000D01*
X54511331Y-16073312D01*
X54554826Y-15968305D01*
X54577000Y-15856830D01*
X54577000Y-15743170D01*
X54554826Y-15631695D01*
X54511331Y-15526688D01*
X54493499Y-15500000D01*
X54511331Y-15473312D01*
X54554826Y-15368305D01*
X54577000Y-15256830D01*
X54577000Y-15143170D01*
X54554826Y-15031695D01*
X54511331Y-14926688D01*
X54448185Y-14832184D01*
X54367816Y-14751815D01*
X54273312Y-14688669D01*
X54168305Y-14645174D01*
X54056830Y-14623000D01*
X53943170Y-14623000D01*
X53831695Y-14645174D01*
X53726688Y-14688669D01*
X53632184Y-14751815D01*
X53551815Y-14832184D01*
X53488669Y-14926688D01*
X53445174Y-15031695D01*
X53423000Y-15143170D01*
X53423000Y-15256830D01*
X53445174Y-15368305D01*
X53488669Y-15473312D01*
X53506501Y-15500000D01*
X53488669Y-15526688D01*
X53445174Y-15631695D01*
X53423000Y-15743170D01*
X53423000Y-15856830D01*
X53445174Y-15968305D01*
X53488669Y-16073312D01*
X53506501Y-16100000D01*
X53488669Y-16126688D01*
X53445174Y-16231695D01*
X53423000Y-16343170D01*
X53423000Y-16456830D01*
X53445174Y-16568305D01*
X53488669Y-16673312D01*
X53506501Y-16700000D01*
X53488669Y-16726688D01*
X53445174Y-16831695D01*
X53423000Y-16943170D01*
X53423000Y-17056830D01*
X53440755Y-17146088D01*
X53432184Y-17151815D01*
X53351815Y-17232184D01*
X53288669Y-17326688D01*
X53245174Y-17431695D01*
X53223000Y-17543170D01*
X48564653Y-17543170D01*
X48611331Y-17473312D01*
X48654826Y-17368305D01*
X48677000Y-17256830D01*
X48677000Y-17143170D01*
X48654826Y-17031695D01*
X48611331Y-16926688D01*
X48548185Y-16832184D01*
X48516001Y-16800000D01*
X48548185Y-16767816D01*
X48611331Y-16673312D01*
X48654826Y-16568305D01*
X48677000Y-16456830D01*
X48677000Y-16343170D01*
X48654826Y-16231695D01*
X48611331Y-16126688D01*
X48548185Y-16032184D01*
X48516001Y-16000000D01*
X48548185Y-15967816D01*
X48611331Y-15873312D01*
X48654826Y-15768305D01*
X48677000Y-15656830D01*
X48677000Y-15543170D01*
X48654826Y-15431695D01*
X48611331Y-15326688D01*
X48548185Y-15232184D01*
X48467816Y-15151815D01*
X48373312Y-15088669D01*
X48302931Y-15059517D01*
X51726973Y-11635475D01*
X51841194Y-11541736D01*
X51957271Y-11479691D01*
X52083228Y-11441483D01*
X52230275Y-11427000D01*
X52400000Y-11427000D01*
X52442683Y-11424202D01*
X52597974Y-11403757D01*
X52680428Y-11381664D01*
X52825137Y-11321724D01*
X52899065Y-11279042D01*
X53023329Y-11183691D01*
X53083691Y-11123329D01*
X53179042Y-10999065D01*
X53221724Y-10925137D01*
X53255675Y-10843170D01*
X57723000Y-10843170D01*
X57723000Y-10956830D01*
X57745174Y-11068305D01*
X57788669Y-11173312D01*
X57851815Y-11267816D01*
X57932184Y-11348185D01*
X58026688Y-11411331D01*
X58131695Y-11454826D01*
X58243170Y-11477000D01*
X58356830Y-11477000D01*
X58468305Y-11454826D01*
X58573312Y-11411331D01*
X58667816Y-11348185D01*
X58748185Y-11267816D01*
X58811331Y-11173312D01*
X58854826Y-11068305D01*
X58877000Y-10956830D01*
X58877000Y-10843170D01*
X58854826Y-10731695D01*
X58811331Y-10626688D01*
X58748185Y-10532184D01*
X58667816Y-10451815D01*
X58573312Y-10388669D01*
X58468305Y-10345174D01*
X58356830Y-10323000D01*
X58243170Y-10323000D01*
X58131695Y-10345174D01*
X58026688Y-10388669D01*
X57932184Y-10451815D01*
X57851815Y-10532184D01*
X57788669Y-10626688D01*
X57745174Y-10731695D01*
X57723000Y-10843170D01*
X53255675Y-10843170D01*
X53281664Y-10780428D01*
X53303757Y-10697974D01*
X53324202Y-10542683D01*
X53327000Y-10500000D01*
X53327000Y-10250000D01*
X53324203Y-10207318D01*
X53302055Y-10039086D01*
X53279961Y-9956631D01*
X53215026Y-9799863D01*
X53172342Y-9725934D01*
X53069044Y-9591315D01*
X53008685Y-9530956D01*
X52874066Y-9427658D01*
X52800137Y-9384974D01*
X52740639Y-9360329D01*
X52768305Y-9354826D01*
X52873312Y-9311331D01*
X52967816Y-9248185D01*
X53048185Y-9167816D01*
X53111331Y-9073312D01*
X53123816Y-9043170D01*
X53823000Y-9043170D01*
X53823000Y-9156830D01*
X53845174Y-9268305D01*
X53888669Y-9373312D01*
X53951815Y-9467816D01*
X54032184Y-9548185D01*
X54126688Y-9611331D01*
X54231695Y-9654826D01*
X54343170Y-9677000D01*
X54456830Y-9677000D01*
X54568305Y-9654826D01*
X54673312Y-9611331D01*
X54767816Y-9548185D01*
X54848185Y-9467816D01*
X54911331Y-9373312D01*
X54954826Y-9268305D01*
X54977000Y-9156830D01*
X54977000Y-9043170D01*
X54954826Y-8931695D01*
X54911331Y-8826688D01*
X54848185Y-8732184D01*
X54767816Y-8651815D01*
X54673312Y-8588669D01*
X54568305Y-8545174D01*
X54456830Y-8523000D01*
X54343170Y-8523000D01*
X54231695Y-8545174D01*
X54126688Y-8588669D01*
X54032184Y-8651815D01*
X53951815Y-8732184D01*
X53888669Y-8826688D01*
X53845174Y-8931695D01*
X53823000Y-9043170D01*
X53123816Y-9043170D01*
X53154826Y-8968305D01*
X53177000Y-8856830D01*
X53177000Y-8743170D01*
X53154826Y-8631695D01*
X53111331Y-8526688D01*
X53048185Y-8432184D01*
X53016001Y-8400000D01*
X53048185Y-8367816D01*
X53111331Y-8273312D01*
X53154826Y-8168305D01*
X53177000Y-8056830D01*
X53177000Y-7943170D01*
X53154826Y-7831695D01*
X53111331Y-7726688D01*
X53048185Y-7632184D01*
X53016001Y-7600000D01*
X53048185Y-7567816D01*
X53064653Y-7543170D01*
X57523000Y-7543170D01*
X57523000Y-7656830D01*
X57545174Y-7768305D01*
X57588669Y-7873312D01*
X57651815Y-7967816D01*
X57732184Y-8048185D01*
X57826688Y-8111331D01*
X57931695Y-8154826D01*
X58043170Y-8177000D01*
X58156830Y-8177000D01*
X58268305Y-8154826D01*
X58373312Y-8111331D01*
X58400000Y-8093499D01*
X58426688Y-8111331D01*
X58531695Y-8154826D01*
X58643170Y-8177000D01*
X58756830Y-8177000D01*
X58868305Y-8154826D01*
X58973312Y-8111331D01*
X59067816Y-8048185D01*
X59148185Y-7967816D01*
X59211331Y-7873312D01*
X59254826Y-7768305D01*
X59277000Y-7656830D01*
X59277000Y-7543170D01*
X59276146Y-7538873D01*
X90254524Y-7538873D01*
X90305254Y-7976197D01*
X90440326Y-8395221D01*
X90611357Y-8715198D01*
X90937155Y-8883239D01*
X92320395Y-7500000D01*
X92679605Y-7500000D01*
X94062845Y-8883239D01*
X94388643Y-8715198D01*
X94589426Y-8323393D01*
X94709914Y-7899945D01*
X94745476Y-7461127D01*
X94694746Y-7023803D01*
X94559674Y-6604779D01*
X94388643Y-6284802D01*
X94062845Y-6116761D01*
X92679605Y-7500000D01*
X92320395Y-7500000D01*
X90937155Y-6116761D01*
X90611357Y-6284802D01*
X90410574Y-6676607D01*
X90290086Y-7100055D01*
X90254524Y-7538873D01*
X59276146Y-7538873D01*
X59254826Y-7431695D01*
X59211331Y-7326688D01*
X59148185Y-7232184D01*
X59067816Y-7151815D01*
X58973312Y-7088669D01*
X58877000Y-7048776D01*
X58877000Y-6943170D01*
X58854826Y-6831695D01*
X58811331Y-6726688D01*
X58793499Y-6700000D01*
X58811331Y-6673312D01*
X58854826Y-6568305D01*
X58877000Y-6456830D01*
X58877000Y-6343170D01*
X58854826Y-6231695D01*
X58811331Y-6126688D01*
X58793499Y-6100000D01*
X58811331Y-6073312D01*
X58854826Y-5968305D01*
X58877000Y-5856830D01*
X58877000Y-5743170D01*
X58854826Y-5631695D01*
X58811331Y-5526688D01*
X58793499Y-5500000D01*
X58811331Y-5473312D01*
X58854826Y-5368305D01*
X58859825Y-5343170D01*
X62423000Y-5343170D01*
X62423000Y-5456830D01*
X62445174Y-5568305D01*
X62488669Y-5673312D01*
X62551815Y-5767816D01*
X62632184Y-5848185D01*
X62726688Y-5911331D01*
X62831695Y-5954826D01*
X62943170Y-5977000D01*
X63056830Y-5977000D01*
X63168305Y-5954826D01*
X63210966Y-5937155D01*
X91116761Y-5937155D01*
X92500000Y-7320395D01*
X93883239Y-5937155D01*
X93715198Y-5611357D01*
X93323393Y-5410574D01*
X92899945Y-5290086D01*
X92461127Y-5254524D01*
X92023803Y-5305254D01*
X91604779Y-5440326D01*
X91284802Y-5611357D01*
X91116761Y-5937155D01*
X63210966Y-5937155D01*
X63273312Y-5911331D01*
X63367816Y-5848185D01*
X63448185Y-5767816D01*
X63511331Y-5673312D01*
X63554826Y-5568305D01*
X63577000Y-5456830D01*
X63577000Y-5343170D01*
X63554826Y-5231695D01*
X63511331Y-5126688D01*
X63448185Y-5032184D01*
X63367816Y-4951815D01*
X63273312Y-4888669D01*
X63168305Y-4845174D01*
X63056830Y-4823000D01*
X62943170Y-4823000D01*
X62831695Y-4845174D01*
X62726688Y-4888669D01*
X62632184Y-4951815D01*
X62551815Y-5032184D01*
X62488669Y-5126688D01*
X62445174Y-5231695D01*
X62423000Y-5343170D01*
X58859825Y-5343170D01*
X58877000Y-5256830D01*
X58877000Y-5143170D01*
X58854826Y-5031695D01*
X58811331Y-4926688D01*
X58748185Y-4832184D01*
X58667816Y-4751815D01*
X58573312Y-4688669D01*
X58468305Y-4645174D01*
X58356830Y-4623000D01*
X58243170Y-4623000D01*
X58131695Y-4645174D01*
X58026688Y-4688669D01*
X57932184Y-4751815D01*
X57851815Y-4832184D01*
X57788669Y-4926688D01*
X57745174Y-5031695D01*
X57723000Y-5143170D01*
X57723000Y-5256830D01*
X57745174Y-5368305D01*
X57788669Y-5473312D01*
X57806501Y-5500000D01*
X57788669Y-5526688D01*
X57745174Y-5631695D01*
X57723000Y-5743170D01*
X57723000Y-5856830D01*
X57745174Y-5968305D01*
X57788669Y-6073312D01*
X57806501Y-6100000D01*
X57788669Y-6126688D01*
X57745174Y-6231695D01*
X57723000Y-6343170D01*
X57723000Y-6456830D01*
X57745174Y-6568305D01*
X57788669Y-6673312D01*
X57806501Y-6700000D01*
X57788669Y-6726688D01*
X57745174Y-6831695D01*
X57723000Y-6943170D01*
X57723000Y-7056830D01*
X57740755Y-7146088D01*
X57732184Y-7151815D01*
X57651815Y-7232184D01*
X57588669Y-7326688D01*
X57545174Y-7431695D01*
X57523000Y-7543170D01*
X53064653Y-7543170D01*
X53111331Y-7473312D01*
X53154826Y-7368305D01*
X53177000Y-7256830D01*
X53177000Y-7143170D01*
X53154826Y-7031695D01*
X53111331Y-6926688D01*
X53048185Y-6832184D01*
X53016001Y-6800000D01*
X53048185Y-6767816D01*
X53111331Y-6673312D01*
X53154826Y-6568305D01*
X53177000Y-6456830D01*
X53177000Y-6343170D01*
X53154826Y-6231695D01*
X53111331Y-6126688D01*
X53048185Y-6032184D01*
X53016001Y-6000000D01*
X53048185Y-5967816D01*
X53111331Y-5873312D01*
X53154826Y-5768305D01*
X53177000Y-5656830D01*
X53177000Y-5543170D01*
X53154826Y-5431695D01*
X53111331Y-5326688D01*
X53048185Y-5232184D01*
X52967816Y-5151815D01*
X52873312Y-5088669D01*
X52768305Y-5045174D01*
X52656830Y-5023000D01*
X52543170Y-5023000D01*
X52431695Y-5045174D01*
X52326688Y-5088669D01*
X52232184Y-5151815D01*
X52151815Y-5232184D01*
X52088669Y-5326688D01*
X52045174Y-5431695D01*
X52023000Y-5543170D01*
X52023000Y-5656830D01*
X52045174Y-5768305D01*
X52088669Y-5873312D01*
X52151815Y-5967816D01*
X52183999Y-6000000D01*
X52151815Y-6032184D01*
X52088669Y-6126688D01*
X52045174Y-6231695D01*
X52023000Y-6343170D01*
X52023000Y-6456830D01*
X52045174Y-6568305D01*
X52088669Y-6673312D01*
X52151815Y-6767816D01*
X52183999Y-6800000D01*
X52151815Y-6832184D01*
X52088669Y-6926688D01*
X52045174Y-7031695D01*
X52023000Y-7143170D01*
X52023000Y-7256830D01*
X52045174Y-7368305D01*
X52088669Y-7473312D01*
X52151815Y-7567816D01*
X52183999Y-7600000D01*
X52151815Y-7632184D01*
X52088669Y-7726688D01*
X52045174Y-7831695D01*
X52023000Y-7943170D01*
X52023000Y-8056830D01*
X52045174Y-8168305D01*
X52088669Y-8273312D01*
X52151815Y-8367816D01*
X52183999Y-8400000D01*
X52151815Y-8432184D01*
X52088669Y-8526688D01*
X52045174Y-8631695D01*
X52023000Y-8743170D01*
X52023000Y-8856830D01*
X52045174Y-8968305D01*
X52088669Y-9073312D01*
X52151815Y-9167816D01*
X52232184Y-9248185D01*
X52269322Y-9273000D01*
X52114214Y-9273000D01*
X52082162Y-9274575D01*
X51887071Y-9293790D01*
X51824201Y-9306295D01*
X51636608Y-9363200D01*
X51577383Y-9387732D01*
X51404496Y-9480142D01*
X51351196Y-9515756D01*
X51199660Y-9640119D01*
X51175883Y-9661669D01*
X45563948Y-15273604D01*
X45542255Y-15297555D01*
X45417130Y-15450234D01*
X45381342Y-15503954D01*
X45288646Y-15678238D01*
X45264107Y-15737944D01*
X45207454Y-15927041D01*
X45195122Y-15990401D01*
X45176718Y-16186943D01*
X45175299Y-16219227D01*
X20927661Y-16219227D01*
X20926998Y-16099298D01*
X20924421Y-16074536D01*
X20917062Y-16050752D01*
X20905205Y-16028860D01*
X20889305Y-16009703D01*
X20869973Y-15994015D01*
X20847952Y-15982401D01*
X20824088Y-15975305D01*
X20800000Y-15973000D01*
X352000Y-15973000D01*
X352000Y-9062845D01*
X6116761Y-9062845D01*
X6284802Y-9388643D01*
X6676607Y-9589426D01*
X7100055Y-9709914D01*
X7538873Y-9745476D01*
X7976197Y-9694746D01*
X8395221Y-9559674D01*
X8715198Y-9388643D01*
X8883239Y-9062845D01*
X7500000Y-7679605D01*
X6116761Y-9062845D01*
X352000Y-9062845D01*
X352000Y-7538873D01*
X5254524Y-7538873D01*
X5305254Y-7976197D01*
X5440326Y-8395221D01*
X5611357Y-8715198D01*
X5937155Y-8883239D01*
X7320395Y-7500000D01*
X7679605Y-7500000D01*
X9062845Y-8883239D01*
X9388643Y-8715198D01*
X9589426Y-8323393D01*
X9709914Y-7899945D01*
X9745476Y-7461127D01*
X9694746Y-7023803D01*
X9559674Y-6604779D01*
X9388643Y-6284802D01*
X9062845Y-6116761D01*
X7679605Y-7500000D01*
X7320395Y-7500000D01*
X5937155Y-6116761D01*
X5611357Y-6284802D01*
X5410574Y-6676607D01*
X5290086Y-7100055D01*
X5254524Y-7538873D01*
X352000Y-7538873D01*
X352000Y-5937155D01*
X6116761Y-5937155D01*
X7500000Y-7320395D01*
X8883239Y-5937155D01*
X8715198Y-5611357D01*
X8323393Y-5410574D01*
X7899945Y-5290086D01*
X7461127Y-5254524D01*
X7023803Y-5305254D01*
X6604779Y-5440326D01*
X6284802Y-5611357D01*
X6116761Y-5937155D01*
X352000Y-5937155D01*
X352000Y-352000D01*
X99648000Y-352000D01*
X99648001Y-49648000D01*
G37*
%TD.AperFunction*%
%TD*%
D13*
%TO.N,Net-(J1-Pad2)*%
X17570189Y-16444376D02*
X17733850Y-16494022D01*
X17884672Y-16574638D01*
X18016870Y-16683130D01*
X18125362Y-16815328D01*
X18205978Y-16966150D01*
X18255624Y-17129811D01*
X18273000Y-17306234D01*
X18273000Y-22840213D01*
X18258437Y-22988070D01*
X18217128Y-23124247D01*
X18150043Y-23249755D01*
X18059763Y-23359763D01*
X17949755Y-23450043D01*
X17824247Y-23517128D01*
X17688070Y-23558437D01*
X17540213Y-23573000D01*
X16800000Y-23573000D01*
X16787552Y-23573612D01*
X16592462Y-23592827D01*
X16568044Y-23597683D01*
X16380451Y-23654588D01*
X16357450Y-23664116D01*
X16184563Y-23756526D01*
X16163862Y-23770358D01*
X16012325Y-23894721D01*
X15994721Y-23912325D01*
X15870358Y-24063862D01*
X15856526Y-24084563D01*
X15764116Y-24257450D01*
X15754588Y-24280451D01*
X15697683Y-24468044D01*
X15692827Y-24492462D01*
X15673612Y-24687552D01*
X15673000Y-24700000D01*
X15673000Y-28179552D01*
X15655624Y-28355976D01*
X15605978Y-28519637D01*
X15525363Y-28670458D01*
X15412898Y-28807496D01*
X12807496Y-31412898D01*
X12670458Y-31525363D01*
X12519637Y-31605978D01*
X12355976Y-31655624D01*
X12179552Y-31673000D01*
X1506234Y-31673000D01*
X1329811Y-31655624D01*
X1166150Y-31605978D01*
X1015328Y-31525362D01*
X883130Y-31416870D01*
X774638Y-31284672D01*
X694022Y-31133850D01*
X644376Y-30970189D01*
X627000Y-30793766D01*
X627000Y-17306234D01*
X644376Y-17129811D01*
X694022Y-16966150D01*
X774638Y-16815328D01*
X883130Y-16683130D01*
X1015328Y-16574638D01*
X1166150Y-16494022D01*
X1329811Y-16444376D01*
X1506234Y-16427000D01*
X17393766Y-16427000D01*
X17570189Y-16444376D01*
%TA.AperFunction,Conductor*%
D12*
G36*
X17570189Y-16444376D02*
G01*
X17733850Y-16494022D01*
X17884672Y-16574638D01*
X18016870Y-16683130D01*
X18125362Y-16815328D01*
X18205978Y-16966150D01*
X18255624Y-17129811D01*
X18273000Y-17306234D01*
X18273000Y-22840213D01*
X18258437Y-22988070D01*
X18217128Y-23124247D01*
X18150043Y-23249755D01*
X18059763Y-23359763D01*
X17949755Y-23450043D01*
X17824247Y-23517128D01*
X17688070Y-23558437D01*
X17540213Y-23573000D01*
X16800000Y-23573000D01*
X16787552Y-23573612D01*
X16592462Y-23592827D01*
X16568044Y-23597683D01*
X16380451Y-23654588D01*
X16357450Y-23664116D01*
X16184563Y-23756526D01*
X16163862Y-23770358D01*
X16012325Y-23894721D01*
X15994721Y-23912325D01*
X15870358Y-24063862D01*
X15856526Y-24084563D01*
X15764116Y-24257450D01*
X15754588Y-24280451D01*
X15697683Y-24468044D01*
X15692827Y-24492462D01*
X15673612Y-24687552D01*
X15673000Y-24700000D01*
X15673000Y-28179552D01*
X15655624Y-28355976D01*
X15605978Y-28519637D01*
X15525363Y-28670458D01*
X15412898Y-28807496D01*
X12807496Y-31412898D01*
X12670458Y-31525363D01*
X12519637Y-31605978D01*
X12355976Y-31655624D01*
X12179552Y-31673000D01*
X1506234Y-31673000D01*
X1329811Y-31655624D01*
X1166150Y-31605978D01*
X1015328Y-31525362D01*
X883130Y-31416870D01*
X774638Y-31284672D01*
X694022Y-31133850D01*
X644376Y-30970189D01*
X627000Y-30793766D01*
X627000Y-17306234D01*
X644376Y-17129811D01*
X694022Y-16966150D01*
X774638Y-16815328D01*
X883130Y-16683130D01*
X1015328Y-16574638D01*
X1166150Y-16494022D01*
X1329811Y-16444376D01*
X1506234Y-16427000D01*
X17393766Y-16427000D01*
X17570189Y-16444376D01*
G37*
%TD.AperFunction*%
%TD*%
D13*
%TO.N,/ILim*%
X52485079Y-9745880D02*
X52610955Y-9798019D01*
X52719042Y-9880958D01*
X52801981Y-9989045D01*
X52854120Y-10114921D01*
X52873000Y-10258328D01*
X52873000Y-10491679D01*
X52855825Y-10622136D01*
X52808681Y-10735951D01*
X52733686Y-10833686D01*
X52635951Y-10908681D01*
X52522136Y-10955825D01*
X52391679Y-10973000D01*
X52214214Y-10973000D01*
X52201766Y-10973612D01*
X52006675Y-10992827D01*
X51982257Y-10997683D01*
X51794664Y-11054588D01*
X51771663Y-11064116D01*
X51598776Y-11156526D01*
X51578075Y-11170358D01*
X51426539Y-11294721D01*
X51417304Y-11303090D01*
X46903090Y-15817304D01*
X46894721Y-15826539D01*
X46770358Y-15978075D01*
X46756526Y-15998776D01*
X46664116Y-16171663D01*
X46654588Y-16194664D01*
X46597683Y-16382257D01*
X46592827Y-16406675D01*
X46573612Y-16601766D01*
X46573000Y-16614214D01*
X46573000Y-32285786D01*
X46573612Y-32298234D01*
X46592827Y-32493325D01*
X46597683Y-32517743D01*
X46654588Y-32705336D01*
X46664116Y-32728337D01*
X46756526Y-32901224D01*
X46770358Y-32921925D01*
X46894721Y-33073461D01*
X46903090Y-33082696D01*
X47312898Y-33492504D01*
X47425363Y-33629542D01*
X47505978Y-33780363D01*
X47555624Y-33944024D01*
X47573000Y-34120448D01*
X47573000Y-41085786D01*
X47573612Y-41098234D01*
X47592827Y-41293325D01*
X47597683Y-41317743D01*
X47654588Y-41505336D01*
X47664116Y-41528337D01*
X47756526Y-41701224D01*
X47770358Y-41721925D01*
X47894721Y-41873461D01*
X47903090Y-41882696D01*
X49185107Y-43164713D01*
X49188669Y-43173312D01*
X49251815Y-43267816D01*
X49332184Y-43348185D01*
X49426688Y-43411331D01*
X49435287Y-43414893D01*
X49812898Y-43792504D01*
X49925363Y-43929542D01*
X50005978Y-44080363D01*
X50055624Y-44244024D01*
X50073000Y-44420448D01*
X50073000Y-44591679D01*
X50055825Y-44722136D01*
X50008681Y-44835951D01*
X49933686Y-44933686D01*
X49835951Y-45008681D01*
X49722136Y-45055825D01*
X49591679Y-45073000D01*
X49020448Y-45073000D01*
X48844024Y-45055624D01*
X48680363Y-45005978D01*
X48529542Y-44925363D01*
X48476293Y-44881662D01*
X48531100Y-44799638D01*
X48574595Y-44694631D01*
X48596769Y-44583156D01*
X48596769Y-44469496D01*
X48574595Y-44358021D01*
X48531100Y-44253014D01*
X48467954Y-44158510D01*
X48387585Y-44078141D01*
X48293081Y-44014995D01*
X48188074Y-43971500D01*
X48076599Y-43949326D01*
X47962939Y-43949326D01*
X47851464Y-43971500D01*
X47746457Y-44014995D01*
X47655426Y-44075820D01*
X47592532Y-44012926D01*
X47616050Y-43997212D01*
X47696419Y-43916843D01*
X47759565Y-43822339D01*
X47803060Y-43717332D01*
X47825234Y-43605857D01*
X47825234Y-43492197D01*
X47803060Y-43380722D01*
X47759565Y-43275715D01*
X47696419Y-43181211D01*
X47616050Y-43100842D01*
X47521546Y-43037696D01*
X47416539Y-42994201D01*
X47305064Y-42972027D01*
X47191404Y-42972027D01*
X47079929Y-42994201D01*
X46974922Y-43037696D01*
X46880418Y-43100842D01*
X46838577Y-43142683D01*
X46824544Y-43072133D01*
X46781049Y-42967126D01*
X46717903Y-42872622D01*
X46637534Y-42792253D01*
X46543030Y-42729107D01*
X46438023Y-42685612D01*
X46380212Y-42674113D01*
X46344376Y-42555976D01*
X46327000Y-42379552D01*
X46327000Y-35014214D01*
X46326388Y-35001766D01*
X46307173Y-34806675D01*
X46302317Y-34782257D01*
X46245412Y-34594664D01*
X46235884Y-34571663D01*
X46143474Y-34398776D01*
X46129642Y-34378075D01*
X46005279Y-34226539D01*
X45996910Y-34217304D01*
X45984798Y-34205192D01*
X45873023Y-34069185D01*
X45792660Y-33919578D01*
X45742804Y-33757233D01*
X45724706Y-33582115D01*
X45629327Y-16223017D01*
X45645971Y-16045267D01*
X45695392Y-15880309D01*
X45776260Y-15728264D01*
X45889413Y-15590193D01*
X51492504Y-9987102D01*
X51629542Y-9874637D01*
X51780363Y-9794022D01*
X51944024Y-9744376D01*
X52120448Y-9727000D01*
X52341672Y-9727000D01*
X52485079Y-9745880D01*
%TA.AperFunction,Conductor*%
D12*
G36*
X52485079Y-9745880D02*
G01*
X52610955Y-9798019D01*
X52719042Y-9880958D01*
X52801981Y-9989045D01*
X52854120Y-10114921D01*
X52873000Y-10258328D01*
X52873000Y-10491679D01*
X52855825Y-10622136D01*
X52808681Y-10735951D01*
X52733686Y-10833686D01*
X52635951Y-10908681D01*
X52522136Y-10955825D01*
X52391679Y-10973000D01*
X52214214Y-10973000D01*
X52201766Y-10973612D01*
X52006675Y-10992827D01*
X51982257Y-10997683D01*
X51794664Y-11054588D01*
X51771663Y-11064116D01*
X51598776Y-11156526D01*
X51578075Y-11170358D01*
X51426539Y-11294721D01*
X51417304Y-11303090D01*
X46903090Y-15817304D01*
X46894721Y-15826539D01*
X46770358Y-15978075D01*
X46756526Y-15998776D01*
X46664116Y-16171663D01*
X46654588Y-16194664D01*
X46597683Y-16382257D01*
X46592827Y-16406675D01*
X46573612Y-16601766D01*
X46573000Y-16614214D01*
X46573000Y-32285786D01*
X46573612Y-32298234D01*
X46592827Y-32493325D01*
X46597683Y-32517743D01*
X46654588Y-32705336D01*
X46664116Y-32728337D01*
X46756526Y-32901224D01*
X46770358Y-32921925D01*
X46894721Y-33073461D01*
X46903090Y-33082696D01*
X47312898Y-33492504D01*
X47425363Y-33629542D01*
X47505978Y-33780363D01*
X47555624Y-33944024D01*
X47573000Y-34120448D01*
X47573000Y-41085786D01*
X47573612Y-41098234D01*
X47592827Y-41293325D01*
X47597683Y-41317743D01*
X47654588Y-41505336D01*
X47664116Y-41528337D01*
X47756526Y-41701224D01*
X47770358Y-41721925D01*
X47894721Y-41873461D01*
X47903090Y-41882696D01*
X49185107Y-43164713D01*
X49188669Y-43173312D01*
X49251815Y-43267816D01*
X49332184Y-43348185D01*
X49426688Y-43411331D01*
X49435287Y-43414893D01*
X49812898Y-43792504D01*
X49925363Y-43929542D01*
X50005978Y-44080363D01*
X50055624Y-44244024D01*
X50073000Y-44420448D01*
X50073000Y-44591679D01*
X50055825Y-44722136D01*
X50008681Y-44835951D01*
X49933686Y-44933686D01*
X49835951Y-45008681D01*
X49722136Y-45055825D01*
X49591679Y-45073000D01*
X49020448Y-45073000D01*
X48844024Y-45055624D01*
X48680363Y-45005978D01*
X48529542Y-44925363D01*
X48476293Y-44881662D01*
X48531100Y-44799638D01*
X48574595Y-44694631D01*
X48596769Y-44583156D01*
X48596769Y-44469496D01*
X48574595Y-44358021D01*
X48531100Y-44253014D01*
X48467954Y-44158510D01*
X48387585Y-44078141D01*
X48293081Y-44014995D01*
X48188074Y-43971500D01*
X48076599Y-43949326D01*
X47962939Y-43949326D01*
X47851464Y-43971500D01*
X47746457Y-44014995D01*
X47655426Y-44075820D01*
X47592532Y-44012926D01*
X47616050Y-43997212D01*
X47696419Y-43916843D01*
X47759565Y-43822339D01*
X47803060Y-43717332D01*
X47825234Y-43605857D01*
X47825234Y-43492197D01*
X47803060Y-43380722D01*
X47759565Y-43275715D01*
X47696419Y-43181211D01*
X47616050Y-43100842D01*
X47521546Y-43037696D01*
X47416539Y-42994201D01*
X47305064Y-42972027D01*
X47191404Y-42972027D01*
X47079929Y-42994201D01*
X46974922Y-43037696D01*
X46880418Y-43100842D01*
X46838577Y-43142683D01*
X46824544Y-43072133D01*
X46781049Y-42967126D01*
X46717903Y-42872622D01*
X46637534Y-42792253D01*
X46543030Y-42729107D01*
X46438023Y-42685612D01*
X46380212Y-42674113D01*
X46344376Y-42555976D01*
X46327000Y-42379552D01*
X46327000Y-35014214D01*
X46326388Y-35001766D01*
X46307173Y-34806675D01*
X46302317Y-34782257D01*
X46245412Y-34594664D01*
X46235884Y-34571663D01*
X46143474Y-34398776D01*
X46129642Y-34378075D01*
X46005279Y-34226539D01*
X45996910Y-34217304D01*
X45984798Y-34205192D01*
X45873023Y-34069185D01*
X45792660Y-33919578D01*
X45742804Y-33757233D01*
X45724706Y-33582115D01*
X45629327Y-16223017D01*
X45645971Y-16045267D01*
X45695392Y-15880309D01*
X45776260Y-15728264D01*
X45889413Y-15590193D01*
X51492504Y-9987102D01*
X51629542Y-9874637D01*
X51780363Y-9794022D01*
X51944024Y-9744376D01*
X52120448Y-9727000D01*
X52341672Y-9727000D01*
X52485079Y-9745880D01*
G37*
%TD.AperFunction*%
%TD*%
M02*
