%TF.GenerationSoftware,KiCad,Pcbnew,5.1.7*%
%TF.CreationDate,2020-12-14T18:01:03+00:00*%
%TF.ProjectId,LT3045-4,4c543330-3435-42d3-942e-6b696361645f,rev?*%
%TF.SameCoordinates,Original*%
%TF.FileFunction,Copper,L4,Bot*%
%TF.FilePolarity,Positive*%
%FSLAX46Y46*%
G04 Gerber Fmt 4.6, Leading zero omitted, Abs format (unit mm)*
G04 Created by KiCad (PCBNEW 5.1.7) date 2020-12-14 18:01:03*
%MOMM*%
%LPD*%
G01*
G04 APERTURE LIST*
%TA.AperFunction,SMDPad,CuDef*%
%ADD10R,5.080000X1.500000*%
%TD*%
%TA.AperFunction,ViaPad*%
%ADD11C,0.500000*%
%TD*%
%TA.AperFunction,Conductor*%
%ADD12C,0.200000*%
%TD*%
%TA.AperFunction,Conductor*%
%ADD13C,0.250000*%
%TD*%
%TA.AperFunction,Conductor*%
%ADD14C,0.254000*%
%TD*%
%TA.AperFunction,Conductor*%
%ADD15C,0.100000*%
%TD*%
G04 APERTURE END LIST*
D10*
%TO.P,J1,2*%
%TO.N,Net-(J1-Pad2)*%
X3000000Y-20750000D03*
X3000000Y-29250000D03*
%TD*%
%TO.P,J2,2*%
%TO.N,GND*%
X97000000Y-20750000D03*
X97000000Y-29250000D03*
%TD*%
D11*
%TO.N,GND*%
X51489175Y-48650000D03*
X52492268Y-48650000D03*
X53495360Y-48650000D03*
X54498453Y-48650000D03*
X55501546Y-48650000D03*
X56489175Y-48650000D03*
X89616644Y-18811618D03*
X91466227Y-19450000D03*
X92551696Y-19450000D03*
X93637166Y-19450000D03*
X99350000Y-18581299D03*
X99350000Y-17577337D03*
X99350000Y-16573375D03*
X99350000Y-15569413D03*
X99350000Y-14565451D03*
X99350000Y-13561489D03*
X99350000Y-12557527D03*
X99350000Y-11553565D03*
X99350000Y-10549603D03*
X99350000Y-9545641D03*
X99350000Y-8541679D03*
X99350000Y-7537717D03*
X99350000Y-6533755D03*
X99350000Y-5529793D03*
X99350000Y-4525831D03*
X99350000Y-3521869D03*
X99350000Y-2517907D03*
X99350000Y-1513945D03*
X99059472Y-655089D03*
X98055800Y-650000D03*
X97051838Y-650000D03*
X96047876Y-650000D03*
X95043914Y-650000D03*
X94039952Y-650000D03*
X93035990Y-650000D03*
X92032029Y-650000D03*
X91028067Y-650000D03*
X90024105Y-650000D03*
X89020143Y-650000D03*
X88016181Y-650000D03*
X87012219Y-650000D03*
X86008257Y-650000D03*
X85004295Y-650000D03*
X84000333Y-650000D03*
X82996371Y-650000D03*
X81992409Y-650000D03*
X80988447Y-650000D03*
X79984485Y-650000D03*
X78980523Y-650000D03*
X77976561Y-650000D03*
X76972599Y-650000D03*
X75968637Y-650000D03*
X74964675Y-650000D03*
X73960713Y-650000D03*
X72956751Y-650000D03*
X71952789Y-650000D03*
X70948827Y-650000D03*
X69944865Y-650000D03*
X68940903Y-650000D03*
X67936941Y-650000D03*
X66932979Y-650000D03*
X65929017Y-650000D03*
X64925055Y-650000D03*
X63921093Y-650000D03*
X62917131Y-650000D03*
X61913169Y-650000D03*
X60909207Y-650000D03*
X59905245Y-650000D03*
X58901283Y-650000D03*
X57897322Y-650000D03*
X56893360Y-650000D03*
X55889398Y-650000D03*
X54885436Y-650000D03*
X53881474Y-650000D03*
X52877512Y-650000D03*
X51873550Y-650000D03*
X50869588Y-650000D03*
X49865626Y-650000D03*
X48861664Y-650000D03*
X47857702Y-650000D03*
X46853740Y-650000D03*
X45849778Y-650000D03*
X44845816Y-650000D03*
X43841854Y-650000D03*
X42837892Y-650000D03*
X41833930Y-650000D03*
X40829968Y-650000D03*
X39826006Y-650000D03*
X38822044Y-650000D03*
X37818082Y-650000D03*
X36814120Y-650000D03*
X35810158Y-650000D03*
X34806196Y-650000D03*
X33802234Y-650000D03*
X32798272Y-650000D03*
X31794310Y-650000D03*
X30790348Y-650000D03*
X29786386Y-650000D03*
X28782424Y-650000D03*
X27778462Y-650000D03*
X26774500Y-650000D03*
X25770538Y-650000D03*
X24766577Y-650000D03*
X23762615Y-650000D03*
X22758653Y-650000D03*
X21754691Y-650000D03*
X20750729Y-650000D03*
X19746767Y-650000D03*
X18742805Y-650000D03*
X17738843Y-650000D03*
X16734881Y-650000D03*
X15730919Y-650000D03*
X14726957Y-650000D03*
X13722995Y-650000D03*
X12719033Y-650000D03*
X11715071Y-650000D03*
X10711109Y-650000D03*
X9707147Y-650000D03*
X8703185Y-650000D03*
X7699223Y-650000D03*
X6695261Y-650000D03*
X5691299Y-650000D03*
X4687337Y-650000D03*
X3683375Y-650000D03*
X2679413Y-650000D03*
X1675451Y-650000D03*
X717644Y-793178D03*
X650000Y-1782693D03*
X650000Y-2786655D03*
X650000Y-3790617D03*
X650000Y-4794579D03*
X650000Y-5798541D03*
X650000Y-6802503D03*
X650000Y-7806465D03*
X650000Y-8810427D03*
X650000Y-9814389D03*
X650000Y-10818350D03*
X650000Y-11822312D03*
X650000Y-12826274D03*
X650000Y-13830236D03*
X650000Y-14834198D03*
X1997610Y-15650000D03*
X2999311Y-15650000D03*
X4001012Y-15650000D03*
X5002713Y-15650000D03*
X6004414Y-15650000D03*
X7006115Y-15650000D03*
X8007815Y-15650000D03*
X9009516Y-15650000D03*
X10011217Y-15650000D03*
X11012918Y-15650000D03*
X12014619Y-15650000D03*
X13016320Y-15650000D03*
X14018020Y-15650000D03*
X15019721Y-15650000D03*
X16021422Y-15650000D03*
X17023123Y-15650000D03*
X18024824Y-15650000D03*
X19026525Y-15650000D03*
X20028226Y-15650000D03*
X21003513Y-15491213D03*
X25717857Y-13800036D03*
X26660726Y-13461800D03*
X27603594Y-13123565D03*
X28546463Y-12785329D03*
X29489332Y-12447094D03*
X30432200Y-12108859D03*
X31375069Y-11770623D03*
X32317938Y-11432388D03*
X33260806Y-11094152D03*
X34203675Y-10755917D03*
X35146544Y-10417681D03*
X36089413Y-10079446D03*
X37032281Y-9741211D03*
X37975150Y-9402975D03*
X38918019Y-9064740D03*
X39860887Y-8726504D03*
X40803756Y-8388269D03*
X41746625Y-8050033D03*
X42689493Y-7711798D03*
X43632362Y-7373562D03*
X44575231Y-7035327D03*
X45518100Y-6697092D03*
X46460968Y-6358856D03*
X47403837Y-6020621D03*
X48346706Y-5682385D03*
X49289574Y-5344150D03*
X50232443Y-5005914D03*
X51175312Y-4667679D03*
X87747487Y-19247487D03*
X88900000Y-18094974D03*
X90380775Y-19449471D03*
X988384Y-15649807D03*
X52118181Y-4329444D03*
X50929009Y-4012357D03*
X49976200Y-4354158D03*
X49023391Y-4695960D03*
X48070582Y-5037761D03*
X47117773Y-5379562D03*
X46164964Y-5721364D03*
X45212155Y-6063165D03*
X44259346Y-6404966D03*
X43306537Y-6746767D03*
X42353728Y-7088569D03*
X41400919Y-7430370D03*
X40448110Y-7772172D03*
X39495301Y-8113973D03*
X38542492Y-8455774D03*
X37589683Y-8797576D03*
X36636874Y-9139377D03*
X35684065Y-9481178D03*
X34731256Y-9822980D03*
X33778447Y-10164781D03*
X32825638Y-10506582D03*
X31872829Y-10848384D03*
X30920020Y-11190185D03*
X29967211Y-11531986D03*
X29014402Y-11873788D03*
X28061593Y-12215589D03*
X27108784Y-12557390D03*
X26155975Y-12899192D03*
X25203166Y-13240993D03*
X24250357Y-13582794D03*
X23297548Y-13924596D03*
X19434430Y-14950000D03*
X18429739Y-14950000D03*
X17425049Y-14950000D03*
X16420358Y-14950000D03*
X15415668Y-14950000D03*
X14410977Y-14950000D03*
X13406286Y-14950000D03*
X12401596Y-14950000D03*
X11396905Y-14950000D03*
X10392215Y-14950000D03*
X9387524Y-14950000D03*
X8382834Y-14950000D03*
X7378143Y-14950000D03*
X6373452Y-14950000D03*
X5368762Y-14950000D03*
X4364071Y-14950000D03*
X3359381Y-14950000D03*
X2354690Y-14950000D03*
X1350000Y-13903846D03*
X1350000Y-12857692D03*
X1350000Y-11811538D03*
X1350000Y-10765384D03*
X1350000Y-9719230D03*
X1350000Y-8673076D03*
X1350000Y-7626923D03*
X1350000Y-6580769D03*
X1350000Y-5534615D03*
X1350000Y-4488461D03*
X1350000Y-3442307D03*
X1350000Y-2396153D03*
X2353092Y-1350000D03*
X3356185Y-1350000D03*
X4359278Y-1350000D03*
X5362371Y-1350000D03*
X6365463Y-1350000D03*
X7368556Y-1350000D03*
X8371649Y-1350000D03*
X9374742Y-1350000D03*
X10377835Y-1350000D03*
X11380927Y-1350000D03*
X12384020Y-1350000D03*
X13387113Y-1350000D03*
X14390206Y-1350000D03*
X15393298Y-1350000D03*
X16396391Y-1350000D03*
X17399484Y-1350000D03*
X18402577Y-1350000D03*
X19405670Y-1350000D03*
X20408762Y-1350000D03*
X21411855Y-1350000D03*
X22414948Y-1350000D03*
X23418041Y-1350000D03*
X24421134Y-1350000D03*
X25424226Y-1350000D03*
X26427319Y-1350000D03*
X27430412Y-1350000D03*
X28433505Y-1350000D03*
X29436597Y-1350000D03*
X30439690Y-1350000D03*
X31442783Y-1350000D03*
X32445876Y-1350000D03*
X33448969Y-1350000D03*
X34452061Y-1350000D03*
X35455154Y-1350000D03*
X36458247Y-1350000D03*
X37461340Y-1350000D03*
X38464432Y-1350000D03*
X39467525Y-1350000D03*
X40470618Y-1350000D03*
X41473711Y-1350000D03*
X42476804Y-1350000D03*
X43479896Y-1350000D03*
X44482989Y-1350000D03*
X45486082Y-1350000D03*
X46489175Y-1350000D03*
X47492268Y-1350000D03*
X48495360Y-1350000D03*
X49498453Y-1350000D03*
X50501546Y-1350000D03*
X51504639Y-1350000D03*
X52507731Y-1350000D03*
X53510824Y-1350000D03*
X54513917Y-1350000D03*
X55517010Y-1350000D03*
X56520103Y-1350000D03*
X57523195Y-1350000D03*
X58526288Y-1350000D03*
X59529381Y-1350000D03*
X60532474Y-1350000D03*
X61535567Y-1350000D03*
X62538659Y-1350000D03*
X63541752Y-1350000D03*
X64544845Y-1350000D03*
X65547938Y-1350000D03*
X66551030Y-1350000D03*
X67554123Y-1350000D03*
X68557216Y-1350000D03*
X69560309Y-1350000D03*
X70563402Y-1350000D03*
X71566494Y-1350000D03*
X72569587Y-1350000D03*
X73572680Y-1350000D03*
X74575773Y-1350000D03*
X75578865Y-1350000D03*
X76581958Y-1350000D03*
X77585051Y-1350000D03*
X78588144Y-1350000D03*
X79591237Y-1350000D03*
X80594329Y-1350000D03*
X81597422Y-1350000D03*
X82600515Y-1350000D03*
X83603608Y-1350000D03*
X84606701Y-1350000D03*
X85609793Y-1350000D03*
X86612886Y-1350000D03*
X87615979Y-1350000D03*
X88619072Y-1350000D03*
X89622164Y-1350000D03*
X90625257Y-1350000D03*
X91628350Y-1350000D03*
X92631443Y-1350000D03*
X93634536Y-1350000D03*
X94637628Y-1350000D03*
X95640721Y-1350000D03*
X96643814Y-1350000D03*
X97646907Y-1350000D03*
X98650000Y-2373529D03*
X98650000Y-3397058D03*
X98650000Y-4420588D03*
X98650000Y-5444117D03*
X98650000Y-6467647D03*
X98650000Y-7491176D03*
X98650000Y-8514705D03*
X98650000Y-9538235D03*
X98650000Y-10561764D03*
X98650000Y-11585294D03*
X98650000Y-12608823D03*
X98650000Y-13632352D03*
X98650000Y-14655882D03*
X98650000Y-15679411D03*
X98650000Y-16702941D03*
X98650000Y-17726470D03*
X97636871Y-18750000D03*
X96623743Y-18750000D03*
X95610615Y-18750000D03*
X94597487Y-18750000D03*
X93584358Y-18750000D03*
X92571230Y-18750000D03*
X91558102Y-18750000D03*
X89748414Y-17953440D03*
X88898223Y-17250005D03*
X88049072Y-17955953D03*
X51881818Y-3670556D03*
X20439121Y-14950000D03*
X1350000Y-14950000D03*
X1350000Y-1350000D03*
X98650000Y-1350000D03*
X98650000Y-18750000D03*
X90544974Y-18750000D03*
X47248234Y-43549027D03*
X46269718Y-43240438D03*
X45291201Y-42931850D03*
X44312685Y-42623261D03*
X43334169Y-42314672D03*
X42355652Y-42006084D03*
X41377136Y-41697495D03*
X40398620Y-41388906D03*
X39420103Y-41080317D03*
X38441587Y-40771729D03*
X37463071Y-40463140D03*
X36484554Y-40154551D03*
X35506038Y-39845963D03*
X34527522Y-39537374D03*
X33549005Y-39228785D03*
X32570489Y-38920197D03*
X31591973Y-38611608D03*
X30613457Y-38303019D03*
X29634940Y-37994430D03*
X28656424Y-37685842D03*
X27677908Y-37377253D03*
X26699391Y-37068664D03*
X25720875Y-36760076D03*
X24742359Y-36451487D03*
X23763842Y-36142898D03*
X20828293Y-35217132D03*
X19849777Y-34908543D03*
X18871261Y-34599955D03*
X17892744Y-34291366D03*
X16914228Y-33982777D03*
X15935712Y-33674189D03*
X14957195Y-33365600D03*
X13978679Y-33057011D03*
X13000163Y-32748422D03*
X11008279Y-32450000D03*
X9997308Y-32450000D03*
X8986337Y-32450000D03*
X7975366Y-32450000D03*
X6964395Y-32450000D03*
X5953424Y-32450000D03*
X4942453Y-32450000D03*
X3931482Y-32450000D03*
X2920511Y-32450000D03*
X1909540Y-32450000D03*
X899982Y-32464594D03*
X650000Y-33362622D03*
X650000Y-34373594D03*
X650000Y-35384565D03*
X650000Y-36395536D03*
X650000Y-37406507D03*
X650000Y-38417478D03*
X650000Y-39428449D03*
X650000Y-40439420D03*
X650000Y-41450391D03*
X650000Y-42461362D03*
X650000Y-43472333D03*
X650000Y-44483304D03*
X650000Y-45494275D03*
X650000Y-46505246D03*
X650000Y-47516217D03*
X650000Y-48527188D03*
X1995995Y-49350000D03*
X2996080Y-49350000D03*
X3996166Y-49350000D03*
X4996251Y-49350000D03*
X5996336Y-49350000D03*
X6996422Y-49350000D03*
X7996507Y-49350000D03*
X8996592Y-49350000D03*
X9996678Y-49350000D03*
X10996763Y-49350000D03*
X11996848Y-49350000D03*
X12996934Y-49350000D03*
X13997019Y-49350000D03*
X14997105Y-49350000D03*
X15997190Y-49350000D03*
X16997275Y-49350000D03*
X17997361Y-49350000D03*
X18997446Y-49350000D03*
X19997531Y-49350000D03*
X20997617Y-49350000D03*
X21997702Y-49350000D03*
X22997788Y-49350000D03*
X23997873Y-49350000D03*
X24997958Y-49350000D03*
X25998044Y-49350000D03*
X26998129Y-49350000D03*
X27998214Y-49350000D03*
X28998300Y-49350000D03*
X29998385Y-49350000D03*
X30998470Y-49350000D03*
X31998556Y-49350000D03*
X32998641Y-49350000D03*
X33998727Y-49350000D03*
X34998812Y-49350000D03*
X35998897Y-49350000D03*
X36998983Y-49350000D03*
X37999068Y-49350000D03*
X38999153Y-49350000D03*
X39999239Y-49350000D03*
X40999324Y-49350000D03*
X41999410Y-49350000D03*
X42999495Y-49350000D03*
X43999580Y-49350000D03*
X44999666Y-49350000D03*
X45999751Y-49350000D03*
X46999836Y-49350000D03*
X47999922Y-49350000D03*
X49000007Y-49350000D03*
X50000093Y-49350000D03*
X51000178Y-49350000D03*
X52000263Y-49350000D03*
X53000349Y-49350000D03*
X54000434Y-49350000D03*
X55000519Y-49350000D03*
X56000605Y-49350000D03*
X57000690Y-49350000D03*
X58000775Y-49350000D03*
X59000861Y-49350000D03*
X60000946Y-49350000D03*
X61001032Y-49350000D03*
X62001117Y-49350000D03*
X63001202Y-49350000D03*
X64001288Y-49350000D03*
X65001373Y-49350000D03*
X66001458Y-49350000D03*
X67001544Y-49350000D03*
X68001629Y-49350000D03*
X69001715Y-49350000D03*
X70001800Y-49350000D03*
X71001885Y-49350000D03*
X72001971Y-49350000D03*
X73002056Y-49350000D03*
X74002141Y-49350000D03*
X75002227Y-49350000D03*
X76002312Y-49350000D03*
X77002397Y-49350000D03*
X78002483Y-49350000D03*
X79002568Y-49350000D03*
X80002654Y-49350000D03*
X81002739Y-49350000D03*
X82002824Y-49350000D03*
X83002910Y-49350000D03*
X84002995Y-49350000D03*
X85003080Y-49350000D03*
X86003166Y-49350000D03*
X87003251Y-49350000D03*
X88003337Y-49350000D03*
X89003422Y-49350000D03*
X90003507Y-49350000D03*
X91003593Y-49350000D03*
X92003678Y-49350000D03*
X93003763Y-49350000D03*
X94003849Y-49350000D03*
X95003934Y-49350000D03*
X96004020Y-49350000D03*
X97004105Y-49350000D03*
X98004190Y-49350000D03*
X99350000Y-48456301D03*
X99350000Y-47427342D03*
X99350000Y-46398382D03*
X99350000Y-45369422D03*
X99350000Y-44340463D03*
X99350000Y-43311503D03*
X99350000Y-42282543D03*
X99350000Y-41253584D03*
X99350000Y-40224624D03*
X99350000Y-39195664D03*
X99350000Y-38166705D03*
X99350000Y-37137745D03*
X99350000Y-36108786D03*
X99350000Y-35079826D03*
X99350000Y-34050866D03*
X99350000Y-33021907D03*
X99350000Y-31992947D03*
X99350000Y-30963987D03*
X93440009Y-30550000D03*
X92411049Y-30550000D03*
X91382089Y-30550000D03*
X90353130Y-30550000D03*
X89527584Y-31077441D03*
X12019233Y-32450529D03*
X988383Y-49349807D03*
X99004276Y-49349974D03*
X88800000Y-31805026D03*
X89627308Y-31967665D03*
X91383102Y-31250000D03*
X92421230Y-31250000D03*
X93459358Y-31250000D03*
X94497487Y-31250000D03*
X95535615Y-31250000D03*
X96573743Y-31250000D03*
X97611871Y-31250000D03*
X98650000Y-32273529D03*
X98650000Y-33297058D03*
X98650000Y-34320588D03*
X98650000Y-35344117D03*
X98650000Y-36367647D03*
X98650000Y-37391176D03*
X98650000Y-38414705D03*
X98650000Y-39438235D03*
X98650000Y-40461764D03*
X98650000Y-41485294D03*
X98650000Y-42508823D03*
X98650000Y-43532352D03*
X98650000Y-44555882D03*
X98650000Y-45579411D03*
X98650000Y-46602941D03*
X98650000Y-47626470D03*
X97646907Y-48650000D03*
X96643814Y-48650000D03*
X95640721Y-48650000D03*
X94637628Y-48650000D03*
X93634536Y-48650000D03*
X92631443Y-48650000D03*
X91628350Y-48650000D03*
X90625257Y-48650000D03*
X89622164Y-48650000D03*
X88619072Y-48650000D03*
X87615979Y-48650000D03*
X86612886Y-48650000D03*
X85609793Y-48650000D03*
X84606701Y-48650000D03*
X83603608Y-48650000D03*
X82600515Y-48650000D03*
X81597422Y-48650000D03*
X80594329Y-48650000D03*
X79591237Y-48650000D03*
X78588144Y-48650000D03*
X77585051Y-48650000D03*
X76581958Y-48650000D03*
X75578865Y-48650000D03*
X74575773Y-48650000D03*
X73572680Y-48650000D03*
X72569587Y-48650000D03*
X71566494Y-48650000D03*
X70563402Y-48650000D03*
X69560309Y-48650000D03*
X68557216Y-48650000D03*
X67554123Y-48650000D03*
X66551030Y-48650000D03*
X65547938Y-48650000D03*
X64544845Y-48650000D03*
X63541752Y-48650000D03*
X62538659Y-48650000D03*
X61535567Y-48650000D03*
X60532474Y-48650000D03*
X59529381Y-48650000D03*
X58526288Y-48650000D03*
X57523195Y-48650000D03*
X50501546Y-48650000D03*
X49498453Y-48650000D03*
X48495360Y-48650000D03*
X47492268Y-48650000D03*
X46489175Y-48650000D03*
X45486082Y-48650000D03*
X44482989Y-48650000D03*
X43479896Y-48650000D03*
X42476804Y-48650000D03*
X41473711Y-48650000D03*
X40470618Y-48650000D03*
X39467525Y-48650000D03*
X38464432Y-48650000D03*
X37461340Y-48650000D03*
X36458247Y-48650000D03*
X35455154Y-48650000D03*
X34452061Y-48650000D03*
X33448969Y-48650000D03*
X32445876Y-48650000D03*
X31442783Y-48650000D03*
X30439690Y-48650000D03*
X29436597Y-48650000D03*
X28433505Y-48650000D03*
X27430412Y-48650000D03*
X26427319Y-48650000D03*
X25424226Y-48650000D03*
X24421134Y-48650000D03*
X23418041Y-48650000D03*
X22414948Y-48650000D03*
X21411855Y-48650000D03*
X20408762Y-48650000D03*
X19405670Y-48650000D03*
X18402577Y-48650000D03*
X17399484Y-48650000D03*
X16396391Y-48650000D03*
X15393298Y-48650000D03*
X14390206Y-48650000D03*
X13387113Y-48650000D03*
X12384020Y-48650000D03*
X11380927Y-48650000D03*
X10377835Y-48650000D03*
X9374742Y-48650000D03*
X8371649Y-48650000D03*
X7368556Y-48650000D03*
X6365463Y-48650000D03*
X5362371Y-48650000D03*
X4359278Y-48650000D03*
X3356185Y-48650000D03*
X2353092Y-48650000D03*
X1350000Y-47616666D03*
X1350000Y-46583333D03*
X1350000Y-45550000D03*
X1350000Y-44516666D03*
X1350000Y-43483333D03*
X1350000Y-42450000D03*
X1350000Y-41416666D03*
X1350000Y-40383333D03*
X1350000Y-39350000D03*
X1350000Y-38316666D03*
X1350000Y-37283333D03*
X1350000Y-36250000D03*
X1350000Y-35216666D03*
X1350000Y-34183333D03*
X2409611Y-33150000D03*
X3469223Y-33150000D03*
X4528835Y-33150000D03*
X5588447Y-33150000D03*
X6648059Y-33150000D03*
X7707670Y-33150000D03*
X8767282Y-33150000D03*
X9826894Y-33150000D03*
X10886506Y-33150000D03*
X12921081Y-33457468D03*
X13896045Y-33764936D03*
X14871008Y-34072404D03*
X15845972Y-34379873D03*
X16820935Y-34687341D03*
X17795899Y-34994809D03*
X18770862Y-35302278D03*
X19745826Y-35609746D03*
X20720789Y-35917214D03*
X21695753Y-36224682D03*
X22670717Y-36532151D03*
X23645680Y-36839619D03*
X24620644Y-37147087D03*
X25595607Y-37454556D03*
X26570571Y-37762024D03*
X27545534Y-38069492D03*
X28520498Y-38376960D03*
X29495461Y-38684429D03*
X30470425Y-38991897D03*
X31445389Y-39299365D03*
X32420352Y-39606834D03*
X33395316Y-39914302D03*
X34370279Y-40221770D03*
X35345243Y-40529238D03*
X36320206Y-40836707D03*
X37295170Y-41144175D03*
X38270133Y-41451643D03*
X39245097Y-41759112D03*
X40220061Y-42066580D03*
X41195024Y-42374048D03*
X42169988Y-42681516D03*
X43144951Y-42988985D03*
X44119915Y-43296453D03*
X45094878Y-43603921D03*
X46069842Y-43911390D03*
X47044805Y-44218858D03*
X48019769Y-44526326D03*
X88780490Y-32649456D03*
X90344974Y-31250000D03*
X98650000Y-31250000D03*
X98650000Y-48650000D03*
X1350000Y-48650000D03*
X1350000Y-33150000D03*
X11946118Y-33150000D03*
X19500000Y-19500000D03*
X59211897Y-30175547D03*
X61261897Y-30032690D03*
X63311897Y-29889833D03*
X64336897Y-29818404D03*
X65361897Y-29746976D03*
X66386897Y-29675547D03*
X67411897Y-29604118D03*
X68436897Y-29532690D03*
X69461897Y-29461261D03*
X70486897Y-29389833D03*
X71511897Y-29318404D03*
X72536897Y-29246976D03*
X73561897Y-29175547D03*
X74586897Y-29104118D03*
X75611897Y-29032690D03*
X76636897Y-28961261D03*
X77661897Y-28889833D03*
X78686897Y-28818404D03*
X79711897Y-28746976D03*
X80736897Y-28675547D03*
X81761897Y-28604118D03*
X82786897Y-28532690D03*
X83811897Y-28461261D03*
X84836897Y-28389833D03*
X85861897Y-28318404D03*
X82613103Y-26038738D03*
X81588103Y-26110166D03*
X80563103Y-26181595D03*
X79538103Y-26253024D03*
X78513103Y-26324452D03*
X77488103Y-26395881D03*
X76463103Y-26467309D03*
X75438103Y-26538738D03*
X74413103Y-26610166D03*
X73388103Y-26681595D03*
X72363103Y-26753024D03*
X71338103Y-26824452D03*
X70313103Y-26895881D03*
X69288103Y-26967309D03*
X68263103Y-27038738D03*
X67238103Y-27110166D03*
X66213103Y-27181595D03*
X65188103Y-27253024D03*
X64163103Y-27324452D03*
X58013103Y-27753024D03*
X61475454Y-40329914D03*
X62423730Y-39985086D03*
X63372006Y-39640259D03*
X64320282Y-39295431D03*
X65268558Y-38950604D03*
X66216834Y-38605776D03*
X67165110Y-38260948D03*
X68113385Y-37916121D03*
X69061661Y-37571293D03*
X70009937Y-37226466D03*
X70958213Y-36881638D03*
X71906489Y-36536810D03*
X72854765Y-36191983D03*
X73803041Y-35847155D03*
X74751316Y-35502328D03*
X75699592Y-35157500D03*
X76647868Y-34812673D03*
X77596144Y-34467845D03*
X78544420Y-34123017D03*
X79492696Y-33778190D03*
X80440972Y-33433362D03*
X81389247Y-33088535D03*
X82337523Y-32743707D03*
X83285799Y-32398879D03*
X84234075Y-32054052D03*
X85182351Y-31709224D03*
X86130627Y-31364397D03*
X87078903Y-31019569D03*
X60527179Y-40674742D03*
X86224545Y-28670085D03*
X85276269Y-29014913D03*
X84327993Y-29359740D03*
X83379717Y-29704568D03*
X82431441Y-30049395D03*
X81483165Y-30394223D03*
X80534889Y-30739051D03*
X79586614Y-31083878D03*
X78638338Y-31428706D03*
X77690062Y-31773533D03*
X76741786Y-32118361D03*
X75793510Y-32463189D03*
X74845234Y-32808016D03*
X73896958Y-33152844D03*
X72948683Y-33497671D03*
X72000407Y-33842499D03*
X71052131Y-34187326D03*
X70103855Y-34532154D03*
X69155579Y-34876982D03*
X68207303Y-35221809D03*
X67259027Y-35566637D03*
X66310752Y-35911464D03*
X65362476Y-36256292D03*
X64414200Y-36601120D03*
X63465924Y-36945947D03*
X62517648Y-37290775D03*
X61569372Y-37635602D03*
X60621096Y-37980430D03*
X80436003Y-23137119D03*
X79422210Y-22980223D03*
X78408417Y-22823326D03*
X77394624Y-22666430D03*
X76380831Y-22509533D03*
X75367038Y-22352637D03*
X74353244Y-22195740D03*
X73339451Y-22038843D03*
X72325658Y-21881947D03*
X71311865Y-21725050D03*
X70298072Y-21568154D03*
X69284279Y-21411257D03*
X68270486Y-21254361D03*
X67256693Y-21097464D03*
X66242900Y-20940568D03*
X65229107Y-20783671D03*
X64215313Y-20626774D03*
X62187727Y-20312981D03*
X60160141Y-19999188D03*
X60791582Y-22626673D03*
X63832961Y-23097362D03*
X64846755Y-23254259D03*
X65860548Y-23411156D03*
X66874341Y-23568052D03*
X67888134Y-23724949D03*
X68901927Y-23881845D03*
X69915720Y-24038742D03*
X70929513Y-24195638D03*
X71943306Y-24352535D03*
X72957099Y-24509431D03*
X73970892Y-24666328D03*
X74984686Y-24823225D03*
X75998479Y-24980121D03*
X77012272Y-25137018D03*
X78026065Y-25293914D03*
X79039858Y-25450811D03*
X80053651Y-25607707D03*
X81067444Y-25764604D03*
X54708824Y-21685294D03*
X85184414Y-21275036D03*
X84215448Y-21016415D03*
X83246483Y-20757795D03*
X82277517Y-20499174D03*
X81308552Y-20240553D03*
X80339586Y-19981933D03*
X79370621Y-19723312D03*
X78401655Y-19464691D03*
X77432690Y-19206071D03*
X76463724Y-18947450D03*
X75494759Y-18688829D03*
X74525793Y-18430209D03*
X73556828Y-18171588D03*
X72587862Y-17912967D03*
X71618897Y-17654346D03*
X70649931Y-17395726D03*
X69680966Y-17137105D03*
X68712000Y-16878484D03*
X67743035Y-16619864D03*
X66774069Y-16361243D03*
X65805104Y-16102622D03*
X64836138Y-15844002D03*
X63867173Y-15585381D03*
X61929242Y-15068140D03*
X59991311Y-14550898D03*
X60315585Y-17224963D03*
X62253516Y-17742204D03*
X64191447Y-18259446D03*
X65160413Y-18518066D03*
X66129378Y-18776687D03*
X67098344Y-19035308D03*
X68067309Y-19293928D03*
X69036275Y-19552549D03*
X70005240Y-19811170D03*
X70974206Y-20069790D03*
X71943171Y-20328411D03*
X72912137Y-20587032D03*
X73881102Y-20845653D03*
X74850068Y-21104273D03*
X75819033Y-21362894D03*
X76787999Y-21621515D03*
X77756964Y-21880135D03*
X78725930Y-22138756D03*
X79694895Y-22397377D03*
X80663861Y-22655997D03*
X81632826Y-22914618D03*
X83570757Y-23431859D03*
X58377655Y-16707722D03*
X86499907Y-18450901D03*
X85621335Y-17908044D03*
X84742764Y-17365187D03*
X83864192Y-16822330D03*
X82985621Y-16279473D03*
X82107050Y-15736616D03*
X81228478Y-15193758D03*
X80349907Y-14650901D03*
X79471335Y-14108044D03*
X78592764Y-13565187D03*
X77714192Y-13022330D03*
X76835621Y-12479473D03*
X75957050Y-11936616D03*
X75078478Y-11393758D03*
X74199907Y-10850901D03*
X73321335Y-10308044D03*
X72442764Y-9765187D03*
X71564192Y-9222330D03*
X70685621Y-8679473D03*
X69807050Y-8136616D03*
X68928478Y-7593758D03*
X68049907Y-7050901D03*
X67171335Y-6508044D03*
X66292764Y-5965187D03*
X65414192Y-5422330D03*
X64535621Y-4879473D03*
X63657050Y-4336616D03*
X63221521Y-7006241D03*
X64100092Y-7549098D03*
X64978664Y-8091955D03*
X65857235Y-8634812D03*
X66735807Y-9177669D03*
X67614378Y-9720526D03*
X68492950Y-10263384D03*
X69371521Y-10806241D03*
X70250092Y-11349098D03*
X71128664Y-11891955D03*
X72007235Y-12434812D03*
X72885807Y-12977669D03*
X73764378Y-13520526D03*
X74642950Y-14063384D03*
X75521521Y-14606241D03*
X76400092Y-15149098D03*
X77278664Y-15691955D03*
X78157235Y-16234812D03*
X79035807Y-16777669D03*
X79914378Y-17320526D03*
X80792950Y-17863384D03*
X81671521Y-18406241D03*
X82550092Y-18949098D03*
X83428664Y-19491955D03*
X84307235Y-20034812D03*
X85185807Y-20577669D03*
X86064378Y-21120526D03*
X56600000Y-47300000D03*
X54600000Y-47800000D03*
X53800000Y-46800000D03*
X55400000Y-46800000D03*
X54200000Y-47300000D03*
X51800000Y-46300000D03*
X52200000Y-45800000D03*
X53000000Y-46800000D03*
X53400000Y-47300000D03*
X52600000Y-47300000D03*
X56200000Y-46800000D03*
X52200000Y-47800000D03*
X56200000Y-47800000D03*
X52200000Y-46800000D03*
X55000000Y-46300000D03*
X51800000Y-47300000D03*
X55000000Y-47300000D03*
X53800000Y-45800000D03*
X53000000Y-47800000D03*
X53400000Y-46300000D03*
X53400000Y-45300000D03*
X53800000Y-47800000D03*
X53000000Y-45800000D03*
X55400000Y-45800000D03*
X54200000Y-46300000D03*
X55800000Y-46300000D03*
X54600000Y-46800000D03*
X52600000Y-45300000D03*
X55800000Y-47300000D03*
X55400000Y-47800000D03*
X52600000Y-46300000D03*
X54600000Y-45800000D03*
X54600000Y-42500000D03*
X54600000Y-43700000D03*
X54100000Y-43400000D03*
X54100000Y-42800000D03*
X54100000Y-42200000D03*
X53500000Y-42200000D03*
X53500000Y-42800000D03*
X53500000Y-43400000D03*
X54100000Y-44000000D03*
X53500000Y-44000000D03*
X51000000Y-31600000D03*
X51600000Y-31600000D03*
X52100000Y-31900000D03*
X52100000Y-33100000D03*
X51600000Y-32200000D03*
X51000000Y-32200000D03*
X51600000Y-32800000D03*
X51000000Y-32800000D03*
X51600000Y-33400000D03*
X51000000Y-33400000D03*
X52500000Y-18200000D03*
X51900000Y-18200000D03*
X53100000Y-18500000D03*
X53100000Y-19700000D03*
X52500000Y-18800000D03*
X51900000Y-18800000D03*
X52500000Y-19400000D03*
X51900000Y-19400000D03*
X52500000Y-20000000D03*
X51900000Y-20000000D03*
X57500000Y-10200000D03*
X57500000Y-9600000D03*
X57500000Y-8400000D03*
X57000000Y-8700000D03*
X57000000Y-8100000D03*
X56400000Y-8100000D03*
X56400000Y-8700000D03*
X56400000Y-9300000D03*
X57000000Y-9900000D03*
X56400000Y-9900000D03*
X19600000Y-21100000D03*
X56100000Y-7500000D03*
X56700000Y-7500000D03*
X57300000Y-7500000D03*
X57500000Y-9000000D03*
X57000000Y-9300000D03*
X55600000Y-7000000D03*
X55100000Y-6500000D03*
X54600000Y-6000000D03*
X54100000Y-5500000D03*
X53600000Y-5000000D03*
X55200000Y-11000000D03*
X56000000Y-11000000D03*
X55600000Y-11500000D03*
X56400000Y-11500000D03*
X57200000Y-11500000D03*
X57600000Y-12000000D03*
X56800000Y-12000000D03*
X56000000Y-12000000D03*
X55200000Y-12000000D03*
X58800000Y-11500000D03*
X58400000Y-12000000D03*
X58000000Y-12500000D03*
X57200000Y-12500000D03*
X56400000Y-12500000D03*
X55600000Y-12500000D03*
X54800000Y-11500000D03*
X54800000Y-12500000D03*
X53100000Y-19100000D03*
X51600000Y-17500000D03*
X52300000Y-17500000D03*
X53100000Y-17900000D03*
X51100000Y-17000000D03*
X50600000Y-16500000D03*
X50100000Y-16000000D03*
X49600000Y-15500000D03*
X49100000Y-15000000D03*
X50400000Y-15400000D03*
X50900000Y-15900000D03*
X49900000Y-14900000D03*
X51400000Y-16400000D03*
X50700000Y-14800000D03*
X51200000Y-15300000D03*
X54400000Y-4900000D03*
X54900000Y-5400000D03*
X55400000Y-5900000D03*
X55900000Y-6400000D03*
X55200000Y-4800000D03*
X55700000Y-5300000D03*
X52100000Y-32500000D03*
X52100000Y-31300000D03*
X54600000Y-43100000D03*
X54600000Y-41900000D03*
X51900000Y-21200000D03*
X52700000Y-21200000D03*
X52300000Y-21700000D03*
X53100000Y-21700000D03*
X53500000Y-21200000D03*
X54300000Y-21200000D03*
X53900000Y-21700000D03*
X51500000Y-21700000D03*
X51100000Y-22200000D03*
X51900000Y-22200000D03*
X52700000Y-22200000D03*
X53500000Y-22200000D03*
X54300000Y-22200000D03*
X53900000Y-22700000D03*
X53100000Y-22700000D03*
X52300000Y-22700000D03*
X51500000Y-22700000D03*
X50700000Y-22700000D03*
X51100000Y-23200000D03*
X51900000Y-23200000D03*
X52700000Y-23200000D03*
X53500000Y-23200000D03*
X50300000Y-23200000D03*
X54400000Y-12000000D03*
X54000000Y-12500000D03*
X53600000Y-13000000D03*
X54400000Y-13000000D03*
X55200000Y-13000000D03*
X56000000Y-13000000D03*
X56800000Y-13000000D03*
X57600000Y-13000000D03*
X53000000Y-35200000D03*
X52200000Y-35200000D03*
X51400000Y-35200000D03*
X50600000Y-35200000D03*
X49800000Y-35200000D03*
X50200000Y-34700000D03*
X51000000Y-34700000D03*
X52600000Y-35700000D03*
X51800000Y-35700000D03*
X51000000Y-35700000D03*
X50200000Y-35700000D03*
X53400000Y-35700000D03*
X53000000Y-36200000D03*
X52200000Y-36200000D03*
X51400000Y-36200000D03*
X50600000Y-36200000D03*
X49800000Y-36200000D03*
X49400000Y-35700000D03*
X49400000Y-36700000D03*
X50200000Y-36700000D03*
X51000000Y-36700000D03*
X51800000Y-36700000D03*
X52600000Y-36700000D03*
X53400000Y-36700000D03*
X53800000Y-36200000D03*
X54200000Y-36700000D03*
X53800000Y-37200000D03*
X53000000Y-37200000D03*
X52200000Y-37200000D03*
X51400000Y-37200000D03*
X50600000Y-37200000D03*
X49800000Y-37200000D03*
X17100000Y-29100000D03*
X17600000Y-29600000D03*
X18100000Y-30100000D03*
X18600000Y-30600000D03*
X19100000Y-31100000D03*
X19600000Y-31600000D03*
X19100000Y-30100000D03*
X19600000Y-30600000D03*
X20100000Y-31100000D03*
X18100000Y-29100000D03*
X18600000Y-29600000D03*
X20100000Y-30100000D03*
X20100000Y-32100000D03*
X18100000Y-28300000D03*
X18100000Y-27500000D03*
X82463589Y-23450912D03*
X60063103Y-27610166D03*
X62113103Y-27467309D03*
X58763996Y-22312880D03*
X19100000Y-20000000D03*
X19900000Y-20000000D03*
X20300000Y-19500000D03*
X21700000Y-35500000D03*
X22700000Y-35800000D03*
X24900000Y-14100000D03*
X24100000Y-14400000D03*
X23200000Y-14700000D03*
X22500000Y-14200000D03*
X21700000Y-14500000D03*
X21800000Y-15200000D03*
X53400000Y-37700000D03*
X52600000Y-37700000D03*
X51800000Y-37700000D03*
X51000000Y-37700000D03*
X50200000Y-37700000D03*
X53800000Y-41700000D03*
X53100000Y-41600000D03*
X53100000Y-23700000D03*
X52300000Y-23700000D03*
X51500000Y-23700000D03*
X50700000Y-23700000D03*
X53900000Y-23700000D03*
X53500000Y-24200000D03*
X52700000Y-24200000D03*
X51900000Y-24200000D03*
X51100000Y-24200000D03*
X50300000Y-24200000D03*
X50700000Y-24700000D03*
X51500000Y-24700000D03*
X52300000Y-24700000D03*
X53100000Y-24700000D03*
X53900000Y-24700000D03*
X49900000Y-24700000D03*
X52600000Y-41100000D03*
X52100000Y-40600000D03*
X51600000Y-40100000D03*
X51100000Y-39600000D03*
X51900000Y-39500000D03*
X52400000Y-40000000D03*
X52900000Y-40500000D03*
X52700000Y-39400000D03*
X50600000Y-39100000D03*
X51400000Y-39000000D03*
X52200000Y-38900000D03*
X53000000Y-38200000D03*
X52200000Y-38200000D03*
X51400000Y-38200000D03*
X50600000Y-38200000D03*
X50700000Y-31100000D03*
X50200000Y-30600000D03*
X49600000Y-30000000D03*
X49000000Y-29400000D03*
X48400000Y-28800000D03*
X49200000Y-28700000D03*
X49800000Y-29300000D03*
X50400000Y-29900000D03*
X50000000Y-28600000D03*
X52800000Y-13000000D03*
X53200000Y-12500000D03*
X53600000Y-12000000D03*
X54000000Y-11500000D03*
X53100000Y-4400000D03*
X53900000Y-4300000D03*
X54800000Y-4200000D03*
X55600000Y-4100000D03*
X53500000Y-25200000D03*
X52700000Y-25200000D03*
X53100000Y-25800000D03*
X52300000Y-25800000D03*
X51500000Y-25800000D03*
X51900000Y-25200000D03*
X51100000Y-25200000D03*
X50300000Y-25200000D03*
X50700000Y-25800000D03*
X49900000Y-25800000D03*
X52700000Y-26400000D03*
X51900000Y-26400000D03*
X51100000Y-26400000D03*
X50300000Y-26400000D03*
X52300000Y-27000000D03*
X51500000Y-27000000D03*
X50700000Y-27000000D03*
X49900000Y-27000000D03*
X49500000Y-26400000D03*
X49500000Y-25300000D03*
X50300000Y-27600000D03*
X49500000Y-27600000D03*
X49100000Y-27000000D03*
X48600000Y-27600000D03*
X49100000Y-25800000D03*
X48600000Y-26400000D03*
X48100000Y-27000000D03*
X47700000Y-27600000D03*
X49000000Y-28100000D03*
X2624576Y-2658403D03*
X2583322Y-6210299D03*
X2447040Y-9652738D03*
X2663016Y-13230000D03*
X2490857Y-34291349D03*
X2522915Y-37805930D03*
X2433967Y-41295212D03*
X2625385Y-44875323D03*
X3097948Y-47691733D03*
X4747114Y-4238817D03*
X4525659Y-7659275D03*
X4632648Y-11286984D03*
X4717864Y-35660715D03*
X4708155Y-39090470D03*
X4750324Y-42787833D03*
X5438141Y-13817270D03*
X5450221Y-45343767D03*
X6653204Y-2741501D03*
X6813611Y-9721175D03*
X6761053Y-34117199D03*
X6659303Y-37731517D03*
X6640853Y-47459515D03*
X7505339Y-12655521D03*
X8062176Y-4849491D03*
X7991151Y-39745449D03*
X8236772Y-44643792D03*
X8758009Y-35555756D03*
X9391012Y-8535617D03*
X9588670Y-13914840D03*
X9495617Y-46791502D03*
X10136108Y-2771106D03*
X10069518Y-11076254D03*
X10032495Y-37902401D03*
X10339472Y-41356749D03*
X10870370Y-5697042D03*
X10928318Y-34199958D03*
X11065765Y-43989293D03*
X12201807Y-7615549D03*
X12411077Y-12670127D03*
X12249241Y-36268970D03*
X12130408Y-40044224D03*
X12295737Y-46239535D03*
X12988187Y-3545440D03*
X12928657Y-42687997D03*
X13582094Y-9740932D03*
X14398675Y-5493911D03*
X14547597Y-14005195D03*
X14304993Y-37774808D03*
X14579306Y-44860120D03*
X15100252Y-40598110D03*
X15202136Y-47589923D03*
X15843082Y-2604696D03*
X15939884Y-7630715D03*
X15714714Y-11327666D03*
X15727786Y-35830991D03*
X16662007Y-42751710D03*
X17095823Y-4923272D03*
X17341669Y-13202601D03*
X17055769Y-38526460D03*
X17119765Y-45577210D03*
X17884960Y-9224099D03*
X18677735Y-36521366D03*
X18588842Y-40663031D03*
X18596366Y-47616496D03*
X19232997Y-2895588D03*
X19219104Y-6241780D03*
X19183507Y-11306288D03*
X19162415Y-43251426D03*
X19857466Y-14004666D03*
X20654889Y-8220948D03*
X20560223Y-37868854D03*
X20632526Y-45424015D03*
X21430880Y-4008531D03*
X21277878Y-41392196D03*
X22021400Y-10380644D03*
X22079566Y-47558885D03*
X22784112Y-6151499D03*
X22844543Y-39110576D03*
X22779953Y-43246925D03*
X23578552Y-2800509D03*
X23592782Y-12541650D03*
X24271854Y-8416029D03*
X24373967Y-45417457D03*
X24896552Y-4845629D03*
X24967873Y-40553798D03*
X25636060Y-10595345D03*
X25512405Y-47437573D03*
X26175645Y-6876059D03*
X26233725Y-42770292D03*
X27009023Y-2748058D03*
X26861452Y-39179409D03*
X27646631Y-9042692D03*
X27714210Y-44694778D03*
X28510507Y-4740964D03*
X28530481Y-41151944D03*
X28962134Y-25202370D03*
X29177586Y-46711787D03*
X29886346Y-6915366D03*
X29710339Y-10496423D03*
X29912360Y-43309462D03*
X30410937Y-2757813D03*
X31081843Y-40405588D03*
X31291018Y-45550408D03*
X32061308Y-4706973D03*
X32048358Y-8539284D03*
X32065878Y-24447839D03*
X32553239Y-42552444D03*
X32547794Y-47476322D03*
X33364404Y-18142042D03*
X33325733Y-32150849D03*
X34055554Y-2606444D03*
X33879168Y-6181468D03*
X34084826Y-25761727D03*
X34020157Y-44922277D03*
X35261052Y-8396209D03*
X35239672Y-23672471D03*
X35525382Y-41888741D03*
X35237628Y-46901234D03*
X36033387Y-4111013D03*
X36239656Y-32797367D03*
X36778328Y-16914696D03*
X36936372Y-44012927D03*
X37340559Y-6159708D03*
X37635879Y-25162968D03*
X38368906Y-2694362D03*
X38197297Y-46107640D03*
X39028390Y-23020684D03*
X38858214Y-33742243D03*
X39467382Y-4977484D03*
X39681304Y-16174940D03*
X39543905Y-26608915D03*
X39465436Y-43315970D03*
X40356924Y-47454750D03*
X41010577Y-24587280D03*
X41014500Y-34977496D03*
X41652033Y-2718971D03*
X41635348Y-14538204D03*
X41877399Y-44926964D03*
X42383238Y-5657539D03*
X42444855Y-21620962D03*
X43237439Y-25936688D03*
X43027720Y-33590057D03*
X43067163Y-46827247D03*
X44398007Y-3442870D03*
X44490086Y-13904823D03*
X44417585Y-23001497D03*
X44672803Y-35558902D03*
X45173701Y-45623957D03*
X46582986Y-47516063D03*
X47250422Y-2768496D03*
X47164733Y-12475462D03*
X47455200Y-25319873D03*
X48666783Y-46145984D03*
X50866942Y-2864959D03*
X50719089Y-13344441D03*
X50648470Y-47711266D03*
X54162146Y-2696386D03*
X57229305Y-45496771D03*
X58624714Y-47634224D03*
X60736342Y-44078414D03*
X61413092Y-46815624D03*
X61863407Y-42142479D03*
X62688203Y-32907850D03*
X63441950Y-2660790D03*
X63403872Y-35778769D03*
X63308172Y-44747316D03*
X64108486Y-9030549D03*
X64017747Y-12720522D03*
X64205791Y-19631826D03*
X64171128Y-24471403D03*
X64037165Y-47617126D03*
X64696270Y-30858654D03*
X64661433Y-40654977D03*
X65544258Y-4016618D03*
X65497438Y-14651488D03*
X65544409Y-33427775D03*
X65598050Y-43275700D03*
X66284541Y-10585636D03*
X66203489Y-26018713D03*
X66224346Y-46217319D03*
X67532840Y-2848361D03*
X67444215Y-12518918D03*
X67442720Y-31351768D03*
X67512879Y-39809436D03*
X68418192Y-5716633D03*
X68163735Y-15510561D03*
X68186134Y-42839061D03*
X68200909Y-47547743D03*
X68991677Y-25061973D03*
X69151537Y-33621338D03*
X69661199Y-44894979D03*
X70243367Y-3601125D03*
X70315460Y-7146741D03*
X70437693Y-13289887D03*
X70293829Y-30929790D03*
X70525394Y-38610716D03*
X71176784Y-16137123D03*
X71189056Y-41421851D03*
X70954467Y-46762530D03*
X71917812Y-32725600D03*
X72375093Y-4700176D03*
X72474185Y-8304260D03*
X72588815Y-43331710D03*
X73074632Y-14515937D03*
X73316474Y-37676399D03*
X73873841Y-2624110D03*
X73906378Y-30707807D03*
X74025396Y-40733513D03*
X73767963Y-45482651D03*
X74767976Y-6218741D03*
X74531547Y-9816604D03*
X74649553Y-16633887D03*
X75200639Y-42827311D03*
X75212566Y-47691923D03*
X76071503Y-4179808D03*
X75924896Y-36532267D03*
X76860307Y-7791876D03*
X76761309Y-30242394D03*
X76573449Y-39202566D03*
X76674856Y-44836627D03*
X77313828Y-10631979D03*
X77231938Y-17375133D03*
X78108432Y-2750425D03*
X78274798Y-41440744D03*
X78276159Y-46820884D03*
X78653904Y-5502711D03*
X78705589Y-12561470D03*
X78713916Y-35723942D03*
X79456804Y-8476308D03*
X79572592Y-38571138D03*
X79435101Y-43510904D03*
X80870167Y-3625483D03*
X80945237Y-10530977D03*
X80786238Y-40626641D03*
X80859373Y-45416575D03*
X81535688Y-6199127D03*
X81556740Y-13393238D03*
X81657931Y-34145233D03*
X82439835Y-37151135D03*
X82196281Y-42699071D03*
X82329640Y-47427187D03*
X82896059Y-8487473D03*
X83743127Y-2658619D03*
X83876077Y-11170313D03*
X83765301Y-14743550D03*
X83626836Y-39323687D03*
X83844031Y-44740782D03*
X84248797Y-5473904D03*
X84251280Y-33596182D03*
X85212209Y-23735669D03*
X85163425Y-36497406D03*
X85153765Y-41362844D03*
X85046958Y-47004382D03*
X85688200Y-7771562D03*
X85863140Y-12415603D03*
X85634219Y-16209200D03*
X86429288Y-3553356D03*
X86597495Y-38356108D03*
X86422515Y-43367928D03*
X87033095Y-9932483D03*
X87198763Y-32278737D03*
X87829909Y-5528417D03*
X87947483Y-13934477D03*
X87882935Y-34898523D03*
X87850500Y-40553932D03*
X87802076Y-45556152D03*
X89363864Y-2773683D03*
X89438137Y-7654244D03*
X89467082Y-11164342D03*
X89163443Y-16025465D03*
X89439428Y-37049813D03*
X89368465Y-42582188D03*
X89389144Y-47469818D03*
X90140306Y-33422969D03*
X90613847Y-5040734D03*
X90718695Y-13355141D03*
X90705298Y-39344121D03*
X90703125Y-44756016D03*
X91333965Y-9934611D03*
X91287486Y-17313995D03*
X91570161Y-29413871D03*
X91483827Y-35616448D03*
X92188561Y-20964446D03*
X92178630Y-46836890D03*
X92741265Y-2818753D03*
X92759006Y-11756558D03*
X92889030Y-15416500D03*
X92840249Y-32856384D03*
X92714361Y-37703161D03*
X93644356Y-28028812D03*
X94308415Y-4807538D03*
X94269451Y-9192992D03*
X94336815Y-34996799D03*
X94147904Y-40017300D03*
X94311965Y-44210441D03*
X94767892Y-13424882D03*
X94764804Y-16928376D03*
X94840818Y-47601725D03*
X95460622Y-7148136D03*
X95488627Y-36955925D03*
X95444418Y-41984410D03*
X96202742Y-2737039D03*
X96389881Y-10430339D03*
X96142574Y-32714053D03*
X96457868Y-45578715D03*
X96862242Y-14508109D03*
X97143015Y-39271665D03*
X97809091Y-28142814D03*
X98944399Y-22524252D03*
%TO.N,Net-(R5-Pad2)*%
X54900000Y-20450000D03*
X84300000Y-25000000D03*
%TO.N,/VOUT*%
X58300000Y-5200000D03*
X58300000Y-6400000D03*
X58300000Y-7000000D03*
X58700000Y-7600000D03*
X58100000Y-7600000D03*
X58300000Y-5800000D03*
X53800000Y-17600000D03*
X54000000Y-16400000D03*
X54000000Y-15200000D03*
X54000000Y-17000000D03*
X54400000Y-17600000D03*
X54000000Y-15800000D03*
X53100000Y-29900000D03*
X53100000Y-28700000D03*
X52900000Y-31100000D03*
X53100000Y-30500000D03*
X53500000Y-31100000D03*
X53100000Y-29300000D03*
X97500000Y-23000000D03*
X96500000Y-23000000D03*
X95500000Y-23000000D03*
X94500000Y-23000000D03*
X97500000Y-27000000D03*
X96500000Y-27000000D03*
X95500000Y-27000000D03*
X94500000Y-27000000D03*
X93500000Y-27000000D03*
X92500000Y-27000000D03*
X93500000Y-23000000D03*
X92500000Y-23000000D03*
X87750000Y-25000000D03*
X55300000Y-41600000D03*
X91500000Y-23000000D03*
X90500000Y-23000000D03*
X89500000Y-23000000D03*
X88500000Y-23000000D03*
X91500000Y-27000000D03*
X90500000Y-27000000D03*
X89500000Y-27000000D03*
X88500000Y-27000000D03*
X55900000Y-41600000D03*
X55500000Y-41000000D03*
X55500000Y-40400000D03*
X55500000Y-39800000D03*
X55500000Y-39200000D03*
X87600000Y-23000000D03*
X87600000Y-27000000D03*
X86800000Y-23900000D03*
X86800000Y-26100000D03*
X87600000Y-29500000D03*
X86800000Y-27000000D03*
X86800000Y-23000000D03*
X87600000Y-20600000D03*
X63000000Y-5400000D03*
X58700000Y-15450000D03*
X57800000Y-28950000D03*
X60100000Y-39500000D03*
%TO.N,/VIN*%
X23700000Y-24200000D03*
X23700000Y-25800000D03*
X21900000Y-23700000D03*
X21900000Y-26300000D03*
X52600000Y-5600000D03*
X52600000Y-6400000D03*
X52600000Y-7200000D03*
X52600000Y-8000000D03*
X52600000Y-8800000D03*
X48100000Y-15600000D03*
X48100000Y-16400000D03*
X48100000Y-17200000D03*
X48100000Y-18000000D03*
X48100000Y-18800000D03*
X47200000Y-29100000D03*
X47200000Y-29900000D03*
X47200000Y-30700000D03*
X47200000Y-31500000D03*
X47200000Y-32300000D03*
X49700000Y-39700000D03*
X49700000Y-40500000D03*
X49700000Y-41300000D03*
X49700000Y-42100000D03*
X49700000Y-42900000D03*
X53000000Y-34400000D03*
X49100000Y-32700000D03*
X58300000Y-10900000D03*
X55400006Y-45000000D03*
X54400000Y-9100000D03*
X51500000Y-43200000D03*
X23300000Y-23700000D03*
X23300000Y-26300000D03*
X22600000Y-26300000D03*
X22600000Y-23700000D03*
%TO.N,Net-(C11-Pad1)*%
X56500000Y-43800000D03*
X54250000Y-33250000D03*
X59550000Y-9700000D03*
X54900000Y-19750000D03*
X49400000Y-23600000D03*
%TO.N,Net-(J1-Pad2)*%
X1400000Y-31000000D03*
X2100000Y-31000000D03*
X2800000Y-31000000D03*
X3500000Y-31000000D03*
X4200000Y-31000000D03*
X4900000Y-31000000D03*
X5600000Y-31000000D03*
X6300000Y-31000000D03*
X1400000Y-19000000D03*
X2100000Y-19000000D03*
X2800000Y-19000000D03*
X3500000Y-19000000D03*
X4200000Y-19000000D03*
X4900000Y-19000000D03*
X5600000Y-19000000D03*
X6300000Y-19000000D03*
%TO.N,/ILim*%
X49400000Y-44300000D03*
X46900000Y-33800000D03*
X47812500Y-23600000D03*
X47812500Y-21912500D03*
X46187500Y-21900000D03*
X52300000Y-10200000D03*
%TD*%
D12*
%TO.N,GND*%
X51800000Y-5300000D02*
X51800000Y-4600000D01*
X47200000Y-15400000D02*
X47200000Y-14400000D01*
X46400000Y-28700000D02*
X46400000Y-27900000D01*
X48900000Y-39200000D02*
X48900000Y-38000000D01*
D13*
X97000000Y-20750000D02*
X97000000Y-19500000D01*
%TD*%
D14*
%TO.N,GND*%
X52232184Y-5151815D02*
X52151815Y-5232184D01*
X52088669Y-5326688D01*
X52045174Y-5431695D01*
X52023000Y-5543170D01*
X52023000Y-5656830D01*
X52045174Y-5768305D01*
X52088669Y-5873312D01*
X52151815Y-5967816D01*
X52183999Y-6000000D01*
X52151815Y-6032184D01*
X52088669Y-6126688D01*
X52045174Y-6231695D01*
X52023000Y-6343170D01*
X52023000Y-6456830D01*
X52045174Y-6568305D01*
X52088669Y-6673312D01*
X52151815Y-6767816D01*
X52183999Y-6800000D01*
X52151815Y-6832184D01*
X52088669Y-6926688D01*
X52045174Y-7031695D01*
X52023000Y-7143170D01*
X52023000Y-7256830D01*
X52045174Y-7368305D01*
X52088669Y-7473312D01*
X52151815Y-7567816D01*
X52183999Y-7600000D01*
X52151815Y-7632184D01*
X52088669Y-7726688D01*
X52045174Y-7831695D01*
X52023000Y-7943170D01*
X52023000Y-8056830D01*
X52045174Y-8168305D01*
X52088669Y-8273312D01*
X52151815Y-8367816D01*
X52183999Y-8400000D01*
X52151815Y-8432184D01*
X52088669Y-8526688D01*
X52045174Y-8631695D01*
X52023000Y-8743170D01*
X52023000Y-8856830D01*
X52045174Y-8968305D01*
X52088669Y-9073312D01*
X52151815Y-9167816D01*
X52232184Y-9248185D01*
X52269322Y-9273000D01*
X52190277Y-9273000D01*
X52178355Y-9273561D01*
X51991432Y-9291186D01*
X51968007Y-9295643D01*
X51787673Y-9347899D01*
X51776378Y-9351756D01*
X29491756Y-18150834D01*
X29479119Y-18156643D01*
X29298240Y-18252109D01*
X29275240Y-18267682D01*
X29119442Y-18400187D01*
X29100378Y-18420388D01*
X28977111Y-18583595D01*
X28962895Y-18607458D01*
X28878058Y-18793559D01*
X28869370Y-18819940D01*
X28827019Y-19020034D01*
X28824273Y-19047675D01*
X28826436Y-19252190D01*
X28829765Y-19279765D01*
X28876336Y-19478918D01*
X28885505Y-19504954D01*
X28974597Y-19690573D01*
X28989068Y-19713876D01*
X29115939Y-19876035D01*
X29135076Y-19895688D01*
X29293808Y-20026823D01*
X29316719Y-20041908D01*
X29499906Y-20135899D01*
X29525520Y-20145712D01*
X29724617Y-20198177D01*
X29751743Y-20202261D01*
X29957460Y-20210750D01*
X29984828Y-20208915D01*
X30187571Y-20173034D01*
X30200948Y-20169912D01*
X47389906Y-15164336D01*
X47651652Y-15127000D01*
X47769322Y-15127000D01*
X47732184Y-15151815D01*
X47651815Y-15232184D01*
X47588669Y-15326688D01*
X47545174Y-15431695D01*
X47523000Y-15543170D01*
X47523000Y-15656830D01*
X47545174Y-15768305D01*
X47588669Y-15873312D01*
X47651815Y-15967816D01*
X47683999Y-16000000D01*
X47651815Y-16032184D01*
X47588669Y-16126688D01*
X47545174Y-16231695D01*
X47523000Y-16343170D01*
X47523000Y-16456830D01*
X47545174Y-16568305D01*
X47588669Y-16673312D01*
X47651815Y-16767816D01*
X47683999Y-16800000D01*
X47651815Y-16832184D01*
X47588669Y-16926688D01*
X47545174Y-17031695D01*
X47523000Y-17143170D01*
X47523000Y-17256830D01*
X47545174Y-17368305D01*
X47588669Y-17473312D01*
X47651815Y-17567816D01*
X47683999Y-17600000D01*
X47651815Y-17632184D01*
X47588669Y-17726688D01*
X47545174Y-17831695D01*
X47523000Y-17943170D01*
X47523000Y-18056830D01*
X47545174Y-18168305D01*
X47588669Y-18273312D01*
X47651815Y-18367816D01*
X47683999Y-18400000D01*
X47651815Y-18432184D01*
X47588669Y-18526688D01*
X47545174Y-18631695D01*
X47523000Y-18743170D01*
X47523000Y-18856830D01*
X47545174Y-18968305D01*
X47588669Y-19073312D01*
X47651815Y-19167816D01*
X47732184Y-19248185D01*
X47826688Y-19311331D01*
X47931695Y-19354826D01*
X48023061Y-19373000D01*
X47610817Y-19373000D01*
X47596829Y-19373773D01*
X47377883Y-19398036D01*
X47364065Y-19400344D01*
X27753248Y-23800820D01*
X27741446Y-23804073D01*
X27558484Y-23864130D01*
X27536090Y-23873960D01*
X27368031Y-23967973D01*
X27347937Y-23981911D01*
X27201013Y-24106392D01*
X27183962Y-24123925D01*
X27063623Y-24274260D01*
X27050249Y-24294736D01*
X26960956Y-24465350D01*
X26951755Y-24488008D01*
X26896819Y-24672572D01*
X26892131Y-24696575D01*
X26873590Y-24888248D01*
X26873000Y-24900476D01*
X26873000Y-25023893D01*
X26873670Y-25036923D01*
X26894723Y-25241037D01*
X26900042Y-25266548D01*
X26962314Y-25462068D01*
X26972729Y-25485957D01*
X27073599Y-25664651D01*
X27088670Y-25685911D01*
X27223890Y-25840253D01*
X27242984Y-25857989D01*
X27406861Y-25981481D01*
X27429172Y-25994946D01*
X27614805Y-26082389D01*
X27639396Y-26091017D01*
X27838970Y-26138728D01*
X27851798Y-26141106D01*
X46517835Y-28617213D01*
X46526167Y-28618040D01*
X46657668Y-28626724D01*
X46666037Y-28627000D01*
X46869322Y-28627000D01*
X46832184Y-28651815D01*
X46751815Y-28732184D01*
X46688669Y-28826688D01*
X46645174Y-28931695D01*
X46623000Y-29043170D01*
X46623000Y-29156830D01*
X46645174Y-29268305D01*
X46688669Y-29373312D01*
X46751815Y-29467816D01*
X46783999Y-29500000D01*
X46751815Y-29532184D01*
X46688669Y-29626688D01*
X46645174Y-29731695D01*
X46623000Y-29843170D01*
X46623000Y-29956830D01*
X46645174Y-30068305D01*
X46688669Y-30173312D01*
X46751815Y-30267816D01*
X46783999Y-30300000D01*
X46751815Y-30332184D01*
X46688669Y-30426688D01*
X46645174Y-30531695D01*
X46623000Y-30643170D01*
X46623000Y-30756830D01*
X46645174Y-30868305D01*
X46688669Y-30973312D01*
X46751815Y-31067816D01*
X46783999Y-31100000D01*
X46751815Y-31132184D01*
X46688669Y-31226688D01*
X46645174Y-31331695D01*
X46623000Y-31443170D01*
X46623000Y-31556830D01*
X46645174Y-31668305D01*
X46688669Y-31773312D01*
X46751815Y-31867816D01*
X46783999Y-31900000D01*
X46751815Y-31932184D01*
X46688669Y-32026688D01*
X46645174Y-32131695D01*
X46623000Y-32243170D01*
X46623000Y-32356830D01*
X46645174Y-32468305D01*
X46688669Y-32573312D01*
X46751815Y-32667816D01*
X46832184Y-32748185D01*
X46926688Y-32811331D01*
X47031695Y-32854826D01*
X47123061Y-32873000D01*
X46682954Y-32873000D01*
X46537750Y-32861672D01*
X30200700Y-30297136D01*
X30188033Y-30295795D01*
X30001184Y-30285439D01*
X29975767Y-30286582D01*
X29790602Y-30313679D01*
X29765921Y-30319867D01*
X29589875Y-30383331D01*
X29566925Y-30394314D01*
X29407061Y-30491596D01*
X29386759Y-30506933D01*
X29249496Y-30634129D01*
X29232660Y-30653206D01*
X29123506Y-30805211D01*
X29110810Y-30827260D01*
X29034146Y-30997972D01*
X29025829Y-31023345D01*
X28988315Y-31198103D01*
X28985491Y-31225920D01*
X28987126Y-31404652D01*
X28990458Y-31432411D01*
X29031161Y-31606454D01*
X29040486Y-31632812D01*
X29118286Y-31793732D01*
X29133152Y-31817411D01*
X29244277Y-31957407D01*
X29263965Y-31977259D01*
X29403030Y-32089547D01*
X29426584Y-32104611D01*
X29586850Y-32183749D01*
X29599726Y-32189246D01*
X48909650Y-39202303D01*
X48930994Y-39208010D01*
X48973000Y-39215402D01*
X48973000Y-43356810D01*
X21169097Y-33956915D01*
X20981671Y-33868481D01*
X20819310Y-33739704D01*
X20672464Y-33592858D01*
X20591796Y-33487729D01*
X20544296Y-33373054D01*
X20505347Y-33077212D01*
X20496767Y-33045188D01*
X20436472Y-32899622D01*
X20419895Y-32870910D01*
X20323979Y-32745910D01*
X20313026Y-32733420D01*
X16387102Y-28807496D01*
X16274637Y-28670458D01*
X16194022Y-28519637D01*
X16144376Y-28355976D01*
X16127000Y-28179552D01*
X16127000Y-27107127D01*
X16142149Y-26972676D01*
X16184469Y-26851733D01*
X16252637Y-26743244D01*
X16343244Y-26652637D01*
X16451733Y-26584469D01*
X16572676Y-26542149D01*
X16707127Y-26527000D01*
X16985786Y-26527000D01*
X16998234Y-26526388D01*
X17193325Y-26507173D01*
X17217743Y-26502317D01*
X17405336Y-26445412D01*
X17428337Y-26435884D01*
X17601224Y-26343474D01*
X17621925Y-26329642D01*
X17727290Y-26243170D01*
X21323000Y-26243170D01*
X21323000Y-26356830D01*
X21345174Y-26468305D01*
X21388669Y-26573312D01*
X21451815Y-26667816D01*
X21532184Y-26748185D01*
X21626688Y-26811331D01*
X21731695Y-26854826D01*
X21843170Y-26877000D01*
X21956830Y-26877000D01*
X22068305Y-26854826D01*
X22173312Y-26811331D01*
X22250000Y-26760089D01*
X22326688Y-26811331D01*
X22431695Y-26854826D01*
X22543170Y-26877000D01*
X22656830Y-26877000D01*
X22768305Y-26854826D01*
X22873312Y-26811331D01*
X22950000Y-26760089D01*
X23026688Y-26811331D01*
X23131695Y-26854826D01*
X23243170Y-26877000D01*
X23356830Y-26877000D01*
X23468305Y-26854826D01*
X23573312Y-26811331D01*
X23667816Y-26748185D01*
X23748185Y-26667816D01*
X23811331Y-26573312D01*
X23854826Y-26468305D01*
X23877000Y-26356830D01*
X23877000Y-26351224D01*
X23973312Y-26311331D01*
X24067816Y-26248185D01*
X24148185Y-26167816D01*
X24211331Y-26073312D01*
X24254826Y-25968305D01*
X24277000Y-25856830D01*
X24277000Y-25743170D01*
X24254826Y-25631695D01*
X24211331Y-25526688D01*
X24148185Y-25432184D01*
X24067816Y-25351815D01*
X23973312Y-25288669D01*
X23868305Y-25245174D01*
X23756830Y-25223000D01*
X23643170Y-25223000D01*
X23531695Y-25245174D01*
X23426688Y-25288669D01*
X23332184Y-25351815D01*
X23251815Y-25432184D01*
X23188669Y-25526688D01*
X23145174Y-25631695D01*
X23123000Y-25743170D01*
X23123000Y-25748776D01*
X23026688Y-25788669D01*
X22950000Y-25839911D01*
X22873312Y-25788669D01*
X22768305Y-25745174D01*
X22656830Y-25723000D01*
X22543170Y-25723000D01*
X22431695Y-25745174D01*
X22326688Y-25788669D01*
X22250000Y-25839911D01*
X22173312Y-25788669D01*
X22068305Y-25745174D01*
X21956830Y-25723000D01*
X21843170Y-25723000D01*
X21731695Y-25745174D01*
X21626688Y-25788669D01*
X21532184Y-25851815D01*
X21451815Y-25932184D01*
X21388669Y-26026688D01*
X21345174Y-26131695D01*
X21323000Y-26243170D01*
X17727290Y-26243170D01*
X17773461Y-26205279D01*
X17782696Y-26196910D01*
X18396910Y-25582696D01*
X18405279Y-25573461D01*
X18529642Y-25421925D01*
X18543474Y-25401224D01*
X18635884Y-25228337D01*
X18645412Y-25205336D01*
X18702317Y-25017743D01*
X18707173Y-24993325D01*
X18726388Y-24798234D01*
X18727000Y-24785786D01*
X18727000Y-23643170D01*
X21323000Y-23643170D01*
X21323000Y-23756830D01*
X21345174Y-23868305D01*
X21388669Y-23973312D01*
X21451815Y-24067816D01*
X21532184Y-24148185D01*
X21626688Y-24211331D01*
X21731695Y-24254826D01*
X21843170Y-24277000D01*
X21956830Y-24277000D01*
X22068305Y-24254826D01*
X22173312Y-24211331D01*
X22250000Y-24160089D01*
X22326688Y-24211331D01*
X22431695Y-24254826D01*
X22543170Y-24277000D01*
X22656830Y-24277000D01*
X22768305Y-24254826D01*
X22873312Y-24211331D01*
X22950000Y-24160089D01*
X23026688Y-24211331D01*
X23123000Y-24251224D01*
X23123000Y-24256830D01*
X23145174Y-24368305D01*
X23188669Y-24473312D01*
X23251815Y-24567816D01*
X23332184Y-24648185D01*
X23426688Y-24711331D01*
X23531695Y-24754826D01*
X23643170Y-24777000D01*
X23756830Y-24777000D01*
X23868305Y-24754826D01*
X23973312Y-24711331D01*
X24067816Y-24648185D01*
X24148185Y-24567816D01*
X24211331Y-24473312D01*
X24254826Y-24368305D01*
X24277000Y-24256830D01*
X24277000Y-24143170D01*
X24254826Y-24031695D01*
X24211331Y-23926688D01*
X24148185Y-23832184D01*
X24067816Y-23751815D01*
X23973312Y-23688669D01*
X23877000Y-23648776D01*
X23877000Y-23643170D01*
X23854826Y-23531695D01*
X23811331Y-23426688D01*
X23748185Y-23332184D01*
X23667816Y-23251815D01*
X23573312Y-23188669D01*
X23468305Y-23145174D01*
X23356830Y-23123000D01*
X23243170Y-23123000D01*
X23131695Y-23145174D01*
X23026688Y-23188669D01*
X22950000Y-23239911D01*
X22873312Y-23188669D01*
X22768305Y-23145174D01*
X22656830Y-23123000D01*
X22543170Y-23123000D01*
X22431695Y-23145174D01*
X22326688Y-23188669D01*
X22250000Y-23239911D01*
X22173312Y-23188669D01*
X22068305Y-23145174D01*
X21956830Y-23123000D01*
X21843170Y-23123000D01*
X21731695Y-23145174D01*
X21626688Y-23188669D01*
X21532184Y-23251815D01*
X21451815Y-23332184D01*
X21388669Y-23426688D01*
X21345174Y-23531695D01*
X21323000Y-23643170D01*
X18727000Y-23643170D01*
X18727000Y-20720448D01*
X18744376Y-20544024D01*
X18794022Y-20380363D01*
X18874637Y-20229542D01*
X18987102Y-20092504D01*
X20196910Y-18882696D01*
X20205279Y-18873461D01*
X20329642Y-18721925D01*
X20343474Y-18701224D01*
X20435884Y-18528337D01*
X20445412Y-18505336D01*
X20502317Y-18317743D01*
X20507173Y-18293325D01*
X20526388Y-18098234D01*
X20527000Y-18085786D01*
X20527000Y-16859787D01*
X20541563Y-16711930D01*
X20582872Y-16575753D01*
X20649957Y-16450245D01*
X20744214Y-16335392D01*
X20824659Y-16254947D01*
X20981680Y-16129510D01*
X21162539Y-16041850D01*
X51875441Y-5178766D01*
X52024033Y-5140036D01*
X52177044Y-5127000D01*
X52269322Y-5127000D01*
X52232184Y-5151815D01*
%TA.AperFunction,Conductor*%
D15*
G36*
X52232184Y-5151815D02*
G01*
X52151815Y-5232184D01*
X52088669Y-5326688D01*
X52045174Y-5431695D01*
X52023000Y-5543170D01*
X52023000Y-5656830D01*
X52045174Y-5768305D01*
X52088669Y-5873312D01*
X52151815Y-5967816D01*
X52183999Y-6000000D01*
X52151815Y-6032184D01*
X52088669Y-6126688D01*
X52045174Y-6231695D01*
X52023000Y-6343170D01*
X52023000Y-6456830D01*
X52045174Y-6568305D01*
X52088669Y-6673312D01*
X52151815Y-6767816D01*
X52183999Y-6800000D01*
X52151815Y-6832184D01*
X52088669Y-6926688D01*
X52045174Y-7031695D01*
X52023000Y-7143170D01*
X52023000Y-7256830D01*
X52045174Y-7368305D01*
X52088669Y-7473312D01*
X52151815Y-7567816D01*
X52183999Y-7600000D01*
X52151815Y-7632184D01*
X52088669Y-7726688D01*
X52045174Y-7831695D01*
X52023000Y-7943170D01*
X52023000Y-8056830D01*
X52045174Y-8168305D01*
X52088669Y-8273312D01*
X52151815Y-8367816D01*
X52183999Y-8400000D01*
X52151815Y-8432184D01*
X52088669Y-8526688D01*
X52045174Y-8631695D01*
X52023000Y-8743170D01*
X52023000Y-8856830D01*
X52045174Y-8968305D01*
X52088669Y-9073312D01*
X52151815Y-9167816D01*
X52232184Y-9248185D01*
X52269322Y-9273000D01*
X52190277Y-9273000D01*
X52178355Y-9273561D01*
X51991432Y-9291186D01*
X51968007Y-9295643D01*
X51787673Y-9347899D01*
X51776378Y-9351756D01*
X29491756Y-18150834D01*
X29479119Y-18156643D01*
X29298240Y-18252109D01*
X29275240Y-18267682D01*
X29119442Y-18400187D01*
X29100378Y-18420388D01*
X28977111Y-18583595D01*
X28962895Y-18607458D01*
X28878058Y-18793559D01*
X28869370Y-18819940D01*
X28827019Y-19020034D01*
X28824273Y-19047675D01*
X28826436Y-19252190D01*
X28829765Y-19279765D01*
X28876336Y-19478918D01*
X28885505Y-19504954D01*
X28974597Y-19690573D01*
X28989068Y-19713876D01*
X29115939Y-19876035D01*
X29135076Y-19895688D01*
X29293808Y-20026823D01*
X29316719Y-20041908D01*
X29499906Y-20135899D01*
X29525520Y-20145712D01*
X29724617Y-20198177D01*
X29751743Y-20202261D01*
X29957460Y-20210750D01*
X29984828Y-20208915D01*
X30187571Y-20173034D01*
X30200948Y-20169912D01*
X47389906Y-15164336D01*
X47651652Y-15127000D01*
X47769322Y-15127000D01*
X47732184Y-15151815D01*
X47651815Y-15232184D01*
X47588669Y-15326688D01*
X47545174Y-15431695D01*
X47523000Y-15543170D01*
X47523000Y-15656830D01*
X47545174Y-15768305D01*
X47588669Y-15873312D01*
X47651815Y-15967816D01*
X47683999Y-16000000D01*
X47651815Y-16032184D01*
X47588669Y-16126688D01*
X47545174Y-16231695D01*
X47523000Y-16343170D01*
X47523000Y-16456830D01*
X47545174Y-16568305D01*
X47588669Y-16673312D01*
X47651815Y-16767816D01*
X47683999Y-16800000D01*
X47651815Y-16832184D01*
X47588669Y-16926688D01*
X47545174Y-17031695D01*
X47523000Y-17143170D01*
X47523000Y-17256830D01*
X47545174Y-17368305D01*
X47588669Y-17473312D01*
X47651815Y-17567816D01*
X47683999Y-17600000D01*
X47651815Y-17632184D01*
X47588669Y-17726688D01*
X47545174Y-17831695D01*
X47523000Y-17943170D01*
X47523000Y-18056830D01*
X47545174Y-18168305D01*
X47588669Y-18273312D01*
X47651815Y-18367816D01*
X47683999Y-18400000D01*
X47651815Y-18432184D01*
X47588669Y-18526688D01*
X47545174Y-18631695D01*
X47523000Y-18743170D01*
X47523000Y-18856830D01*
X47545174Y-18968305D01*
X47588669Y-19073312D01*
X47651815Y-19167816D01*
X47732184Y-19248185D01*
X47826688Y-19311331D01*
X47931695Y-19354826D01*
X48023061Y-19373000D01*
X47610817Y-19373000D01*
X47596829Y-19373773D01*
X47377883Y-19398036D01*
X47364065Y-19400344D01*
X27753248Y-23800820D01*
X27741446Y-23804073D01*
X27558484Y-23864130D01*
X27536090Y-23873960D01*
X27368031Y-23967973D01*
X27347937Y-23981911D01*
X27201013Y-24106392D01*
X27183962Y-24123925D01*
X27063623Y-24274260D01*
X27050249Y-24294736D01*
X26960956Y-24465350D01*
X26951755Y-24488008D01*
X26896819Y-24672572D01*
X26892131Y-24696575D01*
X26873590Y-24888248D01*
X26873000Y-24900476D01*
X26873000Y-25023893D01*
X26873670Y-25036923D01*
X26894723Y-25241037D01*
X26900042Y-25266548D01*
X26962314Y-25462068D01*
X26972729Y-25485957D01*
X27073599Y-25664651D01*
X27088670Y-25685911D01*
X27223890Y-25840253D01*
X27242984Y-25857989D01*
X27406861Y-25981481D01*
X27429172Y-25994946D01*
X27614805Y-26082389D01*
X27639396Y-26091017D01*
X27838970Y-26138728D01*
X27851798Y-26141106D01*
X46517835Y-28617213D01*
X46526167Y-28618040D01*
X46657668Y-28626724D01*
X46666037Y-28627000D01*
X46869322Y-28627000D01*
X46832184Y-28651815D01*
X46751815Y-28732184D01*
X46688669Y-28826688D01*
X46645174Y-28931695D01*
X46623000Y-29043170D01*
X46623000Y-29156830D01*
X46645174Y-29268305D01*
X46688669Y-29373312D01*
X46751815Y-29467816D01*
X46783999Y-29500000D01*
X46751815Y-29532184D01*
X46688669Y-29626688D01*
X46645174Y-29731695D01*
X46623000Y-29843170D01*
X46623000Y-29956830D01*
X46645174Y-30068305D01*
X46688669Y-30173312D01*
X46751815Y-30267816D01*
X46783999Y-30300000D01*
X46751815Y-30332184D01*
X46688669Y-30426688D01*
X46645174Y-30531695D01*
X46623000Y-30643170D01*
X46623000Y-30756830D01*
X46645174Y-30868305D01*
X46688669Y-30973312D01*
X46751815Y-31067816D01*
X46783999Y-31100000D01*
X46751815Y-31132184D01*
X46688669Y-31226688D01*
X46645174Y-31331695D01*
X46623000Y-31443170D01*
X46623000Y-31556830D01*
X46645174Y-31668305D01*
X46688669Y-31773312D01*
X46751815Y-31867816D01*
X46783999Y-31900000D01*
X46751815Y-31932184D01*
X46688669Y-32026688D01*
X46645174Y-32131695D01*
X46623000Y-32243170D01*
X46623000Y-32356830D01*
X46645174Y-32468305D01*
X46688669Y-32573312D01*
X46751815Y-32667816D01*
X46832184Y-32748185D01*
X46926688Y-32811331D01*
X47031695Y-32854826D01*
X47123061Y-32873000D01*
X46682954Y-32873000D01*
X46537750Y-32861672D01*
X30200700Y-30297136D01*
X30188033Y-30295795D01*
X30001184Y-30285439D01*
X29975767Y-30286582D01*
X29790602Y-30313679D01*
X29765921Y-30319867D01*
X29589875Y-30383331D01*
X29566925Y-30394314D01*
X29407061Y-30491596D01*
X29386759Y-30506933D01*
X29249496Y-30634129D01*
X29232660Y-30653206D01*
X29123506Y-30805211D01*
X29110810Y-30827260D01*
X29034146Y-30997972D01*
X29025829Y-31023345D01*
X28988315Y-31198103D01*
X28985491Y-31225920D01*
X28987126Y-31404652D01*
X28990458Y-31432411D01*
X29031161Y-31606454D01*
X29040486Y-31632812D01*
X29118286Y-31793732D01*
X29133152Y-31817411D01*
X29244277Y-31957407D01*
X29263965Y-31977259D01*
X29403030Y-32089547D01*
X29426584Y-32104611D01*
X29586850Y-32183749D01*
X29599726Y-32189246D01*
X48909650Y-39202303D01*
X48930994Y-39208010D01*
X48973000Y-39215402D01*
X48973000Y-43356810D01*
X21169097Y-33956915D01*
X20981671Y-33868481D01*
X20819310Y-33739704D01*
X20672464Y-33592858D01*
X20591796Y-33487729D01*
X20544296Y-33373054D01*
X20505347Y-33077212D01*
X20496767Y-33045188D01*
X20436472Y-32899622D01*
X20419895Y-32870910D01*
X20323979Y-32745910D01*
X20313026Y-32733420D01*
X16387102Y-28807496D01*
X16274637Y-28670458D01*
X16194022Y-28519637D01*
X16144376Y-28355976D01*
X16127000Y-28179552D01*
X16127000Y-27107127D01*
X16142149Y-26972676D01*
X16184469Y-26851733D01*
X16252637Y-26743244D01*
X16343244Y-26652637D01*
X16451733Y-26584469D01*
X16572676Y-26542149D01*
X16707127Y-26527000D01*
X16985786Y-26527000D01*
X16998234Y-26526388D01*
X17193325Y-26507173D01*
X17217743Y-26502317D01*
X17405336Y-26445412D01*
X17428337Y-26435884D01*
X17601224Y-26343474D01*
X17621925Y-26329642D01*
X17727290Y-26243170D01*
X21323000Y-26243170D01*
X21323000Y-26356830D01*
X21345174Y-26468305D01*
X21388669Y-26573312D01*
X21451815Y-26667816D01*
X21532184Y-26748185D01*
X21626688Y-26811331D01*
X21731695Y-26854826D01*
X21843170Y-26877000D01*
X21956830Y-26877000D01*
X22068305Y-26854826D01*
X22173312Y-26811331D01*
X22250000Y-26760089D01*
X22326688Y-26811331D01*
X22431695Y-26854826D01*
X22543170Y-26877000D01*
X22656830Y-26877000D01*
X22768305Y-26854826D01*
X22873312Y-26811331D01*
X22950000Y-26760089D01*
X23026688Y-26811331D01*
X23131695Y-26854826D01*
X23243170Y-26877000D01*
X23356830Y-26877000D01*
X23468305Y-26854826D01*
X23573312Y-26811331D01*
X23667816Y-26748185D01*
X23748185Y-26667816D01*
X23811331Y-26573312D01*
X23854826Y-26468305D01*
X23877000Y-26356830D01*
X23877000Y-26351224D01*
X23973312Y-26311331D01*
X24067816Y-26248185D01*
X24148185Y-26167816D01*
X24211331Y-26073312D01*
X24254826Y-25968305D01*
X24277000Y-25856830D01*
X24277000Y-25743170D01*
X24254826Y-25631695D01*
X24211331Y-25526688D01*
X24148185Y-25432184D01*
X24067816Y-25351815D01*
X23973312Y-25288669D01*
X23868305Y-25245174D01*
X23756830Y-25223000D01*
X23643170Y-25223000D01*
X23531695Y-25245174D01*
X23426688Y-25288669D01*
X23332184Y-25351815D01*
X23251815Y-25432184D01*
X23188669Y-25526688D01*
X23145174Y-25631695D01*
X23123000Y-25743170D01*
X23123000Y-25748776D01*
X23026688Y-25788669D01*
X22950000Y-25839911D01*
X22873312Y-25788669D01*
X22768305Y-25745174D01*
X22656830Y-25723000D01*
X22543170Y-25723000D01*
X22431695Y-25745174D01*
X22326688Y-25788669D01*
X22250000Y-25839911D01*
X22173312Y-25788669D01*
X22068305Y-25745174D01*
X21956830Y-25723000D01*
X21843170Y-25723000D01*
X21731695Y-25745174D01*
X21626688Y-25788669D01*
X21532184Y-25851815D01*
X21451815Y-25932184D01*
X21388669Y-26026688D01*
X21345174Y-26131695D01*
X21323000Y-26243170D01*
X17727290Y-26243170D01*
X17773461Y-26205279D01*
X17782696Y-26196910D01*
X18396910Y-25582696D01*
X18405279Y-25573461D01*
X18529642Y-25421925D01*
X18543474Y-25401224D01*
X18635884Y-25228337D01*
X18645412Y-25205336D01*
X18702317Y-25017743D01*
X18707173Y-24993325D01*
X18726388Y-24798234D01*
X18727000Y-24785786D01*
X18727000Y-23643170D01*
X21323000Y-23643170D01*
X21323000Y-23756830D01*
X21345174Y-23868305D01*
X21388669Y-23973312D01*
X21451815Y-24067816D01*
X21532184Y-24148185D01*
X21626688Y-24211331D01*
X21731695Y-24254826D01*
X21843170Y-24277000D01*
X21956830Y-24277000D01*
X22068305Y-24254826D01*
X22173312Y-24211331D01*
X22250000Y-24160089D01*
X22326688Y-24211331D01*
X22431695Y-24254826D01*
X22543170Y-24277000D01*
X22656830Y-24277000D01*
X22768305Y-24254826D01*
X22873312Y-24211331D01*
X22950000Y-24160089D01*
X23026688Y-24211331D01*
X23123000Y-24251224D01*
X23123000Y-24256830D01*
X23145174Y-24368305D01*
X23188669Y-24473312D01*
X23251815Y-24567816D01*
X23332184Y-24648185D01*
X23426688Y-24711331D01*
X23531695Y-24754826D01*
X23643170Y-24777000D01*
X23756830Y-24777000D01*
X23868305Y-24754826D01*
X23973312Y-24711331D01*
X24067816Y-24648185D01*
X24148185Y-24567816D01*
X24211331Y-24473312D01*
X24254826Y-24368305D01*
X24277000Y-24256830D01*
X24277000Y-24143170D01*
X24254826Y-24031695D01*
X24211331Y-23926688D01*
X24148185Y-23832184D01*
X24067816Y-23751815D01*
X23973312Y-23688669D01*
X23877000Y-23648776D01*
X23877000Y-23643170D01*
X23854826Y-23531695D01*
X23811331Y-23426688D01*
X23748185Y-23332184D01*
X23667816Y-23251815D01*
X23573312Y-23188669D01*
X23468305Y-23145174D01*
X23356830Y-23123000D01*
X23243170Y-23123000D01*
X23131695Y-23145174D01*
X23026688Y-23188669D01*
X22950000Y-23239911D01*
X22873312Y-23188669D01*
X22768305Y-23145174D01*
X22656830Y-23123000D01*
X22543170Y-23123000D01*
X22431695Y-23145174D01*
X22326688Y-23188669D01*
X22250000Y-23239911D01*
X22173312Y-23188669D01*
X22068305Y-23145174D01*
X21956830Y-23123000D01*
X21843170Y-23123000D01*
X21731695Y-23145174D01*
X21626688Y-23188669D01*
X21532184Y-23251815D01*
X21451815Y-23332184D01*
X21388669Y-23426688D01*
X21345174Y-23531695D01*
X21323000Y-23643170D01*
X18727000Y-23643170D01*
X18727000Y-20720448D01*
X18744376Y-20544024D01*
X18794022Y-20380363D01*
X18874637Y-20229542D01*
X18987102Y-20092504D01*
X20196910Y-18882696D01*
X20205279Y-18873461D01*
X20329642Y-18721925D01*
X20343474Y-18701224D01*
X20435884Y-18528337D01*
X20445412Y-18505336D01*
X20502317Y-18317743D01*
X20507173Y-18293325D01*
X20526388Y-18098234D01*
X20527000Y-18085786D01*
X20527000Y-16859787D01*
X20541563Y-16711930D01*
X20582872Y-16575753D01*
X20649957Y-16450245D01*
X20744214Y-16335392D01*
X20824659Y-16254947D01*
X20981680Y-16129510D01*
X21162539Y-16041850D01*
X51875441Y-5178766D01*
X52024033Y-5140036D01*
X52177044Y-5127000D01*
X52269322Y-5127000D01*
X52232184Y-5151815D01*
G37*
%TD.AperFunction*%
%TD*%
D12*
%TO.N,GND*%
X52989021Y-599901D02*
X52990024Y-599905D01*
X53010096Y-599893D01*
X53011100Y-599887D01*
X78850485Y-325000D01*
X99575582Y-325000D01*
X99632658Y-371272D01*
X99675000Y-422379D01*
X99675001Y-49588597D01*
X99636054Y-49636054D01*
X99588598Y-49675000D01*
X411402Y-49675000D01*
X363946Y-49636054D01*
X325000Y-49588598D01*
X325000Y-44945830D01*
X54850006Y-44945830D01*
X54850006Y-45054170D01*
X54871142Y-45160429D01*
X54912603Y-45260523D01*
X54972793Y-45350604D01*
X55049402Y-45427213D01*
X55139483Y-45487403D01*
X55239577Y-45528864D01*
X55345836Y-45550000D01*
X55454176Y-45550000D01*
X55560435Y-45528864D01*
X55660529Y-45487403D01*
X55750610Y-45427213D01*
X55827219Y-45350604D01*
X55887409Y-45260523D01*
X55928870Y-45160429D01*
X55950006Y-45054170D01*
X55950006Y-44945830D01*
X55928870Y-44839571D01*
X55887409Y-44739477D01*
X55827219Y-44649396D01*
X55750610Y-44572787D01*
X55660529Y-44512597D01*
X55560435Y-44471136D01*
X55454176Y-44450000D01*
X55345836Y-44450000D01*
X55239577Y-44471136D01*
X55139483Y-44512597D01*
X55049402Y-44572787D01*
X54972793Y-44649396D01*
X54912603Y-44739477D01*
X54871142Y-44839571D01*
X54850006Y-44945830D01*
X325000Y-44945830D01*
X325000Y-32411402D01*
X363946Y-32363946D01*
X500255Y-32252080D01*
X655771Y-32168955D01*
X824515Y-32117768D01*
X1004908Y-32100000D01*
X11872170Y-32100000D01*
X12100098Y-32127753D01*
X20833871Y-34286663D01*
X20909205Y-34308622D01*
X48912738Y-43742437D01*
X48920533Y-43744715D01*
X49078029Y-43783876D01*
X49094045Y-43786501D01*
X49184666Y-43793879D01*
X49139477Y-43812597D01*
X49049396Y-43872787D01*
X48972787Y-43949396D01*
X48912597Y-44039477D01*
X48871136Y-44139571D01*
X48850000Y-44245830D01*
X48850000Y-44354170D01*
X48871136Y-44460429D01*
X48912597Y-44560523D01*
X48972787Y-44650604D01*
X49049396Y-44727213D01*
X49139477Y-44787403D01*
X49239571Y-44828864D01*
X49345830Y-44850000D01*
X49454170Y-44850000D01*
X49560429Y-44828864D01*
X49660523Y-44787403D01*
X49750604Y-44727213D01*
X49827213Y-44650604D01*
X49887403Y-44560523D01*
X49928864Y-44460429D01*
X49950000Y-44354170D01*
X49950000Y-44245830D01*
X49928864Y-44139571D01*
X49887403Y-44039477D01*
X49827213Y-43949396D01*
X49750604Y-43872787D01*
X49660523Y-43812597D01*
X49630112Y-43800000D01*
X49850000Y-43800000D01*
X49861196Y-43799371D01*
X50028087Y-43780567D01*
X50049919Y-43775584D01*
X50208441Y-43720115D01*
X50228616Y-43710399D01*
X50370820Y-43621046D01*
X50388328Y-43607085D01*
X50507085Y-43488328D01*
X50521046Y-43470820D01*
X50610399Y-43328616D01*
X50620115Y-43308441D01*
X50675584Y-43149919D01*
X50676517Y-43145830D01*
X50950000Y-43145830D01*
X50950000Y-43254170D01*
X50971136Y-43360429D01*
X51012597Y-43460523D01*
X51072787Y-43550604D01*
X51149396Y-43627213D01*
X51239477Y-43687403D01*
X51339571Y-43728864D01*
X51445830Y-43750000D01*
X51554170Y-43750000D01*
X51575134Y-43745830D01*
X55950000Y-43745830D01*
X55950000Y-43854170D01*
X55971136Y-43960429D01*
X56012597Y-44060523D01*
X56072787Y-44150604D01*
X56149396Y-44227213D01*
X56239477Y-44287403D01*
X56339571Y-44328864D01*
X56445830Y-44350000D01*
X56554170Y-44350000D01*
X56660429Y-44328864D01*
X56760523Y-44287403D01*
X56850604Y-44227213D01*
X56927213Y-44150604D01*
X56987403Y-44060523D01*
X57028864Y-43960429D01*
X57050000Y-43854170D01*
X57050000Y-43745830D01*
X57028864Y-43639571D01*
X56987403Y-43539477D01*
X56927213Y-43449396D01*
X56850604Y-43372787D01*
X56760523Y-43312597D01*
X56660429Y-43271136D01*
X56554170Y-43250000D01*
X56445830Y-43250000D01*
X56339571Y-43271136D01*
X56239477Y-43312597D01*
X56149396Y-43372787D01*
X56072787Y-43449396D01*
X56012597Y-43539477D01*
X55971136Y-43639571D01*
X55950000Y-43745830D01*
X51575134Y-43745830D01*
X51660429Y-43728864D01*
X51760523Y-43687403D01*
X51850604Y-43627213D01*
X51927213Y-43550604D01*
X51987403Y-43460523D01*
X52028864Y-43360429D01*
X52050000Y-43254170D01*
X52050000Y-43145830D01*
X52028864Y-43039571D01*
X51987403Y-42939477D01*
X51927213Y-42849396D01*
X51850604Y-42772787D01*
X51760523Y-42712597D01*
X51660429Y-42671136D01*
X51554170Y-42650000D01*
X51445830Y-42650000D01*
X51339571Y-42671136D01*
X51239477Y-42712597D01*
X51149396Y-42772787D01*
X51072787Y-42849396D01*
X51012597Y-42939477D01*
X50971136Y-43039571D01*
X50950000Y-43145830D01*
X50676517Y-43145830D01*
X50680567Y-43128087D01*
X50699371Y-42961196D01*
X50700000Y-42950000D01*
X50700000Y-41545830D01*
X54750000Y-41545830D01*
X54750000Y-41654170D01*
X54771136Y-41760429D01*
X54812597Y-41860523D01*
X54872787Y-41950604D01*
X54949396Y-42027213D01*
X55039477Y-42087403D01*
X55139571Y-42128864D01*
X55245830Y-42150000D01*
X55354170Y-42150000D01*
X55460429Y-42128864D01*
X55560523Y-42087403D01*
X55600000Y-42061025D01*
X55639477Y-42087403D01*
X55739571Y-42128864D01*
X55845830Y-42150000D01*
X55954170Y-42150000D01*
X56060429Y-42128864D01*
X56160523Y-42087403D01*
X56250604Y-42027213D01*
X56327213Y-41950604D01*
X56387403Y-41860523D01*
X56428864Y-41760429D01*
X56450000Y-41654170D01*
X56450000Y-41545830D01*
X56428864Y-41439571D01*
X56387403Y-41339477D01*
X56327213Y-41249396D01*
X56250604Y-41172787D01*
X56160523Y-41112597D01*
X56060429Y-41071136D01*
X56047151Y-41068495D01*
X56050000Y-41054170D01*
X56050000Y-40945830D01*
X56028864Y-40839571D01*
X55987403Y-40739477D01*
X55961025Y-40700000D01*
X55987403Y-40660523D01*
X56028864Y-40560429D01*
X56050000Y-40454170D01*
X56050000Y-40345830D01*
X56028864Y-40239571D01*
X55987403Y-40139477D01*
X55961025Y-40100000D01*
X55987403Y-40060523D01*
X56028864Y-39960429D01*
X56050000Y-39854170D01*
X56050000Y-39745830D01*
X56028864Y-39639571D01*
X55987403Y-39539477D01*
X55961025Y-39500000D01*
X55987403Y-39460523D01*
X55993489Y-39445830D01*
X59550000Y-39445830D01*
X59550000Y-39554170D01*
X59571136Y-39660429D01*
X59612597Y-39760523D01*
X59672787Y-39850604D01*
X59749396Y-39927213D01*
X59839477Y-39987403D01*
X59939571Y-40028864D01*
X60045830Y-40050000D01*
X60154170Y-40050000D01*
X60260429Y-40028864D01*
X60360523Y-39987403D01*
X60450604Y-39927213D01*
X60527213Y-39850604D01*
X60587403Y-39760523D01*
X60628864Y-39660429D01*
X60650000Y-39554170D01*
X60650000Y-39445830D01*
X60628864Y-39339571D01*
X60587403Y-39239477D01*
X60527213Y-39149396D01*
X60450604Y-39072787D01*
X60360523Y-39012597D01*
X60260429Y-38971136D01*
X60154170Y-38950000D01*
X60045830Y-38950000D01*
X59939571Y-38971136D01*
X59839477Y-39012597D01*
X59749396Y-39072787D01*
X59672787Y-39149396D01*
X59612597Y-39239477D01*
X59571136Y-39339571D01*
X59550000Y-39445830D01*
X55993489Y-39445830D01*
X56028864Y-39360429D01*
X56050000Y-39254170D01*
X56050000Y-39145830D01*
X56028864Y-39039571D01*
X55987403Y-38939477D01*
X55927213Y-38849396D01*
X55850604Y-38772787D01*
X55760523Y-38712597D01*
X55660429Y-38671136D01*
X55554170Y-38650000D01*
X55445830Y-38650000D01*
X55339571Y-38671136D01*
X55239477Y-38712597D01*
X55149396Y-38772787D01*
X55072787Y-38849396D01*
X55012597Y-38939477D01*
X54971136Y-39039571D01*
X54950000Y-39145830D01*
X54950000Y-39254170D01*
X54971136Y-39360429D01*
X55012597Y-39460523D01*
X55038975Y-39500000D01*
X55012597Y-39539477D01*
X54971136Y-39639571D01*
X54950000Y-39745830D01*
X54950000Y-39854170D01*
X54971136Y-39960429D01*
X55012597Y-40060523D01*
X55038975Y-40100000D01*
X55012597Y-40139477D01*
X54971136Y-40239571D01*
X54950000Y-40345830D01*
X54950000Y-40454170D01*
X54971136Y-40560429D01*
X55012597Y-40660523D01*
X55038975Y-40700000D01*
X55012597Y-40739477D01*
X54971136Y-40839571D01*
X54950000Y-40945830D01*
X54950000Y-41054170D01*
X54970755Y-41158515D01*
X54949396Y-41172787D01*
X54872787Y-41249396D01*
X54812597Y-41339477D01*
X54771136Y-41439571D01*
X54750000Y-41545830D01*
X50700000Y-41545830D01*
X50700000Y-39550000D01*
X50699144Y-39536947D01*
X50676996Y-39368715D01*
X50670240Y-39343500D01*
X50605305Y-39186732D01*
X50592252Y-39164123D01*
X50488954Y-39029504D01*
X50470496Y-39011046D01*
X50335877Y-38907748D01*
X50313268Y-38894695D01*
X50156500Y-38829760D01*
X50131285Y-38823004D01*
X49963053Y-38800856D01*
X49950000Y-38800000D01*
X49481179Y-38800000D01*
X49320175Y-38785877D01*
X49164092Y-38743941D01*
X29787140Y-31671354D01*
X29676239Y-31610157D01*
X29594541Y-31523863D01*
X29542899Y-31416831D01*
X29526197Y-31299179D01*
X29546135Y-31181256D01*
X29603355Y-31066129D01*
X29690585Y-30970647D01*
X29800731Y-30902886D01*
X29925281Y-30868079D01*
X30061658Y-30868967D01*
X46513093Y-33288295D01*
X46520348Y-33289093D01*
X46665842Y-33299734D01*
X46670151Y-33299891D01*
X46639477Y-33312597D01*
X46549396Y-33372787D01*
X46472787Y-33449396D01*
X46412597Y-33539477D01*
X46371136Y-33639571D01*
X46350000Y-33745830D01*
X46350000Y-33854170D01*
X46371136Y-33960429D01*
X46412597Y-34060523D01*
X46472787Y-34150604D01*
X46549396Y-34227213D01*
X46639477Y-34287403D01*
X46739571Y-34328864D01*
X46845830Y-34350000D01*
X46954170Y-34350000D01*
X46975134Y-34345830D01*
X52450000Y-34345830D01*
X52450000Y-34454170D01*
X52471136Y-34560429D01*
X52512597Y-34660523D01*
X52572787Y-34750604D01*
X52649396Y-34827213D01*
X52739477Y-34887403D01*
X52839571Y-34928864D01*
X52945830Y-34950000D01*
X53054170Y-34950000D01*
X53160429Y-34928864D01*
X53260523Y-34887403D01*
X53350604Y-34827213D01*
X53427213Y-34750604D01*
X53487403Y-34660523D01*
X53528864Y-34560429D01*
X53550000Y-34454170D01*
X53550000Y-34345830D01*
X53528864Y-34239571D01*
X53487403Y-34139477D01*
X53427213Y-34049396D01*
X53350604Y-33972787D01*
X53260523Y-33912597D01*
X53160429Y-33871136D01*
X53054170Y-33850000D01*
X52945830Y-33850000D01*
X52839571Y-33871136D01*
X52739477Y-33912597D01*
X52649396Y-33972787D01*
X52572787Y-34049396D01*
X52512597Y-34139477D01*
X52471136Y-34239571D01*
X52450000Y-34345830D01*
X46975134Y-34345830D01*
X47060429Y-34328864D01*
X47160523Y-34287403D01*
X47250604Y-34227213D01*
X47327213Y-34150604D01*
X47387403Y-34060523D01*
X47428864Y-33960429D01*
X47450000Y-33854170D01*
X47450000Y-33745830D01*
X47428864Y-33639571D01*
X47387403Y-33539477D01*
X47327213Y-33449396D01*
X47250604Y-33372787D01*
X47160523Y-33312597D01*
X47130112Y-33300000D01*
X47350000Y-33300000D01*
X47361196Y-33299371D01*
X47528087Y-33280567D01*
X47549919Y-33275584D01*
X47708441Y-33220115D01*
X47728616Y-33210399D01*
X47870820Y-33121046D01*
X47888328Y-33107085D01*
X48007085Y-32988328D01*
X48021046Y-32970820D01*
X48110399Y-32828616D01*
X48120115Y-32808441D01*
X48175584Y-32649919D01*
X48176517Y-32645830D01*
X48550000Y-32645830D01*
X48550000Y-32754170D01*
X48571136Y-32860429D01*
X48612597Y-32960523D01*
X48672787Y-33050604D01*
X48749396Y-33127213D01*
X48839477Y-33187403D01*
X48939571Y-33228864D01*
X49045830Y-33250000D01*
X49154170Y-33250000D01*
X49260429Y-33228864D01*
X49340178Y-33195830D01*
X53700000Y-33195830D01*
X53700000Y-33304170D01*
X53721136Y-33410429D01*
X53762597Y-33510523D01*
X53822787Y-33600604D01*
X53899396Y-33677213D01*
X53989477Y-33737403D01*
X54089571Y-33778864D01*
X54195830Y-33800000D01*
X54304170Y-33800000D01*
X54410429Y-33778864D01*
X54510523Y-33737403D01*
X54600604Y-33677213D01*
X54677213Y-33600604D01*
X54737403Y-33510523D01*
X54778864Y-33410429D01*
X54800000Y-33304170D01*
X54800000Y-33195830D01*
X54778864Y-33089571D01*
X54737403Y-32989477D01*
X54677213Y-32899396D01*
X54600604Y-32822787D01*
X54510523Y-32762597D01*
X54410429Y-32721136D01*
X54304170Y-32700000D01*
X54195830Y-32700000D01*
X54089571Y-32721136D01*
X53989477Y-32762597D01*
X53899396Y-32822787D01*
X53822787Y-32899396D01*
X53762597Y-32989477D01*
X53721136Y-33089571D01*
X53700000Y-33195830D01*
X49340178Y-33195830D01*
X49360523Y-33187403D01*
X49450604Y-33127213D01*
X49527213Y-33050604D01*
X49587403Y-32960523D01*
X49628864Y-32860429D01*
X49650000Y-32754170D01*
X49650000Y-32645830D01*
X49628864Y-32539571D01*
X49587403Y-32439477D01*
X49527213Y-32349396D01*
X49450604Y-32272787D01*
X49360523Y-32212597D01*
X49260429Y-32171136D01*
X49154170Y-32150000D01*
X49045830Y-32150000D01*
X48939571Y-32171136D01*
X48839477Y-32212597D01*
X48749396Y-32272787D01*
X48672787Y-32349396D01*
X48612597Y-32439477D01*
X48571136Y-32539571D01*
X48550000Y-32645830D01*
X48176517Y-32645830D01*
X48180567Y-32628087D01*
X48199371Y-32461196D01*
X48200000Y-32450000D01*
X48200000Y-31045830D01*
X52350000Y-31045830D01*
X52350000Y-31154170D01*
X52371136Y-31260429D01*
X52412597Y-31360523D01*
X52472787Y-31450604D01*
X52549396Y-31527213D01*
X52639477Y-31587403D01*
X52739571Y-31628864D01*
X52845830Y-31650000D01*
X52954170Y-31650000D01*
X53060429Y-31628864D01*
X53160523Y-31587403D01*
X53200000Y-31561025D01*
X53239477Y-31587403D01*
X53339571Y-31628864D01*
X53445830Y-31650000D01*
X53554170Y-31650000D01*
X53660429Y-31628864D01*
X53760523Y-31587403D01*
X53850604Y-31527213D01*
X53927213Y-31450604D01*
X53987403Y-31360523D01*
X54028864Y-31260429D01*
X54050000Y-31154170D01*
X54050000Y-31045830D01*
X54028864Y-30939571D01*
X53987403Y-30839477D01*
X53927213Y-30749396D01*
X53850604Y-30672787D01*
X53760523Y-30612597D01*
X53660429Y-30571136D01*
X53647151Y-30568495D01*
X53650000Y-30554170D01*
X53650000Y-30445830D01*
X53628864Y-30339571D01*
X53587403Y-30239477D01*
X53561025Y-30200000D01*
X53587403Y-30160523D01*
X53628864Y-30060429D01*
X53650000Y-29954170D01*
X53650000Y-29845830D01*
X53628864Y-29739571D01*
X53587403Y-29639477D01*
X53561025Y-29600000D01*
X53587403Y-29560523D01*
X53628864Y-29460429D01*
X53650000Y-29354170D01*
X53650000Y-29245830D01*
X53628864Y-29139571D01*
X53587403Y-29039477D01*
X53561025Y-29000000D01*
X53587403Y-28960523D01*
X53614200Y-28895830D01*
X57250000Y-28895830D01*
X57250000Y-29004170D01*
X57271136Y-29110429D01*
X57312597Y-29210523D01*
X57372787Y-29300604D01*
X57449396Y-29377213D01*
X57539477Y-29437403D01*
X57639571Y-29478864D01*
X57745830Y-29500000D01*
X57854170Y-29500000D01*
X57960429Y-29478864D01*
X58040178Y-29445830D01*
X87050000Y-29445830D01*
X87050000Y-29554170D01*
X87071136Y-29660429D01*
X87112597Y-29760523D01*
X87172787Y-29850604D01*
X87249396Y-29927213D01*
X87339477Y-29987403D01*
X87439571Y-30028864D01*
X87545830Y-30050000D01*
X87654170Y-30050000D01*
X87760429Y-30028864D01*
X87860523Y-29987403D01*
X87950604Y-29927213D01*
X88027213Y-29850604D01*
X88087403Y-29760523D01*
X88128864Y-29660429D01*
X88150000Y-29554170D01*
X88150000Y-29445830D01*
X88128864Y-29339571D01*
X88087403Y-29239477D01*
X88027213Y-29149396D01*
X87950604Y-29072787D01*
X87860523Y-29012597D01*
X87760429Y-28971136D01*
X87654170Y-28950000D01*
X87545830Y-28950000D01*
X87439571Y-28971136D01*
X87339477Y-29012597D01*
X87249396Y-29072787D01*
X87172787Y-29149396D01*
X87112597Y-29239477D01*
X87071136Y-29339571D01*
X87050000Y-29445830D01*
X58040178Y-29445830D01*
X58060523Y-29437403D01*
X58150604Y-29377213D01*
X58227213Y-29300604D01*
X58287403Y-29210523D01*
X58328864Y-29110429D01*
X58350000Y-29004170D01*
X58350000Y-28895830D01*
X58328864Y-28789571D01*
X58287403Y-28689477D01*
X58227213Y-28599396D01*
X58150604Y-28522787D01*
X58060523Y-28462597D01*
X57960429Y-28421136D01*
X57854170Y-28400000D01*
X57745830Y-28400000D01*
X57639571Y-28421136D01*
X57539477Y-28462597D01*
X57449396Y-28522787D01*
X57372787Y-28599396D01*
X57312597Y-28689477D01*
X57271136Y-28789571D01*
X57250000Y-28895830D01*
X53614200Y-28895830D01*
X53628864Y-28860429D01*
X53650000Y-28754170D01*
X53650000Y-28645830D01*
X53628864Y-28539571D01*
X53587403Y-28439477D01*
X53527213Y-28349396D01*
X53450604Y-28272787D01*
X53360523Y-28212597D01*
X53260429Y-28171136D01*
X53154170Y-28150000D01*
X53045830Y-28150000D01*
X52939571Y-28171136D01*
X52839477Y-28212597D01*
X52749396Y-28272787D01*
X52672787Y-28349396D01*
X52612597Y-28439477D01*
X52571136Y-28539571D01*
X52550000Y-28645830D01*
X52550000Y-28754170D01*
X52571136Y-28860429D01*
X52612597Y-28960523D01*
X52638975Y-29000000D01*
X52612597Y-29039477D01*
X52571136Y-29139571D01*
X52550000Y-29245830D01*
X52550000Y-29354170D01*
X52571136Y-29460429D01*
X52612597Y-29560523D01*
X52638975Y-29600000D01*
X52612597Y-29639477D01*
X52571136Y-29739571D01*
X52550000Y-29845830D01*
X52550000Y-29954170D01*
X52571136Y-30060429D01*
X52612597Y-30160523D01*
X52638975Y-30200000D01*
X52612597Y-30239477D01*
X52571136Y-30339571D01*
X52550000Y-30445830D01*
X52550000Y-30554170D01*
X52570755Y-30658515D01*
X52549396Y-30672787D01*
X52472787Y-30749396D01*
X52412597Y-30839477D01*
X52371136Y-30939571D01*
X52350000Y-31045830D01*
X48200000Y-31045830D01*
X48200000Y-28950000D01*
X48199144Y-28936947D01*
X48176996Y-28768715D01*
X48170240Y-28743500D01*
X48105305Y-28586732D01*
X48092252Y-28564123D01*
X47988954Y-28429504D01*
X47970496Y-28411046D01*
X47835877Y-28307748D01*
X47813268Y-28294695D01*
X47656500Y-28229760D01*
X47631285Y-28223004D01*
X47463053Y-28200856D01*
X47450000Y-28200000D01*
X46869681Y-28200000D01*
X46744148Y-28191668D01*
X30650363Y-26045830D01*
X86250000Y-26045830D01*
X86250000Y-26154170D01*
X86271136Y-26260429D01*
X86312597Y-26360523D01*
X86372787Y-26450604D01*
X86449396Y-26527213D01*
X86483499Y-26550000D01*
X86449396Y-26572787D01*
X86372787Y-26649396D01*
X86312597Y-26739477D01*
X86271136Y-26839571D01*
X86250000Y-26945830D01*
X86250000Y-27054170D01*
X86271136Y-27160429D01*
X86312597Y-27260523D01*
X86372787Y-27350604D01*
X86449396Y-27427213D01*
X86539477Y-27487403D01*
X86639571Y-27528864D01*
X86745830Y-27550000D01*
X86854170Y-27550000D01*
X86960429Y-27528864D01*
X87060523Y-27487403D01*
X87150604Y-27427213D01*
X87200000Y-27377817D01*
X87249396Y-27427213D01*
X87339477Y-27487403D01*
X87439571Y-27528864D01*
X87545830Y-27550000D01*
X87654170Y-27550000D01*
X87760429Y-27528864D01*
X87860523Y-27487403D01*
X87950604Y-27427213D01*
X88027213Y-27350604D01*
X88050000Y-27316501D01*
X88072787Y-27350604D01*
X88149396Y-27427213D01*
X88239477Y-27487403D01*
X88339571Y-27528864D01*
X88445830Y-27550000D01*
X88554170Y-27550000D01*
X88660429Y-27528864D01*
X88760523Y-27487403D01*
X88850604Y-27427213D01*
X88927213Y-27350604D01*
X88987403Y-27260523D01*
X89000000Y-27230112D01*
X89012597Y-27260523D01*
X89072787Y-27350604D01*
X89149396Y-27427213D01*
X89239477Y-27487403D01*
X89339571Y-27528864D01*
X89445830Y-27550000D01*
X89554170Y-27550000D01*
X89660429Y-27528864D01*
X89760523Y-27487403D01*
X89850604Y-27427213D01*
X89927213Y-27350604D01*
X89987403Y-27260523D01*
X90000000Y-27230112D01*
X90012597Y-27260523D01*
X90072787Y-27350604D01*
X90149396Y-27427213D01*
X90239477Y-27487403D01*
X90339571Y-27528864D01*
X90445830Y-27550000D01*
X90554170Y-27550000D01*
X90660429Y-27528864D01*
X90760523Y-27487403D01*
X90850604Y-27427213D01*
X90927213Y-27350604D01*
X90987403Y-27260523D01*
X91000000Y-27230112D01*
X91012597Y-27260523D01*
X91072787Y-27350604D01*
X91149396Y-27427213D01*
X91239477Y-27487403D01*
X91339571Y-27528864D01*
X91445830Y-27550000D01*
X91554170Y-27550000D01*
X91660429Y-27528864D01*
X91760523Y-27487403D01*
X91850604Y-27427213D01*
X91927213Y-27350604D01*
X91987403Y-27260523D01*
X92000000Y-27230112D01*
X92012597Y-27260523D01*
X92072787Y-27350604D01*
X92149396Y-27427213D01*
X92239477Y-27487403D01*
X92339571Y-27528864D01*
X92445830Y-27550000D01*
X92554170Y-27550000D01*
X92660429Y-27528864D01*
X92760523Y-27487403D01*
X92850604Y-27427213D01*
X92927213Y-27350604D01*
X92987403Y-27260523D01*
X93000000Y-27230112D01*
X93012597Y-27260523D01*
X93072787Y-27350604D01*
X93149396Y-27427213D01*
X93239477Y-27487403D01*
X93339571Y-27528864D01*
X93445830Y-27550000D01*
X93554170Y-27550000D01*
X93660429Y-27528864D01*
X93760523Y-27487403D01*
X93850604Y-27427213D01*
X93927213Y-27350604D01*
X93987403Y-27260523D01*
X94000000Y-27230112D01*
X94012597Y-27260523D01*
X94072787Y-27350604D01*
X94149396Y-27427213D01*
X94239477Y-27487403D01*
X94339571Y-27528864D01*
X94445830Y-27550000D01*
X94554170Y-27550000D01*
X94660429Y-27528864D01*
X94760523Y-27487403D01*
X94850604Y-27427213D01*
X94927213Y-27350604D01*
X94987403Y-27260523D01*
X95000000Y-27230112D01*
X95012597Y-27260523D01*
X95072787Y-27350604D01*
X95149396Y-27427213D01*
X95239477Y-27487403D01*
X95339571Y-27528864D01*
X95445830Y-27550000D01*
X95554170Y-27550000D01*
X95660429Y-27528864D01*
X95760523Y-27487403D01*
X95850604Y-27427213D01*
X95927213Y-27350604D01*
X95987403Y-27260523D01*
X96000000Y-27230112D01*
X96012597Y-27260523D01*
X96072787Y-27350604D01*
X96149396Y-27427213D01*
X96239477Y-27487403D01*
X96339571Y-27528864D01*
X96445830Y-27550000D01*
X96554170Y-27550000D01*
X96660429Y-27528864D01*
X96760523Y-27487403D01*
X96850604Y-27427213D01*
X96927213Y-27350604D01*
X96987403Y-27260523D01*
X97000000Y-27230112D01*
X97012597Y-27260523D01*
X97072787Y-27350604D01*
X97149396Y-27427213D01*
X97239477Y-27487403D01*
X97339571Y-27528864D01*
X97445830Y-27550000D01*
X97554170Y-27550000D01*
X97660429Y-27528864D01*
X97760523Y-27487403D01*
X97850604Y-27427213D01*
X97927213Y-27350604D01*
X97987403Y-27260523D01*
X98028864Y-27160429D01*
X98050000Y-27054170D01*
X98050000Y-26945830D01*
X98028864Y-26839571D01*
X97987403Y-26739477D01*
X97927213Y-26649396D01*
X97850604Y-26572787D01*
X97760523Y-26512597D01*
X97660429Y-26471136D01*
X97554170Y-26450000D01*
X97445830Y-26450000D01*
X97339571Y-26471136D01*
X97239477Y-26512597D01*
X97149396Y-26572787D01*
X97072787Y-26649396D01*
X97012597Y-26739477D01*
X97000000Y-26769888D01*
X96987403Y-26739477D01*
X96927213Y-26649396D01*
X96850604Y-26572787D01*
X96760523Y-26512597D01*
X96660429Y-26471136D01*
X96554170Y-26450000D01*
X96445830Y-26450000D01*
X96339571Y-26471136D01*
X96239477Y-26512597D01*
X96149396Y-26572787D01*
X96072787Y-26649396D01*
X96012597Y-26739477D01*
X96000000Y-26769888D01*
X95987403Y-26739477D01*
X95927213Y-26649396D01*
X95850604Y-26572787D01*
X95760523Y-26512597D01*
X95660429Y-26471136D01*
X95554170Y-26450000D01*
X95445830Y-26450000D01*
X95339571Y-26471136D01*
X95239477Y-26512597D01*
X95149396Y-26572787D01*
X95072787Y-26649396D01*
X95012597Y-26739477D01*
X95000000Y-26769888D01*
X94987403Y-26739477D01*
X94927213Y-26649396D01*
X94850604Y-26572787D01*
X94760523Y-26512597D01*
X94660429Y-26471136D01*
X94554170Y-26450000D01*
X94445830Y-26450000D01*
X94339571Y-26471136D01*
X94239477Y-26512597D01*
X94149396Y-26572787D01*
X94072787Y-26649396D01*
X94012597Y-26739477D01*
X94000000Y-26769888D01*
X93987403Y-26739477D01*
X93927213Y-26649396D01*
X93850604Y-26572787D01*
X93760523Y-26512597D01*
X93660429Y-26471136D01*
X93554170Y-26450000D01*
X93445830Y-26450000D01*
X93339571Y-26471136D01*
X93239477Y-26512597D01*
X93149396Y-26572787D01*
X93072787Y-26649396D01*
X93012597Y-26739477D01*
X93000000Y-26769888D01*
X92987403Y-26739477D01*
X92927213Y-26649396D01*
X92850604Y-26572787D01*
X92760523Y-26512597D01*
X92660429Y-26471136D01*
X92554170Y-26450000D01*
X92445830Y-26450000D01*
X92339571Y-26471136D01*
X92239477Y-26512597D01*
X92149396Y-26572787D01*
X92072787Y-26649396D01*
X92012597Y-26739477D01*
X92000000Y-26769888D01*
X91987403Y-26739477D01*
X91927213Y-26649396D01*
X91850604Y-26572787D01*
X91760523Y-26512597D01*
X91660429Y-26471136D01*
X91554170Y-26450000D01*
X91445830Y-26450000D01*
X91339571Y-26471136D01*
X91239477Y-26512597D01*
X91149396Y-26572787D01*
X91072787Y-26649396D01*
X91012597Y-26739477D01*
X91000000Y-26769888D01*
X90987403Y-26739477D01*
X90927213Y-26649396D01*
X90850604Y-26572787D01*
X90760523Y-26512597D01*
X90660429Y-26471136D01*
X90554170Y-26450000D01*
X90445830Y-26450000D01*
X90339571Y-26471136D01*
X90239477Y-26512597D01*
X90149396Y-26572787D01*
X90072787Y-26649396D01*
X90012597Y-26739477D01*
X90000000Y-26769888D01*
X89987403Y-26739477D01*
X89927213Y-26649396D01*
X89850604Y-26572787D01*
X89760523Y-26512597D01*
X89660429Y-26471136D01*
X89554170Y-26450000D01*
X89445830Y-26450000D01*
X89339571Y-26471136D01*
X89239477Y-26512597D01*
X89149396Y-26572787D01*
X89072787Y-26649396D01*
X89012597Y-26739477D01*
X89000000Y-26769888D01*
X88987403Y-26739477D01*
X88927213Y-26649396D01*
X88850604Y-26572787D01*
X88760523Y-26512597D01*
X88660429Y-26471136D01*
X88554170Y-26450000D01*
X88445830Y-26450000D01*
X88339571Y-26471136D01*
X88239477Y-26512597D01*
X88149396Y-26572787D01*
X88072787Y-26649396D01*
X88050000Y-26683499D01*
X88027213Y-26649396D01*
X87950604Y-26572787D01*
X87860523Y-26512597D01*
X87760429Y-26471136D01*
X87654170Y-26450000D01*
X87545830Y-26450000D01*
X87439571Y-26471136D01*
X87339477Y-26512597D01*
X87249396Y-26572787D01*
X87200000Y-26622183D01*
X87150604Y-26572787D01*
X87116501Y-26550000D01*
X87150604Y-26527213D01*
X87227213Y-26450604D01*
X87287403Y-26360523D01*
X87328864Y-26260429D01*
X87350000Y-26154170D01*
X87350000Y-26045830D01*
X87328864Y-25939571D01*
X87287403Y-25839477D01*
X87227213Y-25749396D01*
X87150604Y-25672787D01*
X87060523Y-25612597D01*
X86960429Y-25571136D01*
X86854170Y-25550000D01*
X86745830Y-25550000D01*
X86639571Y-25571136D01*
X86539477Y-25612597D01*
X86449396Y-25672787D01*
X86372787Y-25749396D01*
X86312597Y-25839477D01*
X86271136Y-25939571D01*
X86250000Y-26045830D01*
X30650363Y-26045830D01*
X28013018Y-25694184D01*
X27845361Y-25650945D01*
X27698078Y-25571985D01*
X27573759Y-25460322D01*
X27479502Y-25322329D01*
X27420704Y-25165912D01*
X27400678Y-24999625D01*
X27406751Y-24945830D01*
X83750000Y-24945830D01*
X83750000Y-25054170D01*
X83771136Y-25160429D01*
X83812597Y-25260523D01*
X83872787Y-25350604D01*
X83949396Y-25427213D01*
X84039477Y-25487403D01*
X84139571Y-25528864D01*
X84245830Y-25550000D01*
X84354170Y-25550000D01*
X84460429Y-25528864D01*
X84560523Y-25487403D01*
X84650604Y-25427213D01*
X84727213Y-25350604D01*
X84787403Y-25260523D01*
X84828864Y-25160429D01*
X84850000Y-25054170D01*
X84850000Y-24945830D01*
X87200000Y-24945830D01*
X87200000Y-25054170D01*
X87221136Y-25160429D01*
X87262597Y-25260523D01*
X87322787Y-25350604D01*
X87399396Y-25427213D01*
X87489477Y-25487403D01*
X87589571Y-25528864D01*
X87695830Y-25550000D01*
X87804170Y-25550000D01*
X87910429Y-25528864D01*
X88010523Y-25487403D01*
X88100604Y-25427213D01*
X88177213Y-25350604D01*
X88237403Y-25260523D01*
X88278864Y-25160429D01*
X88300000Y-25054170D01*
X88300000Y-24945830D01*
X88278864Y-24839571D01*
X88237403Y-24739477D01*
X88177213Y-24649396D01*
X88100604Y-24572787D01*
X88010523Y-24512597D01*
X87910429Y-24471136D01*
X87804170Y-24450000D01*
X87695830Y-24450000D01*
X87589571Y-24471136D01*
X87489477Y-24512597D01*
X87399396Y-24572787D01*
X87322787Y-24649396D01*
X87262597Y-24739477D01*
X87221136Y-24839571D01*
X87200000Y-24945830D01*
X84850000Y-24945830D01*
X84828864Y-24839571D01*
X84787403Y-24739477D01*
X84727213Y-24649396D01*
X84650604Y-24572787D01*
X84560523Y-24512597D01*
X84460429Y-24471136D01*
X84354170Y-24450000D01*
X84245830Y-24450000D01*
X84139571Y-24471136D01*
X84039477Y-24512597D01*
X83949396Y-24572787D01*
X83872787Y-24649396D01*
X83812597Y-24739477D01*
X83771136Y-24839571D01*
X83750000Y-24945830D01*
X27406751Y-24945830D01*
X27420136Y-24827266D01*
X27477659Y-24663221D01*
X27570298Y-24516142D01*
X27693409Y-24393407D01*
X27840780Y-24301211D01*
X28010334Y-24242338D01*
X31099195Y-23545830D01*
X47262500Y-23545830D01*
X47262500Y-23654170D01*
X47283636Y-23760429D01*
X47325097Y-23860523D01*
X47385287Y-23950604D01*
X47461896Y-24027213D01*
X47551977Y-24087403D01*
X47652071Y-24128864D01*
X47758330Y-24150000D01*
X47866670Y-24150000D01*
X47972929Y-24128864D01*
X48073023Y-24087403D01*
X48163104Y-24027213D01*
X48239713Y-23950604D01*
X48299903Y-23860523D01*
X48341364Y-23760429D01*
X48362500Y-23654170D01*
X48362500Y-23545830D01*
X48850000Y-23545830D01*
X48850000Y-23654170D01*
X48871136Y-23760429D01*
X48912597Y-23860523D01*
X48972787Y-23950604D01*
X49049396Y-24027213D01*
X49139477Y-24087403D01*
X49239571Y-24128864D01*
X49345830Y-24150000D01*
X49454170Y-24150000D01*
X49560429Y-24128864D01*
X49660523Y-24087403D01*
X49750604Y-24027213D01*
X49827213Y-23950604D01*
X49887403Y-23860523D01*
X49928864Y-23760429D01*
X49950000Y-23654170D01*
X49950000Y-23545830D01*
X49928864Y-23439571D01*
X49887403Y-23339477D01*
X49827213Y-23249396D01*
X49750604Y-23172787D01*
X49660523Y-23112597D01*
X49560429Y-23071136D01*
X49454170Y-23050000D01*
X49345830Y-23050000D01*
X49239571Y-23071136D01*
X49139477Y-23112597D01*
X49049396Y-23172787D01*
X48972787Y-23249396D01*
X48912597Y-23339477D01*
X48871136Y-23439571D01*
X48850000Y-23545830D01*
X48362500Y-23545830D01*
X48341364Y-23439571D01*
X48299903Y-23339477D01*
X48239713Y-23249396D01*
X48163104Y-23172787D01*
X48073023Y-23112597D01*
X47972929Y-23071136D01*
X47866670Y-23050000D01*
X47758330Y-23050000D01*
X47652071Y-23071136D01*
X47551977Y-23112597D01*
X47461896Y-23172787D01*
X47385287Y-23249396D01*
X47325097Y-23339477D01*
X47283636Y-23439571D01*
X47262500Y-23545830D01*
X31099195Y-23545830D01*
X33760065Y-22945830D01*
X86250000Y-22945830D01*
X86250000Y-23054170D01*
X86271136Y-23160429D01*
X86312597Y-23260523D01*
X86372787Y-23350604D01*
X86449396Y-23427213D01*
X86483499Y-23450000D01*
X86449396Y-23472787D01*
X86372787Y-23549396D01*
X86312597Y-23639477D01*
X86271136Y-23739571D01*
X86250000Y-23845830D01*
X86250000Y-23954170D01*
X86271136Y-24060429D01*
X86312597Y-24160523D01*
X86372787Y-24250604D01*
X86449396Y-24327213D01*
X86539477Y-24387403D01*
X86639571Y-24428864D01*
X86745830Y-24450000D01*
X86854170Y-24450000D01*
X86960429Y-24428864D01*
X87060523Y-24387403D01*
X87150604Y-24327213D01*
X87227213Y-24250604D01*
X87287403Y-24160523D01*
X87328864Y-24060429D01*
X87350000Y-23954170D01*
X87350000Y-23845830D01*
X87328864Y-23739571D01*
X87287403Y-23639477D01*
X87227213Y-23549396D01*
X87150604Y-23472787D01*
X87116501Y-23450000D01*
X87150604Y-23427213D01*
X87200000Y-23377817D01*
X87249396Y-23427213D01*
X87339477Y-23487403D01*
X87439571Y-23528864D01*
X87545830Y-23550000D01*
X87654170Y-23550000D01*
X87760429Y-23528864D01*
X87860523Y-23487403D01*
X87950604Y-23427213D01*
X88027213Y-23350604D01*
X88050000Y-23316501D01*
X88072787Y-23350604D01*
X88149396Y-23427213D01*
X88239477Y-23487403D01*
X88339571Y-23528864D01*
X88445830Y-23550000D01*
X88554170Y-23550000D01*
X88660429Y-23528864D01*
X88760523Y-23487403D01*
X88850604Y-23427213D01*
X88927213Y-23350604D01*
X88987403Y-23260523D01*
X89000000Y-23230112D01*
X89012597Y-23260523D01*
X89072787Y-23350604D01*
X89149396Y-23427213D01*
X89239477Y-23487403D01*
X89339571Y-23528864D01*
X89445830Y-23550000D01*
X89554170Y-23550000D01*
X89660429Y-23528864D01*
X89760523Y-23487403D01*
X89850604Y-23427213D01*
X89927213Y-23350604D01*
X89987403Y-23260523D01*
X90000000Y-23230112D01*
X90012597Y-23260523D01*
X90072787Y-23350604D01*
X90149396Y-23427213D01*
X90239477Y-23487403D01*
X90339571Y-23528864D01*
X90445830Y-23550000D01*
X90554170Y-23550000D01*
X90660429Y-23528864D01*
X90760523Y-23487403D01*
X90850604Y-23427213D01*
X90927213Y-23350604D01*
X90987403Y-23260523D01*
X91000000Y-23230112D01*
X91012597Y-23260523D01*
X91072787Y-23350604D01*
X91149396Y-23427213D01*
X91239477Y-23487403D01*
X91339571Y-23528864D01*
X91445830Y-23550000D01*
X91554170Y-23550000D01*
X91660429Y-23528864D01*
X91760523Y-23487403D01*
X91850604Y-23427213D01*
X91927213Y-23350604D01*
X91987403Y-23260523D01*
X92000000Y-23230112D01*
X92012597Y-23260523D01*
X92072787Y-23350604D01*
X92149396Y-23427213D01*
X92239477Y-23487403D01*
X92339571Y-23528864D01*
X92445830Y-23550000D01*
X92554170Y-23550000D01*
X92660429Y-23528864D01*
X92760523Y-23487403D01*
X92850604Y-23427213D01*
X92927213Y-23350604D01*
X92987403Y-23260523D01*
X93000000Y-23230112D01*
X93012597Y-23260523D01*
X93072787Y-23350604D01*
X93149396Y-23427213D01*
X93239477Y-23487403D01*
X93339571Y-23528864D01*
X93445830Y-23550000D01*
X93554170Y-23550000D01*
X93660429Y-23528864D01*
X93760523Y-23487403D01*
X93850604Y-23427213D01*
X93927213Y-23350604D01*
X93987403Y-23260523D01*
X94000000Y-23230112D01*
X94012597Y-23260523D01*
X94072787Y-23350604D01*
X94149396Y-23427213D01*
X94239477Y-23487403D01*
X94339571Y-23528864D01*
X94445830Y-23550000D01*
X94554170Y-23550000D01*
X94660429Y-23528864D01*
X94760523Y-23487403D01*
X94850604Y-23427213D01*
X94927213Y-23350604D01*
X94987403Y-23260523D01*
X95000000Y-23230112D01*
X95012597Y-23260523D01*
X95072787Y-23350604D01*
X95149396Y-23427213D01*
X95239477Y-23487403D01*
X95339571Y-23528864D01*
X95445830Y-23550000D01*
X95554170Y-23550000D01*
X95660429Y-23528864D01*
X95760523Y-23487403D01*
X95850604Y-23427213D01*
X95927213Y-23350604D01*
X95987403Y-23260523D01*
X96000000Y-23230112D01*
X96012597Y-23260523D01*
X96072787Y-23350604D01*
X96149396Y-23427213D01*
X96239477Y-23487403D01*
X96339571Y-23528864D01*
X96445830Y-23550000D01*
X96554170Y-23550000D01*
X96660429Y-23528864D01*
X96760523Y-23487403D01*
X96850604Y-23427213D01*
X96927213Y-23350604D01*
X96987403Y-23260523D01*
X97000000Y-23230112D01*
X97012597Y-23260523D01*
X97072787Y-23350604D01*
X97149396Y-23427213D01*
X97239477Y-23487403D01*
X97339571Y-23528864D01*
X97445830Y-23550000D01*
X97554170Y-23550000D01*
X97660429Y-23528864D01*
X97760523Y-23487403D01*
X97850604Y-23427213D01*
X97927213Y-23350604D01*
X97987403Y-23260523D01*
X98028864Y-23160429D01*
X98050000Y-23054170D01*
X98050000Y-22945830D01*
X98028864Y-22839571D01*
X97987403Y-22739477D01*
X97927213Y-22649396D01*
X97850604Y-22572787D01*
X97760523Y-22512597D01*
X97660429Y-22471136D01*
X97554170Y-22450000D01*
X97445830Y-22450000D01*
X97339571Y-22471136D01*
X97239477Y-22512597D01*
X97149396Y-22572787D01*
X97072787Y-22649396D01*
X97012597Y-22739477D01*
X97000000Y-22769888D01*
X96987403Y-22739477D01*
X96927213Y-22649396D01*
X96850604Y-22572787D01*
X96760523Y-22512597D01*
X96660429Y-22471136D01*
X96554170Y-22450000D01*
X96445830Y-22450000D01*
X96339571Y-22471136D01*
X96239477Y-22512597D01*
X96149396Y-22572787D01*
X96072787Y-22649396D01*
X96012597Y-22739477D01*
X96000000Y-22769888D01*
X95987403Y-22739477D01*
X95927213Y-22649396D01*
X95850604Y-22572787D01*
X95760523Y-22512597D01*
X95660429Y-22471136D01*
X95554170Y-22450000D01*
X95445830Y-22450000D01*
X95339571Y-22471136D01*
X95239477Y-22512597D01*
X95149396Y-22572787D01*
X95072787Y-22649396D01*
X95012597Y-22739477D01*
X95000000Y-22769888D01*
X94987403Y-22739477D01*
X94927213Y-22649396D01*
X94850604Y-22572787D01*
X94760523Y-22512597D01*
X94660429Y-22471136D01*
X94554170Y-22450000D01*
X94445830Y-22450000D01*
X94339571Y-22471136D01*
X94239477Y-22512597D01*
X94149396Y-22572787D01*
X94072787Y-22649396D01*
X94012597Y-22739477D01*
X94000000Y-22769888D01*
X93987403Y-22739477D01*
X93927213Y-22649396D01*
X93850604Y-22572787D01*
X93760523Y-22512597D01*
X93660429Y-22471136D01*
X93554170Y-22450000D01*
X93445830Y-22450000D01*
X93339571Y-22471136D01*
X93239477Y-22512597D01*
X93149396Y-22572787D01*
X93072787Y-22649396D01*
X93012597Y-22739477D01*
X93000000Y-22769888D01*
X92987403Y-22739477D01*
X92927213Y-22649396D01*
X92850604Y-22572787D01*
X92760523Y-22512597D01*
X92660429Y-22471136D01*
X92554170Y-22450000D01*
X92445830Y-22450000D01*
X92339571Y-22471136D01*
X92239477Y-22512597D01*
X92149396Y-22572787D01*
X92072787Y-22649396D01*
X92012597Y-22739477D01*
X92000000Y-22769888D01*
X91987403Y-22739477D01*
X91927213Y-22649396D01*
X91850604Y-22572787D01*
X91760523Y-22512597D01*
X91660429Y-22471136D01*
X91554170Y-22450000D01*
X91445830Y-22450000D01*
X91339571Y-22471136D01*
X91239477Y-22512597D01*
X91149396Y-22572787D01*
X91072787Y-22649396D01*
X91012597Y-22739477D01*
X91000000Y-22769888D01*
X90987403Y-22739477D01*
X90927213Y-22649396D01*
X90850604Y-22572787D01*
X90760523Y-22512597D01*
X90660429Y-22471136D01*
X90554170Y-22450000D01*
X90445830Y-22450000D01*
X90339571Y-22471136D01*
X90239477Y-22512597D01*
X90149396Y-22572787D01*
X90072787Y-22649396D01*
X90012597Y-22739477D01*
X90000000Y-22769888D01*
X89987403Y-22739477D01*
X89927213Y-22649396D01*
X89850604Y-22572787D01*
X89760523Y-22512597D01*
X89660429Y-22471136D01*
X89554170Y-22450000D01*
X89445830Y-22450000D01*
X89339571Y-22471136D01*
X89239477Y-22512597D01*
X89149396Y-22572787D01*
X89072787Y-22649396D01*
X89012597Y-22739477D01*
X89000000Y-22769888D01*
X88987403Y-22739477D01*
X88927213Y-22649396D01*
X88850604Y-22572787D01*
X88760523Y-22512597D01*
X88660429Y-22471136D01*
X88554170Y-22450000D01*
X88445830Y-22450000D01*
X88339571Y-22471136D01*
X88239477Y-22512597D01*
X88149396Y-22572787D01*
X88072787Y-22649396D01*
X88050000Y-22683499D01*
X88027213Y-22649396D01*
X87950604Y-22572787D01*
X87860523Y-22512597D01*
X87760429Y-22471136D01*
X87654170Y-22450000D01*
X87545830Y-22450000D01*
X87439571Y-22471136D01*
X87339477Y-22512597D01*
X87249396Y-22572787D01*
X87200000Y-22622183D01*
X87150604Y-22572787D01*
X87060523Y-22512597D01*
X86960429Y-22471136D01*
X86854170Y-22450000D01*
X86745830Y-22450000D01*
X86639571Y-22471136D01*
X86539477Y-22512597D01*
X86449396Y-22572787D01*
X86372787Y-22649396D01*
X86312597Y-22739477D01*
X86271136Y-22839571D01*
X86250000Y-22945830D01*
X33760065Y-22945830D01*
X38638327Y-21845830D01*
X45637500Y-21845830D01*
X45637500Y-21954170D01*
X45658636Y-22060429D01*
X45700097Y-22160523D01*
X45760287Y-22250604D01*
X45836896Y-22327213D01*
X45926977Y-22387403D01*
X46027071Y-22428864D01*
X46133330Y-22450000D01*
X46241670Y-22450000D01*
X46347929Y-22428864D01*
X46448023Y-22387403D01*
X46538104Y-22327213D01*
X46614713Y-22250604D01*
X46674903Y-22160523D01*
X46716364Y-22060429D01*
X46737500Y-21954170D01*
X46737500Y-21858330D01*
X47262500Y-21858330D01*
X47262500Y-21966670D01*
X47283636Y-22072929D01*
X47325097Y-22173023D01*
X47385287Y-22263104D01*
X47461896Y-22339713D01*
X47551977Y-22399903D01*
X47652071Y-22441364D01*
X47758330Y-22462500D01*
X47866670Y-22462500D01*
X47972929Y-22441364D01*
X48073023Y-22399903D01*
X48163104Y-22339713D01*
X48239713Y-22263104D01*
X48299903Y-22173023D01*
X48341364Y-22072929D01*
X48362500Y-21966670D01*
X48362500Y-21858330D01*
X48341364Y-21752071D01*
X48299903Y-21651977D01*
X48239713Y-21561896D01*
X48163104Y-21485287D01*
X48073023Y-21425097D01*
X47972929Y-21383636D01*
X47866670Y-21362500D01*
X47758330Y-21362500D01*
X47652071Y-21383636D01*
X47551977Y-21425097D01*
X47461896Y-21485287D01*
X47385287Y-21561896D01*
X47325097Y-21651977D01*
X47283636Y-21752071D01*
X47262500Y-21858330D01*
X46737500Y-21858330D01*
X46737500Y-21845830D01*
X46716364Y-21739571D01*
X46674903Y-21639477D01*
X46614713Y-21549396D01*
X46538104Y-21472787D01*
X46448023Y-21412597D01*
X46347929Y-21371136D01*
X46241670Y-21350000D01*
X46133330Y-21350000D01*
X46027071Y-21371136D01*
X45926977Y-21412597D01*
X45836896Y-21472787D01*
X45760287Y-21549396D01*
X45700097Y-21639477D01*
X45658636Y-21739571D01*
X45637500Y-21845830D01*
X38638327Y-21845830D01*
X47607964Y-19823265D01*
X47816899Y-19800000D01*
X48350000Y-19800000D01*
X48363053Y-19799144D01*
X48531285Y-19776996D01*
X48556500Y-19770240D01*
X48713268Y-19705305D01*
X48729679Y-19695830D01*
X54350000Y-19695830D01*
X54350000Y-19804170D01*
X54371136Y-19910429D01*
X54412597Y-20010523D01*
X54472383Y-20100000D01*
X54412597Y-20189477D01*
X54371136Y-20289571D01*
X54350000Y-20395830D01*
X54350000Y-20504170D01*
X54371136Y-20610429D01*
X54412597Y-20710523D01*
X54472787Y-20800604D01*
X54549396Y-20877213D01*
X54639477Y-20937403D01*
X54739571Y-20978864D01*
X54845830Y-21000000D01*
X54954170Y-21000000D01*
X55060429Y-20978864D01*
X55160523Y-20937403D01*
X55250604Y-20877213D01*
X55327213Y-20800604D01*
X55387403Y-20710523D01*
X55428864Y-20610429D01*
X55441713Y-20545830D01*
X87050000Y-20545830D01*
X87050000Y-20654170D01*
X87071136Y-20760429D01*
X87112597Y-20860523D01*
X87172787Y-20950604D01*
X87249396Y-21027213D01*
X87339477Y-21087403D01*
X87439571Y-21128864D01*
X87545830Y-21150000D01*
X87654170Y-21150000D01*
X87760429Y-21128864D01*
X87860523Y-21087403D01*
X87950604Y-21027213D01*
X88027213Y-20950604D01*
X88087403Y-20860523D01*
X88128864Y-20760429D01*
X88150000Y-20654170D01*
X88150000Y-20545830D01*
X88128864Y-20439571D01*
X88087403Y-20339477D01*
X88027213Y-20249396D01*
X87950604Y-20172787D01*
X87860523Y-20112597D01*
X87760429Y-20071136D01*
X87654170Y-20050000D01*
X87545830Y-20050000D01*
X87439571Y-20071136D01*
X87339477Y-20112597D01*
X87249396Y-20172787D01*
X87172787Y-20249396D01*
X87112597Y-20339477D01*
X87071136Y-20439571D01*
X87050000Y-20545830D01*
X55441713Y-20545830D01*
X55450000Y-20504170D01*
X55450000Y-20395830D01*
X55428864Y-20289571D01*
X55387403Y-20189477D01*
X55327617Y-20100000D01*
X55387403Y-20010523D01*
X55428864Y-19910429D01*
X55450000Y-19804170D01*
X55450000Y-19695830D01*
X55428864Y-19589571D01*
X55387403Y-19489477D01*
X55327213Y-19399396D01*
X55250604Y-19322787D01*
X55160523Y-19262597D01*
X55060429Y-19221136D01*
X54954170Y-19200000D01*
X54845830Y-19200000D01*
X54739571Y-19221136D01*
X54639477Y-19262597D01*
X54549396Y-19322787D01*
X54472787Y-19399396D01*
X54412597Y-19489477D01*
X54371136Y-19589571D01*
X54350000Y-19695830D01*
X48729679Y-19695830D01*
X48735877Y-19692252D01*
X48870496Y-19588954D01*
X48888954Y-19570496D01*
X48992252Y-19435877D01*
X49005305Y-19413268D01*
X49070240Y-19256500D01*
X49076996Y-19231285D01*
X49099144Y-19063053D01*
X49100000Y-19050000D01*
X49100000Y-17545830D01*
X53250000Y-17545830D01*
X53250000Y-17654170D01*
X53271136Y-17760429D01*
X53312597Y-17860523D01*
X53372787Y-17950604D01*
X53449396Y-18027213D01*
X53539477Y-18087403D01*
X53639571Y-18128864D01*
X53745830Y-18150000D01*
X53854170Y-18150000D01*
X53960429Y-18128864D01*
X54060523Y-18087403D01*
X54100000Y-18061025D01*
X54139477Y-18087403D01*
X54239571Y-18128864D01*
X54345830Y-18150000D01*
X54454170Y-18150000D01*
X54560429Y-18128864D01*
X54660523Y-18087403D01*
X54750604Y-18027213D01*
X54827213Y-17950604D01*
X54887403Y-17860523D01*
X54928864Y-17760429D01*
X54950000Y-17654170D01*
X54950000Y-17545830D01*
X54928864Y-17439571D01*
X54887403Y-17339477D01*
X54827213Y-17249396D01*
X54750604Y-17172787D01*
X54660523Y-17112597D01*
X54560429Y-17071136D01*
X54547151Y-17068495D01*
X54550000Y-17054170D01*
X54550000Y-16945830D01*
X54528864Y-16839571D01*
X54487403Y-16739477D01*
X54461025Y-16700000D01*
X54487403Y-16660523D01*
X54528864Y-16560429D01*
X54550000Y-16454170D01*
X54550000Y-16345830D01*
X54528864Y-16239571D01*
X54487403Y-16139477D01*
X54461025Y-16100000D01*
X54487403Y-16060523D01*
X54528864Y-15960429D01*
X54550000Y-15854170D01*
X54550000Y-15745830D01*
X54528864Y-15639571D01*
X54487403Y-15539477D01*
X54461025Y-15500000D01*
X54487403Y-15460523D01*
X54514200Y-15395830D01*
X58150000Y-15395830D01*
X58150000Y-15504170D01*
X58171136Y-15610429D01*
X58212597Y-15710523D01*
X58272787Y-15800604D01*
X58349396Y-15877213D01*
X58439477Y-15937403D01*
X58539571Y-15978864D01*
X58645830Y-16000000D01*
X58754170Y-16000000D01*
X58860429Y-15978864D01*
X58960523Y-15937403D01*
X59050604Y-15877213D01*
X59127213Y-15800604D01*
X59187403Y-15710523D01*
X59228864Y-15610429D01*
X59250000Y-15504170D01*
X59250000Y-15395830D01*
X59228864Y-15289571D01*
X59187403Y-15189477D01*
X59127213Y-15099396D01*
X59050604Y-15022787D01*
X58960523Y-14962597D01*
X58860429Y-14921136D01*
X58754170Y-14900000D01*
X58645830Y-14900000D01*
X58539571Y-14921136D01*
X58439477Y-14962597D01*
X58349396Y-15022787D01*
X58272787Y-15099396D01*
X58212597Y-15189477D01*
X58171136Y-15289571D01*
X58150000Y-15395830D01*
X54514200Y-15395830D01*
X54528864Y-15360429D01*
X54550000Y-15254170D01*
X54550000Y-15145830D01*
X54528864Y-15039571D01*
X54487403Y-14939477D01*
X54427213Y-14849396D01*
X54350604Y-14772787D01*
X54260523Y-14712597D01*
X54160429Y-14671136D01*
X54054170Y-14650000D01*
X53945830Y-14650000D01*
X53839571Y-14671136D01*
X53739477Y-14712597D01*
X53649396Y-14772787D01*
X53572787Y-14849396D01*
X53512597Y-14939477D01*
X53471136Y-15039571D01*
X53450000Y-15145830D01*
X53450000Y-15254170D01*
X53471136Y-15360429D01*
X53512597Y-15460523D01*
X53538975Y-15500000D01*
X53512597Y-15539477D01*
X53471136Y-15639571D01*
X53450000Y-15745830D01*
X53450000Y-15854170D01*
X53471136Y-15960429D01*
X53512597Y-16060523D01*
X53538975Y-16100000D01*
X53512597Y-16139477D01*
X53471136Y-16239571D01*
X53450000Y-16345830D01*
X53450000Y-16454170D01*
X53471136Y-16560429D01*
X53512597Y-16660523D01*
X53538975Y-16700000D01*
X53512597Y-16739477D01*
X53471136Y-16839571D01*
X53450000Y-16945830D01*
X53450000Y-17054170D01*
X53470755Y-17158515D01*
X53449396Y-17172787D01*
X53372787Y-17249396D01*
X53312597Y-17339477D01*
X53271136Y-17439571D01*
X53250000Y-17545830D01*
X49100000Y-17545830D01*
X49100000Y-15550000D01*
X49099371Y-15538804D01*
X49080567Y-15371913D01*
X49075584Y-15350081D01*
X49020115Y-15191559D01*
X49010399Y-15171384D01*
X48921046Y-15029180D01*
X48907085Y-15011672D01*
X48788328Y-14892915D01*
X48770820Y-14878954D01*
X48628616Y-14789601D01*
X48608441Y-14779885D01*
X48449919Y-14724416D01*
X48428087Y-14719433D01*
X48261196Y-14700629D01*
X48250000Y-14700000D01*
X47641550Y-14700000D01*
X47627535Y-14700987D01*
X47349996Y-14740273D01*
X47336257Y-14743215D01*
X30102554Y-19721840D01*
X29946387Y-19747009D01*
X29794860Y-19734392D01*
X29650811Y-19685703D01*
X29522701Y-19603801D01*
X29418046Y-19493491D01*
X29343266Y-19361735D01*
X29306286Y-19224081D01*
X29306601Y-19082101D01*
X29344045Y-18945154D01*
X29416016Y-18822763D01*
X29517493Y-18723466D01*
X29647246Y-18650909D01*
X49329619Y-10845830D01*
X57750000Y-10845830D01*
X57750000Y-10954170D01*
X57771136Y-11060429D01*
X57812597Y-11160523D01*
X57872787Y-11250604D01*
X57949396Y-11327213D01*
X58039477Y-11387403D01*
X58139571Y-11428864D01*
X58245830Y-11450000D01*
X58354170Y-11450000D01*
X58460429Y-11428864D01*
X58560523Y-11387403D01*
X58650604Y-11327213D01*
X58727213Y-11250604D01*
X58787403Y-11160523D01*
X58828864Y-11060429D01*
X58850000Y-10954170D01*
X58850000Y-10845830D01*
X58828864Y-10739571D01*
X58787403Y-10639477D01*
X58727213Y-10549396D01*
X58650604Y-10472787D01*
X58560523Y-10412597D01*
X58460429Y-10371136D01*
X58354170Y-10350000D01*
X58245830Y-10350000D01*
X58139571Y-10371136D01*
X58039477Y-10412597D01*
X57949396Y-10472787D01*
X57872787Y-10549396D01*
X57812597Y-10639477D01*
X57771136Y-10739571D01*
X57750000Y-10845830D01*
X49329619Y-10845830D01*
X51892778Y-9829405D01*
X51872787Y-9849396D01*
X51812597Y-9939477D01*
X51771136Y-10039571D01*
X51750000Y-10145830D01*
X51750000Y-10254170D01*
X51771136Y-10360429D01*
X51812597Y-10460523D01*
X51872787Y-10550604D01*
X51949396Y-10627213D01*
X52039477Y-10687403D01*
X52139571Y-10728864D01*
X52245830Y-10750000D01*
X52354170Y-10750000D01*
X52460429Y-10728864D01*
X52560523Y-10687403D01*
X52650604Y-10627213D01*
X52727213Y-10550604D01*
X52787403Y-10460523D01*
X52828864Y-10360429D01*
X52850000Y-10254170D01*
X52850000Y-10145830D01*
X52828864Y-10039571D01*
X52787403Y-9939477D01*
X52727213Y-9849396D01*
X52650604Y-9772787D01*
X52560523Y-9712597D01*
X52530112Y-9700000D01*
X52850000Y-9700000D01*
X52863053Y-9699144D01*
X53031285Y-9676996D01*
X53056500Y-9670240D01*
X53213268Y-9605305D01*
X53235877Y-9592252D01*
X53370496Y-9488954D01*
X53388954Y-9470496D01*
X53492252Y-9335877D01*
X53505305Y-9313268D01*
X53570240Y-9156500D01*
X53576996Y-9131285D01*
X53588246Y-9045830D01*
X53850000Y-9045830D01*
X53850000Y-9154170D01*
X53871136Y-9260429D01*
X53912597Y-9360523D01*
X53972787Y-9450604D01*
X54049396Y-9527213D01*
X54139477Y-9587403D01*
X54239571Y-9628864D01*
X54345830Y-9650000D01*
X54454170Y-9650000D01*
X54475134Y-9645830D01*
X59000000Y-9645830D01*
X59000000Y-9754170D01*
X59021136Y-9860429D01*
X59062597Y-9960523D01*
X59122787Y-10050604D01*
X59199396Y-10127213D01*
X59289477Y-10187403D01*
X59389571Y-10228864D01*
X59495830Y-10250000D01*
X59604170Y-10250000D01*
X59710429Y-10228864D01*
X59810523Y-10187403D01*
X59900604Y-10127213D01*
X59977213Y-10050604D01*
X60037403Y-9960523D01*
X60078864Y-9860429D01*
X60100000Y-9754170D01*
X60100000Y-9645830D01*
X60078864Y-9539571D01*
X60037403Y-9439477D01*
X59977213Y-9349396D01*
X59900604Y-9272787D01*
X59810523Y-9212597D01*
X59710429Y-9171136D01*
X59604170Y-9150000D01*
X59495830Y-9150000D01*
X59389571Y-9171136D01*
X59289477Y-9212597D01*
X59199396Y-9272787D01*
X59122787Y-9349396D01*
X59062597Y-9439477D01*
X59021136Y-9539571D01*
X59000000Y-9645830D01*
X54475134Y-9645830D01*
X54560429Y-9628864D01*
X54660523Y-9587403D01*
X54750604Y-9527213D01*
X54827213Y-9450604D01*
X54887403Y-9360523D01*
X54928864Y-9260429D01*
X54950000Y-9154170D01*
X54950000Y-9045830D01*
X54928864Y-8939571D01*
X54887403Y-8839477D01*
X54827213Y-8749396D01*
X54750604Y-8672787D01*
X54660523Y-8612597D01*
X54560429Y-8571136D01*
X54454170Y-8550000D01*
X54345830Y-8550000D01*
X54239571Y-8571136D01*
X54139477Y-8612597D01*
X54049396Y-8672787D01*
X53972787Y-8749396D01*
X53912597Y-8839477D01*
X53871136Y-8939571D01*
X53850000Y-9045830D01*
X53588246Y-9045830D01*
X53599144Y-8963053D01*
X53600000Y-8950000D01*
X53600000Y-7545830D01*
X57550000Y-7545830D01*
X57550000Y-7654170D01*
X57571136Y-7760429D01*
X57612597Y-7860523D01*
X57672787Y-7950604D01*
X57749396Y-8027213D01*
X57839477Y-8087403D01*
X57939571Y-8128864D01*
X58045830Y-8150000D01*
X58154170Y-8150000D01*
X58260429Y-8128864D01*
X58360523Y-8087403D01*
X58400000Y-8061025D01*
X58439477Y-8087403D01*
X58539571Y-8128864D01*
X58645830Y-8150000D01*
X58754170Y-8150000D01*
X58860429Y-8128864D01*
X58960523Y-8087403D01*
X59050604Y-8027213D01*
X59127213Y-7950604D01*
X59187403Y-7860523D01*
X59228864Y-7760429D01*
X59250000Y-7654170D01*
X59250000Y-7545830D01*
X59228864Y-7439571D01*
X59187403Y-7339477D01*
X59127213Y-7249396D01*
X59050604Y-7172787D01*
X58960523Y-7112597D01*
X58860429Y-7071136D01*
X58847151Y-7068495D01*
X58850000Y-7054170D01*
X58850000Y-6945830D01*
X58828864Y-6839571D01*
X58787403Y-6739477D01*
X58761025Y-6700000D01*
X58787403Y-6660523D01*
X58828864Y-6560429D01*
X58850000Y-6454170D01*
X58850000Y-6345830D01*
X58828864Y-6239571D01*
X58787403Y-6139477D01*
X58761025Y-6100000D01*
X58787403Y-6060523D01*
X58828864Y-5960429D01*
X58850000Y-5854170D01*
X58850000Y-5745830D01*
X58828864Y-5639571D01*
X58787403Y-5539477D01*
X58761025Y-5500000D01*
X58787403Y-5460523D01*
X58828864Y-5360429D01*
X58831767Y-5345830D01*
X62450000Y-5345830D01*
X62450000Y-5454170D01*
X62471136Y-5560429D01*
X62512597Y-5660523D01*
X62572787Y-5750604D01*
X62649396Y-5827213D01*
X62739477Y-5887403D01*
X62839571Y-5928864D01*
X62945830Y-5950000D01*
X63054170Y-5950000D01*
X63160429Y-5928864D01*
X63260523Y-5887403D01*
X63350604Y-5827213D01*
X63427213Y-5750604D01*
X63487403Y-5660523D01*
X63528864Y-5560429D01*
X63550000Y-5454170D01*
X63550000Y-5345830D01*
X63528864Y-5239571D01*
X63487403Y-5139477D01*
X63427213Y-5049396D01*
X63350604Y-4972787D01*
X63260523Y-4912597D01*
X63160429Y-4871136D01*
X63054170Y-4850000D01*
X62945830Y-4850000D01*
X62839571Y-4871136D01*
X62739477Y-4912597D01*
X62649396Y-4972787D01*
X62572787Y-5049396D01*
X62512597Y-5139477D01*
X62471136Y-5239571D01*
X62450000Y-5345830D01*
X58831767Y-5345830D01*
X58850000Y-5254170D01*
X58850000Y-5145830D01*
X58828864Y-5039571D01*
X58787403Y-4939477D01*
X58727213Y-4849396D01*
X58650604Y-4772787D01*
X58560523Y-4712597D01*
X58460429Y-4671136D01*
X58354170Y-4650000D01*
X58245830Y-4650000D01*
X58139571Y-4671136D01*
X58039477Y-4712597D01*
X57949396Y-4772787D01*
X57872787Y-4849396D01*
X57812597Y-4939477D01*
X57771136Y-5039571D01*
X57750000Y-5145830D01*
X57750000Y-5254170D01*
X57771136Y-5360429D01*
X57812597Y-5460523D01*
X57838975Y-5500000D01*
X57812597Y-5539477D01*
X57771136Y-5639571D01*
X57750000Y-5745830D01*
X57750000Y-5854170D01*
X57771136Y-5960429D01*
X57812597Y-6060523D01*
X57838975Y-6100000D01*
X57812597Y-6139477D01*
X57771136Y-6239571D01*
X57750000Y-6345830D01*
X57750000Y-6454170D01*
X57771136Y-6560429D01*
X57812597Y-6660523D01*
X57838975Y-6700000D01*
X57812597Y-6739477D01*
X57771136Y-6839571D01*
X57750000Y-6945830D01*
X57750000Y-7054170D01*
X57770755Y-7158515D01*
X57749396Y-7172787D01*
X57672787Y-7249396D01*
X57612597Y-7339477D01*
X57571136Y-7439571D01*
X57550000Y-7545830D01*
X53600000Y-7545830D01*
X53600000Y-5550000D01*
X53599371Y-5538804D01*
X53580567Y-5371913D01*
X53575584Y-5350081D01*
X53520115Y-5191559D01*
X53510399Y-5171384D01*
X53421046Y-5029180D01*
X53407085Y-5011672D01*
X53288328Y-4892915D01*
X53270820Y-4878954D01*
X53128616Y-4789601D01*
X53108441Y-4779885D01*
X52949919Y-4724416D01*
X52928087Y-4719433D01*
X52761196Y-4700629D01*
X52750000Y-4700000D01*
X52171120Y-4700000D01*
X52162656Y-4700359D01*
X51993988Y-4714686D01*
X51977303Y-4717541D01*
X51813467Y-4760112D01*
X51805366Y-4762588D01*
X20966812Y-15635155D01*
X20956514Y-15639445D01*
X20769125Y-15730096D01*
X20750278Y-15741970D01*
X20588358Y-15871253D01*
X20493505Y-15944036D01*
X20394312Y-15985123D01*
X20281311Y-16000000D01*
X1004908Y-16000000D01*
X824515Y-15982232D01*
X655771Y-15931045D01*
X500255Y-15847920D01*
X363946Y-15736054D01*
X325000Y-15688598D01*
X325000Y-421133D01*
X366958Y-370435D01*
X422924Y-325000D01*
X23849467Y-325000D01*
X52989021Y-599901D01*
%TA.AperFunction,Conductor*%
D15*
G36*
X52989021Y-599901D02*
G01*
X52990024Y-599905D01*
X53010096Y-599893D01*
X53011100Y-599887D01*
X78850485Y-325000D01*
X99575582Y-325000D01*
X99632658Y-371272D01*
X99675000Y-422379D01*
X99675001Y-49588597D01*
X99636054Y-49636054D01*
X99588598Y-49675000D01*
X411402Y-49675000D01*
X363946Y-49636054D01*
X325000Y-49588598D01*
X325000Y-44945830D01*
X54850006Y-44945830D01*
X54850006Y-45054170D01*
X54871142Y-45160429D01*
X54912603Y-45260523D01*
X54972793Y-45350604D01*
X55049402Y-45427213D01*
X55139483Y-45487403D01*
X55239577Y-45528864D01*
X55345836Y-45550000D01*
X55454176Y-45550000D01*
X55560435Y-45528864D01*
X55660529Y-45487403D01*
X55750610Y-45427213D01*
X55827219Y-45350604D01*
X55887409Y-45260523D01*
X55928870Y-45160429D01*
X55950006Y-45054170D01*
X55950006Y-44945830D01*
X55928870Y-44839571D01*
X55887409Y-44739477D01*
X55827219Y-44649396D01*
X55750610Y-44572787D01*
X55660529Y-44512597D01*
X55560435Y-44471136D01*
X55454176Y-44450000D01*
X55345836Y-44450000D01*
X55239577Y-44471136D01*
X55139483Y-44512597D01*
X55049402Y-44572787D01*
X54972793Y-44649396D01*
X54912603Y-44739477D01*
X54871142Y-44839571D01*
X54850006Y-44945830D01*
X325000Y-44945830D01*
X325000Y-32411402D01*
X363946Y-32363946D01*
X500255Y-32252080D01*
X655771Y-32168955D01*
X824515Y-32117768D01*
X1004908Y-32100000D01*
X11872170Y-32100000D01*
X12100098Y-32127753D01*
X20833871Y-34286663D01*
X20909205Y-34308622D01*
X48912738Y-43742437D01*
X48920533Y-43744715D01*
X49078029Y-43783876D01*
X49094045Y-43786501D01*
X49184666Y-43793879D01*
X49139477Y-43812597D01*
X49049396Y-43872787D01*
X48972787Y-43949396D01*
X48912597Y-44039477D01*
X48871136Y-44139571D01*
X48850000Y-44245830D01*
X48850000Y-44354170D01*
X48871136Y-44460429D01*
X48912597Y-44560523D01*
X48972787Y-44650604D01*
X49049396Y-44727213D01*
X49139477Y-44787403D01*
X49239571Y-44828864D01*
X49345830Y-44850000D01*
X49454170Y-44850000D01*
X49560429Y-44828864D01*
X49660523Y-44787403D01*
X49750604Y-44727213D01*
X49827213Y-44650604D01*
X49887403Y-44560523D01*
X49928864Y-44460429D01*
X49950000Y-44354170D01*
X49950000Y-44245830D01*
X49928864Y-44139571D01*
X49887403Y-44039477D01*
X49827213Y-43949396D01*
X49750604Y-43872787D01*
X49660523Y-43812597D01*
X49630112Y-43800000D01*
X49850000Y-43800000D01*
X49861196Y-43799371D01*
X50028087Y-43780567D01*
X50049919Y-43775584D01*
X50208441Y-43720115D01*
X50228616Y-43710399D01*
X50370820Y-43621046D01*
X50388328Y-43607085D01*
X50507085Y-43488328D01*
X50521046Y-43470820D01*
X50610399Y-43328616D01*
X50620115Y-43308441D01*
X50675584Y-43149919D01*
X50676517Y-43145830D01*
X50950000Y-43145830D01*
X50950000Y-43254170D01*
X50971136Y-43360429D01*
X51012597Y-43460523D01*
X51072787Y-43550604D01*
X51149396Y-43627213D01*
X51239477Y-43687403D01*
X51339571Y-43728864D01*
X51445830Y-43750000D01*
X51554170Y-43750000D01*
X51575134Y-43745830D01*
X55950000Y-43745830D01*
X55950000Y-43854170D01*
X55971136Y-43960429D01*
X56012597Y-44060523D01*
X56072787Y-44150604D01*
X56149396Y-44227213D01*
X56239477Y-44287403D01*
X56339571Y-44328864D01*
X56445830Y-44350000D01*
X56554170Y-44350000D01*
X56660429Y-44328864D01*
X56760523Y-44287403D01*
X56850604Y-44227213D01*
X56927213Y-44150604D01*
X56987403Y-44060523D01*
X57028864Y-43960429D01*
X57050000Y-43854170D01*
X57050000Y-43745830D01*
X57028864Y-43639571D01*
X56987403Y-43539477D01*
X56927213Y-43449396D01*
X56850604Y-43372787D01*
X56760523Y-43312597D01*
X56660429Y-43271136D01*
X56554170Y-43250000D01*
X56445830Y-43250000D01*
X56339571Y-43271136D01*
X56239477Y-43312597D01*
X56149396Y-43372787D01*
X56072787Y-43449396D01*
X56012597Y-43539477D01*
X55971136Y-43639571D01*
X55950000Y-43745830D01*
X51575134Y-43745830D01*
X51660429Y-43728864D01*
X51760523Y-43687403D01*
X51850604Y-43627213D01*
X51927213Y-43550604D01*
X51987403Y-43460523D01*
X52028864Y-43360429D01*
X52050000Y-43254170D01*
X52050000Y-43145830D01*
X52028864Y-43039571D01*
X51987403Y-42939477D01*
X51927213Y-42849396D01*
X51850604Y-42772787D01*
X51760523Y-42712597D01*
X51660429Y-42671136D01*
X51554170Y-42650000D01*
X51445830Y-42650000D01*
X51339571Y-42671136D01*
X51239477Y-42712597D01*
X51149396Y-42772787D01*
X51072787Y-42849396D01*
X51012597Y-42939477D01*
X50971136Y-43039571D01*
X50950000Y-43145830D01*
X50676517Y-43145830D01*
X50680567Y-43128087D01*
X50699371Y-42961196D01*
X50700000Y-42950000D01*
X50700000Y-41545830D01*
X54750000Y-41545830D01*
X54750000Y-41654170D01*
X54771136Y-41760429D01*
X54812597Y-41860523D01*
X54872787Y-41950604D01*
X54949396Y-42027213D01*
X55039477Y-42087403D01*
X55139571Y-42128864D01*
X55245830Y-42150000D01*
X55354170Y-42150000D01*
X55460429Y-42128864D01*
X55560523Y-42087403D01*
X55600000Y-42061025D01*
X55639477Y-42087403D01*
X55739571Y-42128864D01*
X55845830Y-42150000D01*
X55954170Y-42150000D01*
X56060429Y-42128864D01*
X56160523Y-42087403D01*
X56250604Y-42027213D01*
X56327213Y-41950604D01*
X56387403Y-41860523D01*
X56428864Y-41760429D01*
X56450000Y-41654170D01*
X56450000Y-41545830D01*
X56428864Y-41439571D01*
X56387403Y-41339477D01*
X56327213Y-41249396D01*
X56250604Y-41172787D01*
X56160523Y-41112597D01*
X56060429Y-41071136D01*
X56047151Y-41068495D01*
X56050000Y-41054170D01*
X56050000Y-40945830D01*
X56028864Y-40839571D01*
X55987403Y-40739477D01*
X55961025Y-40700000D01*
X55987403Y-40660523D01*
X56028864Y-40560429D01*
X56050000Y-40454170D01*
X56050000Y-40345830D01*
X56028864Y-40239571D01*
X55987403Y-40139477D01*
X55961025Y-40100000D01*
X55987403Y-40060523D01*
X56028864Y-39960429D01*
X56050000Y-39854170D01*
X56050000Y-39745830D01*
X56028864Y-39639571D01*
X55987403Y-39539477D01*
X55961025Y-39500000D01*
X55987403Y-39460523D01*
X55993489Y-39445830D01*
X59550000Y-39445830D01*
X59550000Y-39554170D01*
X59571136Y-39660429D01*
X59612597Y-39760523D01*
X59672787Y-39850604D01*
X59749396Y-39927213D01*
X59839477Y-39987403D01*
X59939571Y-40028864D01*
X60045830Y-40050000D01*
X60154170Y-40050000D01*
X60260429Y-40028864D01*
X60360523Y-39987403D01*
X60450604Y-39927213D01*
X60527213Y-39850604D01*
X60587403Y-39760523D01*
X60628864Y-39660429D01*
X60650000Y-39554170D01*
X60650000Y-39445830D01*
X60628864Y-39339571D01*
X60587403Y-39239477D01*
X60527213Y-39149396D01*
X60450604Y-39072787D01*
X60360523Y-39012597D01*
X60260429Y-38971136D01*
X60154170Y-38950000D01*
X60045830Y-38950000D01*
X59939571Y-38971136D01*
X59839477Y-39012597D01*
X59749396Y-39072787D01*
X59672787Y-39149396D01*
X59612597Y-39239477D01*
X59571136Y-39339571D01*
X59550000Y-39445830D01*
X55993489Y-39445830D01*
X56028864Y-39360429D01*
X56050000Y-39254170D01*
X56050000Y-39145830D01*
X56028864Y-39039571D01*
X55987403Y-38939477D01*
X55927213Y-38849396D01*
X55850604Y-38772787D01*
X55760523Y-38712597D01*
X55660429Y-38671136D01*
X55554170Y-38650000D01*
X55445830Y-38650000D01*
X55339571Y-38671136D01*
X55239477Y-38712597D01*
X55149396Y-38772787D01*
X55072787Y-38849396D01*
X55012597Y-38939477D01*
X54971136Y-39039571D01*
X54950000Y-39145830D01*
X54950000Y-39254170D01*
X54971136Y-39360429D01*
X55012597Y-39460523D01*
X55038975Y-39500000D01*
X55012597Y-39539477D01*
X54971136Y-39639571D01*
X54950000Y-39745830D01*
X54950000Y-39854170D01*
X54971136Y-39960429D01*
X55012597Y-40060523D01*
X55038975Y-40100000D01*
X55012597Y-40139477D01*
X54971136Y-40239571D01*
X54950000Y-40345830D01*
X54950000Y-40454170D01*
X54971136Y-40560429D01*
X55012597Y-40660523D01*
X55038975Y-40700000D01*
X55012597Y-40739477D01*
X54971136Y-40839571D01*
X54950000Y-40945830D01*
X54950000Y-41054170D01*
X54970755Y-41158515D01*
X54949396Y-41172787D01*
X54872787Y-41249396D01*
X54812597Y-41339477D01*
X54771136Y-41439571D01*
X54750000Y-41545830D01*
X50700000Y-41545830D01*
X50700000Y-39550000D01*
X50699144Y-39536947D01*
X50676996Y-39368715D01*
X50670240Y-39343500D01*
X50605305Y-39186732D01*
X50592252Y-39164123D01*
X50488954Y-39029504D01*
X50470496Y-39011046D01*
X50335877Y-38907748D01*
X50313268Y-38894695D01*
X50156500Y-38829760D01*
X50131285Y-38823004D01*
X49963053Y-38800856D01*
X49950000Y-38800000D01*
X49481179Y-38800000D01*
X49320175Y-38785877D01*
X49164092Y-38743941D01*
X29787140Y-31671354D01*
X29676239Y-31610157D01*
X29594541Y-31523863D01*
X29542899Y-31416831D01*
X29526197Y-31299179D01*
X29546135Y-31181256D01*
X29603355Y-31066129D01*
X29690585Y-30970647D01*
X29800731Y-30902886D01*
X29925281Y-30868079D01*
X30061658Y-30868967D01*
X46513093Y-33288295D01*
X46520348Y-33289093D01*
X46665842Y-33299734D01*
X46670151Y-33299891D01*
X46639477Y-33312597D01*
X46549396Y-33372787D01*
X46472787Y-33449396D01*
X46412597Y-33539477D01*
X46371136Y-33639571D01*
X46350000Y-33745830D01*
X46350000Y-33854170D01*
X46371136Y-33960429D01*
X46412597Y-34060523D01*
X46472787Y-34150604D01*
X46549396Y-34227213D01*
X46639477Y-34287403D01*
X46739571Y-34328864D01*
X46845830Y-34350000D01*
X46954170Y-34350000D01*
X46975134Y-34345830D01*
X52450000Y-34345830D01*
X52450000Y-34454170D01*
X52471136Y-34560429D01*
X52512597Y-34660523D01*
X52572787Y-34750604D01*
X52649396Y-34827213D01*
X52739477Y-34887403D01*
X52839571Y-34928864D01*
X52945830Y-34950000D01*
X53054170Y-34950000D01*
X53160429Y-34928864D01*
X53260523Y-34887403D01*
X53350604Y-34827213D01*
X53427213Y-34750604D01*
X53487403Y-34660523D01*
X53528864Y-34560429D01*
X53550000Y-34454170D01*
X53550000Y-34345830D01*
X53528864Y-34239571D01*
X53487403Y-34139477D01*
X53427213Y-34049396D01*
X53350604Y-33972787D01*
X53260523Y-33912597D01*
X53160429Y-33871136D01*
X53054170Y-33850000D01*
X52945830Y-33850000D01*
X52839571Y-33871136D01*
X52739477Y-33912597D01*
X52649396Y-33972787D01*
X52572787Y-34049396D01*
X52512597Y-34139477D01*
X52471136Y-34239571D01*
X52450000Y-34345830D01*
X46975134Y-34345830D01*
X47060429Y-34328864D01*
X47160523Y-34287403D01*
X47250604Y-34227213D01*
X47327213Y-34150604D01*
X47387403Y-34060523D01*
X47428864Y-33960429D01*
X47450000Y-33854170D01*
X47450000Y-33745830D01*
X47428864Y-33639571D01*
X47387403Y-33539477D01*
X47327213Y-33449396D01*
X47250604Y-33372787D01*
X47160523Y-33312597D01*
X47130112Y-33300000D01*
X47350000Y-33300000D01*
X47361196Y-33299371D01*
X47528087Y-33280567D01*
X47549919Y-33275584D01*
X47708441Y-33220115D01*
X47728616Y-33210399D01*
X47870820Y-33121046D01*
X47888328Y-33107085D01*
X48007085Y-32988328D01*
X48021046Y-32970820D01*
X48110399Y-32828616D01*
X48120115Y-32808441D01*
X48175584Y-32649919D01*
X48176517Y-32645830D01*
X48550000Y-32645830D01*
X48550000Y-32754170D01*
X48571136Y-32860429D01*
X48612597Y-32960523D01*
X48672787Y-33050604D01*
X48749396Y-33127213D01*
X48839477Y-33187403D01*
X48939571Y-33228864D01*
X49045830Y-33250000D01*
X49154170Y-33250000D01*
X49260429Y-33228864D01*
X49340178Y-33195830D01*
X53700000Y-33195830D01*
X53700000Y-33304170D01*
X53721136Y-33410429D01*
X53762597Y-33510523D01*
X53822787Y-33600604D01*
X53899396Y-33677213D01*
X53989477Y-33737403D01*
X54089571Y-33778864D01*
X54195830Y-33800000D01*
X54304170Y-33800000D01*
X54410429Y-33778864D01*
X54510523Y-33737403D01*
X54600604Y-33677213D01*
X54677213Y-33600604D01*
X54737403Y-33510523D01*
X54778864Y-33410429D01*
X54800000Y-33304170D01*
X54800000Y-33195830D01*
X54778864Y-33089571D01*
X54737403Y-32989477D01*
X54677213Y-32899396D01*
X54600604Y-32822787D01*
X54510523Y-32762597D01*
X54410429Y-32721136D01*
X54304170Y-32700000D01*
X54195830Y-32700000D01*
X54089571Y-32721136D01*
X53989477Y-32762597D01*
X53899396Y-32822787D01*
X53822787Y-32899396D01*
X53762597Y-32989477D01*
X53721136Y-33089571D01*
X53700000Y-33195830D01*
X49340178Y-33195830D01*
X49360523Y-33187403D01*
X49450604Y-33127213D01*
X49527213Y-33050604D01*
X49587403Y-32960523D01*
X49628864Y-32860429D01*
X49650000Y-32754170D01*
X49650000Y-32645830D01*
X49628864Y-32539571D01*
X49587403Y-32439477D01*
X49527213Y-32349396D01*
X49450604Y-32272787D01*
X49360523Y-32212597D01*
X49260429Y-32171136D01*
X49154170Y-32150000D01*
X49045830Y-32150000D01*
X48939571Y-32171136D01*
X48839477Y-32212597D01*
X48749396Y-32272787D01*
X48672787Y-32349396D01*
X48612597Y-32439477D01*
X48571136Y-32539571D01*
X48550000Y-32645830D01*
X48176517Y-32645830D01*
X48180567Y-32628087D01*
X48199371Y-32461196D01*
X48200000Y-32450000D01*
X48200000Y-31045830D01*
X52350000Y-31045830D01*
X52350000Y-31154170D01*
X52371136Y-31260429D01*
X52412597Y-31360523D01*
X52472787Y-31450604D01*
X52549396Y-31527213D01*
X52639477Y-31587403D01*
X52739571Y-31628864D01*
X52845830Y-31650000D01*
X52954170Y-31650000D01*
X53060429Y-31628864D01*
X53160523Y-31587403D01*
X53200000Y-31561025D01*
X53239477Y-31587403D01*
X53339571Y-31628864D01*
X53445830Y-31650000D01*
X53554170Y-31650000D01*
X53660429Y-31628864D01*
X53760523Y-31587403D01*
X53850604Y-31527213D01*
X53927213Y-31450604D01*
X53987403Y-31360523D01*
X54028864Y-31260429D01*
X54050000Y-31154170D01*
X54050000Y-31045830D01*
X54028864Y-30939571D01*
X53987403Y-30839477D01*
X53927213Y-30749396D01*
X53850604Y-30672787D01*
X53760523Y-30612597D01*
X53660429Y-30571136D01*
X53647151Y-30568495D01*
X53650000Y-30554170D01*
X53650000Y-30445830D01*
X53628864Y-30339571D01*
X53587403Y-30239477D01*
X53561025Y-30200000D01*
X53587403Y-30160523D01*
X53628864Y-30060429D01*
X53650000Y-29954170D01*
X53650000Y-29845830D01*
X53628864Y-29739571D01*
X53587403Y-29639477D01*
X53561025Y-29600000D01*
X53587403Y-29560523D01*
X53628864Y-29460429D01*
X53650000Y-29354170D01*
X53650000Y-29245830D01*
X53628864Y-29139571D01*
X53587403Y-29039477D01*
X53561025Y-29000000D01*
X53587403Y-28960523D01*
X53614200Y-28895830D01*
X57250000Y-28895830D01*
X57250000Y-29004170D01*
X57271136Y-29110429D01*
X57312597Y-29210523D01*
X57372787Y-29300604D01*
X57449396Y-29377213D01*
X57539477Y-29437403D01*
X57639571Y-29478864D01*
X57745830Y-29500000D01*
X57854170Y-29500000D01*
X57960429Y-29478864D01*
X58040178Y-29445830D01*
X87050000Y-29445830D01*
X87050000Y-29554170D01*
X87071136Y-29660429D01*
X87112597Y-29760523D01*
X87172787Y-29850604D01*
X87249396Y-29927213D01*
X87339477Y-29987403D01*
X87439571Y-30028864D01*
X87545830Y-30050000D01*
X87654170Y-30050000D01*
X87760429Y-30028864D01*
X87860523Y-29987403D01*
X87950604Y-29927213D01*
X88027213Y-29850604D01*
X88087403Y-29760523D01*
X88128864Y-29660429D01*
X88150000Y-29554170D01*
X88150000Y-29445830D01*
X88128864Y-29339571D01*
X88087403Y-29239477D01*
X88027213Y-29149396D01*
X87950604Y-29072787D01*
X87860523Y-29012597D01*
X87760429Y-28971136D01*
X87654170Y-28950000D01*
X87545830Y-28950000D01*
X87439571Y-28971136D01*
X87339477Y-29012597D01*
X87249396Y-29072787D01*
X87172787Y-29149396D01*
X87112597Y-29239477D01*
X87071136Y-29339571D01*
X87050000Y-29445830D01*
X58040178Y-29445830D01*
X58060523Y-29437403D01*
X58150604Y-29377213D01*
X58227213Y-29300604D01*
X58287403Y-29210523D01*
X58328864Y-29110429D01*
X58350000Y-29004170D01*
X58350000Y-28895830D01*
X58328864Y-28789571D01*
X58287403Y-28689477D01*
X58227213Y-28599396D01*
X58150604Y-28522787D01*
X58060523Y-28462597D01*
X57960429Y-28421136D01*
X57854170Y-28400000D01*
X57745830Y-28400000D01*
X57639571Y-28421136D01*
X57539477Y-28462597D01*
X57449396Y-28522787D01*
X57372787Y-28599396D01*
X57312597Y-28689477D01*
X57271136Y-28789571D01*
X57250000Y-28895830D01*
X53614200Y-28895830D01*
X53628864Y-28860429D01*
X53650000Y-28754170D01*
X53650000Y-28645830D01*
X53628864Y-28539571D01*
X53587403Y-28439477D01*
X53527213Y-28349396D01*
X53450604Y-28272787D01*
X53360523Y-28212597D01*
X53260429Y-28171136D01*
X53154170Y-28150000D01*
X53045830Y-28150000D01*
X52939571Y-28171136D01*
X52839477Y-28212597D01*
X52749396Y-28272787D01*
X52672787Y-28349396D01*
X52612597Y-28439477D01*
X52571136Y-28539571D01*
X52550000Y-28645830D01*
X52550000Y-28754170D01*
X52571136Y-28860429D01*
X52612597Y-28960523D01*
X52638975Y-29000000D01*
X52612597Y-29039477D01*
X52571136Y-29139571D01*
X52550000Y-29245830D01*
X52550000Y-29354170D01*
X52571136Y-29460429D01*
X52612597Y-29560523D01*
X52638975Y-29600000D01*
X52612597Y-29639477D01*
X52571136Y-29739571D01*
X52550000Y-29845830D01*
X52550000Y-29954170D01*
X52571136Y-30060429D01*
X52612597Y-30160523D01*
X52638975Y-30200000D01*
X52612597Y-30239477D01*
X52571136Y-30339571D01*
X52550000Y-30445830D01*
X52550000Y-30554170D01*
X52570755Y-30658515D01*
X52549396Y-30672787D01*
X52472787Y-30749396D01*
X52412597Y-30839477D01*
X52371136Y-30939571D01*
X52350000Y-31045830D01*
X48200000Y-31045830D01*
X48200000Y-28950000D01*
X48199144Y-28936947D01*
X48176996Y-28768715D01*
X48170240Y-28743500D01*
X48105305Y-28586732D01*
X48092252Y-28564123D01*
X47988954Y-28429504D01*
X47970496Y-28411046D01*
X47835877Y-28307748D01*
X47813268Y-28294695D01*
X47656500Y-28229760D01*
X47631285Y-28223004D01*
X47463053Y-28200856D01*
X47450000Y-28200000D01*
X46869681Y-28200000D01*
X46744148Y-28191668D01*
X30650363Y-26045830D01*
X86250000Y-26045830D01*
X86250000Y-26154170D01*
X86271136Y-26260429D01*
X86312597Y-26360523D01*
X86372787Y-26450604D01*
X86449396Y-26527213D01*
X86483499Y-26550000D01*
X86449396Y-26572787D01*
X86372787Y-26649396D01*
X86312597Y-26739477D01*
X86271136Y-26839571D01*
X86250000Y-26945830D01*
X86250000Y-27054170D01*
X86271136Y-27160429D01*
X86312597Y-27260523D01*
X86372787Y-27350604D01*
X86449396Y-27427213D01*
X86539477Y-27487403D01*
X86639571Y-27528864D01*
X86745830Y-27550000D01*
X86854170Y-27550000D01*
X86960429Y-27528864D01*
X87060523Y-27487403D01*
X87150604Y-27427213D01*
X87200000Y-27377817D01*
X87249396Y-27427213D01*
X87339477Y-27487403D01*
X87439571Y-27528864D01*
X87545830Y-27550000D01*
X87654170Y-27550000D01*
X87760429Y-27528864D01*
X87860523Y-27487403D01*
X87950604Y-27427213D01*
X88027213Y-27350604D01*
X88050000Y-27316501D01*
X88072787Y-27350604D01*
X88149396Y-27427213D01*
X88239477Y-27487403D01*
X88339571Y-27528864D01*
X88445830Y-27550000D01*
X88554170Y-27550000D01*
X88660429Y-27528864D01*
X88760523Y-27487403D01*
X88850604Y-27427213D01*
X88927213Y-27350604D01*
X88987403Y-27260523D01*
X89000000Y-27230112D01*
X89012597Y-27260523D01*
X89072787Y-27350604D01*
X89149396Y-27427213D01*
X89239477Y-27487403D01*
X89339571Y-27528864D01*
X89445830Y-27550000D01*
X89554170Y-27550000D01*
X89660429Y-27528864D01*
X89760523Y-27487403D01*
X89850604Y-27427213D01*
X89927213Y-27350604D01*
X89987403Y-27260523D01*
X90000000Y-27230112D01*
X90012597Y-27260523D01*
X90072787Y-27350604D01*
X90149396Y-27427213D01*
X90239477Y-27487403D01*
X90339571Y-27528864D01*
X90445830Y-27550000D01*
X90554170Y-27550000D01*
X90660429Y-27528864D01*
X90760523Y-27487403D01*
X90850604Y-27427213D01*
X90927213Y-27350604D01*
X90987403Y-27260523D01*
X91000000Y-27230112D01*
X91012597Y-27260523D01*
X91072787Y-27350604D01*
X91149396Y-27427213D01*
X91239477Y-27487403D01*
X91339571Y-27528864D01*
X91445830Y-27550000D01*
X91554170Y-27550000D01*
X91660429Y-27528864D01*
X91760523Y-27487403D01*
X91850604Y-27427213D01*
X91927213Y-27350604D01*
X91987403Y-27260523D01*
X92000000Y-27230112D01*
X92012597Y-27260523D01*
X92072787Y-27350604D01*
X92149396Y-27427213D01*
X92239477Y-27487403D01*
X92339571Y-27528864D01*
X92445830Y-27550000D01*
X92554170Y-27550000D01*
X92660429Y-27528864D01*
X92760523Y-27487403D01*
X92850604Y-27427213D01*
X92927213Y-27350604D01*
X92987403Y-27260523D01*
X93000000Y-27230112D01*
X93012597Y-27260523D01*
X93072787Y-27350604D01*
X93149396Y-27427213D01*
X93239477Y-27487403D01*
X93339571Y-27528864D01*
X93445830Y-27550000D01*
X93554170Y-27550000D01*
X93660429Y-27528864D01*
X93760523Y-27487403D01*
X93850604Y-27427213D01*
X93927213Y-27350604D01*
X93987403Y-27260523D01*
X94000000Y-27230112D01*
X94012597Y-27260523D01*
X94072787Y-27350604D01*
X94149396Y-27427213D01*
X94239477Y-27487403D01*
X94339571Y-27528864D01*
X94445830Y-27550000D01*
X94554170Y-27550000D01*
X94660429Y-27528864D01*
X94760523Y-27487403D01*
X94850604Y-27427213D01*
X94927213Y-27350604D01*
X94987403Y-27260523D01*
X95000000Y-27230112D01*
X95012597Y-27260523D01*
X95072787Y-27350604D01*
X95149396Y-27427213D01*
X95239477Y-27487403D01*
X95339571Y-27528864D01*
X95445830Y-27550000D01*
X95554170Y-27550000D01*
X95660429Y-27528864D01*
X95760523Y-27487403D01*
X95850604Y-27427213D01*
X95927213Y-27350604D01*
X95987403Y-27260523D01*
X96000000Y-27230112D01*
X96012597Y-27260523D01*
X96072787Y-27350604D01*
X96149396Y-27427213D01*
X96239477Y-27487403D01*
X96339571Y-27528864D01*
X96445830Y-27550000D01*
X96554170Y-27550000D01*
X96660429Y-27528864D01*
X96760523Y-27487403D01*
X96850604Y-27427213D01*
X96927213Y-27350604D01*
X96987403Y-27260523D01*
X97000000Y-27230112D01*
X97012597Y-27260523D01*
X97072787Y-27350604D01*
X97149396Y-27427213D01*
X97239477Y-27487403D01*
X97339571Y-27528864D01*
X97445830Y-27550000D01*
X97554170Y-27550000D01*
X97660429Y-27528864D01*
X97760523Y-27487403D01*
X97850604Y-27427213D01*
X97927213Y-27350604D01*
X97987403Y-27260523D01*
X98028864Y-27160429D01*
X98050000Y-27054170D01*
X98050000Y-26945830D01*
X98028864Y-26839571D01*
X97987403Y-26739477D01*
X97927213Y-26649396D01*
X97850604Y-26572787D01*
X97760523Y-26512597D01*
X97660429Y-26471136D01*
X97554170Y-26450000D01*
X97445830Y-26450000D01*
X97339571Y-26471136D01*
X97239477Y-26512597D01*
X97149396Y-26572787D01*
X97072787Y-26649396D01*
X97012597Y-26739477D01*
X97000000Y-26769888D01*
X96987403Y-26739477D01*
X96927213Y-26649396D01*
X96850604Y-26572787D01*
X96760523Y-26512597D01*
X96660429Y-26471136D01*
X96554170Y-26450000D01*
X96445830Y-26450000D01*
X96339571Y-26471136D01*
X96239477Y-26512597D01*
X96149396Y-26572787D01*
X96072787Y-26649396D01*
X96012597Y-26739477D01*
X96000000Y-26769888D01*
X95987403Y-26739477D01*
X95927213Y-26649396D01*
X95850604Y-26572787D01*
X95760523Y-26512597D01*
X95660429Y-26471136D01*
X95554170Y-26450000D01*
X95445830Y-26450000D01*
X95339571Y-26471136D01*
X95239477Y-26512597D01*
X95149396Y-26572787D01*
X95072787Y-26649396D01*
X95012597Y-26739477D01*
X95000000Y-26769888D01*
X94987403Y-26739477D01*
X94927213Y-26649396D01*
X94850604Y-26572787D01*
X94760523Y-26512597D01*
X94660429Y-26471136D01*
X94554170Y-26450000D01*
X94445830Y-26450000D01*
X94339571Y-26471136D01*
X94239477Y-26512597D01*
X94149396Y-26572787D01*
X94072787Y-26649396D01*
X94012597Y-26739477D01*
X94000000Y-26769888D01*
X93987403Y-26739477D01*
X93927213Y-26649396D01*
X93850604Y-26572787D01*
X93760523Y-26512597D01*
X93660429Y-26471136D01*
X93554170Y-26450000D01*
X93445830Y-26450000D01*
X93339571Y-26471136D01*
X93239477Y-26512597D01*
X93149396Y-26572787D01*
X93072787Y-26649396D01*
X93012597Y-26739477D01*
X93000000Y-26769888D01*
X92987403Y-26739477D01*
X92927213Y-26649396D01*
X92850604Y-26572787D01*
X92760523Y-26512597D01*
X92660429Y-26471136D01*
X92554170Y-26450000D01*
X92445830Y-26450000D01*
X92339571Y-26471136D01*
X92239477Y-26512597D01*
X92149396Y-26572787D01*
X92072787Y-26649396D01*
X92012597Y-26739477D01*
X92000000Y-26769888D01*
X91987403Y-26739477D01*
X91927213Y-26649396D01*
X91850604Y-26572787D01*
X91760523Y-26512597D01*
X91660429Y-26471136D01*
X91554170Y-26450000D01*
X91445830Y-26450000D01*
X91339571Y-26471136D01*
X91239477Y-26512597D01*
X91149396Y-26572787D01*
X91072787Y-26649396D01*
X91012597Y-26739477D01*
X91000000Y-26769888D01*
X90987403Y-26739477D01*
X90927213Y-26649396D01*
X90850604Y-26572787D01*
X90760523Y-26512597D01*
X90660429Y-26471136D01*
X90554170Y-26450000D01*
X90445830Y-26450000D01*
X90339571Y-26471136D01*
X90239477Y-26512597D01*
X90149396Y-26572787D01*
X90072787Y-26649396D01*
X90012597Y-26739477D01*
X90000000Y-26769888D01*
X89987403Y-26739477D01*
X89927213Y-26649396D01*
X89850604Y-26572787D01*
X89760523Y-26512597D01*
X89660429Y-26471136D01*
X89554170Y-26450000D01*
X89445830Y-26450000D01*
X89339571Y-26471136D01*
X89239477Y-26512597D01*
X89149396Y-26572787D01*
X89072787Y-26649396D01*
X89012597Y-26739477D01*
X89000000Y-26769888D01*
X88987403Y-26739477D01*
X88927213Y-26649396D01*
X88850604Y-26572787D01*
X88760523Y-26512597D01*
X88660429Y-26471136D01*
X88554170Y-26450000D01*
X88445830Y-26450000D01*
X88339571Y-26471136D01*
X88239477Y-26512597D01*
X88149396Y-26572787D01*
X88072787Y-26649396D01*
X88050000Y-26683499D01*
X88027213Y-26649396D01*
X87950604Y-26572787D01*
X87860523Y-26512597D01*
X87760429Y-26471136D01*
X87654170Y-26450000D01*
X87545830Y-26450000D01*
X87439571Y-26471136D01*
X87339477Y-26512597D01*
X87249396Y-26572787D01*
X87200000Y-26622183D01*
X87150604Y-26572787D01*
X87116501Y-26550000D01*
X87150604Y-26527213D01*
X87227213Y-26450604D01*
X87287403Y-26360523D01*
X87328864Y-26260429D01*
X87350000Y-26154170D01*
X87350000Y-26045830D01*
X87328864Y-25939571D01*
X87287403Y-25839477D01*
X87227213Y-25749396D01*
X87150604Y-25672787D01*
X87060523Y-25612597D01*
X86960429Y-25571136D01*
X86854170Y-25550000D01*
X86745830Y-25550000D01*
X86639571Y-25571136D01*
X86539477Y-25612597D01*
X86449396Y-25672787D01*
X86372787Y-25749396D01*
X86312597Y-25839477D01*
X86271136Y-25939571D01*
X86250000Y-26045830D01*
X30650363Y-26045830D01*
X28013018Y-25694184D01*
X27845361Y-25650945D01*
X27698078Y-25571985D01*
X27573759Y-25460322D01*
X27479502Y-25322329D01*
X27420704Y-25165912D01*
X27400678Y-24999625D01*
X27406751Y-24945830D01*
X83750000Y-24945830D01*
X83750000Y-25054170D01*
X83771136Y-25160429D01*
X83812597Y-25260523D01*
X83872787Y-25350604D01*
X83949396Y-25427213D01*
X84039477Y-25487403D01*
X84139571Y-25528864D01*
X84245830Y-25550000D01*
X84354170Y-25550000D01*
X84460429Y-25528864D01*
X84560523Y-25487403D01*
X84650604Y-25427213D01*
X84727213Y-25350604D01*
X84787403Y-25260523D01*
X84828864Y-25160429D01*
X84850000Y-25054170D01*
X84850000Y-24945830D01*
X87200000Y-24945830D01*
X87200000Y-25054170D01*
X87221136Y-25160429D01*
X87262597Y-25260523D01*
X87322787Y-25350604D01*
X87399396Y-25427213D01*
X87489477Y-25487403D01*
X87589571Y-25528864D01*
X87695830Y-25550000D01*
X87804170Y-25550000D01*
X87910429Y-25528864D01*
X88010523Y-25487403D01*
X88100604Y-25427213D01*
X88177213Y-25350604D01*
X88237403Y-25260523D01*
X88278864Y-25160429D01*
X88300000Y-25054170D01*
X88300000Y-24945830D01*
X88278864Y-24839571D01*
X88237403Y-24739477D01*
X88177213Y-24649396D01*
X88100604Y-24572787D01*
X88010523Y-24512597D01*
X87910429Y-24471136D01*
X87804170Y-24450000D01*
X87695830Y-24450000D01*
X87589571Y-24471136D01*
X87489477Y-24512597D01*
X87399396Y-24572787D01*
X87322787Y-24649396D01*
X87262597Y-24739477D01*
X87221136Y-24839571D01*
X87200000Y-24945830D01*
X84850000Y-24945830D01*
X84828864Y-24839571D01*
X84787403Y-24739477D01*
X84727213Y-24649396D01*
X84650604Y-24572787D01*
X84560523Y-24512597D01*
X84460429Y-24471136D01*
X84354170Y-24450000D01*
X84245830Y-24450000D01*
X84139571Y-24471136D01*
X84039477Y-24512597D01*
X83949396Y-24572787D01*
X83872787Y-24649396D01*
X83812597Y-24739477D01*
X83771136Y-24839571D01*
X83750000Y-24945830D01*
X27406751Y-24945830D01*
X27420136Y-24827266D01*
X27477659Y-24663221D01*
X27570298Y-24516142D01*
X27693409Y-24393407D01*
X27840780Y-24301211D01*
X28010334Y-24242338D01*
X31099195Y-23545830D01*
X47262500Y-23545830D01*
X47262500Y-23654170D01*
X47283636Y-23760429D01*
X47325097Y-23860523D01*
X47385287Y-23950604D01*
X47461896Y-24027213D01*
X47551977Y-24087403D01*
X47652071Y-24128864D01*
X47758330Y-24150000D01*
X47866670Y-24150000D01*
X47972929Y-24128864D01*
X48073023Y-24087403D01*
X48163104Y-24027213D01*
X48239713Y-23950604D01*
X48299903Y-23860523D01*
X48341364Y-23760429D01*
X48362500Y-23654170D01*
X48362500Y-23545830D01*
X48850000Y-23545830D01*
X48850000Y-23654170D01*
X48871136Y-23760429D01*
X48912597Y-23860523D01*
X48972787Y-23950604D01*
X49049396Y-24027213D01*
X49139477Y-24087403D01*
X49239571Y-24128864D01*
X49345830Y-24150000D01*
X49454170Y-24150000D01*
X49560429Y-24128864D01*
X49660523Y-24087403D01*
X49750604Y-24027213D01*
X49827213Y-23950604D01*
X49887403Y-23860523D01*
X49928864Y-23760429D01*
X49950000Y-23654170D01*
X49950000Y-23545830D01*
X49928864Y-23439571D01*
X49887403Y-23339477D01*
X49827213Y-23249396D01*
X49750604Y-23172787D01*
X49660523Y-23112597D01*
X49560429Y-23071136D01*
X49454170Y-23050000D01*
X49345830Y-23050000D01*
X49239571Y-23071136D01*
X49139477Y-23112597D01*
X49049396Y-23172787D01*
X48972787Y-23249396D01*
X48912597Y-23339477D01*
X48871136Y-23439571D01*
X48850000Y-23545830D01*
X48362500Y-23545830D01*
X48341364Y-23439571D01*
X48299903Y-23339477D01*
X48239713Y-23249396D01*
X48163104Y-23172787D01*
X48073023Y-23112597D01*
X47972929Y-23071136D01*
X47866670Y-23050000D01*
X47758330Y-23050000D01*
X47652071Y-23071136D01*
X47551977Y-23112597D01*
X47461896Y-23172787D01*
X47385287Y-23249396D01*
X47325097Y-23339477D01*
X47283636Y-23439571D01*
X47262500Y-23545830D01*
X31099195Y-23545830D01*
X33760065Y-22945830D01*
X86250000Y-22945830D01*
X86250000Y-23054170D01*
X86271136Y-23160429D01*
X86312597Y-23260523D01*
X86372787Y-23350604D01*
X86449396Y-23427213D01*
X86483499Y-23450000D01*
X86449396Y-23472787D01*
X86372787Y-23549396D01*
X86312597Y-23639477D01*
X86271136Y-23739571D01*
X86250000Y-23845830D01*
X86250000Y-23954170D01*
X86271136Y-24060429D01*
X86312597Y-24160523D01*
X86372787Y-24250604D01*
X86449396Y-24327213D01*
X86539477Y-24387403D01*
X86639571Y-24428864D01*
X86745830Y-24450000D01*
X86854170Y-24450000D01*
X86960429Y-24428864D01*
X87060523Y-24387403D01*
X87150604Y-24327213D01*
X87227213Y-24250604D01*
X87287403Y-24160523D01*
X87328864Y-24060429D01*
X87350000Y-23954170D01*
X87350000Y-23845830D01*
X87328864Y-23739571D01*
X87287403Y-23639477D01*
X87227213Y-23549396D01*
X87150604Y-23472787D01*
X87116501Y-23450000D01*
X87150604Y-23427213D01*
X87200000Y-23377817D01*
X87249396Y-23427213D01*
X87339477Y-23487403D01*
X87439571Y-23528864D01*
X87545830Y-23550000D01*
X87654170Y-23550000D01*
X87760429Y-23528864D01*
X87860523Y-23487403D01*
X87950604Y-23427213D01*
X88027213Y-23350604D01*
X88050000Y-23316501D01*
X88072787Y-23350604D01*
X88149396Y-23427213D01*
X88239477Y-23487403D01*
X88339571Y-23528864D01*
X88445830Y-23550000D01*
X88554170Y-23550000D01*
X88660429Y-23528864D01*
X88760523Y-23487403D01*
X88850604Y-23427213D01*
X88927213Y-23350604D01*
X88987403Y-23260523D01*
X89000000Y-23230112D01*
X89012597Y-23260523D01*
X89072787Y-23350604D01*
X89149396Y-23427213D01*
X89239477Y-23487403D01*
X89339571Y-23528864D01*
X89445830Y-23550000D01*
X89554170Y-23550000D01*
X89660429Y-23528864D01*
X89760523Y-23487403D01*
X89850604Y-23427213D01*
X89927213Y-23350604D01*
X89987403Y-23260523D01*
X90000000Y-23230112D01*
X90012597Y-23260523D01*
X90072787Y-23350604D01*
X90149396Y-23427213D01*
X90239477Y-23487403D01*
X90339571Y-23528864D01*
X90445830Y-23550000D01*
X90554170Y-23550000D01*
X90660429Y-23528864D01*
X90760523Y-23487403D01*
X90850604Y-23427213D01*
X90927213Y-23350604D01*
X90987403Y-23260523D01*
X91000000Y-23230112D01*
X91012597Y-23260523D01*
X91072787Y-23350604D01*
X91149396Y-23427213D01*
X91239477Y-23487403D01*
X91339571Y-23528864D01*
X91445830Y-23550000D01*
X91554170Y-23550000D01*
X91660429Y-23528864D01*
X91760523Y-23487403D01*
X91850604Y-23427213D01*
X91927213Y-23350604D01*
X91987403Y-23260523D01*
X92000000Y-23230112D01*
X92012597Y-23260523D01*
X92072787Y-23350604D01*
X92149396Y-23427213D01*
X92239477Y-23487403D01*
X92339571Y-23528864D01*
X92445830Y-23550000D01*
X92554170Y-23550000D01*
X92660429Y-23528864D01*
X92760523Y-23487403D01*
X92850604Y-23427213D01*
X92927213Y-23350604D01*
X92987403Y-23260523D01*
X93000000Y-23230112D01*
X93012597Y-23260523D01*
X93072787Y-23350604D01*
X93149396Y-23427213D01*
X93239477Y-23487403D01*
X93339571Y-23528864D01*
X93445830Y-23550000D01*
X93554170Y-23550000D01*
X93660429Y-23528864D01*
X93760523Y-23487403D01*
X93850604Y-23427213D01*
X93927213Y-23350604D01*
X93987403Y-23260523D01*
X94000000Y-23230112D01*
X94012597Y-23260523D01*
X94072787Y-23350604D01*
X94149396Y-23427213D01*
X94239477Y-23487403D01*
X94339571Y-23528864D01*
X94445830Y-23550000D01*
X94554170Y-23550000D01*
X94660429Y-23528864D01*
X94760523Y-23487403D01*
X94850604Y-23427213D01*
X94927213Y-23350604D01*
X94987403Y-23260523D01*
X95000000Y-23230112D01*
X95012597Y-23260523D01*
X95072787Y-23350604D01*
X95149396Y-23427213D01*
X95239477Y-23487403D01*
X95339571Y-23528864D01*
X95445830Y-23550000D01*
X95554170Y-23550000D01*
X95660429Y-23528864D01*
X95760523Y-23487403D01*
X95850604Y-23427213D01*
X95927213Y-23350604D01*
X95987403Y-23260523D01*
X96000000Y-23230112D01*
X96012597Y-23260523D01*
X96072787Y-23350604D01*
X96149396Y-23427213D01*
X96239477Y-23487403D01*
X96339571Y-23528864D01*
X96445830Y-23550000D01*
X96554170Y-23550000D01*
X96660429Y-23528864D01*
X96760523Y-23487403D01*
X96850604Y-23427213D01*
X96927213Y-23350604D01*
X96987403Y-23260523D01*
X97000000Y-23230112D01*
X97012597Y-23260523D01*
X97072787Y-23350604D01*
X97149396Y-23427213D01*
X97239477Y-23487403D01*
X97339571Y-23528864D01*
X97445830Y-23550000D01*
X97554170Y-23550000D01*
X97660429Y-23528864D01*
X97760523Y-23487403D01*
X97850604Y-23427213D01*
X97927213Y-23350604D01*
X97987403Y-23260523D01*
X98028864Y-23160429D01*
X98050000Y-23054170D01*
X98050000Y-22945830D01*
X98028864Y-22839571D01*
X97987403Y-22739477D01*
X97927213Y-22649396D01*
X97850604Y-22572787D01*
X97760523Y-22512597D01*
X97660429Y-22471136D01*
X97554170Y-22450000D01*
X97445830Y-22450000D01*
X97339571Y-22471136D01*
X97239477Y-22512597D01*
X97149396Y-22572787D01*
X97072787Y-22649396D01*
X97012597Y-22739477D01*
X97000000Y-22769888D01*
X96987403Y-22739477D01*
X96927213Y-22649396D01*
X96850604Y-22572787D01*
X96760523Y-22512597D01*
X96660429Y-22471136D01*
X96554170Y-22450000D01*
X96445830Y-22450000D01*
X96339571Y-22471136D01*
X96239477Y-22512597D01*
X96149396Y-22572787D01*
X96072787Y-22649396D01*
X96012597Y-22739477D01*
X96000000Y-22769888D01*
X95987403Y-22739477D01*
X95927213Y-22649396D01*
X95850604Y-22572787D01*
X95760523Y-22512597D01*
X95660429Y-22471136D01*
X95554170Y-22450000D01*
X95445830Y-22450000D01*
X95339571Y-22471136D01*
X95239477Y-22512597D01*
X95149396Y-22572787D01*
X95072787Y-22649396D01*
X95012597Y-22739477D01*
X95000000Y-22769888D01*
X94987403Y-22739477D01*
X94927213Y-22649396D01*
X94850604Y-22572787D01*
X94760523Y-22512597D01*
X94660429Y-22471136D01*
X94554170Y-22450000D01*
X94445830Y-22450000D01*
X94339571Y-22471136D01*
X94239477Y-22512597D01*
X94149396Y-22572787D01*
X94072787Y-22649396D01*
X94012597Y-22739477D01*
X94000000Y-22769888D01*
X93987403Y-22739477D01*
X93927213Y-22649396D01*
X93850604Y-22572787D01*
X93760523Y-22512597D01*
X93660429Y-22471136D01*
X93554170Y-22450000D01*
X93445830Y-22450000D01*
X93339571Y-22471136D01*
X93239477Y-22512597D01*
X93149396Y-22572787D01*
X93072787Y-22649396D01*
X93012597Y-22739477D01*
X93000000Y-22769888D01*
X92987403Y-22739477D01*
X92927213Y-22649396D01*
X92850604Y-22572787D01*
X92760523Y-22512597D01*
X92660429Y-22471136D01*
X92554170Y-22450000D01*
X92445830Y-22450000D01*
X92339571Y-22471136D01*
X92239477Y-22512597D01*
X92149396Y-22572787D01*
X92072787Y-22649396D01*
X92012597Y-22739477D01*
X92000000Y-22769888D01*
X91987403Y-22739477D01*
X91927213Y-22649396D01*
X91850604Y-22572787D01*
X91760523Y-22512597D01*
X91660429Y-22471136D01*
X91554170Y-22450000D01*
X91445830Y-22450000D01*
X91339571Y-22471136D01*
X91239477Y-22512597D01*
X91149396Y-22572787D01*
X91072787Y-22649396D01*
X91012597Y-22739477D01*
X91000000Y-22769888D01*
X90987403Y-22739477D01*
X90927213Y-22649396D01*
X90850604Y-22572787D01*
X90760523Y-22512597D01*
X90660429Y-22471136D01*
X90554170Y-22450000D01*
X90445830Y-22450000D01*
X90339571Y-22471136D01*
X90239477Y-22512597D01*
X90149396Y-22572787D01*
X90072787Y-22649396D01*
X90012597Y-22739477D01*
X90000000Y-22769888D01*
X89987403Y-22739477D01*
X89927213Y-22649396D01*
X89850604Y-22572787D01*
X89760523Y-22512597D01*
X89660429Y-22471136D01*
X89554170Y-22450000D01*
X89445830Y-22450000D01*
X89339571Y-22471136D01*
X89239477Y-22512597D01*
X89149396Y-22572787D01*
X89072787Y-22649396D01*
X89012597Y-22739477D01*
X89000000Y-22769888D01*
X88987403Y-22739477D01*
X88927213Y-22649396D01*
X88850604Y-22572787D01*
X88760523Y-22512597D01*
X88660429Y-22471136D01*
X88554170Y-22450000D01*
X88445830Y-22450000D01*
X88339571Y-22471136D01*
X88239477Y-22512597D01*
X88149396Y-22572787D01*
X88072787Y-22649396D01*
X88050000Y-22683499D01*
X88027213Y-22649396D01*
X87950604Y-22572787D01*
X87860523Y-22512597D01*
X87760429Y-22471136D01*
X87654170Y-22450000D01*
X87545830Y-22450000D01*
X87439571Y-22471136D01*
X87339477Y-22512597D01*
X87249396Y-22572787D01*
X87200000Y-22622183D01*
X87150604Y-22572787D01*
X87060523Y-22512597D01*
X86960429Y-22471136D01*
X86854170Y-22450000D01*
X86745830Y-22450000D01*
X86639571Y-22471136D01*
X86539477Y-22512597D01*
X86449396Y-22572787D01*
X86372787Y-22649396D01*
X86312597Y-22739477D01*
X86271136Y-22839571D01*
X86250000Y-22945830D01*
X33760065Y-22945830D01*
X38638327Y-21845830D01*
X45637500Y-21845830D01*
X45637500Y-21954170D01*
X45658636Y-22060429D01*
X45700097Y-22160523D01*
X45760287Y-22250604D01*
X45836896Y-22327213D01*
X45926977Y-22387403D01*
X46027071Y-22428864D01*
X46133330Y-22450000D01*
X46241670Y-22450000D01*
X46347929Y-22428864D01*
X46448023Y-22387403D01*
X46538104Y-22327213D01*
X46614713Y-22250604D01*
X46674903Y-22160523D01*
X46716364Y-22060429D01*
X46737500Y-21954170D01*
X46737500Y-21858330D01*
X47262500Y-21858330D01*
X47262500Y-21966670D01*
X47283636Y-22072929D01*
X47325097Y-22173023D01*
X47385287Y-22263104D01*
X47461896Y-22339713D01*
X47551977Y-22399903D01*
X47652071Y-22441364D01*
X47758330Y-22462500D01*
X47866670Y-22462500D01*
X47972929Y-22441364D01*
X48073023Y-22399903D01*
X48163104Y-22339713D01*
X48239713Y-22263104D01*
X48299903Y-22173023D01*
X48341364Y-22072929D01*
X48362500Y-21966670D01*
X48362500Y-21858330D01*
X48341364Y-21752071D01*
X48299903Y-21651977D01*
X48239713Y-21561896D01*
X48163104Y-21485287D01*
X48073023Y-21425097D01*
X47972929Y-21383636D01*
X47866670Y-21362500D01*
X47758330Y-21362500D01*
X47652071Y-21383636D01*
X47551977Y-21425097D01*
X47461896Y-21485287D01*
X47385287Y-21561896D01*
X47325097Y-21651977D01*
X47283636Y-21752071D01*
X47262500Y-21858330D01*
X46737500Y-21858330D01*
X46737500Y-21845830D01*
X46716364Y-21739571D01*
X46674903Y-21639477D01*
X46614713Y-21549396D01*
X46538104Y-21472787D01*
X46448023Y-21412597D01*
X46347929Y-21371136D01*
X46241670Y-21350000D01*
X46133330Y-21350000D01*
X46027071Y-21371136D01*
X45926977Y-21412597D01*
X45836896Y-21472787D01*
X45760287Y-21549396D01*
X45700097Y-21639477D01*
X45658636Y-21739571D01*
X45637500Y-21845830D01*
X38638327Y-21845830D01*
X47607964Y-19823265D01*
X47816899Y-19800000D01*
X48350000Y-19800000D01*
X48363053Y-19799144D01*
X48531285Y-19776996D01*
X48556500Y-19770240D01*
X48713268Y-19705305D01*
X48729679Y-19695830D01*
X54350000Y-19695830D01*
X54350000Y-19804170D01*
X54371136Y-19910429D01*
X54412597Y-20010523D01*
X54472383Y-20100000D01*
X54412597Y-20189477D01*
X54371136Y-20289571D01*
X54350000Y-20395830D01*
X54350000Y-20504170D01*
X54371136Y-20610429D01*
X54412597Y-20710523D01*
X54472787Y-20800604D01*
X54549396Y-20877213D01*
X54639477Y-20937403D01*
X54739571Y-20978864D01*
X54845830Y-21000000D01*
X54954170Y-21000000D01*
X55060429Y-20978864D01*
X55160523Y-20937403D01*
X55250604Y-20877213D01*
X55327213Y-20800604D01*
X55387403Y-20710523D01*
X55428864Y-20610429D01*
X55441713Y-20545830D01*
X87050000Y-20545830D01*
X87050000Y-20654170D01*
X87071136Y-20760429D01*
X87112597Y-20860523D01*
X87172787Y-20950604D01*
X87249396Y-21027213D01*
X87339477Y-21087403D01*
X87439571Y-21128864D01*
X87545830Y-21150000D01*
X87654170Y-21150000D01*
X87760429Y-21128864D01*
X87860523Y-21087403D01*
X87950604Y-21027213D01*
X88027213Y-20950604D01*
X88087403Y-20860523D01*
X88128864Y-20760429D01*
X88150000Y-20654170D01*
X88150000Y-20545830D01*
X88128864Y-20439571D01*
X88087403Y-20339477D01*
X88027213Y-20249396D01*
X87950604Y-20172787D01*
X87860523Y-20112597D01*
X87760429Y-20071136D01*
X87654170Y-20050000D01*
X87545830Y-20050000D01*
X87439571Y-20071136D01*
X87339477Y-20112597D01*
X87249396Y-20172787D01*
X87172787Y-20249396D01*
X87112597Y-20339477D01*
X87071136Y-20439571D01*
X87050000Y-20545830D01*
X55441713Y-20545830D01*
X55450000Y-20504170D01*
X55450000Y-20395830D01*
X55428864Y-20289571D01*
X55387403Y-20189477D01*
X55327617Y-20100000D01*
X55387403Y-20010523D01*
X55428864Y-19910429D01*
X55450000Y-19804170D01*
X55450000Y-19695830D01*
X55428864Y-19589571D01*
X55387403Y-19489477D01*
X55327213Y-19399396D01*
X55250604Y-19322787D01*
X55160523Y-19262597D01*
X55060429Y-19221136D01*
X54954170Y-19200000D01*
X54845830Y-19200000D01*
X54739571Y-19221136D01*
X54639477Y-19262597D01*
X54549396Y-19322787D01*
X54472787Y-19399396D01*
X54412597Y-19489477D01*
X54371136Y-19589571D01*
X54350000Y-19695830D01*
X48729679Y-19695830D01*
X48735877Y-19692252D01*
X48870496Y-19588954D01*
X48888954Y-19570496D01*
X48992252Y-19435877D01*
X49005305Y-19413268D01*
X49070240Y-19256500D01*
X49076996Y-19231285D01*
X49099144Y-19063053D01*
X49100000Y-19050000D01*
X49100000Y-17545830D01*
X53250000Y-17545830D01*
X53250000Y-17654170D01*
X53271136Y-17760429D01*
X53312597Y-17860523D01*
X53372787Y-17950604D01*
X53449396Y-18027213D01*
X53539477Y-18087403D01*
X53639571Y-18128864D01*
X53745830Y-18150000D01*
X53854170Y-18150000D01*
X53960429Y-18128864D01*
X54060523Y-18087403D01*
X54100000Y-18061025D01*
X54139477Y-18087403D01*
X54239571Y-18128864D01*
X54345830Y-18150000D01*
X54454170Y-18150000D01*
X54560429Y-18128864D01*
X54660523Y-18087403D01*
X54750604Y-18027213D01*
X54827213Y-17950604D01*
X54887403Y-17860523D01*
X54928864Y-17760429D01*
X54950000Y-17654170D01*
X54950000Y-17545830D01*
X54928864Y-17439571D01*
X54887403Y-17339477D01*
X54827213Y-17249396D01*
X54750604Y-17172787D01*
X54660523Y-17112597D01*
X54560429Y-17071136D01*
X54547151Y-17068495D01*
X54550000Y-17054170D01*
X54550000Y-16945830D01*
X54528864Y-16839571D01*
X54487403Y-16739477D01*
X54461025Y-16700000D01*
X54487403Y-16660523D01*
X54528864Y-16560429D01*
X54550000Y-16454170D01*
X54550000Y-16345830D01*
X54528864Y-16239571D01*
X54487403Y-16139477D01*
X54461025Y-16100000D01*
X54487403Y-16060523D01*
X54528864Y-15960429D01*
X54550000Y-15854170D01*
X54550000Y-15745830D01*
X54528864Y-15639571D01*
X54487403Y-15539477D01*
X54461025Y-15500000D01*
X54487403Y-15460523D01*
X54514200Y-15395830D01*
X58150000Y-15395830D01*
X58150000Y-15504170D01*
X58171136Y-15610429D01*
X58212597Y-15710523D01*
X58272787Y-15800604D01*
X58349396Y-15877213D01*
X58439477Y-15937403D01*
X58539571Y-15978864D01*
X58645830Y-16000000D01*
X58754170Y-16000000D01*
X58860429Y-15978864D01*
X58960523Y-15937403D01*
X59050604Y-15877213D01*
X59127213Y-15800604D01*
X59187403Y-15710523D01*
X59228864Y-15610429D01*
X59250000Y-15504170D01*
X59250000Y-15395830D01*
X59228864Y-15289571D01*
X59187403Y-15189477D01*
X59127213Y-15099396D01*
X59050604Y-15022787D01*
X58960523Y-14962597D01*
X58860429Y-14921136D01*
X58754170Y-14900000D01*
X58645830Y-14900000D01*
X58539571Y-14921136D01*
X58439477Y-14962597D01*
X58349396Y-15022787D01*
X58272787Y-15099396D01*
X58212597Y-15189477D01*
X58171136Y-15289571D01*
X58150000Y-15395830D01*
X54514200Y-15395830D01*
X54528864Y-15360429D01*
X54550000Y-15254170D01*
X54550000Y-15145830D01*
X54528864Y-15039571D01*
X54487403Y-14939477D01*
X54427213Y-14849396D01*
X54350604Y-14772787D01*
X54260523Y-14712597D01*
X54160429Y-14671136D01*
X54054170Y-14650000D01*
X53945830Y-14650000D01*
X53839571Y-14671136D01*
X53739477Y-14712597D01*
X53649396Y-14772787D01*
X53572787Y-14849396D01*
X53512597Y-14939477D01*
X53471136Y-15039571D01*
X53450000Y-15145830D01*
X53450000Y-15254170D01*
X53471136Y-15360429D01*
X53512597Y-15460523D01*
X53538975Y-15500000D01*
X53512597Y-15539477D01*
X53471136Y-15639571D01*
X53450000Y-15745830D01*
X53450000Y-15854170D01*
X53471136Y-15960429D01*
X53512597Y-16060523D01*
X53538975Y-16100000D01*
X53512597Y-16139477D01*
X53471136Y-16239571D01*
X53450000Y-16345830D01*
X53450000Y-16454170D01*
X53471136Y-16560429D01*
X53512597Y-16660523D01*
X53538975Y-16700000D01*
X53512597Y-16739477D01*
X53471136Y-16839571D01*
X53450000Y-16945830D01*
X53450000Y-17054170D01*
X53470755Y-17158515D01*
X53449396Y-17172787D01*
X53372787Y-17249396D01*
X53312597Y-17339477D01*
X53271136Y-17439571D01*
X53250000Y-17545830D01*
X49100000Y-17545830D01*
X49100000Y-15550000D01*
X49099371Y-15538804D01*
X49080567Y-15371913D01*
X49075584Y-15350081D01*
X49020115Y-15191559D01*
X49010399Y-15171384D01*
X48921046Y-15029180D01*
X48907085Y-15011672D01*
X48788328Y-14892915D01*
X48770820Y-14878954D01*
X48628616Y-14789601D01*
X48608441Y-14779885D01*
X48449919Y-14724416D01*
X48428087Y-14719433D01*
X48261196Y-14700629D01*
X48250000Y-14700000D01*
X47641550Y-14700000D01*
X47627535Y-14700987D01*
X47349996Y-14740273D01*
X47336257Y-14743215D01*
X30102554Y-19721840D01*
X29946387Y-19747009D01*
X29794860Y-19734392D01*
X29650811Y-19685703D01*
X29522701Y-19603801D01*
X29418046Y-19493491D01*
X29343266Y-19361735D01*
X29306286Y-19224081D01*
X29306601Y-19082101D01*
X29344045Y-18945154D01*
X29416016Y-18822763D01*
X29517493Y-18723466D01*
X29647246Y-18650909D01*
X49329619Y-10845830D01*
X57750000Y-10845830D01*
X57750000Y-10954170D01*
X57771136Y-11060429D01*
X57812597Y-11160523D01*
X57872787Y-11250604D01*
X57949396Y-11327213D01*
X58039477Y-11387403D01*
X58139571Y-11428864D01*
X58245830Y-11450000D01*
X58354170Y-11450000D01*
X58460429Y-11428864D01*
X58560523Y-11387403D01*
X58650604Y-11327213D01*
X58727213Y-11250604D01*
X58787403Y-11160523D01*
X58828864Y-11060429D01*
X58850000Y-10954170D01*
X58850000Y-10845830D01*
X58828864Y-10739571D01*
X58787403Y-10639477D01*
X58727213Y-10549396D01*
X58650604Y-10472787D01*
X58560523Y-10412597D01*
X58460429Y-10371136D01*
X58354170Y-10350000D01*
X58245830Y-10350000D01*
X58139571Y-10371136D01*
X58039477Y-10412597D01*
X57949396Y-10472787D01*
X57872787Y-10549396D01*
X57812597Y-10639477D01*
X57771136Y-10739571D01*
X57750000Y-10845830D01*
X49329619Y-10845830D01*
X51892778Y-9829405D01*
X51872787Y-9849396D01*
X51812597Y-9939477D01*
X51771136Y-10039571D01*
X51750000Y-10145830D01*
X51750000Y-10254170D01*
X51771136Y-10360429D01*
X51812597Y-10460523D01*
X51872787Y-10550604D01*
X51949396Y-10627213D01*
X52039477Y-10687403D01*
X52139571Y-10728864D01*
X52245830Y-10750000D01*
X52354170Y-10750000D01*
X52460429Y-10728864D01*
X52560523Y-10687403D01*
X52650604Y-10627213D01*
X52727213Y-10550604D01*
X52787403Y-10460523D01*
X52828864Y-10360429D01*
X52850000Y-10254170D01*
X52850000Y-10145830D01*
X52828864Y-10039571D01*
X52787403Y-9939477D01*
X52727213Y-9849396D01*
X52650604Y-9772787D01*
X52560523Y-9712597D01*
X52530112Y-9700000D01*
X52850000Y-9700000D01*
X52863053Y-9699144D01*
X53031285Y-9676996D01*
X53056500Y-9670240D01*
X53213268Y-9605305D01*
X53235877Y-9592252D01*
X53370496Y-9488954D01*
X53388954Y-9470496D01*
X53492252Y-9335877D01*
X53505305Y-9313268D01*
X53570240Y-9156500D01*
X53576996Y-9131285D01*
X53588246Y-9045830D01*
X53850000Y-9045830D01*
X53850000Y-9154170D01*
X53871136Y-9260429D01*
X53912597Y-9360523D01*
X53972787Y-9450604D01*
X54049396Y-9527213D01*
X54139477Y-9587403D01*
X54239571Y-9628864D01*
X54345830Y-9650000D01*
X54454170Y-9650000D01*
X54475134Y-9645830D01*
X59000000Y-9645830D01*
X59000000Y-9754170D01*
X59021136Y-9860429D01*
X59062597Y-9960523D01*
X59122787Y-10050604D01*
X59199396Y-10127213D01*
X59289477Y-10187403D01*
X59389571Y-10228864D01*
X59495830Y-10250000D01*
X59604170Y-10250000D01*
X59710429Y-10228864D01*
X59810523Y-10187403D01*
X59900604Y-10127213D01*
X59977213Y-10050604D01*
X60037403Y-9960523D01*
X60078864Y-9860429D01*
X60100000Y-9754170D01*
X60100000Y-9645830D01*
X60078864Y-9539571D01*
X60037403Y-9439477D01*
X59977213Y-9349396D01*
X59900604Y-9272787D01*
X59810523Y-9212597D01*
X59710429Y-9171136D01*
X59604170Y-9150000D01*
X59495830Y-9150000D01*
X59389571Y-9171136D01*
X59289477Y-9212597D01*
X59199396Y-9272787D01*
X59122787Y-9349396D01*
X59062597Y-9439477D01*
X59021136Y-9539571D01*
X59000000Y-9645830D01*
X54475134Y-9645830D01*
X54560429Y-9628864D01*
X54660523Y-9587403D01*
X54750604Y-9527213D01*
X54827213Y-9450604D01*
X54887403Y-9360523D01*
X54928864Y-9260429D01*
X54950000Y-9154170D01*
X54950000Y-9045830D01*
X54928864Y-8939571D01*
X54887403Y-8839477D01*
X54827213Y-8749396D01*
X54750604Y-8672787D01*
X54660523Y-8612597D01*
X54560429Y-8571136D01*
X54454170Y-8550000D01*
X54345830Y-8550000D01*
X54239571Y-8571136D01*
X54139477Y-8612597D01*
X54049396Y-8672787D01*
X53972787Y-8749396D01*
X53912597Y-8839477D01*
X53871136Y-8939571D01*
X53850000Y-9045830D01*
X53588246Y-9045830D01*
X53599144Y-8963053D01*
X53600000Y-8950000D01*
X53600000Y-7545830D01*
X57550000Y-7545830D01*
X57550000Y-7654170D01*
X57571136Y-7760429D01*
X57612597Y-7860523D01*
X57672787Y-7950604D01*
X57749396Y-8027213D01*
X57839477Y-8087403D01*
X57939571Y-8128864D01*
X58045830Y-8150000D01*
X58154170Y-8150000D01*
X58260429Y-8128864D01*
X58360523Y-8087403D01*
X58400000Y-8061025D01*
X58439477Y-8087403D01*
X58539571Y-8128864D01*
X58645830Y-8150000D01*
X58754170Y-8150000D01*
X58860429Y-8128864D01*
X58960523Y-8087403D01*
X59050604Y-8027213D01*
X59127213Y-7950604D01*
X59187403Y-7860523D01*
X59228864Y-7760429D01*
X59250000Y-7654170D01*
X59250000Y-7545830D01*
X59228864Y-7439571D01*
X59187403Y-7339477D01*
X59127213Y-7249396D01*
X59050604Y-7172787D01*
X58960523Y-7112597D01*
X58860429Y-7071136D01*
X58847151Y-7068495D01*
X58850000Y-7054170D01*
X58850000Y-6945830D01*
X58828864Y-6839571D01*
X58787403Y-6739477D01*
X58761025Y-6700000D01*
X58787403Y-6660523D01*
X58828864Y-6560429D01*
X58850000Y-6454170D01*
X58850000Y-6345830D01*
X58828864Y-6239571D01*
X58787403Y-6139477D01*
X58761025Y-6100000D01*
X58787403Y-6060523D01*
X58828864Y-5960429D01*
X58850000Y-5854170D01*
X58850000Y-5745830D01*
X58828864Y-5639571D01*
X58787403Y-5539477D01*
X58761025Y-5500000D01*
X58787403Y-5460523D01*
X58828864Y-5360429D01*
X58831767Y-5345830D01*
X62450000Y-5345830D01*
X62450000Y-5454170D01*
X62471136Y-5560429D01*
X62512597Y-5660523D01*
X62572787Y-5750604D01*
X62649396Y-5827213D01*
X62739477Y-5887403D01*
X62839571Y-5928864D01*
X62945830Y-5950000D01*
X63054170Y-5950000D01*
X63160429Y-5928864D01*
X63260523Y-5887403D01*
X63350604Y-5827213D01*
X63427213Y-5750604D01*
X63487403Y-5660523D01*
X63528864Y-5560429D01*
X63550000Y-5454170D01*
X63550000Y-5345830D01*
X63528864Y-5239571D01*
X63487403Y-5139477D01*
X63427213Y-5049396D01*
X63350604Y-4972787D01*
X63260523Y-4912597D01*
X63160429Y-4871136D01*
X63054170Y-4850000D01*
X62945830Y-4850000D01*
X62839571Y-4871136D01*
X62739477Y-4912597D01*
X62649396Y-4972787D01*
X62572787Y-5049396D01*
X62512597Y-5139477D01*
X62471136Y-5239571D01*
X62450000Y-5345830D01*
X58831767Y-5345830D01*
X58850000Y-5254170D01*
X58850000Y-5145830D01*
X58828864Y-5039571D01*
X58787403Y-4939477D01*
X58727213Y-4849396D01*
X58650604Y-4772787D01*
X58560523Y-4712597D01*
X58460429Y-4671136D01*
X58354170Y-4650000D01*
X58245830Y-4650000D01*
X58139571Y-4671136D01*
X58039477Y-4712597D01*
X57949396Y-4772787D01*
X57872787Y-4849396D01*
X57812597Y-4939477D01*
X57771136Y-5039571D01*
X57750000Y-5145830D01*
X57750000Y-5254170D01*
X57771136Y-5360429D01*
X57812597Y-5460523D01*
X57838975Y-5500000D01*
X57812597Y-5539477D01*
X57771136Y-5639571D01*
X57750000Y-5745830D01*
X57750000Y-5854170D01*
X57771136Y-5960429D01*
X57812597Y-6060523D01*
X57838975Y-6100000D01*
X57812597Y-6139477D01*
X57771136Y-6239571D01*
X57750000Y-6345830D01*
X57750000Y-6454170D01*
X57771136Y-6560429D01*
X57812597Y-6660523D01*
X57838975Y-6700000D01*
X57812597Y-6739477D01*
X57771136Y-6839571D01*
X57750000Y-6945830D01*
X57750000Y-7054170D01*
X57770755Y-7158515D01*
X57749396Y-7172787D01*
X57672787Y-7249396D01*
X57612597Y-7339477D01*
X57571136Y-7439571D01*
X57550000Y-7545830D01*
X53600000Y-7545830D01*
X53600000Y-5550000D01*
X53599371Y-5538804D01*
X53580567Y-5371913D01*
X53575584Y-5350081D01*
X53520115Y-5191559D01*
X53510399Y-5171384D01*
X53421046Y-5029180D01*
X53407085Y-5011672D01*
X53288328Y-4892915D01*
X53270820Y-4878954D01*
X53128616Y-4789601D01*
X53108441Y-4779885D01*
X52949919Y-4724416D01*
X52928087Y-4719433D01*
X52761196Y-4700629D01*
X52750000Y-4700000D01*
X52171120Y-4700000D01*
X52162656Y-4700359D01*
X51993988Y-4714686D01*
X51977303Y-4717541D01*
X51813467Y-4760112D01*
X51805366Y-4762588D01*
X20966812Y-15635155D01*
X20956514Y-15639445D01*
X20769125Y-15730096D01*
X20750278Y-15741970D01*
X20588358Y-15871253D01*
X20493505Y-15944036D01*
X20394312Y-15985123D01*
X20281311Y-16000000D01*
X1004908Y-16000000D01*
X824515Y-15982232D01*
X655771Y-15931045D01*
X500255Y-15847920D01*
X363946Y-15736054D01*
X325000Y-15688598D01*
X325000Y-421133D01*
X366958Y-370435D01*
X422924Y-325000D01*
X23849467Y-325000D01*
X52989021Y-599901D01*
G37*
%TD.AperFunction*%
%TD*%
D14*
%TO.N,GND*%
X19270189Y-14344376D02*
X19433850Y-14394022D01*
X19584672Y-14474638D01*
X19716870Y-14583130D01*
X19825362Y-14715328D01*
X19905978Y-14866150D01*
X19955624Y-15029811D01*
X19973000Y-15206234D01*
X19973000Y-17979552D01*
X19955624Y-18155976D01*
X19905978Y-18319637D01*
X19825363Y-18470458D01*
X19712898Y-18607496D01*
X18603090Y-19717304D01*
X18594721Y-19726539D01*
X18470358Y-19878075D01*
X18456526Y-19898776D01*
X18364116Y-20071663D01*
X18354588Y-20094664D01*
X18297683Y-20282257D01*
X18292827Y-20306675D01*
X18273612Y-20501766D01*
X18273000Y-20514214D01*
X18273000Y-24479552D01*
X18255624Y-24655976D01*
X18205978Y-24819637D01*
X18125363Y-24970458D01*
X18012898Y-25107496D01*
X17307496Y-25812898D01*
X17170458Y-25925363D01*
X17019637Y-26005978D01*
X16855976Y-26055624D01*
X16679552Y-26073000D01*
X16450000Y-26073000D01*
X16433423Y-26074086D01*
X16265191Y-26096234D01*
X16233167Y-26104815D01*
X16076399Y-26169750D01*
X16047687Y-26186328D01*
X15913068Y-26289626D01*
X15889626Y-26313068D01*
X15786328Y-26447687D01*
X15769750Y-26476399D01*
X15704815Y-26633167D01*
X15696234Y-26665191D01*
X15674086Y-26833423D01*
X15673000Y-26850000D01*
X15673000Y-28458579D01*
X15675440Y-28483355D01*
X15701429Y-28614011D01*
X15708656Y-28637836D01*
X15720392Y-28659793D01*
X15794403Y-28770558D01*
X15810197Y-28789803D01*
X15905849Y-28885455D01*
X15913491Y-28893188D01*
X19893798Y-32968264D01*
X19992792Y-33099928D01*
X20051818Y-33244835D01*
X20074054Y-33416330D01*
X20074087Y-33416577D01*
X20098766Y-33604030D01*
X20107346Y-33636054D01*
X20179700Y-33810733D01*
X20196277Y-33839445D01*
X20311376Y-33989445D01*
X20322329Y-34001935D01*
X20448465Y-34128071D01*
X20458726Y-34145764D01*
X20458745Y-34149049D01*
X20457129Y-34151912D01*
X20454307Y-34153593D01*
X20433856Y-34153951D01*
X12148681Y-32105930D01*
X12133555Y-32103150D01*
X11893587Y-32073931D01*
X11878237Y-32073000D01*
X7706234Y-32073000D01*
X7529811Y-32055624D01*
X7366150Y-32005978D01*
X7215328Y-31925362D01*
X7083130Y-31816870D01*
X6974638Y-31684672D01*
X6894022Y-31533850D01*
X6844376Y-31370189D01*
X6830319Y-31227469D01*
X6854826Y-31168305D01*
X6877000Y-31056830D01*
X6877000Y-30943170D01*
X6854826Y-30831695D01*
X6827000Y-30764517D01*
X6827000Y-19235483D01*
X6854826Y-19168305D01*
X6877000Y-19056830D01*
X6877000Y-18943170D01*
X6854826Y-18831695D01*
X6827000Y-18764517D01*
X6827000Y-15206234D01*
X6844376Y-15029811D01*
X6894022Y-14866150D01*
X6974638Y-14715328D01*
X7083130Y-14583130D01*
X7215328Y-14474638D01*
X7366150Y-14394022D01*
X7529811Y-14344376D01*
X7706234Y-14327000D01*
X19093766Y-14327000D01*
X19270189Y-14344376D01*
%TA.AperFunction,Conductor*%
D15*
G36*
X19270189Y-14344376D02*
G01*
X19433850Y-14394022D01*
X19584672Y-14474638D01*
X19716870Y-14583130D01*
X19825362Y-14715328D01*
X19905978Y-14866150D01*
X19955624Y-15029811D01*
X19973000Y-15206234D01*
X19973000Y-17979552D01*
X19955624Y-18155976D01*
X19905978Y-18319637D01*
X19825363Y-18470458D01*
X19712898Y-18607496D01*
X18603090Y-19717304D01*
X18594721Y-19726539D01*
X18470358Y-19878075D01*
X18456526Y-19898776D01*
X18364116Y-20071663D01*
X18354588Y-20094664D01*
X18297683Y-20282257D01*
X18292827Y-20306675D01*
X18273612Y-20501766D01*
X18273000Y-20514214D01*
X18273000Y-24479552D01*
X18255624Y-24655976D01*
X18205978Y-24819637D01*
X18125363Y-24970458D01*
X18012898Y-25107496D01*
X17307496Y-25812898D01*
X17170458Y-25925363D01*
X17019637Y-26005978D01*
X16855976Y-26055624D01*
X16679552Y-26073000D01*
X16450000Y-26073000D01*
X16433423Y-26074086D01*
X16265191Y-26096234D01*
X16233167Y-26104815D01*
X16076399Y-26169750D01*
X16047687Y-26186328D01*
X15913068Y-26289626D01*
X15889626Y-26313068D01*
X15786328Y-26447687D01*
X15769750Y-26476399D01*
X15704815Y-26633167D01*
X15696234Y-26665191D01*
X15674086Y-26833423D01*
X15673000Y-26850000D01*
X15673000Y-28458579D01*
X15675440Y-28483355D01*
X15701429Y-28614011D01*
X15708656Y-28637836D01*
X15720392Y-28659793D01*
X15794403Y-28770558D01*
X15810197Y-28789803D01*
X15905849Y-28885455D01*
X15913491Y-28893188D01*
X19893798Y-32968264D01*
X19992792Y-33099928D01*
X20051818Y-33244835D01*
X20074054Y-33416330D01*
X20074087Y-33416577D01*
X20098766Y-33604030D01*
X20107346Y-33636054D01*
X20179700Y-33810733D01*
X20196277Y-33839445D01*
X20311376Y-33989445D01*
X20322329Y-34001935D01*
X20448465Y-34128071D01*
X20458726Y-34145764D01*
X20458745Y-34149049D01*
X20457129Y-34151912D01*
X20454307Y-34153593D01*
X20433856Y-34153951D01*
X12148681Y-32105930D01*
X12133555Y-32103150D01*
X11893587Y-32073931D01*
X11878237Y-32073000D01*
X7706234Y-32073000D01*
X7529811Y-32055624D01*
X7366150Y-32005978D01*
X7215328Y-31925362D01*
X7083130Y-31816870D01*
X6974638Y-31684672D01*
X6894022Y-31533850D01*
X6844376Y-31370189D01*
X6830319Y-31227469D01*
X6854826Y-31168305D01*
X6877000Y-31056830D01*
X6877000Y-30943170D01*
X6854826Y-30831695D01*
X6827000Y-30764517D01*
X6827000Y-19235483D01*
X6854826Y-19168305D01*
X6877000Y-19056830D01*
X6877000Y-18943170D01*
X6854826Y-18831695D01*
X6827000Y-18764517D01*
X6827000Y-15206234D01*
X6844376Y-15029811D01*
X6894022Y-14866150D01*
X6974638Y-14715328D01*
X7083130Y-14583130D01*
X7215328Y-14474638D01*
X7366150Y-14394022D01*
X7529811Y-14344376D01*
X7706234Y-14327000D01*
X19093766Y-14327000D01*
X19270189Y-14344376D01*
G37*
%TD.AperFunction*%
%TD*%
D14*
%TO.N,Net-(J1-Pad2)*%
X5670189Y-16444376D02*
X5833850Y-16494022D01*
X5984672Y-16574638D01*
X6116870Y-16683130D01*
X6225362Y-16815328D01*
X6305978Y-16966150D01*
X6355624Y-17129811D01*
X6373000Y-17306234D01*
X6373000Y-30793766D01*
X6355624Y-30970189D01*
X6305978Y-31133850D01*
X6225362Y-31284672D01*
X6116870Y-31416870D01*
X5984672Y-31525362D01*
X5833850Y-31605978D01*
X5670189Y-31655624D01*
X5493766Y-31673000D01*
X1506234Y-31673000D01*
X1329811Y-31655624D01*
X1166150Y-31605978D01*
X1015328Y-31525362D01*
X883130Y-31416870D01*
X774638Y-31284672D01*
X694022Y-31133850D01*
X644376Y-30970189D01*
X627000Y-30793766D01*
X627000Y-17306234D01*
X644376Y-17129811D01*
X694022Y-16966150D01*
X774638Y-16815328D01*
X883130Y-16683130D01*
X1015328Y-16574638D01*
X1166150Y-16494022D01*
X1329811Y-16444376D01*
X1506234Y-16427000D01*
X5493766Y-16427000D01*
X5670189Y-16444376D01*
%TA.AperFunction,Conductor*%
D15*
G36*
X5670189Y-16444376D02*
G01*
X5833850Y-16494022D01*
X5984672Y-16574638D01*
X6116870Y-16683130D01*
X6225362Y-16815328D01*
X6305978Y-16966150D01*
X6355624Y-17129811D01*
X6373000Y-17306234D01*
X6373000Y-30793766D01*
X6355624Y-30970189D01*
X6305978Y-31133850D01*
X6225362Y-31284672D01*
X6116870Y-31416870D01*
X5984672Y-31525362D01*
X5833850Y-31605978D01*
X5670189Y-31655624D01*
X5493766Y-31673000D01*
X1506234Y-31673000D01*
X1329811Y-31655624D01*
X1166150Y-31605978D01*
X1015328Y-31525362D01*
X883130Y-31416870D01*
X774638Y-31284672D01*
X694022Y-31133850D01*
X644376Y-30970189D01*
X627000Y-30793766D01*
X627000Y-17306234D01*
X644376Y-17129811D01*
X694022Y-16966150D01*
X774638Y-16815328D01*
X883130Y-16683130D01*
X1015328Y-16574638D01*
X1166150Y-16494022D01*
X1329811Y-16444376D01*
X1506234Y-16427000D01*
X5493766Y-16427000D01*
X5670189Y-16444376D01*
G37*
%TD.AperFunction*%
%TD*%
M02*
