%TF.GenerationSoftware,KiCad,Pcbnew,5.1.7*%
%TF.CreationDate,2020-12-13T01:59:54+00:00*%
%TF.ProjectId,LT3045-4,4c543330-3435-42d3-942e-6b696361645f,rev?*%
%TF.SameCoordinates,Original*%
%TF.FileFunction,Soldermask,Top*%
%TF.FilePolarity,Negative*%
%FSLAX46Y46*%
G04 Gerber Fmt 4.6, Leading zero omitted, Abs format (unit mm)*
G04 Created by KiCad (PCBNEW 5.1.7) date 2020-12-13 01:59:54*
%MOMM*%
%LPD*%
G01*
G04 APERTURE LIST*
%ADD10C,0.100000*%
G04 APERTURE END LIST*
%TO.C,C7*%
G36*
G01*
X56075000Y-10775000D02*
X56075000Y-10295000D01*
G75*
G02*
X56235000Y-10135000I160000J0D01*
G01*
X57265000Y-10135000D01*
G75*
G02*
X57425000Y-10295000I0J-160000D01*
G01*
X57425000Y-10775000D01*
G75*
G02*
X57265000Y-10935000I-160000J0D01*
G01*
X56235000Y-10935000D01*
G75*
G02*
X56075000Y-10775000I0J160000D01*
G01*
G37*
G36*
G01*
X56075000Y-11755000D02*
X56075000Y-11275000D01*
G75*
G02*
X56235000Y-11115000I160000J0D01*
G01*
X57265000Y-11115000D01*
G75*
G02*
X57425000Y-11275000I0J-160000D01*
G01*
X57425000Y-11755000D01*
G75*
G02*
X57265000Y-11915000I-160000J0D01*
G01*
X56235000Y-11915000D01*
G75*
G02*
X56075000Y-11755000I0J160000D01*
G01*
G37*
G36*
G01*
X53275000Y-10775000D02*
X53275000Y-10295000D01*
G75*
G02*
X53435000Y-10135000I160000J0D01*
G01*
X54465000Y-10135000D01*
G75*
G02*
X54625000Y-10295000I0J-160000D01*
G01*
X54625000Y-10775000D01*
G75*
G02*
X54465000Y-10935000I-160000J0D01*
G01*
X53435000Y-10935000D01*
G75*
G02*
X53275000Y-10775000I0J160000D01*
G01*
G37*
G36*
G01*
X53275000Y-11755000D02*
X53275000Y-11275000D01*
G75*
G02*
X53435000Y-11115000I160000J0D01*
G01*
X54465000Y-11115000D01*
G75*
G02*
X54625000Y-11275000I0J-160000D01*
G01*
X54625000Y-11755000D01*
G75*
G02*
X54465000Y-11915000I-160000J0D01*
G01*
X53435000Y-11915000D01*
G75*
G02*
X53275000Y-11755000I0J160000D01*
G01*
G37*
%TD*%
%TO.C,C3*%
G36*
G01*
X53825000Y-20025000D02*
X53825000Y-19545000D01*
G75*
G02*
X53985000Y-19385000I160000J0D01*
G01*
X55015000Y-19385000D01*
G75*
G02*
X55175000Y-19545000I0J-160000D01*
G01*
X55175000Y-20025000D01*
G75*
G02*
X55015000Y-20185000I-160000J0D01*
G01*
X53985000Y-20185000D01*
G75*
G02*
X53825000Y-20025000I0J160000D01*
G01*
G37*
G36*
G01*
X53825000Y-21005000D02*
X53825000Y-20525000D01*
G75*
G02*
X53985000Y-20365000I160000J0D01*
G01*
X55015000Y-20365000D01*
G75*
G02*
X55175000Y-20525000I0J-160000D01*
G01*
X55175000Y-21005000D01*
G75*
G02*
X55015000Y-21165000I-160000J0D01*
G01*
X53985000Y-21165000D01*
G75*
G02*
X53825000Y-21005000I0J160000D01*
G01*
G37*
G36*
G01*
X51025000Y-20025000D02*
X51025000Y-19545000D01*
G75*
G02*
X51185000Y-19385000I160000J0D01*
G01*
X52215000Y-19385000D01*
G75*
G02*
X52375000Y-19545000I0J-160000D01*
G01*
X52375000Y-20025000D01*
G75*
G02*
X52215000Y-20185000I-160000J0D01*
G01*
X51185000Y-20185000D01*
G75*
G02*
X51025000Y-20025000I0J160000D01*
G01*
G37*
G36*
G01*
X51025000Y-21005000D02*
X51025000Y-20525000D01*
G75*
G02*
X51185000Y-20365000I160000J0D01*
G01*
X52215000Y-20365000D01*
G75*
G02*
X52375000Y-20525000I0J-160000D01*
G01*
X52375000Y-21005000D01*
G75*
G02*
X52215000Y-21165000I-160000J0D01*
G01*
X51185000Y-21165000D01*
G75*
G02*
X51025000Y-21005000I0J160000D01*
G01*
G37*
%TD*%
%TO.C,C8*%
G36*
G01*
X53825000Y-30525000D02*
X53825000Y-30045000D01*
G75*
G02*
X53985000Y-29885000I160000J0D01*
G01*
X55015000Y-29885000D01*
G75*
G02*
X55175000Y-30045000I0J-160000D01*
G01*
X55175000Y-30525000D01*
G75*
G02*
X55015000Y-30685000I-160000J0D01*
G01*
X53985000Y-30685000D01*
G75*
G02*
X53825000Y-30525000I0J160000D01*
G01*
G37*
G36*
G01*
X53825000Y-31505000D02*
X53825000Y-31025000D01*
G75*
G02*
X53985000Y-30865000I160000J0D01*
G01*
X55015000Y-30865000D01*
G75*
G02*
X55175000Y-31025000I0J-160000D01*
G01*
X55175000Y-31505000D01*
G75*
G02*
X55015000Y-31665000I-160000J0D01*
G01*
X53985000Y-31665000D01*
G75*
G02*
X53825000Y-31505000I0J160000D01*
G01*
G37*
G36*
G01*
X51025000Y-30525000D02*
X51025000Y-30045000D01*
G75*
G02*
X51185000Y-29885000I160000J0D01*
G01*
X52215000Y-29885000D01*
G75*
G02*
X52375000Y-30045000I0J-160000D01*
G01*
X52375000Y-30525000D01*
G75*
G02*
X52215000Y-30685000I-160000J0D01*
G01*
X51185000Y-30685000D01*
G75*
G02*
X51025000Y-30525000I0J160000D01*
G01*
G37*
G36*
G01*
X51025000Y-31505000D02*
X51025000Y-31025000D01*
G75*
G02*
X51185000Y-30865000I160000J0D01*
G01*
X52215000Y-30865000D01*
G75*
G02*
X52375000Y-31025000I0J-160000D01*
G01*
X52375000Y-31505000D01*
G75*
G02*
X52215000Y-31665000I-160000J0D01*
G01*
X51185000Y-31665000D01*
G75*
G02*
X51025000Y-31505000I0J160000D01*
G01*
G37*
%TD*%
%TO.C,C9*%
G36*
G01*
X53275000Y-40755000D02*
X53275000Y-40275000D01*
G75*
G02*
X53435000Y-40115000I160000J0D01*
G01*
X54465000Y-40115000D01*
G75*
G02*
X54625000Y-40275000I0J-160000D01*
G01*
X54625000Y-40755000D01*
G75*
G02*
X54465000Y-40915000I-160000J0D01*
G01*
X53435000Y-40915000D01*
G75*
G02*
X53275000Y-40755000I0J160000D01*
G01*
G37*
G36*
G01*
X53275000Y-39775000D02*
X53275000Y-39295000D01*
G75*
G02*
X53435000Y-39135000I160000J0D01*
G01*
X54465000Y-39135000D01*
G75*
G02*
X54625000Y-39295000I0J-160000D01*
G01*
X54625000Y-39775000D01*
G75*
G02*
X54465000Y-39935000I-160000J0D01*
G01*
X53435000Y-39935000D01*
G75*
G02*
X53275000Y-39775000I0J160000D01*
G01*
G37*
G36*
G01*
X56075000Y-40755000D02*
X56075000Y-40275000D01*
G75*
G02*
X56235000Y-40115000I160000J0D01*
G01*
X57265000Y-40115000D01*
G75*
G02*
X57425000Y-40275000I0J-160000D01*
G01*
X57425000Y-40755000D01*
G75*
G02*
X57265000Y-40915000I-160000J0D01*
G01*
X56235000Y-40915000D01*
G75*
G02*
X56075000Y-40755000I0J160000D01*
G01*
G37*
G36*
G01*
X56075000Y-39775000D02*
X56075000Y-39295000D01*
G75*
G02*
X56235000Y-39135000I160000J0D01*
G01*
X57265000Y-39135000D01*
G75*
G02*
X57425000Y-39295000I0J-160000D01*
G01*
X57425000Y-39775000D01*
G75*
G02*
X57265000Y-39935000I-160000J0D01*
G01*
X56235000Y-39935000D01*
G75*
G02*
X56075000Y-39775000I0J160000D01*
G01*
G37*
%TD*%
D10*
%TO.C,U4*%
G36*
X54884755Y-42060961D02*
G01*
X54894134Y-42063806D01*
X54902779Y-42068427D01*
X54910355Y-42074645D01*
X54916573Y-42082221D01*
X54921194Y-42090866D01*
X54924039Y-42100245D01*
X54925000Y-42110000D01*
X54925000Y-44490000D01*
X54924039Y-44499755D01*
X54921194Y-44509134D01*
X54916573Y-44517779D01*
X54910355Y-44525355D01*
X54902779Y-44531573D01*
X54894134Y-44536194D01*
X54884755Y-44539039D01*
X54875000Y-44540000D01*
X53225000Y-44540000D01*
X53215245Y-44539039D01*
X53205866Y-44536194D01*
X53197221Y-44531573D01*
X53189645Y-44525355D01*
X53183427Y-44517779D01*
X53178806Y-44509134D01*
X53175961Y-44499755D01*
X53175000Y-44490000D01*
X53175000Y-42486000D01*
X53175961Y-42476245D01*
X53178806Y-42466866D01*
X53183427Y-42458221D01*
X53188402Y-42451933D01*
X53538402Y-42075933D01*
X53545751Y-42069447D01*
X53554225Y-42064520D01*
X53563497Y-42061341D01*
X53575000Y-42060000D01*
X54875000Y-42060000D01*
X54884755Y-42060961D01*
G37*
G36*
G01*
X55075000Y-42425000D02*
X55075000Y-42175000D01*
G75*
G02*
X55125000Y-42125000I50000J0D01*
G01*
X55825000Y-42125000D01*
G75*
G02*
X55875000Y-42175000I0J-50000D01*
G01*
X55875000Y-42425000D01*
G75*
G02*
X55825000Y-42475000I-50000J0D01*
G01*
X55125000Y-42475000D01*
G75*
G02*
X55075000Y-42425000I0J50000D01*
G01*
G37*
G36*
G01*
X55075000Y-42925000D02*
X55075000Y-42675000D01*
G75*
G02*
X55125000Y-42625000I50000J0D01*
G01*
X55825000Y-42625000D01*
G75*
G02*
X55875000Y-42675000I0J-50000D01*
G01*
X55875000Y-42925000D01*
G75*
G02*
X55825000Y-42975000I-50000J0D01*
G01*
X55125000Y-42975000D01*
G75*
G02*
X55075000Y-42925000I0J50000D01*
G01*
G37*
G36*
G01*
X55075000Y-43425000D02*
X55075000Y-43175000D01*
G75*
G02*
X55125000Y-43125000I50000J0D01*
G01*
X55825000Y-43125000D01*
G75*
G02*
X55875000Y-43175000I0J-50000D01*
G01*
X55875000Y-43425000D01*
G75*
G02*
X55825000Y-43475000I-50000J0D01*
G01*
X55125000Y-43475000D01*
G75*
G02*
X55075000Y-43425000I0J50000D01*
G01*
G37*
G36*
G01*
X55075000Y-43925000D02*
X55075000Y-43675000D01*
G75*
G02*
X55125000Y-43625000I50000J0D01*
G01*
X55825000Y-43625000D01*
G75*
G02*
X55875000Y-43675000I0J-50000D01*
G01*
X55875000Y-43925000D01*
G75*
G02*
X55825000Y-43975000I-50000J0D01*
G01*
X55125000Y-43975000D01*
G75*
G02*
X55075000Y-43925000I0J50000D01*
G01*
G37*
G36*
G01*
X55075000Y-44425000D02*
X55075000Y-44175000D01*
G75*
G02*
X55125000Y-44125000I50000J0D01*
G01*
X55825000Y-44125000D01*
G75*
G02*
X55875000Y-44175000I0J-50000D01*
G01*
X55875000Y-44425000D01*
G75*
G02*
X55825000Y-44475000I-50000J0D01*
G01*
X55125000Y-44475000D01*
G75*
G02*
X55075000Y-44425000I0J50000D01*
G01*
G37*
G36*
G01*
X52225000Y-44425000D02*
X52225000Y-44175000D01*
G75*
G02*
X52275000Y-44125000I50000J0D01*
G01*
X52975000Y-44125000D01*
G75*
G02*
X53025000Y-44175000I0J-50000D01*
G01*
X53025000Y-44425000D01*
G75*
G02*
X52975000Y-44475000I-50000J0D01*
G01*
X52275000Y-44475000D01*
G75*
G02*
X52225000Y-44425000I0J50000D01*
G01*
G37*
G36*
G01*
X52225000Y-43925000D02*
X52225000Y-43675000D01*
G75*
G02*
X52275000Y-43625000I50000J0D01*
G01*
X52975000Y-43625000D01*
G75*
G02*
X53025000Y-43675000I0J-50000D01*
G01*
X53025000Y-43925000D01*
G75*
G02*
X52975000Y-43975000I-50000J0D01*
G01*
X52275000Y-43975000D01*
G75*
G02*
X52225000Y-43925000I0J50000D01*
G01*
G37*
G36*
G01*
X52225000Y-43425000D02*
X52225000Y-43175000D01*
G75*
G02*
X52275000Y-43125000I50000J0D01*
G01*
X52975000Y-43125000D01*
G75*
G02*
X53025000Y-43175000I0J-50000D01*
G01*
X53025000Y-43425000D01*
G75*
G02*
X52975000Y-43475000I-50000J0D01*
G01*
X52275000Y-43475000D01*
G75*
G02*
X52225000Y-43425000I0J50000D01*
G01*
G37*
G36*
G01*
X52225000Y-42925000D02*
X52225000Y-42675000D01*
G75*
G02*
X52275000Y-42625000I50000J0D01*
G01*
X52975000Y-42625000D01*
G75*
G02*
X53025000Y-42675000I0J-50000D01*
G01*
X53025000Y-42925000D01*
G75*
G02*
X52975000Y-42975000I-50000J0D01*
G01*
X52275000Y-42975000D01*
G75*
G02*
X52225000Y-42925000I0J50000D01*
G01*
G37*
G36*
G01*
X52225000Y-42425000D02*
X52225000Y-42175000D01*
G75*
G02*
X52275000Y-42125000I50000J0D01*
G01*
X52975000Y-42125000D01*
G75*
G02*
X53025000Y-42175000I0J-50000D01*
G01*
X53025000Y-42425000D01*
G75*
G02*
X52975000Y-42475000I-50000J0D01*
G01*
X52275000Y-42475000D01*
G75*
G02*
X52225000Y-42425000I0J50000D01*
G01*
G37*
%TD*%
%TO.C,U1*%
G36*
X52634755Y-22310961D02*
G01*
X52644134Y-22313806D01*
X52652779Y-22318427D01*
X52660355Y-22324645D01*
X52666573Y-22332221D01*
X52671194Y-22340866D01*
X52674039Y-22350245D01*
X52675000Y-22360000D01*
X52675000Y-24740000D01*
X52674039Y-24749755D01*
X52671194Y-24759134D01*
X52666573Y-24767779D01*
X52660355Y-24775355D01*
X52652779Y-24781573D01*
X52644134Y-24786194D01*
X52634755Y-24789039D01*
X52625000Y-24790000D01*
X50975000Y-24790000D01*
X50965245Y-24789039D01*
X50955866Y-24786194D01*
X50947221Y-24781573D01*
X50939645Y-24775355D01*
X50933427Y-24767779D01*
X50928806Y-24759134D01*
X50925961Y-24749755D01*
X50925000Y-24740000D01*
X50925000Y-22736000D01*
X50925961Y-22726245D01*
X50928806Y-22716866D01*
X50933427Y-22708221D01*
X50938402Y-22701933D01*
X51288402Y-22325933D01*
X51295751Y-22319447D01*
X51304225Y-22314520D01*
X51313497Y-22311341D01*
X51325000Y-22310000D01*
X52625000Y-22310000D01*
X52634755Y-22310961D01*
G37*
G36*
G01*
X52825000Y-22675000D02*
X52825000Y-22425000D01*
G75*
G02*
X52875000Y-22375000I50000J0D01*
G01*
X53575000Y-22375000D01*
G75*
G02*
X53625000Y-22425000I0J-50000D01*
G01*
X53625000Y-22675000D01*
G75*
G02*
X53575000Y-22725000I-50000J0D01*
G01*
X52875000Y-22725000D01*
G75*
G02*
X52825000Y-22675000I0J50000D01*
G01*
G37*
G36*
G01*
X52825000Y-23175000D02*
X52825000Y-22925000D01*
G75*
G02*
X52875000Y-22875000I50000J0D01*
G01*
X53575000Y-22875000D01*
G75*
G02*
X53625000Y-22925000I0J-50000D01*
G01*
X53625000Y-23175000D01*
G75*
G02*
X53575000Y-23225000I-50000J0D01*
G01*
X52875000Y-23225000D01*
G75*
G02*
X52825000Y-23175000I0J50000D01*
G01*
G37*
G36*
G01*
X52825000Y-23675000D02*
X52825000Y-23425000D01*
G75*
G02*
X52875000Y-23375000I50000J0D01*
G01*
X53575000Y-23375000D01*
G75*
G02*
X53625000Y-23425000I0J-50000D01*
G01*
X53625000Y-23675000D01*
G75*
G02*
X53575000Y-23725000I-50000J0D01*
G01*
X52875000Y-23725000D01*
G75*
G02*
X52825000Y-23675000I0J50000D01*
G01*
G37*
G36*
G01*
X52825000Y-24175000D02*
X52825000Y-23925000D01*
G75*
G02*
X52875000Y-23875000I50000J0D01*
G01*
X53575000Y-23875000D01*
G75*
G02*
X53625000Y-23925000I0J-50000D01*
G01*
X53625000Y-24175000D01*
G75*
G02*
X53575000Y-24225000I-50000J0D01*
G01*
X52875000Y-24225000D01*
G75*
G02*
X52825000Y-24175000I0J50000D01*
G01*
G37*
G36*
G01*
X52825000Y-24675000D02*
X52825000Y-24425000D01*
G75*
G02*
X52875000Y-24375000I50000J0D01*
G01*
X53575000Y-24375000D01*
G75*
G02*
X53625000Y-24425000I0J-50000D01*
G01*
X53625000Y-24675000D01*
G75*
G02*
X53575000Y-24725000I-50000J0D01*
G01*
X52875000Y-24725000D01*
G75*
G02*
X52825000Y-24675000I0J50000D01*
G01*
G37*
G36*
G01*
X49975000Y-24675000D02*
X49975000Y-24425000D01*
G75*
G02*
X50025000Y-24375000I50000J0D01*
G01*
X50725000Y-24375000D01*
G75*
G02*
X50775000Y-24425000I0J-50000D01*
G01*
X50775000Y-24675000D01*
G75*
G02*
X50725000Y-24725000I-50000J0D01*
G01*
X50025000Y-24725000D01*
G75*
G02*
X49975000Y-24675000I0J50000D01*
G01*
G37*
G36*
G01*
X49975000Y-24175000D02*
X49975000Y-23925000D01*
G75*
G02*
X50025000Y-23875000I50000J0D01*
G01*
X50725000Y-23875000D01*
G75*
G02*
X50775000Y-23925000I0J-50000D01*
G01*
X50775000Y-24175000D01*
G75*
G02*
X50725000Y-24225000I-50000J0D01*
G01*
X50025000Y-24225000D01*
G75*
G02*
X49975000Y-24175000I0J50000D01*
G01*
G37*
G36*
G01*
X49975000Y-23675000D02*
X49975000Y-23425000D01*
G75*
G02*
X50025000Y-23375000I50000J0D01*
G01*
X50725000Y-23375000D01*
G75*
G02*
X50775000Y-23425000I0J-50000D01*
G01*
X50775000Y-23675000D01*
G75*
G02*
X50725000Y-23725000I-50000J0D01*
G01*
X50025000Y-23725000D01*
G75*
G02*
X49975000Y-23675000I0J50000D01*
G01*
G37*
G36*
G01*
X49975000Y-23175000D02*
X49975000Y-22925000D01*
G75*
G02*
X50025000Y-22875000I50000J0D01*
G01*
X50725000Y-22875000D01*
G75*
G02*
X50775000Y-22925000I0J-50000D01*
G01*
X50775000Y-23175000D01*
G75*
G02*
X50725000Y-23225000I-50000J0D01*
G01*
X50025000Y-23225000D01*
G75*
G02*
X49975000Y-23175000I0J50000D01*
G01*
G37*
G36*
G01*
X49975000Y-22675000D02*
X49975000Y-22425000D01*
G75*
G02*
X50025000Y-22375000I50000J0D01*
G01*
X50725000Y-22375000D01*
G75*
G02*
X50775000Y-22425000I0J-50000D01*
G01*
X50775000Y-22675000D01*
G75*
G02*
X50725000Y-22725000I-50000J0D01*
G01*
X50025000Y-22725000D01*
G75*
G02*
X49975000Y-22675000I0J50000D01*
G01*
G37*
%TD*%
%TO.C,J1*%
G36*
G01*
X460000Y-19950000D02*
X5540000Y-19950000D01*
G75*
G02*
X5590000Y-20000000I0J-50000D01*
G01*
X5590000Y-21500000D01*
G75*
G02*
X5540000Y-21550000I-50000J0D01*
G01*
X460000Y-21550000D01*
G75*
G02*
X410000Y-21500000I0J50000D01*
G01*
X410000Y-20000000D01*
G75*
G02*
X460000Y-19950000I50000J0D01*
G01*
G37*
G36*
G01*
X460000Y-28450000D02*
X5540000Y-28450000D01*
G75*
G02*
X5590000Y-28500000I0J-50000D01*
G01*
X5590000Y-30000000D01*
G75*
G02*
X5540000Y-30050000I-50000J0D01*
G01*
X460000Y-30050000D01*
G75*
G02*
X410000Y-30000000I0J50000D01*
G01*
X410000Y-28500000D01*
G75*
G02*
X460000Y-28450000I50000J0D01*
G01*
G37*
G36*
G01*
X460000Y-24200000D02*
X5540000Y-24200000D01*
G75*
G02*
X5590000Y-24250000I0J-50000D01*
G01*
X5590000Y-25750000D01*
G75*
G02*
X5540000Y-25800000I-50000J0D01*
G01*
X460000Y-25800000D01*
G75*
G02*
X410000Y-25750000I0J50000D01*
G01*
X410000Y-24250000D01*
G75*
G02*
X460000Y-24200000I50000J0D01*
G01*
G37*
%TD*%
%TO.C,J2*%
G36*
G01*
X99540000Y-25800000D02*
X94460000Y-25800000D01*
G75*
G02*
X94410000Y-25750000I0J50000D01*
G01*
X94410000Y-24250000D01*
G75*
G02*
X94460000Y-24200000I50000J0D01*
G01*
X99540000Y-24200000D01*
G75*
G02*
X99590000Y-24250000I0J-50000D01*
G01*
X99590000Y-25750000D01*
G75*
G02*
X99540000Y-25800000I-50000J0D01*
G01*
G37*
G36*
G01*
X99540000Y-21550000D02*
X94460000Y-21550000D01*
G75*
G02*
X94410000Y-21500000I0J50000D01*
G01*
X94410000Y-20000000D01*
G75*
G02*
X94460000Y-19950000I50000J0D01*
G01*
X99540000Y-19950000D01*
G75*
G02*
X99590000Y-20000000I0J-50000D01*
G01*
X99590000Y-21500000D01*
G75*
G02*
X99540000Y-21550000I-50000J0D01*
G01*
G37*
G36*
G01*
X99540000Y-30050000D02*
X94460000Y-30050000D01*
G75*
G02*
X94410000Y-30000000I0J50000D01*
G01*
X94410000Y-28500000D01*
G75*
G02*
X94460000Y-28450000I50000J0D01*
G01*
X99540000Y-28450000D01*
G75*
G02*
X99590000Y-28500000I0J-50000D01*
G01*
X99590000Y-30000000D01*
G75*
G02*
X99540000Y-30050000I-50000J0D01*
G01*
G37*
%TD*%
%TO.C,L1*%
G36*
G01*
X13275000Y-24345000D02*
X13275000Y-25655000D01*
G75*
G02*
X13005000Y-25925000I-270000J0D01*
G01*
X12195000Y-25925000D01*
G75*
G02*
X11925000Y-25655000I0J270000D01*
G01*
X11925000Y-24345000D01*
G75*
G02*
X12195000Y-24075000I270000J0D01*
G01*
X13005000Y-24075000D01*
G75*
G02*
X13275000Y-24345000I0J-270000D01*
G01*
G37*
G36*
G01*
X10475000Y-24345000D02*
X10475000Y-25655000D01*
G75*
G02*
X10205000Y-25925000I-270000J0D01*
G01*
X9395000Y-25925000D01*
G75*
G02*
X9125000Y-25655000I0J270000D01*
G01*
X9125000Y-24345000D01*
G75*
G02*
X9395000Y-24075000I270000J0D01*
G01*
X10205000Y-24075000D01*
G75*
G02*
X10475000Y-24345000I0J-270000D01*
G01*
G37*
%TD*%
%TO.C,R3*%
G36*
G01*
X57781250Y-19600000D02*
X57218750Y-19600000D01*
G75*
G02*
X56975000Y-19356250I0J243750D01*
G01*
X56975000Y-18868750D01*
G75*
G02*
X57218750Y-18625000I243750J0D01*
G01*
X57781250Y-18625000D01*
G75*
G02*
X58025000Y-18868750I0J-243750D01*
G01*
X58025000Y-19356250D01*
G75*
G02*
X57781250Y-19600000I-243750J0D01*
G01*
G37*
G36*
G01*
X57781250Y-21175000D02*
X57218750Y-21175000D01*
G75*
G02*
X56975000Y-20931250I0J243750D01*
G01*
X56975000Y-20443750D01*
G75*
G02*
X57218750Y-20200000I243750J0D01*
G01*
X57781250Y-20200000D01*
G75*
G02*
X58025000Y-20443750I0J-243750D01*
G01*
X58025000Y-20931250D01*
G75*
G02*
X57781250Y-21175000I-243750J0D01*
G01*
G37*
%TD*%
%TO.C,R4*%
G36*
G01*
X50787500Y-25968750D02*
X50787500Y-26531250D01*
G75*
G02*
X50543750Y-26775000I-243750J0D01*
G01*
X50056250Y-26775000D01*
G75*
G02*
X49812500Y-26531250I0J243750D01*
G01*
X49812500Y-25968750D01*
G75*
G02*
X50056250Y-25725000I243750J0D01*
G01*
X50543750Y-25725000D01*
G75*
G02*
X50787500Y-25968750I0J-243750D01*
G01*
G37*
G36*
G01*
X49212500Y-25968750D02*
X49212500Y-26531250D01*
G75*
G02*
X48968750Y-26775000I-243750J0D01*
G01*
X48481250Y-26775000D01*
G75*
G02*
X48237500Y-26531250I0J243750D01*
G01*
X48237500Y-25968750D01*
G75*
G02*
X48481250Y-25725000I243750J0D01*
G01*
X48968750Y-25725000D01*
G75*
G02*
X49212500Y-25968750I0J-243750D01*
G01*
G37*
%TD*%
%TO.C,R5*%
G36*
G01*
X85737500Y-24718750D02*
X85737500Y-25281250D01*
G75*
G02*
X85493750Y-25525000I-243750J0D01*
G01*
X85006250Y-25525000D01*
G75*
G02*
X84762500Y-25281250I0J243750D01*
G01*
X84762500Y-24718750D01*
G75*
G02*
X85006250Y-24475000I243750J0D01*
G01*
X85493750Y-24475000D01*
G75*
G02*
X85737500Y-24718750I0J-243750D01*
G01*
G37*
G36*
G01*
X87312500Y-24718750D02*
X87312500Y-25281250D01*
G75*
G02*
X87068750Y-25525000I-243750J0D01*
G01*
X86581250Y-25525000D01*
G75*
G02*
X86337500Y-25281250I0J243750D01*
G01*
X86337500Y-24718750D01*
G75*
G02*
X86581250Y-24475000I243750J0D01*
G01*
X87068750Y-24475000D01*
G75*
G02*
X87312500Y-24718750I0J-243750D01*
G01*
G37*
%TD*%
%TO.C,R6*%
G36*
G01*
X83787500Y-24718750D02*
X83787500Y-25281250D01*
G75*
G02*
X83543750Y-25525000I-243750J0D01*
G01*
X83056250Y-25525000D01*
G75*
G02*
X82812500Y-25281250I0J243750D01*
G01*
X82812500Y-24718750D01*
G75*
G02*
X83056250Y-24475000I243750J0D01*
G01*
X83543750Y-24475000D01*
G75*
G02*
X83787500Y-24718750I0J-243750D01*
G01*
G37*
G36*
G01*
X82212500Y-24718750D02*
X82212500Y-25281250D01*
G75*
G02*
X81968750Y-25525000I-243750J0D01*
G01*
X81481250Y-25525000D01*
G75*
G02*
X81237500Y-25281250I0J243750D01*
G01*
X81237500Y-24718750D01*
G75*
G02*
X81481250Y-24475000I243750J0D01*
G01*
X81968750Y-24475000D01*
G75*
G02*
X82212500Y-24718750I0J-243750D01*
G01*
G37*
%TD*%
%TO.C,R14*%
G36*
G01*
X50718750Y-14937500D02*
X51281250Y-14937500D01*
G75*
G02*
X51525000Y-15181250I0J-243750D01*
G01*
X51525000Y-15668750D01*
G75*
G02*
X51281250Y-15912500I-243750J0D01*
G01*
X50718750Y-15912500D01*
G75*
G02*
X50475000Y-15668750I0J243750D01*
G01*
X50475000Y-15181250D01*
G75*
G02*
X50718750Y-14937500I243750J0D01*
G01*
G37*
G36*
G01*
X50718750Y-16512500D02*
X51281250Y-16512500D01*
G75*
G02*
X51525000Y-16756250I0J-243750D01*
G01*
X51525000Y-17243750D01*
G75*
G02*
X51281250Y-17487500I-243750J0D01*
G01*
X50718750Y-17487500D01*
G75*
G02*
X50475000Y-17243750I0J243750D01*
G01*
X50475000Y-16756250D01*
G75*
G02*
X50718750Y-16512500I243750J0D01*
G01*
G37*
%TD*%
%TO.C,R15*%
G36*
G01*
X48218750Y-36512500D02*
X48781250Y-36512500D01*
G75*
G02*
X49025000Y-36756250I0J-243750D01*
G01*
X49025000Y-37243750D01*
G75*
G02*
X48781250Y-37487500I-243750J0D01*
G01*
X48218750Y-37487500D01*
G75*
G02*
X47975000Y-37243750I0J243750D01*
G01*
X47975000Y-36756250D01*
G75*
G02*
X48218750Y-36512500I243750J0D01*
G01*
G37*
G36*
G01*
X48218750Y-34937500D02*
X48781250Y-34937500D01*
G75*
G02*
X49025000Y-35181250I0J-243750D01*
G01*
X49025000Y-35668750D01*
G75*
G02*
X48781250Y-35912500I-243750J0D01*
G01*
X48218750Y-35912500D01*
G75*
G02*
X47975000Y-35668750I0J243750D01*
G01*
X47975000Y-35181250D01*
G75*
G02*
X48218750Y-34937500I243750J0D01*
G01*
G37*
%TD*%
%TO.C,R16*%
G36*
G01*
X50718750Y-45800000D02*
X51281250Y-45800000D01*
G75*
G02*
X51525000Y-46043750I0J-243750D01*
G01*
X51525000Y-46531250D01*
G75*
G02*
X51281250Y-46775000I-243750J0D01*
G01*
X50718750Y-46775000D01*
G75*
G02*
X50475000Y-46531250I0J243750D01*
G01*
X50475000Y-46043750D01*
G75*
G02*
X50718750Y-45800000I243750J0D01*
G01*
G37*
G36*
G01*
X50718750Y-44225000D02*
X51281250Y-44225000D01*
G75*
G02*
X51525000Y-44468750I0J-243750D01*
G01*
X51525000Y-44956250D01*
G75*
G02*
X51281250Y-45200000I-243750J0D01*
G01*
X50718750Y-45200000D01*
G75*
G02*
X50475000Y-44956250I0J243750D01*
G01*
X50475000Y-44468750D01*
G75*
G02*
X50718750Y-44225000I243750J0D01*
G01*
G37*
%TD*%
%TO.C,U2*%
G36*
G01*
X52225000Y-13425000D02*
X52225000Y-13175000D01*
G75*
G02*
X52275000Y-13125000I50000J0D01*
G01*
X52975000Y-13125000D01*
G75*
G02*
X53025000Y-13175000I0J-50000D01*
G01*
X53025000Y-13425000D01*
G75*
G02*
X52975000Y-13475000I-50000J0D01*
G01*
X52275000Y-13475000D01*
G75*
G02*
X52225000Y-13425000I0J50000D01*
G01*
G37*
G36*
G01*
X52225000Y-13925000D02*
X52225000Y-13675000D01*
G75*
G02*
X52275000Y-13625000I50000J0D01*
G01*
X52975000Y-13625000D01*
G75*
G02*
X53025000Y-13675000I0J-50000D01*
G01*
X53025000Y-13925000D01*
G75*
G02*
X52975000Y-13975000I-50000J0D01*
G01*
X52275000Y-13975000D01*
G75*
G02*
X52225000Y-13925000I0J50000D01*
G01*
G37*
G36*
G01*
X52225000Y-14425000D02*
X52225000Y-14175000D01*
G75*
G02*
X52275000Y-14125000I50000J0D01*
G01*
X52975000Y-14125000D01*
G75*
G02*
X53025000Y-14175000I0J-50000D01*
G01*
X53025000Y-14425000D01*
G75*
G02*
X52975000Y-14475000I-50000J0D01*
G01*
X52275000Y-14475000D01*
G75*
G02*
X52225000Y-14425000I0J50000D01*
G01*
G37*
G36*
G01*
X52225000Y-14925000D02*
X52225000Y-14675000D01*
G75*
G02*
X52275000Y-14625000I50000J0D01*
G01*
X52975000Y-14625000D01*
G75*
G02*
X53025000Y-14675000I0J-50000D01*
G01*
X53025000Y-14925000D01*
G75*
G02*
X52975000Y-14975000I-50000J0D01*
G01*
X52275000Y-14975000D01*
G75*
G02*
X52225000Y-14925000I0J50000D01*
G01*
G37*
G36*
G01*
X52225000Y-15425000D02*
X52225000Y-15175000D01*
G75*
G02*
X52275000Y-15125000I50000J0D01*
G01*
X52975000Y-15125000D01*
G75*
G02*
X53025000Y-15175000I0J-50000D01*
G01*
X53025000Y-15425000D01*
G75*
G02*
X52975000Y-15475000I-50000J0D01*
G01*
X52275000Y-15475000D01*
G75*
G02*
X52225000Y-15425000I0J50000D01*
G01*
G37*
G36*
G01*
X55075000Y-15425000D02*
X55075000Y-15175000D01*
G75*
G02*
X55125000Y-15125000I50000J0D01*
G01*
X55825000Y-15125000D01*
G75*
G02*
X55875000Y-15175000I0J-50000D01*
G01*
X55875000Y-15425000D01*
G75*
G02*
X55825000Y-15475000I-50000J0D01*
G01*
X55125000Y-15475000D01*
G75*
G02*
X55075000Y-15425000I0J50000D01*
G01*
G37*
G36*
G01*
X55075000Y-14925000D02*
X55075000Y-14675000D01*
G75*
G02*
X55125000Y-14625000I50000J0D01*
G01*
X55825000Y-14625000D01*
G75*
G02*
X55875000Y-14675000I0J-50000D01*
G01*
X55875000Y-14925000D01*
G75*
G02*
X55825000Y-14975000I-50000J0D01*
G01*
X55125000Y-14975000D01*
G75*
G02*
X55075000Y-14925000I0J50000D01*
G01*
G37*
G36*
G01*
X55075000Y-14425000D02*
X55075000Y-14175000D01*
G75*
G02*
X55125000Y-14125000I50000J0D01*
G01*
X55825000Y-14125000D01*
G75*
G02*
X55875000Y-14175000I0J-50000D01*
G01*
X55875000Y-14425000D01*
G75*
G02*
X55825000Y-14475000I-50000J0D01*
G01*
X55125000Y-14475000D01*
G75*
G02*
X55075000Y-14425000I0J50000D01*
G01*
G37*
G36*
G01*
X55075000Y-13925000D02*
X55075000Y-13675000D01*
G75*
G02*
X55125000Y-13625000I50000J0D01*
G01*
X55825000Y-13625000D01*
G75*
G02*
X55875000Y-13675000I0J-50000D01*
G01*
X55875000Y-13925000D01*
G75*
G02*
X55825000Y-13975000I-50000J0D01*
G01*
X55125000Y-13975000D01*
G75*
G02*
X55075000Y-13925000I0J50000D01*
G01*
G37*
G36*
G01*
X55075000Y-13425000D02*
X55075000Y-13175000D01*
G75*
G02*
X55125000Y-13125000I50000J0D01*
G01*
X55825000Y-13125000D01*
G75*
G02*
X55875000Y-13175000I0J-50000D01*
G01*
X55875000Y-13425000D01*
G75*
G02*
X55825000Y-13475000I-50000J0D01*
G01*
X55125000Y-13475000D01*
G75*
G02*
X55075000Y-13425000I0J50000D01*
G01*
G37*
G36*
X54884755Y-13060961D02*
G01*
X54894134Y-13063806D01*
X54902779Y-13068427D01*
X54910355Y-13074645D01*
X54916573Y-13082221D01*
X54921194Y-13090866D01*
X54924039Y-13100245D01*
X54925000Y-13110000D01*
X54925000Y-15490000D01*
X54924039Y-15499755D01*
X54921194Y-15509134D01*
X54916573Y-15517779D01*
X54910355Y-15525355D01*
X54902779Y-15531573D01*
X54894134Y-15536194D01*
X54884755Y-15539039D01*
X54875000Y-15540000D01*
X53225000Y-15540000D01*
X53215245Y-15539039D01*
X53205866Y-15536194D01*
X53197221Y-15531573D01*
X53189645Y-15525355D01*
X53183427Y-15517779D01*
X53178806Y-15509134D01*
X53175961Y-15499755D01*
X53175000Y-15490000D01*
X53175000Y-13486000D01*
X53175961Y-13476245D01*
X53178806Y-13466866D01*
X53183427Y-13458221D01*
X53188402Y-13451933D01*
X53538402Y-13075933D01*
X53545751Y-13069447D01*
X53554225Y-13064520D01*
X53563497Y-13061341D01*
X53575000Y-13060000D01*
X54875000Y-13060000D01*
X54884755Y-13060961D01*
G37*
%TD*%
%TO.C,U3*%
G36*
G01*
X49975000Y-33175000D02*
X49975000Y-32925000D01*
G75*
G02*
X50025000Y-32875000I50000J0D01*
G01*
X50725000Y-32875000D01*
G75*
G02*
X50775000Y-32925000I0J-50000D01*
G01*
X50775000Y-33175000D01*
G75*
G02*
X50725000Y-33225000I-50000J0D01*
G01*
X50025000Y-33225000D01*
G75*
G02*
X49975000Y-33175000I0J50000D01*
G01*
G37*
G36*
G01*
X49975000Y-33675000D02*
X49975000Y-33425000D01*
G75*
G02*
X50025000Y-33375000I50000J0D01*
G01*
X50725000Y-33375000D01*
G75*
G02*
X50775000Y-33425000I0J-50000D01*
G01*
X50775000Y-33675000D01*
G75*
G02*
X50725000Y-33725000I-50000J0D01*
G01*
X50025000Y-33725000D01*
G75*
G02*
X49975000Y-33675000I0J50000D01*
G01*
G37*
G36*
G01*
X49975000Y-34175000D02*
X49975000Y-33925000D01*
G75*
G02*
X50025000Y-33875000I50000J0D01*
G01*
X50725000Y-33875000D01*
G75*
G02*
X50775000Y-33925000I0J-50000D01*
G01*
X50775000Y-34175000D01*
G75*
G02*
X50725000Y-34225000I-50000J0D01*
G01*
X50025000Y-34225000D01*
G75*
G02*
X49975000Y-34175000I0J50000D01*
G01*
G37*
G36*
G01*
X49975000Y-34675000D02*
X49975000Y-34425000D01*
G75*
G02*
X50025000Y-34375000I50000J0D01*
G01*
X50725000Y-34375000D01*
G75*
G02*
X50775000Y-34425000I0J-50000D01*
G01*
X50775000Y-34675000D01*
G75*
G02*
X50725000Y-34725000I-50000J0D01*
G01*
X50025000Y-34725000D01*
G75*
G02*
X49975000Y-34675000I0J50000D01*
G01*
G37*
G36*
G01*
X49975000Y-35175000D02*
X49975000Y-34925000D01*
G75*
G02*
X50025000Y-34875000I50000J0D01*
G01*
X50725000Y-34875000D01*
G75*
G02*
X50775000Y-34925000I0J-50000D01*
G01*
X50775000Y-35175000D01*
G75*
G02*
X50725000Y-35225000I-50000J0D01*
G01*
X50025000Y-35225000D01*
G75*
G02*
X49975000Y-35175000I0J50000D01*
G01*
G37*
G36*
G01*
X52825000Y-35175000D02*
X52825000Y-34925000D01*
G75*
G02*
X52875000Y-34875000I50000J0D01*
G01*
X53575000Y-34875000D01*
G75*
G02*
X53625000Y-34925000I0J-50000D01*
G01*
X53625000Y-35175000D01*
G75*
G02*
X53575000Y-35225000I-50000J0D01*
G01*
X52875000Y-35225000D01*
G75*
G02*
X52825000Y-35175000I0J50000D01*
G01*
G37*
G36*
G01*
X52825000Y-34675000D02*
X52825000Y-34425000D01*
G75*
G02*
X52875000Y-34375000I50000J0D01*
G01*
X53575000Y-34375000D01*
G75*
G02*
X53625000Y-34425000I0J-50000D01*
G01*
X53625000Y-34675000D01*
G75*
G02*
X53575000Y-34725000I-50000J0D01*
G01*
X52875000Y-34725000D01*
G75*
G02*
X52825000Y-34675000I0J50000D01*
G01*
G37*
G36*
G01*
X52825000Y-34175000D02*
X52825000Y-33925000D01*
G75*
G02*
X52875000Y-33875000I50000J0D01*
G01*
X53575000Y-33875000D01*
G75*
G02*
X53625000Y-33925000I0J-50000D01*
G01*
X53625000Y-34175000D01*
G75*
G02*
X53575000Y-34225000I-50000J0D01*
G01*
X52875000Y-34225000D01*
G75*
G02*
X52825000Y-34175000I0J50000D01*
G01*
G37*
G36*
G01*
X52825000Y-33675000D02*
X52825000Y-33425000D01*
G75*
G02*
X52875000Y-33375000I50000J0D01*
G01*
X53575000Y-33375000D01*
G75*
G02*
X53625000Y-33425000I0J-50000D01*
G01*
X53625000Y-33675000D01*
G75*
G02*
X53575000Y-33725000I-50000J0D01*
G01*
X52875000Y-33725000D01*
G75*
G02*
X52825000Y-33675000I0J50000D01*
G01*
G37*
G36*
G01*
X52825000Y-33175000D02*
X52825000Y-32925000D01*
G75*
G02*
X52875000Y-32875000I50000J0D01*
G01*
X53575000Y-32875000D01*
G75*
G02*
X53625000Y-32925000I0J-50000D01*
G01*
X53625000Y-33175000D01*
G75*
G02*
X53575000Y-33225000I-50000J0D01*
G01*
X52875000Y-33225000D01*
G75*
G02*
X52825000Y-33175000I0J50000D01*
G01*
G37*
G36*
X52634755Y-32810961D02*
G01*
X52644134Y-32813806D01*
X52652779Y-32818427D01*
X52660355Y-32824645D01*
X52666573Y-32832221D01*
X52671194Y-32840866D01*
X52674039Y-32850245D01*
X52675000Y-32860000D01*
X52675000Y-35240000D01*
X52674039Y-35249755D01*
X52671194Y-35259134D01*
X52666573Y-35267779D01*
X52660355Y-35275355D01*
X52652779Y-35281573D01*
X52644134Y-35286194D01*
X52634755Y-35289039D01*
X52625000Y-35290000D01*
X50975000Y-35290000D01*
X50965245Y-35289039D01*
X50955866Y-35286194D01*
X50947221Y-35281573D01*
X50939645Y-35275355D01*
X50933427Y-35267779D01*
X50928806Y-35259134D01*
X50925961Y-35249755D01*
X50925000Y-35240000D01*
X50925000Y-33236000D01*
X50925961Y-33226245D01*
X50928806Y-33216866D01*
X50933427Y-33208221D01*
X50938402Y-33201933D01*
X51288402Y-32825933D01*
X51295751Y-32819447D01*
X51304225Y-32814520D01*
X51313497Y-32811341D01*
X51325000Y-32810000D01*
X52625000Y-32810000D01*
X52634755Y-32810961D01*
G37*
%TD*%
%TO.C,C2*%
G36*
G01*
X61100000Y-26986112D02*
X61100000Y-22013888D01*
G75*
G02*
X61363888Y-21750000I263888J0D01*
G01*
X62736112Y-21750000D01*
G75*
G02*
X63000000Y-22013888I0J-263888D01*
G01*
X63000000Y-26986112D01*
G75*
G02*
X62736112Y-27250000I-263888J0D01*
G01*
X61363888Y-27250000D01*
G75*
G02*
X61100000Y-26986112I0J263888D01*
G01*
G37*
G36*
G01*
X56000000Y-26986112D02*
X56000000Y-22013888D01*
G75*
G02*
X56263888Y-21750000I263888J0D01*
G01*
X57636112Y-21750000D01*
G75*
G02*
X57900000Y-22013888I0J-263888D01*
G01*
X57900000Y-26986112D01*
G75*
G02*
X57636112Y-27250000I-263888J0D01*
G01*
X56263888Y-27250000D01*
G75*
G02*
X56000000Y-26986112I0J263888D01*
G01*
G37*
%TD*%
%TO.C,C1*%
G36*
G01*
X8637048Y-26687500D02*
X10762952Y-26687500D01*
G75*
G02*
X11025000Y-26949548I0J-262048D01*
G01*
X11025000Y-28600452D01*
G75*
G02*
X10762952Y-28862500I-262048J0D01*
G01*
X8637048Y-28862500D01*
G75*
G02*
X8375000Y-28600452I0J262048D01*
G01*
X8375000Y-26949548D01*
G75*
G02*
X8637048Y-26687500I262048J0D01*
G01*
G37*
G36*
G01*
X8637048Y-32912500D02*
X10762952Y-32912500D01*
G75*
G02*
X11025000Y-33174548I0J-262048D01*
G01*
X11025000Y-34825452D01*
G75*
G02*
X10762952Y-35087500I-262048J0D01*
G01*
X8637048Y-35087500D01*
G75*
G02*
X8375000Y-34825452I0J262048D01*
G01*
X8375000Y-33174548D01*
G75*
G02*
X8637048Y-32912500I262048J0D01*
G01*
G37*
%TD*%
%TO.C,C10*%
G36*
G01*
X10281250Y-23475000D02*
X9318750Y-23475000D01*
G75*
G02*
X9050000Y-23206250I0J268750D01*
G01*
X9050000Y-22668750D01*
G75*
G02*
X9318750Y-22400000I268750J0D01*
G01*
X10281250Y-22400000D01*
G75*
G02*
X10550000Y-22668750I0J-268750D01*
G01*
X10550000Y-23206250D01*
G75*
G02*
X10281250Y-23475000I-268750J0D01*
G01*
G37*
G36*
G01*
X10281250Y-21600000D02*
X9318750Y-21600000D01*
G75*
G02*
X9050000Y-21331250I0J268750D01*
G01*
X9050000Y-20793750D01*
G75*
G02*
X9318750Y-20525000I268750J0D01*
G01*
X10281250Y-20525000D01*
G75*
G02*
X10550000Y-20793750I0J-268750D01*
G01*
X10550000Y-21331250D01*
G75*
G02*
X10281250Y-21600000I-268750J0D01*
G01*
G37*
%TD*%
%TO.C,R1*%
G36*
G01*
X49081250Y-25012500D02*
X48518750Y-25012500D01*
G75*
G02*
X48275000Y-24768750I0J243750D01*
G01*
X48275000Y-24281250D01*
G75*
G02*
X48518750Y-24037500I243750J0D01*
G01*
X49081250Y-24037500D01*
G75*
G02*
X49325000Y-24281250I0J-243750D01*
G01*
X49325000Y-24768750D01*
G75*
G02*
X49081250Y-25012500I-243750J0D01*
G01*
G37*
G36*
G01*
X49081250Y-23437500D02*
X48518750Y-23437500D01*
G75*
G02*
X48275000Y-23193750I0J243750D01*
G01*
X48275000Y-22706250D01*
G75*
G02*
X48518750Y-22462500I243750J0D01*
G01*
X49081250Y-22462500D01*
G75*
G02*
X49325000Y-22706250I0J-243750D01*
G01*
X49325000Y-23193750D01*
G75*
G02*
X49081250Y-23437500I-243750J0D01*
G01*
G37*
%TD*%
%TO.C,C4*%
G36*
G01*
X56725000Y-15481250D02*
X56725000Y-14518750D01*
G75*
G02*
X56993750Y-14250000I268750J0D01*
G01*
X57531250Y-14250000D01*
G75*
G02*
X57800000Y-14518750I0J-268750D01*
G01*
X57800000Y-15481250D01*
G75*
G02*
X57531250Y-15750000I-268750J0D01*
G01*
X56993750Y-15750000D01*
G75*
G02*
X56725000Y-15481250I0J268750D01*
G01*
G37*
G36*
G01*
X58600000Y-15481250D02*
X58600000Y-14518750D01*
G75*
G02*
X58868750Y-14250000I268750J0D01*
G01*
X59406250Y-14250000D01*
G75*
G02*
X59675000Y-14518750I0J-268750D01*
G01*
X59675000Y-15481250D01*
G75*
G02*
X59406250Y-15750000I-268750J0D01*
G01*
X58868750Y-15750000D01*
G75*
G02*
X58600000Y-15481250I0J268750D01*
G01*
G37*
%TD*%
%TO.C,C5*%
G36*
G01*
X56400000Y-35281250D02*
X56400000Y-34318750D01*
G75*
G02*
X56668750Y-34050000I268750J0D01*
G01*
X57206250Y-34050000D01*
G75*
G02*
X57475000Y-34318750I0J-268750D01*
G01*
X57475000Y-35281250D01*
G75*
G02*
X57206250Y-35550000I-268750J0D01*
G01*
X56668750Y-35550000D01*
G75*
G02*
X56400000Y-35281250I0J268750D01*
G01*
G37*
G36*
G01*
X54525000Y-35281250D02*
X54525000Y-34318750D01*
G75*
G02*
X54793750Y-34050000I268750J0D01*
G01*
X55331250Y-34050000D01*
G75*
G02*
X55600000Y-34318750I0J-268750D01*
G01*
X55600000Y-35281250D01*
G75*
G02*
X55331250Y-35550000I-268750J0D01*
G01*
X54793750Y-35550000D01*
G75*
G02*
X54525000Y-35281250I0J268750D01*
G01*
G37*
%TD*%
%TO.C,C6*%
G36*
G01*
X57418750Y-27825000D02*
X58381250Y-27825000D01*
G75*
G02*
X58650000Y-28093750I0J-268750D01*
G01*
X58650000Y-28631250D01*
G75*
G02*
X58381250Y-28900000I-268750J0D01*
G01*
X57418750Y-28900000D01*
G75*
G02*
X57150000Y-28631250I0J268750D01*
G01*
X57150000Y-28093750D01*
G75*
G02*
X57418750Y-27825000I268750J0D01*
G01*
G37*
G36*
G01*
X57418750Y-29700000D02*
X58381250Y-29700000D01*
G75*
G02*
X58650000Y-29968750I0J-268750D01*
G01*
X58650000Y-30506250D01*
G75*
G02*
X58381250Y-30775000I-268750J0D01*
G01*
X57418750Y-30775000D01*
G75*
G02*
X57150000Y-30506250I0J268750D01*
G01*
X57150000Y-29968750D01*
G75*
G02*
X57418750Y-29700000I268750J0D01*
G01*
G37*
%TD*%
%TO.C,C11*%
G36*
G01*
X58462500Y-44581250D02*
X58462500Y-43618750D01*
G75*
G02*
X58731250Y-43350000I268750J0D01*
G01*
X59268750Y-43350000D01*
G75*
G02*
X59537500Y-43618750I0J-268750D01*
G01*
X59537500Y-44581250D01*
G75*
G02*
X59268750Y-44850000I-268750J0D01*
G01*
X58731250Y-44850000D01*
G75*
G02*
X58462500Y-44581250I0J268750D01*
G01*
G37*
G36*
G01*
X56587500Y-44581250D02*
X56587500Y-43618750D01*
G75*
G02*
X56856250Y-43350000I268750J0D01*
G01*
X57393750Y-43350000D01*
G75*
G02*
X57662500Y-43618750I0J-268750D01*
G01*
X57662500Y-44581250D01*
G75*
G02*
X57393750Y-44850000I-268750J0D01*
G01*
X56856250Y-44850000D01*
G75*
G02*
X56587500Y-44581250I0J268750D01*
G01*
G37*
%TD*%
M02*
