%TF.GenerationSoftware,KiCad,Pcbnew,5.1.7*%
%TF.CreationDate,2020-12-15T22:06:53+00:00*%
%TF.ProjectId,LT3045-4,4c543330-3435-42d3-942e-6b696361645f,rev?*%
%TF.SameCoordinates,Original*%
%TF.FileFunction,Soldermask,Top*%
%TF.FilePolarity,Negative*%
%FSLAX46Y46*%
G04 Gerber Fmt 4.6, Leading zero omitted, Abs format (unit mm)*
G04 Created by KiCad (PCBNEW 5.1.7) date 2020-12-15 22:06:53*
%MOMM*%
%LPD*%
G01*
G04 APERTURE LIST*
%ADD10C,0.150000*%
%ADD11C,0.100000*%
%ADD12C,3.300000*%
G04 APERTURE END LIST*
D10*
X87920156Y-20600000D02*
G75*
G03*
X87920156Y-20600000I-320156J0D01*
G01*
X87780278Y-20600000D02*
G75*
G03*
X87780278Y-20600000I-180278J0D01*
G01*
X60420156Y-39500000D02*
G75*
G03*
X60420156Y-39500000I-320156J0D01*
G01*
X60280278Y-39500000D02*
G75*
G03*
X60280278Y-39500000I-180278J0D01*
G01*
X58120156Y-28950000D02*
G75*
G03*
X58120156Y-28950000I-320156J0D01*
G01*
X57980278Y-28950000D02*
G75*
G03*
X57980278Y-28950000I-180278J0D01*
G01*
X63320156Y-5400000D02*
G75*
G03*
X63320156Y-5400000I-320156J0D01*
G01*
X63180278Y-5400000D02*
G75*
G03*
X63180278Y-5400000I-180278J0D01*
G01*
X59020156Y-15450000D02*
G75*
G03*
X59020156Y-15450000I-320156J0D01*
G01*
X58880278Y-15450000D02*
G75*
G03*
X58880278Y-15450000I-180278J0D01*
G01*
X87823607Y-29500000D02*
G75*
G03*
X87823607Y-29500000I-223607J0D01*
G01*
X87023607Y-27000000D02*
G75*
G03*
X87023607Y-27000000I-223607J0D01*
G01*
X87000000Y-23000000D02*
G75*
G03*
X87000000Y-23000000I-200000J0D01*
G01*
X87082843Y-23000000D02*
G75*
G03*
X87082843Y-23000000I-282843J0D01*
G01*
X87100000Y-27000000D02*
G75*
G03*
X87100000Y-27000000I-300000J0D01*
G01*
X87882843Y-29500000D02*
G75*
G03*
X87882843Y-29500000I-282843J0D01*
G01*
D11*
G36*
X43300000Y-49500000D02*
G01*
X41800000Y-49500000D01*
X41800000Y-500000D01*
X43300000Y-500000D01*
X43300000Y-49500000D01*
G37*
X43300000Y-49500000D02*
X41800000Y-49500000D01*
X41800000Y-500000D01*
X43300000Y-500000D01*
X43300000Y-49500000D01*
G36*
X65600000Y-49500000D02*
G01*
X64100000Y-49500000D01*
X64100000Y-500000D01*
X65600000Y-500000D01*
X65600000Y-49500000D01*
G37*
X65600000Y-49500000D02*
X64100000Y-49500000D01*
X64100000Y-500000D01*
X65600000Y-500000D01*
X65600000Y-49500000D01*
G36*
X2000000Y-49500000D02*
G01*
X500000Y-49500000D01*
X500000Y-500000D01*
X2000000Y-500000D01*
X2000000Y-49500000D01*
G37*
X2000000Y-49500000D02*
X500000Y-49500000D01*
X500000Y-500000D01*
X2000000Y-500000D01*
X2000000Y-49500000D01*
G36*
X99500000Y-49500000D02*
G01*
X98000000Y-49500000D01*
X98000000Y-500000D01*
X99500000Y-500000D01*
X99500000Y-49500000D01*
G37*
X99500000Y-49500000D02*
X98000000Y-49500000D01*
X98000000Y-500000D01*
X99500000Y-500000D01*
X99500000Y-49500000D01*
G36*
X99500000Y-49500000D02*
G01*
X500000Y-49500000D01*
X500000Y-48000000D01*
X99500000Y-48000000D01*
X99500000Y-49500000D01*
G37*
X99500000Y-49500000D02*
X500000Y-49500000D01*
X500000Y-48000000D01*
X99500000Y-48000000D01*
X99500000Y-49500000D01*
G36*
X99500000Y-2000000D02*
G01*
X500000Y-2000000D01*
X500000Y-500000D01*
X99500000Y-500000D01*
X99500000Y-2000000D01*
G37*
X99500000Y-2000000D02*
X500000Y-2000000D01*
X500000Y-500000D01*
X99500000Y-500000D01*
X99500000Y-2000000D01*
%TO.C,C7*%
G36*
G01*
X58975000Y-5675000D02*
X58975000Y-5195000D01*
G75*
G02*
X59135000Y-5035000I160000J0D01*
G01*
X60165000Y-5035000D01*
G75*
G02*
X60325000Y-5195000I0J-160000D01*
G01*
X60325000Y-5675000D01*
G75*
G02*
X60165000Y-5835000I-160000J0D01*
G01*
X59135000Y-5835000D01*
G75*
G02*
X58975000Y-5675000I0J160000D01*
G01*
G37*
G36*
G01*
X58975000Y-6655000D02*
X58975000Y-6175000D01*
G75*
G02*
X59135000Y-6015000I160000J0D01*
G01*
X60165000Y-6015000D01*
G75*
G02*
X60325000Y-6175000I0J-160000D01*
G01*
X60325000Y-6655000D01*
G75*
G02*
X60165000Y-6815000I-160000J0D01*
G01*
X59135000Y-6815000D01*
G75*
G02*
X58975000Y-6655000I0J160000D01*
G01*
G37*
G36*
G01*
X56175000Y-5675000D02*
X56175000Y-5195000D01*
G75*
G02*
X56335000Y-5035000I160000J0D01*
G01*
X57365000Y-5035000D01*
G75*
G02*
X57525000Y-5195000I0J-160000D01*
G01*
X57525000Y-5675000D01*
G75*
G02*
X57365000Y-5835000I-160000J0D01*
G01*
X56335000Y-5835000D01*
G75*
G02*
X56175000Y-5675000I0J160000D01*
G01*
G37*
G36*
G01*
X56175000Y-6655000D02*
X56175000Y-6175000D01*
G75*
G02*
X56335000Y-6015000I160000J0D01*
G01*
X57365000Y-6015000D01*
G75*
G02*
X57525000Y-6175000I0J-160000D01*
G01*
X57525000Y-6655000D01*
G75*
G02*
X57365000Y-6815000I-160000J0D01*
G01*
X56335000Y-6815000D01*
G75*
G02*
X56175000Y-6655000I0J160000D01*
G01*
G37*
%TD*%
%TO.C,C3*%
G36*
G01*
X54525000Y-15725000D02*
X54525000Y-15245000D01*
G75*
G02*
X54685000Y-15085000I160000J0D01*
G01*
X55715000Y-15085000D01*
G75*
G02*
X55875000Y-15245000I0J-160000D01*
G01*
X55875000Y-15725000D01*
G75*
G02*
X55715000Y-15885000I-160000J0D01*
G01*
X54685000Y-15885000D01*
G75*
G02*
X54525000Y-15725000I0J160000D01*
G01*
G37*
G36*
G01*
X54525000Y-16705000D02*
X54525000Y-16225000D01*
G75*
G02*
X54685000Y-16065000I160000J0D01*
G01*
X55715000Y-16065000D01*
G75*
G02*
X55875000Y-16225000I0J-160000D01*
G01*
X55875000Y-16705000D01*
G75*
G02*
X55715000Y-16865000I-160000J0D01*
G01*
X54685000Y-16865000D01*
G75*
G02*
X54525000Y-16705000I0J160000D01*
G01*
G37*
G36*
G01*
X51725000Y-15725000D02*
X51725000Y-15245000D01*
G75*
G02*
X51885000Y-15085000I160000J0D01*
G01*
X52915000Y-15085000D01*
G75*
G02*
X53075000Y-15245000I0J-160000D01*
G01*
X53075000Y-15725000D01*
G75*
G02*
X52915000Y-15885000I-160000J0D01*
G01*
X51885000Y-15885000D01*
G75*
G02*
X51725000Y-15725000I0J160000D01*
G01*
G37*
G36*
G01*
X51725000Y-16705000D02*
X51725000Y-16225000D01*
G75*
G02*
X51885000Y-16065000I160000J0D01*
G01*
X52915000Y-16065000D01*
G75*
G02*
X53075000Y-16225000I0J-160000D01*
G01*
X53075000Y-16705000D01*
G75*
G02*
X52915000Y-16865000I-160000J0D01*
G01*
X51885000Y-16865000D01*
G75*
G02*
X51725000Y-16705000I0J160000D01*
G01*
G37*
%TD*%
%TO.C,C8*%
G36*
G01*
X53625000Y-29225000D02*
X53625000Y-28745000D01*
G75*
G02*
X53785000Y-28585000I160000J0D01*
G01*
X54815000Y-28585000D01*
G75*
G02*
X54975000Y-28745000I0J-160000D01*
G01*
X54975000Y-29225000D01*
G75*
G02*
X54815000Y-29385000I-160000J0D01*
G01*
X53785000Y-29385000D01*
G75*
G02*
X53625000Y-29225000I0J160000D01*
G01*
G37*
G36*
G01*
X53625000Y-30205000D02*
X53625000Y-29725000D01*
G75*
G02*
X53785000Y-29565000I160000J0D01*
G01*
X54815000Y-29565000D01*
G75*
G02*
X54975000Y-29725000I0J-160000D01*
G01*
X54975000Y-30205000D01*
G75*
G02*
X54815000Y-30365000I-160000J0D01*
G01*
X53785000Y-30365000D01*
G75*
G02*
X53625000Y-30205000I0J160000D01*
G01*
G37*
G36*
G01*
X50825000Y-29225000D02*
X50825000Y-28745000D01*
G75*
G02*
X50985000Y-28585000I160000J0D01*
G01*
X52015000Y-28585000D01*
G75*
G02*
X52175000Y-28745000I0J-160000D01*
G01*
X52175000Y-29225000D01*
G75*
G02*
X52015000Y-29385000I-160000J0D01*
G01*
X50985000Y-29385000D01*
G75*
G02*
X50825000Y-29225000I0J160000D01*
G01*
G37*
G36*
G01*
X50825000Y-30205000D02*
X50825000Y-29725000D01*
G75*
G02*
X50985000Y-29565000I160000J0D01*
G01*
X52015000Y-29565000D01*
G75*
G02*
X52175000Y-29725000I0J-160000D01*
G01*
X52175000Y-30205000D01*
G75*
G02*
X52015000Y-30365000I-160000J0D01*
G01*
X50985000Y-30365000D01*
G75*
G02*
X50825000Y-30205000I0J160000D01*
G01*
G37*
%TD*%
%TO.C,C9*%
G36*
G01*
X53275000Y-40755000D02*
X53275000Y-40275000D01*
G75*
G02*
X53435000Y-40115000I160000J0D01*
G01*
X54465000Y-40115000D01*
G75*
G02*
X54625000Y-40275000I0J-160000D01*
G01*
X54625000Y-40755000D01*
G75*
G02*
X54465000Y-40915000I-160000J0D01*
G01*
X53435000Y-40915000D01*
G75*
G02*
X53275000Y-40755000I0J160000D01*
G01*
G37*
G36*
G01*
X53275000Y-39775000D02*
X53275000Y-39295000D01*
G75*
G02*
X53435000Y-39135000I160000J0D01*
G01*
X54465000Y-39135000D01*
G75*
G02*
X54625000Y-39295000I0J-160000D01*
G01*
X54625000Y-39775000D01*
G75*
G02*
X54465000Y-39935000I-160000J0D01*
G01*
X53435000Y-39935000D01*
G75*
G02*
X53275000Y-39775000I0J160000D01*
G01*
G37*
G36*
G01*
X56075000Y-40755000D02*
X56075000Y-40275000D01*
G75*
G02*
X56235000Y-40115000I160000J0D01*
G01*
X57265000Y-40115000D01*
G75*
G02*
X57425000Y-40275000I0J-160000D01*
G01*
X57425000Y-40755000D01*
G75*
G02*
X57265000Y-40915000I-160000J0D01*
G01*
X56235000Y-40915000D01*
G75*
G02*
X56075000Y-40755000I0J160000D01*
G01*
G37*
G36*
G01*
X56075000Y-39775000D02*
X56075000Y-39295000D01*
G75*
G02*
X56235000Y-39135000I160000J0D01*
G01*
X57265000Y-39135000D01*
G75*
G02*
X57425000Y-39295000I0J-160000D01*
G01*
X57425000Y-39775000D01*
G75*
G02*
X57265000Y-39935000I-160000J0D01*
G01*
X56235000Y-39935000D01*
G75*
G02*
X56075000Y-39775000I0J160000D01*
G01*
G37*
%TD*%
%TO.C,U4*%
G36*
X54884755Y-42060961D02*
G01*
X54894134Y-42063806D01*
X54902779Y-42068427D01*
X54910355Y-42074645D01*
X54916573Y-42082221D01*
X54921194Y-42090866D01*
X54924039Y-42100245D01*
X54925000Y-42110000D01*
X54925000Y-44490000D01*
X54924039Y-44499755D01*
X54921194Y-44509134D01*
X54916573Y-44517779D01*
X54910355Y-44525355D01*
X54902779Y-44531573D01*
X54894134Y-44536194D01*
X54884755Y-44539039D01*
X54875000Y-44540000D01*
X53225000Y-44540000D01*
X53215245Y-44539039D01*
X53205866Y-44536194D01*
X53197221Y-44531573D01*
X53189645Y-44525355D01*
X53183427Y-44517779D01*
X53178806Y-44509134D01*
X53175961Y-44499755D01*
X53175000Y-44490000D01*
X53175000Y-42486000D01*
X53175961Y-42476245D01*
X53178806Y-42466866D01*
X53183427Y-42458221D01*
X53188402Y-42451933D01*
X53538402Y-42075933D01*
X53545751Y-42069447D01*
X53554225Y-42064520D01*
X53563497Y-42061341D01*
X53575000Y-42060000D01*
X54875000Y-42060000D01*
X54884755Y-42060961D01*
G37*
G36*
G01*
X55075000Y-42425000D02*
X55075000Y-42175000D01*
G75*
G02*
X55125000Y-42125000I50000J0D01*
G01*
X55825000Y-42125000D01*
G75*
G02*
X55875000Y-42175000I0J-50000D01*
G01*
X55875000Y-42425000D01*
G75*
G02*
X55825000Y-42475000I-50000J0D01*
G01*
X55125000Y-42475000D01*
G75*
G02*
X55075000Y-42425000I0J50000D01*
G01*
G37*
G36*
G01*
X55075000Y-42925000D02*
X55075000Y-42675000D01*
G75*
G02*
X55125000Y-42625000I50000J0D01*
G01*
X55825000Y-42625000D01*
G75*
G02*
X55875000Y-42675000I0J-50000D01*
G01*
X55875000Y-42925000D01*
G75*
G02*
X55825000Y-42975000I-50000J0D01*
G01*
X55125000Y-42975000D01*
G75*
G02*
X55075000Y-42925000I0J50000D01*
G01*
G37*
G36*
G01*
X55075000Y-43425000D02*
X55075000Y-43175000D01*
G75*
G02*
X55125000Y-43125000I50000J0D01*
G01*
X55825000Y-43125000D01*
G75*
G02*
X55875000Y-43175000I0J-50000D01*
G01*
X55875000Y-43425000D01*
G75*
G02*
X55825000Y-43475000I-50000J0D01*
G01*
X55125000Y-43475000D01*
G75*
G02*
X55075000Y-43425000I0J50000D01*
G01*
G37*
G36*
G01*
X55075000Y-43925000D02*
X55075000Y-43675000D01*
G75*
G02*
X55125000Y-43625000I50000J0D01*
G01*
X55825000Y-43625000D01*
G75*
G02*
X55875000Y-43675000I0J-50000D01*
G01*
X55875000Y-43925000D01*
G75*
G02*
X55825000Y-43975000I-50000J0D01*
G01*
X55125000Y-43975000D01*
G75*
G02*
X55075000Y-43925000I0J50000D01*
G01*
G37*
G36*
G01*
X55075000Y-44425000D02*
X55075000Y-44175000D01*
G75*
G02*
X55125000Y-44125000I50000J0D01*
G01*
X55825000Y-44125000D01*
G75*
G02*
X55875000Y-44175000I0J-50000D01*
G01*
X55875000Y-44425000D01*
G75*
G02*
X55825000Y-44475000I-50000J0D01*
G01*
X55125000Y-44475000D01*
G75*
G02*
X55075000Y-44425000I0J50000D01*
G01*
G37*
G36*
G01*
X52225000Y-44425000D02*
X52225000Y-44175000D01*
G75*
G02*
X52275000Y-44125000I50000J0D01*
G01*
X52975000Y-44125000D01*
G75*
G02*
X53025000Y-44175000I0J-50000D01*
G01*
X53025000Y-44425000D01*
G75*
G02*
X52975000Y-44475000I-50000J0D01*
G01*
X52275000Y-44475000D01*
G75*
G02*
X52225000Y-44425000I0J50000D01*
G01*
G37*
G36*
G01*
X52225000Y-43925000D02*
X52225000Y-43675000D01*
G75*
G02*
X52275000Y-43625000I50000J0D01*
G01*
X52975000Y-43625000D01*
G75*
G02*
X53025000Y-43675000I0J-50000D01*
G01*
X53025000Y-43925000D01*
G75*
G02*
X52975000Y-43975000I-50000J0D01*
G01*
X52275000Y-43975000D01*
G75*
G02*
X52225000Y-43925000I0J50000D01*
G01*
G37*
G36*
G01*
X52225000Y-43425000D02*
X52225000Y-43175000D01*
G75*
G02*
X52275000Y-43125000I50000J0D01*
G01*
X52975000Y-43125000D01*
G75*
G02*
X53025000Y-43175000I0J-50000D01*
G01*
X53025000Y-43425000D01*
G75*
G02*
X52975000Y-43475000I-50000J0D01*
G01*
X52275000Y-43475000D01*
G75*
G02*
X52225000Y-43425000I0J50000D01*
G01*
G37*
G36*
G01*
X52225000Y-42925000D02*
X52225000Y-42675000D01*
G75*
G02*
X52275000Y-42625000I50000J0D01*
G01*
X52975000Y-42625000D01*
G75*
G02*
X53025000Y-42675000I0J-50000D01*
G01*
X53025000Y-42925000D01*
G75*
G02*
X52975000Y-42975000I-50000J0D01*
G01*
X52275000Y-42975000D01*
G75*
G02*
X52225000Y-42925000I0J50000D01*
G01*
G37*
G36*
G01*
X52225000Y-42425000D02*
X52225000Y-42175000D01*
G75*
G02*
X52275000Y-42125000I50000J0D01*
G01*
X52975000Y-42125000D01*
G75*
G02*
X53025000Y-42175000I0J-50000D01*
G01*
X53025000Y-42425000D01*
G75*
G02*
X52975000Y-42475000I-50000J0D01*
G01*
X52275000Y-42475000D01*
G75*
G02*
X52225000Y-42425000I0J50000D01*
G01*
G37*
%TD*%
%TO.C,U1*%
G36*
X53334755Y-18010961D02*
G01*
X53344134Y-18013806D01*
X53352779Y-18018427D01*
X53360355Y-18024645D01*
X53366573Y-18032221D01*
X53371194Y-18040866D01*
X53374039Y-18050245D01*
X53375000Y-18060000D01*
X53375000Y-20440000D01*
X53374039Y-20449755D01*
X53371194Y-20459134D01*
X53366573Y-20467779D01*
X53360355Y-20475355D01*
X53352779Y-20481573D01*
X53344134Y-20486194D01*
X53334755Y-20489039D01*
X53325000Y-20490000D01*
X51675000Y-20490000D01*
X51665245Y-20489039D01*
X51655866Y-20486194D01*
X51647221Y-20481573D01*
X51639645Y-20475355D01*
X51633427Y-20467779D01*
X51628806Y-20459134D01*
X51625961Y-20449755D01*
X51625000Y-20440000D01*
X51625000Y-18436000D01*
X51625961Y-18426245D01*
X51628806Y-18416866D01*
X51633427Y-18408221D01*
X51638402Y-18401933D01*
X51988402Y-18025933D01*
X51995751Y-18019447D01*
X52004225Y-18014520D01*
X52013497Y-18011341D01*
X52025000Y-18010000D01*
X53325000Y-18010000D01*
X53334755Y-18010961D01*
G37*
G36*
G01*
X53525000Y-18375000D02*
X53525000Y-18125000D01*
G75*
G02*
X53575000Y-18075000I50000J0D01*
G01*
X54275000Y-18075000D01*
G75*
G02*
X54325000Y-18125000I0J-50000D01*
G01*
X54325000Y-18375000D01*
G75*
G02*
X54275000Y-18425000I-50000J0D01*
G01*
X53575000Y-18425000D01*
G75*
G02*
X53525000Y-18375000I0J50000D01*
G01*
G37*
G36*
G01*
X53525000Y-18875000D02*
X53525000Y-18625000D01*
G75*
G02*
X53575000Y-18575000I50000J0D01*
G01*
X54275000Y-18575000D01*
G75*
G02*
X54325000Y-18625000I0J-50000D01*
G01*
X54325000Y-18875000D01*
G75*
G02*
X54275000Y-18925000I-50000J0D01*
G01*
X53575000Y-18925000D01*
G75*
G02*
X53525000Y-18875000I0J50000D01*
G01*
G37*
G36*
G01*
X53525000Y-19375000D02*
X53525000Y-19125000D01*
G75*
G02*
X53575000Y-19075000I50000J0D01*
G01*
X54275000Y-19075000D01*
G75*
G02*
X54325000Y-19125000I0J-50000D01*
G01*
X54325000Y-19375000D01*
G75*
G02*
X54275000Y-19425000I-50000J0D01*
G01*
X53575000Y-19425000D01*
G75*
G02*
X53525000Y-19375000I0J50000D01*
G01*
G37*
G36*
G01*
X53525000Y-19875000D02*
X53525000Y-19625000D01*
G75*
G02*
X53575000Y-19575000I50000J0D01*
G01*
X54275000Y-19575000D01*
G75*
G02*
X54325000Y-19625000I0J-50000D01*
G01*
X54325000Y-19875000D01*
G75*
G02*
X54275000Y-19925000I-50000J0D01*
G01*
X53575000Y-19925000D01*
G75*
G02*
X53525000Y-19875000I0J50000D01*
G01*
G37*
G36*
G01*
X53525000Y-20375000D02*
X53525000Y-20125000D01*
G75*
G02*
X53575000Y-20075000I50000J0D01*
G01*
X54275000Y-20075000D01*
G75*
G02*
X54325000Y-20125000I0J-50000D01*
G01*
X54325000Y-20375000D01*
G75*
G02*
X54275000Y-20425000I-50000J0D01*
G01*
X53575000Y-20425000D01*
G75*
G02*
X53525000Y-20375000I0J50000D01*
G01*
G37*
G36*
G01*
X50675000Y-20375000D02*
X50675000Y-20125000D01*
G75*
G02*
X50725000Y-20075000I50000J0D01*
G01*
X51425000Y-20075000D01*
G75*
G02*
X51475000Y-20125000I0J-50000D01*
G01*
X51475000Y-20375000D01*
G75*
G02*
X51425000Y-20425000I-50000J0D01*
G01*
X50725000Y-20425000D01*
G75*
G02*
X50675000Y-20375000I0J50000D01*
G01*
G37*
G36*
G01*
X50675000Y-19875000D02*
X50675000Y-19625000D01*
G75*
G02*
X50725000Y-19575000I50000J0D01*
G01*
X51425000Y-19575000D01*
G75*
G02*
X51475000Y-19625000I0J-50000D01*
G01*
X51475000Y-19875000D01*
G75*
G02*
X51425000Y-19925000I-50000J0D01*
G01*
X50725000Y-19925000D01*
G75*
G02*
X50675000Y-19875000I0J50000D01*
G01*
G37*
G36*
G01*
X50675000Y-19375000D02*
X50675000Y-19125000D01*
G75*
G02*
X50725000Y-19075000I50000J0D01*
G01*
X51425000Y-19075000D01*
G75*
G02*
X51475000Y-19125000I0J-50000D01*
G01*
X51475000Y-19375000D01*
G75*
G02*
X51425000Y-19425000I-50000J0D01*
G01*
X50725000Y-19425000D01*
G75*
G02*
X50675000Y-19375000I0J50000D01*
G01*
G37*
G36*
G01*
X50675000Y-18875000D02*
X50675000Y-18625000D01*
G75*
G02*
X50725000Y-18575000I50000J0D01*
G01*
X51425000Y-18575000D01*
G75*
G02*
X51475000Y-18625000I0J-50000D01*
G01*
X51475000Y-18875000D01*
G75*
G02*
X51425000Y-18925000I-50000J0D01*
G01*
X50725000Y-18925000D01*
G75*
G02*
X50675000Y-18875000I0J50000D01*
G01*
G37*
G36*
G01*
X50675000Y-18375000D02*
X50675000Y-18125000D01*
G75*
G02*
X50725000Y-18075000I50000J0D01*
G01*
X51425000Y-18075000D01*
G75*
G02*
X51475000Y-18125000I0J-50000D01*
G01*
X51475000Y-18375000D01*
G75*
G02*
X51425000Y-18425000I-50000J0D01*
G01*
X50725000Y-18425000D01*
G75*
G02*
X50675000Y-18375000I0J50000D01*
G01*
G37*
%TD*%
%TO.C,J1*%
G36*
G01*
X460000Y-19950000D02*
X5540000Y-19950000D01*
G75*
G02*
X5590000Y-20000000I0J-50000D01*
G01*
X5590000Y-21500000D01*
G75*
G02*
X5540000Y-21550000I-50000J0D01*
G01*
X460000Y-21550000D01*
G75*
G02*
X410000Y-21500000I0J50000D01*
G01*
X410000Y-20000000D01*
G75*
G02*
X460000Y-19950000I50000J0D01*
G01*
G37*
G36*
G01*
X460000Y-28450000D02*
X5540000Y-28450000D01*
G75*
G02*
X5590000Y-28500000I0J-50000D01*
G01*
X5590000Y-30000000D01*
G75*
G02*
X5540000Y-30050000I-50000J0D01*
G01*
X460000Y-30050000D01*
G75*
G02*
X410000Y-30000000I0J50000D01*
G01*
X410000Y-28500000D01*
G75*
G02*
X460000Y-28450000I50000J0D01*
G01*
G37*
G36*
G01*
X460000Y-24200000D02*
X5540000Y-24200000D01*
G75*
G02*
X5590000Y-24250000I0J-50000D01*
G01*
X5590000Y-25750000D01*
G75*
G02*
X5540000Y-25800000I-50000J0D01*
G01*
X460000Y-25800000D01*
G75*
G02*
X410000Y-25750000I0J50000D01*
G01*
X410000Y-24250000D01*
G75*
G02*
X460000Y-24200000I50000J0D01*
G01*
G37*
%TD*%
%TO.C,J2*%
G36*
G01*
X99540000Y-25800000D02*
X94460000Y-25800000D01*
G75*
G02*
X94410000Y-25750000I0J50000D01*
G01*
X94410000Y-24250000D01*
G75*
G02*
X94460000Y-24200000I50000J0D01*
G01*
X99540000Y-24200000D01*
G75*
G02*
X99590000Y-24250000I0J-50000D01*
G01*
X99590000Y-25750000D01*
G75*
G02*
X99540000Y-25800000I-50000J0D01*
G01*
G37*
G36*
G01*
X99540000Y-21550000D02*
X94460000Y-21550000D01*
G75*
G02*
X94410000Y-21500000I0J50000D01*
G01*
X94410000Y-20000000D01*
G75*
G02*
X94460000Y-19950000I50000J0D01*
G01*
X99540000Y-19950000D01*
G75*
G02*
X99590000Y-20000000I0J-50000D01*
G01*
X99590000Y-21500000D01*
G75*
G02*
X99540000Y-21550000I-50000J0D01*
G01*
G37*
G36*
G01*
X99540000Y-30050000D02*
X94460000Y-30050000D01*
G75*
G02*
X94410000Y-30000000I0J50000D01*
G01*
X94410000Y-28500000D01*
G75*
G02*
X94460000Y-28450000I50000J0D01*
G01*
X99540000Y-28450000D01*
G75*
G02*
X99590000Y-28500000I0J-50000D01*
G01*
X99590000Y-30000000D01*
G75*
G02*
X99540000Y-30050000I-50000J0D01*
G01*
G37*
%TD*%
%TO.C,L2*%
G36*
G01*
X23075000Y-24345000D02*
X23075000Y-25655000D01*
G75*
G02*
X22805000Y-25925000I-270000J0D01*
G01*
X21995000Y-25925000D01*
G75*
G02*
X21725000Y-25655000I0J270000D01*
G01*
X21725000Y-24345000D01*
G75*
G02*
X21995000Y-24075000I270000J0D01*
G01*
X22805000Y-24075000D01*
G75*
G02*
X23075000Y-24345000I0J-270000D01*
G01*
G37*
G36*
G01*
X20275000Y-24345000D02*
X20275000Y-25655000D01*
G75*
G02*
X20005000Y-25925000I-270000J0D01*
G01*
X19195000Y-25925000D01*
G75*
G02*
X18925000Y-25655000I0J270000D01*
G01*
X18925000Y-24345000D01*
G75*
G02*
X19195000Y-24075000I270000J0D01*
G01*
X20005000Y-24075000D01*
G75*
G02*
X20275000Y-24345000I0J-270000D01*
G01*
G37*
%TD*%
%TO.C,Rset1*%
G36*
G01*
X57687500Y-18381250D02*
X57687500Y-17818750D01*
G75*
G02*
X57931250Y-17575000I243750J0D01*
G01*
X58418750Y-17575000D01*
G75*
G02*
X58662500Y-17818750I0J-243750D01*
G01*
X58662500Y-18381250D01*
G75*
G02*
X58418750Y-18625000I-243750J0D01*
G01*
X57931250Y-18625000D01*
G75*
G02*
X57687500Y-18381250I0J243750D01*
G01*
G37*
G36*
G01*
X56112500Y-18381250D02*
X56112500Y-17818750D01*
G75*
G02*
X56356250Y-17575000I243750J0D01*
G01*
X56843750Y-17575000D01*
G75*
G02*
X57087500Y-17818750I0J-243750D01*
G01*
X57087500Y-18381250D01*
G75*
G02*
X56843750Y-18625000I-243750J0D01*
G01*
X56356250Y-18625000D01*
G75*
G02*
X56112500Y-18381250I0J243750D01*
G01*
G37*
%TD*%
%TO.C,RIlim2*%
G36*
G01*
X49887500Y-21618750D02*
X49887500Y-22181250D01*
G75*
G02*
X49643750Y-22425000I-243750J0D01*
G01*
X49156250Y-22425000D01*
G75*
G02*
X48912500Y-22181250I0J243750D01*
G01*
X48912500Y-21618750D01*
G75*
G02*
X49156250Y-21375000I243750J0D01*
G01*
X49643750Y-21375000D01*
G75*
G02*
X49887500Y-21618750I0J-243750D01*
G01*
G37*
G36*
G01*
X48312500Y-21618750D02*
X48312500Y-22181250D01*
G75*
G02*
X48068750Y-22425000I-243750J0D01*
G01*
X47581250Y-22425000D01*
G75*
G02*
X47337500Y-22181250I0J243750D01*
G01*
X47337500Y-21618750D01*
G75*
G02*
X47581250Y-21375000I243750J0D01*
G01*
X48068750Y-21375000D01*
G75*
G02*
X48312500Y-21618750I0J-243750D01*
G01*
G37*
%TD*%
%TO.C,R5*%
G36*
G01*
X85737500Y-24718750D02*
X85737500Y-25281250D01*
G75*
G02*
X85493750Y-25525000I-243750J0D01*
G01*
X85006250Y-25525000D01*
G75*
G02*
X84762500Y-25281250I0J243750D01*
G01*
X84762500Y-24718750D01*
G75*
G02*
X85006250Y-24475000I243750J0D01*
G01*
X85493750Y-24475000D01*
G75*
G02*
X85737500Y-24718750I0J-243750D01*
G01*
G37*
G36*
G01*
X87312500Y-24718750D02*
X87312500Y-25281250D01*
G75*
G02*
X87068750Y-25525000I-243750J0D01*
G01*
X86581250Y-25525000D01*
G75*
G02*
X86337500Y-25281250I0J243750D01*
G01*
X86337500Y-24718750D01*
G75*
G02*
X86581250Y-24475000I243750J0D01*
G01*
X87068750Y-24475000D01*
G75*
G02*
X87312500Y-24718750I0J-243750D01*
G01*
G37*
%TD*%
%TO.C,R6*%
G36*
G01*
X83787500Y-24718750D02*
X83787500Y-25281250D01*
G75*
G02*
X83543750Y-25525000I-243750J0D01*
G01*
X83056250Y-25525000D01*
G75*
G02*
X82812500Y-25281250I0J243750D01*
G01*
X82812500Y-24718750D01*
G75*
G02*
X83056250Y-24475000I243750J0D01*
G01*
X83543750Y-24475000D01*
G75*
G02*
X83787500Y-24718750I0J-243750D01*
G01*
G37*
G36*
G01*
X82212500Y-24718750D02*
X82212500Y-25281250D01*
G75*
G02*
X81968750Y-25525000I-243750J0D01*
G01*
X81481250Y-25525000D01*
G75*
G02*
X81237500Y-25281250I0J243750D01*
G01*
X81237500Y-24718750D01*
G75*
G02*
X81481250Y-24475000I243750J0D01*
G01*
X81968750Y-24475000D01*
G75*
G02*
X82212500Y-24718750I0J-243750D01*
G01*
G37*
%TD*%
%TO.C,RIlim1*%
G36*
G01*
X54387500Y-9918750D02*
X54387500Y-10481250D01*
G75*
G02*
X54143750Y-10725000I-243750J0D01*
G01*
X53656250Y-10725000D01*
G75*
G02*
X53412500Y-10481250I0J243750D01*
G01*
X53412500Y-9918750D01*
G75*
G02*
X53656250Y-9675000I243750J0D01*
G01*
X54143750Y-9675000D01*
G75*
G02*
X54387500Y-9918750I0J-243750D01*
G01*
G37*
G36*
G01*
X52812500Y-9918750D02*
X52812500Y-10481250D01*
G75*
G02*
X52568750Y-10725000I-243750J0D01*
G01*
X52081250Y-10725000D01*
G75*
G02*
X51837500Y-10481250I0J243750D01*
G01*
X51837500Y-9918750D01*
G75*
G02*
X52081250Y-9675000I243750J0D01*
G01*
X52568750Y-9675000D01*
G75*
G02*
X52812500Y-9918750I0J-243750D01*
G01*
G37*
%TD*%
%TO.C,RIlim3*%
G36*
G01*
X47412500Y-33518750D02*
X47412500Y-34081250D01*
G75*
G02*
X47168750Y-34325000I-243750J0D01*
G01*
X46681250Y-34325000D01*
G75*
G02*
X46437500Y-34081250I0J243750D01*
G01*
X46437500Y-33518750D01*
G75*
G02*
X46681250Y-33275000I243750J0D01*
G01*
X47168750Y-33275000D01*
G75*
G02*
X47412500Y-33518750I0J-243750D01*
G01*
G37*
G36*
G01*
X48987500Y-33518750D02*
X48987500Y-34081250D01*
G75*
G02*
X48743750Y-34325000I-243750J0D01*
G01*
X48256250Y-34325000D01*
G75*
G02*
X48012500Y-34081250I0J243750D01*
G01*
X48012500Y-33518750D01*
G75*
G02*
X48256250Y-33275000I243750J0D01*
G01*
X48743750Y-33275000D01*
G75*
G02*
X48987500Y-33518750I0J-243750D01*
G01*
G37*
%TD*%
%TO.C,RIlim4*%
G36*
G01*
X49912500Y-44018750D02*
X49912500Y-44581250D01*
G75*
G02*
X49668750Y-44825000I-243750J0D01*
G01*
X49181250Y-44825000D01*
G75*
G02*
X48937500Y-44581250I0J243750D01*
G01*
X48937500Y-44018750D01*
G75*
G02*
X49181250Y-43775000I243750J0D01*
G01*
X49668750Y-43775000D01*
G75*
G02*
X49912500Y-44018750I0J-243750D01*
G01*
G37*
G36*
G01*
X51487500Y-44018750D02*
X51487500Y-44581250D01*
G75*
G02*
X51243750Y-44825000I-243750J0D01*
G01*
X50756250Y-44825000D01*
G75*
G02*
X50512500Y-44581250I0J243750D01*
G01*
X50512500Y-44018750D01*
G75*
G02*
X50756250Y-43775000I243750J0D01*
G01*
X51243750Y-43775000D01*
G75*
G02*
X51487500Y-44018750I0J-243750D01*
G01*
G37*
%TD*%
%TO.C,U2*%
G36*
G01*
X55125000Y-8325000D02*
X55125000Y-8075000D01*
G75*
G02*
X55175000Y-8025000I50000J0D01*
G01*
X55875000Y-8025000D01*
G75*
G02*
X55925000Y-8075000I0J-50000D01*
G01*
X55925000Y-8325000D01*
G75*
G02*
X55875000Y-8375000I-50000J0D01*
G01*
X55175000Y-8375000D01*
G75*
G02*
X55125000Y-8325000I0J50000D01*
G01*
G37*
G36*
G01*
X55125000Y-8825000D02*
X55125000Y-8575000D01*
G75*
G02*
X55175000Y-8525000I50000J0D01*
G01*
X55875000Y-8525000D01*
G75*
G02*
X55925000Y-8575000I0J-50000D01*
G01*
X55925000Y-8825000D01*
G75*
G02*
X55875000Y-8875000I-50000J0D01*
G01*
X55175000Y-8875000D01*
G75*
G02*
X55125000Y-8825000I0J50000D01*
G01*
G37*
G36*
G01*
X55125000Y-9325000D02*
X55125000Y-9075000D01*
G75*
G02*
X55175000Y-9025000I50000J0D01*
G01*
X55875000Y-9025000D01*
G75*
G02*
X55925000Y-9075000I0J-50000D01*
G01*
X55925000Y-9325000D01*
G75*
G02*
X55875000Y-9375000I-50000J0D01*
G01*
X55175000Y-9375000D01*
G75*
G02*
X55125000Y-9325000I0J50000D01*
G01*
G37*
G36*
G01*
X55125000Y-9825000D02*
X55125000Y-9575000D01*
G75*
G02*
X55175000Y-9525000I50000J0D01*
G01*
X55875000Y-9525000D01*
G75*
G02*
X55925000Y-9575000I0J-50000D01*
G01*
X55925000Y-9825000D01*
G75*
G02*
X55875000Y-9875000I-50000J0D01*
G01*
X55175000Y-9875000D01*
G75*
G02*
X55125000Y-9825000I0J50000D01*
G01*
G37*
G36*
G01*
X55125000Y-10325000D02*
X55125000Y-10075000D01*
G75*
G02*
X55175000Y-10025000I50000J0D01*
G01*
X55875000Y-10025000D01*
G75*
G02*
X55925000Y-10075000I0J-50000D01*
G01*
X55925000Y-10325000D01*
G75*
G02*
X55875000Y-10375000I-50000J0D01*
G01*
X55175000Y-10375000D01*
G75*
G02*
X55125000Y-10325000I0J50000D01*
G01*
G37*
G36*
G01*
X57975000Y-10325000D02*
X57975000Y-10075000D01*
G75*
G02*
X58025000Y-10025000I50000J0D01*
G01*
X58725000Y-10025000D01*
G75*
G02*
X58775000Y-10075000I0J-50000D01*
G01*
X58775000Y-10325000D01*
G75*
G02*
X58725000Y-10375000I-50000J0D01*
G01*
X58025000Y-10375000D01*
G75*
G02*
X57975000Y-10325000I0J50000D01*
G01*
G37*
G36*
G01*
X57975000Y-9825000D02*
X57975000Y-9575000D01*
G75*
G02*
X58025000Y-9525000I50000J0D01*
G01*
X58725000Y-9525000D01*
G75*
G02*
X58775000Y-9575000I0J-50000D01*
G01*
X58775000Y-9825000D01*
G75*
G02*
X58725000Y-9875000I-50000J0D01*
G01*
X58025000Y-9875000D01*
G75*
G02*
X57975000Y-9825000I0J50000D01*
G01*
G37*
G36*
G01*
X57975000Y-9325000D02*
X57975000Y-9075000D01*
G75*
G02*
X58025000Y-9025000I50000J0D01*
G01*
X58725000Y-9025000D01*
G75*
G02*
X58775000Y-9075000I0J-50000D01*
G01*
X58775000Y-9325000D01*
G75*
G02*
X58725000Y-9375000I-50000J0D01*
G01*
X58025000Y-9375000D01*
G75*
G02*
X57975000Y-9325000I0J50000D01*
G01*
G37*
G36*
G01*
X57975000Y-8825000D02*
X57975000Y-8575000D01*
G75*
G02*
X58025000Y-8525000I50000J0D01*
G01*
X58725000Y-8525000D01*
G75*
G02*
X58775000Y-8575000I0J-50000D01*
G01*
X58775000Y-8825000D01*
G75*
G02*
X58725000Y-8875000I-50000J0D01*
G01*
X58025000Y-8875000D01*
G75*
G02*
X57975000Y-8825000I0J50000D01*
G01*
G37*
G36*
G01*
X57975000Y-8325000D02*
X57975000Y-8075000D01*
G75*
G02*
X58025000Y-8025000I50000J0D01*
G01*
X58725000Y-8025000D01*
G75*
G02*
X58775000Y-8075000I0J-50000D01*
G01*
X58775000Y-8325000D01*
G75*
G02*
X58725000Y-8375000I-50000J0D01*
G01*
X58025000Y-8375000D01*
G75*
G02*
X57975000Y-8325000I0J50000D01*
G01*
G37*
G36*
X57784755Y-7960961D02*
G01*
X57794134Y-7963806D01*
X57802779Y-7968427D01*
X57810355Y-7974645D01*
X57816573Y-7982221D01*
X57821194Y-7990866D01*
X57824039Y-8000245D01*
X57825000Y-8010000D01*
X57825000Y-10390000D01*
X57824039Y-10399755D01*
X57821194Y-10409134D01*
X57816573Y-10417779D01*
X57810355Y-10425355D01*
X57802779Y-10431573D01*
X57794134Y-10436194D01*
X57784755Y-10439039D01*
X57775000Y-10440000D01*
X56125000Y-10440000D01*
X56115245Y-10439039D01*
X56105866Y-10436194D01*
X56097221Y-10431573D01*
X56089645Y-10425355D01*
X56083427Y-10417779D01*
X56078806Y-10409134D01*
X56075961Y-10399755D01*
X56075000Y-10390000D01*
X56075000Y-8386000D01*
X56075961Y-8376245D01*
X56078806Y-8366866D01*
X56083427Y-8358221D01*
X56088402Y-8351933D01*
X56438402Y-7975933D01*
X56445751Y-7969447D01*
X56454225Y-7964520D01*
X56463497Y-7961341D01*
X56475000Y-7960000D01*
X57775000Y-7960000D01*
X57784755Y-7960961D01*
G37*
%TD*%
%TO.C,U3*%
G36*
G01*
X49775000Y-31875000D02*
X49775000Y-31625000D01*
G75*
G02*
X49825000Y-31575000I50000J0D01*
G01*
X50525000Y-31575000D01*
G75*
G02*
X50575000Y-31625000I0J-50000D01*
G01*
X50575000Y-31875000D01*
G75*
G02*
X50525000Y-31925000I-50000J0D01*
G01*
X49825000Y-31925000D01*
G75*
G02*
X49775000Y-31875000I0J50000D01*
G01*
G37*
G36*
G01*
X49775000Y-32375000D02*
X49775000Y-32125000D01*
G75*
G02*
X49825000Y-32075000I50000J0D01*
G01*
X50525000Y-32075000D01*
G75*
G02*
X50575000Y-32125000I0J-50000D01*
G01*
X50575000Y-32375000D01*
G75*
G02*
X50525000Y-32425000I-50000J0D01*
G01*
X49825000Y-32425000D01*
G75*
G02*
X49775000Y-32375000I0J50000D01*
G01*
G37*
G36*
G01*
X49775000Y-32875000D02*
X49775000Y-32625000D01*
G75*
G02*
X49825000Y-32575000I50000J0D01*
G01*
X50525000Y-32575000D01*
G75*
G02*
X50575000Y-32625000I0J-50000D01*
G01*
X50575000Y-32875000D01*
G75*
G02*
X50525000Y-32925000I-50000J0D01*
G01*
X49825000Y-32925000D01*
G75*
G02*
X49775000Y-32875000I0J50000D01*
G01*
G37*
G36*
G01*
X49775000Y-33375000D02*
X49775000Y-33125000D01*
G75*
G02*
X49825000Y-33075000I50000J0D01*
G01*
X50525000Y-33075000D01*
G75*
G02*
X50575000Y-33125000I0J-50000D01*
G01*
X50575000Y-33375000D01*
G75*
G02*
X50525000Y-33425000I-50000J0D01*
G01*
X49825000Y-33425000D01*
G75*
G02*
X49775000Y-33375000I0J50000D01*
G01*
G37*
G36*
G01*
X49775000Y-33875000D02*
X49775000Y-33625000D01*
G75*
G02*
X49825000Y-33575000I50000J0D01*
G01*
X50525000Y-33575000D01*
G75*
G02*
X50575000Y-33625000I0J-50000D01*
G01*
X50575000Y-33875000D01*
G75*
G02*
X50525000Y-33925000I-50000J0D01*
G01*
X49825000Y-33925000D01*
G75*
G02*
X49775000Y-33875000I0J50000D01*
G01*
G37*
G36*
G01*
X52625000Y-33875000D02*
X52625000Y-33625000D01*
G75*
G02*
X52675000Y-33575000I50000J0D01*
G01*
X53375000Y-33575000D01*
G75*
G02*
X53425000Y-33625000I0J-50000D01*
G01*
X53425000Y-33875000D01*
G75*
G02*
X53375000Y-33925000I-50000J0D01*
G01*
X52675000Y-33925000D01*
G75*
G02*
X52625000Y-33875000I0J50000D01*
G01*
G37*
G36*
G01*
X52625000Y-33375000D02*
X52625000Y-33125000D01*
G75*
G02*
X52675000Y-33075000I50000J0D01*
G01*
X53375000Y-33075000D01*
G75*
G02*
X53425000Y-33125000I0J-50000D01*
G01*
X53425000Y-33375000D01*
G75*
G02*
X53375000Y-33425000I-50000J0D01*
G01*
X52675000Y-33425000D01*
G75*
G02*
X52625000Y-33375000I0J50000D01*
G01*
G37*
G36*
G01*
X52625000Y-32875000D02*
X52625000Y-32625000D01*
G75*
G02*
X52675000Y-32575000I50000J0D01*
G01*
X53375000Y-32575000D01*
G75*
G02*
X53425000Y-32625000I0J-50000D01*
G01*
X53425000Y-32875000D01*
G75*
G02*
X53375000Y-32925000I-50000J0D01*
G01*
X52675000Y-32925000D01*
G75*
G02*
X52625000Y-32875000I0J50000D01*
G01*
G37*
G36*
G01*
X52625000Y-32375000D02*
X52625000Y-32125000D01*
G75*
G02*
X52675000Y-32075000I50000J0D01*
G01*
X53375000Y-32075000D01*
G75*
G02*
X53425000Y-32125000I0J-50000D01*
G01*
X53425000Y-32375000D01*
G75*
G02*
X53375000Y-32425000I-50000J0D01*
G01*
X52675000Y-32425000D01*
G75*
G02*
X52625000Y-32375000I0J50000D01*
G01*
G37*
G36*
G01*
X52625000Y-31875000D02*
X52625000Y-31625000D01*
G75*
G02*
X52675000Y-31575000I50000J0D01*
G01*
X53375000Y-31575000D01*
G75*
G02*
X53425000Y-31625000I0J-50000D01*
G01*
X53425000Y-31875000D01*
G75*
G02*
X53375000Y-31925000I-50000J0D01*
G01*
X52675000Y-31925000D01*
G75*
G02*
X52625000Y-31875000I0J50000D01*
G01*
G37*
G36*
X52434755Y-31510961D02*
G01*
X52444134Y-31513806D01*
X52452779Y-31518427D01*
X52460355Y-31524645D01*
X52466573Y-31532221D01*
X52471194Y-31540866D01*
X52474039Y-31550245D01*
X52475000Y-31560000D01*
X52475000Y-33940000D01*
X52474039Y-33949755D01*
X52471194Y-33959134D01*
X52466573Y-33967779D01*
X52460355Y-33975355D01*
X52452779Y-33981573D01*
X52444134Y-33986194D01*
X52434755Y-33989039D01*
X52425000Y-33990000D01*
X50775000Y-33990000D01*
X50765245Y-33989039D01*
X50755866Y-33986194D01*
X50747221Y-33981573D01*
X50739645Y-33975355D01*
X50733427Y-33967779D01*
X50728806Y-33959134D01*
X50725961Y-33949755D01*
X50725000Y-33940000D01*
X50725000Y-31936000D01*
X50725961Y-31926245D01*
X50728806Y-31916866D01*
X50733427Y-31908221D01*
X50738402Y-31901933D01*
X51088402Y-31525933D01*
X51095751Y-31519447D01*
X51104225Y-31514520D01*
X51113497Y-31511341D01*
X51125000Y-31510000D01*
X52425000Y-31510000D01*
X52434755Y-31510961D01*
G37*
%TD*%
%TO.C,C2*%
G36*
G01*
X61250000Y-26586112D02*
X61250000Y-21613888D01*
G75*
G02*
X61513888Y-21350000I263888J0D01*
G01*
X62886112Y-21350000D01*
G75*
G02*
X63150000Y-21613888I0J-263888D01*
G01*
X63150000Y-26586112D01*
G75*
G02*
X62886112Y-26850000I-263888J0D01*
G01*
X61513888Y-26850000D01*
G75*
G02*
X61250000Y-26586112I0J263888D01*
G01*
G37*
G36*
G01*
X56150000Y-26586112D02*
X56150000Y-21613888D01*
G75*
G02*
X56413888Y-21350000I263888J0D01*
G01*
X57786112Y-21350000D01*
G75*
G02*
X58050000Y-21613888I0J-263888D01*
G01*
X58050000Y-26586112D01*
G75*
G02*
X57786112Y-26850000I-263888J0D01*
G01*
X56413888Y-26850000D01*
G75*
G02*
X56150000Y-26586112I0J263888D01*
G01*
G37*
%TD*%
%TO.C,C1*%
G36*
G01*
X24262952Y-23187500D02*
X22137048Y-23187500D01*
G75*
G02*
X21875000Y-22925452I0J262048D01*
G01*
X21875000Y-21274548D01*
G75*
G02*
X22137048Y-21012500I262048J0D01*
G01*
X24262952Y-21012500D01*
G75*
G02*
X24525000Y-21274548I0J-262048D01*
G01*
X24525000Y-22925452D01*
G75*
G02*
X24262952Y-23187500I-262048J0D01*
G01*
G37*
G36*
G01*
X24262952Y-16962500D02*
X22137048Y-16962500D01*
G75*
G02*
X21875000Y-16700452I0J262048D01*
G01*
X21875000Y-15049548D01*
G75*
G02*
X22137048Y-14787500I262048J0D01*
G01*
X24262952Y-14787500D01*
G75*
G02*
X24525000Y-15049548I0J-262048D01*
G01*
X24525000Y-16700452D01*
G75*
G02*
X24262952Y-16962500I-262048J0D01*
G01*
G37*
%TD*%
%TO.C,C10*%
G36*
G01*
X19118750Y-26562500D02*
X20081250Y-26562500D01*
G75*
G02*
X20350000Y-26831250I0J-268750D01*
G01*
X20350000Y-27368750D01*
G75*
G02*
X20081250Y-27637500I-268750J0D01*
G01*
X19118750Y-27637500D01*
G75*
G02*
X18850000Y-27368750I0J268750D01*
G01*
X18850000Y-26831250D01*
G75*
G02*
X19118750Y-26562500I268750J0D01*
G01*
G37*
G36*
G01*
X19118750Y-28437500D02*
X20081250Y-28437500D01*
G75*
G02*
X20350000Y-28706250I0J-268750D01*
G01*
X20350000Y-29243750D01*
G75*
G02*
X20081250Y-29512500I-268750J0D01*
G01*
X19118750Y-29512500D01*
G75*
G02*
X18850000Y-29243750I0J268750D01*
G01*
X18850000Y-28706250D01*
G75*
G02*
X19118750Y-28437500I268750J0D01*
G01*
G37*
%TD*%
%TO.C,R1*%
G36*
G01*
X49887500Y-19918750D02*
X49887500Y-20481250D01*
G75*
G02*
X49643750Y-20725000I-243750J0D01*
G01*
X49156250Y-20725000D01*
G75*
G02*
X48912500Y-20481250I0J243750D01*
G01*
X48912500Y-19918750D01*
G75*
G02*
X49156250Y-19675000I243750J0D01*
G01*
X49643750Y-19675000D01*
G75*
G02*
X49887500Y-19918750I0J-243750D01*
G01*
G37*
G36*
G01*
X48312500Y-19918750D02*
X48312500Y-20481250D01*
G75*
G02*
X48068750Y-20725000I-243750J0D01*
G01*
X47581250Y-20725000D01*
G75*
G02*
X47337500Y-20481250I0J243750D01*
G01*
X47337500Y-19918750D01*
G75*
G02*
X47581250Y-19675000I243750J0D01*
G01*
X48068750Y-19675000D01*
G75*
G02*
X48312500Y-19918750I0J-243750D01*
G01*
G37*
%TD*%
%TO.C,C4*%
G36*
G01*
X59625000Y-10381250D02*
X59625000Y-9418750D01*
G75*
G02*
X59893750Y-9150000I268750J0D01*
G01*
X60431250Y-9150000D01*
G75*
G02*
X60700000Y-9418750I0J-268750D01*
G01*
X60700000Y-10381250D01*
G75*
G02*
X60431250Y-10650000I-268750J0D01*
G01*
X59893750Y-10650000D01*
G75*
G02*
X59625000Y-10381250I0J268750D01*
G01*
G37*
G36*
G01*
X61500000Y-10381250D02*
X61500000Y-9418750D01*
G75*
G02*
X61768750Y-9150000I268750J0D01*
G01*
X62306250Y-9150000D01*
G75*
G02*
X62575000Y-9418750I0J-268750D01*
G01*
X62575000Y-10381250D01*
G75*
G02*
X62306250Y-10650000I-268750J0D01*
G01*
X61768750Y-10650000D01*
G75*
G02*
X61500000Y-10381250I0J268750D01*
G01*
G37*
%TD*%
%TO.C,C5*%
G36*
G01*
X56200000Y-33981250D02*
X56200000Y-33018750D01*
G75*
G02*
X56468750Y-32750000I268750J0D01*
G01*
X57006250Y-32750000D01*
G75*
G02*
X57275000Y-33018750I0J-268750D01*
G01*
X57275000Y-33981250D01*
G75*
G02*
X57006250Y-34250000I-268750J0D01*
G01*
X56468750Y-34250000D01*
G75*
G02*
X56200000Y-33981250I0J268750D01*
G01*
G37*
G36*
G01*
X54325000Y-33981250D02*
X54325000Y-33018750D01*
G75*
G02*
X54593750Y-32750000I268750J0D01*
G01*
X55131250Y-32750000D01*
G75*
G02*
X55400000Y-33018750I0J-268750D01*
G01*
X55400000Y-33981250D01*
G75*
G02*
X55131250Y-34250000I-268750J0D01*
G01*
X54593750Y-34250000D01*
G75*
G02*
X54325000Y-33981250I0J268750D01*
G01*
G37*
%TD*%
%TO.C,C6*%
G36*
G01*
X56112500Y-20481250D02*
X56112500Y-19518750D01*
G75*
G02*
X56381250Y-19250000I268750J0D01*
G01*
X56918750Y-19250000D01*
G75*
G02*
X57187500Y-19518750I0J-268750D01*
G01*
X57187500Y-20481250D01*
G75*
G02*
X56918750Y-20750000I-268750J0D01*
G01*
X56381250Y-20750000D01*
G75*
G02*
X56112500Y-20481250I0J268750D01*
G01*
G37*
G36*
G01*
X57987500Y-20481250D02*
X57987500Y-19518750D01*
G75*
G02*
X58256250Y-19250000I268750J0D01*
G01*
X58793750Y-19250000D01*
G75*
G02*
X59062500Y-19518750I0J-268750D01*
G01*
X59062500Y-20481250D01*
G75*
G02*
X58793750Y-20750000I-268750J0D01*
G01*
X58256250Y-20750000D01*
G75*
G02*
X57987500Y-20481250I0J268750D01*
G01*
G37*
%TD*%
%TO.C,C11*%
G36*
G01*
X58462500Y-44281250D02*
X58462500Y-43318750D01*
G75*
G02*
X58731250Y-43050000I268750J0D01*
G01*
X59268750Y-43050000D01*
G75*
G02*
X59537500Y-43318750I0J-268750D01*
G01*
X59537500Y-44281250D01*
G75*
G02*
X59268750Y-44550000I-268750J0D01*
G01*
X58731250Y-44550000D01*
G75*
G02*
X58462500Y-44281250I0J268750D01*
G01*
G37*
G36*
G01*
X56587500Y-44281250D02*
X56587500Y-43318750D01*
G75*
G02*
X56856250Y-43050000I268750J0D01*
G01*
X57393750Y-43050000D01*
G75*
G02*
X57662500Y-43318750I0J-268750D01*
G01*
X57662500Y-44281250D01*
G75*
G02*
X57393750Y-44550000I-268750J0D01*
G01*
X56856250Y-44550000D01*
G75*
G02*
X56587500Y-44281250I0J268750D01*
G01*
G37*
%TD*%
%TO.C,C12*%
G36*
G01*
X22137048Y-26812500D02*
X24262952Y-26812500D01*
G75*
G02*
X24525000Y-27074548I0J-262048D01*
G01*
X24525000Y-28725452D01*
G75*
G02*
X24262952Y-28987500I-262048J0D01*
G01*
X22137048Y-28987500D01*
G75*
G02*
X21875000Y-28725452I0J262048D01*
G01*
X21875000Y-27074548D01*
G75*
G02*
X22137048Y-26812500I262048J0D01*
G01*
G37*
G36*
G01*
X22137048Y-33037500D02*
X24262952Y-33037500D01*
G75*
G02*
X24525000Y-33299548I0J-262048D01*
G01*
X24525000Y-34950452D01*
G75*
G02*
X24262952Y-35212500I-262048J0D01*
G01*
X22137048Y-35212500D01*
G75*
G02*
X21875000Y-34950452I0J262048D01*
G01*
X21875000Y-33299548D01*
G75*
G02*
X22137048Y-33037500I262048J0D01*
G01*
G37*
%TD*%
%TO.C,C13*%
G36*
G01*
X20081250Y-23475000D02*
X19118750Y-23475000D01*
G75*
G02*
X18850000Y-23206250I0J268750D01*
G01*
X18850000Y-22668750D01*
G75*
G02*
X19118750Y-22400000I268750J0D01*
G01*
X20081250Y-22400000D01*
G75*
G02*
X20350000Y-22668750I0J-268750D01*
G01*
X20350000Y-23206250D01*
G75*
G02*
X20081250Y-23475000I-268750J0D01*
G01*
G37*
G36*
G01*
X20081250Y-21600000D02*
X19118750Y-21600000D01*
G75*
G02*
X18850000Y-21331250I0J268750D01*
G01*
X18850000Y-20793750D01*
G75*
G02*
X19118750Y-20525000I268750J0D01*
G01*
X20081250Y-20525000D01*
G75*
G02*
X20350000Y-20793750I0J-268750D01*
G01*
X20350000Y-21331250D01*
G75*
G02*
X20081250Y-21600000I-268750J0D01*
G01*
G37*
%TD*%
%TO.C,F1*%
G36*
G01*
X9800000Y-17600000D02*
X9800000Y-22200000D01*
G75*
G02*
X9750000Y-22250000I-50000J0D01*
G01*
X7450000Y-22250000D01*
G75*
G02*
X7400000Y-22200000I0J50000D01*
G01*
X7400000Y-17600000D01*
G75*
G02*
X7450000Y-17550000I50000J0D01*
G01*
X9750000Y-17550000D01*
G75*
G02*
X9800000Y-17600000I0J-50000D01*
G01*
G37*
G36*
G01*
X18200000Y-17600000D02*
X18200000Y-22200000D01*
G75*
G02*
X18150000Y-22250000I-50000J0D01*
G01*
X15850000Y-22250000D01*
G75*
G02*
X15800000Y-22200000I0J50000D01*
G01*
X15800000Y-17600000D01*
G75*
G02*
X15850000Y-17550000I50000J0D01*
G01*
X18150000Y-17550000D01*
G75*
G02*
X18200000Y-17600000I0J-50000D01*
G01*
G37*
%TD*%
%TO.C,L1*%
G36*
G01*
X14300000Y-25850000D02*
X14300000Y-24150000D01*
G75*
G02*
X14350000Y-24100000I50000J0D01*
G01*
X15650000Y-24100000D01*
G75*
G02*
X15700000Y-24150000I0J-50000D01*
G01*
X15700000Y-25850000D01*
G75*
G02*
X15650000Y-25900000I-50000J0D01*
G01*
X14350000Y-25900000D01*
G75*
G02*
X14300000Y-25850000I0J50000D01*
G01*
G37*
G36*
G01*
X16200000Y-28450000D02*
X16200000Y-26750000D01*
G75*
G02*
X16250000Y-26700000I50000J0D01*
G01*
X17550000Y-26700000D01*
G75*
G02*
X17600000Y-26750000I0J-50000D01*
G01*
X17600000Y-28450000D01*
G75*
G02*
X17550000Y-28500000I-50000J0D01*
G01*
X16250000Y-28500000D01*
G75*
G02*
X16200000Y-28450000I0J50000D01*
G01*
G37*
G36*
G01*
X14300000Y-28450000D02*
X14300000Y-26750000D01*
G75*
G02*
X14350000Y-26700000I50000J0D01*
G01*
X15650000Y-26700000D01*
G75*
G02*
X15700000Y-26750000I0J-50000D01*
G01*
X15700000Y-28450000D01*
G75*
G02*
X15650000Y-28500000I-50000J0D01*
G01*
X14350000Y-28500000D01*
G75*
G02*
X14300000Y-28450000I0J50000D01*
G01*
G37*
G36*
G01*
X16200000Y-25850000D02*
X16200000Y-24150000D01*
G75*
G02*
X16250000Y-24100000I50000J0D01*
G01*
X17550000Y-24100000D01*
G75*
G02*
X17600000Y-24150000I0J-50000D01*
G01*
X17600000Y-25850000D01*
G75*
G02*
X17550000Y-25900000I-50000J0D01*
G01*
X16250000Y-25900000D01*
G75*
G02*
X16200000Y-25850000I0J50000D01*
G01*
G37*
%TD*%
D12*
%TO.C,MH1*%
X92500000Y-7500000D03*
%TD*%
%TO.C,MH2*%
X92500000Y-42500000D03*
%TD*%
%TO.C,MH3*%
X7500000Y-7500000D03*
%TD*%
%TO.C,MH4*%
X7500000Y-42500000D03*
%TD*%
%TO.C,R2*%
G36*
G01*
X49875000Y-23318750D02*
X49875000Y-23881250D01*
G75*
G02*
X49631250Y-24125000I-243750J0D01*
G01*
X49143750Y-24125000D01*
G75*
G02*
X48900000Y-23881250I0J243750D01*
G01*
X48900000Y-23318750D01*
G75*
G02*
X49143750Y-23075000I243750J0D01*
G01*
X49631250Y-23075000D01*
G75*
G02*
X49875000Y-23318750I0J-243750D01*
G01*
G37*
G36*
G01*
X48300000Y-23318750D02*
X48300000Y-23881250D01*
G75*
G02*
X48056250Y-24125000I-243750J0D01*
G01*
X47568750Y-24125000D01*
G75*
G02*
X47325000Y-23881250I0J243750D01*
G01*
X47325000Y-23318750D01*
G75*
G02*
X47568750Y-23075000I243750J0D01*
G01*
X48056250Y-23075000D01*
G75*
G02*
X48300000Y-23318750I0J-243750D01*
G01*
G37*
%TD*%
%TO.C,Rcdc1*%
G36*
G01*
X45100000Y-21618750D02*
X45100000Y-22181250D01*
G75*
G02*
X44856250Y-22425000I-243750J0D01*
G01*
X44368750Y-22425000D01*
G75*
G02*
X44125000Y-22181250I0J243750D01*
G01*
X44125000Y-21618750D01*
G75*
G02*
X44368750Y-21375000I243750J0D01*
G01*
X44856250Y-21375000D01*
G75*
G02*
X45100000Y-21618750I0J-243750D01*
G01*
G37*
G36*
G01*
X46675000Y-21618750D02*
X46675000Y-22181250D01*
G75*
G02*
X46431250Y-22425000I-243750J0D01*
G01*
X45943750Y-22425000D01*
G75*
G02*
X45700000Y-22181250I0J243750D01*
G01*
X45700000Y-21618750D01*
G75*
G02*
X45943750Y-21375000I243750J0D01*
G01*
X46431250Y-21375000D01*
G75*
G02*
X46675000Y-21618750I0J-243750D01*
G01*
G37*
%TD*%
M02*
