%TF.GenerationSoftware,KiCad,Pcbnew,5.1.7*%
%TF.CreationDate,2020-11-10T23:09:26+00:00*%
%TF.ProjectId,LT3045-4,4c543330-3435-42d3-942e-6b696361645f,rev?*%
%TF.SameCoordinates,Original*%
%TF.FileFunction,Copper,L1,Top*%
%TF.FilePolarity,Positive*%
%FSLAX46Y46*%
G04 Gerber Fmt 4.6, Leading zero omitted, Abs format (unit mm)*
G04 Created by KiCad (PCBNEW 5.1.7) date 2020-11-10 23:09:26*
%MOMM*%
%LPD*%
G01*
G04 APERTURE LIST*
%TA.AperFunction,SMDPad,CuDef*%
%ADD10C,0.100000*%
%TD*%
%TA.AperFunction,SMDPad,CuDef*%
%ADD11R,0.700000X0.250000*%
%TD*%
%TA.AperFunction,SMDPad,CuDef*%
%ADD12R,5.080000X1.500000*%
%TD*%
%TA.AperFunction,ViaPad*%
%ADD13C,0.800000*%
%TD*%
%TA.AperFunction,ViaPad*%
%ADD14C,0.500000*%
%TD*%
%TA.AperFunction,Conductor*%
%ADD15C,0.250000*%
%TD*%
%TA.AperFunction,Conductor*%
%ADD16C,1.000000*%
%TD*%
%TA.AperFunction,Conductor*%
%ADD17C,0.400000*%
%TD*%
%TA.AperFunction,Conductor*%
%ADD18C,0.200000*%
%TD*%
%TA.AperFunction,Conductor*%
%ADD19C,0.100000*%
%TD*%
%TA.AperFunction,Conductor*%
%ADD20C,0.254000*%
%TD*%
G04 APERTURE END LIST*
%TA.AperFunction,SMDPad,CuDef*%
D10*
%TO.P,U4,11*%
%TO.N,GND*%
G36*
X54875000Y-44490000D02*
G01*
X53225000Y-44490000D01*
X53225000Y-42486000D01*
X53575000Y-42110000D01*
X54875000Y-42110000D01*
X54875000Y-44490000D01*
G37*
%TD.AperFunction*%
D11*
%TO.P,U4,10*%
%TO.N,/VOUT*%
X55475000Y-42300000D03*
%TO.P,U4,9*%
%TO.N,Net-(C9-Pad3)*%
X55475000Y-42800000D03*
%TO.P,U4,8*%
%TO.N,GND*%
X55475000Y-43300000D03*
%TO.P,U4,7*%
%TO.N,Net-(C2-Pad1)*%
X55475000Y-43800000D03*
%TO.P,U4,6*%
%TO.N,/VIN*%
X55475000Y-44300000D03*
%TO.P,U4,5*%
%TO.N,Net-(R16-Pad1)*%
X52625000Y-44300000D03*
%TO.P,U4,4*%
%TO.N,N/C*%
X52625000Y-43800000D03*
%TO.P,U4,3*%
%TO.N,/VIN*%
X52625000Y-43300000D03*
%TO.P,U4,2*%
X52625000Y-42800000D03*
%TO.P,U4,1*%
X52625000Y-42300000D03*
%TD*%
%TA.AperFunction,SMDPad,CuDef*%
D10*
%TO.P,U1,11*%
%TO.N,GND*%
G36*
X52625000Y-24740000D02*
G01*
X50975000Y-24740000D01*
X50975000Y-22736000D01*
X51325000Y-22360000D01*
X52625000Y-22360000D01*
X52625000Y-24740000D01*
G37*
%TD.AperFunction*%
D11*
%TO.P,U1,10*%
%TO.N,/VOUT*%
X53225000Y-22550000D03*
%TO.P,U1,9*%
%TO.N,Net-(C3-Pad3)*%
X53225000Y-23050000D03*
%TO.P,U1,8*%
%TO.N,GND*%
X53225000Y-23550000D03*
%TO.P,U1,7*%
%TO.N,Net-(C2-Pad1)*%
X53225000Y-24050000D03*
%TO.P,U1,6*%
%TO.N,Net-(R5-Pad2)*%
X53225000Y-24550000D03*
%TO.P,U1,5*%
%TO.N,Net-(R4-Pad1)*%
X50375000Y-24550000D03*
%TO.P,U1,4*%
%TO.N,Net-(R1-Pad1)*%
X50375000Y-24050000D03*
%TO.P,U1,3*%
%TO.N,/VIN*%
X50375000Y-23550000D03*
%TO.P,U1,2*%
X50375000Y-23050000D03*
%TO.P,U1,1*%
X50375000Y-22550000D03*
%TD*%
D12*
%TO.P,J1,2*%
%TO.N,GND*%
X3000000Y-20750000D03*
X3000000Y-29250000D03*
%TO.P,J1,1*%
%TO.N,Net-(C1-Pad1)*%
X3000000Y-25000000D03*
%TD*%
%TO.P,J2,1*%
%TO.N,/VOUT*%
X97000000Y-25000000D03*
%TO.P,J2,2*%
%TO.N,GND*%
X97000000Y-20750000D03*
X97000000Y-29250000D03*
%TD*%
%TO.P,L1,1*%
%TO.N,/VIN*%
%TA.AperFunction,SMDPad,CuDef*%
G36*
G01*
X13225000Y-24375000D02*
X13225000Y-25625000D01*
G75*
G02*
X12975000Y-25875000I-250000J0D01*
G01*
X12225000Y-25875000D01*
G75*
G02*
X11975000Y-25625000I0J250000D01*
G01*
X11975000Y-24375000D01*
G75*
G02*
X12225000Y-24125000I250000J0D01*
G01*
X12975000Y-24125000D01*
G75*
G02*
X13225000Y-24375000I0J-250000D01*
G01*
G37*
%TD.AperFunction*%
%TO.P,L1,2*%
%TO.N,Net-(C1-Pad1)*%
%TA.AperFunction,SMDPad,CuDef*%
G36*
G01*
X10425000Y-24375000D02*
X10425000Y-25625000D01*
G75*
G02*
X10175000Y-25875000I-250000J0D01*
G01*
X9425000Y-25875000D01*
G75*
G02*
X9175000Y-25625000I0J250000D01*
G01*
X9175000Y-24375000D01*
G75*
G02*
X9425000Y-24125000I250000J0D01*
G01*
X10175000Y-24125000D01*
G75*
G02*
X10425000Y-24375000I0J-250000D01*
G01*
G37*
%TD.AperFunction*%
%TD*%
%TO.P,R3,2*%
%TO.N,/GND_SET1*%
%TA.AperFunction,SMDPad,CuDef*%
G36*
G01*
X59850000Y-28506250D02*
X59850000Y-27993750D01*
G75*
G02*
X60068750Y-27775000I218750J0D01*
G01*
X60506250Y-27775000D01*
G75*
G02*
X60725000Y-27993750I0J-218750D01*
G01*
X60725000Y-28506250D01*
G75*
G02*
X60506250Y-28725000I-218750J0D01*
G01*
X60068750Y-28725000D01*
G75*
G02*
X59850000Y-28506250I0J218750D01*
G01*
G37*
%TD.AperFunction*%
%TO.P,R3,1*%
%TO.N,Net-(C2-Pad1)*%
%TA.AperFunction,SMDPad,CuDef*%
G36*
G01*
X58275000Y-28506250D02*
X58275000Y-27993750D01*
G75*
G02*
X58493750Y-27775000I218750J0D01*
G01*
X58931250Y-27775000D01*
G75*
G02*
X59150000Y-27993750I0J-218750D01*
G01*
X59150000Y-28506250D01*
G75*
G02*
X58931250Y-28725000I-218750J0D01*
G01*
X58493750Y-28725000D01*
G75*
G02*
X58275000Y-28506250I0J218750D01*
G01*
G37*
%TD.AperFunction*%
%TD*%
%TO.P,R4,1*%
%TO.N,Net-(R4-Pad1)*%
%TA.AperFunction,SMDPad,CuDef*%
G36*
G01*
X48562500Y-26506250D02*
X48562500Y-25993750D01*
G75*
G02*
X48781250Y-25775000I218750J0D01*
G01*
X49218750Y-25775000D01*
G75*
G02*
X49437500Y-25993750I0J-218750D01*
G01*
X49437500Y-26506250D01*
G75*
G02*
X49218750Y-26725000I-218750J0D01*
G01*
X48781250Y-26725000D01*
G75*
G02*
X48562500Y-26506250I0J218750D01*
G01*
G37*
%TD.AperFunction*%
%TO.P,R4,2*%
%TO.N,GND*%
%TA.AperFunction,SMDPad,CuDef*%
G36*
G01*
X50137500Y-26506250D02*
X50137500Y-25993750D01*
G75*
G02*
X50356250Y-25775000I218750J0D01*
G01*
X50793750Y-25775000D01*
G75*
G02*
X51012500Y-25993750I0J-218750D01*
G01*
X51012500Y-26506250D01*
G75*
G02*
X50793750Y-26725000I-218750J0D01*
G01*
X50356250Y-26725000D01*
G75*
G02*
X50137500Y-26506250I0J218750D01*
G01*
G37*
%TD.AperFunction*%
%TD*%
%TO.P,R5,2*%
%TO.N,Net-(R5-Pad2)*%
%TA.AperFunction,SMDPad,CuDef*%
G36*
G01*
X85687500Y-24493750D02*
X85687500Y-25006250D01*
G75*
G02*
X85468750Y-25225000I-218750J0D01*
G01*
X85031250Y-25225000D01*
G75*
G02*
X84812500Y-25006250I0J218750D01*
G01*
X84812500Y-24493750D01*
G75*
G02*
X85031250Y-24275000I218750J0D01*
G01*
X85468750Y-24275000D01*
G75*
G02*
X85687500Y-24493750I0J-218750D01*
G01*
G37*
%TD.AperFunction*%
%TO.P,R5,1*%
%TO.N,/VOUT*%
%TA.AperFunction,SMDPad,CuDef*%
G36*
G01*
X87262500Y-24493750D02*
X87262500Y-25006250D01*
G75*
G02*
X87043750Y-25225000I-218750J0D01*
G01*
X86606250Y-25225000D01*
G75*
G02*
X86387500Y-25006250I0J218750D01*
G01*
X86387500Y-24493750D01*
G75*
G02*
X86606250Y-24275000I218750J0D01*
G01*
X87043750Y-24275000D01*
G75*
G02*
X87262500Y-24493750I0J-218750D01*
G01*
G37*
%TD.AperFunction*%
%TD*%
%TO.P,R6,1*%
%TO.N,Net-(R5-Pad2)*%
%TA.AperFunction,SMDPad,CuDef*%
G36*
G01*
X83687500Y-24493750D02*
X83687500Y-25006250D01*
G75*
G02*
X83468750Y-25225000I-218750J0D01*
G01*
X83031250Y-25225000D01*
G75*
G02*
X82812500Y-25006250I0J218750D01*
G01*
X82812500Y-24493750D01*
G75*
G02*
X83031250Y-24275000I218750J0D01*
G01*
X83468750Y-24275000D01*
G75*
G02*
X83687500Y-24493750I0J-218750D01*
G01*
G37*
%TD.AperFunction*%
%TO.P,R6,2*%
%TO.N,GND*%
%TA.AperFunction,SMDPad,CuDef*%
G36*
G01*
X82112500Y-24493750D02*
X82112500Y-25006250D01*
G75*
G02*
X81893750Y-25225000I-218750J0D01*
G01*
X81456250Y-25225000D01*
G75*
G02*
X81237500Y-25006250I0J218750D01*
G01*
X81237500Y-24493750D01*
G75*
G02*
X81456250Y-24275000I218750J0D01*
G01*
X81893750Y-24275000D01*
G75*
G02*
X82112500Y-24493750I0J-218750D01*
G01*
G37*
%TD.AperFunction*%
%TD*%
%TO.P,C3,2*%
%TO.N,GND*%
%TA.AperFunction,SMDPad,CuDef*%
G36*
G01*
X51075000Y-20990000D02*
X51075000Y-20510000D01*
G75*
G02*
X51235000Y-20350000I160000J0D01*
G01*
X52165000Y-20350000D01*
G75*
G02*
X52325000Y-20510000I0J-160000D01*
G01*
X52325000Y-20990000D01*
G75*
G02*
X52165000Y-21150000I-160000J0D01*
G01*
X51235000Y-21150000D01*
G75*
G02*
X51075000Y-20990000I0J160000D01*
G01*
G37*
%TD.AperFunction*%
%TO.P,C3,1*%
%TO.N,/GND_SET1*%
%TA.AperFunction,SMDPad,CuDef*%
G36*
G01*
X51075000Y-20040000D02*
X51075000Y-19560000D01*
G75*
G02*
X51235000Y-19400000I160000J0D01*
G01*
X52165000Y-19400000D01*
G75*
G02*
X52325000Y-19560000I0J-160000D01*
G01*
X52325000Y-20040000D01*
G75*
G02*
X52165000Y-20200000I-160000J0D01*
G01*
X51235000Y-20200000D01*
G75*
G02*
X51075000Y-20040000I0J160000D01*
G01*
G37*
%TD.AperFunction*%
%TO.P,C3,3*%
%TO.N,Net-(C3-Pad3)*%
%TA.AperFunction,SMDPad,CuDef*%
G36*
G01*
X53875000Y-20990000D02*
X53875000Y-20510000D01*
G75*
G02*
X54035000Y-20350000I160000J0D01*
G01*
X54965000Y-20350000D01*
G75*
G02*
X55125000Y-20510000I0J-160000D01*
G01*
X55125000Y-20990000D01*
G75*
G02*
X54965000Y-21150000I-160000J0D01*
G01*
X54035000Y-21150000D01*
G75*
G02*
X53875000Y-20990000I0J160000D01*
G01*
G37*
%TD.AperFunction*%
%TO.P,C3,4*%
%TO.N,/VOUT*%
%TA.AperFunction,SMDPad,CuDef*%
G36*
G01*
X53875000Y-20040000D02*
X53875000Y-19560000D01*
G75*
G02*
X54035000Y-19400000I160000J0D01*
G01*
X54965000Y-19400000D01*
G75*
G02*
X55125000Y-19560000I0J-160000D01*
G01*
X55125000Y-20040000D01*
G75*
G02*
X54965000Y-20200000I-160000J0D01*
G01*
X54035000Y-20200000D01*
G75*
G02*
X53875000Y-20040000I0J160000D01*
G01*
G37*
%TD.AperFunction*%
%TD*%
%TO.P,C7,2*%
%TO.N,GND*%
%TA.AperFunction,SMDPad,CuDef*%
G36*
G01*
X53325000Y-11740000D02*
X53325000Y-11260000D01*
G75*
G02*
X53485000Y-11100000I160000J0D01*
G01*
X54415000Y-11100000D01*
G75*
G02*
X54575000Y-11260000I0J-160000D01*
G01*
X54575000Y-11740000D01*
G75*
G02*
X54415000Y-11900000I-160000J0D01*
G01*
X53485000Y-11900000D01*
G75*
G02*
X53325000Y-11740000I0J160000D01*
G01*
G37*
%TD.AperFunction*%
%TO.P,C7,1*%
%TO.N,/GND_SET1*%
%TA.AperFunction,SMDPad,CuDef*%
G36*
G01*
X53325000Y-10790000D02*
X53325000Y-10310000D01*
G75*
G02*
X53485000Y-10150000I160000J0D01*
G01*
X54415000Y-10150000D01*
G75*
G02*
X54575000Y-10310000I0J-160000D01*
G01*
X54575000Y-10790000D01*
G75*
G02*
X54415000Y-10950000I-160000J0D01*
G01*
X53485000Y-10950000D01*
G75*
G02*
X53325000Y-10790000I0J160000D01*
G01*
G37*
%TD.AperFunction*%
%TO.P,C7,3*%
%TO.N,Net-(C7-Pad3)*%
%TA.AperFunction,SMDPad,CuDef*%
G36*
G01*
X56125000Y-11740000D02*
X56125000Y-11260000D01*
G75*
G02*
X56285000Y-11100000I160000J0D01*
G01*
X57215000Y-11100000D01*
G75*
G02*
X57375000Y-11260000I0J-160000D01*
G01*
X57375000Y-11740000D01*
G75*
G02*
X57215000Y-11900000I-160000J0D01*
G01*
X56285000Y-11900000D01*
G75*
G02*
X56125000Y-11740000I0J160000D01*
G01*
G37*
%TD.AperFunction*%
%TO.P,C7,4*%
%TO.N,/VOUT*%
%TA.AperFunction,SMDPad,CuDef*%
G36*
G01*
X56125000Y-10790000D02*
X56125000Y-10310000D01*
G75*
G02*
X56285000Y-10150000I160000J0D01*
G01*
X57215000Y-10150000D01*
G75*
G02*
X57375000Y-10310000I0J-160000D01*
G01*
X57375000Y-10790000D01*
G75*
G02*
X57215000Y-10950000I-160000J0D01*
G01*
X56285000Y-10950000D01*
G75*
G02*
X56125000Y-10790000I0J160000D01*
G01*
G37*
%TD.AperFunction*%
%TD*%
%TO.P,C8,4*%
%TO.N,/VOUT*%
%TA.AperFunction,SMDPad,CuDef*%
G36*
G01*
X53875000Y-30540000D02*
X53875000Y-30060000D01*
G75*
G02*
X54035000Y-29900000I160000J0D01*
G01*
X54965000Y-29900000D01*
G75*
G02*
X55125000Y-30060000I0J-160000D01*
G01*
X55125000Y-30540000D01*
G75*
G02*
X54965000Y-30700000I-160000J0D01*
G01*
X54035000Y-30700000D01*
G75*
G02*
X53875000Y-30540000I0J160000D01*
G01*
G37*
%TD.AperFunction*%
%TO.P,C8,3*%
%TO.N,Net-(C8-Pad3)*%
%TA.AperFunction,SMDPad,CuDef*%
G36*
G01*
X53875000Y-31490000D02*
X53875000Y-31010000D01*
G75*
G02*
X54035000Y-30850000I160000J0D01*
G01*
X54965000Y-30850000D01*
G75*
G02*
X55125000Y-31010000I0J-160000D01*
G01*
X55125000Y-31490000D01*
G75*
G02*
X54965000Y-31650000I-160000J0D01*
G01*
X54035000Y-31650000D01*
G75*
G02*
X53875000Y-31490000I0J160000D01*
G01*
G37*
%TD.AperFunction*%
%TO.P,C8,1*%
%TO.N,/GND_SET1*%
%TA.AperFunction,SMDPad,CuDef*%
G36*
G01*
X51075000Y-30540000D02*
X51075000Y-30060000D01*
G75*
G02*
X51235000Y-29900000I160000J0D01*
G01*
X52165000Y-29900000D01*
G75*
G02*
X52325000Y-30060000I0J-160000D01*
G01*
X52325000Y-30540000D01*
G75*
G02*
X52165000Y-30700000I-160000J0D01*
G01*
X51235000Y-30700000D01*
G75*
G02*
X51075000Y-30540000I0J160000D01*
G01*
G37*
%TD.AperFunction*%
%TO.P,C8,2*%
%TO.N,GND*%
%TA.AperFunction,SMDPad,CuDef*%
G36*
G01*
X51075000Y-31490000D02*
X51075000Y-31010000D01*
G75*
G02*
X51235000Y-30850000I160000J0D01*
G01*
X52165000Y-30850000D01*
G75*
G02*
X52325000Y-31010000I0J-160000D01*
G01*
X52325000Y-31490000D01*
G75*
G02*
X52165000Y-31650000I-160000J0D01*
G01*
X51235000Y-31650000D01*
G75*
G02*
X51075000Y-31490000I0J160000D01*
G01*
G37*
%TD.AperFunction*%
%TD*%
%TO.P,C9,2*%
%TO.N,GND*%
%TA.AperFunction,SMDPad,CuDef*%
G36*
G01*
X53325000Y-40740000D02*
X53325000Y-40260000D01*
G75*
G02*
X53485000Y-40100000I160000J0D01*
G01*
X54415000Y-40100000D01*
G75*
G02*
X54575000Y-40260000I0J-160000D01*
G01*
X54575000Y-40740000D01*
G75*
G02*
X54415000Y-40900000I-160000J0D01*
G01*
X53485000Y-40900000D01*
G75*
G02*
X53325000Y-40740000I0J160000D01*
G01*
G37*
%TD.AperFunction*%
%TO.P,C9,1*%
%TO.N,/GND_SET1*%
%TA.AperFunction,SMDPad,CuDef*%
G36*
G01*
X53325000Y-39790000D02*
X53325000Y-39310000D01*
G75*
G02*
X53485000Y-39150000I160000J0D01*
G01*
X54415000Y-39150000D01*
G75*
G02*
X54575000Y-39310000I0J-160000D01*
G01*
X54575000Y-39790000D01*
G75*
G02*
X54415000Y-39950000I-160000J0D01*
G01*
X53485000Y-39950000D01*
G75*
G02*
X53325000Y-39790000I0J160000D01*
G01*
G37*
%TD.AperFunction*%
%TO.P,C9,3*%
%TO.N,Net-(C9-Pad3)*%
%TA.AperFunction,SMDPad,CuDef*%
G36*
G01*
X56125000Y-40740000D02*
X56125000Y-40260000D01*
G75*
G02*
X56285000Y-40100000I160000J0D01*
G01*
X57215000Y-40100000D01*
G75*
G02*
X57375000Y-40260000I0J-160000D01*
G01*
X57375000Y-40740000D01*
G75*
G02*
X57215000Y-40900000I-160000J0D01*
G01*
X56285000Y-40900000D01*
G75*
G02*
X56125000Y-40740000I0J160000D01*
G01*
G37*
%TD.AperFunction*%
%TO.P,C9,4*%
%TO.N,/VOUT*%
%TA.AperFunction,SMDPad,CuDef*%
G36*
G01*
X56125000Y-39790000D02*
X56125000Y-39310000D01*
G75*
G02*
X56285000Y-39150000I160000J0D01*
G01*
X57215000Y-39150000D01*
G75*
G02*
X57375000Y-39310000I0J-160000D01*
G01*
X57375000Y-39790000D01*
G75*
G02*
X57215000Y-39950000I-160000J0D01*
G01*
X56285000Y-39950000D01*
G75*
G02*
X56125000Y-39790000I0J160000D01*
G01*
G37*
%TD.AperFunction*%
%TD*%
%TO.P,R14,1*%
%TO.N,Net-(R14-Pad1)*%
%TA.AperFunction,SMDPad,CuDef*%
G36*
G01*
X50743750Y-14987500D02*
X51256250Y-14987500D01*
G75*
G02*
X51475000Y-15206250I0J-218750D01*
G01*
X51475000Y-15643750D01*
G75*
G02*
X51256250Y-15862500I-218750J0D01*
G01*
X50743750Y-15862500D01*
G75*
G02*
X50525000Y-15643750I0J218750D01*
G01*
X50525000Y-15206250D01*
G75*
G02*
X50743750Y-14987500I218750J0D01*
G01*
G37*
%TD.AperFunction*%
%TO.P,R14,2*%
%TO.N,GND*%
%TA.AperFunction,SMDPad,CuDef*%
G36*
G01*
X50743750Y-16562500D02*
X51256250Y-16562500D01*
G75*
G02*
X51475000Y-16781250I0J-218750D01*
G01*
X51475000Y-17218750D01*
G75*
G02*
X51256250Y-17437500I-218750J0D01*
G01*
X50743750Y-17437500D01*
G75*
G02*
X50525000Y-17218750I0J218750D01*
G01*
X50525000Y-16781250D01*
G75*
G02*
X50743750Y-16562500I218750J0D01*
G01*
G37*
%TD.AperFunction*%
%TD*%
%TO.P,R15,2*%
%TO.N,GND*%
%TA.AperFunction,SMDPad,CuDef*%
G36*
G01*
X48243750Y-36562500D02*
X48756250Y-36562500D01*
G75*
G02*
X48975000Y-36781250I0J-218750D01*
G01*
X48975000Y-37218750D01*
G75*
G02*
X48756250Y-37437500I-218750J0D01*
G01*
X48243750Y-37437500D01*
G75*
G02*
X48025000Y-37218750I0J218750D01*
G01*
X48025000Y-36781250D01*
G75*
G02*
X48243750Y-36562500I218750J0D01*
G01*
G37*
%TD.AperFunction*%
%TO.P,R15,1*%
%TO.N,Net-(R15-Pad1)*%
%TA.AperFunction,SMDPad,CuDef*%
G36*
G01*
X48243750Y-34987500D02*
X48756250Y-34987500D01*
G75*
G02*
X48975000Y-35206250I0J-218750D01*
G01*
X48975000Y-35643750D01*
G75*
G02*
X48756250Y-35862500I-218750J0D01*
G01*
X48243750Y-35862500D01*
G75*
G02*
X48025000Y-35643750I0J218750D01*
G01*
X48025000Y-35206250D01*
G75*
G02*
X48243750Y-34987500I218750J0D01*
G01*
G37*
%TD.AperFunction*%
%TD*%
%TO.P,R16,2*%
%TO.N,GND*%
%TA.AperFunction,SMDPad,CuDef*%
G36*
G01*
X50743750Y-45850000D02*
X51256250Y-45850000D01*
G75*
G02*
X51475000Y-46068750I0J-218750D01*
G01*
X51475000Y-46506250D01*
G75*
G02*
X51256250Y-46725000I-218750J0D01*
G01*
X50743750Y-46725000D01*
G75*
G02*
X50525000Y-46506250I0J218750D01*
G01*
X50525000Y-46068750D01*
G75*
G02*
X50743750Y-45850000I218750J0D01*
G01*
G37*
%TD.AperFunction*%
%TO.P,R16,1*%
%TO.N,Net-(R16-Pad1)*%
%TA.AperFunction,SMDPad,CuDef*%
G36*
G01*
X50743750Y-44275000D02*
X51256250Y-44275000D01*
G75*
G02*
X51475000Y-44493750I0J-218750D01*
G01*
X51475000Y-44931250D01*
G75*
G02*
X51256250Y-45150000I-218750J0D01*
G01*
X50743750Y-45150000D01*
G75*
G02*
X50525000Y-44931250I0J218750D01*
G01*
X50525000Y-44493750D01*
G75*
G02*
X50743750Y-44275000I218750J0D01*
G01*
G37*
%TD.AperFunction*%
%TD*%
D11*
%TO.P,U2,1*%
%TO.N,/VIN*%
X52625000Y-13300000D03*
%TO.P,U2,2*%
X52625000Y-13800000D03*
%TO.P,U2,3*%
X52625000Y-14300000D03*
%TO.P,U2,4*%
%TO.N,N/C*%
X52625000Y-14800000D03*
%TO.P,U2,5*%
%TO.N,Net-(R14-Pad1)*%
X52625000Y-15300000D03*
%TO.P,U2,6*%
%TO.N,/VIN*%
X55475000Y-15300000D03*
%TO.P,U2,7*%
%TO.N,Net-(C2-Pad1)*%
X55475000Y-14800000D03*
%TO.P,U2,8*%
%TO.N,GND*%
X55475000Y-14300000D03*
%TO.P,U2,9*%
%TO.N,Net-(C7-Pad3)*%
X55475000Y-13800000D03*
%TO.P,U2,10*%
%TO.N,/VOUT*%
X55475000Y-13300000D03*
%TA.AperFunction,SMDPad,CuDef*%
D10*
%TO.P,U2,11*%
%TO.N,GND*%
G36*
X54875000Y-15490000D02*
G01*
X53225000Y-15490000D01*
X53225000Y-13486000D01*
X53575000Y-13110000D01*
X54875000Y-13110000D01*
X54875000Y-15490000D01*
G37*
%TD.AperFunction*%
%TD*%
D11*
%TO.P,U3,1*%
%TO.N,/VIN*%
X50375000Y-33050000D03*
%TO.P,U3,2*%
X50375000Y-33550000D03*
%TO.P,U3,3*%
X50375000Y-34050000D03*
%TO.P,U3,4*%
%TO.N,N/C*%
X50375000Y-34550000D03*
%TO.P,U3,5*%
%TO.N,Net-(R15-Pad1)*%
X50375000Y-35050000D03*
%TO.P,U3,6*%
%TO.N,/VIN*%
X53225000Y-35050000D03*
%TO.P,U3,7*%
%TO.N,Net-(C2-Pad1)*%
X53225000Y-34550000D03*
%TO.P,U3,8*%
%TO.N,GND*%
X53225000Y-34050000D03*
%TO.P,U3,9*%
%TO.N,Net-(C8-Pad3)*%
X53225000Y-33550000D03*
%TO.P,U3,10*%
%TO.N,/VOUT*%
X53225000Y-33050000D03*
%TA.AperFunction,SMDPad,CuDef*%
D10*
%TO.P,U3,11*%
%TO.N,GND*%
G36*
X52625000Y-35240000D02*
G01*
X50975000Y-35240000D01*
X50975000Y-33236000D01*
X51325000Y-32860000D01*
X52625000Y-32860000D01*
X52625000Y-35240000D01*
G37*
%TD.AperFunction*%
%TD*%
%TO.P,C2,2*%
%TO.N,/GND_SET1*%
%TA.AperFunction,SMDPad,CuDef*%
G36*
G01*
X61150000Y-26450000D02*
X61150000Y-21550000D01*
G75*
G02*
X61400000Y-21300000I250000J0D01*
G01*
X62700000Y-21300000D01*
G75*
G02*
X62950000Y-21550000I0J-250000D01*
G01*
X62950000Y-26450000D01*
G75*
G02*
X62700000Y-26700000I-250000J0D01*
G01*
X61400000Y-26700000D01*
G75*
G02*
X61150000Y-26450000I0J250000D01*
G01*
G37*
%TD.AperFunction*%
%TO.P,C2,1*%
%TO.N,Net-(C2-Pad1)*%
%TA.AperFunction,SMDPad,CuDef*%
G36*
G01*
X56050000Y-26450000D02*
X56050000Y-21550000D01*
G75*
G02*
X56300000Y-21300000I250000J0D01*
G01*
X57600000Y-21300000D01*
G75*
G02*
X57850000Y-21550000I0J-250000D01*
G01*
X57850000Y-26450000D01*
G75*
G02*
X57600000Y-26700000I-250000J0D01*
G01*
X56300000Y-26700000D01*
G75*
G02*
X56050000Y-26450000I0J250000D01*
G01*
G37*
%TD.AperFunction*%
%TD*%
%TO.P,C1,1*%
%TO.N,Net-(C1-Pad1)*%
%TA.AperFunction,SMDPad,CuDef*%
G36*
G01*
X8675000Y-26737500D02*
X10725000Y-26737500D01*
G75*
G02*
X10975000Y-26987500I0J-250000D01*
G01*
X10975000Y-28562500D01*
G75*
G02*
X10725000Y-28812500I-250000J0D01*
G01*
X8675000Y-28812500D01*
G75*
G02*
X8425000Y-28562500I0J250000D01*
G01*
X8425000Y-26987500D01*
G75*
G02*
X8675000Y-26737500I250000J0D01*
G01*
G37*
%TD.AperFunction*%
%TO.P,C1,2*%
%TO.N,GND*%
%TA.AperFunction,SMDPad,CuDef*%
G36*
G01*
X8675000Y-32962500D02*
X10725000Y-32962500D01*
G75*
G02*
X10975000Y-33212500I0J-250000D01*
G01*
X10975000Y-34787500D01*
G75*
G02*
X10725000Y-35037500I-250000J0D01*
G01*
X8675000Y-35037500D01*
G75*
G02*
X8425000Y-34787500I0J250000D01*
G01*
X8425000Y-33212500D01*
G75*
G02*
X8675000Y-32962500I250000J0D01*
G01*
G37*
%TD.AperFunction*%
%TD*%
%TO.P,C10,1*%
%TO.N,Net-(C1-Pad1)*%
%TA.AperFunction,SMDPad,CuDef*%
G36*
G01*
X10256250Y-23425000D02*
X9343750Y-23425000D01*
G75*
G02*
X9100000Y-23181250I0J243750D01*
G01*
X9100000Y-22693750D01*
G75*
G02*
X9343750Y-22450000I243750J0D01*
G01*
X10256250Y-22450000D01*
G75*
G02*
X10500000Y-22693750I0J-243750D01*
G01*
X10500000Y-23181250D01*
G75*
G02*
X10256250Y-23425000I-243750J0D01*
G01*
G37*
%TD.AperFunction*%
%TO.P,C10,2*%
%TO.N,GND*%
%TA.AperFunction,SMDPad,CuDef*%
G36*
G01*
X10256250Y-21550000D02*
X9343750Y-21550000D01*
G75*
G02*
X9100000Y-21306250I0J243750D01*
G01*
X9100000Y-20818750D01*
G75*
G02*
X9343750Y-20575000I243750J0D01*
G01*
X10256250Y-20575000D01*
G75*
G02*
X10500000Y-20818750I0J-243750D01*
G01*
X10500000Y-21306250D01*
G75*
G02*
X10256250Y-21550000I-243750J0D01*
G01*
G37*
%TD.AperFunction*%
%TD*%
%TO.P,R1,1*%
%TO.N,Net-(R1-Pad1)*%
%TA.AperFunction,SMDPad,CuDef*%
G36*
G01*
X49056250Y-24962500D02*
X48543750Y-24962500D01*
G75*
G02*
X48325000Y-24743750I0J218750D01*
G01*
X48325000Y-24306250D01*
G75*
G02*
X48543750Y-24087500I218750J0D01*
G01*
X49056250Y-24087500D01*
G75*
G02*
X49275000Y-24306250I0J-218750D01*
G01*
X49275000Y-24743750D01*
G75*
G02*
X49056250Y-24962500I-218750J0D01*
G01*
G37*
%TD.AperFunction*%
%TO.P,R1,2*%
%TO.N,/VIN*%
%TA.AperFunction,SMDPad,CuDef*%
G36*
G01*
X49056250Y-23387500D02*
X48543750Y-23387500D01*
G75*
G02*
X48325000Y-23168750I0J218750D01*
G01*
X48325000Y-22731250D01*
G75*
G02*
X48543750Y-22512500I218750J0D01*
G01*
X49056250Y-22512500D01*
G75*
G02*
X49275000Y-22731250I0J-218750D01*
G01*
X49275000Y-23168750D01*
G75*
G02*
X49056250Y-23387500I-218750J0D01*
G01*
G37*
%TD.AperFunction*%
%TD*%
D13*
%TO.N,GND*%
X45800000Y-18400000D03*
X45800000Y-28500000D03*
X52300000Y-46300000D03*
X49800000Y-37000000D03*
X51900000Y-26200000D03*
X53700000Y-42500000D03*
X54500000Y-42500000D03*
X54500000Y-43300000D03*
X53700000Y-43300000D03*
X53700000Y-44100000D03*
X54500000Y-44100000D03*
X51400000Y-33200000D03*
X52200000Y-33200000D03*
X51400000Y-34000000D03*
X52200000Y-34000000D03*
X52200000Y-34800000D03*
D14*
X51400000Y-34800000D03*
D13*
X53700000Y-13500000D03*
X54500000Y-13500000D03*
X54500000Y-14300000D03*
X53700000Y-14300000D03*
D14*
X53700000Y-15100000D03*
D13*
X54500000Y-15100000D03*
X51400000Y-22800000D03*
X52200000Y-22800000D03*
X52200000Y-23600000D03*
X51400000Y-23600000D03*
X52200000Y-24400000D03*
X51400000Y-24400000D03*
X81750000Y-25750000D03*
X81750000Y-23750000D03*
X97000000Y-19500000D03*
X97000000Y-30500000D03*
X52300000Y-17000000D03*
X86200000Y-28900000D03*
X86300000Y-21200000D03*
X64300000Y-12900000D03*
X64500000Y-19500000D03*
X64550000Y-30600000D03*
X64700000Y-37000000D03*
X64600000Y-25500000D03*
X64500000Y-28700000D03*
X64500000Y-21200000D03*
X64500000Y-23600000D03*
X59600000Y-40750000D03*
X58800000Y-7800000D03*
X49800000Y-9300000D03*
X46100000Y-10000000D03*
X41800000Y-11000000D03*
X38000000Y-11900000D03*
X34400000Y-12700000D03*
X31800000Y-13000000D03*
X28100000Y-13800000D03*
X23000000Y-15100000D03*
X18300000Y-16100000D03*
X13700000Y-17000000D03*
X35900000Y-20200000D03*
X47400000Y-15800000D03*
X46200000Y-25100000D03*
X35100000Y-26800000D03*
X45900000Y-34900000D03*
X35800000Y-33600000D03*
X47500000Y-37400000D03*
X47100000Y-44100000D03*
X31800000Y-39300000D03*
X15600000Y-34200000D03*
X22600000Y-36800000D03*
X39900000Y-41900000D03*
X41000000Y-25500000D03*
X40700000Y-27700000D03*
X40800000Y-33900000D03*
X42200000Y-36000000D03*
X42500000Y-17900000D03*
X40900000Y-19700000D03*
X39200000Y-18500000D03*
X38400000Y-19900000D03*
X25600000Y-14600000D03*
X26400000Y-37800000D03*
X34400000Y-39900000D03*
X36700000Y-40900000D03*
X42400000Y-42600000D03*
X44900000Y-43100000D03*
X19400000Y-35800000D03*
X13600000Y-33500000D03*
X62800000Y-40500000D03*
X67700000Y-38200000D03*
X73800000Y-35500000D03*
X79500000Y-33900000D03*
X84700000Y-31800000D03*
X86500000Y-18800000D03*
X81400000Y-16200000D03*
X76300000Y-14200000D03*
X69600000Y-11800000D03*
X65600000Y-10100000D03*
X62800000Y-9000000D03*
X83100000Y-20800000D03*
X70500000Y-19600000D03*
X61100000Y-18400000D03*
X61100000Y-12500000D03*
X70900000Y-16100000D03*
X76900000Y-18000000D03*
X81000000Y-19300000D03*
X77500000Y-20400000D03*
X66400000Y-18900000D03*
X68700000Y-22000000D03*
X77800000Y-22300000D03*
X73400000Y-23500000D03*
X67200000Y-23600000D03*
X79000000Y-23600000D03*
X78900000Y-26000000D03*
X75400000Y-27900000D03*
X68900000Y-25800000D03*
X68600000Y-28100000D03*
X74800000Y-26000000D03*
X80800000Y-29200000D03*
X71300000Y-30300000D03*
X77100000Y-31800000D03*
X83300000Y-30000000D03*
X70800000Y-34200000D03*
X68100000Y-31000000D03*
X61100000Y-37600000D03*
X59800000Y-48300000D03*
X59800000Y-42900000D03*
X59800000Y-44900000D03*
X59000000Y-2300000D03*
X59200000Y-4700000D03*
%TO.N,Net-(C2-Pad1)*%
X56800000Y-43800000D03*
X54450000Y-34550000D03*
X56650000Y-14800000D03*
X54350000Y-24050000D03*
%TO.N,Net-(R5-Pad2)*%
X84250000Y-24750000D03*
X53250000Y-25550000D03*
%TO.N,/VOUT*%
X97500000Y-23000000D03*
X96500000Y-23000000D03*
X95500000Y-23000000D03*
X94500000Y-23000000D03*
X97500000Y-27000000D03*
X96500000Y-27000000D03*
X95500000Y-27000000D03*
X94500000Y-27000000D03*
X93500000Y-27000000D03*
X92500000Y-27000000D03*
X93500000Y-23000000D03*
X92500000Y-23000000D03*
X87750000Y-24750000D03*
X55500000Y-12600000D03*
X55500000Y-11800000D03*
X55500000Y-11000000D03*
X53200000Y-21800000D03*
X53200000Y-21000000D03*
X53200000Y-20200000D03*
X53200000Y-32400000D03*
X53200000Y-31600000D03*
X53200000Y-30800000D03*
X55500000Y-41600000D03*
X55500000Y-40800000D03*
X55500000Y-40000000D03*
%TO.N,/VIN*%
X51500000Y-13800000D03*
X49400000Y-33600000D03*
X55100000Y-16200000D03*
X53000000Y-36000000D03*
X55300000Y-45500000D03*
X51700000Y-43100000D03*
X49700000Y-10700000D03*
X49700000Y-11500000D03*
X49700000Y-12300000D03*
X49700000Y-13100000D03*
X49700000Y-13900000D03*
X47400000Y-19900000D03*
X47400000Y-20700000D03*
X47400000Y-21500000D03*
X47400000Y-22300000D03*
D14*
X47400000Y-23100000D03*
D13*
X47400000Y-30400000D03*
X47400000Y-31200000D03*
X47400000Y-32000000D03*
X47400000Y-32800000D03*
X47400000Y-33600000D03*
X49700000Y-39700000D03*
X49700000Y-40500000D03*
X49700000Y-41300000D03*
X49700000Y-42100000D03*
X49700000Y-42900000D03*
X12200000Y-25000000D03*
%TD*%
D15*
%TO.N,GND*%
X51000000Y-46300000D02*
X52300000Y-46300000D01*
X48500000Y-37000000D02*
X49800000Y-37000000D01*
X50600000Y-26200000D02*
X51900000Y-26200000D01*
X81675000Y-24750000D02*
X81675000Y-25675000D01*
X81675000Y-25675000D02*
X81750000Y-25750000D01*
X81675000Y-24750000D02*
X81675000Y-23825000D01*
X81675000Y-23825000D02*
X81750000Y-23750000D01*
X97000000Y-29250000D02*
X97000000Y-30500000D01*
X55475000Y-43300000D02*
X54500000Y-43300000D01*
X53225000Y-23550000D02*
X52200000Y-23600000D01*
X54500000Y-14300000D02*
X55475000Y-14300000D01*
X53225000Y-34050000D02*
X52200000Y-34000000D01*
X51000000Y-17000000D02*
X52300000Y-17000000D01*
X53700000Y-11750000D02*
X53950000Y-11500000D01*
X53950000Y-14200000D02*
X54050000Y-14300000D01*
X3312500Y-21062500D02*
X3000000Y-20750000D01*
X9800000Y-21062500D02*
X3312500Y-21062500D01*
X4950000Y-29250000D02*
X9700000Y-34000000D01*
X3000000Y-29250000D02*
X4950000Y-29250000D01*
D16*
%TO.N,Net-(C1-Pad1)*%
X3000000Y-25000000D02*
X9800000Y-25000000D01*
D15*
X9800000Y-22937500D02*
X9800000Y-25000000D01*
X9700000Y-25100000D02*
X9800000Y-25000000D01*
X9700000Y-27775000D02*
X9700000Y-25100000D01*
%TO.N,Net-(C2-Pad1)*%
X55475000Y-43800000D02*
X56800000Y-43800000D01*
X53225000Y-34550000D02*
X54450000Y-34550000D01*
X55475000Y-14800000D02*
X56650000Y-14800000D01*
%TO.N,Net-(R4-Pad1)*%
X49000000Y-26250000D02*
X50375000Y-24550000D01*
%TO.N,Net-(R5-Pad2)*%
X83250000Y-24750000D02*
X84250000Y-24750000D01*
X83500000Y-24750000D02*
X84250000Y-24750000D01*
X84250000Y-24750000D02*
X85250000Y-24750000D01*
X53250000Y-25550000D02*
X53225000Y-24550000D01*
%TO.N,Net-(C3-Pad3)*%
X53225000Y-23050000D02*
X53785002Y-23050000D01*
D17*
X54500000Y-21835002D02*
X54500000Y-20750000D01*
X54500000Y-21835002D02*
X54498545Y-21894231D01*
X54498545Y-21894231D02*
X54494187Y-21953319D01*
X54494187Y-21953319D02*
X54486934Y-22012121D01*
X54486934Y-22012121D02*
X54476805Y-22070496D01*
X54476805Y-22070496D02*
X54463824Y-22128304D01*
X54463824Y-22128304D02*
X54448021Y-22185406D01*
X54448021Y-22185406D02*
X54429436Y-22241663D01*
X54429436Y-22241663D02*
X54408113Y-22296941D01*
X54408113Y-22296941D02*
X54384104Y-22351106D01*
X54384104Y-22351106D02*
X54357465Y-22404027D01*
X54357465Y-22404027D02*
X54328262Y-22455578D01*
X54328262Y-22455578D02*
X54296565Y-22505634D01*
X54296565Y-22505634D02*
X54262449Y-22554074D01*
X54262449Y-22554074D02*
X54225998Y-22600781D01*
X54225998Y-22600781D02*
X54187299Y-22645644D01*
X54187299Y-22645644D02*
X54146446Y-22688555D01*
X54146446Y-22688555D02*
X53785002Y-23050000D01*
D15*
%TO.N,Net-(C7-Pad3)*%
X55475000Y-13800000D02*
X56075000Y-13800000D01*
D17*
X56750000Y-12625000D02*
X56750000Y-11500000D01*
X56750000Y-12625000D02*
X56748545Y-12684229D01*
X56748545Y-12684229D02*
X56744187Y-12743317D01*
X56744187Y-12743317D02*
X56736934Y-12802119D01*
X56736934Y-12802119D02*
X56726805Y-12860494D01*
X56726805Y-12860494D02*
X56713824Y-12918302D01*
X56713824Y-12918302D02*
X56698021Y-12975404D01*
X56698021Y-12975404D02*
X56679436Y-13031661D01*
X56679436Y-13031661D02*
X56658113Y-13086939D01*
X56658113Y-13086939D02*
X56634104Y-13141104D01*
X56634104Y-13141104D02*
X56607465Y-13194025D01*
X56607465Y-13194025D02*
X56578262Y-13245576D01*
X56578262Y-13245576D02*
X56546565Y-13295632D01*
X56546565Y-13295632D02*
X56512449Y-13344072D01*
X56512449Y-13344072D02*
X56475998Y-13390779D01*
X56475998Y-13390779D02*
X56437299Y-13435642D01*
X56437299Y-13435642D02*
X56396446Y-13478553D01*
X56396446Y-13478553D02*
X56075000Y-13800000D01*
D15*
%TO.N,Net-(C8-Pad3)*%
X53225000Y-33550000D02*
X53825000Y-33550000D01*
D17*
X54500000Y-32375000D02*
X54500000Y-31250000D01*
X54500000Y-32375000D02*
X54498545Y-32434229D01*
X54498545Y-32434229D02*
X54494187Y-32493317D01*
X54494187Y-32493317D02*
X54486934Y-32552119D01*
X54486934Y-32552119D02*
X54476805Y-32610494D01*
X54476805Y-32610494D02*
X54463824Y-32668302D01*
X54463824Y-32668302D02*
X54448021Y-32725404D01*
X54448021Y-32725404D02*
X54429436Y-32781661D01*
X54429436Y-32781661D02*
X54408113Y-32836939D01*
X54408113Y-32836939D02*
X54384104Y-32891104D01*
X54384104Y-32891104D02*
X54357465Y-32944025D01*
X54357465Y-32944025D02*
X54328262Y-32995576D01*
X54328262Y-32995576D02*
X54296565Y-33045632D01*
X54296565Y-33045632D02*
X54262449Y-33094072D01*
X54262449Y-33094072D02*
X54225998Y-33140779D01*
X54225998Y-33140779D02*
X54187299Y-33185642D01*
X54187299Y-33185642D02*
X54146446Y-33228553D01*
X54146446Y-33228553D02*
X53825000Y-33550000D01*
D15*
%TO.N,Net-(C9-Pad3)*%
X55475000Y-42800000D02*
X56075000Y-42800000D01*
D17*
X56750000Y-41625000D02*
X56750000Y-40500000D01*
X56750000Y-41625000D02*
X56748545Y-41684229D01*
X56748545Y-41684229D02*
X56744187Y-41743317D01*
X56744187Y-41743317D02*
X56736934Y-41802119D01*
X56736934Y-41802119D02*
X56726805Y-41860494D01*
X56726805Y-41860494D02*
X56713824Y-41918302D01*
X56713824Y-41918302D02*
X56698021Y-41975404D01*
X56698021Y-41975404D02*
X56679436Y-42031661D01*
X56679436Y-42031661D02*
X56658113Y-42086939D01*
X56658113Y-42086939D02*
X56634104Y-42141104D01*
X56634104Y-42141104D02*
X56607465Y-42194025D01*
X56607465Y-42194025D02*
X56578262Y-42245576D01*
X56578262Y-42245576D02*
X56546565Y-42295632D01*
X56546565Y-42295632D02*
X56512449Y-42344072D01*
X56512449Y-42344072D02*
X56475998Y-42390779D01*
X56475998Y-42390779D02*
X56437299Y-42435642D01*
X56437299Y-42435642D02*
X56396446Y-42478553D01*
X56396446Y-42478553D02*
X56075000Y-42800000D01*
D15*
%TO.N,Net-(R14-Pad1)*%
X51000000Y-15425000D02*
X52625000Y-15300000D01*
%TO.N,Net-(R15-Pad1)*%
X48500000Y-35425000D02*
X50375000Y-35050000D01*
%TO.N,Net-(R16-Pad1)*%
X51000000Y-44712500D02*
X52625000Y-44300000D01*
%TO.N,/VOUT*%
X86825000Y-24750000D02*
X87750000Y-24750000D01*
%TO.N,/VIN*%
X55475000Y-15300000D02*
X55100000Y-16200000D01*
X53225000Y-35050000D02*
X53000000Y-36000000D01*
X55475000Y-44300000D02*
X55300000Y-45500000D01*
X12600000Y-25000000D02*
X12200000Y-25000000D01*
%TO.N,Net-(R1-Pad1)*%
X50375000Y-24050000D02*
X49800000Y-24050000D01*
D17*
X49678553Y-24171446D02*
X49800000Y-24050000D01*
X49678553Y-24171446D02*
X49635642Y-24212299D01*
X49635642Y-24212299D02*
X49590779Y-24250998D01*
X49590779Y-24250998D02*
X49544072Y-24287449D01*
X49544072Y-24287449D02*
X49495632Y-24321565D01*
X49495632Y-24321565D02*
X49445576Y-24353262D01*
X49445576Y-24353262D02*
X49394025Y-24382465D01*
X49394025Y-24382465D02*
X49341104Y-24409104D01*
X49341104Y-24409104D02*
X49286939Y-24433113D01*
X49286939Y-24433113D02*
X49231661Y-24454436D01*
X49231661Y-24454436D02*
X49175404Y-24473021D01*
X49175404Y-24473021D02*
X49118302Y-24488824D01*
X49118302Y-24488824D02*
X49060494Y-24501805D01*
X49060494Y-24501805D02*
X49002119Y-24511934D01*
X49002119Y-24511934D02*
X48943317Y-24519186D01*
X48943317Y-24519186D02*
X48884229Y-24523545D01*
X48884229Y-24523545D02*
X48825000Y-24525000D01*
X48825000Y-24525000D02*
X48800000Y-24525000D01*
%TD*%
D18*
%TO.N,/VOUT*%
X97419542Y-22616467D02*
X97663277Y-22664949D01*
X97898591Y-22744828D01*
X98121464Y-22854737D01*
X98328087Y-22992797D01*
X98517388Y-23158810D01*
X98841190Y-23482612D01*
X99007203Y-23671913D01*
X99145263Y-23878536D01*
X99255172Y-24101409D01*
X99335051Y-24336723D01*
X99383533Y-24580458D01*
X99400000Y-24831702D01*
X99400000Y-25168298D01*
X99383533Y-25419542D01*
X99335051Y-25663277D01*
X99255172Y-25898591D01*
X99145263Y-26121464D01*
X99007203Y-26328087D01*
X98841190Y-26517388D01*
X98517388Y-26841190D01*
X98328087Y-27007203D01*
X98121464Y-27145263D01*
X97898591Y-27255172D01*
X97663277Y-27335051D01*
X97419542Y-27383533D01*
X97168298Y-27400000D01*
X92705607Y-27400000D01*
X92555856Y-27385235D01*
X92416590Y-27342942D01*
X92288275Y-27274269D01*
X92175831Y-27181852D01*
X92082818Y-27068296D01*
X91983095Y-26891884D01*
X91909838Y-26701604D01*
X91865243Y-26502646D01*
X91850000Y-26295630D01*
X91850000Y-23976007D01*
X91872942Y-23679704D01*
X91940330Y-23394245D01*
X92052316Y-23118976D01*
X92086965Y-23049678D01*
X92186507Y-22895860D01*
X92313419Y-22771559D01*
X92464527Y-22678169D01*
X92632463Y-22620244D01*
X92814561Y-22600000D01*
X97168298Y-22600000D01*
X97419542Y-22616467D01*
%TA.AperFunction,Conductor*%
D19*
G36*
X97419542Y-22616467D02*
G01*
X97663277Y-22664949D01*
X97898591Y-22744828D01*
X98121464Y-22854737D01*
X98328087Y-22992797D01*
X98517388Y-23158810D01*
X98841190Y-23482612D01*
X99007203Y-23671913D01*
X99145263Y-23878536D01*
X99255172Y-24101409D01*
X99335051Y-24336723D01*
X99383533Y-24580458D01*
X99400000Y-24831702D01*
X99400000Y-25168298D01*
X99383533Y-25419542D01*
X99335051Y-25663277D01*
X99255172Y-25898591D01*
X99145263Y-26121464D01*
X99007203Y-26328087D01*
X98841190Y-26517388D01*
X98517388Y-26841190D01*
X98328087Y-27007203D01*
X98121464Y-27145263D01*
X97898591Y-27255172D01*
X97663277Y-27335051D01*
X97419542Y-27383533D01*
X97168298Y-27400000D01*
X92705607Y-27400000D01*
X92555856Y-27385235D01*
X92416590Y-27342942D01*
X92288275Y-27274269D01*
X92175831Y-27181852D01*
X92082818Y-27068296D01*
X91983095Y-26891884D01*
X91909838Y-26701604D01*
X91865243Y-26502646D01*
X91850000Y-26295630D01*
X91850000Y-23976007D01*
X91872942Y-23679704D01*
X91940330Y-23394245D01*
X92052316Y-23118976D01*
X92086965Y-23049678D01*
X92186507Y-22895860D01*
X92313419Y-22771559D01*
X92464527Y-22678169D01*
X92632463Y-22620244D01*
X92814561Y-22600000D01*
X97168298Y-22600000D01*
X97419542Y-22616467D01*
G37*
%TD.AperFunction*%
%TD*%
D18*
%TO.N,/VOUT*%
X54853307Y-19364464D02*
X54949567Y-19404336D01*
X55032232Y-19467768D01*
X55095664Y-19550433D01*
X55135536Y-19646693D01*
X55149137Y-19750000D01*
X55135536Y-19853307D01*
X55095664Y-19949567D01*
X55032232Y-20032232D01*
X55005738Y-20052562D01*
X54965000Y-20048549D01*
X54035000Y-20048549D01*
X53944975Y-20057416D01*
X53858410Y-20083675D01*
X53778632Y-20126318D01*
X53708705Y-20183705D01*
X53651318Y-20253632D01*
X53608675Y-20333410D01*
X53582416Y-20419975D01*
X53573549Y-20510000D01*
X53573549Y-20990000D01*
X53582416Y-21080025D01*
X53608675Y-21166590D01*
X53650000Y-21243902D01*
X53650000Y-22243441D01*
X53635536Y-22353307D01*
X53595664Y-22449567D01*
X53532232Y-22532232D01*
X53449567Y-22595664D01*
X53382246Y-22623549D01*
X53117754Y-22623549D01*
X53050433Y-22595664D01*
X52967768Y-22532232D01*
X52926452Y-22478389D01*
X52926452Y-22360000D01*
X52920660Y-22301190D01*
X52903505Y-22244639D01*
X52875648Y-22192522D01*
X52850000Y-22161269D01*
X52850000Y-20254908D01*
X52867768Y-20074515D01*
X52918955Y-19905771D01*
X53002080Y-19750255D01*
X53113946Y-19613946D01*
X53250255Y-19502080D01*
X53405771Y-19418955D01*
X53574515Y-19367768D01*
X53754908Y-19350000D01*
X54743441Y-19350000D01*
X54853307Y-19364464D01*
%TA.AperFunction,Conductor*%
D19*
G36*
X54853307Y-19364464D02*
G01*
X54949567Y-19404336D01*
X55032232Y-19467768D01*
X55095664Y-19550433D01*
X55135536Y-19646693D01*
X55149137Y-19750000D01*
X55135536Y-19853307D01*
X55095664Y-19949567D01*
X55032232Y-20032232D01*
X55005738Y-20052562D01*
X54965000Y-20048549D01*
X54035000Y-20048549D01*
X53944975Y-20057416D01*
X53858410Y-20083675D01*
X53778632Y-20126318D01*
X53708705Y-20183705D01*
X53651318Y-20253632D01*
X53608675Y-20333410D01*
X53582416Y-20419975D01*
X53573549Y-20510000D01*
X53573549Y-20990000D01*
X53582416Y-21080025D01*
X53608675Y-21166590D01*
X53650000Y-21243902D01*
X53650000Y-22243441D01*
X53635536Y-22353307D01*
X53595664Y-22449567D01*
X53532232Y-22532232D01*
X53449567Y-22595664D01*
X53382246Y-22623549D01*
X53117754Y-22623549D01*
X53050433Y-22595664D01*
X52967768Y-22532232D01*
X52926452Y-22478389D01*
X52926452Y-22360000D01*
X52920660Y-22301190D01*
X52903505Y-22244639D01*
X52875648Y-22192522D01*
X52850000Y-22161269D01*
X52850000Y-20254908D01*
X52867768Y-20074515D01*
X52918955Y-19905771D01*
X53002080Y-19750255D01*
X53113946Y-19613946D01*
X53250255Y-19502080D01*
X53405771Y-19418955D01*
X53574515Y-19367768D01*
X53754908Y-19350000D01*
X54743441Y-19350000D01*
X54853307Y-19364464D01*
G37*
%TD.AperFunction*%
%TD*%
D18*
%TO.N,/VOUT*%
X57103307Y-10114464D02*
X57199567Y-10154336D01*
X57282232Y-10217768D01*
X57345664Y-10300433D01*
X57385536Y-10396693D01*
X57399137Y-10500000D01*
X57385536Y-10603307D01*
X57345664Y-10699567D01*
X57282232Y-10782232D01*
X57255738Y-10802562D01*
X57215000Y-10798549D01*
X56285000Y-10798549D01*
X56194975Y-10807416D01*
X56108410Y-10833675D01*
X56028632Y-10876318D01*
X55958705Y-10933705D01*
X55901318Y-11003632D01*
X55858675Y-11083410D01*
X55832416Y-11169975D01*
X55823549Y-11260000D01*
X55823549Y-11740000D01*
X55832416Y-11830025D01*
X55858675Y-11916590D01*
X55900000Y-11993902D01*
X55900000Y-12993441D01*
X55885536Y-13103307D01*
X55845664Y-13199567D01*
X55782232Y-13282232D01*
X55699567Y-13345664D01*
X55632246Y-13373549D01*
X55367754Y-13373549D01*
X55300433Y-13345664D01*
X55217768Y-13282232D01*
X55176452Y-13228389D01*
X55176452Y-13110000D01*
X55170660Y-13051190D01*
X55153505Y-12994639D01*
X55125648Y-12942522D01*
X55100000Y-12911269D01*
X55100000Y-11004908D01*
X55117768Y-10824515D01*
X55168955Y-10655771D01*
X55252080Y-10500255D01*
X55363946Y-10363946D01*
X55500255Y-10252080D01*
X55655771Y-10168955D01*
X55824515Y-10117768D01*
X56004908Y-10100000D01*
X56993441Y-10100000D01*
X57103307Y-10114464D01*
%TA.AperFunction,Conductor*%
D19*
G36*
X57103307Y-10114464D02*
G01*
X57199567Y-10154336D01*
X57282232Y-10217768D01*
X57345664Y-10300433D01*
X57385536Y-10396693D01*
X57399137Y-10500000D01*
X57385536Y-10603307D01*
X57345664Y-10699567D01*
X57282232Y-10782232D01*
X57255738Y-10802562D01*
X57215000Y-10798549D01*
X56285000Y-10798549D01*
X56194975Y-10807416D01*
X56108410Y-10833675D01*
X56028632Y-10876318D01*
X55958705Y-10933705D01*
X55901318Y-11003632D01*
X55858675Y-11083410D01*
X55832416Y-11169975D01*
X55823549Y-11260000D01*
X55823549Y-11740000D01*
X55832416Y-11830025D01*
X55858675Y-11916590D01*
X55900000Y-11993902D01*
X55900000Y-12993441D01*
X55885536Y-13103307D01*
X55845664Y-13199567D01*
X55782232Y-13282232D01*
X55699567Y-13345664D01*
X55632246Y-13373549D01*
X55367754Y-13373549D01*
X55300433Y-13345664D01*
X55217768Y-13282232D01*
X55176452Y-13228389D01*
X55176452Y-13110000D01*
X55170660Y-13051190D01*
X55153505Y-12994639D01*
X55125648Y-12942522D01*
X55100000Y-12911269D01*
X55100000Y-11004908D01*
X55117768Y-10824515D01*
X55168955Y-10655771D01*
X55252080Y-10500255D01*
X55363946Y-10363946D01*
X55500255Y-10252080D01*
X55655771Y-10168955D01*
X55824515Y-10117768D01*
X56004908Y-10100000D01*
X56993441Y-10100000D01*
X57103307Y-10114464D01*
G37*
%TD.AperFunction*%
%TD*%
D18*
%TO.N,/VOUT*%
X54853307Y-29864464D02*
X54949567Y-29904336D01*
X55032232Y-29967768D01*
X55095664Y-30050433D01*
X55135536Y-30146693D01*
X55149137Y-30250000D01*
X55135536Y-30353307D01*
X55095664Y-30449567D01*
X55032232Y-30532232D01*
X55005738Y-30552562D01*
X54965000Y-30548549D01*
X54035000Y-30548549D01*
X53944975Y-30557416D01*
X53858410Y-30583675D01*
X53778632Y-30626318D01*
X53708705Y-30683705D01*
X53651318Y-30753632D01*
X53608675Y-30833410D01*
X53582416Y-30919975D01*
X53573549Y-31010000D01*
X53573549Y-31490000D01*
X53582416Y-31580025D01*
X53608675Y-31666590D01*
X53650000Y-31743902D01*
X53650000Y-32743441D01*
X53635536Y-32853307D01*
X53595664Y-32949567D01*
X53532232Y-33032232D01*
X53449567Y-33095664D01*
X53382246Y-33123549D01*
X53117754Y-33123549D01*
X53050433Y-33095664D01*
X52967768Y-33032232D01*
X52926452Y-32978389D01*
X52926452Y-32860000D01*
X52920660Y-32801190D01*
X52903505Y-32744639D01*
X52875648Y-32692522D01*
X52850000Y-32661269D01*
X52850000Y-30754908D01*
X52867768Y-30574515D01*
X52918955Y-30405771D01*
X53002080Y-30250255D01*
X53113946Y-30113946D01*
X53250255Y-30002080D01*
X53405771Y-29918955D01*
X53574515Y-29867768D01*
X53754908Y-29850000D01*
X54743441Y-29850000D01*
X54853307Y-29864464D01*
%TA.AperFunction,Conductor*%
D19*
G36*
X54853307Y-29864464D02*
G01*
X54949567Y-29904336D01*
X55032232Y-29967768D01*
X55095664Y-30050433D01*
X55135536Y-30146693D01*
X55149137Y-30250000D01*
X55135536Y-30353307D01*
X55095664Y-30449567D01*
X55032232Y-30532232D01*
X55005738Y-30552562D01*
X54965000Y-30548549D01*
X54035000Y-30548549D01*
X53944975Y-30557416D01*
X53858410Y-30583675D01*
X53778632Y-30626318D01*
X53708705Y-30683705D01*
X53651318Y-30753632D01*
X53608675Y-30833410D01*
X53582416Y-30919975D01*
X53573549Y-31010000D01*
X53573549Y-31490000D01*
X53582416Y-31580025D01*
X53608675Y-31666590D01*
X53650000Y-31743902D01*
X53650000Y-32743441D01*
X53635536Y-32853307D01*
X53595664Y-32949567D01*
X53532232Y-33032232D01*
X53449567Y-33095664D01*
X53382246Y-33123549D01*
X53117754Y-33123549D01*
X53050433Y-33095664D01*
X52967768Y-33032232D01*
X52926452Y-32978389D01*
X52926452Y-32860000D01*
X52920660Y-32801190D01*
X52903505Y-32744639D01*
X52875648Y-32692522D01*
X52850000Y-32661269D01*
X52850000Y-30754908D01*
X52867768Y-30574515D01*
X52918955Y-30405771D01*
X53002080Y-30250255D01*
X53113946Y-30113946D01*
X53250255Y-30002080D01*
X53405771Y-29918955D01*
X53574515Y-29867768D01*
X53754908Y-29850000D01*
X54743441Y-29850000D01*
X54853307Y-29864464D01*
G37*
%TD.AperFunction*%
%TD*%
D18*
%TO.N,/VOUT*%
X57103307Y-39114464D02*
X57199567Y-39154336D01*
X57282232Y-39217768D01*
X57345664Y-39300433D01*
X57385536Y-39396693D01*
X57399137Y-39500000D01*
X57385536Y-39603307D01*
X57345664Y-39699567D01*
X57282232Y-39782232D01*
X57255738Y-39802562D01*
X57215000Y-39798549D01*
X56285000Y-39798549D01*
X56194975Y-39807416D01*
X56108410Y-39833675D01*
X56028632Y-39876318D01*
X55958705Y-39933705D01*
X55901318Y-40003632D01*
X55858675Y-40083410D01*
X55832416Y-40169975D01*
X55823549Y-40260000D01*
X55823549Y-40740000D01*
X55832416Y-40830025D01*
X55858675Y-40916590D01*
X55900000Y-40993902D01*
X55900000Y-41993441D01*
X55885536Y-42103307D01*
X55845664Y-42199567D01*
X55782232Y-42282232D01*
X55699567Y-42345664D01*
X55632246Y-42373549D01*
X55367754Y-42373549D01*
X55300433Y-42345664D01*
X55217768Y-42282232D01*
X55176452Y-42228389D01*
X55176452Y-42110000D01*
X55170660Y-42051190D01*
X55153505Y-41994639D01*
X55125648Y-41942522D01*
X55100000Y-41911269D01*
X55100000Y-40004908D01*
X55117768Y-39824515D01*
X55168955Y-39655771D01*
X55252080Y-39500255D01*
X55363946Y-39363946D01*
X55500255Y-39252080D01*
X55655771Y-39168955D01*
X55824515Y-39117768D01*
X56004908Y-39100000D01*
X56993441Y-39100000D01*
X57103307Y-39114464D01*
%TA.AperFunction,Conductor*%
D19*
G36*
X57103307Y-39114464D02*
G01*
X57199567Y-39154336D01*
X57282232Y-39217768D01*
X57345664Y-39300433D01*
X57385536Y-39396693D01*
X57399137Y-39500000D01*
X57385536Y-39603307D01*
X57345664Y-39699567D01*
X57282232Y-39782232D01*
X57255738Y-39802562D01*
X57215000Y-39798549D01*
X56285000Y-39798549D01*
X56194975Y-39807416D01*
X56108410Y-39833675D01*
X56028632Y-39876318D01*
X55958705Y-39933705D01*
X55901318Y-40003632D01*
X55858675Y-40083410D01*
X55832416Y-40169975D01*
X55823549Y-40260000D01*
X55823549Y-40740000D01*
X55832416Y-40830025D01*
X55858675Y-40916590D01*
X55900000Y-40993902D01*
X55900000Y-41993441D01*
X55885536Y-42103307D01*
X55845664Y-42199567D01*
X55782232Y-42282232D01*
X55699567Y-42345664D01*
X55632246Y-42373549D01*
X55367754Y-42373549D01*
X55300433Y-42345664D01*
X55217768Y-42282232D01*
X55176452Y-42228389D01*
X55176452Y-42110000D01*
X55170660Y-42051190D01*
X55153505Y-41994639D01*
X55125648Y-41942522D01*
X55100000Y-41911269D01*
X55100000Y-40004908D01*
X55117768Y-39824515D01*
X55168955Y-39655771D01*
X55252080Y-39500255D01*
X55363946Y-39363946D01*
X55500255Y-39252080D01*
X55655771Y-39168955D01*
X55824515Y-39117768D01*
X56004908Y-39100000D01*
X56993441Y-39100000D01*
X57103307Y-39114464D01*
G37*
%TD.AperFunction*%
%TD*%
D18*
%TO.N,Net-(C2-Pad1)*%
X57669542Y-21116467D02*
X57913277Y-21164949D01*
X58148591Y-21244828D01*
X58371464Y-21354737D01*
X58549295Y-21473559D01*
X58945135Y-21869399D01*
X59058448Y-21998607D01*
X59145263Y-22128536D01*
X59255172Y-22351409D01*
X59335051Y-22586723D01*
X59383533Y-22830458D01*
X59400000Y-23081702D01*
X59400000Y-27995092D01*
X59382232Y-28175485D01*
X59331045Y-28344229D01*
X59247920Y-28499745D01*
X59136054Y-28636054D01*
X58999745Y-28747920D01*
X58844229Y-28831045D01*
X58675485Y-28882232D01*
X58495092Y-28900000D01*
X58331702Y-28900000D01*
X58080458Y-28883533D01*
X57836723Y-28835051D01*
X57601409Y-28755172D01*
X57378536Y-28645263D01*
X57248607Y-28558448D01*
X57119399Y-28445135D01*
X57047918Y-28373654D01*
X57033590Y-28360234D01*
X56836900Y-28187741D01*
X56805767Y-28163852D01*
X56804281Y-28162859D01*
X55927733Y-27286311D01*
X55786983Y-27114807D01*
X55684722Y-26923489D01*
X55621746Y-26715889D01*
X55576324Y-26254703D01*
X55572500Y-26235476D01*
X55503808Y-26009031D01*
X55496306Y-25990921D01*
X55384758Y-25782228D01*
X55373867Y-25765928D01*
X55223748Y-25583008D01*
X55217158Y-25575736D01*
X54174264Y-24532842D01*
X54166992Y-24526252D01*
X53984072Y-24376133D01*
X53967772Y-24365242D01*
X53849407Y-24301975D01*
X53825647Y-24257523D01*
X53788158Y-24211842D01*
X53742477Y-24174353D01*
X53690360Y-24146496D01*
X53633810Y-24129341D01*
X53575000Y-24123549D01*
X53220752Y-24123549D01*
X53214327Y-24123078D01*
X53210523Y-24123549D01*
X52926452Y-24123549D01*
X52926452Y-23990068D01*
X53205609Y-23976451D01*
X53575000Y-23976451D01*
X53633810Y-23970659D01*
X53690360Y-23953504D01*
X53742477Y-23925647D01*
X53788158Y-23888158D01*
X53825647Y-23842477D01*
X53853504Y-23790360D01*
X53870659Y-23733810D01*
X53875560Y-23684046D01*
X53967772Y-23634758D01*
X53984072Y-23623867D01*
X54166992Y-23473748D01*
X54174264Y-23467158D01*
X55055546Y-22585876D01*
X55062136Y-22578604D01*
X55174725Y-22441413D01*
X55185616Y-22425114D01*
X55269278Y-22268595D01*
X55276780Y-22250483D01*
X55328298Y-22080649D01*
X55332122Y-22061423D01*
X55349518Y-21884802D01*
X55350000Y-21875000D01*
X55350000Y-21858461D01*
X55364953Y-21706639D01*
X55407808Y-21565366D01*
X55477400Y-21435169D01*
X55571053Y-21321053D01*
X55685169Y-21227400D01*
X55815366Y-21157808D01*
X55956639Y-21114953D01*
X56108461Y-21100000D01*
X57418298Y-21100000D01*
X57669542Y-21116467D01*
%TA.AperFunction,Conductor*%
D19*
G36*
X57669542Y-21116467D02*
G01*
X57913277Y-21164949D01*
X58148591Y-21244828D01*
X58371464Y-21354737D01*
X58549295Y-21473559D01*
X58945135Y-21869399D01*
X59058448Y-21998607D01*
X59145263Y-22128536D01*
X59255172Y-22351409D01*
X59335051Y-22586723D01*
X59383533Y-22830458D01*
X59400000Y-23081702D01*
X59400000Y-27995092D01*
X59382232Y-28175485D01*
X59331045Y-28344229D01*
X59247920Y-28499745D01*
X59136054Y-28636054D01*
X58999745Y-28747920D01*
X58844229Y-28831045D01*
X58675485Y-28882232D01*
X58495092Y-28900000D01*
X58331702Y-28900000D01*
X58080458Y-28883533D01*
X57836723Y-28835051D01*
X57601409Y-28755172D01*
X57378536Y-28645263D01*
X57248607Y-28558448D01*
X57119399Y-28445135D01*
X57047918Y-28373654D01*
X57033590Y-28360234D01*
X56836900Y-28187741D01*
X56805767Y-28163852D01*
X56804281Y-28162859D01*
X55927733Y-27286311D01*
X55786983Y-27114807D01*
X55684722Y-26923489D01*
X55621746Y-26715889D01*
X55576324Y-26254703D01*
X55572500Y-26235476D01*
X55503808Y-26009031D01*
X55496306Y-25990921D01*
X55384758Y-25782228D01*
X55373867Y-25765928D01*
X55223748Y-25583008D01*
X55217158Y-25575736D01*
X54174264Y-24532842D01*
X54166992Y-24526252D01*
X53984072Y-24376133D01*
X53967772Y-24365242D01*
X53849407Y-24301975D01*
X53825647Y-24257523D01*
X53788158Y-24211842D01*
X53742477Y-24174353D01*
X53690360Y-24146496D01*
X53633810Y-24129341D01*
X53575000Y-24123549D01*
X53220752Y-24123549D01*
X53214327Y-24123078D01*
X53210523Y-24123549D01*
X52926452Y-24123549D01*
X52926452Y-23990068D01*
X53205609Y-23976451D01*
X53575000Y-23976451D01*
X53633810Y-23970659D01*
X53690360Y-23953504D01*
X53742477Y-23925647D01*
X53788158Y-23888158D01*
X53825647Y-23842477D01*
X53853504Y-23790360D01*
X53870659Y-23733810D01*
X53875560Y-23684046D01*
X53967772Y-23634758D01*
X53984072Y-23623867D01*
X54166992Y-23473748D01*
X54174264Y-23467158D01*
X55055546Y-22585876D01*
X55062136Y-22578604D01*
X55174725Y-22441413D01*
X55185616Y-22425114D01*
X55269278Y-22268595D01*
X55276780Y-22250483D01*
X55328298Y-22080649D01*
X55332122Y-22061423D01*
X55349518Y-21884802D01*
X55350000Y-21875000D01*
X55350000Y-21858461D01*
X55364953Y-21706639D01*
X55407808Y-21565366D01*
X55477400Y-21435169D01*
X55571053Y-21321053D01*
X55685169Y-21227400D01*
X55815366Y-21157808D01*
X55956639Y-21114953D01*
X56108461Y-21100000D01*
X57418298Y-21100000D01*
X57669542Y-21116467D01*
G37*
%TD.AperFunction*%
%TD*%
D18*
%TO.N,/GND_SET1*%
X57419542Y-8366467D02*
X57663277Y-8414949D01*
X57898591Y-8494828D01*
X58121464Y-8604737D01*
X58328087Y-8742797D01*
X58517388Y-8908810D01*
X62341190Y-12732612D01*
X62507203Y-12921913D01*
X62645263Y-13128536D01*
X62755172Y-13351409D01*
X62835051Y-13586723D01*
X62883533Y-13830458D01*
X62900000Y-14081702D01*
X62900000Y-32648519D01*
X62880233Y-32923673D01*
X62822105Y-33189653D01*
X62726552Y-33444595D01*
X62595537Y-33683263D01*
X62431746Y-33900756D01*
X62238558Y-34092592D01*
X62017040Y-34256989D01*
X55118143Y-38647196D01*
X55109957Y-38653002D01*
X54966506Y-38765985D01*
X54952080Y-38779906D01*
X54834048Y-38919231D01*
X54822687Y-38935749D01*
X54734818Y-39095818D01*
X54726981Y-39114271D01*
X54672806Y-39288651D01*
X54668808Y-39308295D01*
X54650660Y-39488430D01*
X54635536Y-39603307D01*
X54595664Y-39699567D01*
X54532232Y-39782232D01*
X54500051Y-39806926D01*
X54415000Y-39798549D01*
X53573355Y-39798549D01*
X53504379Y-39745621D01*
X53421084Y-39637070D01*
X53368723Y-39510659D01*
X53350517Y-39372367D01*
X53367652Y-39154648D01*
X53419250Y-38939726D01*
X53503834Y-38735521D01*
X53619322Y-38547063D01*
X53765431Y-38375991D01*
X55234925Y-36906497D01*
X55239398Y-36901721D01*
X55411891Y-36705031D01*
X55419854Y-36694653D01*
X55565198Y-36477130D01*
X55571738Y-36465802D01*
X55687446Y-36231169D01*
X55692452Y-36219084D01*
X55776545Y-35971355D01*
X55779931Y-35958720D01*
X55830969Y-35702134D01*
X55832676Y-35689165D01*
X55849786Y-35428113D01*
X55850000Y-35421573D01*
X55850000Y-30353553D01*
X55849518Y-30343751D01*
X55833117Y-30177231D01*
X55829293Y-30158004D01*
X55780721Y-29997884D01*
X55773219Y-29979773D01*
X55694342Y-29832205D01*
X55683451Y-29815906D01*
X55577301Y-29686561D01*
X55563439Y-29672699D01*
X55434094Y-29566549D01*
X55417795Y-29555658D01*
X55270227Y-29476781D01*
X55252116Y-29469279D01*
X55091996Y-29420707D01*
X55072769Y-29416883D01*
X54906249Y-29400482D01*
X54896447Y-29400000D01*
X52926777Y-29400000D01*
X52913724Y-29400856D01*
X52803266Y-29415398D01*
X52778051Y-29422154D01*
X52675120Y-29464789D01*
X52652512Y-29477842D01*
X52564124Y-29545665D01*
X52545665Y-29564124D01*
X52477842Y-29652512D01*
X52464789Y-29675120D01*
X52422154Y-29778051D01*
X52415398Y-29803266D01*
X52400856Y-29913724D01*
X52400000Y-29926777D01*
X52400000Y-30243441D01*
X52385536Y-30353307D01*
X52345664Y-30449567D01*
X52282232Y-30532232D01*
X52250051Y-30556926D01*
X52165000Y-30548549D01*
X51239032Y-30548549D01*
X51217768Y-30532232D01*
X51154336Y-30449567D01*
X51114464Y-30353307D01*
X51100646Y-30248349D01*
X51121746Y-30034111D01*
X51184722Y-29826511D01*
X51286983Y-29635193D01*
X51427733Y-29463689D01*
X52232612Y-28658810D01*
X52421913Y-28492797D01*
X52628536Y-28354737D01*
X52851409Y-28244828D01*
X53086723Y-28164949D01*
X53330458Y-28116467D01*
X53581702Y-28100000D01*
X55418298Y-28100000D01*
X55669542Y-28116467D01*
X55913277Y-28164949D01*
X56148591Y-28244828D01*
X56371464Y-28354737D01*
X56578087Y-28492797D01*
X56767388Y-28658810D01*
X56843503Y-28734925D01*
X56848279Y-28739398D01*
X57044969Y-28911891D01*
X57055347Y-28919854D01*
X57272870Y-29065198D01*
X57284198Y-29071738D01*
X57518831Y-29187446D01*
X57530916Y-29192452D01*
X57778645Y-29276545D01*
X57791280Y-29279931D01*
X58047866Y-29330969D01*
X58060835Y-29332676D01*
X58321887Y-29349786D01*
X58328427Y-29350000D01*
X58625000Y-29350000D01*
X58634802Y-29349518D01*
X58854279Y-29327901D01*
X58873506Y-29324077D01*
X59084548Y-29260058D01*
X59102659Y-29252556D01*
X59297157Y-29148595D01*
X59313456Y-29137704D01*
X59483934Y-28997796D01*
X59497796Y-28983934D01*
X59637704Y-28813456D01*
X59648595Y-28797157D01*
X59752556Y-28602659D01*
X59760058Y-28584548D01*
X59824077Y-28373506D01*
X59827901Y-28354279D01*
X59849518Y-28134802D01*
X59850000Y-28125000D01*
X59850000Y-23078427D01*
X59849786Y-23071887D01*
X59832676Y-22810835D01*
X59830969Y-22797866D01*
X59779931Y-22541280D01*
X59776545Y-22528645D01*
X59692452Y-22280916D01*
X59687446Y-22268831D01*
X59571738Y-22034198D01*
X59565198Y-22022870D01*
X59419854Y-21805347D01*
X59411891Y-21794969D01*
X59239398Y-21598279D01*
X59234925Y-21593503D01*
X58762653Y-21121231D01*
X58756887Y-21115901D01*
X58576844Y-20962130D01*
X58564149Y-20952907D01*
X58362269Y-20829194D01*
X58348287Y-20822070D01*
X58129539Y-20731462D01*
X58114615Y-20726613D01*
X57884385Y-20671340D01*
X57868887Y-20668885D01*
X57404648Y-20632348D01*
X57189726Y-20580750D01*
X56985521Y-20496166D01*
X56797063Y-20380678D01*
X56625991Y-20234569D01*
X55906497Y-19515075D01*
X55901721Y-19510602D01*
X55705031Y-19338109D01*
X55694653Y-19330146D01*
X55477130Y-19184802D01*
X55465802Y-19178262D01*
X55231169Y-19062554D01*
X55219084Y-19057548D01*
X54971355Y-18973455D01*
X54958720Y-18970069D01*
X54702134Y-18919031D01*
X54689165Y-18917324D01*
X54428113Y-18900214D01*
X54421573Y-18900000D01*
X53125000Y-18900000D01*
X53111948Y-18900855D01*
X52950186Y-18922151D01*
X52924970Y-18928908D01*
X52774232Y-18991346D01*
X52751624Y-19004399D01*
X52622182Y-19103723D01*
X52603723Y-19122182D01*
X52504399Y-19251624D01*
X52491346Y-19274232D01*
X52428908Y-19424970D01*
X52422151Y-19450186D01*
X52381277Y-19760659D01*
X52328916Y-19887070D01*
X52245621Y-19995621D01*
X52175320Y-20049565D01*
X52165000Y-20048549D01*
X51323355Y-20048549D01*
X51254379Y-19995621D01*
X51171084Y-19887070D01*
X51118723Y-19760659D01*
X51100517Y-19622367D01*
X51117652Y-19404648D01*
X51169250Y-19189726D01*
X51253834Y-18985521D01*
X51369322Y-18797063D01*
X51515431Y-18625991D01*
X51567933Y-18573489D01*
X51762657Y-18407179D01*
X51886879Y-18331056D01*
X60400000Y-18331056D01*
X60400000Y-18468944D01*
X60426901Y-18604182D01*
X60479668Y-18731574D01*
X60556274Y-18846224D01*
X60653776Y-18943726D01*
X60768426Y-19020332D01*
X60895818Y-19073099D01*
X61031056Y-19100000D01*
X61168944Y-19100000D01*
X61304182Y-19073099D01*
X61431574Y-19020332D01*
X61546224Y-18943726D01*
X61643726Y-18846224D01*
X61720332Y-18731574D01*
X61773099Y-18604182D01*
X61800000Y-18468944D01*
X61800000Y-18331056D01*
X61773099Y-18195818D01*
X61720332Y-18068426D01*
X61643726Y-17953776D01*
X61546224Y-17856274D01*
X61431574Y-17779668D01*
X61304182Y-17726901D01*
X61168944Y-17700000D01*
X61031056Y-17700000D01*
X60895818Y-17726901D01*
X60768426Y-17779668D01*
X60653776Y-17856274D01*
X60556274Y-17953776D01*
X60479668Y-18068426D01*
X60426901Y-18195818D01*
X60400000Y-18331056D01*
X51886879Y-18331056D01*
X51977637Y-18275440D01*
X52210578Y-18178952D01*
X52455747Y-18120092D01*
X52711039Y-18100000D01*
X55171573Y-18100000D01*
X55178113Y-18099786D01*
X55439165Y-18082676D01*
X55452134Y-18080969D01*
X55708720Y-18029931D01*
X55721355Y-18026545D01*
X55969084Y-17942452D01*
X55981169Y-17937446D01*
X56215802Y-17821738D01*
X56227130Y-17815198D01*
X56444653Y-17669854D01*
X56455031Y-17661891D01*
X56651721Y-17489398D01*
X56656497Y-17484925D01*
X57484925Y-16656497D01*
X57489398Y-16651721D01*
X57661891Y-16455031D01*
X57669854Y-16444653D01*
X57815198Y-16227130D01*
X57821738Y-16215802D01*
X57937446Y-15981169D01*
X57942452Y-15969084D01*
X58026545Y-15721355D01*
X58029931Y-15708720D01*
X58080969Y-15452134D01*
X58082676Y-15439165D01*
X58099786Y-15178113D01*
X58100000Y-15171573D01*
X58100000Y-12431056D01*
X60400000Y-12431056D01*
X60400000Y-12568944D01*
X60426901Y-12704182D01*
X60479668Y-12831574D01*
X60556274Y-12946224D01*
X60653776Y-13043726D01*
X60768426Y-13120332D01*
X60895818Y-13173099D01*
X61031056Y-13200000D01*
X61168944Y-13200000D01*
X61304182Y-13173099D01*
X61431574Y-13120332D01*
X61546224Y-13043726D01*
X61643726Y-12946224D01*
X61720332Y-12831574D01*
X61773099Y-12704182D01*
X61800000Y-12568944D01*
X61800000Y-12431056D01*
X61773099Y-12295818D01*
X61720332Y-12168426D01*
X61643726Y-12053776D01*
X61546224Y-11956274D01*
X61431574Y-11879668D01*
X61304182Y-11826901D01*
X61168944Y-11800000D01*
X61031056Y-11800000D01*
X60895818Y-11826901D01*
X60768426Y-11879668D01*
X60653776Y-11956274D01*
X60556274Y-12053776D01*
X60479668Y-12168426D01*
X60426901Y-12295818D01*
X60400000Y-12431056D01*
X58100000Y-12431056D01*
X58100000Y-10280489D01*
X58098969Y-10266169D01*
X58078416Y-10124122D01*
X58070298Y-10096656D01*
X58010325Y-9966262D01*
X57994755Y-9942224D01*
X57900281Y-9834176D01*
X57880680Y-9816935D01*
X57758713Y-9735179D01*
X57737728Y-9724456D01*
X57600016Y-9673513D01*
X57577104Y-9667998D01*
X57431294Y-9650697D01*
X57419511Y-9650000D01*
X55375000Y-9650000D01*
X55361948Y-9650855D01*
X55200186Y-9672151D01*
X55174970Y-9678908D01*
X55024232Y-9741346D01*
X55001624Y-9754399D01*
X54872182Y-9853723D01*
X54853723Y-9872182D01*
X54754399Y-10001624D01*
X54741346Y-10024232D01*
X54678908Y-10174970D01*
X54672151Y-10200186D01*
X54631277Y-10510659D01*
X54578916Y-10637070D01*
X54495621Y-10745621D01*
X54425320Y-10799565D01*
X54415000Y-10798549D01*
X53660142Y-10798549D01*
X53595130Y-10757699D01*
X53492301Y-10654870D01*
X53414940Y-10531751D01*
X53366913Y-10394498D01*
X53350442Y-10248312D01*
X53371367Y-9982441D01*
X53434020Y-9721471D01*
X53536726Y-9473517D01*
X53676956Y-9244683D01*
X53853819Y-9037603D01*
X53982612Y-8908810D01*
X54171913Y-8742797D01*
X54378536Y-8604737D01*
X54601409Y-8494828D01*
X54836723Y-8414949D01*
X55080458Y-8366467D01*
X55331702Y-8350000D01*
X57168298Y-8350000D01*
X57419542Y-8366467D01*
%TA.AperFunction,Conductor*%
D19*
G36*
X57419542Y-8366467D02*
G01*
X57663277Y-8414949D01*
X57898591Y-8494828D01*
X58121464Y-8604737D01*
X58328087Y-8742797D01*
X58517388Y-8908810D01*
X62341190Y-12732612D01*
X62507203Y-12921913D01*
X62645263Y-13128536D01*
X62755172Y-13351409D01*
X62835051Y-13586723D01*
X62883533Y-13830458D01*
X62900000Y-14081702D01*
X62900000Y-32648519D01*
X62880233Y-32923673D01*
X62822105Y-33189653D01*
X62726552Y-33444595D01*
X62595537Y-33683263D01*
X62431746Y-33900756D01*
X62238558Y-34092592D01*
X62017040Y-34256989D01*
X55118143Y-38647196D01*
X55109957Y-38653002D01*
X54966506Y-38765985D01*
X54952080Y-38779906D01*
X54834048Y-38919231D01*
X54822687Y-38935749D01*
X54734818Y-39095818D01*
X54726981Y-39114271D01*
X54672806Y-39288651D01*
X54668808Y-39308295D01*
X54650660Y-39488430D01*
X54635536Y-39603307D01*
X54595664Y-39699567D01*
X54532232Y-39782232D01*
X54500051Y-39806926D01*
X54415000Y-39798549D01*
X53573355Y-39798549D01*
X53504379Y-39745621D01*
X53421084Y-39637070D01*
X53368723Y-39510659D01*
X53350517Y-39372367D01*
X53367652Y-39154648D01*
X53419250Y-38939726D01*
X53503834Y-38735521D01*
X53619322Y-38547063D01*
X53765431Y-38375991D01*
X55234925Y-36906497D01*
X55239398Y-36901721D01*
X55411891Y-36705031D01*
X55419854Y-36694653D01*
X55565198Y-36477130D01*
X55571738Y-36465802D01*
X55687446Y-36231169D01*
X55692452Y-36219084D01*
X55776545Y-35971355D01*
X55779931Y-35958720D01*
X55830969Y-35702134D01*
X55832676Y-35689165D01*
X55849786Y-35428113D01*
X55850000Y-35421573D01*
X55850000Y-30353553D01*
X55849518Y-30343751D01*
X55833117Y-30177231D01*
X55829293Y-30158004D01*
X55780721Y-29997884D01*
X55773219Y-29979773D01*
X55694342Y-29832205D01*
X55683451Y-29815906D01*
X55577301Y-29686561D01*
X55563439Y-29672699D01*
X55434094Y-29566549D01*
X55417795Y-29555658D01*
X55270227Y-29476781D01*
X55252116Y-29469279D01*
X55091996Y-29420707D01*
X55072769Y-29416883D01*
X54906249Y-29400482D01*
X54896447Y-29400000D01*
X52926777Y-29400000D01*
X52913724Y-29400856D01*
X52803266Y-29415398D01*
X52778051Y-29422154D01*
X52675120Y-29464789D01*
X52652512Y-29477842D01*
X52564124Y-29545665D01*
X52545665Y-29564124D01*
X52477842Y-29652512D01*
X52464789Y-29675120D01*
X52422154Y-29778051D01*
X52415398Y-29803266D01*
X52400856Y-29913724D01*
X52400000Y-29926777D01*
X52400000Y-30243441D01*
X52385536Y-30353307D01*
X52345664Y-30449567D01*
X52282232Y-30532232D01*
X52250051Y-30556926D01*
X52165000Y-30548549D01*
X51239032Y-30548549D01*
X51217768Y-30532232D01*
X51154336Y-30449567D01*
X51114464Y-30353307D01*
X51100646Y-30248349D01*
X51121746Y-30034111D01*
X51184722Y-29826511D01*
X51286983Y-29635193D01*
X51427733Y-29463689D01*
X52232612Y-28658810D01*
X52421913Y-28492797D01*
X52628536Y-28354737D01*
X52851409Y-28244828D01*
X53086723Y-28164949D01*
X53330458Y-28116467D01*
X53581702Y-28100000D01*
X55418298Y-28100000D01*
X55669542Y-28116467D01*
X55913277Y-28164949D01*
X56148591Y-28244828D01*
X56371464Y-28354737D01*
X56578087Y-28492797D01*
X56767388Y-28658810D01*
X56843503Y-28734925D01*
X56848279Y-28739398D01*
X57044969Y-28911891D01*
X57055347Y-28919854D01*
X57272870Y-29065198D01*
X57284198Y-29071738D01*
X57518831Y-29187446D01*
X57530916Y-29192452D01*
X57778645Y-29276545D01*
X57791280Y-29279931D01*
X58047866Y-29330969D01*
X58060835Y-29332676D01*
X58321887Y-29349786D01*
X58328427Y-29350000D01*
X58625000Y-29350000D01*
X58634802Y-29349518D01*
X58854279Y-29327901D01*
X58873506Y-29324077D01*
X59084548Y-29260058D01*
X59102659Y-29252556D01*
X59297157Y-29148595D01*
X59313456Y-29137704D01*
X59483934Y-28997796D01*
X59497796Y-28983934D01*
X59637704Y-28813456D01*
X59648595Y-28797157D01*
X59752556Y-28602659D01*
X59760058Y-28584548D01*
X59824077Y-28373506D01*
X59827901Y-28354279D01*
X59849518Y-28134802D01*
X59850000Y-28125000D01*
X59850000Y-23078427D01*
X59849786Y-23071887D01*
X59832676Y-22810835D01*
X59830969Y-22797866D01*
X59779931Y-22541280D01*
X59776545Y-22528645D01*
X59692452Y-22280916D01*
X59687446Y-22268831D01*
X59571738Y-22034198D01*
X59565198Y-22022870D01*
X59419854Y-21805347D01*
X59411891Y-21794969D01*
X59239398Y-21598279D01*
X59234925Y-21593503D01*
X58762653Y-21121231D01*
X58756887Y-21115901D01*
X58576844Y-20962130D01*
X58564149Y-20952907D01*
X58362269Y-20829194D01*
X58348287Y-20822070D01*
X58129539Y-20731462D01*
X58114615Y-20726613D01*
X57884385Y-20671340D01*
X57868887Y-20668885D01*
X57404648Y-20632348D01*
X57189726Y-20580750D01*
X56985521Y-20496166D01*
X56797063Y-20380678D01*
X56625991Y-20234569D01*
X55906497Y-19515075D01*
X55901721Y-19510602D01*
X55705031Y-19338109D01*
X55694653Y-19330146D01*
X55477130Y-19184802D01*
X55465802Y-19178262D01*
X55231169Y-19062554D01*
X55219084Y-19057548D01*
X54971355Y-18973455D01*
X54958720Y-18970069D01*
X54702134Y-18919031D01*
X54689165Y-18917324D01*
X54428113Y-18900214D01*
X54421573Y-18900000D01*
X53125000Y-18900000D01*
X53111948Y-18900855D01*
X52950186Y-18922151D01*
X52924970Y-18928908D01*
X52774232Y-18991346D01*
X52751624Y-19004399D01*
X52622182Y-19103723D01*
X52603723Y-19122182D01*
X52504399Y-19251624D01*
X52491346Y-19274232D01*
X52428908Y-19424970D01*
X52422151Y-19450186D01*
X52381277Y-19760659D01*
X52328916Y-19887070D01*
X52245621Y-19995621D01*
X52175320Y-20049565D01*
X52165000Y-20048549D01*
X51323355Y-20048549D01*
X51254379Y-19995621D01*
X51171084Y-19887070D01*
X51118723Y-19760659D01*
X51100517Y-19622367D01*
X51117652Y-19404648D01*
X51169250Y-19189726D01*
X51253834Y-18985521D01*
X51369322Y-18797063D01*
X51515431Y-18625991D01*
X51567933Y-18573489D01*
X51762657Y-18407179D01*
X51886879Y-18331056D01*
X60400000Y-18331056D01*
X60400000Y-18468944D01*
X60426901Y-18604182D01*
X60479668Y-18731574D01*
X60556274Y-18846224D01*
X60653776Y-18943726D01*
X60768426Y-19020332D01*
X60895818Y-19073099D01*
X61031056Y-19100000D01*
X61168944Y-19100000D01*
X61304182Y-19073099D01*
X61431574Y-19020332D01*
X61546224Y-18943726D01*
X61643726Y-18846224D01*
X61720332Y-18731574D01*
X61773099Y-18604182D01*
X61800000Y-18468944D01*
X61800000Y-18331056D01*
X61773099Y-18195818D01*
X61720332Y-18068426D01*
X61643726Y-17953776D01*
X61546224Y-17856274D01*
X61431574Y-17779668D01*
X61304182Y-17726901D01*
X61168944Y-17700000D01*
X61031056Y-17700000D01*
X60895818Y-17726901D01*
X60768426Y-17779668D01*
X60653776Y-17856274D01*
X60556274Y-17953776D01*
X60479668Y-18068426D01*
X60426901Y-18195818D01*
X60400000Y-18331056D01*
X51886879Y-18331056D01*
X51977637Y-18275440D01*
X52210578Y-18178952D01*
X52455747Y-18120092D01*
X52711039Y-18100000D01*
X55171573Y-18100000D01*
X55178113Y-18099786D01*
X55439165Y-18082676D01*
X55452134Y-18080969D01*
X55708720Y-18029931D01*
X55721355Y-18026545D01*
X55969084Y-17942452D01*
X55981169Y-17937446D01*
X56215802Y-17821738D01*
X56227130Y-17815198D01*
X56444653Y-17669854D01*
X56455031Y-17661891D01*
X56651721Y-17489398D01*
X56656497Y-17484925D01*
X57484925Y-16656497D01*
X57489398Y-16651721D01*
X57661891Y-16455031D01*
X57669854Y-16444653D01*
X57815198Y-16227130D01*
X57821738Y-16215802D01*
X57937446Y-15981169D01*
X57942452Y-15969084D01*
X58026545Y-15721355D01*
X58029931Y-15708720D01*
X58080969Y-15452134D01*
X58082676Y-15439165D01*
X58099786Y-15178113D01*
X58100000Y-15171573D01*
X58100000Y-12431056D01*
X60400000Y-12431056D01*
X60400000Y-12568944D01*
X60426901Y-12704182D01*
X60479668Y-12831574D01*
X60556274Y-12946224D01*
X60653776Y-13043726D01*
X60768426Y-13120332D01*
X60895818Y-13173099D01*
X61031056Y-13200000D01*
X61168944Y-13200000D01*
X61304182Y-13173099D01*
X61431574Y-13120332D01*
X61546224Y-13043726D01*
X61643726Y-12946224D01*
X61720332Y-12831574D01*
X61773099Y-12704182D01*
X61800000Y-12568944D01*
X61800000Y-12431056D01*
X61773099Y-12295818D01*
X61720332Y-12168426D01*
X61643726Y-12053776D01*
X61546224Y-11956274D01*
X61431574Y-11879668D01*
X61304182Y-11826901D01*
X61168944Y-11800000D01*
X61031056Y-11800000D01*
X60895818Y-11826901D01*
X60768426Y-11879668D01*
X60653776Y-11956274D01*
X60556274Y-12053776D01*
X60479668Y-12168426D01*
X60426901Y-12295818D01*
X60400000Y-12431056D01*
X58100000Y-12431056D01*
X58100000Y-10280489D01*
X58098969Y-10266169D01*
X58078416Y-10124122D01*
X58070298Y-10096656D01*
X58010325Y-9966262D01*
X57994755Y-9942224D01*
X57900281Y-9834176D01*
X57880680Y-9816935D01*
X57758713Y-9735179D01*
X57737728Y-9724456D01*
X57600016Y-9673513D01*
X57577104Y-9667998D01*
X57431294Y-9650697D01*
X57419511Y-9650000D01*
X55375000Y-9650000D01*
X55361948Y-9650855D01*
X55200186Y-9672151D01*
X55174970Y-9678908D01*
X55024232Y-9741346D01*
X55001624Y-9754399D01*
X54872182Y-9853723D01*
X54853723Y-9872182D01*
X54754399Y-10001624D01*
X54741346Y-10024232D01*
X54678908Y-10174970D01*
X54672151Y-10200186D01*
X54631277Y-10510659D01*
X54578916Y-10637070D01*
X54495621Y-10745621D01*
X54425320Y-10799565D01*
X54415000Y-10798549D01*
X53660142Y-10798549D01*
X53595130Y-10757699D01*
X53492301Y-10654870D01*
X53414940Y-10531751D01*
X53366913Y-10394498D01*
X53350442Y-10248312D01*
X53371367Y-9982441D01*
X53434020Y-9721471D01*
X53536726Y-9473517D01*
X53676956Y-9244683D01*
X53853819Y-9037603D01*
X53982612Y-8908810D01*
X54171913Y-8742797D01*
X54378536Y-8604737D01*
X54601409Y-8494828D01*
X54836723Y-8414949D01*
X55080458Y-8366467D01*
X55331702Y-8350000D01*
X57168298Y-8350000D01*
X57419542Y-8366467D01*
G37*
%TD.AperFunction*%
%TD*%
D18*
%TO.N,/VIN*%
X47658193Y-19418149D02*
X47828572Y-19470419D01*
X47985298Y-19555252D01*
X48126057Y-19672513D01*
X50488310Y-22074804D01*
X50601065Y-22214276D01*
X50682492Y-22368558D01*
X50732609Y-22535663D01*
X50734554Y-22555627D01*
X50724352Y-22568522D01*
X50696495Y-22620639D01*
X50679340Y-22677190D01*
X50673548Y-22736000D01*
X50673548Y-23350072D01*
X50607699Y-23454870D01*
X50504870Y-23557699D01*
X50400071Y-23623549D01*
X50062841Y-23623549D01*
X49992269Y-23585827D01*
X49898018Y-23557236D01*
X49800001Y-23547582D01*
X49701984Y-23557235D01*
X49607734Y-23585825D01*
X49520873Y-23632254D01*
X49463815Y-23679079D01*
X49442894Y-23700000D01*
X47804908Y-23700000D01*
X47624515Y-23682232D01*
X47455771Y-23631045D01*
X47300255Y-23547920D01*
X47163946Y-23436054D01*
X47052080Y-23299745D01*
X46968955Y-23144229D01*
X46917768Y-22975485D01*
X46900000Y-22795092D01*
X46900000Y-19856551D01*
X46916166Y-19733756D01*
X46961036Y-19625430D01*
X47032412Y-19532412D01*
X47125430Y-19461036D01*
X47233756Y-19416166D01*
X47356551Y-19400000D01*
X47475891Y-19400000D01*
X47658193Y-19418149D01*
%TA.AperFunction,Conductor*%
D19*
G36*
X47658193Y-19418149D02*
G01*
X47828572Y-19470419D01*
X47985298Y-19555252D01*
X48126057Y-19672513D01*
X50488310Y-22074804D01*
X50601065Y-22214276D01*
X50682492Y-22368558D01*
X50732609Y-22535663D01*
X50734554Y-22555627D01*
X50724352Y-22568522D01*
X50696495Y-22620639D01*
X50679340Y-22677190D01*
X50673548Y-22736000D01*
X50673548Y-23350072D01*
X50607699Y-23454870D01*
X50504870Y-23557699D01*
X50400071Y-23623549D01*
X50062841Y-23623549D01*
X49992269Y-23585827D01*
X49898018Y-23557236D01*
X49800001Y-23547582D01*
X49701984Y-23557235D01*
X49607734Y-23585825D01*
X49520873Y-23632254D01*
X49463815Y-23679079D01*
X49442894Y-23700000D01*
X47804908Y-23700000D01*
X47624515Y-23682232D01*
X47455771Y-23631045D01*
X47300255Y-23547920D01*
X47163946Y-23436054D01*
X47052080Y-23299745D01*
X46968955Y-23144229D01*
X46917768Y-22975485D01*
X46900000Y-22795092D01*
X46900000Y-19856551D01*
X46916166Y-19733756D01*
X46961036Y-19625430D01*
X47032412Y-19532412D01*
X47125430Y-19461036D01*
X47233756Y-19416166D01*
X47356551Y-19400000D01*
X47475891Y-19400000D01*
X47658193Y-19418149D01*
G37*
%TD.AperFunction*%
%TD*%
D18*
%TO.N,/VIN*%
X49958138Y-10218155D02*
X50128548Y-10270445D01*
X50285294Y-10355307D01*
X50426064Y-10472607D01*
X52738404Y-12824815D01*
X52851116Y-12964269D01*
X52932517Y-13118536D01*
X52982616Y-13285615D01*
X52984564Y-13305614D01*
X52974352Y-13318522D01*
X52946495Y-13370639D01*
X52929340Y-13427190D01*
X52923548Y-13486000D01*
X52923548Y-14068162D01*
X52863150Y-14164286D01*
X52764286Y-14263150D01*
X52645900Y-14337536D01*
X52542984Y-14373549D01*
X52275000Y-14373549D01*
X52216190Y-14379341D01*
X52159640Y-14396496D01*
X52153084Y-14400000D01*
X50104908Y-14400000D01*
X49924515Y-14382232D01*
X49755771Y-14331045D01*
X49600255Y-14247920D01*
X49463946Y-14136054D01*
X49352080Y-13999745D01*
X49268955Y-13844229D01*
X49217768Y-13675485D01*
X49200000Y-13495092D01*
X49200000Y-10656551D01*
X49216166Y-10533756D01*
X49261036Y-10425430D01*
X49332412Y-10332412D01*
X49425430Y-10261036D01*
X49533756Y-10216166D01*
X49656551Y-10200000D01*
X49775804Y-10200000D01*
X49958138Y-10218155D01*
%TA.AperFunction,Conductor*%
D19*
G36*
X49958138Y-10218155D02*
G01*
X50128548Y-10270445D01*
X50285294Y-10355307D01*
X50426064Y-10472607D01*
X52738404Y-12824815D01*
X52851116Y-12964269D01*
X52932517Y-13118536D01*
X52982616Y-13285615D01*
X52984564Y-13305614D01*
X52974352Y-13318522D01*
X52946495Y-13370639D01*
X52929340Y-13427190D01*
X52923548Y-13486000D01*
X52923548Y-14068162D01*
X52863150Y-14164286D01*
X52764286Y-14263150D01*
X52645900Y-14337536D01*
X52542984Y-14373549D01*
X52275000Y-14373549D01*
X52216190Y-14379341D01*
X52159640Y-14396496D01*
X52153084Y-14400000D01*
X50104908Y-14400000D01*
X49924515Y-14382232D01*
X49755771Y-14331045D01*
X49600255Y-14247920D01*
X49463946Y-14136054D01*
X49352080Y-13999745D01*
X49268955Y-13844229D01*
X49217768Y-13675485D01*
X49200000Y-13495092D01*
X49200000Y-10656551D01*
X49216166Y-10533756D01*
X49261036Y-10425430D01*
X49332412Y-10332412D01*
X49425430Y-10261036D01*
X49533756Y-10216166D01*
X49656551Y-10200000D01*
X49775804Y-10200000D01*
X49958138Y-10218155D01*
G37*
%TD.AperFunction*%
%TD*%
D18*
%TO.N,/VIN*%
X47658193Y-29918149D02*
X47828572Y-29970419D01*
X47985298Y-30055252D01*
X48126057Y-30172513D01*
X50488310Y-32574804D01*
X50601065Y-32714276D01*
X50682492Y-32868558D01*
X50724412Y-33008331D01*
X50705378Y-33104020D01*
X50696495Y-33120639D01*
X50679340Y-33177190D01*
X50673548Y-33236000D01*
X50673548Y-33850072D01*
X50607699Y-33954870D01*
X50504870Y-34057699D01*
X50400071Y-34123549D01*
X50025000Y-34123549D01*
X49966190Y-34129341D01*
X49909640Y-34146496D01*
X49857523Y-34174353D01*
X49826272Y-34200000D01*
X47804908Y-34200000D01*
X47624515Y-34182232D01*
X47455771Y-34131045D01*
X47300255Y-34047920D01*
X47163946Y-33936054D01*
X47052080Y-33799745D01*
X46968955Y-33644229D01*
X46917768Y-33475485D01*
X46900000Y-33295092D01*
X46900000Y-30356551D01*
X46916166Y-30233756D01*
X46961036Y-30125430D01*
X47032412Y-30032412D01*
X47125430Y-29961036D01*
X47233756Y-29916166D01*
X47356551Y-29900000D01*
X47475891Y-29900000D01*
X47658193Y-29918149D01*
%TA.AperFunction,Conductor*%
D19*
G36*
X47658193Y-29918149D02*
G01*
X47828572Y-29970419D01*
X47985298Y-30055252D01*
X48126057Y-30172513D01*
X50488310Y-32574804D01*
X50601065Y-32714276D01*
X50682492Y-32868558D01*
X50724412Y-33008331D01*
X50705378Y-33104020D01*
X50696495Y-33120639D01*
X50679340Y-33177190D01*
X50673548Y-33236000D01*
X50673548Y-33850072D01*
X50607699Y-33954870D01*
X50504870Y-34057699D01*
X50400071Y-34123549D01*
X50025000Y-34123549D01*
X49966190Y-34129341D01*
X49909640Y-34146496D01*
X49857523Y-34174353D01*
X49826272Y-34200000D01*
X47804908Y-34200000D01*
X47624515Y-34182232D01*
X47455771Y-34131045D01*
X47300255Y-34047920D01*
X47163946Y-33936054D01*
X47052080Y-33799745D01*
X46968955Y-33644229D01*
X46917768Y-33475485D01*
X46900000Y-33295092D01*
X46900000Y-30356551D01*
X46916166Y-30233756D01*
X46961036Y-30125430D01*
X47032412Y-30032412D01*
X47125430Y-29961036D01*
X47233756Y-29916166D01*
X47356551Y-29900000D01*
X47475891Y-29900000D01*
X47658193Y-29918149D01*
G37*
%TD.AperFunction*%
%TD*%
D18*
%TO.N,/VIN*%
X49958138Y-39218155D02*
X50128548Y-39270445D01*
X50285294Y-39355307D01*
X50426064Y-39472607D01*
X52738404Y-41824815D01*
X52851116Y-41964269D01*
X52932517Y-42118536D01*
X52982616Y-42285615D01*
X52984564Y-42305614D01*
X52974352Y-42318522D01*
X52946495Y-42370639D01*
X52929340Y-42427190D01*
X52923548Y-42486000D01*
X52923548Y-43068162D01*
X52863150Y-43164286D01*
X52764286Y-43263150D01*
X52645900Y-43337536D01*
X52542984Y-43373549D01*
X52275000Y-43373549D01*
X52216190Y-43379341D01*
X52159640Y-43396496D01*
X52153084Y-43400000D01*
X50104908Y-43400000D01*
X49924515Y-43382232D01*
X49755771Y-43331045D01*
X49600255Y-43247920D01*
X49463946Y-43136054D01*
X49352080Y-42999745D01*
X49268955Y-42844229D01*
X49217768Y-42675485D01*
X49200000Y-42495092D01*
X49200000Y-39656551D01*
X49216166Y-39533756D01*
X49261036Y-39425430D01*
X49332412Y-39332412D01*
X49425430Y-39261036D01*
X49533756Y-39216166D01*
X49656551Y-39200000D01*
X49775804Y-39200000D01*
X49958138Y-39218155D01*
%TA.AperFunction,Conductor*%
D19*
G36*
X49958138Y-39218155D02*
G01*
X50128548Y-39270445D01*
X50285294Y-39355307D01*
X50426064Y-39472607D01*
X52738404Y-41824815D01*
X52851116Y-41964269D01*
X52932517Y-42118536D01*
X52982616Y-42285615D01*
X52984564Y-42305614D01*
X52974352Y-42318522D01*
X52946495Y-42370639D01*
X52929340Y-42427190D01*
X52923548Y-42486000D01*
X52923548Y-43068162D01*
X52863150Y-43164286D01*
X52764286Y-43263150D01*
X52645900Y-43337536D01*
X52542984Y-43373549D01*
X52275000Y-43373549D01*
X52216190Y-43379341D01*
X52159640Y-43396496D01*
X52153084Y-43400000D01*
X50104908Y-43400000D01*
X49924515Y-43382232D01*
X49755771Y-43331045D01*
X49600255Y-43247920D01*
X49463946Y-43136054D01*
X49352080Y-42999745D01*
X49268955Y-42844229D01*
X49217768Y-42675485D01*
X49200000Y-42495092D01*
X49200000Y-39656551D01*
X49216166Y-39533756D01*
X49261036Y-39425430D01*
X49332412Y-39332412D01*
X49425430Y-39261036D01*
X49533756Y-39216166D01*
X49656551Y-39200000D01*
X49775804Y-39200000D01*
X49958138Y-39218155D01*
G37*
%TD.AperFunction*%
%TD*%
D20*
%TO.N,GND*%
X54146756Y-8246058D02*
X53929233Y-8391402D01*
X53895298Y-8417442D01*
X53698608Y-8589935D01*
X53682990Y-8604562D01*
X53549106Y-8738446D01*
X53531677Y-8757300D01*
X53347152Y-8973351D01*
X53316992Y-9014864D01*
X53176867Y-9243527D01*
X53010197Y-9410197D01*
X52994403Y-9429443D01*
X52982667Y-9451399D01*
X52975440Y-9475224D01*
X52973000Y-9500000D01*
X52973000Y-9812635D01*
X52954327Y-9890413D01*
X52946300Y-9941094D01*
X52924008Y-10224344D01*
X52925056Y-10286612D01*
X52943860Y-10453503D01*
X52960154Y-10524892D01*
X52973000Y-10561604D01*
X52973000Y-11000000D01*
X52975440Y-11024776D01*
X52982667Y-11048601D01*
X52994403Y-11070557D01*
X53010197Y-11089803D01*
X53029443Y-11105597D01*
X53051399Y-11117333D01*
X53075224Y-11124560D01*
X53100000Y-11127000D01*
X53132561Y-11127000D01*
X53139520Y-11135480D01*
X53213558Y-11196241D01*
X53298028Y-11241391D01*
X53389682Y-11269194D01*
X53485000Y-11278582D01*
X53692917Y-11278582D01*
X53725108Y-11289846D01*
X53796497Y-11306140D01*
X53963388Y-11324944D01*
X54000000Y-11327000D01*
X54125000Y-11327000D01*
X54167681Y-11324203D01*
X54329443Y-11302907D01*
X54411900Y-11280812D01*
X54417996Y-11278287D01*
X54510318Y-11269194D01*
X54601972Y-11241391D01*
X54673000Y-11203426D01*
X54673000Y-13724808D01*
X54594463Y-13820506D01*
X54535498Y-13930820D01*
X54499188Y-14050518D01*
X54486928Y-14175000D01*
X54486928Y-14425000D01*
X54499188Y-14549482D01*
X54535498Y-14669180D01*
X54594463Y-14779494D01*
X54673000Y-14875192D01*
X54673000Y-15610956D01*
X54636564Y-15635302D01*
X54535302Y-15736564D01*
X54455741Y-15855636D01*
X54400938Y-15987942D01*
X54373000Y-16128397D01*
X54373000Y-16271603D01*
X54400938Y-16412058D01*
X54455741Y-16544364D01*
X54535302Y-16663436D01*
X54636564Y-16764698D01*
X54673000Y-16789044D01*
X54673000Y-17347394D01*
X54347394Y-17673000D01*
X52000000Y-17673000D01*
X51975224Y-17675440D01*
X51951399Y-17682667D01*
X51929443Y-17694403D01*
X51906680Y-17713858D01*
X51685087Y-17953917D01*
X51532839Y-18047214D01*
X51491325Y-18077375D01*
X51287630Y-18251347D01*
X51268776Y-18268776D01*
X51210718Y-18326834D01*
X51193289Y-18345689D01*
X51039518Y-18525732D01*
X51009358Y-18567243D01*
X50885645Y-18769123D01*
X50862349Y-18814844D01*
X50839528Y-18869940D01*
X50706680Y-19013858D01*
X50691668Y-19033719D01*
X50680819Y-19056128D01*
X50674550Y-19080222D01*
X50673000Y-19100000D01*
X50673000Y-20300000D01*
X50675440Y-20324776D01*
X50682667Y-20348601D01*
X50694403Y-20370557D01*
X50710197Y-20389803D01*
X50729443Y-20405597D01*
X50751399Y-20417333D01*
X50775224Y-20424560D01*
X50800000Y-20427000D01*
X50940113Y-20427000D01*
X50963558Y-20446241D01*
X51048028Y-20491391D01*
X51139682Y-20519194D01*
X51235000Y-20528582D01*
X51332716Y-20528582D01*
X51338100Y-20530812D01*
X51420557Y-20552907D01*
X51582319Y-20574203D01*
X51625000Y-20577000D01*
X51875000Y-20577000D01*
X51917681Y-20574203D01*
X52079443Y-20552907D01*
X52161900Y-20530812D01*
X52167996Y-20528287D01*
X52260318Y-20519194D01*
X52351972Y-20491391D01*
X52423000Y-20453426D01*
X52423000Y-22250000D01*
X52425797Y-22292682D01*
X52442834Y-22422092D01*
X52464928Y-22504547D01*
X52514878Y-22625137D01*
X52546984Y-22680745D01*
X52552732Y-22739103D01*
X52571205Y-22800000D01*
X52552732Y-22860897D01*
X52551033Y-22878146D01*
X52520506Y-22894463D01*
X52423815Y-22973815D01*
X52344463Y-23070506D01*
X52285498Y-23180820D01*
X52249188Y-23300518D01*
X52236928Y-23425000D01*
X52236928Y-23675000D01*
X52249188Y-23799482D01*
X52285498Y-23919180D01*
X52344463Y-24029494D01*
X52423815Y-24126185D01*
X52445181Y-24143720D01*
X52448313Y-24159465D01*
X52466921Y-24220808D01*
X52497139Y-24277342D01*
X52551332Y-24358448D01*
X52552897Y-24360354D01*
X52552732Y-24360897D01*
X52546418Y-24425000D01*
X52546418Y-24673000D01*
X51127000Y-24673000D01*
X51127000Y-23361604D01*
X51139846Y-23324892D01*
X51156140Y-23253503D01*
X51174944Y-23086612D01*
X51177000Y-23050000D01*
X51177000Y-22709300D01*
X51175459Y-22677590D01*
X51156652Y-22484560D01*
X51144410Y-22422333D01*
X51127000Y-22364282D01*
X51127000Y-22100000D01*
X51124560Y-22075224D01*
X51117333Y-22051399D01*
X51105597Y-22029443D01*
X51089803Y-22010197D01*
X47841669Y-18762063D01*
X48897418Y-14827000D01*
X50350350Y-14827000D01*
X50288660Y-14902169D01*
X50238081Y-14996795D01*
X50206935Y-15099471D01*
X50196418Y-15206250D01*
X50196418Y-15643750D01*
X50206935Y-15750529D01*
X50238081Y-15853205D01*
X50288660Y-15947831D01*
X50356728Y-16030772D01*
X50439669Y-16098840D01*
X50534295Y-16149419D01*
X50636971Y-16180565D01*
X50743750Y-16191082D01*
X51256250Y-16191082D01*
X51363029Y-16180565D01*
X51465705Y-16149419D01*
X51560331Y-16098840D01*
X51643272Y-16030772D01*
X51711340Y-15947831D01*
X51761919Y-15853205D01*
X51772317Y-15818926D01*
X52621785Y-15753582D01*
X52975000Y-15753582D01*
X53039103Y-15747268D01*
X53100743Y-15728570D01*
X53157550Y-15698206D01*
X53207343Y-15657343D01*
X53248206Y-15607550D01*
X53278570Y-15550743D01*
X53297268Y-15489103D01*
X53303582Y-15425000D01*
X53303582Y-15175000D01*
X53297268Y-15110897D01*
X53278795Y-15050000D01*
X53297268Y-14989103D01*
X53303582Y-14925000D01*
X53303582Y-14675000D01*
X53297268Y-14610897D01*
X53278795Y-14550000D01*
X53297268Y-14489103D01*
X53303582Y-14425000D01*
X53303582Y-14265926D01*
X53305081Y-14263540D01*
X53336851Y-14197569D01*
X53390472Y-14044331D01*
X53406767Y-13972940D01*
X53424944Y-13811612D01*
X53427000Y-13775000D01*
X53427000Y-13459216D01*
X53425459Y-13427512D01*
X53406659Y-13234518D01*
X53394422Y-13172302D01*
X53338728Y-12986564D01*
X53314714Y-12927881D01*
X53224222Y-12756384D01*
X53189333Y-12703436D01*
X53067443Y-12552627D01*
X53046316Y-12528939D01*
X50727087Y-10169723D01*
X50715513Y-10159063D01*
X50392844Y-9813346D01*
X50374155Y-9796898D01*
X50352615Y-9784412D01*
X50329054Y-9776368D01*
X50300000Y-9773000D01*
X49227000Y-9773000D01*
X49227000Y-8227000D01*
X54179767Y-8227000D01*
X54146756Y-8246058D01*
%TA.AperFunction,Conductor*%
D19*
G36*
X54146756Y-8246058D02*
G01*
X53929233Y-8391402D01*
X53895298Y-8417442D01*
X53698608Y-8589935D01*
X53682990Y-8604562D01*
X53549106Y-8738446D01*
X53531677Y-8757300D01*
X53347152Y-8973351D01*
X53316992Y-9014864D01*
X53176867Y-9243527D01*
X53010197Y-9410197D01*
X52994403Y-9429443D01*
X52982667Y-9451399D01*
X52975440Y-9475224D01*
X52973000Y-9500000D01*
X52973000Y-9812635D01*
X52954327Y-9890413D01*
X52946300Y-9941094D01*
X52924008Y-10224344D01*
X52925056Y-10286612D01*
X52943860Y-10453503D01*
X52960154Y-10524892D01*
X52973000Y-10561604D01*
X52973000Y-11000000D01*
X52975440Y-11024776D01*
X52982667Y-11048601D01*
X52994403Y-11070557D01*
X53010197Y-11089803D01*
X53029443Y-11105597D01*
X53051399Y-11117333D01*
X53075224Y-11124560D01*
X53100000Y-11127000D01*
X53132561Y-11127000D01*
X53139520Y-11135480D01*
X53213558Y-11196241D01*
X53298028Y-11241391D01*
X53389682Y-11269194D01*
X53485000Y-11278582D01*
X53692917Y-11278582D01*
X53725108Y-11289846D01*
X53796497Y-11306140D01*
X53963388Y-11324944D01*
X54000000Y-11327000D01*
X54125000Y-11327000D01*
X54167681Y-11324203D01*
X54329443Y-11302907D01*
X54411900Y-11280812D01*
X54417996Y-11278287D01*
X54510318Y-11269194D01*
X54601972Y-11241391D01*
X54673000Y-11203426D01*
X54673000Y-13724808D01*
X54594463Y-13820506D01*
X54535498Y-13930820D01*
X54499188Y-14050518D01*
X54486928Y-14175000D01*
X54486928Y-14425000D01*
X54499188Y-14549482D01*
X54535498Y-14669180D01*
X54594463Y-14779494D01*
X54673000Y-14875192D01*
X54673000Y-15610956D01*
X54636564Y-15635302D01*
X54535302Y-15736564D01*
X54455741Y-15855636D01*
X54400938Y-15987942D01*
X54373000Y-16128397D01*
X54373000Y-16271603D01*
X54400938Y-16412058D01*
X54455741Y-16544364D01*
X54535302Y-16663436D01*
X54636564Y-16764698D01*
X54673000Y-16789044D01*
X54673000Y-17347394D01*
X54347394Y-17673000D01*
X52000000Y-17673000D01*
X51975224Y-17675440D01*
X51951399Y-17682667D01*
X51929443Y-17694403D01*
X51906680Y-17713858D01*
X51685087Y-17953917D01*
X51532839Y-18047214D01*
X51491325Y-18077375D01*
X51287630Y-18251347D01*
X51268776Y-18268776D01*
X51210718Y-18326834D01*
X51193289Y-18345689D01*
X51039518Y-18525732D01*
X51009358Y-18567243D01*
X50885645Y-18769123D01*
X50862349Y-18814844D01*
X50839528Y-18869940D01*
X50706680Y-19013858D01*
X50691668Y-19033719D01*
X50680819Y-19056128D01*
X50674550Y-19080222D01*
X50673000Y-19100000D01*
X50673000Y-20300000D01*
X50675440Y-20324776D01*
X50682667Y-20348601D01*
X50694403Y-20370557D01*
X50710197Y-20389803D01*
X50729443Y-20405597D01*
X50751399Y-20417333D01*
X50775224Y-20424560D01*
X50800000Y-20427000D01*
X50940113Y-20427000D01*
X50963558Y-20446241D01*
X51048028Y-20491391D01*
X51139682Y-20519194D01*
X51235000Y-20528582D01*
X51332716Y-20528582D01*
X51338100Y-20530812D01*
X51420557Y-20552907D01*
X51582319Y-20574203D01*
X51625000Y-20577000D01*
X51875000Y-20577000D01*
X51917681Y-20574203D01*
X52079443Y-20552907D01*
X52161900Y-20530812D01*
X52167996Y-20528287D01*
X52260318Y-20519194D01*
X52351972Y-20491391D01*
X52423000Y-20453426D01*
X52423000Y-22250000D01*
X52425797Y-22292682D01*
X52442834Y-22422092D01*
X52464928Y-22504547D01*
X52514878Y-22625137D01*
X52546984Y-22680745D01*
X52552732Y-22739103D01*
X52571205Y-22800000D01*
X52552732Y-22860897D01*
X52551033Y-22878146D01*
X52520506Y-22894463D01*
X52423815Y-22973815D01*
X52344463Y-23070506D01*
X52285498Y-23180820D01*
X52249188Y-23300518D01*
X52236928Y-23425000D01*
X52236928Y-23675000D01*
X52249188Y-23799482D01*
X52285498Y-23919180D01*
X52344463Y-24029494D01*
X52423815Y-24126185D01*
X52445181Y-24143720D01*
X52448313Y-24159465D01*
X52466921Y-24220808D01*
X52497139Y-24277342D01*
X52551332Y-24358448D01*
X52552897Y-24360354D01*
X52552732Y-24360897D01*
X52546418Y-24425000D01*
X52546418Y-24673000D01*
X51127000Y-24673000D01*
X51127000Y-23361604D01*
X51139846Y-23324892D01*
X51156140Y-23253503D01*
X51174944Y-23086612D01*
X51177000Y-23050000D01*
X51177000Y-22709300D01*
X51175459Y-22677590D01*
X51156652Y-22484560D01*
X51144410Y-22422333D01*
X51127000Y-22364282D01*
X51127000Y-22100000D01*
X51124560Y-22075224D01*
X51117333Y-22051399D01*
X51105597Y-22029443D01*
X51089803Y-22010197D01*
X47841669Y-18762063D01*
X48897418Y-14827000D01*
X50350350Y-14827000D01*
X50288660Y-14902169D01*
X50238081Y-14996795D01*
X50206935Y-15099471D01*
X50196418Y-15206250D01*
X50196418Y-15643750D01*
X50206935Y-15750529D01*
X50238081Y-15853205D01*
X50288660Y-15947831D01*
X50356728Y-16030772D01*
X50439669Y-16098840D01*
X50534295Y-16149419D01*
X50636971Y-16180565D01*
X50743750Y-16191082D01*
X51256250Y-16191082D01*
X51363029Y-16180565D01*
X51465705Y-16149419D01*
X51560331Y-16098840D01*
X51643272Y-16030772D01*
X51711340Y-15947831D01*
X51761919Y-15853205D01*
X51772317Y-15818926D01*
X52621785Y-15753582D01*
X52975000Y-15753582D01*
X53039103Y-15747268D01*
X53100743Y-15728570D01*
X53157550Y-15698206D01*
X53207343Y-15657343D01*
X53248206Y-15607550D01*
X53278570Y-15550743D01*
X53297268Y-15489103D01*
X53303582Y-15425000D01*
X53303582Y-15175000D01*
X53297268Y-15110897D01*
X53278795Y-15050000D01*
X53297268Y-14989103D01*
X53303582Y-14925000D01*
X53303582Y-14675000D01*
X53297268Y-14610897D01*
X53278795Y-14550000D01*
X53297268Y-14489103D01*
X53303582Y-14425000D01*
X53303582Y-14265926D01*
X53305081Y-14263540D01*
X53336851Y-14197569D01*
X53390472Y-14044331D01*
X53406767Y-13972940D01*
X53424944Y-13811612D01*
X53427000Y-13775000D01*
X53427000Y-13459216D01*
X53425459Y-13427512D01*
X53406659Y-13234518D01*
X53394422Y-13172302D01*
X53338728Y-12986564D01*
X53314714Y-12927881D01*
X53224222Y-12756384D01*
X53189333Y-12703436D01*
X53067443Y-12552627D01*
X53046316Y-12528939D01*
X50727087Y-10169723D01*
X50715513Y-10159063D01*
X50392844Y-9813346D01*
X50374155Y-9796898D01*
X50352615Y-9784412D01*
X50329054Y-9776368D01*
X50300000Y-9773000D01*
X49227000Y-9773000D01*
X49227000Y-8227000D01*
X54179767Y-8227000D01*
X54146756Y-8246058D01*
G37*
%TD.AperFunction*%
%TD*%
D20*
%TO.N,GND*%
X98670189Y-644376D02*
X98833850Y-694022D01*
X98984672Y-774638D01*
X99116870Y-883130D01*
X99225362Y-1015328D01*
X99305978Y-1166150D01*
X99355624Y-1329811D01*
X99373000Y-1506234D01*
X99373000Y-23450787D01*
X99358598Y-23429233D01*
X99332558Y-23395298D01*
X99160065Y-23198608D01*
X99145438Y-23182990D01*
X98817010Y-22854562D01*
X98801392Y-22839935D01*
X98604702Y-22667442D01*
X98570767Y-22641402D01*
X98353244Y-22496058D01*
X98316201Y-22474672D01*
X98081568Y-22358964D01*
X98042051Y-22342595D01*
X97794322Y-22258502D01*
X97753005Y-22247431D01*
X97496419Y-22196393D01*
X97454012Y-22190810D01*
X97192960Y-22173700D01*
X97171573Y-22173000D01*
X92809017Y-22173000D01*
X92772887Y-22175002D01*
X92574235Y-22197086D01*
X92503740Y-22212956D01*
X92314788Y-22278130D01*
X92249499Y-22309095D01*
X92211393Y-22332646D01*
X92155636Y-22355741D01*
X92036564Y-22435302D01*
X91935302Y-22536564D01*
X91920525Y-22558679D01*
X91879785Y-22598581D01*
X91834064Y-22654537D01*
X91725471Y-22822341D01*
X91707522Y-22853763D01*
X91668668Y-22931472D01*
X91658252Y-22954485D01*
X91541890Y-23240512D01*
X91526532Y-23288607D01*
X91455586Y-23589138D01*
X91447814Y-23639023D01*
X91423976Y-23946892D01*
X91423000Y-23972136D01*
X91423000Y-26299306D01*
X91423883Y-26323319D01*
X91439937Y-26541348D01*
X91446971Y-26588856D01*
X91494787Y-26802183D01*
X91508705Y-26848149D01*
X91587252Y-27052170D01*
X91607751Y-27095600D01*
X91715334Y-27285917D01*
X91747030Y-27332208D01*
X91851750Y-27460056D01*
X91897090Y-27505471D01*
X92024763Y-27610405D01*
X92078095Y-27646089D01*
X92223801Y-27724069D01*
X92283079Y-27748652D01*
X92441210Y-27796674D01*
X92504144Y-27809206D01*
X92668608Y-27825422D01*
X92700694Y-27827000D01*
X97171573Y-27827000D01*
X97192960Y-27826300D01*
X97454012Y-27809190D01*
X97496419Y-27803607D01*
X97753005Y-27752569D01*
X97794322Y-27741498D01*
X98042051Y-27657405D01*
X98081568Y-27641036D01*
X98316201Y-27525328D01*
X98353244Y-27503942D01*
X98570767Y-27358598D01*
X98604702Y-27332558D01*
X98801392Y-27160065D01*
X98817010Y-27145438D01*
X99145438Y-26817010D01*
X99160065Y-26801392D01*
X99332558Y-26604702D01*
X99358598Y-26570767D01*
X99373000Y-26549213D01*
X99373000Y-48493766D01*
X99355624Y-48670189D01*
X99305978Y-48833850D01*
X99225362Y-48984672D01*
X99116870Y-49116870D01*
X98984672Y-49225362D01*
X98833850Y-49305978D01*
X98670189Y-49355624D01*
X98493766Y-49373000D01*
X1506234Y-49373000D01*
X1329811Y-49355624D01*
X1166150Y-49305978D01*
X1015328Y-49225362D01*
X883130Y-49116870D01*
X774638Y-48984672D01*
X694022Y-48833850D01*
X644376Y-48670189D01*
X627000Y-48493766D01*
X627000Y-39650000D01*
X48773000Y-39650000D01*
X48773000Y-42500000D01*
X48774575Y-42532052D01*
X48793790Y-42727142D01*
X48806295Y-42790012D01*
X48863200Y-42977605D01*
X48887732Y-43036830D01*
X48980142Y-43209717D01*
X49015755Y-43263016D01*
X49140118Y-43414553D01*
X49185447Y-43459882D01*
X49336984Y-43584245D01*
X49390283Y-43619858D01*
X49563170Y-43712268D01*
X49622395Y-43736800D01*
X49809988Y-43793705D01*
X49872858Y-43806210D01*
X50067948Y-43825425D01*
X50100000Y-43827000D01*
X51946418Y-43827000D01*
X51946418Y-43925000D01*
X51952732Y-43989103D01*
X51957017Y-44003230D01*
X51621071Y-44088508D01*
X51560331Y-44038660D01*
X51465705Y-43988081D01*
X51363029Y-43956935D01*
X51256250Y-43946418D01*
X50743750Y-43946418D01*
X50636971Y-43956935D01*
X50534295Y-43988081D01*
X50439669Y-44038660D01*
X50356728Y-44106728D01*
X50288660Y-44189669D01*
X50238081Y-44284295D01*
X50206935Y-44386971D01*
X50196418Y-44493750D01*
X50196418Y-44931250D01*
X50206935Y-45038029D01*
X50238081Y-45140705D01*
X50288660Y-45235331D01*
X50356728Y-45318272D01*
X50439669Y-45386340D01*
X50534295Y-45436919D01*
X50636971Y-45468065D01*
X50743750Y-45478582D01*
X51256250Y-45478582D01*
X51363029Y-45468065D01*
X51465705Y-45436919D01*
X51560331Y-45386340D01*
X51643272Y-45318272D01*
X51711340Y-45235331D01*
X51761919Y-45140705D01*
X51793065Y-45038029D01*
X51799178Y-44975967D01*
X52675238Y-44753582D01*
X52975000Y-44753582D01*
X53039103Y-44747268D01*
X53100743Y-44728570D01*
X53157550Y-44698206D01*
X53207343Y-44657343D01*
X53248206Y-44607550D01*
X53278570Y-44550743D01*
X53297268Y-44489103D01*
X53303582Y-44425000D01*
X53303582Y-44175000D01*
X53297268Y-44110897D01*
X53278795Y-44050000D01*
X53297268Y-43989103D01*
X53303582Y-43925000D01*
X53303582Y-43675000D01*
X53297268Y-43610897D01*
X53278795Y-43550000D01*
X53297268Y-43489103D01*
X53303582Y-43425000D01*
X53303582Y-43265926D01*
X53305081Y-43263540D01*
X53336851Y-43197569D01*
X53390472Y-43044331D01*
X53406767Y-42972940D01*
X53424944Y-42811612D01*
X53427000Y-42775000D01*
X53427000Y-42459216D01*
X53425459Y-42427512D01*
X53406659Y-42234518D01*
X53394422Y-42172302D01*
X53338728Y-41986564D01*
X53314714Y-41927881D01*
X53224222Y-41756384D01*
X53189333Y-41703436D01*
X53067443Y-41552627D01*
X53046316Y-41528939D01*
X50727087Y-39169723D01*
X50703226Y-39147746D01*
X50550991Y-39020893D01*
X50497345Y-38984548D01*
X50323084Y-38890203D01*
X50263324Y-38865150D01*
X50073881Y-38807020D01*
X50010356Y-38794243D01*
X49813171Y-38774609D01*
X49780771Y-38773000D01*
X49650000Y-38773000D01*
X49607317Y-38775798D01*
X49464967Y-38794539D01*
X49382513Y-38816632D01*
X49249863Y-38871577D01*
X49175936Y-38914259D01*
X49062027Y-39001664D01*
X49001664Y-39062027D01*
X48914259Y-39175936D01*
X48871577Y-39249863D01*
X48816632Y-39382513D01*
X48794539Y-39464967D01*
X48775798Y-39607317D01*
X48773000Y-39650000D01*
X627000Y-39650000D01*
X627000Y-30350000D01*
X46473000Y-30350000D01*
X46473000Y-33300000D01*
X46474575Y-33332052D01*
X46493790Y-33527142D01*
X46506295Y-33590012D01*
X46563200Y-33777605D01*
X46587732Y-33836830D01*
X46680142Y-34009717D01*
X46715755Y-34063016D01*
X46840118Y-34214553D01*
X46885447Y-34259882D01*
X47036984Y-34384245D01*
X47090283Y-34419858D01*
X47263170Y-34512268D01*
X47322395Y-34536800D01*
X47509988Y-34593705D01*
X47572858Y-34606210D01*
X47767948Y-34625425D01*
X47800000Y-34627000D01*
X49696418Y-34627000D01*
X49696418Y-34675000D01*
X49701225Y-34723804D01*
X49154669Y-34833115D01*
X49143272Y-34819228D01*
X49060331Y-34751160D01*
X48965705Y-34700581D01*
X48863029Y-34669435D01*
X48756250Y-34658918D01*
X48243750Y-34658918D01*
X48136971Y-34669435D01*
X48034295Y-34700581D01*
X47939669Y-34751160D01*
X47856728Y-34819228D01*
X47788660Y-34902169D01*
X47738081Y-34996795D01*
X47706935Y-35099471D01*
X47696418Y-35206250D01*
X47696418Y-35643750D01*
X47706935Y-35750529D01*
X47738081Y-35853205D01*
X47788660Y-35947831D01*
X47856728Y-36030772D01*
X47939669Y-36098840D01*
X48034295Y-36149419D01*
X48136971Y-36180565D01*
X48243750Y-36191082D01*
X48756250Y-36191082D01*
X48863029Y-36180565D01*
X48965705Y-36149419D01*
X49060331Y-36098840D01*
X49143272Y-36030772D01*
X49211340Y-35947831D01*
X49261919Y-35853205D01*
X49293065Y-35750529D01*
X49295395Y-35726872D01*
X50411842Y-35503582D01*
X50725000Y-35503582D01*
X50789103Y-35497268D01*
X50850743Y-35478570D01*
X50907550Y-35448206D01*
X50957343Y-35407343D01*
X50998206Y-35357550D01*
X51028570Y-35300743D01*
X51047268Y-35239103D01*
X51053582Y-35175000D01*
X51053582Y-34925000D01*
X51047268Y-34860897D01*
X51028795Y-34800000D01*
X51047268Y-34739103D01*
X51053582Y-34675000D01*
X51053582Y-34425000D01*
X51047268Y-34360897D01*
X51028795Y-34300000D01*
X51047268Y-34239103D01*
X51053582Y-34175000D01*
X51053582Y-34047361D01*
X51084377Y-33983414D01*
X51139846Y-33824892D01*
X51156140Y-33753503D01*
X51174944Y-33586612D01*
X51177000Y-33550000D01*
X51177000Y-33209300D01*
X51175459Y-33177590D01*
X51156652Y-32984560D01*
X51144410Y-32922333D01*
X51088696Y-32736564D01*
X51064672Y-32677870D01*
X50974147Y-32506350D01*
X50939248Y-32453399D01*
X50817318Y-32302578D01*
X50796183Y-32278887D01*
X48427038Y-29869587D01*
X48403179Y-29847618D01*
X48250955Y-29720806D01*
X48197314Y-29684473D01*
X48023076Y-29590161D01*
X47963325Y-29565117D01*
X47773914Y-29507008D01*
X47710400Y-29494235D01*
X47513249Y-29474608D01*
X47480855Y-29473000D01*
X47350000Y-29473000D01*
X47307317Y-29475798D01*
X47164967Y-29494539D01*
X47082513Y-29516632D01*
X46949863Y-29571577D01*
X46875936Y-29614259D01*
X46762027Y-29701664D01*
X46701664Y-29762027D01*
X46614259Y-29875936D01*
X46571577Y-29949863D01*
X46516632Y-30082513D01*
X46494539Y-30164967D01*
X46475798Y-30307317D01*
X46473000Y-30350000D01*
X627000Y-30350000D01*
X627000Y-26078582D01*
X5540000Y-26078582D01*
X5604103Y-26072268D01*
X5665743Y-26053570D01*
X5722550Y-26023206D01*
X5772343Y-25982343D01*
X5813206Y-25932550D01*
X5843570Y-25875743D01*
X5858356Y-25827000D01*
X8884571Y-25827000D01*
X8890460Y-25846414D01*
X8943927Y-25946443D01*
X9015881Y-26034119D01*
X9103557Y-26106073D01*
X9203586Y-26159540D01*
X9248001Y-26173013D01*
X9248001Y-26408918D01*
X8675000Y-26408918D01*
X8562124Y-26420035D01*
X8453586Y-26452960D01*
X8353557Y-26506427D01*
X8265881Y-26578381D01*
X8193927Y-26666057D01*
X8140460Y-26766086D01*
X8107535Y-26874624D01*
X8096418Y-26987500D01*
X8096418Y-28562500D01*
X8107535Y-28675376D01*
X8140460Y-28783914D01*
X8193927Y-28883943D01*
X8265881Y-28971619D01*
X8353557Y-29043573D01*
X8453586Y-29097040D01*
X8562124Y-29129965D01*
X8675000Y-29141082D01*
X10725000Y-29141082D01*
X10837876Y-29129965D01*
X10946414Y-29097040D01*
X11046443Y-29043573D01*
X11134119Y-28971619D01*
X11206073Y-28883943D01*
X11259540Y-28783914D01*
X11292465Y-28675376D01*
X11303582Y-28562500D01*
X11303582Y-26987500D01*
X11292465Y-26874624D01*
X11259540Y-26766086D01*
X11206073Y-26666057D01*
X11134119Y-26578381D01*
X11046443Y-26506427D01*
X10946414Y-26452960D01*
X10837876Y-26420035D01*
X10725000Y-26408918D01*
X10152000Y-26408918D01*
X10152000Y-26203582D01*
X10175000Y-26203582D01*
X10287876Y-26192465D01*
X10396414Y-26159540D01*
X10496443Y-26106073D01*
X10584119Y-26034119D01*
X10656073Y-25946443D01*
X10709540Y-25846414D01*
X10742465Y-25737876D01*
X10753582Y-25625000D01*
X10753582Y-24928397D01*
X11473000Y-24928397D01*
X11473000Y-25071603D01*
X11500938Y-25212058D01*
X11555741Y-25344364D01*
X11635302Y-25463436D01*
X11646418Y-25474552D01*
X11646418Y-25625000D01*
X11657535Y-25737876D01*
X11690460Y-25846414D01*
X11743927Y-25946443D01*
X11815881Y-26034119D01*
X11903557Y-26106073D01*
X12003586Y-26159540D01*
X12112124Y-26192465D01*
X12225000Y-26203582D01*
X12975000Y-26203582D01*
X13087876Y-26192465D01*
X13196414Y-26159540D01*
X13296443Y-26106073D01*
X13384119Y-26034119D01*
X13456073Y-25946443D01*
X13509540Y-25846414D01*
X13542465Y-25737876D01*
X13553582Y-25625000D01*
X13553582Y-24375000D01*
X13542465Y-24262124D01*
X13509540Y-24153586D01*
X13456073Y-24053557D01*
X13384119Y-23965881D01*
X13296443Y-23893927D01*
X13196414Y-23840460D01*
X13087876Y-23807535D01*
X12975000Y-23796418D01*
X12225000Y-23796418D01*
X12112124Y-23807535D01*
X12003586Y-23840460D01*
X11903557Y-23893927D01*
X11815881Y-23965881D01*
X11743927Y-24053557D01*
X11690460Y-24153586D01*
X11657535Y-24262124D01*
X11646418Y-24375000D01*
X11646418Y-24525448D01*
X11635302Y-24536564D01*
X11555741Y-24655636D01*
X11500938Y-24787942D01*
X11473000Y-24928397D01*
X10753582Y-24928397D01*
X10753582Y-24375000D01*
X10742465Y-24262124D01*
X10709540Y-24153586D01*
X10656073Y-24053557D01*
X10584119Y-23965881D01*
X10496443Y-23893927D01*
X10396414Y-23840460D01*
X10287876Y-23807535D01*
X10252000Y-23804002D01*
X10252000Y-23753582D01*
X10256250Y-23753582D01*
X10367906Y-23742585D01*
X10475272Y-23710016D01*
X10574221Y-23657127D01*
X10660950Y-23585950D01*
X10732127Y-23499221D01*
X10785016Y-23400272D01*
X10817585Y-23292906D01*
X10828582Y-23181250D01*
X10828582Y-22693750D01*
X10817585Y-22582094D01*
X10785016Y-22474728D01*
X10732127Y-22375779D01*
X10660950Y-22289050D01*
X10574221Y-22217873D01*
X10475272Y-22164984D01*
X10367906Y-22132415D01*
X10256250Y-22121418D01*
X9343750Y-22121418D01*
X9232094Y-22132415D01*
X9124728Y-22164984D01*
X9025779Y-22217873D01*
X8939050Y-22289050D01*
X8867873Y-22375779D01*
X8814984Y-22474728D01*
X8782415Y-22582094D01*
X8771418Y-22693750D01*
X8771418Y-23181250D01*
X8782415Y-23292906D01*
X8814984Y-23400272D01*
X8867873Y-23499221D01*
X8939050Y-23585950D01*
X9025779Y-23657127D01*
X9124728Y-23710016D01*
X9232094Y-23742585D01*
X9343750Y-23753582D01*
X9348000Y-23753582D01*
X9348000Y-23804002D01*
X9312124Y-23807535D01*
X9203586Y-23840460D01*
X9103557Y-23893927D01*
X9015881Y-23965881D01*
X8943927Y-24053557D01*
X8890460Y-24153586D01*
X8884571Y-24173000D01*
X5858356Y-24173000D01*
X5843570Y-24124257D01*
X5813206Y-24067450D01*
X5772343Y-24017657D01*
X5722550Y-23976794D01*
X5665743Y-23946430D01*
X5604103Y-23927732D01*
X5540000Y-23921418D01*
X627000Y-23921418D01*
X627000Y-19850000D01*
X46473000Y-19850000D01*
X46473000Y-22800000D01*
X46474575Y-22832052D01*
X46493790Y-23027142D01*
X46506295Y-23090012D01*
X46563200Y-23277605D01*
X46587732Y-23336830D01*
X46680142Y-23509717D01*
X46715755Y-23563016D01*
X46840118Y-23714553D01*
X46885447Y-23759882D01*
X47036984Y-23884245D01*
X47090283Y-23919858D01*
X47263170Y-24012268D01*
X47322395Y-24036800D01*
X47509988Y-24093705D01*
X47572858Y-24106210D01*
X47767948Y-24125425D01*
X47800000Y-24127000D01*
X48028919Y-24127000D01*
X48006935Y-24199471D01*
X47996418Y-24306250D01*
X47996418Y-24743750D01*
X48006935Y-24850529D01*
X48038081Y-24953205D01*
X48088660Y-25047831D01*
X48156728Y-25130772D01*
X48239669Y-25198840D01*
X48334295Y-25249419D01*
X48436971Y-25280565D01*
X48543750Y-25291082D01*
X49056250Y-25291082D01*
X49163029Y-25280565D01*
X49215677Y-25264595D01*
X49068614Y-25446418D01*
X48781250Y-25446418D01*
X48674471Y-25456935D01*
X48571795Y-25488081D01*
X48477169Y-25538660D01*
X48394228Y-25606728D01*
X48326160Y-25689669D01*
X48275581Y-25784295D01*
X48244435Y-25886971D01*
X48233918Y-25993750D01*
X48233918Y-26506250D01*
X48244435Y-26613029D01*
X48275581Y-26715705D01*
X48326160Y-26810331D01*
X48394228Y-26893272D01*
X48477169Y-26961340D01*
X48571795Y-27011919D01*
X48674471Y-27043065D01*
X48781250Y-27053582D01*
X49218750Y-27053582D01*
X49325529Y-27043065D01*
X49428205Y-27011919D01*
X49522831Y-26961340D01*
X49605772Y-26893272D01*
X49673840Y-26810331D01*
X49724419Y-26715705D01*
X49755565Y-26613029D01*
X49766082Y-26506250D01*
X49766082Y-26021593D01*
X50589475Y-25003582D01*
X50725000Y-25003582D01*
X50789103Y-24997268D01*
X50850743Y-24978570D01*
X50907550Y-24948206D01*
X50957343Y-24907343D01*
X50998206Y-24857550D01*
X51028570Y-24800743D01*
X51047268Y-24739103D01*
X51053582Y-24675000D01*
X51053582Y-24425000D01*
X51047268Y-24360897D01*
X51028795Y-24300000D01*
X51047268Y-24239103D01*
X51053582Y-24175000D01*
X51053582Y-23925000D01*
X51047268Y-23860897D01*
X51028795Y-23800000D01*
X51047268Y-23739103D01*
X51053582Y-23675000D01*
X51053582Y-23547361D01*
X51084377Y-23483414D01*
X51139846Y-23324892D01*
X51156140Y-23253503D01*
X51174944Y-23086612D01*
X51177000Y-23050000D01*
X51177000Y-22709300D01*
X51175459Y-22677590D01*
X51156652Y-22484560D01*
X51144410Y-22422333D01*
X51088696Y-22236564D01*
X51064672Y-22177870D01*
X50974147Y-22006350D01*
X50939248Y-21953399D01*
X50817318Y-21802578D01*
X50796183Y-21778887D01*
X48652966Y-19599344D01*
X50674008Y-19599344D01*
X50675797Y-19667681D01*
X50697093Y-19829443D01*
X50719188Y-19911900D01*
X50746418Y-19977639D01*
X50746418Y-20040000D01*
X50755806Y-20135318D01*
X50783609Y-20226972D01*
X50828759Y-20311442D01*
X50889520Y-20385480D01*
X50963558Y-20446241D01*
X51048028Y-20491391D01*
X51139682Y-20519194D01*
X51235000Y-20528582D01*
X51332716Y-20528582D01*
X51338100Y-20530812D01*
X51420557Y-20552907D01*
X51582319Y-20574203D01*
X51625000Y-20577000D01*
X51875000Y-20577000D01*
X51917681Y-20574203D01*
X52079443Y-20552907D01*
X52161900Y-20530812D01*
X52167996Y-20528287D01*
X52260318Y-20519194D01*
X52351972Y-20491391D01*
X52423000Y-20453426D01*
X52423000Y-22250000D01*
X52425797Y-22292682D01*
X52442834Y-22422092D01*
X52464928Y-22504547D01*
X52514878Y-22625137D01*
X52546984Y-22680745D01*
X52552732Y-22739103D01*
X52571205Y-22800000D01*
X52552732Y-22860897D01*
X52546418Y-22925000D01*
X52546418Y-23175000D01*
X52552732Y-23239103D01*
X52571430Y-23300743D01*
X52601794Y-23357550D01*
X52642657Y-23407343D01*
X52692450Y-23448206D01*
X52749257Y-23478570D01*
X52754451Y-23480145D01*
X52722658Y-23497139D01*
X52641552Y-23551332D01*
X52591998Y-23592000D01*
X52551332Y-23641552D01*
X52497139Y-23722658D01*
X52466921Y-23779192D01*
X52448313Y-23840535D01*
X52429283Y-23936206D01*
X52423000Y-24000000D01*
X52429283Y-24063794D01*
X52448313Y-24159465D01*
X52466921Y-24220808D01*
X52497139Y-24277342D01*
X52551332Y-24358448D01*
X52552897Y-24360354D01*
X52552732Y-24360897D01*
X52546418Y-24425000D01*
X52546418Y-24675000D01*
X52552732Y-24739103D01*
X52571430Y-24800743D01*
X52601794Y-24857550D01*
X52642657Y-24907343D01*
X52692450Y-24948206D01*
X52749257Y-24978570D01*
X52783046Y-24988820D01*
X52685302Y-25086564D01*
X52605741Y-25205636D01*
X52550938Y-25337942D01*
X52523000Y-25478397D01*
X52523000Y-25621603D01*
X52550938Y-25762058D01*
X52605741Y-25894364D01*
X52685302Y-26013436D01*
X52786564Y-26114698D01*
X52905636Y-26194259D01*
X53037942Y-26249062D01*
X53178397Y-26277000D01*
X53321603Y-26277000D01*
X53462058Y-26249062D01*
X53594364Y-26194259D01*
X53713436Y-26114698D01*
X53814698Y-26013436D01*
X53894259Y-25894364D01*
X53949062Y-25762058D01*
X53977000Y-25621603D01*
X53977000Y-25478397D01*
X53949062Y-25337942D01*
X53894259Y-25205636D01*
X53814698Y-25086564D01*
X53713436Y-24985302D01*
X53702197Y-24977793D01*
X53757550Y-24948206D01*
X53807343Y-24907343D01*
X53848206Y-24857550D01*
X53863266Y-24829375D01*
X53883687Y-24846135D01*
X54903865Y-25866313D01*
X55023359Y-26011916D01*
X55104545Y-26163805D01*
X55154538Y-26328610D01*
X55197769Y-26767546D01*
X55210275Y-26830419D01*
X55278967Y-27056864D01*
X55303497Y-27116086D01*
X55415045Y-27324779D01*
X55450660Y-27378080D01*
X55600779Y-27561000D01*
X55622329Y-27584777D01*
X55732054Y-27694502D01*
X55704012Y-27690810D01*
X55442960Y-27673700D01*
X55421573Y-27673000D01*
X53578427Y-27673000D01*
X53557040Y-27673700D01*
X53295988Y-27690810D01*
X53253581Y-27696393D01*
X52996995Y-27747431D01*
X52955678Y-27758502D01*
X52707949Y-27842595D01*
X52668432Y-27858964D01*
X52433799Y-27974672D01*
X52396756Y-27996058D01*
X52179233Y-28141402D01*
X52145298Y-28167442D01*
X51948608Y-28339935D01*
X51932990Y-28354562D01*
X51122329Y-29165223D01*
X51100779Y-29189000D01*
X50950660Y-29371920D01*
X50915045Y-29425221D01*
X50803497Y-29633914D01*
X50778967Y-29693136D01*
X50710275Y-29919581D01*
X50697769Y-29982454D01*
X50674575Y-30217949D01*
X50675797Y-30292682D01*
X50692834Y-30422092D01*
X50714928Y-30504547D01*
X50751660Y-30593227D01*
X50755806Y-30635318D01*
X50783609Y-30726972D01*
X50828759Y-30811442D01*
X50889520Y-30885480D01*
X50963558Y-30946241D01*
X51048028Y-30991391D01*
X51139682Y-31019194D01*
X51228158Y-31027908D01*
X51245453Y-31035072D01*
X51327908Y-31057166D01*
X51457318Y-31074203D01*
X51500000Y-31077000D01*
X52000000Y-31077000D01*
X52042682Y-31074203D01*
X52172092Y-31057166D01*
X52254547Y-31035072D01*
X52375137Y-30985122D01*
X52423000Y-30957488D01*
X52423000Y-32750000D01*
X52425797Y-32792682D01*
X52442834Y-32922092D01*
X52464928Y-33004547D01*
X52514878Y-33125137D01*
X52546984Y-33180745D01*
X52552732Y-33239103D01*
X52571205Y-33300000D01*
X52552732Y-33360897D01*
X52546418Y-33425000D01*
X52546418Y-33675000D01*
X52552732Y-33739103D01*
X52571430Y-33800743D01*
X52601794Y-33857550D01*
X52642657Y-33907343D01*
X52692450Y-33948206D01*
X52749257Y-33978570D01*
X52810897Y-33997268D01*
X52875000Y-34003582D01*
X53555642Y-34003582D01*
X53622352Y-34039239D01*
X53721692Y-34069374D01*
X53825000Y-34079549D01*
X53899671Y-34072195D01*
X53885302Y-34086564D01*
X53877661Y-34098000D01*
X53591061Y-34098000D01*
X53575000Y-34096418D01*
X52875000Y-34096418D01*
X52810897Y-34102732D01*
X52749257Y-34121430D01*
X52692450Y-34151794D01*
X52642657Y-34192657D01*
X52601794Y-34242450D01*
X52571430Y-34299257D01*
X52552732Y-34360897D01*
X52546418Y-34425000D01*
X52546418Y-34675000D01*
X52552732Y-34739103D01*
X52571205Y-34800000D01*
X52552732Y-34860897D01*
X52546418Y-34925000D01*
X52546418Y-35175000D01*
X52552732Y-35239103D01*
X52571430Y-35300743D01*
X52601794Y-35357550D01*
X52619903Y-35379617D01*
X52536564Y-35435302D01*
X52435302Y-35536564D01*
X52355741Y-35655636D01*
X52300938Y-35787942D01*
X52273000Y-35928397D01*
X52273000Y-36071603D01*
X52300938Y-36212058D01*
X52355741Y-36344364D01*
X52435302Y-36463436D01*
X52536564Y-36564698D01*
X52655636Y-36644259D01*
X52787942Y-36699062D01*
X52928397Y-36727000D01*
X53071603Y-36727000D01*
X53212058Y-36699062D01*
X53344364Y-36644259D01*
X53463436Y-36564698D01*
X53564698Y-36463436D01*
X53644259Y-36344364D01*
X53699062Y-36212058D01*
X53727000Y-36071603D01*
X53727000Y-35928397D01*
X53699062Y-35787942D01*
X53644259Y-35655636D01*
X53571761Y-35547135D01*
X53582245Y-35502868D01*
X53639103Y-35497268D01*
X53700743Y-35478570D01*
X53757550Y-35448206D01*
X53807343Y-35407343D01*
X53848206Y-35357550D01*
X53878570Y-35300743D01*
X53897268Y-35239103D01*
X53903582Y-35175000D01*
X53903582Y-35031716D01*
X53986564Y-35114698D01*
X54105636Y-35194259D01*
X54237942Y-35249062D01*
X54378397Y-35277000D01*
X54521603Y-35277000D01*
X54662058Y-35249062D01*
X54794364Y-35194259D01*
X54913436Y-35114698D01*
X55014698Y-35013436D01*
X55094259Y-34894364D01*
X55149062Y-34762058D01*
X55177000Y-34621603D01*
X55177000Y-34478397D01*
X55149062Y-34337942D01*
X55094259Y-34205636D01*
X55014698Y-34086564D01*
X54913436Y-33985302D01*
X54794364Y-33905741D01*
X54662058Y-33850938D01*
X54521603Y-33823000D01*
X54378397Y-33823000D01*
X54277151Y-33843139D01*
X54505380Y-33614909D01*
X54510286Y-33610677D01*
X54523665Y-33596624D01*
X54537392Y-33582897D01*
X54541505Y-33577885D01*
X54560082Y-33558372D01*
X54569443Y-33549460D01*
X54577893Y-33539664D01*
X54586830Y-33530277D01*
X54594795Y-33520070D01*
X54616611Y-33494780D01*
X54625531Y-33485411D01*
X54633490Y-33475213D01*
X54641952Y-33465403D01*
X54649410Y-33454813D01*
X54669957Y-33428485D01*
X54678410Y-33418686D01*
X54685861Y-33408106D01*
X54693828Y-33397898D01*
X54700755Y-33386959D01*
X54719987Y-33359652D01*
X54727959Y-33349437D01*
X54734890Y-33338492D01*
X54742331Y-33327927D01*
X54748710Y-33316667D01*
X54766586Y-33288437D01*
X54774042Y-33277850D01*
X54780427Y-33266579D01*
X54787348Y-33255649D01*
X54793165Y-33244093D01*
X54809631Y-33215025D01*
X54816554Y-33204093D01*
X54822377Y-33192526D01*
X54828758Y-33181261D01*
X54834000Y-33169436D01*
X54849024Y-33139589D01*
X54855407Y-33128321D01*
X54860648Y-33116496D01*
X54866467Y-33104937D01*
X54871131Y-33092847D01*
X54884664Y-33062316D01*
X54890486Y-33050749D01*
X54895149Y-33038660D01*
X54900391Y-33026834D01*
X54904447Y-33014555D01*
X54916472Y-32983381D01*
X54921718Y-32971547D01*
X54925781Y-32959249D01*
X54930437Y-32947178D01*
X54933888Y-32934710D01*
X54944367Y-32902989D01*
X54949026Y-32890911D01*
X54952480Y-32878432D01*
X54956540Y-32866141D01*
X54959375Y-32853515D01*
X54968291Y-32821300D01*
X54972348Y-32809018D01*
X54975181Y-32796404D01*
X54978635Y-32783922D01*
X54980850Y-32771159D01*
X54988170Y-32738559D01*
X54991621Y-32726090D01*
X54993832Y-32713347D01*
X54996671Y-32700705D01*
X54998257Y-32687845D01*
X55003965Y-32654947D01*
X55006801Y-32642319D01*
X55008386Y-32629468D01*
X55010599Y-32616715D01*
X55011551Y-32603812D01*
X55015642Y-32570649D01*
X55017855Y-32557891D01*
X55018807Y-32544989D01*
X55020391Y-32532145D01*
X55020709Y-32519200D01*
X55023167Y-32485881D01*
X55024750Y-32473044D01*
X55025068Y-32460104D01*
X55026021Y-32447182D01*
X55025703Y-32434240D01*
X55026364Y-32407339D01*
X55027000Y-32400881D01*
X55027000Y-32381447D01*
X55027476Y-32362069D01*
X55027000Y-32355614D01*
X55027000Y-31972476D01*
X55060318Y-31969194D01*
X55151972Y-31941391D01*
X55236442Y-31896241D01*
X55310480Y-31835480D01*
X55371241Y-31761442D01*
X55416391Y-31676972D01*
X55423000Y-31655185D01*
X55423000Y-35410866D01*
X55407992Y-35639852D01*
X55365316Y-35854397D01*
X55295001Y-36061537D01*
X55198256Y-36257718D01*
X55076721Y-36439608D01*
X54925428Y-36612124D01*
X53460718Y-38076834D01*
X53443289Y-38095689D01*
X53289518Y-38275732D01*
X53259358Y-38317243D01*
X53135645Y-38519123D01*
X53112349Y-38564844D01*
X53021741Y-38783592D01*
X53005885Y-38832393D01*
X52950612Y-39062623D01*
X52942585Y-39113303D01*
X52924008Y-39349344D01*
X52925797Y-39417681D01*
X52947093Y-39579443D01*
X52969188Y-39661900D01*
X52996418Y-39727639D01*
X52996418Y-39790000D01*
X53005806Y-39885318D01*
X53033609Y-39976972D01*
X53078759Y-40061442D01*
X53139520Y-40135480D01*
X53213558Y-40196241D01*
X53298028Y-40241391D01*
X53389682Y-40269194D01*
X53485000Y-40278582D01*
X53582716Y-40278582D01*
X53588100Y-40280812D01*
X53670557Y-40302907D01*
X53832319Y-40324203D01*
X53875000Y-40327000D01*
X54250000Y-40327000D01*
X54292682Y-40324203D01*
X54422092Y-40307166D01*
X54504547Y-40285072D01*
X54625137Y-40235122D01*
X54673000Y-40207488D01*
X54673000Y-42000000D01*
X54675797Y-42042682D01*
X54692834Y-42172092D01*
X54714928Y-42254547D01*
X54764878Y-42375137D01*
X54796984Y-42430745D01*
X54802732Y-42489103D01*
X54821205Y-42550000D01*
X54802732Y-42610897D01*
X54796418Y-42675000D01*
X54796418Y-42925000D01*
X54802732Y-42989103D01*
X54821430Y-43050743D01*
X54851794Y-43107550D01*
X54892657Y-43157343D01*
X54942450Y-43198206D01*
X54999257Y-43228570D01*
X55060897Y-43247268D01*
X55125000Y-43253582D01*
X55805642Y-43253582D01*
X55872352Y-43289239D01*
X55971692Y-43319374D01*
X56075000Y-43329549D01*
X56178310Y-43319374D01*
X56277649Y-43289239D01*
X56288343Y-43283523D01*
X56235302Y-43336564D01*
X56227661Y-43348000D01*
X55841061Y-43348000D01*
X55825000Y-43346418D01*
X55125000Y-43346418D01*
X55060897Y-43352732D01*
X54999257Y-43371430D01*
X54942450Y-43401794D01*
X54892657Y-43442657D01*
X54851794Y-43492450D01*
X54821430Y-43549257D01*
X54802732Y-43610897D01*
X54796418Y-43675000D01*
X54796418Y-43925000D01*
X54802732Y-43989103D01*
X54821205Y-44050000D01*
X54802732Y-44110897D01*
X54796418Y-44175000D01*
X54796418Y-44425000D01*
X54802732Y-44489103D01*
X54821430Y-44550743D01*
X54851794Y-44607550D01*
X54892657Y-44657343D01*
X54942450Y-44698206D01*
X54958868Y-44706982D01*
X54935180Y-44869409D01*
X54836564Y-44935302D01*
X54735302Y-45036564D01*
X54655741Y-45155636D01*
X54600938Y-45287942D01*
X54573000Y-45428397D01*
X54573000Y-45571603D01*
X54600938Y-45712058D01*
X54655741Y-45844364D01*
X54735302Y-45963436D01*
X54836564Y-46064698D01*
X54955636Y-46144259D01*
X55087942Y-46199062D01*
X55228397Y-46227000D01*
X55371603Y-46227000D01*
X55512058Y-46199062D01*
X55644364Y-46144259D01*
X55763436Y-46064698D01*
X55864698Y-45963436D01*
X55944259Y-45844364D01*
X55999062Y-45712058D01*
X56027000Y-45571603D01*
X56027000Y-45428397D01*
X55999062Y-45287942D01*
X55944259Y-45155636D01*
X55864698Y-45036564D01*
X55829498Y-45001364D01*
X55866226Y-44749521D01*
X55889103Y-44747268D01*
X55950743Y-44728570D01*
X56007550Y-44698206D01*
X56057343Y-44657343D01*
X56098206Y-44607550D01*
X56128570Y-44550743D01*
X56147268Y-44489103D01*
X56153582Y-44425000D01*
X56153582Y-44252000D01*
X56227661Y-44252000D01*
X56235302Y-44263436D01*
X56336564Y-44364698D01*
X56455636Y-44444259D01*
X56587942Y-44499062D01*
X56728397Y-44527000D01*
X56871603Y-44527000D01*
X57012058Y-44499062D01*
X57144364Y-44444259D01*
X57263436Y-44364698D01*
X57364698Y-44263436D01*
X57444259Y-44144364D01*
X57499062Y-44012058D01*
X57527000Y-43871603D01*
X57527000Y-43728397D01*
X57499062Y-43587942D01*
X57444259Y-43455636D01*
X57364698Y-43336564D01*
X57263436Y-43235302D01*
X57144364Y-43155741D01*
X57012058Y-43100938D01*
X56871603Y-43073000D01*
X56728397Y-43073000D01*
X56587942Y-43100938D01*
X56470851Y-43149439D01*
X56755380Y-42864909D01*
X56760286Y-42860677D01*
X56773665Y-42846624D01*
X56787392Y-42832897D01*
X56791505Y-42827885D01*
X56810082Y-42808372D01*
X56819443Y-42799460D01*
X56827893Y-42789664D01*
X56836830Y-42780277D01*
X56844795Y-42770070D01*
X56866611Y-42744780D01*
X56875531Y-42735411D01*
X56883490Y-42725213D01*
X56891952Y-42715403D01*
X56899410Y-42704813D01*
X56919957Y-42678485D01*
X56928410Y-42668686D01*
X56935861Y-42658106D01*
X56943828Y-42647898D01*
X56950755Y-42636959D01*
X56969987Y-42609652D01*
X56977959Y-42599437D01*
X56984890Y-42588492D01*
X56992331Y-42577927D01*
X56998710Y-42566667D01*
X57016586Y-42538437D01*
X57024042Y-42527850D01*
X57030427Y-42516579D01*
X57037348Y-42505649D01*
X57043165Y-42494093D01*
X57059631Y-42465025D01*
X57066554Y-42454093D01*
X57072377Y-42442526D01*
X57078758Y-42431261D01*
X57084000Y-42419436D01*
X57099024Y-42389589D01*
X57105407Y-42378321D01*
X57110648Y-42366496D01*
X57116467Y-42354937D01*
X57121131Y-42342847D01*
X57134664Y-42312316D01*
X57140486Y-42300749D01*
X57145149Y-42288660D01*
X57150391Y-42276834D01*
X57154447Y-42264555D01*
X57166472Y-42233381D01*
X57171718Y-42221547D01*
X57175781Y-42209249D01*
X57180437Y-42197178D01*
X57183888Y-42184710D01*
X57194367Y-42152989D01*
X57199026Y-42140911D01*
X57202480Y-42128432D01*
X57206540Y-42116141D01*
X57209375Y-42103515D01*
X57218291Y-42071300D01*
X57222348Y-42059018D01*
X57225181Y-42046404D01*
X57228635Y-42033922D01*
X57230850Y-42021159D01*
X57238170Y-41988559D01*
X57241621Y-41976090D01*
X57243832Y-41963347D01*
X57246671Y-41950705D01*
X57248257Y-41937845D01*
X57253965Y-41904947D01*
X57256801Y-41892319D01*
X57258386Y-41879468D01*
X57260599Y-41866715D01*
X57261551Y-41853812D01*
X57265642Y-41820649D01*
X57267855Y-41807891D01*
X57268807Y-41794989D01*
X57270391Y-41782145D01*
X57270709Y-41769200D01*
X57273167Y-41735881D01*
X57274750Y-41723044D01*
X57275068Y-41710104D01*
X57276021Y-41697182D01*
X57275703Y-41684240D01*
X57276364Y-41657339D01*
X57277000Y-41650881D01*
X57277000Y-41631447D01*
X57277476Y-41612069D01*
X57277000Y-41605614D01*
X57277000Y-41222476D01*
X57310318Y-41219194D01*
X57401972Y-41191391D01*
X57486442Y-41146241D01*
X57560480Y-41085480D01*
X57621241Y-41011442D01*
X57666391Y-40926972D01*
X57694194Y-40835318D01*
X57703582Y-40740000D01*
X57703582Y-40260000D01*
X57694194Y-40164682D01*
X57666391Y-40073028D01*
X57640720Y-40025000D01*
X57655751Y-39996877D01*
X57692438Y-39949067D01*
X57735122Y-39875137D01*
X57785072Y-39754547D01*
X57807166Y-39672092D01*
X57824203Y-39542682D01*
X57824203Y-39457318D01*
X57807166Y-39327908D01*
X57785072Y-39245453D01*
X57735122Y-39124863D01*
X57692438Y-39050933D01*
X57612978Y-38947380D01*
X57552620Y-38887022D01*
X57449067Y-38807562D01*
X57375137Y-38764878D01*
X57254547Y-38714928D01*
X57172092Y-38692834D01*
X57042682Y-38675797D01*
X57000000Y-38673000D01*
X56000000Y-38673000D01*
X55967948Y-38674575D01*
X55852610Y-38685935D01*
X62249309Y-34615308D01*
X62268627Y-34602019D01*
X62498797Y-34431202D01*
X62534332Y-34400648D01*
X62737721Y-34198682D01*
X62768523Y-34163363D01*
X62940953Y-33934398D01*
X62966390Y-33895038D01*
X63104319Y-33643776D01*
X63123869Y-33601185D01*
X63224465Y-33332787D01*
X63237725Y-33287838D01*
X63298921Y-33007817D01*
X63305620Y-32961434D01*
X63326159Y-32675540D01*
X63327000Y-32652108D01*
X63327000Y-24493750D01*
X82483918Y-24493750D01*
X82483918Y-25006250D01*
X82494435Y-25113029D01*
X82525581Y-25215705D01*
X82576160Y-25310331D01*
X82644228Y-25393272D01*
X82727169Y-25461340D01*
X82821795Y-25511919D01*
X82924471Y-25543065D01*
X83031250Y-25553582D01*
X83468750Y-25553582D01*
X83575529Y-25543065D01*
X83678205Y-25511919D01*
X83772831Y-25461340D01*
X83855772Y-25393272D01*
X83872908Y-25372391D01*
X83905636Y-25394259D01*
X84037942Y-25449062D01*
X84178397Y-25477000D01*
X84321603Y-25477000D01*
X84462058Y-25449062D01*
X84594364Y-25394259D01*
X84627092Y-25372391D01*
X84644228Y-25393272D01*
X84727169Y-25461340D01*
X84821795Y-25511919D01*
X84924471Y-25543065D01*
X85031250Y-25553582D01*
X85468750Y-25553582D01*
X85575529Y-25543065D01*
X85678205Y-25511919D01*
X85772831Y-25461340D01*
X85855772Y-25393272D01*
X85923840Y-25310331D01*
X85974419Y-25215705D01*
X86005565Y-25113029D01*
X86016082Y-25006250D01*
X86016082Y-24493750D01*
X86058918Y-24493750D01*
X86058918Y-25006250D01*
X86069435Y-25113029D01*
X86100581Y-25215705D01*
X86151160Y-25310331D01*
X86219228Y-25393272D01*
X86302169Y-25461340D01*
X86396795Y-25511919D01*
X86499471Y-25543065D01*
X86606250Y-25553582D01*
X87043750Y-25553582D01*
X87150529Y-25543065D01*
X87253205Y-25511919D01*
X87347831Y-25461340D01*
X87421542Y-25400847D01*
X87537942Y-25449062D01*
X87678397Y-25477000D01*
X87821603Y-25477000D01*
X87962058Y-25449062D01*
X88094364Y-25394259D01*
X88213436Y-25314698D01*
X88314698Y-25213436D01*
X88394259Y-25094364D01*
X88449062Y-24962058D01*
X88477000Y-24821603D01*
X88477000Y-24678397D01*
X88449062Y-24537942D01*
X88394259Y-24405636D01*
X88314698Y-24286564D01*
X88213436Y-24185302D01*
X88094364Y-24105741D01*
X87962058Y-24050938D01*
X87821603Y-24023000D01*
X87678397Y-24023000D01*
X87537942Y-24050938D01*
X87421542Y-24099153D01*
X87347831Y-24038660D01*
X87253205Y-23988081D01*
X87150529Y-23956935D01*
X87043750Y-23946418D01*
X86606250Y-23946418D01*
X86499471Y-23956935D01*
X86396795Y-23988081D01*
X86302169Y-24038660D01*
X86219228Y-24106728D01*
X86151160Y-24189669D01*
X86100581Y-24284295D01*
X86069435Y-24386971D01*
X86058918Y-24493750D01*
X86016082Y-24493750D01*
X86005565Y-24386971D01*
X85974419Y-24284295D01*
X85923840Y-24189669D01*
X85855772Y-24106728D01*
X85772831Y-24038660D01*
X85678205Y-23988081D01*
X85575529Y-23956935D01*
X85468750Y-23946418D01*
X85031250Y-23946418D01*
X84924471Y-23956935D01*
X84821795Y-23988081D01*
X84727169Y-24038660D01*
X84644228Y-24106728D01*
X84627092Y-24127609D01*
X84594364Y-24105741D01*
X84462058Y-24050938D01*
X84321603Y-24023000D01*
X84178397Y-24023000D01*
X84037942Y-24050938D01*
X83905636Y-24105741D01*
X83872908Y-24127609D01*
X83855772Y-24106728D01*
X83772831Y-24038660D01*
X83678205Y-23988081D01*
X83575529Y-23956935D01*
X83468750Y-23946418D01*
X83031250Y-23946418D01*
X82924471Y-23956935D01*
X82821795Y-23988081D01*
X82727169Y-24038660D01*
X82644228Y-24106728D01*
X82576160Y-24189669D01*
X82525581Y-24284295D01*
X82494435Y-24386971D01*
X82483918Y-24493750D01*
X63327000Y-24493750D01*
X63327000Y-14078427D01*
X63326300Y-14057040D01*
X63309190Y-13795988D01*
X63303607Y-13753581D01*
X63252569Y-13496995D01*
X63241498Y-13455678D01*
X63157405Y-13207949D01*
X63141036Y-13168432D01*
X63025328Y-12933799D01*
X63003942Y-12896756D01*
X62858598Y-12679233D01*
X62832558Y-12645298D01*
X62660065Y-12448608D01*
X62645438Y-12432990D01*
X58817010Y-8604562D01*
X58801392Y-8589935D01*
X58604702Y-8417442D01*
X58570767Y-8391402D01*
X58353244Y-8246058D01*
X58316201Y-8224672D01*
X58081568Y-8108964D01*
X58042051Y-8092595D01*
X57794322Y-8008502D01*
X57753005Y-7997431D01*
X57496419Y-7946393D01*
X57454012Y-7940810D01*
X57192960Y-7923700D01*
X57171573Y-7923000D01*
X55328427Y-7923000D01*
X55307040Y-7923700D01*
X55045988Y-7940810D01*
X55003581Y-7946393D01*
X54746995Y-7997431D01*
X54705678Y-8008502D01*
X54457949Y-8092595D01*
X54418432Y-8108964D01*
X54183799Y-8224672D01*
X54146756Y-8246058D01*
X53929233Y-8391402D01*
X53895298Y-8417442D01*
X53698608Y-8589935D01*
X53682990Y-8604562D01*
X53549106Y-8738446D01*
X53531677Y-8757300D01*
X53347152Y-8973351D01*
X53316992Y-9014864D01*
X53168537Y-9257120D01*
X53145241Y-9302840D01*
X53036511Y-9565338D01*
X53020655Y-9614138D01*
X52954327Y-9890413D01*
X52946300Y-9941094D01*
X52924008Y-10224344D01*
X52925056Y-10286612D01*
X52943860Y-10453503D01*
X52960154Y-10524892D01*
X52996418Y-10628529D01*
X52996418Y-10790000D01*
X53005806Y-10885318D01*
X53033609Y-10976972D01*
X53078759Y-11061442D01*
X53139520Y-11135480D01*
X53213558Y-11196241D01*
X53298028Y-11241391D01*
X53389682Y-11269194D01*
X53485000Y-11278582D01*
X53692917Y-11278582D01*
X53725108Y-11289846D01*
X53796497Y-11306140D01*
X53963388Y-11324944D01*
X54000000Y-11327000D01*
X54125000Y-11327000D01*
X54167681Y-11324203D01*
X54329443Y-11302907D01*
X54411900Y-11280812D01*
X54417996Y-11278287D01*
X54510318Y-11269194D01*
X54601972Y-11241391D01*
X54673000Y-11203426D01*
X54673000Y-13000000D01*
X54675797Y-13042682D01*
X54692834Y-13172092D01*
X54714928Y-13254547D01*
X54764878Y-13375137D01*
X54796984Y-13430745D01*
X54802732Y-13489103D01*
X54821205Y-13550000D01*
X54802732Y-13610897D01*
X54796418Y-13675000D01*
X54796418Y-13925000D01*
X54802732Y-13989103D01*
X54821430Y-14050743D01*
X54851794Y-14107550D01*
X54892657Y-14157343D01*
X54942450Y-14198206D01*
X54999257Y-14228570D01*
X55060897Y-14247268D01*
X55125000Y-14253582D01*
X55805642Y-14253582D01*
X55872352Y-14289239D01*
X55971692Y-14319374D01*
X56075000Y-14329549D01*
X56094209Y-14327657D01*
X56085302Y-14336564D01*
X56077661Y-14348000D01*
X55841061Y-14348000D01*
X55825000Y-14346418D01*
X55125000Y-14346418D01*
X55060897Y-14352732D01*
X54999257Y-14371430D01*
X54942450Y-14401794D01*
X54892657Y-14442657D01*
X54851794Y-14492450D01*
X54821430Y-14549257D01*
X54802732Y-14610897D01*
X54796418Y-14675000D01*
X54796418Y-14925000D01*
X54802732Y-14989103D01*
X54821205Y-15050000D01*
X54802732Y-15110897D01*
X54796418Y-15175000D01*
X54796418Y-15425000D01*
X54802732Y-15489103D01*
X54815433Y-15530972D01*
X54755636Y-15555741D01*
X54636564Y-15635302D01*
X54535302Y-15736564D01*
X54455741Y-15855636D01*
X54400938Y-15987942D01*
X54373000Y-16128397D01*
X54373000Y-16271603D01*
X54400938Y-16412058D01*
X54455741Y-16544364D01*
X54535302Y-16663436D01*
X54636564Y-16764698D01*
X54755636Y-16844259D01*
X54887942Y-16899062D01*
X55028397Y-16927000D01*
X55171603Y-16927000D01*
X55312058Y-16899062D01*
X55444364Y-16844259D01*
X55563436Y-16764698D01*
X55664698Y-16663436D01*
X55744259Y-16544364D01*
X55799062Y-16412058D01*
X55827000Y-16271603D01*
X55827000Y-16128397D01*
X55799062Y-15987942D01*
X55744259Y-15855636D01*
X55737418Y-15845397D01*
X55775674Y-15753582D01*
X55825000Y-15753582D01*
X55889103Y-15747268D01*
X55950743Y-15728570D01*
X56007550Y-15698206D01*
X56057343Y-15657343D01*
X56098206Y-15607550D01*
X56128570Y-15550743D01*
X56147268Y-15489103D01*
X56153582Y-15425000D01*
X56153582Y-15331716D01*
X56186564Y-15364698D01*
X56305636Y-15444259D01*
X56437942Y-15499062D01*
X56578397Y-15527000D01*
X56721603Y-15527000D01*
X56862058Y-15499062D01*
X56994364Y-15444259D01*
X57113436Y-15364698D01*
X57214698Y-15263436D01*
X57294259Y-15144364D01*
X57349062Y-15012058D01*
X57377000Y-14871603D01*
X57377000Y-14728397D01*
X57349062Y-14587942D01*
X57294259Y-14455636D01*
X57214698Y-14336564D01*
X57113436Y-14235302D01*
X56994364Y-14155741D01*
X56862058Y-14100938D01*
X56721603Y-14073000D01*
X56578397Y-14073000D01*
X56539566Y-14080724D01*
X56755380Y-13864909D01*
X56760286Y-13860677D01*
X56773665Y-13846624D01*
X56787392Y-13832897D01*
X56791505Y-13827885D01*
X56810082Y-13808372D01*
X56819443Y-13799460D01*
X56827893Y-13789664D01*
X56836830Y-13780277D01*
X56844795Y-13770070D01*
X56866611Y-13744780D01*
X56875531Y-13735411D01*
X56883490Y-13725213D01*
X56891952Y-13715403D01*
X56899410Y-13704813D01*
X56919957Y-13678485D01*
X56928410Y-13668686D01*
X56935861Y-13658106D01*
X56943828Y-13647898D01*
X56950755Y-13636959D01*
X56969987Y-13609652D01*
X56977959Y-13599437D01*
X56984890Y-13588492D01*
X56992331Y-13577927D01*
X56998710Y-13566667D01*
X57016586Y-13538437D01*
X57024042Y-13527850D01*
X57030427Y-13516579D01*
X57037348Y-13505649D01*
X57043165Y-13494093D01*
X57059631Y-13465025D01*
X57066554Y-13454093D01*
X57072377Y-13442526D01*
X57078758Y-13431261D01*
X57084000Y-13419436D01*
X57099024Y-13389589D01*
X57105407Y-13378321D01*
X57110648Y-13366496D01*
X57116467Y-13354937D01*
X57121131Y-13342847D01*
X57134664Y-13312316D01*
X57140486Y-13300749D01*
X57145149Y-13288660D01*
X57150391Y-13276834D01*
X57154447Y-13264555D01*
X57166472Y-13233381D01*
X57171718Y-13221547D01*
X57175781Y-13209249D01*
X57180437Y-13197178D01*
X57183888Y-13184710D01*
X57194367Y-13152989D01*
X57199026Y-13140911D01*
X57202480Y-13128432D01*
X57206540Y-13116141D01*
X57209375Y-13103515D01*
X57218291Y-13071300D01*
X57222348Y-13059018D01*
X57225181Y-13046404D01*
X57228635Y-13033922D01*
X57230850Y-13021159D01*
X57238170Y-12988559D01*
X57241621Y-12976090D01*
X57243832Y-12963347D01*
X57246671Y-12950705D01*
X57248257Y-12937845D01*
X57253965Y-12904947D01*
X57256801Y-12892319D01*
X57258386Y-12879468D01*
X57260599Y-12866715D01*
X57261551Y-12853812D01*
X57265642Y-12820649D01*
X57267855Y-12807891D01*
X57268807Y-12794989D01*
X57270391Y-12782145D01*
X57270709Y-12769200D01*
X57273167Y-12735881D01*
X57274750Y-12723044D01*
X57275068Y-12710104D01*
X57276021Y-12697182D01*
X57275703Y-12684240D01*
X57276364Y-12657339D01*
X57277000Y-12650881D01*
X57277000Y-12631447D01*
X57277476Y-12612069D01*
X57277000Y-12605614D01*
X57277000Y-12222476D01*
X57310318Y-12219194D01*
X57401972Y-12191391D01*
X57486442Y-12146241D01*
X57560480Y-12085480D01*
X57621241Y-12011442D01*
X57666391Y-11926972D01*
X57673000Y-11905185D01*
X57673000Y-15160866D01*
X57657992Y-15389852D01*
X57615316Y-15604397D01*
X57545001Y-15811537D01*
X57448256Y-16007718D01*
X57326721Y-16189608D01*
X57175428Y-16362124D01*
X56362124Y-17175428D01*
X56189608Y-17326721D01*
X56007718Y-17448256D01*
X55811537Y-17545001D01*
X55604397Y-17615316D01*
X55389852Y-17657992D01*
X55160866Y-17673000D01*
X52707107Y-17673000D01*
X52681451Y-17674008D01*
X52414400Y-17695025D01*
X52363719Y-17703052D01*
X52103245Y-17765587D01*
X52054444Y-17781444D01*
X51806959Y-17883956D01*
X51761241Y-17907250D01*
X51532839Y-18047214D01*
X51491325Y-18077375D01*
X51287630Y-18251347D01*
X51268776Y-18268776D01*
X51210718Y-18326834D01*
X51193289Y-18345689D01*
X51039518Y-18525732D01*
X51009358Y-18567243D01*
X50885645Y-18769123D01*
X50862349Y-18814844D01*
X50771741Y-19033592D01*
X50755885Y-19082393D01*
X50700612Y-19312623D01*
X50692585Y-19363303D01*
X50674008Y-19599344D01*
X48652966Y-19599344D01*
X48427038Y-19369587D01*
X48403179Y-19347618D01*
X48250955Y-19220806D01*
X48197314Y-19184473D01*
X48023076Y-19090161D01*
X47963325Y-19065117D01*
X47773914Y-19007008D01*
X47710400Y-18994235D01*
X47513249Y-18974608D01*
X47480855Y-18973000D01*
X47350000Y-18973000D01*
X47307317Y-18975798D01*
X47164967Y-18994539D01*
X47082513Y-19016632D01*
X46949863Y-19071577D01*
X46875936Y-19114259D01*
X46762027Y-19201664D01*
X46701664Y-19262027D01*
X46614259Y-19375936D01*
X46571577Y-19449863D01*
X46516632Y-19582513D01*
X46494539Y-19664967D01*
X46475798Y-19807317D01*
X46473000Y-19850000D01*
X627000Y-19850000D01*
X627000Y-10650000D01*
X48773000Y-10650000D01*
X48773000Y-13500000D01*
X48774575Y-13532052D01*
X48793790Y-13727142D01*
X48806295Y-13790012D01*
X48863200Y-13977605D01*
X48887732Y-14036830D01*
X48980142Y-14209717D01*
X49015755Y-14263016D01*
X49140118Y-14414553D01*
X49185447Y-14459882D01*
X49336984Y-14584245D01*
X49390283Y-14619858D01*
X49563170Y-14712268D01*
X49622395Y-14736800D01*
X49809988Y-14793705D01*
X49872858Y-14806210D01*
X50067948Y-14825425D01*
X50100000Y-14827000D01*
X50350350Y-14827000D01*
X50288660Y-14902169D01*
X50238081Y-14996795D01*
X50206935Y-15099471D01*
X50196418Y-15206250D01*
X50196418Y-15643750D01*
X50206935Y-15750529D01*
X50238081Y-15853205D01*
X50288660Y-15947831D01*
X50356728Y-16030772D01*
X50439669Y-16098840D01*
X50534295Y-16149419D01*
X50636971Y-16180565D01*
X50743750Y-16191082D01*
X51256250Y-16191082D01*
X51363029Y-16180565D01*
X51465705Y-16149419D01*
X51560331Y-16098840D01*
X51643272Y-16030772D01*
X51711340Y-15947831D01*
X51761919Y-15853205D01*
X51772317Y-15818926D01*
X52621785Y-15753582D01*
X52975000Y-15753582D01*
X53039103Y-15747268D01*
X53100743Y-15728570D01*
X53157550Y-15698206D01*
X53207343Y-15657343D01*
X53248206Y-15607550D01*
X53278570Y-15550743D01*
X53297268Y-15489103D01*
X53303582Y-15425000D01*
X53303582Y-15175000D01*
X53297268Y-15110897D01*
X53278795Y-15050000D01*
X53297268Y-14989103D01*
X53303582Y-14925000D01*
X53303582Y-14675000D01*
X53297268Y-14610897D01*
X53278795Y-14550000D01*
X53297268Y-14489103D01*
X53303582Y-14425000D01*
X53303582Y-14265926D01*
X53305081Y-14263540D01*
X53336851Y-14197569D01*
X53390472Y-14044331D01*
X53406767Y-13972940D01*
X53424944Y-13811612D01*
X53427000Y-13775000D01*
X53427000Y-13459216D01*
X53425459Y-13427512D01*
X53406659Y-13234518D01*
X53394422Y-13172302D01*
X53338728Y-12986564D01*
X53314714Y-12927881D01*
X53224222Y-12756384D01*
X53189333Y-12703436D01*
X53067443Y-12552627D01*
X53046316Y-12528939D01*
X50727087Y-10169723D01*
X50703226Y-10147746D01*
X50550991Y-10020893D01*
X50497345Y-9984548D01*
X50323084Y-9890203D01*
X50263324Y-9865150D01*
X50073881Y-9807020D01*
X50010356Y-9794243D01*
X49813171Y-9774609D01*
X49780771Y-9773000D01*
X49650000Y-9773000D01*
X49607317Y-9775798D01*
X49464967Y-9794539D01*
X49382513Y-9816632D01*
X49249863Y-9871577D01*
X49175936Y-9914259D01*
X49062027Y-10001664D01*
X49001664Y-10062027D01*
X48914259Y-10175936D01*
X48871577Y-10249863D01*
X48816632Y-10382513D01*
X48794539Y-10464967D01*
X48775798Y-10607317D01*
X48773000Y-10650000D01*
X627000Y-10650000D01*
X627000Y-1506234D01*
X644376Y-1329811D01*
X694022Y-1166150D01*
X774638Y-1015328D01*
X883130Y-883130D01*
X1015328Y-774638D01*
X1166150Y-694022D01*
X1329811Y-644376D01*
X1506234Y-627000D01*
X98493766Y-627000D01*
X98670189Y-644376D01*
%TA.AperFunction,Conductor*%
D19*
G36*
X98670189Y-644376D02*
G01*
X98833850Y-694022D01*
X98984672Y-774638D01*
X99116870Y-883130D01*
X99225362Y-1015328D01*
X99305978Y-1166150D01*
X99355624Y-1329811D01*
X99373000Y-1506234D01*
X99373000Y-23450787D01*
X99358598Y-23429233D01*
X99332558Y-23395298D01*
X99160065Y-23198608D01*
X99145438Y-23182990D01*
X98817010Y-22854562D01*
X98801392Y-22839935D01*
X98604702Y-22667442D01*
X98570767Y-22641402D01*
X98353244Y-22496058D01*
X98316201Y-22474672D01*
X98081568Y-22358964D01*
X98042051Y-22342595D01*
X97794322Y-22258502D01*
X97753005Y-22247431D01*
X97496419Y-22196393D01*
X97454012Y-22190810D01*
X97192960Y-22173700D01*
X97171573Y-22173000D01*
X92809017Y-22173000D01*
X92772887Y-22175002D01*
X92574235Y-22197086D01*
X92503740Y-22212956D01*
X92314788Y-22278130D01*
X92249499Y-22309095D01*
X92211393Y-22332646D01*
X92155636Y-22355741D01*
X92036564Y-22435302D01*
X91935302Y-22536564D01*
X91920525Y-22558679D01*
X91879785Y-22598581D01*
X91834064Y-22654537D01*
X91725471Y-22822341D01*
X91707522Y-22853763D01*
X91668668Y-22931472D01*
X91658252Y-22954485D01*
X91541890Y-23240512D01*
X91526532Y-23288607D01*
X91455586Y-23589138D01*
X91447814Y-23639023D01*
X91423976Y-23946892D01*
X91423000Y-23972136D01*
X91423000Y-26299306D01*
X91423883Y-26323319D01*
X91439937Y-26541348D01*
X91446971Y-26588856D01*
X91494787Y-26802183D01*
X91508705Y-26848149D01*
X91587252Y-27052170D01*
X91607751Y-27095600D01*
X91715334Y-27285917D01*
X91747030Y-27332208D01*
X91851750Y-27460056D01*
X91897090Y-27505471D01*
X92024763Y-27610405D01*
X92078095Y-27646089D01*
X92223801Y-27724069D01*
X92283079Y-27748652D01*
X92441210Y-27796674D01*
X92504144Y-27809206D01*
X92668608Y-27825422D01*
X92700694Y-27827000D01*
X97171573Y-27827000D01*
X97192960Y-27826300D01*
X97454012Y-27809190D01*
X97496419Y-27803607D01*
X97753005Y-27752569D01*
X97794322Y-27741498D01*
X98042051Y-27657405D01*
X98081568Y-27641036D01*
X98316201Y-27525328D01*
X98353244Y-27503942D01*
X98570767Y-27358598D01*
X98604702Y-27332558D01*
X98801392Y-27160065D01*
X98817010Y-27145438D01*
X99145438Y-26817010D01*
X99160065Y-26801392D01*
X99332558Y-26604702D01*
X99358598Y-26570767D01*
X99373000Y-26549213D01*
X99373000Y-48493766D01*
X99355624Y-48670189D01*
X99305978Y-48833850D01*
X99225362Y-48984672D01*
X99116870Y-49116870D01*
X98984672Y-49225362D01*
X98833850Y-49305978D01*
X98670189Y-49355624D01*
X98493766Y-49373000D01*
X1506234Y-49373000D01*
X1329811Y-49355624D01*
X1166150Y-49305978D01*
X1015328Y-49225362D01*
X883130Y-49116870D01*
X774638Y-48984672D01*
X694022Y-48833850D01*
X644376Y-48670189D01*
X627000Y-48493766D01*
X627000Y-39650000D01*
X48773000Y-39650000D01*
X48773000Y-42500000D01*
X48774575Y-42532052D01*
X48793790Y-42727142D01*
X48806295Y-42790012D01*
X48863200Y-42977605D01*
X48887732Y-43036830D01*
X48980142Y-43209717D01*
X49015755Y-43263016D01*
X49140118Y-43414553D01*
X49185447Y-43459882D01*
X49336984Y-43584245D01*
X49390283Y-43619858D01*
X49563170Y-43712268D01*
X49622395Y-43736800D01*
X49809988Y-43793705D01*
X49872858Y-43806210D01*
X50067948Y-43825425D01*
X50100000Y-43827000D01*
X51946418Y-43827000D01*
X51946418Y-43925000D01*
X51952732Y-43989103D01*
X51957017Y-44003230D01*
X51621071Y-44088508D01*
X51560331Y-44038660D01*
X51465705Y-43988081D01*
X51363029Y-43956935D01*
X51256250Y-43946418D01*
X50743750Y-43946418D01*
X50636971Y-43956935D01*
X50534295Y-43988081D01*
X50439669Y-44038660D01*
X50356728Y-44106728D01*
X50288660Y-44189669D01*
X50238081Y-44284295D01*
X50206935Y-44386971D01*
X50196418Y-44493750D01*
X50196418Y-44931250D01*
X50206935Y-45038029D01*
X50238081Y-45140705D01*
X50288660Y-45235331D01*
X50356728Y-45318272D01*
X50439669Y-45386340D01*
X50534295Y-45436919D01*
X50636971Y-45468065D01*
X50743750Y-45478582D01*
X51256250Y-45478582D01*
X51363029Y-45468065D01*
X51465705Y-45436919D01*
X51560331Y-45386340D01*
X51643272Y-45318272D01*
X51711340Y-45235331D01*
X51761919Y-45140705D01*
X51793065Y-45038029D01*
X51799178Y-44975967D01*
X52675238Y-44753582D01*
X52975000Y-44753582D01*
X53039103Y-44747268D01*
X53100743Y-44728570D01*
X53157550Y-44698206D01*
X53207343Y-44657343D01*
X53248206Y-44607550D01*
X53278570Y-44550743D01*
X53297268Y-44489103D01*
X53303582Y-44425000D01*
X53303582Y-44175000D01*
X53297268Y-44110897D01*
X53278795Y-44050000D01*
X53297268Y-43989103D01*
X53303582Y-43925000D01*
X53303582Y-43675000D01*
X53297268Y-43610897D01*
X53278795Y-43550000D01*
X53297268Y-43489103D01*
X53303582Y-43425000D01*
X53303582Y-43265926D01*
X53305081Y-43263540D01*
X53336851Y-43197569D01*
X53390472Y-43044331D01*
X53406767Y-42972940D01*
X53424944Y-42811612D01*
X53427000Y-42775000D01*
X53427000Y-42459216D01*
X53425459Y-42427512D01*
X53406659Y-42234518D01*
X53394422Y-42172302D01*
X53338728Y-41986564D01*
X53314714Y-41927881D01*
X53224222Y-41756384D01*
X53189333Y-41703436D01*
X53067443Y-41552627D01*
X53046316Y-41528939D01*
X50727087Y-39169723D01*
X50703226Y-39147746D01*
X50550991Y-39020893D01*
X50497345Y-38984548D01*
X50323084Y-38890203D01*
X50263324Y-38865150D01*
X50073881Y-38807020D01*
X50010356Y-38794243D01*
X49813171Y-38774609D01*
X49780771Y-38773000D01*
X49650000Y-38773000D01*
X49607317Y-38775798D01*
X49464967Y-38794539D01*
X49382513Y-38816632D01*
X49249863Y-38871577D01*
X49175936Y-38914259D01*
X49062027Y-39001664D01*
X49001664Y-39062027D01*
X48914259Y-39175936D01*
X48871577Y-39249863D01*
X48816632Y-39382513D01*
X48794539Y-39464967D01*
X48775798Y-39607317D01*
X48773000Y-39650000D01*
X627000Y-39650000D01*
X627000Y-30350000D01*
X46473000Y-30350000D01*
X46473000Y-33300000D01*
X46474575Y-33332052D01*
X46493790Y-33527142D01*
X46506295Y-33590012D01*
X46563200Y-33777605D01*
X46587732Y-33836830D01*
X46680142Y-34009717D01*
X46715755Y-34063016D01*
X46840118Y-34214553D01*
X46885447Y-34259882D01*
X47036984Y-34384245D01*
X47090283Y-34419858D01*
X47263170Y-34512268D01*
X47322395Y-34536800D01*
X47509988Y-34593705D01*
X47572858Y-34606210D01*
X47767948Y-34625425D01*
X47800000Y-34627000D01*
X49696418Y-34627000D01*
X49696418Y-34675000D01*
X49701225Y-34723804D01*
X49154669Y-34833115D01*
X49143272Y-34819228D01*
X49060331Y-34751160D01*
X48965705Y-34700581D01*
X48863029Y-34669435D01*
X48756250Y-34658918D01*
X48243750Y-34658918D01*
X48136971Y-34669435D01*
X48034295Y-34700581D01*
X47939669Y-34751160D01*
X47856728Y-34819228D01*
X47788660Y-34902169D01*
X47738081Y-34996795D01*
X47706935Y-35099471D01*
X47696418Y-35206250D01*
X47696418Y-35643750D01*
X47706935Y-35750529D01*
X47738081Y-35853205D01*
X47788660Y-35947831D01*
X47856728Y-36030772D01*
X47939669Y-36098840D01*
X48034295Y-36149419D01*
X48136971Y-36180565D01*
X48243750Y-36191082D01*
X48756250Y-36191082D01*
X48863029Y-36180565D01*
X48965705Y-36149419D01*
X49060331Y-36098840D01*
X49143272Y-36030772D01*
X49211340Y-35947831D01*
X49261919Y-35853205D01*
X49293065Y-35750529D01*
X49295395Y-35726872D01*
X50411842Y-35503582D01*
X50725000Y-35503582D01*
X50789103Y-35497268D01*
X50850743Y-35478570D01*
X50907550Y-35448206D01*
X50957343Y-35407343D01*
X50998206Y-35357550D01*
X51028570Y-35300743D01*
X51047268Y-35239103D01*
X51053582Y-35175000D01*
X51053582Y-34925000D01*
X51047268Y-34860897D01*
X51028795Y-34800000D01*
X51047268Y-34739103D01*
X51053582Y-34675000D01*
X51053582Y-34425000D01*
X51047268Y-34360897D01*
X51028795Y-34300000D01*
X51047268Y-34239103D01*
X51053582Y-34175000D01*
X51053582Y-34047361D01*
X51084377Y-33983414D01*
X51139846Y-33824892D01*
X51156140Y-33753503D01*
X51174944Y-33586612D01*
X51177000Y-33550000D01*
X51177000Y-33209300D01*
X51175459Y-33177590D01*
X51156652Y-32984560D01*
X51144410Y-32922333D01*
X51088696Y-32736564D01*
X51064672Y-32677870D01*
X50974147Y-32506350D01*
X50939248Y-32453399D01*
X50817318Y-32302578D01*
X50796183Y-32278887D01*
X48427038Y-29869587D01*
X48403179Y-29847618D01*
X48250955Y-29720806D01*
X48197314Y-29684473D01*
X48023076Y-29590161D01*
X47963325Y-29565117D01*
X47773914Y-29507008D01*
X47710400Y-29494235D01*
X47513249Y-29474608D01*
X47480855Y-29473000D01*
X47350000Y-29473000D01*
X47307317Y-29475798D01*
X47164967Y-29494539D01*
X47082513Y-29516632D01*
X46949863Y-29571577D01*
X46875936Y-29614259D01*
X46762027Y-29701664D01*
X46701664Y-29762027D01*
X46614259Y-29875936D01*
X46571577Y-29949863D01*
X46516632Y-30082513D01*
X46494539Y-30164967D01*
X46475798Y-30307317D01*
X46473000Y-30350000D01*
X627000Y-30350000D01*
X627000Y-26078582D01*
X5540000Y-26078582D01*
X5604103Y-26072268D01*
X5665743Y-26053570D01*
X5722550Y-26023206D01*
X5772343Y-25982343D01*
X5813206Y-25932550D01*
X5843570Y-25875743D01*
X5858356Y-25827000D01*
X8884571Y-25827000D01*
X8890460Y-25846414D01*
X8943927Y-25946443D01*
X9015881Y-26034119D01*
X9103557Y-26106073D01*
X9203586Y-26159540D01*
X9248001Y-26173013D01*
X9248001Y-26408918D01*
X8675000Y-26408918D01*
X8562124Y-26420035D01*
X8453586Y-26452960D01*
X8353557Y-26506427D01*
X8265881Y-26578381D01*
X8193927Y-26666057D01*
X8140460Y-26766086D01*
X8107535Y-26874624D01*
X8096418Y-26987500D01*
X8096418Y-28562500D01*
X8107535Y-28675376D01*
X8140460Y-28783914D01*
X8193927Y-28883943D01*
X8265881Y-28971619D01*
X8353557Y-29043573D01*
X8453586Y-29097040D01*
X8562124Y-29129965D01*
X8675000Y-29141082D01*
X10725000Y-29141082D01*
X10837876Y-29129965D01*
X10946414Y-29097040D01*
X11046443Y-29043573D01*
X11134119Y-28971619D01*
X11206073Y-28883943D01*
X11259540Y-28783914D01*
X11292465Y-28675376D01*
X11303582Y-28562500D01*
X11303582Y-26987500D01*
X11292465Y-26874624D01*
X11259540Y-26766086D01*
X11206073Y-26666057D01*
X11134119Y-26578381D01*
X11046443Y-26506427D01*
X10946414Y-26452960D01*
X10837876Y-26420035D01*
X10725000Y-26408918D01*
X10152000Y-26408918D01*
X10152000Y-26203582D01*
X10175000Y-26203582D01*
X10287876Y-26192465D01*
X10396414Y-26159540D01*
X10496443Y-26106073D01*
X10584119Y-26034119D01*
X10656073Y-25946443D01*
X10709540Y-25846414D01*
X10742465Y-25737876D01*
X10753582Y-25625000D01*
X10753582Y-24928397D01*
X11473000Y-24928397D01*
X11473000Y-25071603D01*
X11500938Y-25212058D01*
X11555741Y-25344364D01*
X11635302Y-25463436D01*
X11646418Y-25474552D01*
X11646418Y-25625000D01*
X11657535Y-25737876D01*
X11690460Y-25846414D01*
X11743927Y-25946443D01*
X11815881Y-26034119D01*
X11903557Y-26106073D01*
X12003586Y-26159540D01*
X12112124Y-26192465D01*
X12225000Y-26203582D01*
X12975000Y-26203582D01*
X13087876Y-26192465D01*
X13196414Y-26159540D01*
X13296443Y-26106073D01*
X13384119Y-26034119D01*
X13456073Y-25946443D01*
X13509540Y-25846414D01*
X13542465Y-25737876D01*
X13553582Y-25625000D01*
X13553582Y-24375000D01*
X13542465Y-24262124D01*
X13509540Y-24153586D01*
X13456073Y-24053557D01*
X13384119Y-23965881D01*
X13296443Y-23893927D01*
X13196414Y-23840460D01*
X13087876Y-23807535D01*
X12975000Y-23796418D01*
X12225000Y-23796418D01*
X12112124Y-23807535D01*
X12003586Y-23840460D01*
X11903557Y-23893927D01*
X11815881Y-23965881D01*
X11743927Y-24053557D01*
X11690460Y-24153586D01*
X11657535Y-24262124D01*
X11646418Y-24375000D01*
X11646418Y-24525448D01*
X11635302Y-24536564D01*
X11555741Y-24655636D01*
X11500938Y-24787942D01*
X11473000Y-24928397D01*
X10753582Y-24928397D01*
X10753582Y-24375000D01*
X10742465Y-24262124D01*
X10709540Y-24153586D01*
X10656073Y-24053557D01*
X10584119Y-23965881D01*
X10496443Y-23893927D01*
X10396414Y-23840460D01*
X10287876Y-23807535D01*
X10252000Y-23804002D01*
X10252000Y-23753582D01*
X10256250Y-23753582D01*
X10367906Y-23742585D01*
X10475272Y-23710016D01*
X10574221Y-23657127D01*
X10660950Y-23585950D01*
X10732127Y-23499221D01*
X10785016Y-23400272D01*
X10817585Y-23292906D01*
X10828582Y-23181250D01*
X10828582Y-22693750D01*
X10817585Y-22582094D01*
X10785016Y-22474728D01*
X10732127Y-22375779D01*
X10660950Y-22289050D01*
X10574221Y-22217873D01*
X10475272Y-22164984D01*
X10367906Y-22132415D01*
X10256250Y-22121418D01*
X9343750Y-22121418D01*
X9232094Y-22132415D01*
X9124728Y-22164984D01*
X9025779Y-22217873D01*
X8939050Y-22289050D01*
X8867873Y-22375779D01*
X8814984Y-22474728D01*
X8782415Y-22582094D01*
X8771418Y-22693750D01*
X8771418Y-23181250D01*
X8782415Y-23292906D01*
X8814984Y-23400272D01*
X8867873Y-23499221D01*
X8939050Y-23585950D01*
X9025779Y-23657127D01*
X9124728Y-23710016D01*
X9232094Y-23742585D01*
X9343750Y-23753582D01*
X9348000Y-23753582D01*
X9348000Y-23804002D01*
X9312124Y-23807535D01*
X9203586Y-23840460D01*
X9103557Y-23893927D01*
X9015881Y-23965881D01*
X8943927Y-24053557D01*
X8890460Y-24153586D01*
X8884571Y-24173000D01*
X5858356Y-24173000D01*
X5843570Y-24124257D01*
X5813206Y-24067450D01*
X5772343Y-24017657D01*
X5722550Y-23976794D01*
X5665743Y-23946430D01*
X5604103Y-23927732D01*
X5540000Y-23921418D01*
X627000Y-23921418D01*
X627000Y-19850000D01*
X46473000Y-19850000D01*
X46473000Y-22800000D01*
X46474575Y-22832052D01*
X46493790Y-23027142D01*
X46506295Y-23090012D01*
X46563200Y-23277605D01*
X46587732Y-23336830D01*
X46680142Y-23509717D01*
X46715755Y-23563016D01*
X46840118Y-23714553D01*
X46885447Y-23759882D01*
X47036984Y-23884245D01*
X47090283Y-23919858D01*
X47263170Y-24012268D01*
X47322395Y-24036800D01*
X47509988Y-24093705D01*
X47572858Y-24106210D01*
X47767948Y-24125425D01*
X47800000Y-24127000D01*
X48028919Y-24127000D01*
X48006935Y-24199471D01*
X47996418Y-24306250D01*
X47996418Y-24743750D01*
X48006935Y-24850529D01*
X48038081Y-24953205D01*
X48088660Y-25047831D01*
X48156728Y-25130772D01*
X48239669Y-25198840D01*
X48334295Y-25249419D01*
X48436971Y-25280565D01*
X48543750Y-25291082D01*
X49056250Y-25291082D01*
X49163029Y-25280565D01*
X49215677Y-25264595D01*
X49068614Y-25446418D01*
X48781250Y-25446418D01*
X48674471Y-25456935D01*
X48571795Y-25488081D01*
X48477169Y-25538660D01*
X48394228Y-25606728D01*
X48326160Y-25689669D01*
X48275581Y-25784295D01*
X48244435Y-25886971D01*
X48233918Y-25993750D01*
X48233918Y-26506250D01*
X48244435Y-26613029D01*
X48275581Y-26715705D01*
X48326160Y-26810331D01*
X48394228Y-26893272D01*
X48477169Y-26961340D01*
X48571795Y-27011919D01*
X48674471Y-27043065D01*
X48781250Y-27053582D01*
X49218750Y-27053582D01*
X49325529Y-27043065D01*
X49428205Y-27011919D01*
X49522831Y-26961340D01*
X49605772Y-26893272D01*
X49673840Y-26810331D01*
X49724419Y-26715705D01*
X49755565Y-26613029D01*
X49766082Y-26506250D01*
X49766082Y-26021593D01*
X50589475Y-25003582D01*
X50725000Y-25003582D01*
X50789103Y-24997268D01*
X50850743Y-24978570D01*
X50907550Y-24948206D01*
X50957343Y-24907343D01*
X50998206Y-24857550D01*
X51028570Y-24800743D01*
X51047268Y-24739103D01*
X51053582Y-24675000D01*
X51053582Y-24425000D01*
X51047268Y-24360897D01*
X51028795Y-24300000D01*
X51047268Y-24239103D01*
X51053582Y-24175000D01*
X51053582Y-23925000D01*
X51047268Y-23860897D01*
X51028795Y-23800000D01*
X51047268Y-23739103D01*
X51053582Y-23675000D01*
X51053582Y-23547361D01*
X51084377Y-23483414D01*
X51139846Y-23324892D01*
X51156140Y-23253503D01*
X51174944Y-23086612D01*
X51177000Y-23050000D01*
X51177000Y-22709300D01*
X51175459Y-22677590D01*
X51156652Y-22484560D01*
X51144410Y-22422333D01*
X51088696Y-22236564D01*
X51064672Y-22177870D01*
X50974147Y-22006350D01*
X50939248Y-21953399D01*
X50817318Y-21802578D01*
X50796183Y-21778887D01*
X48652966Y-19599344D01*
X50674008Y-19599344D01*
X50675797Y-19667681D01*
X50697093Y-19829443D01*
X50719188Y-19911900D01*
X50746418Y-19977639D01*
X50746418Y-20040000D01*
X50755806Y-20135318D01*
X50783609Y-20226972D01*
X50828759Y-20311442D01*
X50889520Y-20385480D01*
X50963558Y-20446241D01*
X51048028Y-20491391D01*
X51139682Y-20519194D01*
X51235000Y-20528582D01*
X51332716Y-20528582D01*
X51338100Y-20530812D01*
X51420557Y-20552907D01*
X51582319Y-20574203D01*
X51625000Y-20577000D01*
X51875000Y-20577000D01*
X51917681Y-20574203D01*
X52079443Y-20552907D01*
X52161900Y-20530812D01*
X52167996Y-20528287D01*
X52260318Y-20519194D01*
X52351972Y-20491391D01*
X52423000Y-20453426D01*
X52423000Y-22250000D01*
X52425797Y-22292682D01*
X52442834Y-22422092D01*
X52464928Y-22504547D01*
X52514878Y-22625137D01*
X52546984Y-22680745D01*
X52552732Y-22739103D01*
X52571205Y-22800000D01*
X52552732Y-22860897D01*
X52546418Y-22925000D01*
X52546418Y-23175000D01*
X52552732Y-23239103D01*
X52571430Y-23300743D01*
X52601794Y-23357550D01*
X52642657Y-23407343D01*
X52692450Y-23448206D01*
X52749257Y-23478570D01*
X52754451Y-23480145D01*
X52722658Y-23497139D01*
X52641552Y-23551332D01*
X52591998Y-23592000D01*
X52551332Y-23641552D01*
X52497139Y-23722658D01*
X52466921Y-23779192D01*
X52448313Y-23840535D01*
X52429283Y-23936206D01*
X52423000Y-24000000D01*
X52429283Y-24063794D01*
X52448313Y-24159465D01*
X52466921Y-24220808D01*
X52497139Y-24277342D01*
X52551332Y-24358448D01*
X52552897Y-24360354D01*
X52552732Y-24360897D01*
X52546418Y-24425000D01*
X52546418Y-24675000D01*
X52552732Y-24739103D01*
X52571430Y-24800743D01*
X52601794Y-24857550D01*
X52642657Y-24907343D01*
X52692450Y-24948206D01*
X52749257Y-24978570D01*
X52783046Y-24988820D01*
X52685302Y-25086564D01*
X52605741Y-25205636D01*
X52550938Y-25337942D01*
X52523000Y-25478397D01*
X52523000Y-25621603D01*
X52550938Y-25762058D01*
X52605741Y-25894364D01*
X52685302Y-26013436D01*
X52786564Y-26114698D01*
X52905636Y-26194259D01*
X53037942Y-26249062D01*
X53178397Y-26277000D01*
X53321603Y-26277000D01*
X53462058Y-26249062D01*
X53594364Y-26194259D01*
X53713436Y-26114698D01*
X53814698Y-26013436D01*
X53894259Y-25894364D01*
X53949062Y-25762058D01*
X53977000Y-25621603D01*
X53977000Y-25478397D01*
X53949062Y-25337942D01*
X53894259Y-25205636D01*
X53814698Y-25086564D01*
X53713436Y-24985302D01*
X53702197Y-24977793D01*
X53757550Y-24948206D01*
X53807343Y-24907343D01*
X53848206Y-24857550D01*
X53863266Y-24829375D01*
X53883687Y-24846135D01*
X54903865Y-25866313D01*
X55023359Y-26011916D01*
X55104545Y-26163805D01*
X55154538Y-26328610D01*
X55197769Y-26767546D01*
X55210275Y-26830419D01*
X55278967Y-27056864D01*
X55303497Y-27116086D01*
X55415045Y-27324779D01*
X55450660Y-27378080D01*
X55600779Y-27561000D01*
X55622329Y-27584777D01*
X55732054Y-27694502D01*
X55704012Y-27690810D01*
X55442960Y-27673700D01*
X55421573Y-27673000D01*
X53578427Y-27673000D01*
X53557040Y-27673700D01*
X53295988Y-27690810D01*
X53253581Y-27696393D01*
X52996995Y-27747431D01*
X52955678Y-27758502D01*
X52707949Y-27842595D01*
X52668432Y-27858964D01*
X52433799Y-27974672D01*
X52396756Y-27996058D01*
X52179233Y-28141402D01*
X52145298Y-28167442D01*
X51948608Y-28339935D01*
X51932990Y-28354562D01*
X51122329Y-29165223D01*
X51100779Y-29189000D01*
X50950660Y-29371920D01*
X50915045Y-29425221D01*
X50803497Y-29633914D01*
X50778967Y-29693136D01*
X50710275Y-29919581D01*
X50697769Y-29982454D01*
X50674575Y-30217949D01*
X50675797Y-30292682D01*
X50692834Y-30422092D01*
X50714928Y-30504547D01*
X50751660Y-30593227D01*
X50755806Y-30635318D01*
X50783609Y-30726972D01*
X50828759Y-30811442D01*
X50889520Y-30885480D01*
X50963558Y-30946241D01*
X51048028Y-30991391D01*
X51139682Y-31019194D01*
X51228158Y-31027908D01*
X51245453Y-31035072D01*
X51327908Y-31057166D01*
X51457318Y-31074203D01*
X51500000Y-31077000D01*
X52000000Y-31077000D01*
X52042682Y-31074203D01*
X52172092Y-31057166D01*
X52254547Y-31035072D01*
X52375137Y-30985122D01*
X52423000Y-30957488D01*
X52423000Y-32750000D01*
X52425797Y-32792682D01*
X52442834Y-32922092D01*
X52464928Y-33004547D01*
X52514878Y-33125137D01*
X52546984Y-33180745D01*
X52552732Y-33239103D01*
X52571205Y-33300000D01*
X52552732Y-33360897D01*
X52546418Y-33425000D01*
X52546418Y-33675000D01*
X52552732Y-33739103D01*
X52571430Y-33800743D01*
X52601794Y-33857550D01*
X52642657Y-33907343D01*
X52692450Y-33948206D01*
X52749257Y-33978570D01*
X52810897Y-33997268D01*
X52875000Y-34003582D01*
X53555642Y-34003582D01*
X53622352Y-34039239D01*
X53721692Y-34069374D01*
X53825000Y-34079549D01*
X53899671Y-34072195D01*
X53885302Y-34086564D01*
X53877661Y-34098000D01*
X53591061Y-34098000D01*
X53575000Y-34096418D01*
X52875000Y-34096418D01*
X52810897Y-34102732D01*
X52749257Y-34121430D01*
X52692450Y-34151794D01*
X52642657Y-34192657D01*
X52601794Y-34242450D01*
X52571430Y-34299257D01*
X52552732Y-34360897D01*
X52546418Y-34425000D01*
X52546418Y-34675000D01*
X52552732Y-34739103D01*
X52571205Y-34800000D01*
X52552732Y-34860897D01*
X52546418Y-34925000D01*
X52546418Y-35175000D01*
X52552732Y-35239103D01*
X52571430Y-35300743D01*
X52601794Y-35357550D01*
X52619903Y-35379617D01*
X52536564Y-35435302D01*
X52435302Y-35536564D01*
X52355741Y-35655636D01*
X52300938Y-35787942D01*
X52273000Y-35928397D01*
X52273000Y-36071603D01*
X52300938Y-36212058D01*
X52355741Y-36344364D01*
X52435302Y-36463436D01*
X52536564Y-36564698D01*
X52655636Y-36644259D01*
X52787942Y-36699062D01*
X52928397Y-36727000D01*
X53071603Y-36727000D01*
X53212058Y-36699062D01*
X53344364Y-36644259D01*
X53463436Y-36564698D01*
X53564698Y-36463436D01*
X53644259Y-36344364D01*
X53699062Y-36212058D01*
X53727000Y-36071603D01*
X53727000Y-35928397D01*
X53699062Y-35787942D01*
X53644259Y-35655636D01*
X53571761Y-35547135D01*
X53582245Y-35502868D01*
X53639103Y-35497268D01*
X53700743Y-35478570D01*
X53757550Y-35448206D01*
X53807343Y-35407343D01*
X53848206Y-35357550D01*
X53878570Y-35300743D01*
X53897268Y-35239103D01*
X53903582Y-35175000D01*
X53903582Y-35031716D01*
X53986564Y-35114698D01*
X54105636Y-35194259D01*
X54237942Y-35249062D01*
X54378397Y-35277000D01*
X54521603Y-35277000D01*
X54662058Y-35249062D01*
X54794364Y-35194259D01*
X54913436Y-35114698D01*
X55014698Y-35013436D01*
X55094259Y-34894364D01*
X55149062Y-34762058D01*
X55177000Y-34621603D01*
X55177000Y-34478397D01*
X55149062Y-34337942D01*
X55094259Y-34205636D01*
X55014698Y-34086564D01*
X54913436Y-33985302D01*
X54794364Y-33905741D01*
X54662058Y-33850938D01*
X54521603Y-33823000D01*
X54378397Y-33823000D01*
X54277151Y-33843139D01*
X54505380Y-33614909D01*
X54510286Y-33610677D01*
X54523665Y-33596624D01*
X54537392Y-33582897D01*
X54541505Y-33577885D01*
X54560082Y-33558372D01*
X54569443Y-33549460D01*
X54577893Y-33539664D01*
X54586830Y-33530277D01*
X54594795Y-33520070D01*
X54616611Y-33494780D01*
X54625531Y-33485411D01*
X54633490Y-33475213D01*
X54641952Y-33465403D01*
X54649410Y-33454813D01*
X54669957Y-33428485D01*
X54678410Y-33418686D01*
X54685861Y-33408106D01*
X54693828Y-33397898D01*
X54700755Y-33386959D01*
X54719987Y-33359652D01*
X54727959Y-33349437D01*
X54734890Y-33338492D01*
X54742331Y-33327927D01*
X54748710Y-33316667D01*
X54766586Y-33288437D01*
X54774042Y-33277850D01*
X54780427Y-33266579D01*
X54787348Y-33255649D01*
X54793165Y-33244093D01*
X54809631Y-33215025D01*
X54816554Y-33204093D01*
X54822377Y-33192526D01*
X54828758Y-33181261D01*
X54834000Y-33169436D01*
X54849024Y-33139589D01*
X54855407Y-33128321D01*
X54860648Y-33116496D01*
X54866467Y-33104937D01*
X54871131Y-33092847D01*
X54884664Y-33062316D01*
X54890486Y-33050749D01*
X54895149Y-33038660D01*
X54900391Y-33026834D01*
X54904447Y-33014555D01*
X54916472Y-32983381D01*
X54921718Y-32971547D01*
X54925781Y-32959249D01*
X54930437Y-32947178D01*
X54933888Y-32934710D01*
X54944367Y-32902989D01*
X54949026Y-32890911D01*
X54952480Y-32878432D01*
X54956540Y-32866141D01*
X54959375Y-32853515D01*
X54968291Y-32821300D01*
X54972348Y-32809018D01*
X54975181Y-32796404D01*
X54978635Y-32783922D01*
X54980850Y-32771159D01*
X54988170Y-32738559D01*
X54991621Y-32726090D01*
X54993832Y-32713347D01*
X54996671Y-32700705D01*
X54998257Y-32687845D01*
X55003965Y-32654947D01*
X55006801Y-32642319D01*
X55008386Y-32629468D01*
X55010599Y-32616715D01*
X55011551Y-32603812D01*
X55015642Y-32570649D01*
X55017855Y-32557891D01*
X55018807Y-32544989D01*
X55020391Y-32532145D01*
X55020709Y-32519200D01*
X55023167Y-32485881D01*
X55024750Y-32473044D01*
X55025068Y-32460104D01*
X55026021Y-32447182D01*
X55025703Y-32434240D01*
X55026364Y-32407339D01*
X55027000Y-32400881D01*
X55027000Y-32381447D01*
X55027476Y-32362069D01*
X55027000Y-32355614D01*
X55027000Y-31972476D01*
X55060318Y-31969194D01*
X55151972Y-31941391D01*
X55236442Y-31896241D01*
X55310480Y-31835480D01*
X55371241Y-31761442D01*
X55416391Y-31676972D01*
X55423000Y-31655185D01*
X55423000Y-35410866D01*
X55407992Y-35639852D01*
X55365316Y-35854397D01*
X55295001Y-36061537D01*
X55198256Y-36257718D01*
X55076721Y-36439608D01*
X54925428Y-36612124D01*
X53460718Y-38076834D01*
X53443289Y-38095689D01*
X53289518Y-38275732D01*
X53259358Y-38317243D01*
X53135645Y-38519123D01*
X53112349Y-38564844D01*
X53021741Y-38783592D01*
X53005885Y-38832393D01*
X52950612Y-39062623D01*
X52942585Y-39113303D01*
X52924008Y-39349344D01*
X52925797Y-39417681D01*
X52947093Y-39579443D01*
X52969188Y-39661900D01*
X52996418Y-39727639D01*
X52996418Y-39790000D01*
X53005806Y-39885318D01*
X53033609Y-39976972D01*
X53078759Y-40061442D01*
X53139520Y-40135480D01*
X53213558Y-40196241D01*
X53298028Y-40241391D01*
X53389682Y-40269194D01*
X53485000Y-40278582D01*
X53582716Y-40278582D01*
X53588100Y-40280812D01*
X53670557Y-40302907D01*
X53832319Y-40324203D01*
X53875000Y-40327000D01*
X54250000Y-40327000D01*
X54292682Y-40324203D01*
X54422092Y-40307166D01*
X54504547Y-40285072D01*
X54625137Y-40235122D01*
X54673000Y-40207488D01*
X54673000Y-42000000D01*
X54675797Y-42042682D01*
X54692834Y-42172092D01*
X54714928Y-42254547D01*
X54764878Y-42375137D01*
X54796984Y-42430745D01*
X54802732Y-42489103D01*
X54821205Y-42550000D01*
X54802732Y-42610897D01*
X54796418Y-42675000D01*
X54796418Y-42925000D01*
X54802732Y-42989103D01*
X54821430Y-43050743D01*
X54851794Y-43107550D01*
X54892657Y-43157343D01*
X54942450Y-43198206D01*
X54999257Y-43228570D01*
X55060897Y-43247268D01*
X55125000Y-43253582D01*
X55805642Y-43253582D01*
X55872352Y-43289239D01*
X55971692Y-43319374D01*
X56075000Y-43329549D01*
X56178310Y-43319374D01*
X56277649Y-43289239D01*
X56288343Y-43283523D01*
X56235302Y-43336564D01*
X56227661Y-43348000D01*
X55841061Y-43348000D01*
X55825000Y-43346418D01*
X55125000Y-43346418D01*
X55060897Y-43352732D01*
X54999257Y-43371430D01*
X54942450Y-43401794D01*
X54892657Y-43442657D01*
X54851794Y-43492450D01*
X54821430Y-43549257D01*
X54802732Y-43610897D01*
X54796418Y-43675000D01*
X54796418Y-43925000D01*
X54802732Y-43989103D01*
X54821205Y-44050000D01*
X54802732Y-44110897D01*
X54796418Y-44175000D01*
X54796418Y-44425000D01*
X54802732Y-44489103D01*
X54821430Y-44550743D01*
X54851794Y-44607550D01*
X54892657Y-44657343D01*
X54942450Y-44698206D01*
X54958868Y-44706982D01*
X54935180Y-44869409D01*
X54836564Y-44935302D01*
X54735302Y-45036564D01*
X54655741Y-45155636D01*
X54600938Y-45287942D01*
X54573000Y-45428397D01*
X54573000Y-45571603D01*
X54600938Y-45712058D01*
X54655741Y-45844364D01*
X54735302Y-45963436D01*
X54836564Y-46064698D01*
X54955636Y-46144259D01*
X55087942Y-46199062D01*
X55228397Y-46227000D01*
X55371603Y-46227000D01*
X55512058Y-46199062D01*
X55644364Y-46144259D01*
X55763436Y-46064698D01*
X55864698Y-45963436D01*
X55944259Y-45844364D01*
X55999062Y-45712058D01*
X56027000Y-45571603D01*
X56027000Y-45428397D01*
X55999062Y-45287942D01*
X55944259Y-45155636D01*
X55864698Y-45036564D01*
X55829498Y-45001364D01*
X55866226Y-44749521D01*
X55889103Y-44747268D01*
X55950743Y-44728570D01*
X56007550Y-44698206D01*
X56057343Y-44657343D01*
X56098206Y-44607550D01*
X56128570Y-44550743D01*
X56147268Y-44489103D01*
X56153582Y-44425000D01*
X56153582Y-44252000D01*
X56227661Y-44252000D01*
X56235302Y-44263436D01*
X56336564Y-44364698D01*
X56455636Y-44444259D01*
X56587942Y-44499062D01*
X56728397Y-44527000D01*
X56871603Y-44527000D01*
X57012058Y-44499062D01*
X57144364Y-44444259D01*
X57263436Y-44364698D01*
X57364698Y-44263436D01*
X57444259Y-44144364D01*
X57499062Y-44012058D01*
X57527000Y-43871603D01*
X57527000Y-43728397D01*
X57499062Y-43587942D01*
X57444259Y-43455636D01*
X57364698Y-43336564D01*
X57263436Y-43235302D01*
X57144364Y-43155741D01*
X57012058Y-43100938D01*
X56871603Y-43073000D01*
X56728397Y-43073000D01*
X56587942Y-43100938D01*
X56470851Y-43149439D01*
X56755380Y-42864909D01*
X56760286Y-42860677D01*
X56773665Y-42846624D01*
X56787392Y-42832897D01*
X56791505Y-42827885D01*
X56810082Y-42808372D01*
X56819443Y-42799460D01*
X56827893Y-42789664D01*
X56836830Y-42780277D01*
X56844795Y-42770070D01*
X56866611Y-42744780D01*
X56875531Y-42735411D01*
X56883490Y-42725213D01*
X56891952Y-42715403D01*
X56899410Y-42704813D01*
X56919957Y-42678485D01*
X56928410Y-42668686D01*
X56935861Y-42658106D01*
X56943828Y-42647898D01*
X56950755Y-42636959D01*
X56969987Y-42609652D01*
X56977959Y-42599437D01*
X56984890Y-42588492D01*
X56992331Y-42577927D01*
X56998710Y-42566667D01*
X57016586Y-42538437D01*
X57024042Y-42527850D01*
X57030427Y-42516579D01*
X57037348Y-42505649D01*
X57043165Y-42494093D01*
X57059631Y-42465025D01*
X57066554Y-42454093D01*
X57072377Y-42442526D01*
X57078758Y-42431261D01*
X57084000Y-42419436D01*
X57099024Y-42389589D01*
X57105407Y-42378321D01*
X57110648Y-42366496D01*
X57116467Y-42354937D01*
X57121131Y-42342847D01*
X57134664Y-42312316D01*
X57140486Y-42300749D01*
X57145149Y-42288660D01*
X57150391Y-42276834D01*
X57154447Y-42264555D01*
X57166472Y-42233381D01*
X57171718Y-42221547D01*
X57175781Y-42209249D01*
X57180437Y-42197178D01*
X57183888Y-42184710D01*
X57194367Y-42152989D01*
X57199026Y-42140911D01*
X57202480Y-42128432D01*
X57206540Y-42116141D01*
X57209375Y-42103515D01*
X57218291Y-42071300D01*
X57222348Y-42059018D01*
X57225181Y-42046404D01*
X57228635Y-42033922D01*
X57230850Y-42021159D01*
X57238170Y-41988559D01*
X57241621Y-41976090D01*
X57243832Y-41963347D01*
X57246671Y-41950705D01*
X57248257Y-41937845D01*
X57253965Y-41904947D01*
X57256801Y-41892319D01*
X57258386Y-41879468D01*
X57260599Y-41866715D01*
X57261551Y-41853812D01*
X57265642Y-41820649D01*
X57267855Y-41807891D01*
X57268807Y-41794989D01*
X57270391Y-41782145D01*
X57270709Y-41769200D01*
X57273167Y-41735881D01*
X57274750Y-41723044D01*
X57275068Y-41710104D01*
X57276021Y-41697182D01*
X57275703Y-41684240D01*
X57276364Y-41657339D01*
X57277000Y-41650881D01*
X57277000Y-41631447D01*
X57277476Y-41612069D01*
X57277000Y-41605614D01*
X57277000Y-41222476D01*
X57310318Y-41219194D01*
X57401972Y-41191391D01*
X57486442Y-41146241D01*
X57560480Y-41085480D01*
X57621241Y-41011442D01*
X57666391Y-40926972D01*
X57694194Y-40835318D01*
X57703582Y-40740000D01*
X57703582Y-40260000D01*
X57694194Y-40164682D01*
X57666391Y-40073028D01*
X57640720Y-40025000D01*
X57655751Y-39996877D01*
X57692438Y-39949067D01*
X57735122Y-39875137D01*
X57785072Y-39754547D01*
X57807166Y-39672092D01*
X57824203Y-39542682D01*
X57824203Y-39457318D01*
X57807166Y-39327908D01*
X57785072Y-39245453D01*
X57735122Y-39124863D01*
X57692438Y-39050933D01*
X57612978Y-38947380D01*
X57552620Y-38887022D01*
X57449067Y-38807562D01*
X57375137Y-38764878D01*
X57254547Y-38714928D01*
X57172092Y-38692834D01*
X57042682Y-38675797D01*
X57000000Y-38673000D01*
X56000000Y-38673000D01*
X55967948Y-38674575D01*
X55852610Y-38685935D01*
X62249309Y-34615308D01*
X62268627Y-34602019D01*
X62498797Y-34431202D01*
X62534332Y-34400648D01*
X62737721Y-34198682D01*
X62768523Y-34163363D01*
X62940953Y-33934398D01*
X62966390Y-33895038D01*
X63104319Y-33643776D01*
X63123869Y-33601185D01*
X63224465Y-33332787D01*
X63237725Y-33287838D01*
X63298921Y-33007817D01*
X63305620Y-32961434D01*
X63326159Y-32675540D01*
X63327000Y-32652108D01*
X63327000Y-24493750D01*
X82483918Y-24493750D01*
X82483918Y-25006250D01*
X82494435Y-25113029D01*
X82525581Y-25215705D01*
X82576160Y-25310331D01*
X82644228Y-25393272D01*
X82727169Y-25461340D01*
X82821795Y-25511919D01*
X82924471Y-25543065D01*
X83031250Y-25553582D01*
X83468750Y-25553582D01*
X83575529Y-25543065D01*
X83678205Y-25511919D01*
X83772831Y-25461340D01*
X83855772Y-25393272D01*
X83872908Y-25372391D01*
X83905636Y-25394259D01*
X84037942Y-25449062D01*
X84178397Y-25477000D01*
X84321603Y-25477000D01*
X84462058Y-25449062D01*
X84594364Y-25394259D01*
X84627092Y-25372391D01*
X84644228Y-25393272D01*
X84727169Y-25461340D01*
X84821795Y-25511919D01*
X84924471Y-25543065D01*
X85031250Y-25553582D01*
X85468750Y-25553582D01*
X85575529Y-25543065D01*
X85678205Y-25511919D01*
X85772831Y-25461340D01*
X85855772Y-25393272D01*
X85923840Y-25310331D01*
X85974419Y-25215705D01*
X86005565Y-25113029D01*
X86016082Y-25006250D01*
X86016082Y-24493750D01*
X86058918Y-24493750D01*
X86058918Y-25006250D01*
X86069435Y-25113029D01*
X86100581Y-25215705D01*
X86151160Y-25310331D01*
X86219228Y-25393272D01*
X86302169Y-25461340D01*
X86396795Y-25511919D01*
X86499471Y-25543065D01*
X86606250Y-25553582D01*
X87043750Y-25553582D01*
X87150529Y-25543065D01*
X87253205Y-25511919D01*
X87347831Y-25461340D01*
X87421542Y-25400847D01*
X87537942Y-25449062D01*
X87678397Y-25477000D01*
X87821603Y-25477000D01*
X87962058Y-25449062D01*
X88094364Y-25394259D01*
X88213436Y-25314698D01*
X88314698Y-25213436D01*
X88394259Y-25094364D01*
X88449062Y-24962058D01*
X88477000Y-24821603D01*
X88477000Y-24678397D01*
X88449062Y-24537942D01*
X88394259Y-24405636D01*
X88314698Y-24286564D01*
X88213436Y-24185302D01*
X88094364Y-24105741D01*
X87962058Y-24050938D01*
X87821603Y-24023000D01*
X87678397Y-24023000D01*
X87537942Y-24050938D01*
X87421542Y-24099153D01*
X87347831Y-24038660D01*
X87253205Y-23988081D01*
X87150529Y-23956935D01*
X87043750Y-23946418D01*
X86606250Y-23946418D01*
X86499471Y-23956935D01*
X86396795Y-23988081D01*
X86302169Y-24038660D01*
X86219228Y-24106728D01*
X86151160Y-24189669D01*
X86100581Y-24284295D01*
X86069435Y-24386971D01*
X86058918Y-24493750D01*
X86016082Y-24493750D01*
X86005565Y-24386971D01*
X85974419Y-24284295D01*
X85923840Y-24189669D01*
X85855772Y-24106728D01*
X85772831Y-24038660D01*
X85678205Y-23988081D01*
X85575529Y-23956935D01*
X85468750Y-23946418D01*
X85031250Y-23946418D01*
X84924471Y-23956935D01*
X84821795Y-23988081D01*
X84727169Y-24038660D01*
X84644228Y-24106728D01*
X84627092Y-24127609D01*
X84594364Y-24105741D01*
X84462058Y-24050938D01*
X84321603Y-24023000D01*
X84178397Y-24023000D01*
X84037942Y-24050938D01*
X83905636Y-24105741D01*
X83872908Y-24127609D01*
X83855772Y-24106728D01*
X83772831Y-24038660D01*
X83678205Y-23988081D01*
X83575529Y-23956935D01*
X83468750Y-23946418D01*
X83031250Y-23946418D01*
X82924471Y-23956935D01*
X82821795Y-23988081D01*
X82727169Y-24038660D01*
X82644228Y-24106728D01*
X82576160Y-24189669D01*
X82525581Y-24284295D01*
X82494435Y-24386971D01*
X82483918Y-24493750D01*
X63327000Y-24493750D01*
X63327000Y-14078427D01*
X63326300Y-14057040D01*
X63309190Y-13795988D01*
X63303607Y-13753581D01*
X63252569Y-13496995D01*
X63241498Y-13455678D01*
X63157405Y-13207949D01*
X63141036Y-13168432D01*
X63025328Y-12933799D01*
X63003942Y-12896756D01*
X62858598Y-12679233D01*
X62832558Y-12645298D01*
X62660065Y-12448608D01*
X62645438Y-12432990D01*
X58817010Y-8604562D01*
X58801392Y-8589935D01*
X58604702Y-8417442D01*
X58570767Y-8391402D01*
X58353244Y-8246058D01*
X58316201Y-8224672D01*
X58081568Y-8108964D01*
X58042051Y-8092595D01*
X57794322Y-8008502D01*
X57753005Y-7997431D01*
X57496419Y-7946393D01*
X57454012Y-7940810D01*
X57192960Y-7923700D01*
X57171573Y-7923000D01*
X55328427Y-7923000D01*
X55307040Y-7923700D01*
X55045988Y-7940810D01*
X55003581Y-7946393D01*
X54746995Y-7997431D01*
X54705678Y-8008502D01*
X54457949Y-8092595D01*
X54418432Y-8108964D01*
X54183799Y-8224672D01*
X54146756Y-8246058D01*
X53929233Y-8391402D01*
X53895298Y-8417442D01*
X53698608Y-8589935D01*
X53682990Y-8604562D01*
X53549106Y-8738446D01*
X53531677Y-8757300D01*
X53347152Y-8973351D01*
X53316992Y-9014864D01*
X53168537Y-9257120D01*
X53145241Y-9302840D01*
X53036511Y-9565338D01*
X53020655Y-9614138D01*
X52954327Y-9890413D01*
X52946300Y-9941094D01*
X52924008Y-10224344D01*
X52925056Y-10286612D01*
X52943860Y-10453503D01*
X52960154Y-10524892D01*
X52996418Y-10628529D01*
X52996418Y-10790000D01*
X53005806Y-10885318D01*
X53033609Y-10976972D01*
X53078759Y-11061442D01*
X53139520Y-11135480D01*
X53213558Y-11196241D01*
X53298028Y-11241391D01*
X53389682Y-11269194D01*
X53485000Y-11278582D01*
X53692917Y-11278582D01*
X53725108Y-11289846D01*
X53796497Y-11306140D01*
X53963388Y-11324944D01*
X54000000Y-11327000D01*
X54125000Y-11327000D01*
X54167681Y-11324203D01*
X54329443Y-11302907D01*
X54411900Y-11280812D01*
X54417996Y-11278287D01*
X54510318Y-11269194D01*
X54601972Y-11241391D01*
X54673000Y-11203426D01*
X54673000Y-13000000D01*
X54675797Y-13042682D01*
X54692834Y-13172092D01*
X54714928Y-13254547D01*
X54764878Y-13375137D01*
X54796984Y-13430745D01*
X54802732Y-13489103D01*
X54821205Y-13550000D01*
X54802732Y-13610897D01*
X54796418Y-13675000D01*
X54796418Y-13925000D01*
X54802732Y-13989103D01*
X54821430Y-14050743D01*
X54851794Y-14107550D01*
X54892657Y-14157343D01*
X54942450Y-14198206D01*
X54999257Y-14228570D01*
X55060897Y-14247268D01*
X55125000Y-14253582D01*
X55805642Y-14253582D01*
X55872352Y-14289239D01*
X55971692Y-14319374D01*
X56075000Y-14329549D01*
X56094209Y-14327657D01*
X56085302Y-14336564D01*
X56077661Y-14348000D01*
X55841061Y-14348000D01*
X55825000Y-14346418D01*
X55125000Y-14346418D01*
X55060897Y-14352732D01*
X54999257Y-14371430D01*
X54942450Y-14401794D01*
X54892657Y-14442657D01*
X54851794Y-14492450D01*
X54821430Y-14549257D01*
X54802732Y-14610897D01*
X54796418Y-14675000D01*
X54796418Y-14925000D01*
X54802732Y-14989103D01*
X54821205Y-15050000D01*
X54802732Y-15110897D01*
X54796418Y-15175000D01*
X54796418Y-15425000D01*
X54802732Y-15489103D01*
X54815433Y-15530972D01*
X54755636Y-15555741D01*
X54636564Y-15635302D01*
X54535302Y-15736564D01*
X54455741Y-15855636D01*
X54400938Y-15987942D01*
X54373000Y-16128397D01*
X54373000Y-16271603D01*
X54400938Y-16412058D01*
X54455741Y-16544364D01*
X54535302Y-16663436D01*
X54636564Y-16764698D01*
X54755636Y-16844259D01*
X54887942Y-16899062D01*
X55028397Y-16927000D01*
X55171603Y-16927000D01*
X55312058Y-16899062D01*
X55444364Y-16844259D01*
X55563436Y-16764698D01*
X55664698Y-16663436D01*
X55744259Y-16544364D01*
X55799062Y-16412058D01*
X55827000Y-16271603D01*
X55827000Y-16128397D01*
X55799062Y-15987942D01*
X55744259Y-15855636D01*
X55737418Y-15845397D01*
X55775674Y-15753582D01*
X55825000Y-15753582D01*
X55889103Y-15747268D01*
X55950743Y-15728570D01*
X56007550Y-15698206D01*
X56057343Y-15657343D01*
X56098206Y-15607550D01*
X56128570Y-15550743D01*
X56147268Y-15489103D01*
X56153582Y-15425000D01*
X56153582Y-15331716D01*
X56186564Y-15364698D01*
X56305636Y-15444259D01*
X56437942Y-15499062D01*
X56578397Y-15527000D01*
X56721603Y-15527000D01*
X56862058Y-15499062D01*
X56994364Y-15444259D01*
X57113436Y-15364698D01*
X57214698Y-15263436D01*
X57294259Y-15144364D01*
X57349062Y-15012058D01*
X57377000Y-14871603D01*
X57377000Y-14728397D01*
X57349062Y-14587942D01*
X57294259Y-14455636D01*
X57214698Y-14336564D01*
X57113436Y-14235302D01*
X56994364Y-14155741D01*
X56862058Y-14100938D01*
X56721603Y-14073000D01*
X56578397Y-14073000D01*
X56539566Y-14080724D01*
X56755380Y-13864909D01*
X56760286Y-13860677D01*
X56773665Y-13846624D01*
X56787392Y-13832897D01*
X56791505Y-13827885D01*
X56810082Y-13808372D01*
X56819443Y-13799460D01*
X56827893Y-13789664D01*
X56836830Y-13780277D01*
X56844795Y-13770070D01*
X56866611Y-13744780D01*
X56875531Y-13735411D01*
X56883490Y-13725213D01*
X56891952Y-13715403D01*
X56899410Y-13704813D01*
X56919957Y-13678485D01*
X56928410Y-13668686D01*
X56935861Y-13658106D01*
X56943828Y-13647898D01*
X56950755Y-13636959D01*
X56969987Y-13609652D01*
X56977959Y-13599437D01*
X56984890Y-13588492D01*
X56992331Y-13577927D01*
X56998710Y-13566667D01*
X57016586Y-13538437D01*
X57024042Y-13527850D01*
X57030427Y-13516579D01*
X57037348Y-13505649D01*
X57043165Y-13494093D01*
X57059631Y-13465025D01*
X57066554Y-13454093D01*
X57072377Y-13442526D01*
X57078758Y-13431261D01*
X57084000Y-13419436D01*
X57099024Y-13389589D01*
X57105407Y-13378321D01*
X57110648Y-13366496D01*
X57116467Y-13354937D01*
X57121131Y-13342847D01*
X57134664Y-13312316D01*
X57140486Y-13300749D01*
X57145149Y-13288660D01*
X57150391Y-13276834D01*
X57154447Y-13264555D01*
X57166472Y-13233381D01*
X57171718Y-13221547D01*
X57175781Y-13209249D01*
X57180437Y-13197178D01*
X57183888Y-13184710D01*
X57194367Y-13152989D01*
X57199026Y-13140911D01*
X57202480Y-13128432D01*
X57206540Y-13116141D01*
X57209375Y-13103515D01*
X57218291Y-13071300D01*
X57222348Y-13059018D01*
X57225181Y-13046404D01*
X57228635Y-13033922D01*
X57230850Y-13021159D01*
X57238170Y-12988559D01*
X57241621Y-12976090D01*
X57243832Y-12963347D01*
X57246671Y-12950705D01*
X57248257Y-12937845D01*
X57253965Y-12904947D01*
X57256801Y-12892319D01*
X57258386Y-12879468D01*
X57260599Y-12866715D01*
X57261551Y-12853812D01*
X57265642Y-12820649D01*
X57267855Y-12807891D01*
X57268807Y-12794989D01*
X57270391Y-12782145D01*
X57270709Y-12769200D01*
X57273167Y-12735881D01*
X57274750Y-12723044D01*
X57275068Y-12710104D01*
X57276021Y-12697182D01*
X57275703Y-12684240D01*
X57276364Y-12657339D01*
X57277000Y-12650881D01*
X57277000Y-12631447D01*
X57277476Y-12612069D01*
X57277000Y-12605614D01*
X57277000Y-12222476D01*
X57310318Y-12219194D01*
X57401972Y-12191391D01*
X57486442Y-12146241D01*
X57560480Y-12085480D01*
X57621241Y-12011442D01*
X57666391Y-11926972D01*
X57673000Y-11905185D01*
X57673000Y-15160866D01*
X57657992Y-15389852D01*
X57615316Y-15604397D01*
X57545001Y-15811537D01*
X57448256Y-16007718D01*
X57326721Y-16189608D01*
X57175428Y-16362124D01*
X56362124Y-17175428D01*
X56189608Y-17326721D01*
X56007718Y-17448256D01*
X55811537Y-17545001D01*
X55604397Y-17615316D01*
X55389852Y-17657992D01*
X55160866Y-17673000D01*
X52707107Y-17673000D01*
X52681451Y-17674008D01*
X52414400Y-17695025D01*
X52363719Y-17703052D01*
X52103245Y-17765587D01*
X52054444Y-17781444D01*
X51806959Y-17883956D01*
X51761241Y-17907250D01*
X51532839Y-18047214D01*
X51491325Y-18077375D01*
X51287630Y-18251347D01*
X51268776Y-18268776D01*
X51210718Y-18326834D01*
X51193289Y-18345689D01*
X51039518Y-18525732D01*
X51009358Y-18567243D01*
X50885645Y-18769123D01*
X50862349Y-18814844D01*
X50771741Y-19033592D01*
X50755885Y-19082393D01*
X50700612Y-19312623D01*
X50692585Y-19363303D01*
X50674008Y-19599344D01*
X48652966Y-19599344D01*
X48427038Y-19369587D01*
X48403179Y-19347618D01*
X48250955Y-19220806D01*
X48197314Y-19184473D01*
X48023076Y-19090161D01*
X47963325Y-19065117D01*
X47773914Y-19007008D01*
X47710400Y-18994235D01*
X47513249Y-18974608D01*
X47480855Y-18973000D01*
X47350000Y-18973000D01*
X47307317Y-18975798D01*
X47164967Y-18994539D01*
X47082513Y-19016632D01*
X46949863Y-19071577D01*
X46875936Y-19114259D01*
X46762027Y-19201664D01*
X46701664Y-19262027D01*
X46614259Y-19375936D01*
X46571577Y-19449863D01*
X46516632Y-19582513D01*
X46494539Y-19664967D01*
X46475798Y-19807317D01*
X46473000Y-19850000D01*
X627000Y-19850000D01*
X627000Y-10650000D01*
X48773000Y-10650000D01*
X48773000Y-13500000D01*
X48774575Y-13532052D01*
X48793790Y-13727142D01*
X48806295Y-13790012D01*
X48863200Y-13977605D01*
X48887732Y-14036830D01*
X48980142Y-14209717D01*
X49015755Y-14263016D01*
X49140118Y-14414553D01*
X49185447Y-14459882D01*
X49336984Y-14584245D01*
X49390283Y-14619858D01*
X49563170Y-14712268D01*
X49622395Y-14736800D01*
X49809988Y-14793705D01*
X49872858Y-14806210D01*
X50067948Y-14825425D01*
X50100000Y-14827000D01*
X50350350Y-14827000D01*
X50288660Y-14902169D01*
X50238081Y-14996795D01*
X50206935Y-15099471D01*
X50196418Y-15206250D01*
X50196418Y-15643750D01*
X50206935Y-15750529D01*
X50238081Y-15853205D01*
X50288660Y-15947831D01*
X50356728Y-16030772D01*
X50439669Y-16098840D01*
X50534295Y-16149419D01*
X50636971Y-16180565D01*
X50743750Y-16191082D01*
X51256250Y-16191082D01*
X51363029Y-16180565D01*
X51465705Y-16149419D01*
X51560331Y-16098840D01*
X51643272Y-16030772D01*
X51711340Y-15947831D01*
X51761919Y-15853205D01*
X51772317Y-15818926D01*
X52621785Y-15753582D01*
X52975000Y-15753582D01*
X53039103Y-15747268D01*
X53100743Y-15728570D01*
X53157550Y-15698206D01*
X53207343Y-15657343D01*
X53248206Y-15607550D01*
X53278570Y-15550743D01*
X53297268Y-15489103D01*
X53303582Y-15425000D01*
X53303582Y-15175000D01*
X53297268Y-15110897D01*
X53278795Y-15050000D01*
X53297268Y-14989103D01*
X53303582Y-14925000D01*
X53303582Y-14675000D01*
X53297268Y-14610897D01*
X53278795Y-14550000D01*
X53297268Y-14489103D01*
X53303582Y-14425000D01*
X53303582Y-14265926D01*
X53305081Y-14263540D01*
X53336851Y-14197569D01*
X53390472Y-14044331D01*
X53406767Y-13972940D01*
X53424944Y-13811612D01*
X53427000Y-13775000D01*
X53427000Y-13459216D01*
X53425459Y-13427512D01*
X53406659Y-13234518D01*
X53394422Y-13172302D01*
X53338728Y-12986564D01*
X53314714Y-12927881D01*
X53224222Y-12756384D01*
X53189333Y-12703436D01*
X53067443Y-12552627D01*
X53046316Y-12528939D01*
X50727087Y-10169723D01*
X50703226Y-10147746D01*
X50550991Y-10020893D01*
X50497345Y-9984548D01*
X50323084Y-9890203D01*
X50263324Y-9865150D01*
X50073881Y-9807020D01*
X50010356Y-9794243D01*
X49813171Y-9774609D01*
X49780771Y-9773000D01*
X49650000Y-9773000D01*
X49607317Y-9775798D01*
X49464967Y-9794539D01*
X49382513Y-9816632D01*
X49249863Y-9871577D01*
X49175936Y-9914259D01*
X49062027Y-10001664D01*
X49001664Y-10062027D01*
X48914259Y-10175936D01*
X48871577Y-10249863D01*
X48816632Y-10382513D01*
X48794539Y-10464967D01*
X48775798Y-10607317D01*
X48773000Y-10650000D01*
X627000Y-10650000D01*
X627000Y-1506234D01*
X644376Y-1329811D01*
X694022Y-1166150D01*
X774638Y-1015328D01*
X883130Y-883130D01*
X1015328Y-774638D01*
X1166150Y-694022D01*
X1329811Y-644376D01*
X1506234Y-627000D01*
X98493766Y-627000D01*
X98670189Y-644376D01*
G37*
%TD.AperFunction*%
%TD*%
M02*
