%TF.GenerationSoftware,KiCad,Pcbnew,5.1.7*%
%TF.CreationDate,2020-11-10T23:09:26+00:00*%
%TF.ProjectId,LT3045-4,4c543330-3435-42d3-942e-6b696361645f,rev?*%
%TF.SameCoordinates,Original*%
%TF.FileFunction,Copper,L2,Inr*%
%TF.FilePolarity,Positive*%
%FSLAX46Y46*%
G04 Gerber Fmt 4.6, Leading zero omitted, Abs format (unit mm)*
G04 Created by KiCad (PCBNEW 5.1.7) date 2020-11-10 23:09:26*
%MOMM*%
%LPD*%
G01*
G04 APERTURE LIST*
%TA.AperFunction,ViaPad*%
%ADD10C,0.800000*%
%TD*%
%TA.AperFunction,ViaPad*%
%ADD11C,0.500000*%
%TD*%
%TA.AperFunction,Conductor*%
%ADD12C,1.000000*%
%TD*%
%TA.AperFunction,Conductor*%
%ADD13C,0.250000*%
%TD*%
%TA.AperFunction,Conductor*%
%ADD14C,0.200000*%
%TD*%
%TA.AperFunction,Conductor*%
%ADD15C,0.100000*%
%TD*%
G04 APERTURE END LIST*
D10*
%TO.N,GND*%
X45800000Y-18400000D03*
X45800000Y-28500000D03*
X52300000Y-46300000D03*
X49800000Y-37000000D03*
X51900000Y-26200000D03*
X53700000Y-42500000D03*
X54500000Y-42500000D03*
X54500000Y-43300000D03*
X53700000Y-43300000D03*
X53700000Y-44100000D03*
X54500000Y-44100000D03*
X51400000Y-33200000D03*
X52200000Y-33200000D03*
X51400000Y-34000000D03*
X52200000Y-34000000D03*
X52200000Y-34800000D03*
D11*
X51400000Y-34800000D03*
D10*
X53700000Y-13500000D03*
X54500000Y-13500000D03*
X54500000Y-14300000D03*
X53700000Y-14300000D03*
D11*
X53700000Y-15100000D03*
D10*
X54500000Y-15100000D03*
X51400000Y-22800000D03*
X52200000Y-22800000D03*
X52200000Y-23600000D03*
X51400000Y-23600000D03*
X52200000Y-24400000D03*
X51400000Y-24400000D03*
X81750000Y-25750000D03*
X81750000Y-23750000D03*
X97000000Y-19500000D03*
X97000000Y-30500000D03*
X52300000Y-17000000D03*
X86200000Y-28900000D03*
X86300000Y-21200000D03*
X64300000Y-12900000D03*
X64500000Y-19500000D03*
X64550000Y-30600000D03*
X64700000Y-37000000D03*
X64600000Y-25500000D03*
X64500000Y-28700000D03*
X64500000Y-21200000D03*
X64500000Y-23600000D03*
X59600000Y-40750000D03*
X58800000Y-7800000D03*
X49800000Y-9300000D03*
X46100000Y-10000000D03*
X41800000Y-11000000D03*
X38000000Y-11900000D03*
X34400000Y-12700000D03*
X31800000Y-13000000D03*
X28100000Y-13800000D03*
X23000000Y-15100000D03*
X18300000Y-16100000D03*
X13700000Y-17000000D03*
X35900000Y-20200000D03*
X47400000Y-15800000D03*
X46200000Y-25100000D03*
X35100000Y-26800000D03*
X45900000Y-34900000D03*
X35800000Y-33600000D03*
X47500000Y-37400000D03*
X47100000Y-44100000D03*
X31800000Y-39300000D03*
X15600000Y-34200000D03*
X22600000Y-36800000D03*
X39900000Y-41900000D03*
X41000000Y-25500000D03*
X40700000Y-27700000D03*
X40800000Y-33900000D03*
X42200000Y-36000000D03*
X42500000Y-17900000D03*
X40900000Y-19700000D03*
X39200000Y-18500000D03*
X38400000Y-19900000D03*
X25600000Y-14600000D03*
X26400000Y-37800000D03*
X34400000Y-39900000D03*
X36700000Y-40900000D03*
X42400000Y-42600000D03*
X44900000Y-43100000D03*
X19400000Y-35800000D03*
X13600000Y-33500000D03*
X62800000Y-40500000D03*
X67700000Y-38200000D03*
X73800000Y-35500000D03*
X79500000Y-33900000D03*
X84700000Y-31800000D03*
X86500000Y-18800000D03*
X81400000Y-16200000D03*
X76300000Y-14200000D03*
X69600000Y-11800000D03*
X65600000Y-10100000D03*
X62800000Y-9000000D03*
X83100000Y-20800000D03*
X70500000Y-19600000D03*
X61100000Y-18400000D03*
X61100000Y-12500000D03*
X70900000Y-16100000D03*
X76900000Y-18000000D03*
X81000000Y-19300000D03*
X77500000Y-20400000D03*
X66400000Y-18900000D03*
X68700000Y-22000000D03*
X77800000Y-22300000D03*
X73400000Y-23500000D03*
X67200000Y-23600000D03*
X79000000Y-23600000D03*
X78900000Y-26000000D03*
X75400000Y-27900000D03*
X68900000Y-25800000D03*
X68600000Y-28100000D03*
X74800000Y-26000000D03*
X80800000Y-29200000D03*
X71300000Y-30300000D03*
X77100000Y-31800000D03*
X83300000Y-30000000D03*
X70800000Y-34200000D03*
X68100000Y-31000000D03*
X61100000Y-37600000D03*
X59800000Y-48300000D03*
X59800000Y-42900000D03*
X59800000Y-44900000D03*
X59000000Y-2300000D03*
X59200000Y-4700000D03*
%TO.N,Net-(C2-Pad1)*%
X56800000Y-43800000D03*
X54450000Y-34550000D03*
X56650000Y-14800000D03*
X54350000Y-24050000D03*
%TO.N,Net-(R5-Pad2)*%
X84250000Y-24750000D03*
X53250000Y-25550000D03*
%TO.N,/VOUT*%
X97500000Y-23000000D03*
X96500000Y-23000000D03*
X95500000Y-23000000D03*
X94500000Y-23000000D03*
X97500000Y-27000000D03*
X96500000Y-27000000D03*
X95500000Y-27000000D03*
X94500000Y-27000000D03*
X93500000Y-27000000D03*
X92500000Y-27000000D03*
X93500000Y-23000000D03*
X92500000Y-23000000D03*
X87750000Y-24750000D03*
X55500000Y-12600000D03*
X55500000Y-11800000D03*
X55500000Y-11000000D03*
X53200000Y-21800000D03*
X53200000Y-21000000D03*
X53200000Y-20200000D03*
X53200000Y-32400000D03*
X53200000Y-31600000D03*
X53200000Y-30800000D03*
X55500000Y-41600000D03*
X55500000Y-40800000D03*
X55500000Y-40000000D03*
%TO.N,/VIN*%
X51500000Y-13800000D03*
X49400000Y-33600000D03*
X55100000Y-16200000D03*
X53000000Y-36000000D03*
X55300000Y-45500000D03*
X51700000Y-43100000D03*
X49700000Y-10700000D03*
X49700000Y-11500000D03*
X49700000Y-12300000D03*
X49700000Y-13100000D03*
X49700000Y-13900000D03*
X47400000Y-19900000D03*
X47400000Y-20700000D03*
X47400000Y-21500000D03*
X47400000Y-22300000D03*
D11*
X47400000Y-23100000D03*
D10*
X47400000Y-30400000D03*
X47400000Y-31200000D03*
X47400000Y-32000000D03*
X47400000Y-32800000D03*
X47400000Y-33600000D03*
X49700000Y-39700000D03*
X49700000Y-40500000D03*
X49700000Y-41300000D03*
X49700000Y-42100000D03*
X49700000Y-42900000D03*
X12200000Y-25000000D03*
%TD*%
D12*
%TO.N,Net-(C2-Pad1)*%
X54450000Y-34550000D02*
X54350000Y-24050000D01*
X54350000Y-24050000D02*
X56650000Y-14800000D01*
D13*
X56800000Y-43800000D02*
X56800000Y-38700000D01*
X54450000Y-36350000D02*
X54450000Y-34550000D01*
X56800000Y-38700000D02*
X54450000Y-36350000D01*
%TD*%
D14*
%TO.N,Net-(C2-Pad1)*%
X56879257Y-14117121D02*
X57000397Y-14165075D01*
X57105806Y-14241645D01*
X57188866Y-14342017D01*
X57244358Y-14459891D01*
X57268799Y-14587867D01*
X57260256Y-14724219D01*
X55425338Y-24357534D01*
X55423770Y-24369959D01*
X55408056Y-24619449D01*
X55408053Y-24631973D01*
X55895549Y-32431909D01*
X55896288Y-32439305D01*
X55916539Y-32586455D01*
X55917825Y-32593774D01*
X57378916Y-39412202D01*
X57400000Y-39611217D01*
X57400000Y-44244387D01*
X57383087Y-44394498D01*
X57335060Y-44531751D01*
X57257699Y-44654870D01*
X57154870Y-44757699D01*
X57031751Y-44835060D01*
X56894498Y-44883087D01*
X56750000Y-44899368D01*
X56605502Y-44883087D01*
X56468249Y-44835060D01*
X56345130Y-44757699D01*
X56242301Y-44654870D01*
X56164940Y-44531751D01*
X56116913Y-44394498D01*
X56100000Y-44244387D01*
X56100000Y-41962003D01*
X56120332Y-41931574D01*
X56173099Y-41804182D01*
X56200000Y-41668944D01*
X56200000Y-41531056D01*
X56173099Y-41395818D01*
X56120332Y-41268426D01*
X56100000Y-41237996D01*
X56100000Y-41162004D01*
X56120332Y-41131574D01*
X56173099Y-41004182D01*
X56200000Y-40868944D01*
X56200000Y-40731056D01*
X56173099Y-40595818D01*
X56120332Y-40468426D01*
X56100000Y-40437996D01*
X56100000Y-40362004D01*
X56120332Y-40331574D01*
X56173099Y-40204182D01*
X56200000Y-40068944D01*
X56200000Y-39931056D01*
X56173099Y-39795818D01*
X56120332Y-39668426D01*
X56081570Y-39610413D01*
X56080373Y-39598243D01*
X56076562Y-39579049D01*
X56019855Y-39391759D01*
X56012379Y-39373674D01*
X55920283Y-39201012D01*
X55915255Y-39192605D01*
X54242124Y-36682908D01*
X54161558Y-36534166D01*
X54110851Y-36377607D01*
X54088915Y-36209870D01*
X53886169Y-30938476D01*
X53900000Y-30868944D01*
X53900000Y-30731056D01*
X53873099Y-30595818D01*
X53872979Y-30595527D01*
X53699699Y-26090251D01*
X53793726Y-25996224D01*
X53870332Y-25881574D01*
X53923099Y-25754182D01*
X53950000Y-25618944D01*
X53950000Y-25481056D01*
X53923099Y-25345818D01*
X53870332Y-25218426D01*
X53793726Y-25103776D01*
X53696224Y-25006274D01*
X53656999Y-24980065D01*
X53605936Y-23652422D01*
X53636505Y-23374215D01*
X55352603Y-16853042D01*
X55431574Y-16820332D01*
X55546224Y-16743726D01*
X55643726Y-16646224D01*
X55720332Y-16531574D01*
X55773099Y-16404182D01*
X55800000Y-16268944D01*
X55800000Y-16131056D01*
X55773099Y-15995818D01*
X55720332Y-15868426D01*
X55643726Y-15753776D01*
X55642268Y-15752318D01*
X55904441Y-14756060D01*
X55974763Y-14573008D01*
X56080108Y-14414197D01*
X56217431Y-14282049D01*
X56380170Y-14182881D01*
X56560563Y-14121421D01*
X56749186Y-14100692D01*
X56879257Y-14117121D01*
%TA.AperFunction,Conductor*%
D15*
G36*
X56879257Y-14117121D02*
G01*
X57000397Y-14165075D01*
X57105806Y-14241645D01*
X57188866Y-14342017D01*
X57244358Y-14459891D01*
X57268799Y-14587867D01*
X57260256Y-14724219D01*
X55425338Y-24357534D01*
X55423770Y-24369959D01*
X55408056Y-24619449D01*
X55408053Y-24631973D01*
X55895549Y-32431909D01*
X55896288Y-32439305D01*
X55916539Y-32586455D01*
X55917825Y-32593774D01*
X57378916Y-39412202D01*
X57400000Y-39611217D01*
X57400000Y-44244387D01*
X57383087Y-44394498D01*
X57335060Y-44531751D01*
X57257699Y-44654870D01*
X57154870Y-44757699D01*
X57031751Y-44835060D01*
X56894498Y-44883087D01*
X56750000Y-44899368D01*
X56605502Y-44883087D01*
X56468249Y-44835060D01*
X56345130Y-44757699D01*
X56242301Y-44654870D01*
X56164940Y-44531751D01*
X56116913Y-44394498D01*
X56100000Y-44244387D01*
X56100000Y-41962003D01*
X56120332Y-41931574D01*
X56173099Y-41804182D01*
X56200000Y-41668944D01*
X56200000Y-41531056D01*
X56173099Y-41395818D01*
X56120332Y-41268426D01*
X56100000Y-41237996D01*
X56100000Y-41162004D01*
X56120332Y-41131574D01*
X56173099Y-41004182D01*
X56200000Y-40868944D01*
X56200000Y-40731056D01*
X56173099Y-40595818D01*
X56120332Y-40468426D01*
X56100000Y-40437996D01*
X56100000Y-40362004D01*
X56120332Y-40331574D01*
X56173099Y-40204182D01*
X56200000Y-40068944D01*
X56200000Y-39931056D01*
X56173099Y-39795818D01*
X56120332Y-39668426D01*
X56081570Y-39610413D01*
X56080373Y-39598243D01*
X56076562Y-39579049D01*
X56019855Y-39391759D01*
X56012379Y-39373674D01*
X55920283Y-39201012D01*
X55915255Y-39192605D01*
X54242124Y-36682908D01*
X54161558Y-36534166D01*
X54110851Y-36377607D01*
X54088915Y-36209870D01*
X53886169Y-30938476D01*
X53900000Y-30868944D01*
X53900000Y-30731056D01*
X53873099Y-30595818D01*
X53872979Y-30595527D01*
X53699699Y-26090251D01*
X53793726Y-25996224D01*
X53870332Y-25881574D01*
X53923099Y-25754182D01*
X53950000Y-25618944D01*
X53950000Y-25481056D01*
X53923099Y-25345818D01*
X53870332Y-25218426D01*
X53793726Y-25103776D01*
X53696224Y-25006274D01*
X53656999Y-24980065D01*
X53605936Y-23652422D01*
X53636505Y-23374215D01*
X55352603Y-16853042D01*
X55431574Y-16820332D01*
X55546224Y-16743726D01*
X55643726Y-16646224D01*
X55720332Y-16531574D01*
X55773099Y-16404182D01*
X55800000Y-16268944D01*
X55800000Y-16131056D01*
X55773099Y-15995818D01*
X55720332Y-15868426D01*
X55643726Y-15753776D01*
X55642268Y-15752318D01*
X55904441Y-14756060D01*
X55974763Y-14573008D01*
X56080108Y-14414197D01*
X56217431Y-14282049D01*
X56380170Y-14182881D01*
X56560563Y-14121421D01*
X56749186Y-14100692D01*
X56879257Y-14117121D01*
G37*
%TD.AperFunction*%
%TD*%
M02*
