%TF.GenerationSoftware,KiCad,Pcbnew,5.1.7*%
%TF.CreationDate,2020-12-13T01:59:54+00:00*%
%TF.ProjectId,LT3045-4,4c543330-3435-42d3-942e-6b696361645f,rev?*%
%TF.SameCoordinates,Original*%
%TF.FileFunction,Copper,L3,Inr*%
%TF.FilePolarity,Positive*%
%FSLAX46Y46*%
G04 Gerber Fmt 4.6, Leading zero omitted, Abs format (unit mm)*
G04 Created by KiCad (PCBNEW 5.1.7) date 2020-12-13 01:59:54*
%MOMM*%
%LPD*%
G01*
G04 APERTURE LIST*
%TA.AperFunction,ViaPad*%
%ADD10C,0.500000*%
%TD*%
%TA.AperFunction,Conductor*%
%ADD11C,0.350000*%
%TD*%
%TA.AperFunction,Conductor*%
%ADD12C,0.250000*%
%TD*%
%TA.AperFunction,Conductor*%
%ADD13C,0.200000*%
%TD*%
%TA.AperFunction,Conductor*%
%ADD14C,1.000000*%
%TD*%
%TA.AperFunction,Conductor*%
%ADD15C,0.100000*%
%TD*%
%TA.AperFunction,Conductor*%
%ADD16C,0.254000*%
%TD*%
%TA.AperFunction,Conductor*%
%ADD17C,0.025400*%
%TD*%
G04 APERTURE END LIST*
D10*
%TO.N,GND*%
X55000000Y-16700000D03*
X48101601Y-9723521D03*
X47125285Y-9944574D03*
X46148969Y-10165626D03*
X45172653Y-10386679D03*
X44196338Y-10607732D03*
X43220022Y-10828784D03*
X42243706Y-11049837D03*
X41267390Y-11270890D03*
X40291074Y-11491942D03*
X39314759Y-11712995D03*
X38338443Y-11934047D03*
X37362127Y-12155100D03*
X36385811Y-12376153D03*
X35409495Y-12597205D03*
X34433180Y-12818258D03*
X33456864Y-13039311D03*
X32480548Y-13260363D03*
X31504232Y-13481416D03*
X30527917Y-13702469D03*
X29551601Y-13923521D03*
X28575285Y-14144574D03*
X27598969Y-14365626D03*
X26622653Y-14586679D03*
X25646338Y-14807732D03*
X24670022Y-15028784D03*
X23693706Y-15249837D03*
X22717390Y-15470890D03*
X21741074Y-15691942D03*
X20764759Y-15912995D03*
X19788443Y-16134047D03*
X18812127Y-16355100D03*
X17835811Y-16576153D03*
X16859495Y-16797205D03*
X15883180Y-17018258D03*
X14906864Y-17239311D03*
X13930548Y-17460363D03*
X12954232Y-17681416D03*
X49077917Y-9502469D03*
X11977917Y-17902469D03*
X48153760Y-43596735D03*
X47177444Y-43288840D03*
X46201128Y-42980945D03*
X45224812Y-42673051D03*
X44248497Y-42365156D03*
X43272181Y-42057261D03*
X42295865Y-41749366D03*
X41319549Y-41441472D03*
X40343233Y-41133577D03*
X39366918Y-40825682D03*
X38390602Y-40517787D03*
X37414286Y-40209893D03*
X36437970Y-39901998D03*
X35461654Y-39594103D03*
X34485339Y-39286208D03*
X33509023Y-38978314D03*
X32532707Y-38670419D03*
X31556391Y-38362524D03*
X30580076Y-38054630D03*
X29603760Y-37746735D03*
X28627444Y-37438840D03*
X27651128Y-37130945D03*
X26674812Y-36823051D03*
X25698497Y-36515156D03*
X24722181Y-36207261D03*
X23745865Y-35899366D03*
X22769549Y-35591472D03*
X21793233Y-35283577D03*
X20816918Y-34975682D03*
X19840602Y-34667787D03*
X18864286Y-34359893D03*
X17887970Y-34051998D03*
X16911654Y-33744103D03*
X15935339Y-33436208D03*
X14959023Y-33128314D03*
X13982707Y-32820419D03*
X13006391Y-32512524D03*
X12030076Y-32204630D03*
X86993467Y-19315379D03*
X86045191Y-18970551D03*
X85096915Y-18625724D03*
X84148639Y-18280896D03*
X83200363Y-17936069D03*
X82252087Y-17591241D03*
X81303811Y-17246413D03*
X80355536Y-16901586D03*
X79407260Y-16556758D03*
X78458984Y-16211931D03*
X77510708Y-15867103D03*
X76562432Y-15522275D03*
X75614156Y-15177448D03*
X74665880Y-14832620D03*
X73717605Y-14487793D03*
X72769329Y-14142965D03*
X71821053Y-13798138D03*
X70872777Y-13453310D03*
X69924501Y-13108482D03*
X68976225Y-12763655D03*
X68027949Y-12418827D03*
X67079674Y-12074000D03*
X66131398Y-11729172D03*
X65183122Y-11384344D03*
X64234846Y-11039517D03*
X63286570Y-10694689D03*
X62338294Y-10349862D03*
X61390018Y-10005034D03*
X60706532Y-11884620D03*
X62603084Y-12574275D03*
X63551360Y-12919103D03*
X64499636Y-13263930D03*
X65447912Y-13608758D03*
X66396188Y-13953586D03*
X67344463Y-14298413D03*
X68292739Y-14643241D03*
X69241015Y-14988068D03*
X70189291Y-15332896D03*
X71137567Y-15677724D03*
X72085843Y-16022551D03*
X73034119Y-16367379D03*
X73982394Y-16712206D03*
X74930670Y-17057034D03*
X75878946Y-17401861D03*
X76827222Y-17746689D03*
X77775498Y-18091517D03*
X78723774Y-18436344D03*
X79672050Y-18781172D03*
X80620325Y-19125999D03*
X81568601Y-19470827D03*
X82516877Y-19815655D03*
X83465153Y-20160482D03*
X84413429Y-20505310D03*
X85361705Y-20850137D03*
X86309981Y-21194965D03*
X84933058Y-21125187D03*
X83906272Y-21035901D03*
X82879487Y-20946616D03*
X81852701Y-20857330D03*
X80825915Y-20768044D03*
X79799130Y-20678759D03*
X78772344Y-20589473D03*
X77745558Y-20500187D03*
X76718772Y-20410901D03*
X75691987Y-20321616D03*
X74665201Y-20232330D03*
X73638415Y-20143044D03*
X72611630Y-20053759D03*
X71584844Y-19964473D03*
X70558058Y-19875187D03*
X69531272Y-19785901D03*
X68504487Y-19696616D03*
X67477701Y-19607330D03*
X66450915Y-19518044D03*
X65424130Y-19428759D03*
X64397344Y-19339473D03*
X63370558Y-19250187D03*
X61316987Y-19071616D03*
X59263415Y-18893044D03*
X60116941Y-20974812D03*
X62170512Y-21153383D03*
X64224084Y-21331955D03*
X65250870Y-21421241D03*
X66277655Y-21510526D03*
X67304441Y-21599812D03*
X68331227Y-21689098D03*
X69358012Y-21778383D03*
X70384798Y-21867669D03*
X71411584Y-21956955D03*
X72438370Y-22046241D03*
X73465155Y-22135526D03*
X74491941Y-22224812D03*
X75518727Y-22314098D03*
X76545512Y-22403383D03*
X77572298Y-22492669D03*
X78599084Y-22581955D03*
X79625870Y-22671241D03*
X80652655Y-22760526D03*
X81679441Y-22849812D03*
X82706227Y-22939098D03*
X83733012Y-23028383D03*
X84759798Y-23117669D03*
X85786584Y-23206955D03*
X59263415Y-31156955D03*
X61316987Y-30978383D03*
X63370558Y-30799812D03*
X64397344Y-30710526D03*
X65424130Y-30621241D03*
X66450915Y-30531955D03*
X67477701Y-30442669D03*
X68504487Y-30353383D03*
X69531272Y-30264098D03*
X70558058Y-30174812D03*
X71584844Y-30085526D03*
X72611630Y-29996241D03*
X73638415Y-29906955D03*
X74665201Y-29817669D03*
X75691987Y-29728383D03*
X76718772Y-29639098D03*
X77745558Y-29549812D03*
X78772344Y-29460526D03*
X79799130Y-29371241D03*
X80825915Y-29281955D03*
X81852701Y-29192669D03*
X82879487Y-29103383D03*
X83906272Y-29014098D03*
X84933058Y-28924812D03*
X85786584Y-26843044D03*
X84759798Y-26932330D03*
X83733012Y-27021616D03*
X82706227Y-27110901D03*
X81679441Y-27200187D03*
X80652655Y-27289473D03*
X79625870Y-27378759D03*
X78599084Y-27468044D03*
X77572298Y-27557330D03*
X76545512Y-27646616D03*
X75518727Y-27735901D03*
X74491941Y-27825187D03*
X73465155Y-27914473D03*
X72438370Y-28003759D03*
X71411584Y-28093044D03*
X70384798Y-28182330D03*
X69358012Y-28271616D03*
X68331227Y-28360901D03*
X67304441Y-28450187D03*
X66277655Y-28539473D03*
X65250870Y-28628759D03*
X64224084Y-28718044D03*
X62170512Y-28896616D03*
X60116941Y-29075187D03*
X61390018Y-40094965D03*
X62338294Y-39750137D03*
X63286570Y-39405310D03*
X64234846Y-39060482D03*
X65183122Y-38715655D03*
X66131398Y-38370827D03*
X67079674Y-38025999D03*
X68027949Y-37681172D03*
X68976225Y-37336344D03*
X69924501Y-36991517D03*
X70872777Y-36646689D03*
X71821053Y-36301861D03*
X72769329Y-35957034D03*
X73717605Y-35612206D03*
X74665880Y-35267379D03*
X75614156Y-34922551D03*
X76562432Y-34577724D03*
X77510708Y-34232896D03*
X78458984Y-33888068D03*
X79407260Y-33543241D03*
X80355536Y-33198413D03*
X81303811Y-32853586D03*
X82252087Y-32508758D03*
X83200363Y-32163930D03*
X84148639Y-31819103D03*
X85096915Y-31474275D03*
X86045191Y-31129448D03*
X86993467Y-30784620D03*
X86309981Y-28905034D03*
X85361705Y-29249862D03*
X84413429Y-29594689D03*
X83465153Y-29939517D03*
X82516877Y-30284344D03*
X81568601Y-30629172D03*
X80620325Y-30974000D03*
X79672050Y-31318827D03*
X78723774Y-31663655D03*
X77775498Y-32008482D03*
X76827222Y-32353310D03*
X75878946Y-32698138D03*
X74930670Y-33042965D03*
X73982394Y-33387793D03*
X73034119Y-33732620D03*
X72085843Y-34077448D03*
X71137567Y-34422275D03*
X70189291Y-34767103D03*
X69241015Y-35111931D03*
X68292739Y-35456758D03*
X67344463Y-35801586D03*
X66396188Y-36146413D03*
X65447912Y-36491241D03*
X64499636Y-36836069D03*
X63551360Y-37180896D03*
X62603084Y-37525724D03*
X60706532Y-38215379D03*
X59216666Y-26000000D03*
X60220000Y-26000000D03*
X64233333Y-26000000D03*
X65236666Y-26000000D03*
X66240000Y-26000000D03*
X67243333Y-26000000D03*
X68246666Y-26000000D03*
X69250000Y-26000000D03*
X70253333Y-26000000D03*
X71256666Y-26000000D03*
X72260000Y-26000000D03*
X73263333Y-26000000D03*
X74266666Y-26000000D03*
X75270000Y-26000000D03*
X76273333Y-26000000D03*
X77276666Y-26000000D03*
X78280000Y-26000000D03*
X79283333Y-26000000D03*
X80286666Y-26000000D03*
X80286666Y-24000000D03*
X79283333Y-24000000D03*
X78280000Y-24000000D03*
X77276666Y-24000000D03*
X76273333Y-24000000D03*
X75270000Y-24000000D03*
X74266666Y-24000000D03*
X73263333Y-24000000D03*
X72260000Y-24000000D03*
X71256666Y-24000000D03*
X70253333Y-24000000D03*
X69250000Y-24000000D03*
X68246666Y-24000000D03*
X67243333Y-24000000D03*
X66240000Y-24000000D03*
X65236666Y-24000000D03*
X64233333Y-24000000D03*
X60220000Y-24000000D03*
X59216666Y-24000000D03*
X53700000Y-42500000D03*
X54500000Y-42500000D03*
X54500000Y-43300000D03*
X53700000Y-43300000D03*
X53700000Y-44100000D03*
X54500000Y-44100000D03*
X51400000Y-33200000D03*
X52200000Y-33200000D03*
X51400000Y-34000000D03*
X52200000Y-34000000D03*
X52200000Y-34800000D03*
X51400000Y-34800000D03*
X53700000Y-13500000D03*
X54500000Y-13500000D03*
X54500000Y-14300000D03*
X53700000Y-14300000D03*
X53700000Y-15100000D03*
X54500000Y-15100000D03*
X51400000Y-22800000D03*
X52200000Y-22800000D03*
X52200000Y-23600000D03*
X51400000Y-23600000D03*
X52200000Y-24400000D03*
X51400000Y-24400000D03*
X97000000Y-19500000D03*
X97000000Y-30500000D03*
X52300000Y-17000000D03*
X47700000Y-26200000D03*
X1369439Y-1292123D03*
X1202358Y-4243574D03*
X1392106Y-7027164D03*
X1413159Y-9604904D03*
X1248597Y-12502258D03*
X1294658Y-15509721D03*
X1378819Y-32941711D03*
X1401772Y-35693822D03*
X1407566Y-38356637D03*
X1529467Y-41262470D03*
X1241935Y-44170037D03*
X1353815Y-46822076D03*
X2171354Y-17380047D03*
X2858846Y-2694693D03*
X2643935Y-5511557D03*
X2822349Y-8226161D03*
X2725706Y-11090482D03*
X2860838Y-14095584D03*
X2758601Y-34391037D03*
X2612218Y-37002315D03*
X2862512Y-39910955D03*
X2884716Y-42779223D03*
X2724859Y-45381433D03*
X2709776Y-48229159D03*
X3328770Y-16007784D03*
X4091369Y-1310388D03*
X4109338Y-4133329D03*
X4174611Y-7083318D03*
X4153511Y-9897100D03*
X4299085Y-12442389D03*
X4252902Y-32717802D03*
X4176389Y-35780062D03*
X4010896Y-38436549D03*
X4213487Y-41136645D03*
X4223605Y-44232539D03*
X4017578Y-46748740D03*
X4938235Y-14717347D03*
X4951100Y-17369211D03*
X5685019Y-2656271D03*
X5404712Y-5555605D03*
X5472705Y-8527562D03*
X5476190Y-11072823D03*
X5501670Y-34337227D03*
X5720692Y-36919247D03*
X5487356Y-39931090D03*
X5409546Y-42526547D03*
X5618801Y-45345402D03*
X5573792Y-48211608D03*
X6134065Y-13273033D03*
X6423872Y-16037497D03*
X7125486Y-1496624D03*
X7121467Y-4077524D03*
X7074867Y-6921483D03*
X6875173Y-9724835D03*
X7025295Y-32977567D03*
X6869468Y-35632979D03*
X6864854Y-38300505D03*
X6920079Y-41436864D03*
X6837073Y-44101562D03*
X7073671Y-47022898D03*
X7718513Y-11944148D03*
X7723278Y-14665273D03*
X7772231Y-17309961D03*
X8335963Y-2916995D03*
X8483001Y-5587280D03*
X8503457Y-8521717D03*
X8431227Y-36962079D03*
X8234596Y-40027337D03*
X8296360Y-42663653D03*
X8375491Y-45371634D03*
X8262705Y-48435226D03*
X9073102Y-10413670D03*
X9160415Y-13349201D03*
X8929501Y-16153273D03*
X9646217Y-1352055D03*
X9938352Y-4074463D03*
X9929623Y-7095556D03*
X9742943Y-35819376D03*
X9760567Y-38370475D03*
X9920440Y-41238752D03*
X9614092Y-44004108D03*
X9684598Y-46927118D03*
X10451321Y-9055219D03*
X10484825Y-11703195D03*
X10385702Y-14545758D03*
X10451211Y-17516296D03*
X11204916Y-2906883D03*
X11310767Y-5623043D03*
X11103488Y-37022818D03*
X11182540Y-39895216D03*
X11224908Y-42631298D03*
X11058261Y-45300271D03*
X11131662Y-48408172D03*
X11809314Y-7815640D03*
X12033962Y-10500314D03*
X11747882Y-13246452D03*
X11754086Y-16241340D03*
X11894532Y-33474248D03*
X12518603Y-1258155D03*
X12690123Y-4271970D03*
X12611534Y-35561941D03*
X12662862Y-38646826D03*
X12511614Y-41383875D03*
X12623465Y-43939364D03*
X12458154Y-46824319D03*
X13323369Y-6317219D03*
X13140554Y-9247387D03*
X13148095Y-12003954D03*
X13258494Y-14594397D03*
X13954927Y-2922023D03*
X13985985Y-16643494D03*
X14102316Y-34142194D03*
X14107433Y-37104128D03*
X13882067Y-39817185D03*
X13905097Y-42657624D03*
X14063949Y-45556603D03*
X13870878Y-48392141D03*
X14748840Y-4884972D03*
X14542031Y-7802162D03*
X14640460Y-10590513D03*
X14682219Y-13221637D03*
X15385162Y-1279260D03*
X15230552Y-15484537D03*
X15351562Y-35773760D03*
X15481576Y-38495474D03*
X15273340Y-41157820D03*
X15243183Y-44191652D03*
X15534863Y-46946979D03*
X16142547Y-3375239D03*
X15963693Y-6423645D03*
X16183420Y-8959017D03*
X16095996Y-11816078D03*
X16917739Y-14024375D03*
X16746586Y-37226536D03*
X16676926Y-39823602D03*
X16711377Y-42639173D03*
X16846838Y-45630825D03*
X16782627Y-48220269D03*
X17523344Y-1998765D03*
X17407277Y-4943780D03*
X17509612Y-7842677D03*
X17567012Y-10458749D03*
X17562633Y-16082982D03*
X18105336Y-12413945D03*
X18044737Y-35551744D03*
X18048495Y-38310447D03*
X18172274Y-41233205D03*
X18280693Y-43929086D03*
X18207205Y-46706836D03*
X18751606Y-3447416D03*
X19035203Y-6279122D03*
X18822746Y-8961446D03*
X18898253Y-14760856D03*
X19652081Y-1389382D03*
X19723867Y-11071189D03*
X19418375Y-37169627D03*
X19547348Y-39786262D03*
X19471305Y-42789932D03*
X19738353Y-45442701D03*
X19509466Y-48402921D03*
X20228878Y-4869921D03*
X20181121Y-7844775D03*
X20151216Y-13366943D03*
X21033800Y-2833949D03*
X21072312Y-9655492D03*
X21055417Y-15380470D03*
X21061197Y-38378494D03*
X20820174Y-41136131D03*
X21090680Y-43947890D03*
X20874047Y-46908071D03*
X21603606Y-6201422D03*
X21827754Y-11902533D03*
X21529593Y-36237702D03*
X22434125Y-1374254D03*
X22241015Y-4328691D03*
X22541765Y-8290444D03*
X22304726Y-13930313D03*
X22253059Y-39800634D03*
X22422841Y-42774903D03*
X22457288Y-45406404D03*
X22329718Y-48237597D03*
X23130195Y-10477749D03*
X23248365Y-37878206D03*
X23915908Y-2806896D03*
X23787737Y-5429972D03*
X23844344Y-12542107D03*
X23668118Y-41184176D03*
X23935699Y-44140978D03*
X23707626Y-46752865D03*
X24348740Y-7550904D03*
X24315371Y-39203881D03*
X25282874Y-1324397D03*
X25140542Y-4142905D03*
X25196557Y-9932375D03*
X25192170Y-42814748D03*
X25333626Y-45538051D03*
X25125177Y-48358031D03*
X25857377Y-6370422D03*
X25799375Y-11820799D03*
X25949137Y-37871997D03*
X26013644Y-40487857D03*
X26523986Y-2894805D03*
X26738439Y-8287657D03*
X26433183Y-44109619D03*
X26472660Y-47010856D03*
X27203020Y-4919238D03*
X27409858Y-10383462D03*
X27428658Y-39334238D03*
X27341542Y-42026314D03*
X27871105Y-1415157D03*
X27827947Y-7029344D03*
X27822104Y-12485155D03*
X28011386Y-45581745D03*
X27930180Y-48161152D03*
X28697830Y-3383249D03*
X28827426Y-9168538D03*
X28508801Y-40749686D03*
X28841769Y-43228161D03*
X29277637Y-5644349D03*
X29214428Y-11012154D03*
X29352868Y-47049569D03*
X30114607Y-2244014D03*
X29933485Y-7619108D03*
X30203300Y-13100833D03*
X30160833Y-39256300D03*
X30157298Y-42109182D03*
X29912241Y-44922250D03*
X30649899Y-4288745D03*
X30945035Y-9757627D03*
X30674727Y-48289101D03*
X31423224Y-6103757D03*
X31638230Y-11818212D03*
X31427826Y-40411768D03*
X31307727Y-43387072D03*
X31597010Y-46206132D03*
X32021656Y-1304735D03*
X32330486Y-8399520D03*
X32855629Y-3451181D03*
X32951553Y-10592639D03*
X32880920Y-26437628D03*
X33024201Y-42131096D03*
X32881769Y-44893431D03*
X32914296Y-47727220D03*
X33545746Y-5519259D03*
X34389222Y-2117910D03*
X34122946Y-7527408D03*
X34332783Y-40444562D03*
X34134849Y-43499867D03*
X34296994Y-46327646D03*
X35133895Y-4106887D03*
X35009581Y-9866607D03*
X35099327Y-25800541D03*
X34815298Y-48119829D03*
X35655350Y-6250966D03*
X35568364Y-11755446D03*
X35810053Y-41985198D03*
X35701395Y-44914529D03*
X36355016Y-1486670D03*
X36390137Y-8306486D03*
X36432701Y-19693503D03*
X36207528Y-27258941D03*
X36494199Y-47045750D03*
X37194953Y-3487371D03*
X37073193Y-10372042D03*
X36953550Y-33622269D03*
X37113067Y-43369558D03*
X37907961Y-5739013D03*
X37947042Y-25999408D03*
X37797294Y-45574028D03*
X37757137Y-48276542D03*
X38567021Y-1923063D03*
X38635010Y-7775286D03*
X38409088Y-18838034D03*
X38351105Y-27978940D03*
X38446683Y-42076021D03*
X39021327Y-4228163D03*
X39139204Y-9712653D03*
X39271158Y-34351293D03*
X39325524Y-44101014D03*
X39283384Y-46782647D03*
X39923613Y-6156423D03*
X39855341Y-26463075D03*
X40673342Y-1283290D03*
X40511082Y-8250589D03*
X40488667Y-18170452D03*
X40746810Y-42601738D03*
X40648433Y-45373693D03*
X40527277Y-48363230D03*
X41168804Y-3571669D03*
X41270501Y-10360581D03*
X41290584Y-27851205D03*
X41289436Y-35135028D03*
X41907281Y-5597321D03*
X41925048Y-25253136D03*
X42074534Y-44053826D03*
X42124876Y-46786471D03*
X42824650Y-1902210D03*
X42849907Y-7627364D03*
X42601726Y-17480985D03*
X43523239Y-4058100D03*
X43377226Y-9921503D03*
X43535924Y-26469438D03*
X43329607Y-35655793D03*
X43231195Y-45450409D03*
X43479531Y-48349300D03*
X43901943Y-6285617D03*
X44035149Y-43253910D03*
X44625686Y-1524207D03*
X44821894Y-8384814D03*
X44770189Y-16627302D03*
X44892040Y-25295227D03*
X44805987Y-46727185D03*
X45447653Y-3626995D03*
X45361154Y-35011855D03*
X45495942Y-44682358D03*
X46173121Y-5598558D03*
X46339162Y-26489482D03*
X46260250Y-37003027D03*
X46239498Y-48161547D03*
X46780859Y-2156631D03*
X46922992Y-46175599D03*
X47417023Y-4011741D03*
X47460811Y-6907333D03*
X47568902Y-15993032D03*
X47715506Y-25335065D03*
X47630655Y-27980862D03*
X47427088Y-35563848D03*
X48352872Y-18005108D03*
X48256360Y-44714519D03*
X48423392Y-47610572D03*
X48997404Y-1288820D03*
X48869860Y-5543706D03*
X49140315Y-29230968D03*
X49535475Y-3355494D03*
X49772495Y-7769664D03*
X49780453Y-15480949D03*
X49653641Y-19487678D03*
X49639288Y-27140372D03*
X49626214Y-36353930D03*
X49839041Y-46139642D03*
X50522380Y-30675265D03*
X50209972Y-48286785D03*
X51080185Y-2062923D03*
X51104249Y-4803263D03*
X51035241Y-8952118D03*
X51122300Y-28699975D03*
X50955448Y-37890921D03*
X51756839Y-7110357D03*
X51738360Y-25907522D03*
X52381355Y-3371071D03*
X52492637Y-10485277D03*
X52320543Y-39143300D03*
X52588131Y-45336242D03*
X53245705Y-1360762D03*
X53065186Y-5744898D03*
X53237910Y-8317625D03*
X53176320Y-47583486D03*
X54596871Y-2876174D03*
X54574285Y-7013082D03*
X55321226Y-4700864D03*
X55174233Y-46794003D03*
X55927901Y-1485307D03*
X56518810Y-3443856D03*
X56566743Y-6220261D03*
X56687657Y-45458775D03*
X56673421Y-48109812D03*
X57977822Y-2056770D03*
X58180252Y-5019740D03*
X58168377Y-7691114D03*
X58126187Y-47036725D03*
X59312260Y-3468882D03*
X59421158Y-6355292D03*
X59557985Y-48114793D03*
X60172804Y-1266416D03*
X60001907Y-8382681D03*
X60259191Y-46182682D03*
X61013297Y-4778079D03*
X60903211Y-44239403D03*
X61606793Y-2662600D03*
X61477997Y-6874300D03*
X61665731Y-41112789D03*
X61693992Y-47522776D03*
X62374189Y-9131594D03*
X62408372Y-45578233D03*
X63094184Y-1327659D03*
X62980996Y-4252447D03*
X63016609Y-42719135D03*
X63827581Y-6191650D03*
X63820567Y-14834481D03*
X63597730Y-17594162D03*
X63598656Y-22403947D03*
X63511899Y-27266603D03*
X63782222Y-32259269D03*
X63808750Y-35047730D03*
X63582657Y-40537206D03*
X63674806Y-47030109D03*
X64421328Y-2768179D03*
X64228159Y-8496817D03*
X64501786Y-43970960D03*
X64904966Y-4901817D03*
X65156398Y-16209476D03*
X65031828Y-33416121D03*
X65003110Y-41896456D03*
X64960279Y-48339230D03*
X65918972Y-1302302D03*
X65890726Y-7113491D03*
X65704697Y-9868911D03*
X65808759Y-18167122D03*
X65766665Y-39852536D03*
X65754842Y-45440810D03*
X66499903Y-3577697D03*
X66632430Y-27291512D03*
X66366552Y-32076193D03*
X66505756Y-43376455D03*
X67261852Y-5593417D03*
X67305454Y-8443243D03*
X67020683Y-15423839D03*
X67172051Y-34273273D03*
X67004113Y-41418729D03*
X67030466Y-46715950D03*
X67794651Y-2137392D03*
X68024120Y-10496282D03*
X67948713Y-17468025D03*
X67727576Y-39092763D03*
X67935966Y-44608810D03*
X68646384Y-4209441D03*
X68613196Y-6846626D03*
X68513008Y-31334238D03*
X68575472Y-42677267D03*
X68495658Y-48442443D03*
X69368479Y-8930566D03*
X69396493Y-27237711D03*
X69160901Y-33452674D03*
X69131360Y-40510328D03*
X69214933Y-46092766D03*
X70031961Y-1386514D03*
X70034976Y-5740695D03*
X69902395Y-11140651D03*
X69820948Y-16667033D03*
X69851620Y-38380295D03*
X69876035Y-44240328D03*
X70577724Y-3400756D03*
X70753773Y-7506451D03*
X70604360Y-18737784D03*
X70806008Y-32311700D03*
X70755065Y-41841114D03*
X70500409Y-47418940D03*
X71239152Y-9742466D03*
X71288418Y-40039795D03*
X71345314Y-45452740D03*
X72220545Y-2124060D03*
X72109400Y-4952126D03*
X72193130Y-12001554D03*
X71960959Y-17469814D03*
X72085714Y-37686806D03*
X72156774Y-43235155D03*
X72744697Y-6868699D03*
X72832519Y-31385516D03*
X72667153Y-41194467D03*
X72793710Y-46775325D03*
X73492808Y-3606040D03*
X73396625Y-8942865D03*
X73442269Y-18701970D03*
X73500047Y-39033657D03*
X73539624Y-44805130D03*
X74134909Y-1424405D03*
X74343799Y-5623295D03*
X74292700Y-11219184D03*
X74098106Y-37135105D03*
X74273466Y-42605016D03*
X74348335Y-48241825D03*
X74762153Y-7681363D03*
X74931104Y-13309868D03*
X74794884Y-30806264D03*
X74985703Y-40431923D03*
X74783685Y-46255032D03*
X75737632Y-2618956D03*
X75725949Y-9619856D03*
X75549321Y-38326419D03*
X75672805Y-44175326D03*
X76400374Y-5026989D03*
X76413886Y-11917326D03*
X76206264Y-18772327D03*
X76291232Y-36435466D03*
X76196308Y-42091815D03*
X76222622Y-47598326D03*
X76956094Y-1305729D03*
X76959086Y-7096485D03*
X77050957Y-13959042D03*
X76931923Y-39741766D03*
X77084548Y-45481110D03*
X77564299Y-3421790D03*
X77715214Y-8900230D03*
X77639127Y-30613255D03*
X77706933Y-37610880D03*
X77815877Y-43311696D03*
X78532635Y-5614173D03*
X78483338Y-11234194D03*
X78398707Y-35600982D03*
X78473421Y-41159658D03*
X78500874Y-46796551D03*
X79026848Y-2082023D03*
X78932398Y-7523847D03*
X79077995Y-13229298D03*
X79037524Y-39315008D03*
X78940034Y-44862156D03*
X79908780Y-4109252D03*
X79946148Y-9721591D03*
X79630746Y-15329584D03*
X79925431Y-37183648D03*
X79756345Y-42768200D03*
X79860957Y-48173489D03*
X80539334Y-6394512D03*
X80591681Y-11733584D03*
X80383504Y-34436919D03*
X80377045Y-40702260D03*
X80341706Y-46106992D03*
X81123090Y-1432722D03*
X81096194Y-8360255D03*
X81197263Y-14039227D03*
X81057728Y-38496949D03*
X81178067Y-44245763D03*
X81861166Y-3595444D03*
X82009341Y-10397398D03*
X81749552Y-16219600D03*
X81769232Y-35550121D03*
X81819520Y-41878253D03*
X81974328Y-47563782D03*
X82459548Y-5513643D03*
X82609986Y-12714875D03*
X82422907Y-33536629D03*
X82684099Y-39845411D03*
X82552310Y-45524252D03*
X83176607Y-2143049D03*
X83306016Y-7657353D03*
X83378244Y-14518077D03*
X83198275Y-36987982D03*
X83449169Y-43350980D03*
X83952357Y-4114202D03*
X83994748Y-9778476D03*
X84124547Y-16653137D03*
X84110959Y-34860711D03*
X84110420Y-41193270D03*
X83892861Y-46870900D03*
X84821347Y-6296116D03*
X84572043Y-12027709D03*
X84537866Y-32941997D03*
X84510849Y-38577348D03*
X84741125Y-44871646D03*
X85269192Y-1407579D03*
X85442951Y-8533542D03*
X85272332Y-14055249D03*
X85441794Y-36412318D03*
X85210833Y-42673991D03*
X85534793Y-48169219D03*
X86069515Y-3642626D03*
X85991373Y-10305076D03*
X86126011Y-16160245D03*
X85916117Y-34377325D03*
X86038008Y-39775128D03*
X85979258Y-46346150D03*
X86824226Y-5604640D03*
X86745122Y-12685357D03*
X86880201Y-32113412D03*
X86624595Y-37909710D03*
X86875074Y-44168937D03*
X87420757Y-2218350D03*
X87556544Y-7560812D03*
X87376885Y-14611298D03*
X87347075Y-17452963D03*
X87345734Y-35593352D03*
X87512077Y-41207017D03*
X87410271Y-47720783D03*
X88035603Y-4157638D03*
X88168047Y-9629557D03*
X88053254Y-33617415D03*
X88314660Y-39303977D03*
X88296077Y-45484992D03*
X88771608Y-6150827D03*
X88922523Y-11833433D03*
X88926396Y-16215466D03*
X88739143Y-31468060D03*
X88910463Y-37116419D03*
X88785112Y-42507015D03*
X89560299Y-1334994D03*
X89433945Y-8302956D03*
X89434625Y-13917355D03*
X89688084Y-18002030D03*
X89707151Y-34865896D03*
X89739011Y-40558684D03*
X89602322Y-46954959D03*
X90223195Y-3387594D03*
X90341207Y-10351787D03*
X90415334Y-33028520D03*
X90265872Y-38591143D03*
X90160576Y-44211808D03*
X90924566Y-5509990D03*
X91090626Y-12420078D03*
X90818481Y-15263916D03*
X91114555Y-19533734D03*
X91137447Y-30183572D03*
X90803730Y-36258599D03*
X90825482Y-42126257D03*
X90959080Y-48416580D03*
X91790045Y-2112793D03*
X91825096Y-7538732D03*
X91706723Y-17377141D03*
X91732882Y-34295834D03*
X91777085Y-39747190D03*
X91581216Y-45572180D03*
X92422728Y-4013293D03*
X92498173Y-9841181D03*
X92363827Y-14072395D03*
X92390888Y-20958840D03*
X92340155Y-28772371D03*
X92321192Y-31314752D03*
X92263126Y-37621339D03*
X92501293Y-43206775D03*
X93227673Y-6325085D03*
X92999066Y-12032644D03*
X93209969Y-15981900D03*
X93199454Y-18838525D03*
X93092655Y-35840768D03*
X93026667Y-41383993D03*
X93152845Y-46873898D03*
X93896926Y-1294714D03*
X93770036Y-8537519D03*
X93891368Y-30086129D03*
X93748297Y-32885179D03*
X93792188Y-39120922D03*
X93818563Y-44715907D03*
X94638177Y-3527880D03*
X94543648Y-10398725D03*
X94628516Y-13216991D03*
X94528545Y-17610550D03*
X94588747Y-28100000D03*
X94356089Y-37078355D03*
X94625441Y-42813076D03*
X94620364Y-48319712D03*
X95013465Y-5531334D03*
X95139487Y-15354851D03*
X95258181Y-31526040D03*
X95264658Y-34156258D03*
X95107691Y-40446429D03*
X95316066Y-46173530D03*
X95955352Y-2080726D03*
X95762356Y-7623053D03*
X95938688Y-11812074D03*
X95912612Y-38514925D03*
X96026227Y-43929626D03*
X96748035Y-4086459D03*
X96646335Y-9844534D03*
X96426442Y-13982897D03*
X96519651Y-16786839D03*
X96674776Y-32914336D03*
X96545092Y-35707428D03*
X96738924Y-41835962D03*
X96450739Y-47591024D03*
X97312353Y-6397988D03*
X97500000Y-28100000D03*
X97276889Y-39919193D03*
X97166622Y-45374655D03*
X98116147Y-1399918D03*
X98074047Y-8411475D03*
X97958551Y-11229942D03*
X98067063Y-15435992D03*
X98038226Y-18190783D03*
X97879697Y-34196971D03*
X97872982Y-36972872D03*
X97846844Y-43414107D03*
X98799138Y-3492995D03*
X98545829Y-13368389D03*
X98621830Y-30834550D03*
X98835242Y-41343413D03*
X98674144Y-46919584D03*
X65900000Y-22800000D03*
X68400000Y-22600000D03*
X70700000Y-23000000D03*
X74400000Y-23000000D03*
X77700000Y-23400000D03*
X79100000Y-19600000D03*
X38300000Y-11400000D03*
X1804999Y-22374999D03*
X1804999Y-27274999D03*
X1804999Y-30774999D03*
X3204999Y-27974999D03*
X3904999Y-22374999D03*
X3904999Y-30774999D03*
X4604999Y-27274999D03*
X6004999Y-19574999D03*
X6004999Y-21674999D03*
X6004999Y-28674999D03*
X6004999Y-30774999D03*
X7404999Y-20274999D03*
X7404999Y-30074999D03*
X8804999Y-19574999D03*
X8804999Y-30774999D03*
X10204999Y-30074999D03*
X10904999Y-19574999D03*
X1200000Y-19200000D03*
X3300000Y-19200000D03*
X7800000Y-19300000D03*
X8500000Y-29500000D03*
X3200000Y-27000000D03*
X2800000Y-23400000D03*
X6100000Y-23300000D03*
X7400000Y-21800000D03*
X30000000Y-26700000D03*
X35500000Y-33500000D03*
X35500000Y-19800000D03*
X39600000Y-19300000D03*
X41900000Y-18900000D03*
X44000000Y-18800000D03*
X43800000Y-28600000D03*
X45800000Y-28500000D03*
X45800000Y-18400000D03*
X46600000Y-16700000D03*
X53700000Y-17000000D03*
X55800000Y-17200000D03*
X56600000Y-16400000D03*
X52600000Y-11800000D03*
X51000000Y-10100000D03*
X52200000Y-27500000D03*
X54000000Y-26300000D03*
X54700000Y-27400000D03*
X55100000Y-26200000D03*
X57400000Y-41600000D03*
X52700000Y-41000000D03*
X51200000Y-39400000D03*
X49100000Y-38700000D03*
X55300000Y-36000000D03*
X53900000Y-37400000D03*
X53600000Y-36400000D03*
X51900000Y-36500000D03*
X52500000Y-37600000D03*
X54800000Y-48700000D03*
X55400000Y-32300000D03*
X57700000Y-12500000D03*
X49800000Y-43900000D03*
X49100000Y-43900000D03*
X57300000Y-13300000D03*
X57200000Y-42500000D03*
X55000000Y-33200000D03*
%TO.N,Net-(R5-Pad2)*%
X54100000Y-25000000D03*
X84300000Y-25000000D03*
%TO.N,/VOUT*%
X99100000Y-25000000D03*
X97500000Y-23000000D03*
X96500000Y-23000000D03*
X95500000Y-23000000D03*
X94500000Y-23000000D03*
X97500000Y-27000000D03*
X96500000Y-27000000D03*
X95500000Y-27000000D03*
X94500000Y-27000000D03*
X93500000Y-27000000D03*
X92500000Y-27000000D03*
X93500000Y-23000000D03*
X92500000Y-23000000D03*
X87750000Y-25000000D03*
X55500000Y-12600000D03*
X55500000Y-11800000D03*
X55500000Y-11000000D03*
X53200000Y-20200000D03*
X53200000Y-32400000D03*
X53200000Y-31600000D03*
X53200000Y-30800000D03*
X55500000Y-41600000D03*
X55500000Y-40800000D03*
X55500000Y-40000000D03*
X98300000Y-26600000D03*
X98900000Y-25900000D03*
X98900000Y-24100000D03*
X98300000Y-23400000D03*
X91500000Y-23000000D03*
X90500000Y-23000000D03*
X89500000Y-23000000D03*
X88500000Y-23000000D03*
X91500000Y-27000000D03*
X90500000Y-27000000D03*
X89500000Y-27000000D03*
X88500000Y-27000000D03*
X53200000Y-21000000D03*
X53200000Y-21700000D03*
%TO.N,/VIN*%
X49700000Y-10700000D03*
X49700000Y-11500000D03*
X49700000Y-12300000D03*
X49700000Y-13100000D03*
X49700000Y-13900000D03*
X47400000Y-19900000D03*
X47400000Y-20700000D03*
X47400000Y-21500000D03*
X47400000Y-22300000D03*
X47400000Y-23100000D03*
X47400000Y-30400000D03*
X47400000Y-31200000D03*
X47400000Y-32000000D03*
X47400000Y-32800000D03*
X47400000Y-33600000D03*
X49700000Y-39700000D03*
X49700000Y-40500000D03*
X49700000Y-41300000D03*
X49700000Y-42100000D03*
X49700000Y-42900000D03*
X13900000Y-24100000D03*
X13900000Y-25900000D03*
X13900000Y-24700000D03*
X13900000Y-25300000D03*
X12100000Y-26200000D03*
X12100000Y-23800000D03*
X12700000Y-23800000D03*
X13300000Y-23800000D03*
X13300000Y-26200000D03*
X12700000Y-26200000D03*
X53200000Y-35700000D03*
X49300000Y-34000000D03*
X55400000Y-16000000D03*
X55400006Y-45000000D03*
X51500000Y-14200000D03*
X51500000Y-43200000D03*
%TO.N,Net-(C11-Pad1)*%
X56500000Y-43800000D03*
X54450000Y-34550000D03*
X56650000Y-14800000D03*
X54100000Y-24000000D03*
%TD*%
D11*
%TO.N,Net-(R5-Pad2)*%
X84300000Y-25000000D02*
X54200000Y-25000000D01*
D12*
%TO.N,/VOUT*%
X87600000Y-20600000D02*
X60100000Y-10600000D01*
D13*
X87600000Y-29500000D02*
X60100000Y-39500000D01*
X86900000Y-22300000D02*
X58150000Y-19800000D01*
X86900000Y-27750000D02*
X58150000Y-30250000D01*
D14*
X55500000Y-41600000D02*
X55500000Y-40800000D01*
X55500000Y-40800000D02*
X55500000Y-40000000D01*
X53200000Y-32400000D02*
X53200000Y-31600000D01*
X53200000Y-31600000D02*
X53200000Y-30800000D01*
X53200000Y-20200000D02*
X53200000Y-21000000D01*
X53200000Y-21000000D02*
X53200000Y-21700000D01*
X55500000Y-11000000D02*
X55500000Y-11800000D01*
X55500000Y-11800000D02*
X55500000Y-12600000D01*
X56500000Y-10500000D02*
X60000000Y-10500000D01*
X56500000Y-10500000D02*
X56440770Y-10501453D01*
X56440770Y-10501453D02*
X56381682Y-10505812D01*
X56381682Y-10505812D02*
X56322880Y-10513064D01*
X56322880Y-10513064D02*
X56264504Y-10523193D01*
X56264504Y-10523193D02*
X56206696Y-10536175D01*
X56206696Y-10536175D02*
X56149595Y-10551977D01*
X56149595Y-10551977D02*
X56093337Y-10570562D01*
X56093337Y-10570562D02*
X56038059Y-10591885D01*
X56038059Y-10591885D02*
X55983894Y-10615894D01*
X55983894Y-10615894D02*
X55930973Y-10642533D01*
X55930973Y-10642533D02*
X55879422Y-10671736D01*
X55879422Y-10671736D02*
X55829366Y-10703433D01*
X55829366Y-10703433D02*
X55780926Y-10737548D01*
X55780926Y-10737548D02*
X55734218Y-10774000D01*
X55734218Y-10774000D02*
X55689355Y-10812699D01*
X55689355Y-10812699D02*
X55646446Y-10853553D01*
X55646446Y-10853553D02*
X55500000Y-11000000D01*
X54150000Y-19750000D02*
X58000000Y-19750000D01*
X54150000Y-19750000D02*
X54090770Y-19751453D01*
X54090770Y-19751453D02*
X54031682Y-19755812D01*
X54031682Y-19755812D02*
X53972880Y-19763064D01*
X53972880Y-19763064D02*
X53914504Y-19773193D01*
X53914504Y-19773193D02*
X53856696Y-19786175D01*
X53856696Y-19786175D02*
X53799595Y-19801977D01*
X53799595Y-19801977D02*
X53743337Y-19820562D01*
X53743337Y-19820562D02*
X53688059Y-19841885D01*
X53688059Y-19841885D02*
X53633894Y-19865894D01*
X53633894Y-19865894D02*
X53580973Y-19892533D01*
X53580973Y-19892533D02*
X53529422Y-19921736D01*
X53529422Y-19921736D02*
X53479366Y-19953433D01*
X53479366Y-19953433D02*
X53430926Y-19987548D01*
X53430926Y-19987548D02*
X53384218Y-20024000D01*
X53384218Y-20024000D02*
X53339355Y-20062699D01*
X53339355Y-20062699D02*
X53296446Y-20103553D01*
X53296446Y-20103553D02*
X53200000Y-20200000D01*
X53396446Y-30603553D02*
X53200000Y-30800000D01*
X53396446Y-30603553D02*
X53439355Y-30562699D01*
X53439355Y-30562699D02*
X53484218Y-30524000D01*
X53484218Y-30524000D02*
X53530926Y-30487548D01*
X53530926Y-30487548D02*
X53579366Y-30453433D01*
X53579366Y-30453433D02*
X53629422Y-30421736D01*
X53629422Y-30421736D02*
X53680973Y-30392533D01*
X53680973Y-30392533D02*
X53733894Y-30365894D01*
X53733894Y-30365894D02*
X53788059Y-30341885D01*
X53788059Y-30341885D02*
X53843337Y-30320562D01*
X53843337Y-30320562D02*
X53899595Y-30301977D01*
X53899595Y-30301977D02*
X53956696Y-30286175D01*
X53956696Y-30286175D02*
X54014504Y-30273193D01*
X54014504Y-30273193D02*
X54072880Y-30263064D01*
X54072880Y-30263064D02*
X54131682Y-30255812D01*
X54131682Y-30255812D02*
X54190770Y-30251453D01*
X54190770Y-30251453D02*
X54250000Y-30250000D01*
X54250000Y-30250000D02*
X58000000Y-30250000D01*
X55646446Y-39853553D02*
X55500000Y-40000000D01*
X55646446Y-39853553D02*
X55689355Y-39812698D01*
X55689355Y-39812698D02*
X55734218Y-39773999D01*
X55734218Y-39773999D02*
X55780926Y-39737548D01*
X55780926Y-39737548D02*
X55829366Y-39703433D01*
X55829366Y-39703433D02*
X55879422Y-39671735D01*
X55879422Y-39671735D02*
X55930973Y-39642532D01*
X55930973Y-39642532D02*
X55983894Y-39615894D01*
X55983894Y-39615894D02*
X56038059Y-39591884D01*
X56038059Y-39591884D02*
X56093337Y-39570561D01*
X56093337Y-39570561D02*
X56149595Y-39551976D01*
X56149595Y-39551976D02*
X56206696Y-39536174D01*
X56206696Y-39536174D02*
X56264504Y-39523193D01*
X56264504Y-39523193D02*
X56322880Y-39513064D01*
X56322880Y-39513064D02*
X56381682Y-39505812D01*
X56381682Y-39505812D02*
X56440770Y-39501453D01*
X56440770Y-39501453D02*
X56500000Y-39500000D01*
X56500000Y-39500000D02*
X60000000Y-39500000D01*
D13*
%TO.N,/VIN*%
X49585786Y-34285786D02*
X49300000Y-34000000D01*
X49585786Y-34285786D02*
X49757426Y-34449200D01*
X49757426Y-34449200D02*
X49936878Y-34603996D01*
X49936878Y-34603996D02*
X50123709Y-34749800D01*
X50123709Y-34749800D02*
X50317469Y-34886262D01*
X50317469Y-34886262D02*
X50517692Y-35013051D01*
X50517692Y-35013051D02*
X50723895Y-35129864D01*
X50723895Y-35129864D02*
X50935581Y-35236418D01*
X50935581Y-35236418D02*
X51152241Y-35332456D01*
X51152241Y-35332456D02*
X51373351Y-35417748D01*
X51373351Y-35417748D02*
X51598381Y-35492088D01*
X51598381Y-35492088D02*
X51826787Y-35555296D01*
X51826787Y-35555296D02*
X52058020Y-35607221D01*
X52058020Y-35607221D02*
X52291522Y-35647738D01*
X52291522Y-35647738D02*
X52526731Y-35676748D01*
X52526731Y-35676748D02*
X52763080Y-35694182D01*
X52763080Y-35694182D02*
X53000000Y-35700000D01*
X53000000Y-35700000D02*
X53200000Y-35700000D01*
X55300000Y-15900000D02*
X55400000Y-16000000D01*
X55300000Y-44900000D02*
X55400000Y-45000000D01*
X55400000Y-45000000D02*
X55400006Y-45000000D01*
X55400000Y-45000000D02*
X55400006Y-45000000D01*
X55400000Y-16000000D02*
X55400000Y-16000000D01*
X55300000Y-16000000D02*
X55400000Y-16000000D01*
X55300000Y-16000000D02*
X55063080Y-15994183D01*
X55063080Y-15994183D02*
X54826731Y-15976749D01*
X54826731Y-15976749D02*
X54591522Y-15947739D01*
X54591522Y-15947739D02*
X54358020Y-15907223D01*
X54358020Y-15907223D02*
X54126787Y-15855298D01*
X54126787Y-15855298D02*
X53898381Y-15792089D01*
X53898381Y-15792089D02*
X53673351Y-15717749D01*
X53673351Y-15717749D02*
X53452240Y-15632457D01*
X53452240Y-15632457D02*
X53235581Y-15536419D01*
X53235581Y-15536419D02*
X53023894Y-15429865D01*
X53023894Y-15429865D02*
X52817691Y-15313052D01*
X52817691Y-15313052D02*
X52617469Y-15186263D01*
X52617469Y-15186263D02*
X52423708Y-15049801D01*
X52423708Y-15049801D02*
X52236877Y-14903997D01*
X52236877Y-14903997D02*
X52057425Y-14749201D01*
X52057425Y-14749201D02*
X51885786Y-14585786D01*
X51885786Y-14585786D02*
X51500000Y-14200000D01*
X55300000Y-45000000D02*
X55400006Y-45000000D01*
X55300000Y-45000000D02*
X55063080Y-44994183D01*
X55063080Y-44994183D02*
X54826731Y-44976749D01*
X54826731Y-44976749D02*
X54591522Y-44947739D01*
X54591522Y-44947739D02*
X54358020Y-44907223D01*
X54358020Y-44907223D02*
X54126787Y-44855298D01*
X54126787Y-44855298D02*
X53898381Y-44792089D01*
X53898381Y-44792089D02*
X53673351Y-44717749D01*
X53673351Y-44717749D02*
X53452240Y-44632457D01*
X53452240Y-44632457D02*
X53235581Y-44536419D01*
X53235581Y-44536419D02*
X53023894Y-44429865D01*
X53023894Y-44429865D02*
X52817691Y-44313052D01*
X52817691Y-44313052D02*
X52617469Y-44186263D01*
X52617469Y-44186263D02*
X52423708Y-44049801D01*
X52423708Y-44049801D02*
X52236877Y-43903997D01*
X52236877Y-43903997D02*
X52057425Y-43749201D01*
X52057425Y-43749201D02*
X51885786Y-43585786D01*
X51885786Y-43585786D02*
X51500000Y-43200000D01*
%TD*%
%TO.N,/VOUT*%
X88974829Y-19351448D02*
X89145166Y-19393658D01*
X89302419Y-19471551D01*
X89443472Y-19584894D01*
X91843503Y-21984925D01*
X91848279Y-21989398D01*
X92044969Y-22161891D01*
X92055347Y-22169854D01*
X92272870Y-22315198D01*
X92284198Y-22321738D01*
X92518831Y-22437446D01*
X92530916Y-22442452D01*
X92778645Y-22526545D01*
X92791280Y-22529931D01*
X93047866Y-22580969D01*
X93060835Y-22582676D01*
X93321887Y-22599786D01*
X93328427Y-22600000D01*
X97168298Y-22600000D01*
X97419542Y-22616467D01*
X97663277Y-22664949D01*
X97898591Y-22744828D01*
X98121464Y-22854737D01*
X98328087Y-22992797D01*
X98517388Y-23158810D01*
X98841190Y-23482612D01*
X99007203Y-23671913D01*
X99145263Y-23878536D01*
X99255172Y-24101409D01*
X99335051Y-24336723D01*
X99383533Y-24580458D01*
X99400000Y-24831702D01*
X99400000Y-25168298D01*
X99383533Y-25419542D01*
X99335051Y-25663277D01*
X99255172Y-25898591D01*
X99145263Y-26121464D01*
X99007203Y-26328087D01*
X98841190Y-26517388D01*
X98517388Y-26841190D01*
X98328087Y-27007203D01*
X98121464Y-27145263D01*
X97898591Y-27255172D01*
X97663277Y-27335051D01*
X97419542Y-27383533D01*
X97168298Y-27400000D01*
X93078427Y-27400000D01*
X93071887Y-27400214D01*
X92810835Y-27417324D01*
X92797866Y-27419031D01*
X92541280Y-27470069D01*
X92528645Y-27473455D01*
X92280916Y-27557548D01*
X92268831Y-27562554D01*
X92034198Y-27678262D01*
X92022870Y-27684802D01*
X91805347Y-27830146D01*
X91794969Y-27838109D01*
X91598279Y-28010602D01*
X91593503Y-28015075D01*
X89373297Y-30235281D01*
X89241892Y-30341883D01*
X89095979Y-30416713D01*
X88937771Y-30459851D01*
X88774068Y-30469441D01*
X88611902Y-30445070D01*
X88458251Y-30387786D01*
X88319710Y-30300051D01*
X88198493Y-30181987D01*
X87766010Y-29663007D01*
X87603554Y-29436542D01*
X87475499Y-29188972D01*
X86932047Y-27920919D01*
X86858095Y-27717462D01*
X86807458Y-27507002D01*
X86413972Y-25342830D01*
X86386382Y-25113829D01*
X86386382Y-24886171D01*
X86413972Y-24657170D01*
X86807458Y-22492998D01*
X86858095Y-22282538D01*
X86932042Y-22079097D01*
X87505698Y-20740564D01*
X87597429Y-20554826D01*
X87708594Y-20380014D01*
X88203218Y-19687541D01*
X88323718Y-19552552D01*
X88466027Y-19449866D01*
X88627106Y-19380226D01*
X88799402Y-19346898D01*
X88974829Y-19351448D01*
%TA.AperFunction,Conductor*%
D15*
G36*
X88974829Y-19351448D02*
G01*
X89145166Y-19393658D01*
X89302419Y-19471551D01*
X89443472Y-19584894D01*
X91843503Y-21984925D01*
X91848279Y-21989398D01*
X92044969Y-22161891D01*
X92055347Y-22169854D01*
X92272870Y-22315198D01*
X92284198Y-22321738D01*
X92518831Y-22437446D01*
X92530916Y-22442452D01*
X92778645Y-22526545D01*
X92791280Y-22529931D01*
X93047866Y-22580969D01*
X93060835Y-22582676D01*
X93321887Y-22599786D01*
X93328427Y-22600000D01*
X97168298Y-22600000D01*
X97419542Y-22616467D01*
X97663277Y-22664949D01*
X97898591Y-22744828D01*
X98121464Y-22854737D01*
X98328087Y-22992797D01*
X98517388Y-23158810D01*
X98841190Y-23482612D01*
X99007203Y-23671913D01*
X99145263Y-23878536D01*
X99255172Y-24101409D01*
X99335051Y-24336723D01*
X99383533Y-24580458D01*
X99400000Y-24831702D01*
X99400000Y-25168298D01*
X99383533Y-25419542D01*
X99335051Y-25663277D01*
X99255172Y-25898591D01*
X99145263Y-26121464D01*
X99007203Y-26328087D01*
X98841190Y-26517388D01*
X98517388Y-26841190D01*
X98328087Y-27007203D01*
X98121464Y-27145263D01*
X97898591Y-27255172D01*
X97663277Y-27335051D01*
X97419542Y-27383533D01*
X97168298Y-27400000D01*
X93078427Y-27400000D01*
X93071887Y-27400214D01*
X92810835Y-27417324D01*
X92797866Y-27419031D01*
X92541280Y-27470069D01*
X92528645Y-27473455D01*
X92280916Y-27557548D01*
X92268831Y-27562554D01*
X92034198Y-27678262D01*
X92022870Y-27684802D01*
X91805347Y-27830146D01*
X91794969Y-27838109D01*
X91598279Y-28010602D01*
X91593503Y-28015075D01*
X89373297Y-30235281D01*
X89241892Y-30341883D01*
X89095979Y-30416713D01*
X88937771Y-30459851D01*
X88774068Y-30469441D01*
X88611902Y-30445070D01*
X88458251Y-30387786D01*
X88319710Y-30300051D01*
X88198493Y-30181987D01*
X87766010Y-29663007D01*
X87603554Y-29436542D01*
X87475499Y-29188972D01*
X86932047Y-27920919D01*
X86858095Y-27717462D01*
X86807458Y-27507002D01*
X86413972Y-25342830D01*
X86386382Y-25113829D01*
X86386382Y-24886171D01*
X86413972Y-24657170D01*
X86807458Y-22492998D01*
X86858095Y-22282538D01*
X86932042Y-22079097D01*
X87505698Y-20740564D01*
X87597429Y-20554826D01*
X87708594Y-20380014D01*
X88203218Y-19687541D01*
X88323718Y-19552552D01*
X88466027Y-19449866D01*
X88627106Y-19380226D01*
X88799402Y-19346898D01*
X88974829Y-19351448D01*
G37*
%TD.AperFunction*%
%TD*%
D13*
%TO.N,GND*%
X98675485Y-617768D02*
X98844229Y-668955D01*
X98999745Y-752080D01*
X99136054Y-863946D01*
X99247920Y-1000255D01*
X99331045Y-1155771D01*
X99382232Y-1324515D01*
X99400000Y-1504908D01*
X99400000Y-22729397D01*
X99385268Y-22825938D01*
X99345787Y-22906790D01*
X99283984Y-22972191D01*
X99205494Y-23016182D01*
X99117453Y-23034762D01*
X99027873Y-23026240D01*
X98944918Y-22991392D01*
X98870264Y-22928442D01*
X98474066Y-22475645D01*
X98466640Y-22468018D01*
X98310437Y-22323815D01*
X98293372Y-22311137D01*
X98110215Y-22203212D01*
X98090856Y-22194427D01*
X97889025Y-22127657D01*
X97868246Y-22123164D01*
X97656861Y-22100567D01*
X97646232Y-22100000D01*
X93015257Y-22100000D01*
X92836347Y-22082527D01*
X92668874Y-22032172D01*
X92514310Y-21950366D01*
X92374702Y-21837122D01*
X89641794Y-19139706D01*
X89634709Y-19133350D01*
X89487301Y-19013255D01*
X89471486Y-19002701D01*
X89304011Y-18912677D01*
X89286484Y-18905308D01*
X89104998Y-18848610D01*
X89086392Y-18844691D01*
X88897454Y-18823369D01*
X88878443Y-18823042D01*
X88688885Y-18837867D01*
X88670156Y-18841145D01*
X88486831Y-18891580D01*
X88469061Y-18898344D01*
X88298595Y-18982567D01*
X88282426Y-18992572D01*
X88130983Y-19107538D01*
X88117001Y-19120422D01*
X87990056Y-19261973D01*
X87984046Y-19269353D01*
X87391618Y-20071997D01*
X60794036Y-10400151D01*
X60788424Y-10343173D01*
X60742679Y-10192372D01*
X60668393Y-10053394D01*
X60568422Y-9931578D01*
X60446606Y-9831607D01*
X60307628Y-9757321D01*
X60156827Y-9711576D01*
X60039293Y-9700000D01*
X56529460Y-9700000D01*
X56519662Y-9699277D01*
X56490196Y-9700000D01*
X56460707Y-9700000D01*
X56450923Y-9700964D01*
X56440752Y-9701213D01*
X56421099Y-9700731D01*
X56401509Y-9702176D01*
X56381870Y-9702658D01*
X56362360Y-9705064D01*
X56342406Y-9706536D01*
X56322759Y-9707018D01*
X56303246Y-9709425D01*
X56283639Y-9710871D01*
X56264274Y-9714231D01*
X56244424Y-9716680D01*
X56224828Y-9718125D01*
X56205465Y-9721485D01*
X56185962Y-9723890D01*
X56166790Y-9728195D01*
X56147070Y-9731616D01*
X56127552Y-9734024D01*
X56108382Y-9738329D01*
X56089023Y-9741688D01*
X56070067Y-9746934D01*
X56050553Y-9751316D01*
X56031195Y-9754675D01*
X56012247Y-9759919D01*
X55993067Y-9764226D01*
X55974412Y-9770389D01*
X55955142Y-9775722D01*
X55935961Y-9780029D01*
X55917292Y-9786196D01*
X55898355Y-9791437D01*
X55880021Y-9798509D01*
X55861022Y-9804785D01*
X55842082Y-9810027D01*
X55823746Y-9817100D01*
X55805084Y-9823265D01*
X55787120Y-9831228D01*
X55768458Y-9838427D01*
X55749797Y-9844591D01*
X55731826Y-9852557D01*
X55713484Y-9859632D01*
X55695928Y-9868469D01*
X55677645Y-9876573D01*
X55659294Y-9883652D01*
X55641740Y-9892488D01*
X55623787Y-9900446D01*
X55606685Y-9910134D01*
X55588801Y-9919136D01*
X55570846Y-9927095D01*
X55553749Y-9936780D01*
X55536178Y-9945625D01*
X55519569Y-9956143D01*
X55502192Y-9965987D01*
X55484627Y-9974828D01*
X55468008Y-9985352D01*
X55450918Y-9995033D01*
X55434862Y-10006341D01*
X55417952Y-10017049D01*
X55400848Y-10026738D01*
X55384779Y-10038055D01*
X55368177Y-10048568D01*
X55352682Y-10060661D01*
X55336319Y-10072184D01*
X55319712Y-10082701D01*
X55304223Y-10094789D01*
X55288157Y-10106104D01*
X55273268Y-10118947D01*
X55257500Y-10131253D01*
X55241434Y-10142568D01*
X55226548Y-10155409D01*
X55211051Y-10167503D01*
X55196820Y-10181052D01*
X55181668Y-10194122D01*
X55166172Y-10206216D01*
X55151947Y-10219760D01*
X55137065Y-10232597D01*
X55123504Y-10246841D01*
X55116145Y-10253847D01*
X55108544Y-10260085D01*
X55087689Y-10280940D01*
X55066348Y-10301259D01*
X55059931Y-10308698D01*
X54962102Y-10406528D01*
X54931578Y-10431578D01*
X54906529Y-10462101D01*
X54831606Y-10553396D01*
X54806635Y-10600114D01*
X54757321Y-10692373D01*
X54711576Y-10843174D01*
X54700000Y-10960707D01*
X54696130Y-11000002D01*
X54700000Y-11039290D01*
X54700000Y-12639293D01*
X54711577Y-12756827D01*
X54757322Y-12907628D01*
X54831608Y-13046606D01*
X54931579Y-13168422D01*
X55053395Y-13268393D01*
X55192373Y-13342679D01*
X55343174Y-13388424D01*
X55500000Y-13403870D01*
X55656827Y-13388424D01*
X55807628Y-13342679D01*
X55946606Y-13268393D01*
X56068422Y-13168422D01*
X56168393Y-13046606D01*
X56242679Y-12907628D01*
X56288424Y-12756827D01*
X56300000Y-12639293D01*
X56300000Y-11352929D01*
X56308204Y-11348282D01*
X56326035Y-11339306D01*
X56344298Y-11331211D01*
X56362933Y-11324022D01*
X56381894Y-11317759D01*
X56401137Y-11312433D01*
X56420618Y-11308059D01*
X56440302Y-11304643D01*
X56460117Y-11302199D01*
X56480030Y-11300730D01*
X56509791Y-11300000D01*
X60039293Y-11300000D01*
X60156827Y-11288424D01*
X60307628Y-11242679D01*
X60435615Y-11174268D01*
X86952293Y-20816697D01*
X86494437Y-21863223D01*
X58745064Y-19450236D01*
X58742679Y-19442372D01*
X58668393Y-19303394D01*
X58568422Y-19181578D01*
X58446606Y-19081607D01*
X58307628Y-19007321D01*
X58156827Y-18961576D01*
X58039293Y-18950000D01*
X54179460Y-18950000D01*
X54169662Y-18949277D01*
X54140196Y-18950000D01*
X54110707Y-18950000D01*
X54100923Y-18950964D01*
X54090752Y-18951213D01*
X54071099Y-18950731D01*
X54051509Y-18952176D01*
X54031870Y-18952658D01*
X54012360Y-18955064D01*
X53992406Y-18956536D01*
X53972759Y-18957018D01*
X53953246Y-18959425D01*
X53933639Y-18960871D01*
X53914274Y-18964231D01*
X53894424Y-18966680D01*
X53874828Y-18968125D01*
X53855465Y-18971485D01*
X53835962Y-18973890D01*
X53816790Y-18978195D01*
X53797070Y-18981616D01*
X53777552Y-18984024D01*
X53758382Y-18988329D01*
X53739023Y-18991688D01*
X53720067Y-18996934D01*
X53700553Y-19001316D01*
X53681195Y-19004675D01*
X53662247Y-19009919D01*
X53643067Y-19014226D01*
X53624412Y-19020389D01*
X53605142Y-19025722D01*
X53585961Y-19030029D01*
X53567292Y-19036196D01*
X53548355Y-19041437D01*
X53530021Y-19048509D01*
X53511022Y-19054785D01*
X53492082Y-19060027D01*
X53473746Y-19067100D01*
X53455084Y-19073265D01*
X53437120Y-19081228D01*
X53418458Y-19088427D01*
X53399797Y-19094591D01*
X53381826Y-19102557D01*
X53363484Y-19109632D01*
X53345928Y-19118469D01*
X53327645Y-19126573D01*
X53309294Y-19133652D01*
X53291740Y-19142488D01*
X53273787Y-19150446D01*
X53256685Y-19160134D01*
X53238801Y-19169136D01*
X53220846Y-19177095D01*
X53203749Y-19186780D01*
X53186178Y-19195625D01*
X53169569Y-19206143D01*
X53152192Y-19215987D01*
X53134627Y-19224828D01*
X53118008Y-19235352D01*
X53100918Y-19245033D01*
X53084862Y-19256341D01*
X53067952Y-19267049D01*
X53050848Y-19276738D01*
X53034779Y-19288055D01*
X53018177Y-19298568D01*
X53002682Y-19310661D01*
X52986319Y-19322184D01*
X52969712Y-19332701D01*
X52954223Y-19344789D01*
X52938157Y-19356104D01*
X52923268Y-19368947D01*
X52907500Y-19381253D01*
X52891434Y-19392568D01*
X52876548Y-19405409D01*
X52861051Y-19417503D01*
X52846820Y-19431052D01*
X52831668Y-19444122D01*
X52816172Y-19456216D01*
X52801947Y-19469760D01*
X52787065Y-19482597D01*
X52773504Y-19496841D01*
X52766150Y-19503842D01*
X52758542Y-19510086D01*
X52737672Y-19530957D01*
X52716348Y-19551259D01*
X52709935Y-19558694D01*
X52662099Y-19606530D01*
X52631578Y-19631578D01*
X52606528Y-19662102D01*
X52531605Y-19753397D01*
X52503535Y-19805913D01*
X52457321Y-19892373D01*
X52411576Y-20043174D01*
X52400000Y-20160707D01*
X52396130Y-20200004D01*
X52400000Y-20239292D01*
X52400000Y-21739293D01*
X52411576Y-21856827D01*
X52457322Y-22007628D01*
X52531608Y-22146606D01*
X52631579Y-22268422D01*
X52753395Y-22368393D01*
X52892373Y-22442679D01*
X53043174Y-22488424D01*
X53200000Y-22503870D01*
X53356827Y-22488424D01*
X53507628Y-22442679D01*
X53646606Y-22368393D01*
X53768422Y-22268422D01*
X53868393Y-22146606D01*
X53942679Y-22007628D01*
X53988424Y-21856827D01*
X54000000Y-21739293D01*
X54000000Y-20579011D01*
X54012933Y-20574022D01*
X54031894Y-20567759D01*
X54051137Y-20562433D01*
X54070618Y-20558059D01*
X54090302Y-20554643D01*
X54110117Y-20552199D01*
X54130030Y-20550730D01*
X54159791Y-20550000D01*
X58039293Y-20550000D01*
X58156827Y-20538424D01*
X58307628Y-20492679D01*
X58446606Y-20418393D01*
X58568422Y-20318422D01*
X58630107Y-20243258D01*
X86242026Y-22644294D01*
X85723692Y-24475741D01*
X85721751Y-24483887D01*
X85689813Y-24648150D01*
X85688005Y-24664786D01*
X85683905Y-24832075D01*
X85684896Y-24848779D01*
X85708749Y-25014409D01*
X85710289Y-25022641D01*
X86259869Y-27404154D01*
X58668403Y-29803412D01*
X58668393Y-29803394D01*
X58568422Y-29681578D01*
X58446606Y-29581607D01*
X58307628Y-29507321D01*
X58156827Y-29461576D01*
X58039293Y-29450000D01*
X54279460Y-29450000D01*
X54269662Y-29449277D01*
X54240196Y-29450000D01*
X54210707Y-29450000D01*
X54200923Y-29450964D01*
X54190752Y-29451213D01*
X54171099Y-29450731D01*
X54151509Y-29452176D01*
X54131870Y-29452658D01*
X54112360Y-29455064D01*
X54092406Y-29456536D01*
X54072759Y-29457018D01*
X54053246Y-29459425D01*
X54033639Y-29460871D01*
X54014274Y-29464231D01*
X53994424Y-29466680D01*
X53974828Y-29468125D01*
X53955465Y-29471485D01*
X53935962Y-29473890D01*
X53916790Y-29478195D01*
X53897070Y-29481616D01*
X53877552Y-29484024D01*
X53858382Y-29488329D01*
X53839023Y-29491688D01*
X53820067Y-29496934D01*
X53800553Y-29501316D01*
X53781195Y-29504675D01*
X53762247Y-29509919D01*
X53743067Y-29514226D01*
X53724412Y-29520389D01*
X53705142Y-29525722D01*
X53685961Y-29530029D01*
X53667292Y-29536196D01*
X53648355Y-29541437D01*
X53630021Y-29548509D01*
X53611022Y-29554785D01*
X53592082Y-29560027D01*
X53573746Y-29567100D01*
X53555084Y-29573265D01*
X53537120Y-29581228D01*
X53518458Y-29588427D01*
X53499797Y-29594591D01*
X53481826Y-29602557D01*
X53463484Y-29609632D01*
X53445928Y-29618469D01*
X53427645Y-29626573D01*
X53409294Y-29633652D01*
X53391740Y-29642488D01*
X53373787Y-29650446D01*
X53356685Y-29660134D01*
X53338801Y-29669136D01*
X53320846Y-29677095D01*
X53303749Y-29686780D01*
X53286178Y-29695625D01*
X53269569Y-29706143D01*
X53252192Y-29715987D01*
X53234627Y-29724828D01*
X53218008Y-29735352D01*
X53200918Y-29745033D01*
X53184862Y-29756341D01*
X53167952Y-29767049D01*
X53150848Y-29776738D01*
X53134779Y-29788055D01*
X53118177Y-29798568D01*
X53102682Y-29810661D01*
X53086319Y-29822184D01*
X53069712Y-29832701D01*
X53054223Y-29844789D01*
X53038157Y-29856104D01*
X53023268Y-29868947D01*
X53007500Y-29881253D01*
X52991434Y-29892568D01*
X52976548Y-29905409D01*
X52961051Y-29917503D01*
X52946820Y-29931052D01*
X52931668Y-29944122D01*
X52916172Y-29956216D01*
X52901947Y-29969760D01*
X52887065Y-29982597D01*
X52873504Y-29996841D01*
X52866145Y-30003847D01*
X52858544Y-30010085D01*
X52837688Y-30030941D01*
X52816348Y-30051259D01*
X52809932Y-30058698D01*
X52662097Y-30206532D01*
X52631579Y-30231578D01*
X52606532Y-30262098D01*
X52606529Y-30262101D01*
X52531606Y-30353396D01*
X52492031Y-30427437D01*
X52457322Y-30492372D01*
X52411577Y-30643173D01*
X52400033Y-30760379D01*
X52396130Y-30800002D01*
X52400000Y-30839290D01*
X52400000Y-32439292D01*
X52411576Y-32556826D01*
X52457321Y-32707627D01*
X52531607Y-32846605D01*
X52631578Y-32968422D01*
X52753394Y-33068393D01*
X52892372Y-33142679D01*
X53043173Y-33188424D01*
X53200000Y-33203870D01*
X53356826Y-33188424D01*
X53507627Y-33142679D01*
X53646605Y-33068393D01*
X53768422Y-32968422D01*
X53868393Y-32846606D01*
X53942679Y-32707628D01*
X53988424Y-32556827D01*
X54000000Y-32439293D01*
X54000000Y-31136261D01*
X54007634Y-31130303D01*
X54023949Y-31118813D01*
X54040826Y-31108126D01*
X54058204Y-31098282D01*
X54076035Y-31089306D01*
X54094298Y-31081211D01*
X54112933Y-31074022D01*
X54131894Y-31067759D01*
X54151137Y-31062433D01*
X54170618Y-31058059D01*
X54190302Y-31054643D01*
X54210117Y-31052199D01*
X54230030Y-31050730D01*
X54259791Y-31050000D01*
X58039293Y-31050000D01*
X58156827Y-31038424D01*
X58307628Y-30992679D01*
X58446606Y-30918393D01*
X58568422Y-30818422D01*
X58668393Y-30696606D01*
X58718942Y-30602036D01*
X86472084Y-28188720D01*
X86952551Y-29309811D01*
X60545169Y-38912495D01*
X60446606Y-38831607D01*
X60307628Y-38757321D01*
X60156827Y-38711576D01*
X60039293Y-38700000D01*
X56529460Y-38700000D01*
X56519662Y-38699277D01*
X56490196Y-38700000D01*
X56460707Y-38700000D01*
X56450923Y-38700964D01*
X56440752Y-38701213D01*
X56421099Y-38700731D01*
X56401509Y-38702176D01*
X56381870Y-38702658D01*
X56362360Y-38705064D01*
X56342406Y-38706536D01*
X56322759Y-38707018D01*
X56303246Y-38709425D01*
X56283639Y-38710871D01*
X56264274Y-38714231D01*
X56244424Y-38716680D01*
X56224828Y-38718125D01*
X56205465Y-38721485D01*
X56185962Y-38723890D01*
X56166790Y-38728195D01*
X56147074Y-38731616D01*
X56127565Y-38734022D01*
X56108392Y-38738327D01*
X56089023Y-38741688D01*
X56070074Y-38746932D01*
X56050557Y-38751314D01*
X56031195Y-38754674D01*
X56012260Y-38759914D01*
X55993080Y-38764221D01*
X55974410Y-38770389D01*
X55955142Y-38775721D01*
X55935961Y-38780028D01*
X55917292Y-38786195D01*
X55898355Y-38791436D01*
X55880021Y-38798508D01*
X55861022Y-38804784D01*
X55842082Y-38810026D01*
X55823746Y-38817099D01*
X55805084Y-38823264D01*
X55787120Y-38831227D01*
X55768445Y-38838431D01*
X55749785Y-38844595D01*
X55731826Y-38852556D01*
X55713484Y-38859631D01*
X55695916Y-38868474D01*
X55677639Y-38876576D01*
X55659305Y-38883648D01*
X55641745Y-38892487D01*
X55623776Y-38900452D01*
X55606684Y-38910134D01*
X55588814Y-38919129D01*
X55570846Y-38927094D01*
X55553750Y-38936779D01*
X55536189Y-38945618D01*
X55519578Y-38956137D01*
X55502183Y-38965991D01*
X55484617Y-38974833D01*
X55468009Y-38985350D01*
X55450918Y-38995032D01*
X55434851Y-39006348D01*
X55417954Y-39017048D01*
X55400848Y-39026738D01*
X55384766Y-39038064D01*
X55368168Y-39048575D01*
X55352683Y-39060659D01*
X55336326Y-39072179D01*
X55319720Y-39082695D01*
X55304222Y-39094789D01*
X55288157Y-39106104D01*
X55273276Y-39118941D01*
X55257501Y-39131251D01*
X55241434Y-39142567D01*
X55226554Y-39155403D01*
X55211059Y-39167495D01*
X55196824Y-39181048D01*
X55181673Y-39194117D01*
X55166164Y-39206221D01*
X55151933Y-39219771D01*
X55137065Y-39232596D01*
X55123507Y-39246836D01*
X55116137Y-39253854D01*
X55108544Y-39260085D01*
X55087695Y-39280934D01*
X55066341Y-39301266D01*
X55059925Y-39308704D01*
X54962097Y-39406533D01*
X54931579Y-39431578D01*
X54906532Y-39462098D01*
X54906529Y-39462101D01*
X54831606Y-39553396D01*
X54757320Y-39692376D01*
X54738576Y-39754170D01*
X54711577Y-39843173D01*
X54700019Y-39960523D01*
X54696130Y-40000002D01*
X54700000Y-40039290D01*
X54700000Y-41639292D01*
X54711576Y-41756826D01*
X54757321Y-41907627D01*
X54831607Y-42046605D01*
X54931578Y-42168422D01*
X55053394Y-42268393D01*
X55192372Y-42342679D01*
X55343173Y-42388424D01*
X55500000Y-42403870D01*
X55656826Y-42388424D01*
X55807627Y-42342679D01*
X55946605Y-42268393D01*
X56068422Y-42168422D01*
X56168393Y-42046606D01*
X56242679Y-41907628D01*
X56288424Y-41756827D01*
X56300000Y-41639293D01*
X56300000Y-40352928D01*
X56308201Y-40348282D01*
X56326047Y-40339300D01*
X56344293Y-40331211D01*
X56362933Y-40324021D01*
X56381894Y-40317758D01*
X56401130Y-40312434D01*
X56420614Y-40308059D01*
X56440302Y-40304643D01*
X56460117Y-40302199D01*
X56480030Y-40300730D01*
X56509791Y-40300000D01*
X60039293Y-40300000D01*
X60156827Y-40288424D01*
X60307628Y-40242679D01*
X60446606Y-40168393D01*
X60568422Y-40068422D01*
X60668393Y-39946606D01*
X60742679Y-39807628D01*
X60782129Y-39677578D01*
X87368416Y-30009838D01*
X87996145Y-30637567D01*
X88003250Y-30644020D01*
X88151209Y-30765981D01*
X88167106Y-30776702D01*
X88335623Y-30868182D01*
X88353275Y-30875673D01*
X88536155Y-30933307D01*
X88554911Y-30937290D01*
X88745428Y-30958960D01*
X88764600Y-30959291D01*
X88955751Y-30944199D01*
X88974633Y-30940864D01*
X89159390Y-30889567D01*
X89177289Y-30882690D01*
X89348859Y-30797072D01*
X89365116Y-30786904D01*
X89517190Y-30670114D01*
X89524513Y-30663910D01*
X92276644Y-28095255D01*
X92413899Y-27989375D01*
X92564291Y-27913108D01*
X92726275Y-27866248D01*
X92898862Y-27850000D01*
X98495092Y-27850000D01*
X98675485Y-27867768D01*
X98844229Y-27918955D01*
X98999745Y-28002080D01*
X99136054Y-28113946D01*
X99247920Y-28250255D01*
X99331045Y-28405771D01*
X99382232Y-28574515D01*
X99400000Y-28754908D01*
X99400000Y-48495092D01*
X99382232Y-48675485D01*
X99331045Y-48844229D01*
X99247920Y-48999745D01*
X99136054Y-49136054D01*
X98999745Y-49247920D01*
X98844229Y-49331045D01*
X98675485Y-49382232D01*
X98495092Y-49400000D01*
X1504908Y-49400000D01*
X1324515Y-49382232D01*
X1155771Y-49331045D01*
X1000255Y-49247920D01*
X863946Y-49136054D01*
X752080Y-48999745D01*
X668955Y-48844229D01*
X617768Y-48675485D01*
X600000Y-48495092D01*
X600000Y-32904908D01*
X617768Y-32724515D01*
X668955Y-32555771D01*
X752080Y-32400255D01*
X863946Y-32263946D01*
X1000255Y-32152080D01*
X1155771Y-32068955D01*
X1324515Y-32017768D01*
X1504908Y-32000000D01*
X11000000Y-32000000D01*
X11009802Y-31999518D01*
X11204892Y-31980303D01*
X11224118Y-31976479D01*
X11411711Y-31919574D01*
X11429823Y-31912072D01*
X11602710Y-31819662D01*
X11619009Y-31808771D01*
X11770546Y-31684408D01*
X11784408Y-31670546D01*
X11908771Y-31519009D01*
X11919662Y-31502710D01*
X12012072Y-31329823D01*
X12019574Y-31311711D01*
X12060141Y-31177979D01*
X12119985Y-31283323D01*
X12138677Y-31312229D01*
X12341873Y-31590083D01*
X12363753Y-31616656D01*
X12597440Y-31869405D01*
X12622221Y-31893298D01*
X12883323Y-32117613D01*
X12910677Y-32138509D01*
X13195756Y-32331437D01*
X13225324Y-32349063D01*
X13530627Y-32508065D01*
X13562019Y-32522187D01*
X13883526Y-32645169D01*
X13899778Y-32650857D01*
X48465376Y-43644767D01*
X48480162Y-43649055D01*
X48777888Y-43727179D01*
X48808022Y-43733454D01*
X49112187Y-43780660D01*
X49142805Y-43783814D01*
X49450206Y-43799605D01*
X49465597Y-43800000D01*
X49600000Y-43800000D01*
X49639159Y-43797433D01*
X49794450Y-43776988D01*
X49870095Y-43756719D01*
X50014804Y-43696779D01*
X50082628Y-43657621D01*
X50206892Y-43562270D01*
X50262270Y-43506892D01*
X50357621Y-43382628D01*
X50396779Y-43314804D01*
X50456719Y-43170095D01*
X50463220Y-43145830D01*
X50950000Y-43145830D01*
X50950000Y-43254170D01*
X50971136Y-43360429D01*
X51012597Y-43460523D01*
X51072787Y-43550604D01*
X51149396Y-43627213D01*
X51239477Y-43687403D01*
X51339571Y-43728864D01*
X51445830Y-43750000D01*
X51484314Y-43750000D01*
X51592537Y-43858223D01*
X51595740Y-43861936D01*
X51606385Y-43872071D01*
X51616835Y-43882521D01*
X51620645Y-43885648D01*
X51774513Y-44032144D01*
X51781280Y-44039251D01*
X51788707Y-44045657D01*
X51795837Y-44052446D01*
X51803598Y-44058503D01*
X51968184Y-44200476D01*
X51975297Y-44207248D01*
X51983038Y-44213289D01*
X51990485Y-44219713D01*
X51998525Y-44225375D01*
X52169886Y-44359106D01*
X52177322Y-44365521D01*
X52185350Y-44371175D01*
X52193105Y-44377227D01*
X52201415Y-44382489D01*
X52379123Y-44507646D01*
X52386872Y-44513693D01*
X52395176Y-44518951D01*
X52403209Y-44524609D01*
X52411761Y-44529454D01*
X52595412Y-44645750D01*
X52603437Y-44651402D01*
X52611978Y-44656240D01*
X52620290Y-44661504D01*
X52629075Y-44665926D01*
X52818204Y-44773067D01*
X52826501Y-44778321D01*
X52835270Y-44782735D01*
X52843828Y-44787583D01*
X52852821Y-44791569D01*
X53046976Y-44889299D01*
X53055524Y-44894141D01*
X53064504Y-44898122D01*
X53073286Y-44902542D01*
X53082459Y-44906080D01*
X53281171Y-44994163D01*
X53289952Y-44998583D01*
X53299124Y-45002121D01*
X53308105Y-45006102D01*
X53317435Y-45009184D01*
X53520233Y-45087412D01*
X53529223Y-45091397D01*
X53538561Y-45094482D01*
X53547723Y-45098016D01*
X53557189Y-45100636D01*
X53763580Y-45168818D01*
X53772760Y-45172359D01*
X53782247Y-45174984D01*
X53791563Y-45178062D01*
X53801138Y-45180212D01*
X54010653Y-45238193D01*
X54019978Y-45241274D01*
X54029562Y-45243426D01*
X54039036Y-45246048D01*
X54048723Y-45247729D01*
X54260812Y-45295355D01*
X54270279Y-45297975D01*
X54279958Y-45299654D01*
X54289548Y-45301808D01*
X54299305Y-45303011D01*
X54513489Y-45340176D01*
X54523059Y-45342325D01*
X54532794Y-45343526D01*
X54542495Y-45345209D01*
X54552315Y-45345933D01*
X54768030Y-45372539D01*
X54777712Y-45374219D01*
X54787511Y-45374942D01*
X54797266Y-45376145D01*
X54807091Y-45376386D01*
X55013825Y-45391636D01*
X55049402Y-45427213D01*
X55139483Y-45487403D01*
X55239577Y-45528864D01*
X55345836Y-45550000D01*
X55454176Y-45550000D01*
X55560435Y-45528864D01*
X55660529Y-45487403D01*
X55750610Y-45427213D01*
X55827219Y-45350604D01*
X55887409Y-45260523D01*
X55928870Y-45160429D01*
X55950006Y-45054170D01*
X55950006Y-44945830D01*
X55928870Y-44839571D01*
X55887409Y-44739477D01*
X55827219Y-44649396D01*
X55750610Y-44572787D01*
X55660529Y-44512597D01*
X55560435Y-44471136D01*
X55454176Y-44450000D01*
X55345836Y-44450000D01*
X55239577Y-44471136D01*
X55139483Y-44512597D01*
X55049402Y-44572787D01*
X55031427Y-44590762D01*
X54865941Y-44578555D01*
X54650241Y-44551951D01*
X54436073Y-44514790D01*
X54224019Y-44467172D01*
X54014527Y-44409197D01*
X53808144Y-44341017D01*
X53605367Y-44262798D01*
X53406661Y-44174718D01*
X53212512Y-44076992D01*
X53023390Y-43969855D01*
X52839764Y-43853576D01*
X52686777Y-43745830D01*
X55950000Y-43745830D01*
X55950000Y-43854170D01*
X55971136Y-43960429D01*
X56012597Y-44060523D01*
X56072787Y-44150604D01*
X56149396Y-44227213D01*
X56239477Y-44287403D01*
X56339571Y-44328864D01*
X56445830Y-44350000D01*
X56554170Y-44350000D01*
X56660429Y-44328864D01*
X56760523Y-44287403D01*
X56850604Y-44227213D01*
X56927213Y-44150604D01*
X56987403Y-44060523D01*
X57028864Y-43960429D01*
X57050000Y-43854170D01*
X57050000Y-43745830D01*
X57028864Y-43639571D01*
X56987403Y-43539477D01*
X56927213Y-43449396D01*
X56850604Y-43372787D01*
X56760523Y-43312597D01*
X56660429Y-43271136D01*
X56554170Y-43250000D01*
X56445830Y-43250000D01*
X56339571Y-43271136D01*
X56239477Y-43312597D01*
X56149396Y-43372787D01*
X56072787Y-43449396D01*
X56012597Y-43539477D01*
X55971136Y-43639571D01*
X55950000Y-43745830D01*
X52686777Y-43745830D01*
X52662067Y-43728428D01*
X52490711Y-43594701D01*
X52326135Y-43452737D01*
X52165195Y-43299509D01*
X52050000Y-43184314D01*
X52050000Y-43145830D01*
X52028864Y-43039571D01*
X51987403Y-42939477D01*
X51927213Y-42849396D01*
X51850604Y-42772787D01*
X51760523Y-42712597D01*
X51660429Y-42671136D01*
X51554170Y-42650000D01*
X51445830Y-42650000D01*
X51339571Y-42671136D01*
X51239477Y-42712597D01*
X51149396Y-42772787D01*
X51072787Y-42849396D01*
X51012597Y-42939477D01*
X50971136Y-43039571D01*
X50950000Y-43145830D01*
X50463220Y-43145830D01*
X50476988Y-43094450D01*
X50497433Y-42939159D01*
X50500000Y-42900000D01*
X50500000Y-39700000D01*
X50497433Y-39660841D01*
X50476988Y-39505550D01*
X50456719Y-39429905D01*
X50396779Y-39285196D01*
X50357621Y-39217372D01*
X50262270Y-39093108D01*
X50206892Y-39037730D01*
X50082628Y-38942379D01*
X50014804Y-38903221D01*
X49870095Y-38843281D01*
X49794450Y-38823012D01*
X49639159Y-38802567D01*
X49600000Y-38800000D01*
X49502261Y-38800000D01*
X49200904Y-38783587D01*
X48911180Y-38735869D01*
X48620474Y-38654770D01*
X34797303Y-33974483D01*
X34665036Y-33914504D01*
X34559354Y-33838371D01*
X34470759Y-33742882D01*
X34402743Y-33631802D01*
X34357972Y-33509486D01*
X34338207Y-33380741D01*
X34344224Y-33250626D01*
X34375786Y-33124257D01*
X34431655Y-33006592D01*
X34509635Y-32902259D01*
X34606656Y-32815362D01*
X34718920Y-32749303D01*
X34842005Y-32706687D01*
X34971075Y-32689185D01*
X35116011Y-32698440D01*
X46409448Y-34556235D01*
X46433715Y-34559218D01*
X46920677Y-34599004D01*
X46945106Y-34600000D01*
X47300000Y-34600000D01*
X47339159Y-34597433D01*
X47494450Y-34576988D01*
X47570095Y-34556719D01*
X47714804Y-34496779D01*
X47782628Y-34457621D01*
X47906892Y-34362270D01*
X47962270Y-34306892D01*
X48057621Y-34182628D01*
X48096779Y-34114804D01*
X48156719Y-33970095D01*
X48163220Y-33945830D01*
X48750000Y-33945830D01*
X48750000Y-34054170D01*
X48771136Y-34160429D01*
X48812597Y-34260523D01*
X48872787Y-34350604D01*
X48949396Y-34427213D01*
X49039477Y-34487403D01*
X49139571Y-34528864D01*
X49245830Y-34550000D01*
X49284315Y-34550000D01*
X49292534Y-34558219D01*
X49295742Y-34561938D01*
X49306404Y-34572089D01*
X49316835Y-34582520D01*
X49320640Y-34585643D01*
X49474508Y-34732137D01*
X49481281Y-34739250D01*
X49488717Y-34745664D01*
X49495840Y-34752446D01*
X49503592Y-34758496D01*
X49668185Y-34900475D01*
X49675298Y-34907247D01*
X49683039Y-34913288D01*
X49690486Y-34919712D01*
X49698526Y-34925374D01*
X49869878Y-35059099D01*
X49877322Y-35065520D01*
X49885361Y-35071182D01*
X49893106Y-35077226D01*
X49901405Y-35082482D01*
X50079142Y-35207658D01*
X50086873Y-35213692D01*
X50095157Y-35218938D01*
X50103208Y-35224608D01*
X50111776Y-35229462D01*
X50295417Y-35345752D01*
X50303438Y-35351401D01*
X50311974Y-35356236D01*
X50320292Y-35361504D01*
X50329084Y-35365930D01*
X50518199Y-35473063D01*
X50526501Y-35478320D01*
X50535280Y-35482739D01*
X50543829Y-35487582D01*
X50552812Y-35491564D01*
X50746992Y-35589306D01*
X50755525Y-35594140D01*
X50764490Y-35598114D01*
X50773285Y-35602541D01*
X50782471Y-35606085D01*
X50981195Y-35694173D01*
X50989952Y-35698581D01*
X50999099Y-35702109D01*
X51008106Y-35706102D01*
X51017459Y-35709192D01*
X51220237Y-35787413D01*
X51229223Y-35791396D01*
X51238555Y-35794479D01*
X51247722Y-35798015D01*
X51257194Y-35800636D01*
X51463589Y-35868820D01*
X51472762Y-35872358D01*
X51482236Y-35874980D01*
X51491563Y-35878061D01*
X51501150Y-35880214D01*
X51710644Y-35938188D01*
X51719978Y-35941272D01*
X51729572Y-35943426D01*
X51739038Y-35946046D01*
X51748717Y-35947725D01*
X51960818Y-35995354D01*
X51970277Y-35997972D01*
X51979945Y-35999650D01*
X51989548Y-36001806D01*
X51999316Y-36003011D01*
X52213474Y-36040172D01*
X52223059Y-36042324D01*
X52232807Y-36043526D01*
X52242493Y-36045207D01*
X52252301Y-36045931D01*
X52468030Y-36072538D01*
X52477712Y-36074218D01*
X52487511Y-36074941D01*
X52497266Y-36076144D01*
X52507091Y-36076385D01*
X52723861Y-36092375D01*
X52733620Y-36093579D01*
X52743453Y-36093820D01*
X52753248Y-36094543D01*
X52763065Y-36094302D01*
X52817830Y-36095647D01*
X52849396Y-36127213D01*
X52939477Y-36187403D01*
X53039571Y-36228864D01*
X53145830Y-36250000D01*
X53254170Y-36250000D01*
X53360429Y-36228864D01*
X53460523Y-36187403D01*
X53550604Y-36127213D01*
X53627213Y-36050604D01*
X53687403Y-35960523D01*
X53728864Y-35860429D01*
X53750000Y-35754170D01*
X53750000Y-35645830D01*
X53728864Y-35539571D01*
X53687403Y-35439477D01*
X53627213Y-35349396D01*
X53550604Y-35272787D01*
X53460523Y-35212597D01*
X53360429Y-35171136D01*
X53254170Y-35150000D01*
X53145830Y-35150000D01*
X53039571Y-35171136D01*
X52939477Y-35212597D01*
X52849396Y-35272787D01*
X52826562Y-35295621D01*
X52782711Y-35294544D01*
X52565941Y-35278554D01*
X52350230Y-35251949D01*
X52136091Y-35214792D01*
X51924012Y-35167168D01*
X51714530Y-35109197D01*
X51508146Y-35041017D01*
X51305356Y-34962792D01*
X51106662Y-34874717D01*
X50912506Y-34776987D01*
X50723383Y-34669850D01*
X50539762Y-34553573D01*
X50457774Y-34495830D01*
X53900000Y-34495830D01*
X53900000Y-34604170D01*
X53921136Y-34710429D01*
X53962597Y-34810523D01*
X54022787Y-34900604D01*
X54099396Y-34977213D01*
X54189477Y-35037403D01*
X54289571Y-35078864D01*
X54395830Y-35100000D01*
X54504170Y-35100000D01*
X54610429Y-35078864D01*
X54710523Y-35037403D01*
X54800604Y-34977213D01*
X54877213Y-34900604D01*
X54937403Y-34810523D01*
X54978864Y-34710429D01*
X55000000Y-34604170D01*
X55000000Y-34495830D01*
X54978864Y-34389571D01*
X54937403Y-34289477D01*
X54877213Y-34199396D01*
X54800604Y-34122787D01*
X54710523Y-34062597D01*
X54610429Y-34021136D01*
X54504170Y-34000000D01*
X54395830Y-34000000D01*
X54289571Y-34021136D01*
X54189477Y-34062597D01*
X54099396Y-34122787D01*
X54022787Y-34199396D01*
X53962597Y-34289477D01*
X53921136Y-34389571D01*
X53900000Y-34495830D01*
X50457774Y-34495830D01*
X50362060Y-34428420D01*
X50190712Y-34294700D01*
X50026135Y-34152735D01*
X49865170Y-33999485D01*
X49850000Y-33984315D01*
X49850000Y-33945830D01*
X49828864Y-33839571D01*
X49787403Y-33739477D01*
X49727213Y-33649396D01*
X49650604Y-33572787D01*
X49560523Y-33512597D01*
X49460429Y-33471136D01*
X49354170Y-33450000D01*
X49245830Y-33450000D01*
X49139571Y-33471136D01*
X49039477Y-33512597D01*
X48949396Y-33572787D01*
X48872787Y-33649396D01*
X48812597Y-33739477D01*
X48771136Y-33839571D01*
X48750000Y-33945830D01*
X48163220Y-33945830D01*
X48176988Y-33894450D01*
X48197433Y-33739159D01*
X48200000Y-33700000D01*
X48200000Y-30400000D01*
X48197433Y-30360841D01*
X48176988Y-30205550D01*
X48156719Y-30129905D01*
X48096779Y-29985196D01*
X48057621Y-29917372D01*
X47962270Y-29793108D01*
X47906892Y-29737730D01*
X47782628Y-29642379D01*
X47714804Y-29603221D01*
X47570095Y-29543281D01*
X47494450Y-29523012D01*
X47339159Y-29502567D01*
X47300000Y-29500000D01*
X46893112Y-29500000D01*
X46544976Y-29478657D01*
X33725946Y-27900930D01*
X33522898Y-27859063D01*
X33340614Y-27789383D01*
X33171943Y-27691261D01*
X33021275Y-27567249D01*
X32892550Y-27420592D01*
X32789121Y-27255109D01*
X32713702Y-27075138D01*
X32668253Y-26885364D01*
X32653962Y-26690740D01*
X32671205Y-26496374D01*
X32719531Y-26307306D01*
X32797676Y-26128495D01*
X32903601Y-25964607D01*
X33034539Y-25819919D01*
X33187073Y-25698209D01*
X33357214Y-25602658D01*
X33540531Y-25535756D01*
X33744199Y-25496974D01*
X46563959Y-24116385D01*
X46869130Y-24100000D01*
X47300000Y-24100000D01*
X47339159Y-24097433D01*
X47494450Y-24076988D01*
X47570095Y-24056719D01*
X47714804Y-23996779D01*
X47782628Y-23957621D01*
X47797994Y-23945830D01*
X53550000Y-23945830D01*
X53550000Y-24054170D01*
X53571136Y-24160429D01*
X53612597Y-24260523D01*
X53672787Y-24350604D01*
X53749396Y-24427213D01*
X53839477Y-24487403D01*
X53869888Y-24500000D01*
X53839477Y-24512597D01*
X53749396Y-24572787D01*
X53672787Y-24649396D01*
X53612597Y-24739477D01*
X53571136Y-24839571D01*
X53550000Y-24945830D01*
X53550000Y-25054170D01*
X53571136Y-25160429D01*
X53612597Y-25260523D01*
X53672787Y-25350604D01*
X53749396Y-25427213D01*
X53839477Y-25487403D01*
X53939571Y-25528864D01*
X54045830Y-25550000D01*
X54154170Y-25550000D01*
X54260429Y-25528864D01*
X54360523Y-25487403D01*
X54379085Y-25475000D01*
X84020915Y-25475000D01*
X84039477Y-25487403D01*
X84139571Y-25528864D01*
X84245830Y-25550000D01*
X84354170Y-25550000D01*
X84460429Y-25528864D01*
X84560523Y-25487403D01*
X84650604Y-25427213D01*
X84727213Y-25350604D01*
X84787403Y-25260523D01*
X84828864Y-25160429D01*
X84850000Y-25054170D01*
X84850000Y-24945830D01*
X84828864Y-24839571D01*
X84787403Y-24739477D01*
X84727213Y-24649396D01*
X84650604Y-24572787D01*
X84560523Y-24512597D01*
X84460429Y-24471136D01*
X84354170Y-24450000D01*
X84245830Y-24450000D01*
X84139571Y-24471136D01*
X84039477Y-24512597D01*
X84020915Y-24525000D01*
X54379085Y-24525000D01*
X54360523Y-24512597D01*
X54330112Y-24500000D01*
X54360523Y-24487403D01*
X54450604Y-24427213D01*
X54527213Y-24350604D01*
X54587403Y-24260523D01*
X54628864Y-24160429D01*
X54650000Y-24054170D01*
X54650000Y-23945830D01*
X54628864Y-23839571D01*
X54587403Y-23739477D01*
X54527213Y-23649396D01*
X54450604Y-23572787D01*
X54360523Y-23512597D01*
X54260429Y-23471136D01*
X54154170Y-23450000D01*
X54045830Y-23450000D01*
X53939571Y-23471136D01*
X53839477Y-23512597D01*
X53749396Y-23572787D01*
X53672787Y-23649396D01*
X53612597Y-23739477D01*
X53571136Y-23839571D01*
X53550000Y-23945830D01*
X47797994Y-23945830D01*
X47906892Y-23862270D01*
X47962270Y-23806892D01*
X48057621Y-23682628D01*
X48096779Y-23614804D01*
X48156719Y-23470095D01*
X48176988Y-23394450D01*
X48197433Y-23239159D01*
X48200000Y-23200000D01*
X48200000Y-19900000D01*
X48197433Y-19860841D01*
X48176988Y-19705550D01*
X48156719Y-19629905D01*
X48096779Y-19485196D01*
X48057621Y-19417372D01*
X47962270Y-19293108D01*
X47906892Y-19237730D01*
X47782628Y-19142379D01*
X47714804Y-19103221D01*
X47570095Y-19043281D01*
X47494450Y-19023012D01*
X47339159Y-19002567D01*
X47300000Y-19000000D01*
X46905922Y-19000000D01*
X46885378Y-19000704D01*
X46475466Y-19028841D01*
X46455019Y-19030951D01*
X35073754Y-20600780D01*
X34924633Y-20606436D01*
X34792085Y-20584992D01*
X34666361Y-20537854D01*
X34552386Y-20466869D01*
X34454633Y-20374824D01*
X34376927Y-20265321D01*
X34322319Y-20142657D01*
X34292947Y-20011639D01*
X34289963Y-19877401D01*
X34313485Y-19745208D01*
X34362590Y-19620234D01*
X34435351Y-19507392D01*
X34528920Y-19411093D01*
X34639630Y-19335113D01*
X34776891Y-19276569D01*
X48644083Y-14926078D01*
X48916159Y-14855638D01*
X49186450Y-14814235D01*
X49467148Y-14800000D01*
X49600000Y-14800000D01*
X49639159Y-14797433D01*
X49794450Y-14776988D01*
X49870095Y-14756719D01*
X50014804Y-14696779D01*
X50082628Y-14657621D01*
X50206892Y-14562270D01*
X50262270Y-14506892D01*
X50357621Y-14382628D01*
X50396779Y-14314804D01*
X50456719Y-14170095D01*
X50463220Y-14145830D01*
X50950000Y-14145830D01*
X50950000Y-14254170D01*
X50971136Y-14360429D01*
X51012597Y-14460523D01*
X51072787Y-14550604D01*
X51149396Y-14627213D01*
X51239477Y-14687403D01*
X51339571Y-14728864D01*
X51445830Y-14750000D01*
X51484314Y-14750000D01*
X51592537Y-14858223D01*
X51595740Y-14861936D01*
X51606385Y-14872071D01*
X51616835Y-14882521D01*
X51620645Y-14885648D01*
X51774513Y-15032144D01*
X51781280Y-15039251D01*
X51788707Y-15045657D01*
X51795837Y-15052446D01*
X51803598Y-15058503D01*
X51968184Y-15200476D01*
X51975297Y-15207248D01*
X51983038Y-15213289D01*
X51990485Y-15219713D01*
X51998525Y-15225375D01*
X52169886Y-15359106D01*
X52177322Y-15365521D01*
X52185350Y-15371175D01*
X52193105Y-15377227D01*
X52201415Y-15382489D01*
X52379123Y-15507646D01*
X52386872Y-15513693D01*
X52395176Y-15518951D01*
X52403209Y-15524609D01*
X52411761Y-15529454D01*
X52595412Y-15645750D01*
X52603437Y-15651402D01*
X52611978Y-15656240D01*
X52620290Y-15661504D01*
X52629075Y-15665926D01*
X52818204Y-15773067D01*
X52826501Y-15778321D01*
X52835270Y-15782735D01*
X52843828Y-15787583D01*
X52852821Y-15791569D01*
X53046976Y-15889299D01*
X53055524Y-15894141D01*
X53064504Y-15898122D01*
X53073286Y-15902542D01*
X53082459Y-15906080D01*
X53281171Y-15994163D01*
X53289952Y-15998583D01*
X53299124Y-16002121D01*
X53308105Y-16006102D01*
X53317435Y-16009184D01*
X53520233Y-16087412D01*
X53529223Y-16091397D01*
X53538561Y-16094482D01*
X53547723Y-16098016D01*
X53557189Y-16100636D01*
X53763580Y-16168818D01*
X53772760Y-16172359D01*
X53782247Y-16174984D01*
X53791563Y-16178062D01*
X53801138Y-16180212D01*
X54010653Y-16238193D01*
X54019978Y-16241274D01*
X54029562Y-16243426D01*
X54039036Y-16246048D01*
X54048723Y-16247729D01*
X54260812Y-16295355D01*
X54270279Y-16297975D01*
X54279958Y-16299654D01*
X54289548Y-16301808D01*
X54299305Y-16303011D01*
X54513489Y-16340176D01*
X54523059Y-16342325D01*
X54532794Y-16343526D01*
X54542495Y-16345209D01*
X54552315Y-16345933D01*
X54768030Y-16372539D01*
X54777712Y-16374219D01*
X54787511Y-16374942D01*
X54797266Y-16376145D01*
X54807091Y-16376386D01*
X55013818Y-16391635D01*
X55049396Y-16427213D01*
X55139477Y-16487403D01*
X55239571Y-16528864D01*
X55345830Y-16550000D01*
X55454170Y-16550000D01*
X55560429Y-16528864D01*
X55660523Y-16487403D01*
X55750604Y-16427213D01*
X55827213Y-16350604D01*
X55887403Y-16260523D01*
X55928864Y-16160429D01*
X55950000Y-16054170D01*
X55950000Y-15945830D01*
X55928864Y-15839571D01*
X55887403Y-15739477D01*
X55827213Y-15649396D01*
X55750604Y-15572787D01*
X55660523Y-15512597D01*
X55560429Y-15471136D01*
X55454170Y-15450000D01*
X55345830Y-15450000D01*
X55239571Y-15471136D01*
X55139477Y-15512597D01*
X55049396Y-15572787D01*
X55031421Y-15590762D01*
X54865941Y-15578555D01*
X54650241Y-15551951D01*
X54436073Y-15514790D01*
X54224019Y-15467172D01*
X54014527Y-15409197D01*
X53808144Y-15341017D01*
X53605367Y-15262798D01*
X53406661Y-15174718D01*
X53212512Y-15076992D01*
X53023390Y-14969855D01*
X52839764Y-14853576D01*
X52686777Y-14745830D01*
X56100000Y-14745830D01*
X56100000Y-14854170D01*
X56121136Y-14960429D01*
X56162597Y-15060523D01*
X56222787Y-15150604D01*
X56299396Y-15227213D01*
X56389477Y-15287403D01*
X56489571Y-15328864D01*
X56595830Y-15350000D01*
X56704170Y-15350000D01*
X56810429Y-15328864D01*
X56910523Y-15287403D01*
X57000604Y-15227213D01*
X57077213Y-15150604D01*
X57137403Y-15060523D01*
X57178864Y-14960429D01*
X57200000Y-14854170D01*
X57200000Y-14745830D01*
X57178864Y-14639571D01*
X57137403Y-14539477D01*
X57077213Y-14449396D01*
X57000604Y-14372787D01*
X56910523Y-14312597D01*
X56810429Y-14271136D01*
X56704170Y-14250000D01*
X56595830Y-14250000D01*
X56489571Y-14271136D01*
X56389477Y-14312597D01*
X56299396Y-14372787D01*
X56222787Y-14449396D01*
X56162597Y-14539477D01*
X56121136Y-14639571D01*
X56100000Y-14745830D01*
X52686777Y-14745830D01*
X52662067Y-14728428D01*
X52490711Y-14594701D01*
X52326135Y-14452737D01*
X52165195Y-14299509D01*
X52050000Y-14184314D01*
X52050000Y-14145830D01*
X52028864Y-14039571D01*
X51987403Y-13939477D01*
X51927213Y-13849396D01*
X51850604Y-13772787D01*
X51760523Y-13712597D01*
X51660429Y-13671136D01*
X51554170Y-13650000D01*
X51445830Y-13650000D01*
X51339571Y-13671136D01*
X51239477Y-13712597D01*
X51149396Y-13772787D01*
X51072787Y-13849396D01*
X51012597Y-13939477D01*
X50971136Y-14039571D01*
X50950000Y-14145830D01*
X50463220Y-14145830D01*
X50476988Y-14094450D01*
X50497433Y-13939159D01*
X50500000Y-13900000D01*
X50500000Y-10700000D01*
X50497433Y-10660841D01*
X50476988Y-10505550D01*
X50456719Y-10429905D01*
X50396779Y-10285196D01*
X50357621Y-10217372D01*
X50262270Y-10093108D01*
X50206892Y-10037730D01*
X50082628Y-9942379D01*
X50014804Y-9903221D01*
X49870095Y-9843281D01*
X49794450Y-9823012D01*
X49639159Y-9802567D01*
X49600000Y-9800000D01*
X49335378Y-9800000D01*
X49318687Y-9800465D01*
X48985385Y-9819038D01*
X48952210Y-9822746D01*
X48623035Y-9878233D01*
X48606653Y-9881466D01*
X14171275Y-17678155D01*
X14154952Y-17682336D01*
X13831106Y-17775051D01*
X13799294Y-17786126D01*
X13487883Y-17914562D01*
X13457512Y-17929133D01*
X13162463Y-18091671D01*
X13133917Y-18109556D01*
X12858950Y-18304147D01*
X12832589Y-18325119D01*
X12581171Y-18549309D01*
X12557328Y-18573104D01*
X12332628Y-18824067D01*
X12311602Y-18850386D01*
X12116454Y-19124958D01*
X12098512Y-19153467D01*
X12079023Y-19188675D01*
X12076479Y-19175882D01*
X12019574Y-18988289D01*
X12012072Y-18970177D01*
X11919662Y-18797290D01*
X11908771Y-18780991D01*
X11784408Y-18629454D01*
X11770546Y-18615592D01*
X11619009Y-18491229D01*
X11602710Y-18480338D01*
X11429823Y-18387928D01*
X11411711Y-18380426D01*
X11224118Y-18323521D01*
X11204892Y-18319697D01*
X11009802Y-18300482D01*
X11000000Y-18300000D01*
X1504908Y-18300000D01*
X1324515Y-18282232D01*
X1155771Y-18231045D01*
X1000255Y-18147920D01*
X863946Y-18036054D01*
X752080Y-17899745D01*
X668955Y-17744229D01*
X617768Y-17575485D01*
X600000Y-17395092D01*
X600000Y-1504908D01*
X617768Y-1324515D01*
X668955Y-1155771D01*
X752080Y-1000255D01*
X863946Y-863946D01*
X1000255Y-752080D01*
X1155771Y-668955D01*
X1324515Y-617768D01*
X1504908Y-600000D01*
X98495092Y-600000D01*
X98675485Y-617768D01*
%TA.AperFunction,Conductor*%
D15*
G36*
X98675485Y-617768D02*
G01*
X98844229Y-668955D01*
X98999745Y-752080D01*
X99136054Y-863946D01*
X99247920Y-1000255D01*
X99331045Y-1155771D01*
X99382232Y-1324515D01*
X99400000Y-1504908D01*
X99400000Y-22729397D01*
X99385268Y-22825938D01*
X99345787Y-22906790D01*
X99283984Y-22972191D01*
X99205494Y-23016182D01*
X99117453Y-23034762D01*
X99027873Y-23026240D01*
X98944918Y-22991392D01*
X98870264Y-22928442D01*
X98474066Y-22475645D01*
X98466640Y-22468018D01*
X98310437Y-22323815D01*
X98293372Y-22311137D01*
X98110215Y-22203212D01*
X98090856Y-22194427D01*
X97889025Y-22127657D01*
X97868246Y-22123164D01*
X97656861Y-22100567D01*
X97646232Y-22100000D01*
X93015257Y-22100000D01*
X92836347Y-22082527D01*
X92668874Y-22032172D01*
X92514310Y-21950366D01*
X92374702Y-21837122D01*
X89641794Y-19139706D01*
X89634709Y-19133350D01*
X89487301Y-19013255D01*
X89471486Y-19002701D01*
X89304011Y-18912677D01*
X89286484Y-18905308D01*
X89104998Y-18848610D01*
X89086392Y-18844691D01*
X88897454Y-18823369D01*
X88878443Y-18823042D01*
X88688885Y-18837867D01*
X88670156Y-18841145D01*
X88486831Y-18891580D01*
X88469061Y-18898344D01*
X88298595Y-18982567D01*
X88282426Y-18992572D01*
X88130983Y-19107538D01*
X88117001Y-19120422D01*
X87990056Y-19261973D01*
X87984046Y-19269353D01*
X87391618Y-20071997D01*
X60794036Y-10400151D01*
X60788424Y-10343173D01*
X60742679Y-10192372D01*
X60668393Y-10053394D01*
X60568422Y-9931578D01*
X60446606Y-9831607D01*
X60307628Y-9757321D01*
X60156827Y-9711576D01*
X60039293Y-9700000D01*
X56529460Y-9700000D01*
X56519662Y-9699277D01*
X56490196Y-9700000D01*
X56460707Y-9700000D01*
X56450923Y-9700964D01*
X56440752Y-9701213D01*
X56421099Y-9700731D01*
X56401509Y-9702176D01*
X56381870Y-9702658D01*
X56362360Y-9705064D01*
X56342406Y-9706536D01*
X56322759Y-9707018D01*
X56303246Y-9709425D01*
X56283639Y-9710871D01*
X56264274Y-9714231D01*
X56244424Y-9716680D01*
X56224828Y-9718125D01*
X56205465Y-9721485D01*
X56185962Y-9723890D01*
X56166790Y-9728195D01*
X56147070Y-9731616D01*
X56127552Y-9734024D01*
X56108382Y-9738329D01*
X56089023Y-9741688D01*
X56070067Y-9746934D01*
X56050553Y-9751316D01*
X56031195Y-9754675D01*
X56012247Y-9759919D01*
X55993067Y-9764226D01*
X55974412Y-9770389D01*
X55955142Y-9775722D01*
X55935961Y-9780029D01*
X55917292Y-9786196D01*
X55898355Y-9791437D01*
X55880021Y-9798509D01*
X55861022Y-9804785D01*
X55842082Y-9810027D01*
X55823746Y-9817100D01*
X55805084Y-9823265D01*
X55787120Y-9831228D01*
X55768458Y-9838427D01*
X55749797Y-9844591D01*
X55731826Y-9852557D01*
X55713484Y-9859632D01*
X55695928Y-9868469D01*
X55677645Y-9876573D01*
X55659294Y-9883652D01*
X55641740Y-9892488D01*
X55623787Y-9900446D01*
X55606685Y-9910134D01*
X55588801Y-9919136D01*
X55570846Y-9927095D01*
X55553749Y-9936780D01*
X55536178Y-9945625D01*
X55519569Y-9956143D01*
X55502192Y-9965987D01*
X55484627Y-9974828D01*
X55468008Y-9985352D01*
X55450918Y-9995033D01*
X55434862Y-10006341D01*
X55417952Y-10017049D01*
X55400848Y-10026738D01*
X55384779Y-10038055D01*
X55368177Y-10048568D01*
X55352682Y-10060661D01*
X55336319Y-10072184D01*
X55319712Y-10082701D01*
X55304223Y-10094789D01*
X55288157Y-10106104D01*
X55273268Y-10118947D01*
X55257500Y-10131253D01*
X55241434Y-10142568D01*
X55226548Y-10155409D01*
X55211051Y-10167503D01*
X55196820Y-10181052D01*
X55181668Y-10194122D01*
X55166172Y-10206216D01*
X55151947Y-10219760D01*
X55137065Y-10232597D01*
X55123504Y-10246841D01*
X55116145Y-10253847D01*
X55108544Y-10260085D01*
X55087689Y-10280940D01*
X55066348Y-10301259D01*
X55059931Y-10308698D01*
X54962102Y-10406528D01*
X54931578Y-10431578D01*
X54906529Y-10462101D01*
X54831606Y-10553396D01*
X54806635Y-10600114D01*
X54757321Y-10692373D01*
X54711576Y-10843174D01*
X54700000Y-10960707D01*
X54696130Y-11000002D01*
X54700000Y-11039290D01*
X54700000Y-12639293D01*
X54711577Y-12756827D01*
X54757322Y-12907628D01*
X54831608Y-13046606D01*
X54931579Y-13168422D01*
X55053395Y-13268393D01*
X55192373Y-13342679D01*
X55343174Y-13388424D01*
X55500000Y-13403870D01*
X55656827Y-13388424D01*
X55807628Y-13342679D01*
X55946606Y-13268393D01*
X56068422Y-13168422D01*
X56168393Y-13046606D01*
X56242679Y-12907628D01*
X56288424Y-12756827D01*
X56300000Y-12639293D01*
X56300000Y-11352929D01*
X56308204Y-11348282D01*
X56326035Y-11339306D01*
X56344298Y-11331211D01*
X56362933Y-11324022D01*
X56381894Y-11317759D01*
X56401137Y-11312433D01*
X56420618Y-11308059D01*
X56440302Y-11304643D01*
X56460117Y-11302199D01*
X56480030Y-11300730D01*
X56509791Y-11300000D01*
X60039293Y-11300000D01*
X60156827Y-11288424D01*
X60307628Y-11242679D01*
X60435615Y-11174268D01*
X86952293Y-20816697D01*
X86494437Y-21863223D01*
X58745064Y-19450236D01*
X58742679Y-19442372D01*
X58668393Y-19303394D01*
X58568422Y-19181578D01*
X58446606Y-19081607D01*
X58307628Y-19007321D01*
X58156827Y-18961576D01*
X58039293Y-18950000D01*
X54179460Y-18950000D01*
X54169662Y-18949277D01*
X54140196Y-18950000D01*
X54110707Y-18950000D01*
X54100923Y-18950964D01*
X54090752Y-18951213D01*
X54071099Y-18950731D01*
X54051509Y-18952176D01*
X54031870Y-18952658D01*
X54012360Y-18955064D01*
X53992406Y-18956536D01*
X53972759Y-18957018D01*
X53953246Y-18959425D01*
X53933639Y-18960871D01*
X53914274Y-18964231D01*
X53894424Y-18966680D01*
X53874828Y-18968125D01*
X53855465Y-18971485D01*
X53835962Y-18973890D01*
X53816790Y-18978195D01*
X53797070Y-18981616D01*
X53777552Y-18984024D01*
X53758382Y-18988329D01*
X53739023Y-18991688D01*
X53720067Y-18996934D01*
X53700553Y-19001316D01*
X53681195Y-19004675D01*
X53662247Y-19009919D01*
X53643067Y-19014226D01*
X53624412Y-19020389D01*
X53605142Y-19025722D01*
X53585961Y-19030029D01*
X53567292Y-19036196D01*
X53548355Y-19041437D01*
X53530021Y-19048509D01*
X53511022Y-19054785D01*
X53492082Y-19060027D01*
X53473746Y-19067100D01*
X53455084Y-19073265D01*
X53437120Y-19081228D01*
X53418458Y-19088427D01*
X53399797Y-19094591D01*
X53381826Y-19102557D01*
X53363484Y-19109632D01*
X53345928Y-19118469D01*
X53327645Y-19126573D01*
X53309294Y-19133652D01*
X53291740Y-19142488D01*
X53273787Y-19150446D01*
X53256685Y-19160134D01*
X53238801Y-19169136D01*
X53220846Y-19177095D01*
X53203749Y-19186780D01*
X53186178Y-19195625D01*
X53169569Y-19206143D01*
X53152192Y-19215987D01*
X53134627Y-19224828D01*
X53118008Y-19235352D01*
X53100918Y-19245033D01*
X53084862Y-19256341D01*
X53067952Y-19267049D01*
X53050848Y-19276738D01*
X53034779Y-19288055D01*
X53018177Y-19298568D01*
X53002682Y-19310661D01*
X52986319Y-19322184D01*
X52969712Y-19332701D01*
X52954223Y-19344789D01*
X52938157Y-19356104D01*
X52923268Y-19368947D01*
X52907500Y-19381253D01*
X52891434Y-19392568D01*
X52876548Y-19405409D01*
X52861051Y-19417503D01*
X52846820Y-19431052D01*
X52831668Y-19444122D01*
X52816172Y-19456216D01*
X52801947Y-19469760D01*
X52787065Y-19482597D01*
X52773504Y-19496841D01*
X52766150Y-19503842D01*
X52758542Y-19510086D01*
X52737672Y-19530957D01*
X52716348Y-19551259D01*
X52709935Y-19558694D01*
X52662099Y-19606530D01*
X52631578Y-19631578D01*
X52606528Y-19662102D01*
X52531605Y-19753397D01*
X52503535Y-19805913D01*
X52457321Y-19892373D01*
X52411576Y-20043174D01*
X52400000Y-20160707D01*
X52396130Y-20200004D01*
X52400000Y-20239292D01*
X52400000Y-21739293D01*
X52411576Y-21856827D01*
X52457322Y-22007628D01*
X52531608Y-22146606D01*
X52631579Y-22268422D01*
X52753395Y-22368393D01*
X52892373Y-22442679D01*
X53043174Y-22488424D01*
X53200000Y-22503870D01*
X53356827Y-22488424D01*
X53507628Y-22442679D01*
X53646606Y-22368393D01*
X53768422Y-22268422D01*
X53868393Y-22146606D01*
X53942679Y-22007628D01*
X53988424Y-21856827D01*
X54000000Y-21739293D01*
X54000000Y-20579011D01*
X54012933Y-20574022D01*
X54031894Y-20567759D01*
X54051137Y-20562433D01*
X54070618Y-20558059D01*
X54090302Y-20554643D01*
X54110117Y-20552199D01*
X54130030Y-20550730D01*
X54159791Y-20550000D01*
X58039293Y-20550000D01*
X58156827Y-20538424D01*
X58307628Y-20492679D01*
X58446606Y-20418393D01*
X58568422Y-20318422D01*
X58630107Y-20243258D01*
X86242026Y-22644294D01*
X85723692Y-24475741D01*
X85721751Y-24483887D01*
X85689813Y-24648150D01*
X85688005Y-24664786D01*
X85683905Y-24832075D01*
X85684896Y-24848779D01*
X85708749Y-25014409D01*
X85710289Y-25022641D01*
X86259869Y-27404154D01*
X58668403Y-29803412D01*
X58668393Y-29803394D01*
X58568422Y-29681578D01*
X58446606Y-29581607D01*
X58307628Y-29507321D01*
X58156827Y-29461576D01*
X58039293Y-29450000D01*
X54279460Y-29450000D01*
X54269662Y-29449277D01*
X54240196Y-29450000D01*
X54210707Y-29450000D01*
X54200923Y-29450964D01*
X54190752Y-29451213D01*
X54171099Y-29450731D01*
X54151509Y-29452176D01*
X54131870Y-29452658D01*
X54112360Y-29455064D01*
X54092406Y-29456536D01*
X54072759Y-29457018D01*
X54053246Y-29459425D01*
X54033639Y-29460871D01*
X54014274Y-29464231D01*
X53994424Y-29466680D01*
X53974828Y-29468125D01*
X53955465Y-29471485D01*
X53935962Y-29473890D01*
X53916790Y-29478195D01*
X53897070Y-29481616D01*
X53877552Y-29484024D01*
X53858382Y-29488329D01*
X53839023Y-29491688D01*
X53820067Y-29496934D01*
X53800553Y-29501316D01*
X53781195Y-29504675D01*
X53762247Y-29509919D01*
X53743067Y-29514226D01*
X53724412Y-29520389D01*
X53705142Y-29525722D01*
X53685961Y-29530029D01*
X53667292Y-29536196D01*
X53648355Y-29541437D01*
X53630021Y-29548509D01*
X53611022Y-29554785D01*
X53592082Y-29560027D01*
X53573746Y-29567100D01*
X53555084Y-29573265D01*
X53537120Y-29581228D01*
X53518458Y-29588427D01*
X53499797Y-29594591D01*
X53481826Y-29602557D01*
X53463484Y-29609632D01*
X53445928Y-29618469D01*
X53427645Y-29626573D01*
X53409294Y-29633652D01*
X53391740Y-29642488D01*
X53373787Y-29650446D01*
X53356685Y-29660134D01*
X53338801Y-29669136D01*
X53320846Y-29677095D01*
X53303749Y-29686780D01*
X53286178Y-29695625D01*
X53269569Y-29706143D01*
X53252192Y-29715987D01*
X53234627Y-29724828D01*
X53218008Y-29735352D01*
X53200918Y-29745033D01*
X53184862Y-29756341D01*
X53167952Y-29767049D01*
X53150848Y-29776738D01*
X53134779Y-29788055D01*
X53118177Y-29798568D01*
X53102682Y-29810661D01*
X53086319Y-29822184D01*
X53069712Y-29832701D01*
X53054223Y-29844789D01*
X53038157Y-29856104D01*
X53023268Y-29868947D01*
X53007500Y-29881253D01*
X52991434Y-29892568D01*
X52976548Y-29905409D01*
X52961051Y-29917503D01*
X52946820Y-29931052D01*
X52931668Y-29944122D01*
X52916172Y-29956216D01*
X52901947Y-29969760D01*
X52887065Y-29982597D01*
X52873504Y-29996841D01*
X52866145Y-30003847D01*
X52858544Y-30010085D01*
X52837688Y-30030941D01*
X52816348Y-30051259D01*
X52809932Y-30058698D01*
X52662097Y-30206532D01*
X52631579Y-30231578D01*
X52606532Y-30262098D01*
X52606529Y-30262101D01*
X52531606Y-30353396D01*
X52492031Y-30427437D01*
X52457322Y-30492372D01*
X52411577Y-30643173D01*
X52400033Y-30760379D01*
X52396130Y-30800002D01*
X52400000Y-30839290D01*
X52400000Y-32439292D01*
X52411576Y-32556826D01*
X52457321Y-32707627D01*
X52531607Y-32846605D01*
X52631578Y-32968422D01*
X52753394Y-33068393D01*
X52892372Y-33142679D01*
X53043173Y-33188424D01*
X53200000Y-33203870D01*
X53356826Y-33188424D01*
X53507627Y-33142679D01*
X53646605Y-33068393D01*
X53768422Y-32968422D01*
X53868393Y-32846606D01*
X53942679Y-32707628D01*
X53988424Y-32556827D01*
X54000000Y-32439293D01*
X54000000Y-31136261D01*
X54007634Y-31130303D01*
X54023949Y-31118813D01*
X54040826Y-31108126D01*
X54058204Y-31098282D01*
X54076035Y-31089306D01*
X54094298Y-31081211D01*
X54112933Y-31074022D01*
X54131894Y-31067759D01*
X54151137Y-31062433D01*
X54170618Y-31058059D01*
X54190302Y-31054643D01*
X54210117Y-31052199D01*
X54230030Y-31050730D01*
X54259791Y-31050000D01*
X58039293Y-31050000D01*
X58156827Y-31038424D01*
X58307628Y-30992679D01*
X58446606Y-30918393D01*
X58568422Y-30818422D01*
X58668393Y-30696606D01*
X58718942Y-30602036D01*
X86472084Y-28188720D01*
X86952551Y-29309811D01*
X60545169Y-38912495D01*
X60446606Y-38831607D01*
X60307628Y-38757321D01*
X60156827Y-38711576D01*
X60039293Y-38700000D01*
X56529460Y-38700000D01*
X56519662Y-38699277D01*
X56490196Y-38700000D01*
X56460707Y-38700000D01*
X56450923Y-38700964D01*
X56440752Y-38701213D01*
X56421099Y-38700731D01*
X56401509Y-38702176D01*
X56381870Y-38702658D01*
X56362360Y-38705064D01*
X56342406Y-38706536D01*
X56322759Y-38707018D01*
X56303246Y-38709425D01*
X56283639Y-38710871D01*
X56264274Y-38714231D01*
X56244424Y-38716680D01*
X56224828Y-38718125D01*
X56205465Y-38721485D01*
X56185962Y-38723890D01*
X56166790Y-38728195D01*
X56147074Y-38731616D01*
X56127565Y-38734022D01*
X56108392Y-38738327D01*
X56089023Y-38741688D01*
X56070074Y-38746932D01*
X56050557Y-38751314D01*
X56031195Y-38754674D01*
X56012260Y-38759914D01*
X55993080Y-38764221D01*
X55974410Y-38770389D01*
X55955142Y-38775721D01*
X55935961Y-38780028D01*
X55917292Y-38786195D01*
X55898355Y-38791436D01*
X55880021Y-38798508D01*
X55861022Y-38804784D01*
X55842082Y-38810026D01*
X55823746Y-38817099D01*
X55805084Y-38823264D01*
X55787120Y-38831227D01*
X55768445Y-38838431D01*
X55749785Y-38844595D01*
X55731826Y-38852556D01*
X55713484Y-38859631D01*
X55695916Y-38868474D01*
X55677639Y-38876576D01*
X55659305Y-38883648D01*
X55641745Y-38892487D01*
X55623776Y-38900452D01*
X55606684Y-38910134D01*
X55588814Y-38919129D01*
X55570846Y-38927094D01*
X55553750Y-38936779D01*
X55536189Y-38945618D01*
X55519578Y-38956137D01*
X55502183Y-38965991D01*
X55484617Y-38974833D01*
X55468009Y-38985350D01*
X55450918Y-38995032D01*
X55434851Y-39006348D01*
X55417954Y-39017048D01*
X55400848Y-39026738D01*
X55384766Y-39038064D01*
X55368168Y-39048575D01*
X55352683Y-39060659D01*
X55336326Y-39072179D01*
X55319720Y-39082695D01*
X55304222Y-39094789D01*
X55288157Y-39106104D01*
X55273276Y-39118941D01*
X55257501Y-39131251D01*
X55241434Y-39142567D01*
X55226554Y-39155403D01*
X55211059Y-39167495D01*
X55196824Y-39181048D01*
X55181673Y-39194117D01*
X55166164Y-39206221D01*
X55151933Y-39219771D01*
X55137065Y-39232596D01*
X55123507Y-39246836D01*
X55116137Y-39253854D01*
X55108544Y-39260085D01*
X55087695Y-39280934D01*
X55066341Y-39301266D01*
X55059925Y-39308704D01*
X54962097Y-39406533D01*
X54931579Y-39431578D01*
X54906532Y-39462098D01*
X54906529Y-39462101D01*
X54831606Y-39553396D01*
X54757320Y-39692376D01*
X54738576Y-39754170D01*
X54711577Y-39843173D01*
X54700019Y-39960523D01*
X54696130Y-40000002D01*
X54700000Y-40039290D01*
X54700000Y-41639292D01*
X54711576Y-41756826D01*
X54757321Y-41907627D01*
X54831607Y-42046605D01*
X54931578Y-42168422D01*
X55053394Y-42268393D01*
X55192372Y-42342679D01*
X55343173Y-42388424D01*
X55500000Y-42403870D01*
X55656826Y-42388424D01*
X55807627Y-42342679D01*
X55946605Y-42268393D01*
X56068422Y-42168422D01*
X56168393Y-42046606D01*
X56242679Y-41907628D01*
X56288424Y-41756827D01*
X56300000Y-41639293D01*
X56300000Y-40352928D01*
X56308201Y-40348282D01*
X56326047Y-40339300D01*
X56344293Y-40331211D01*
X56362933Y-40324021D01*
X56381894Y-40317758D01*
X56401130Y-40312434D01*
X56420614Y-40308059D01*
X56440302Y-40304643D01*
X56460117Y-40302199D01*
X56480030Y-40300730D01*
X56509791Y-40300000D01*
X60039293Y-40300000D01*
X60156827Y-40288424D01*
X60307628Y-40242679D01*
X60446606Y-40168393D01*
X60568422Y-40068422D01*
X60668393Y-39946606D01*
X60742679Y-39807628D01*
X60782129Y-39677578D01*
X87368416Y-30009838D01*
X87996145Y-30637567D01*
X88003250Y-30644020D01*
X88151209Y-30765981D01*
X88167106Y-30776702D01*
X88335623Y-30868182D01*
X88353275Y-30875673D01*
X88536155Y-30933307D01*
X88554911Y-30937290D01*
X88745428Y-30958960D01*
X88764600Y-30959291D01*
X88955751Y-30944199D01*
X88974633Y-30940864D01*
X89159390Y-30889567D01*
X89177289Y-30882690D01*
X89348859Y-30797072D01*
X89365116Y-30786904D01*
X89517190Y-30670114D01*
X89524513Y-30663910D01*
X92276644Y-28095255D01*
X92413899Y-27989375D01*
X92564291Y-27913108D01*
X92726275Y-27866248D01*
X92898862Y-27850000D01*
X98495092Y-27850000D01*
X98675485Y-27867768D01*
X98844229Y-27918955D01*
X98999745Y-28002080D01*
X99136054Y-28113946D01*
X99247920Y-28250255D01*
X99331045Y-28405771D01*
X99382232Y-28574515D01*
X99400000Y-28754908D01*
X99400000Y-48495092D01*
X99382232Y-48675485D01*
X99331045Y-48844229D01*
X99247920Y-48999745D01*
X99136054Y-49136054D01*
X98999745Y-49247920D01*
X98844229Y-49331045D01*
X98675485Y-49382232D01*
X98495092Y-49400000D01*
X1504908Y-49400000D01*
X1324515Y-49382232D01*
X1155771Y-49331045D01*
X1000255Y-49247920D01*
X863946Y-49136054D01*
X752080Y-48999745D01*
X668955Y-48844229D01*
X617768Y-48675485D01*
X600000Y-48495092D01*
X600000Y-32904908D01*
X617768Y-32724515D01*
X668955Y-32555771D01*
X752080Y-32400255D01*
X863946Y-32263946D01*
X1000255Y-32152080D01*
X1155771Y-32068955D01*
X1324515Y-32017768D01*
X1504908Y-32000000D01*
X11000000Y-32000000D01*
X11009802Y-31999518D01*
X11204892Y-31980303D01*
X11224118Y-31976479D01*
X11411711Y-31919574D01*
X11429823Y-31912072D01*
X11602710Y-31819662D01*
X11619009Y-31808771D01*
X11770546Y-31684408D01*
X11784408Y-31670546D01*
X11908771Y-31519009D01*
X11919662Y-31502710D01*
X12012072Y-31329823D01*
X12019574Y-31311711D01*
X12060141Y-31177979D01*
X12119985Y-31283323D01*
X12138677Y-31312229D01*
X12341873Y-31590083D01*
X12363753Y-31616656D01*
X12597440Y-31869405D01*
X12622221Y-31893298D01*
X12883323Y-32117613D01*
X12910677Y-32138509D01*
X13195756Y-32331437D01*
X13225324Y-32349063D01*
X13530627Y-32508065D01*
X13562019Y-32522187D01*
X13883526Y-32645169D01*
X13899778Y-32650857D01*
X48465376Y-43644767D01*
X48480162Y-43649055D01*
X48777888Y-43727179D01*
X48808022Y-43733454D01*
X49112187Y-43780660D01*
X49142805Y-43783814D01*
X49450206Y-43799605D01*
X49465597Y-43800000D01*
X49600000Y-43800000D01*
X49639159Y-43797433D01*
X49794450Y-43776988D01*
X49870095Y-43756719D01*
X50014804Y-43696779D01*
X50082628Y-43657621D01*
X50206892Y-43562270D01*
X50262270Y-43506892D01*
X50357621Y-43382628D01*
X50396779Y-43314804D01*
X50456719Y-43170095D01*
X50463220Y-43145830D01*
X50950000Y-43145830D01*
X50950000Y-43254170D01*
X50971136Y-43360429D01*
X51012597Y-43460523D01*
X51072787Y-43550604D01*
X51149396Y-43627213D01*
X51239477Y-43687403D01*
X51339571Y-43728864D01*
X51445830Y-43750000D01*
X51484314Y-43750000D01*
X51592537Y-43858223D01*
X51595740Y-43861936D01*
X51606385Y-43872071D01*
X51616835Y-43882521D01*
X51620645Y-43885648D01*
X51774513Y-44032144D01*
X51781280Y-44039251D01*
X51788707Y-44045657D01*
X51795837Y-44052446D01*
X51803598Y-44058503D01*
X51968184Y-44200476D01*
X51975297Y-44207248D01*
X51983038Y-44213289D01*
X51990485Y-44219713D01*
X51998525Y-44225375D01*
X52169886Y-44359106D01*
X52177322Y-44365521D01*
X52185350Y-44371175D01*
X52193105Y-44377227D01*
X52201415Y-44382489D01*
X52379123Y-44507646D01*
X52386872Y-44513693D01*
X52395176Y-44518951D01*
X52403209Y-44524609D01*
X52411761Y-44529454D01*
X52595412Y-44645750D01*
X52603437Y-44651402D01*
X52611978Y-44656240D01*
X52620290Y-44661504D01*
X52629075Y-44665926D01*
X52818204Y-44773067D01*
X52826501Y-44778321D01*
X52835270Y-44782735D01*
X52843828Y-44787583D01*
X52852821Y-44791569D01*
X53046976Y-44889299D01*
X53055524Y-44894141D01*
X53064504Y-44898122D01*
X53073286Y-44902542D01*
X53082459Y-44906080D01*
X53281171Y-44994163D01*
X53289952Y-44998583D01*
X53299124Y-45002121D01*
X53308105Y-45006102D01*
X53317435Y-45009184D01*
X53520233Y-45087412D01*
X53529223Y-45091397D01*
X53538561Y-45094482D01*
X53547723Y-45098016D01*
X53557189Y-45100636D01*
X53763580Y-45168818D01*
X53772760Y-45172359D01*
X53782247Y-45174984D01*
X53791563Y-45178062D01*
X53801138Y-45180212D01*
X54010653Y-45238193D01*
X54019978Y-45241274D01*
X54029562Y-45243426D01*
X54039036Y-45246048D01*
X54048723Y-45247729D01*
X54260812Y-45295355D01*
X54270279Y-45297975D01*
X54279958Y-45299654D01*
X54289548Y-45301808D01*
X54299305Y-45303011D01*
X54513489Y-45340176D01*
X54523059Y-45342325D01*
X54532794Y-45343526D01*
X54542495Y-45345209D01*
X54552315Y-45345933D01*
X54768030Y-45372539D01*
X54777712Y-45374219D01*
X54787511Y-45374942D01*
X54797266Y-45376145D01*
X54807091Y-45376386D01*
X55013825Y-45391636D01*
X55049402Y-45427213D01*
X55139483Y-45487403D01*
X55239577Y-45528864D01*
X55345836Y-45550000D01*
X55454176Y-45550000D01*
X55560435Y-45528864D01*
X55660529Y-45487403D01*
X55750610Y-45427213D01*
X55827219Y-45350604D01*
X55887409Y-45260523D01*
X55928870Y-45160429D01*
X55950006Y-45054170D01*
X55950006Y-44945830D01*
X55928870Y-44839571D01*
X55887409Y-44739477D01*
X55827219Y-44649396D01*
X55750610Y-44572787D01*
X55660529Y-44512597D01*
X55560435Y-44471136D01*
X55454176Y-44450000D01*
X55345836Y-44450000D01*
X55239577Y-44471136D01*
X55139483Y-44512597D01*
X55049402Y-44572787D01*
X55031427Y-44590762D01*
X54865941Y-44578555D01*
X54650241Y-44551951D01*
X54436073Y-44514790D01*
X54224019Y-44467172D01*
X54014527Y-44409197D01*
X53808144Y-44341017D01*
X53605367Y-44262798D01*
X53406661Y-44174718D01*
X53212512Y-44076992D01*
X53023390Y-43969855D01*
X52839764Y-43853576D01*
X52686777Y-43745830D01*
X55950000Y-43745830D01*
X55950000Y-43854170D01*
X55971136Y-43960429D01*
X56012597Y-44060523D01*
X56072787Y-44150604D01*
X56149396Y-44227213D01*
X56239477Y-44287403D01*
X56339571Y-44328864D01*
X56445830Y-44350000D01*
X56554170Y-44350000D01*
X56660429Y-44328864D01*
X56760523Y-44287403D01*
X56850604Y-44227213D01*
X56927213Y-44150604D01*
X56987403Y-44060523D01*
X57028864Y-43960429D01*
X57050000Y-43854170D01*
X57050000Y-43745830D01*
X57028864Y-43639571D01*
X56987403Y-43539477D01*
X56927213Y-43449396D01*
X56850604Y-43372787D01*
X56760523Y-43312597D01*
X56660429Y-43271136D01*
X56554170Y-43250000D01*
X56445830Y-43250000D01*
X56339571Y-43271136D01*
X56239477Y-43312597D01*
X56149396Y-43372787D01*
X56072787Y-43449396D01*
X56012597Y-43539477D01*
X55971136Y-43639571D01*
X55950000Y-43745830D01*
X52686777Y-43745830D01*
X52662067Y-43728428D01*
X52490711Y-43594701D01*
X52326135Y-43452737D01*
X52165195Y-43299509D01*
X52050000Y-43184314D01*
X52050000Y-43145830D01*
X52028864Y-43039571D01*
X51987403Y-42939477D01*
X51927213Y-42849396D01*
X51850604Y-42772787D01*
X51760523Y-42712597D01*
X51660429Y-42671136D01*
X51554170Y-42650000D01*
X51445830Y-42650000D01*
X51339571Y-42671136D01*
X51239477Y-42712597D01*
X51149396Y-42772787D01*
X51072787Y-42849396D01*
X51012597Y-42939477D01*
X50971136Y-43039571D01*
X50950000Y-43145830D01*
X50463220Y-43145830D01*
X50476988Y-43094450D01*
X50497433Y-42939159D01*
X50500000Y-42900000D01*
X50500000Y-39700000D01*
X50497433Y-39660841D01*
X50476988Y-39505550D01*
X50456719Y-39429905D01*
X50396779Y-39285196D01*
X50357621Y-39217372D01*
X50262270Y-39093108D01*
X50206892Y-39037730D01*
X50082628Y-38942379D01*
X50014804Y-38903221D01*
X49870095Y-38843281D01*
X49794450Y-38823012D01*
X49639159Y-38802567D01*
X49600000Y-38800000D01*
X49502261Y-38800000D01*
X49200904Y-38783587D01*
X48911180Y-38735869D01*
X48620474Y-38654770D01*
X34797303Y-33974483D01*
X34665036Y-33914504D01*
X34559354Y-33838371D01*
X34470759Y-33742882D01*
X34402743Y-33631802D01*
X34357972Y-33509486D01*
X34338207Y-33380741D01*
X34344224Y-33250626D01*
X34375786Y-33124257D01*
X34431655Y-33006592D01*
X34509635Y-32902259D01*
X34606656Y-32815362D01*
X34718920Y-32749303D01*
X34842005Y-32706687D01*
X34971075Y-32689185D01*
X35116011Y-32698440D01*
X46409448Y-34556235D01*
X46433715Y-34559218D01*
X46920677Y-34599004D01*
X46945106Y-34600000D01*
X47300000Y-34600000D01*
X47339159Y-34597433D01*
X47494450Y-34576988D01*
X47570095Y-34556719D01*
X47714804Y-34496779D01*
X47782628Y-34457621D01*
X47906892Y-34362270D01*
X47962270Y-34306892D01*
X48057621Y-34182628D01*
X48096779Y-34114804D01*
X48156719Y-33970095D01*
X48163220Y-33945830D01*
X48750000Y-33945830D01*
X48750000Y-34054170D01*
X48771136Y-34160429D01*
X48812597Y-34260523D01*
X48872787Y-34350604D01*
X48949396Y-34427213D01*
X49039477Y-34487403D01*
X49139571Y-34528864D01*
X49245830Y-34550000D01*
X49284315Y-34550000D01*
X49292534Y-34558219D01*
X49295742Y-34561938D01*
X49306404Y-34572089D01*
X49316835Y-34582520D01*
X49320640Y-34585643D01*
X49474508Y-34732137D01*
X49481281Y-34739250D01*
X49488717Y-34745664D01*
X49495840Y-34752446D01*
X49503592Y-34758496D01*
X49668185Y-34900475D01*
X49675298Y-34907247D01*
X49683039Y-34913288D01*
X49690486Y-34919712D01*
X49698526Y-34925374D01*
X49869878Y-35059099D01*
X49877322Y-35065520D01*
X49885361Y-35071182D01*
X49893106Y-35077226D01*
X49901405Y-35082482D01*
X50079142Y-35207658D01*
X50086873Y-35213692D01*
X50095157Y-35218938D01*
X50103208Y-35224608D01*
X50111776Y-35229462D01*
X50295417Y-35345752D01*
X50303438Y-35351401D01*
X50311974Y-35356236D01*
X50320292Y-35361504D01*
X50329084Y-35365930D01*
X50518199Y-35473063D01*
X50526501Y-35478320D01*
X50535280Y-35482739D01*
X50543829Y-35487582D01*
X50552812Y-35491564D01*
X50746992Y-35589306D01*
X50755525Y-35594140D01*
X50764490Y-35598114D01*
X50773285Y-35602541D01*
X50782471Y-35606085D01*
X50981195Y-35694173D01*
X50989952Y-35698581D01*
X50999099Y-35702109D01*
X51008106Y-35706102D01*
X51017459Y-35709192D01*
X51220237Y-35787413D01*
X51229223Y-35791396D01*
X51238555Y-35794479D01*
X51247722Y-35798015D01*
X51257194Y-35800636D01*
X51463589Y-35868820D01*
X51472762Y-35872358D01*
X51482236Y-35874980D01*
X51491563Y-35878061D01*
X51501150Y-35880214D01*
X51710644Y-35938188D01*
X51719978Y-35941272D01*
X51729572Y-35943426D01*
X51739038Y-35946046D01*
X51748717Y-35947725D01*
X51960818Y-35995354D01*
X51970277Y-35997972D01*
X51979945Y-35999650D01*
X51989548Y-36001806D01*
X51999316Y-36003011D01*
X52213474Y-36040172D01*
X52223059Y-36042324D01*
X52232807Y-36043526D01*
X52242493Y-36045207D01*
X52252301Y-36045931D01*
X52468030Y-36072538D01*
X52477712Y-36074218D01*
X52487511Y-36074941D01*
X52497266Y-36076144D01*
X52507091Y-36076385D01*
X52723861Y-36092375D01*
X52733620Y-36093579D01*
X52743453Y-36093820D01*
X52753248Y-36094543D01*
X52763065Y-36094302D01*
X52817830Y-36095647D01*
X52849396Y-36127213D01*
X52939477Y-36187403D01*
X53039571Y-36228864D01*
X53145830Y-36250000D01*
X53254170Y-36250000D01*
X53360429Y-36228864D01*
X53460523Y-36187403D01*
X53550604Y-36127213D01*
X53627213Y-36050604D01*
X53687403Y-35960523D01*
X53728864Y-35860429D01*
X53750000Y-35754170D01*
X53750000Y-35645830D01*
X53728864Y-35539571D01*
X53687403Y-35439477D01*
X53627213Y-35349396D01*
X53550604Y-35272787D01*
X53460523Y-35212597D01*
X53360429Y-35171136D01*
X53254170Y-35150000D01*
X53145830Y-35150000D01*
X53039571Y-35171136D01*
X52939477Y-35212597D01*
X52849396Y-35272787D01*
X52826562Y-35295621D01*
X52782711Y-35294544D01*
X52565941Y-35278554D01*
X52350230Y-35251949D01*
X52136091Y-35214792D01*
X51924012Y-35167168D01*
X51714530Y-35109197D01*
X51508146Y-35041017D01*
X51305356Y-34962792D01*
X51106662Y-34874717D01*
X50912506Y-34776987D01*
X50723383Y-34669850D01*
X50539762Y-34553573D01*
X50457774Y-34495830D01*
X53900000Y-34495830D01*
X53900000Y-34604170D01*
X53921136Y-34710429D01*
X53962597Y-34810523D01*
X54022787Y-34900604D01*
X54099396Y-34977213D01*
X54189477Y-35037403D01*
X54289571Y-35078864D01*
X54395830Y-35100000D01*
X54504170Y-35100000D01*
X54610429Y-35078864D01*
X54710523Y-35037403D01*
X54800604Y-34977213D01*
X54877213Y-34900604D01*
X54937403Y-34810523D01*
X54978864Y-34710429D01*
X55000000Y-34604170D01*
X55000000Y-34495830D01*
X54978864Y-34389571D01*
X54937403Y-34289477D01*
X54877213Y-34199396D01*
X54800604Y-34122787D01*
X54710523Y-34062597D01*
X54610429Y-34021136D01*
X54504170Y-34000000D01*
X54395830Y-34000000D01*
X54289571Y-34021136D01*
X54189477Y-34062597D01*
X54099396Y-34122787D01*
X54022787Y-34199396D01*
X53962597Y-34289477D01*
X53921136Y-34389571D01*
X53900000Y-34495830D01*
X50457774Y-34495830D01*
X50362060Y-34428420D01*
X50190712Y-34294700D01*
X50026135Y-34152735D01*
X49865170Y-33999485D01*
X49850000Y-33984315D01*
X49850000Y-33945830D01*
X49828864Y-33839571D01*
X49787403Y-33739477D01*
X49727213Y-33649396D01*
X49650604Y-33572787D01*
X49560523Y-33512597D01*
X49460429Y-33471136D01*
X49354170Y-33450000D01*
X49245830Y-33450000D01*
X49139571Y-33471136D01*
X49039477Y-33512597D01*
X48949396Y-33572787D01*
X48872787Y-33649396D01*
X48812597Y-33739477D01*
X48771136Y-33839571D01*
X48750000Y-33945830D01*
X48163220Y-33945830D01*
X48176988Y-33894450D01*
X48197433Y-33739159D01*
X48200000Y-33700000D01*
X48200000Y-30400000D01*
X48197433Y-30360841D01*
X48176988Y-30205550D01*
X48156719Y-30129905D01*
X48096779Y-29985196D01*
X48057621Y-29917372D01*
X47962270Y-29793108D01*
X47906892Y-29737730D01*
X47782628Y-29642379D01*
X47714804Y-29603221D01*
X47570095Y-29543281D01*
X47494450Y-29523012D01*
X47339159Y-29502567D01*
X47300000Y-29500000D01*
X46893112Y-29500000D01*
X46544976Y-29478657D01*
X33725946Y-27900930D01*
X33522898Y-27859063D01*
X33340614Y-27789383D01*
X33171943Y-27691261D01*
X33021275Y-27567249D01*
X32892550Y-27420592D01*
X32789121Y-27255109D01*
X32713702Y-27075138D01*
X32668253Y-26885364D01*
X32653962Y-26690740D01*
X32671205Y-26496374D01*
X32719531Y-26307306D01*
X32797676Y-26128495D01*
X32903601Y-25964607D01*
X33034539Y-25819919D01*
X33187073Y-25698209D01*
X33357214Y-25602658D01*
X33540531Y-25535756D01*
X33744199Y-25496974D01*
X46563959Y-24116385D01*
X46869130Y-24100000D01*
X47300000Y-24100000D01*
X47339159Y-24097433D01*
X47494450Y-24076988D01*
X47570095Y-24056719D01*
X47714804Y-23996779D01*
X47782628Y-23957621D01*
X47797994Y-23945830D01*
X53550000Y-23945830D01*
X53550000Y-24054170D01*
X53571136Y-24160429D01*
X53612597Y-24260523D01*
X53672787Y-24350604D01*
X53749396Y-24427213D01*
X53839477Y-24487403D01*
X53869888Y-24500000D01*
X53839477Y-24512597D01*
X53749396Y-24572787D01*
X53672787Y-24649396D01*
X53612597Y-24739477D01*
X53571136Y-24839571D01*
X53550000Y-24945830D01*
X53550000Y-25054170D01*
X53571136Y-25160429D01*
X53612597Y-25260523D01*
X53672787Y-25350604D01*
X53749396Y-25427213D01*
X53839477Y-25487403D01*
X53939571Y-25528864D01*
X54045830Y-25550000D01*
X54154170Y-25550000D01*
X54260429Y-25528864D01*
X54360523Y-25487403D01*
X54379085Y-25475000D01*
X84020915Y-25475000D01*
X84039477Y-25487403D01*
X84139571Y-25528864D01*
X84245830Y-25550000D01*
X84354170Y-25550000D01*
X84460429Y-25528864D01*
X84560523Y-25487403D01*
X84650604Y-25427213D01*
X84727213Y-25350604D01*
X84787403Y-25260523D01*
X84828864Y-25160429D01*
X84850000Y-25054170D01*
X84850000Y-24945830D01*
X84828864Y-24839571D01*
X84787403Y-24739477D01*
X84727213Y-24649396D01*
X84650604Y-24572787D01*
X84560523Y-24512597D01*
X84460429Y-24471136D01*
X84354170Y-24450000D01*
X84245830Y-24450000D01*
X84139571Y-24471136D01*
X84039477Y-24512597D01*
X84020915Y-24525000D01*
X54379085Y-24525000D01*
X54360523Y-24512597D01*
X54330112Y-24500000D01*
X54360523Y-24487403D01*
X54450604Y-24427213D01*
X54527213Y-24350604D01*
X54587403Y-24260523D01*
X54628864Y-24160429D01*
X54650000Y-24054170D01*
X54650000Y-23945830D01*
X54628864Y-23839571D01*
X54587403Y-23739477D01*
X54527213Y-23649396D01*
X54450604Y-23572787D01*
X54360523Y-23512597D01*
X54260429Y-23471136D01*
X54154170Y-23450000D01*
X54045830Y-23450000D01*
X53939571Y-23471136D01*
X53839477Y-23512597D01*
X53749396Y-23572787D01*
X53672787Y-23649396D01*
X53612597Y-23739477D01*
X53571136Y-23839571D01*
X53550000Y-23945830D01*
X47797994Y-23945830D01*
X47906892Y-23862270D01*
X47962270Y-23806892D01*
X48057621Y-23682628D01*
X48096779Y-23614804D01*
X48156719Y-23470095D01*
X48176988Y-23394450D01*
X48197433Y-23239159D01*
X48200000Y-23200000D01*
X48200000Y-19900000D01*
X48197433Y-19860841D01*
X48176988Y-19705550D01*
X48156719Y-19629905D01*
X48096779Y-19485196D01*
X48057621Y-19417372D01*
X47962270Y-19293108D01*
X47906892Y-19237730D01*
X47782628Y-19142379D01*
X47714804Y-19103221D01*
X47570095Y-19043281D01*
X47494450Y-19023012D01*
X47339159Y-19002567D01*
X47300000Y-19000000D01*
X46905922Y-19000000D01*
X46885378Y-19000704D01*
X46475466Y-19028841D01*
X46455019Y-19030951D01*
X35073754Y-20600780D01*
X34924633Y-20606436D01*
X34792085Y-20584992D01*
X34666361Y-20537854D01*
X34552386Y-20466869D01*
X34454633Y-20374824D01*
X34376927Y-20265321D01*
X34322319Y-20142657D01*
X34292947Y-20011639D01*
X34289963Y-19877401D01*
X34313485Y-19745208D01*
X34362590Y-19620234D01*
X34435351Y-19507392D01*
X34528920Y-19411093D01*
X34639630Y-19335113D01*
X34776891Y-19276569D01*
X48644083Y-14926078D01*
X48916159Y-14855638D01*
X49186450Y-14814235D01*
X49467148Y-14800000D01*
X49600000Y-14800000D01*
X49639159Y-14797433D01*
X49794450Y-14776988D01*
X49870095Y-14756719D01*
X50014804Y-14696779D01*
X50082628Y-14657621D01*
X50206892Y-14562270D01*
X50262270Y-14506892D01*
X50357621Y-14382628D01*
X50396779Y-14314804D01*
X50456719Y-14170095D01*
X50463220Y-14145830D01*
X50950000Y-14145830D01*
X50950000Y-14254170D01*
X50971136Y-14360429D01*
X51012597Y-14460523D01*
X51072787Y-14550604D01*
X51149396Y-14627213D01*
X51239477Y-14687403D01*
X51339571Y-14728864D01*
X51445830Y-14750000D01*
X51484314Y-14750000D01*
X51592537Y-14858223D01*
X51595740Y-14861936D01*
X51606385Y-14872071D01*
X51616835Y-14882521D01*
X51620645Y-14885648D01*
X51774513Y-15032144D01*
X51781280Y-15039251D01*
X51788707Y-15045657D01*
X51795837Y-15052446D01*
X51803598Y-15058503D01*
X51968184Y-15200476D01*
X51975297Y-15207248D01*
X51983038Y-15213289D01*
X51990485Y-15219713D01*
X51998525Y-15225375D01*
X52169886Y-15359106D01*
X52177322Y-15365521D01*
X52185350Y-15371175D01*
X52193105Y-15377227D01*
X52201415Y-15382489D01*
X52379123Y-15507646D01*
X52386872Y-15513693D01*
X52395176Y-15518951D01*
X52403209Y-15524609D01*
X52411761Y-15529454D01*
X52595412Y-15645750D01*
X52603437Y-15651402D01*
X52611978Y-15656240D01*
X52620290Y-15661504D01*
X52629075Y-15665926D01*
X52818204Y-15773067D01*
X52826501Y-15778321D01*
X52835270Y-15782735D01*
X52843828Y-15787583D01*
X52852821Y-15791569D01*
X53046976Y-15889299D01*
X53055524Y-15894141D01*
X53064504Y-15898122D01*
X53073286Y-15902542D01*
X53082459Y-15906080D01*
X53281171Y-15994163D01*
X53289952Y-15998583D01*
X53299124Y-16002121D01*
X53308105Y-16006102D01*
X53317435Y-16009184D01*
X53520233Y-16087412D01*
X53529223Y-16091397D01*
X53538561Y-16094482D01*
X53547723Y-16098016D01*
X53557189Y-16100636D01*
X53763580Y-16168818D01*
X53772760Y-16172359D01*
X53782247Y-16174984D01*
X53791563Y-16178062D01*
X53801138Y-16180212D01*
X54010653Y-16238193D01*
X54019978Y-16241274D01*
X54029562Y-16243426D01*
X54039036Y-16246048D01*
X54048723Y-16247729D01*
X54260812Y-16295355D01*
X54270279Y-16297975D01*
X54279958Y-16299654D01*
X54289548Y-16301808D01*
X54299305Y-16303011D01*
X54513489Y-16340176D01*
X54523059Y-16342325D01*
X54532794Y-16343526D01*
X54542495Y-16345209D01*
X54552315Y-16345933D01*
X54768030Y-16372539D01*
X54777712Y-16374219D01*
X54787511Y-16374942D01*
X54797266Y-16376145D01*
X54807091Y-16376386D01*
X55013818Y-16391635D01*
X55049396Y-16427213D01*
X55139477Y-16487403D01*
X55239571Y-16528864D01*
X55345830Y-16550000D01*
X55454170Y-16550000D01*
X55560429Y-16528864D01*
X55660523Y-16487403D01*
X55750604Y-16427213D01*
X55827213Y-16350604D01*
X55887403Y-16260523D01*
X55928864Y-16160429D01*
X55950000Y-16054170D01*
X55950000Y-15945830D01*
X55928864Y-15839571D01*
X55887403Y-15739477D01*
X55827213Y-15649396D01*
X55750604Y-15572787D01*
X55660523Y-15512597D01*
X55560429Y-15471136D01*
X55454170Y-15450000D01*
X55345830Y-15450000D01*
X55239571Y-15471136D01*
X55139477Y-15512597D01*
X55049396Y-15572787D01*
X55031421Y-15590762D01*
X54865941Y-15578555D01*
X54650241Y-15551951D01*
X54436073Y-15514790D01*
X54224019Y-15467172D01*
X54014527Y-15409197D01*
X53808144Y-15341017D01*
X53605367Y-15262798D01*
X53406661Y-15174718D01*
X53212512Y-15076992D01*
X53023390Y-14969855D01*
X52839764Y-14853576D01*
X52686777Y-14745830D01*
X56100000Y-14745830D01*
X56100000Y-14854170D01*
X56121136Y-14960429D01*
X56162597Y-15060523D01*
X56222787Y-15150604D01*
X56299396Y-15227213D01*
X56389477Y-15287403D01*
X56489571Y-15328864D01*
X56595830Y-15350000D01*
X56704170Y-15350000D01*
X56810429Y-15328864D01*
X56910523Y-15287403D01*
X57000604Y-15227213D01*
X57077213Y-15150604D01*
X57137403Y-15060523D01*
X57178864Y-14960429D01*
X57200000Y-14854170D01*
X57200000Y-14745830D01*
X57178864Y-14639571D01*
X57137403Y-14539477D01*
X57077213Y-14449396D01*
X57000604Y-14372787D01*
X56910523Y-14312597D01*
X56810429Y-14271136D01*
X56704170Y-14250000D01*
X56595830Y-14250000D01*
X56489571Y-14271136D01*
X56389477Y-14312597D01*
X56299396Y-14372787D01*
X56222787Y-14449396D01*
X56162597Y-14539477D01*
X56121136Y-14639571D01*
X56100000Y-14745830D01*
X52686777Y-14745830D01*
X52662067Y-14728428D01*
X52490711Y-14594701D01*
X52326135Y-14452737D01*
X52165195Y-14299509D01*
X52050000Y-14184314D01*
X52050000Y-14145830D01*
X52028864Y-14039571D01*
X51987403Y-13939477D01*
X51927213Y-13849396D01*
X51850604Y-13772787D01*
X51760523Y-13712597D01*
X51660429Y-13671136D01*
X51554170Y-13650000D01*
X51445830Y-13650000D01*
X51339571Y-13671136D01*
X51239477Y-13712597D01*
X51149396Y-13772787D01*
X51072787Y-13849396D01*
X51012597Y-13939477D01*
X50971136Y-14039571D01*
X50950000Y-14145830D01*
X50463220Y-14145830D01*
X50476988Y-14094450D01*
X50497433Y-13939159D01*
X50500000Y-13900000D01*
X50500000Y-10700000D01*
X50497433Y-10660841D01*
X50476988Y-10505550D01*
X50456719Y-10429905D01*
X50396779Y-10285196D01*
X50357621Y-10217372D01*
X50262270Y-10093108D01*
X50206892Y-10037730D01*
X50082628Y-9942379D01*
X50014804Y-9903221D01*
X49870095Y-9843281D01*
X49794450Y-9823012D01*
X49639159Y-9802567D01*
X49600000Y-9800000D01*
X49335378Y-9800000D01*
X49318687Y-9800465D01*
X48985385Y-9819038D01*
X48952210Y-9822746D01*
X48623035Y-9878233D01*
X48606653Y-9881466D01*
X14171275Y-17678155D01*
X14154952Y-17682336D01*
X13831106Y-17775051D01*
X13799294Y-17786126D01*
X13487883Y-17914562D01*
X13457512Y-17929133D01*
X13162463Y-18091671D01*
X13133917Y-18109556D01*
X12858950Y-18304147D01*
X12832589Y-18325119D01*
X12581171Y-18549309D01*
X12557328Y-18573104D01*
X12332628Y-18824067D01*
X12311602Y-18850386D01*
X12116454Y-19124958D01*
X12098512Y-19153467D01*
X12079023Y-19188675D01*
X12076479Y-19175882D01*
X12019574Y-18988289D01*
X12012072Y-18970177D01*
X11919662Y-18797290D01*
X11908771Y-18780991D01*
X11784408Y-18629454D01*
X11770546Y-18615592D01*
X11619009Y-18491229D01*
X11602710Y-18480338D01*
X11429823Y-18387928D01*
X11411711Y-18380426D01*
X11224118Y-18323521D01*
X11204892Y-18319697D01*
X11009802Y-18300482D01*
X11000000Y-18300000D01*
X1504908Y-18300000D01*
X1324515Y-18282232D01*
X1155771Y-18231045D01*
X1000255Y-18147920D01*
X863946Y-18036054D01*
X752080Y-17899745D01*
X668955Y-17744229D01*
X617768Y-17575485D01*
X600000Y-17395092D01*
X600000Y-1504908D01*
X617768Y-1324515D01*
X668955Y-1155771D01*
X752080Y-1000255D01*
X863946Y-863946D01*
X1000255Y-752080D01*
X1155771Y-668955D01*
X1324515Y-617768D01*
X1504908Y-600000D01*
X98495092Y-600000D01*
X98675485Y-617768D01*
G37*
%TD.AperFunction*%
%TD*%
D16*
%TO.N,/VIN*%
X49722136Y-10244175D02*
X49835951Y-10291319D01*
X49933686Y-10366314D01*
X50008681Y-10464049D01*
X50055825Y-10577864D01*
X50073000Y-10708321D01*
X50073000Y-13891679D01*
X50055825Y-14022136D01*
X50008681Y-14135951D01*
X49933686Y-14233686D01*
X49835951Y-14308681D01*
X49722136Y-14355825D01*
X49591679Y-14373000D01*
X49459546Y-14373000D01*
X49453114Y-14373163D01*
X49149633Y-14388553D01*
X49136836Y-14389854D01*
X48836469Y-14435864D01*
X48823867Y-14438454D01*
X48529695Y-14514615D01*
X48523510Y-14516384D01*
X34634872Y-18873603D01*
X34623063Y-18877962D01*
X34444654Y-18954057D01*
X34422616Y-18966163D01*
X34262695Y-19075916D01*
X34243474Y-19092126D01*
X34108310Y-19231234D01*
X34092659Y-19250913D01*
X33987550Y-19413923D01*
X33976082Y-19436301D01*
X33905149Y-19616825D01*
X33898316Y-19641022D01*
X33864338Y-19831982D01*
X33862405Y-19857052D01*
X33866715Y-20050964D01*
X33869760Y-20075923D01*
X33912189Y-20265185D01*
X33920091Y-20289055D01*
X33998975Y-20466249D01*
X34011425Y-20488095D01*
X34123673Y-20646274D01*
X34140183Y-20665239D01*
X34281394Y-20798204D01*
X34301316Y-20813544D01*
X34465956Y-20916083D01*
X34488510Y-20927197D01*
X34670124Y-20995290D01*
X34694427Y-21001744D01*
X34885897Y-21032721D01*
X34910993Y-21034260D01*
X35104813Y-21026909D01*
X35117353Y-21025809D01*
X46509050Y-19454541D01*
X46910278Y-19427000D01*
X47291679Y-19427000D01*
X47422136Y-19444175D01*
X47535951Y-19491319D01*
X47633686Y-19566314D01*
X47708681Y-19664049D01*
X47755825Y-19777864D01*
X47773000Y-19908321D01*
X47773000Y-23191679D01*
X47755825Y-23322136D01*
X47708681Y-23435951D01*
X47633686Y-23533686D01*
X47535951Y-23608681D01*
X47422136Y-23655825D01*
X47291679Y-23673000D01*
X46861073Y-23673000D01*
X46854264Y-23673183D01*
X46533044Y-23690430D01*
X46526255Y-23690977D01*
X33686402Y-25073730D01*
X33676244Y-25075242D01*
X33436770Y-25120842D01*
X33416986Y-25126297D01*
X33187982Y-25209872D01*
X33169335Y-25218442D01*
X32956783Y-25337811D01*
X32939760Y-25349273D01*
X32749209Y-25501318D01*
X32734254Y-25515372D01*
X32570680Y-25696122D01*
X32558184Y-25712402D01*
X32425858Y-25917139D01*
X32416147Y-25935218D01*
X32318525Y-26158595D01*
X32311853Y-26178003D01*
X32251484Y-26414187D01*
X32248025Y-26434415D01*
X32226484Y-26677239D01*
X32226328Y-26697761D01*
X32244180Y-26940883D01*
X32247332Y-26961162D01*
X32304109Y-27198236D01*
X32310485Y-27217742D01*
X32404704Y-27442575D01*
X32414140Y-27460801D01*
X32543343Y-27667523D01*
X32555590Y-27683989D01*
X32716401Y-27867202D01*
X32731140Y-27881482D01*
X32919360Y-28036402D01*
X32936208Y-28048121D01*
X33146924Y-28170703D01*
X33165438Y-28179555D01*
X33393146Y-28266598D01*
X33412846Y-28272353D01*
X33651601Y-28321583D01*
X33661734Y-28323249D01*
X46501942Y-29903582D01*
X46509685Y-29904295D01*
X46876150Y-29926762D01*
X46883921Y-29927000D01*
X47291679Y-29927000D01*
X47422136Y-29944175D01*
X47535951Y-29991319D01*
X47633686Y-30066314D01*
X47708681Y-30164049D01*
X47755825Y-30277864D01*
X47773000Y-30408321D01*
X47773000Y-33691679D01*
X47755825Y-33822136D01*
X47708681Y-33935951D01*
X47633686Y-34033686D01*
X47535951Y-34108681D01*
X47422136Y-34155825D01*
X47291679Y-34173000D01*
X46950283Y-34173000D01*
X46473654Y-34134058D01*
X35170615Y-32274684D01*
X35158093Y-32273258D01*
X34968467Y-32261149D01*
X34943309Y-32262043D01*
X34755019Y-32287575D01*
X34730532Y-32293413D01*
X34550977Y-32355581D01*
X34528122Y-32366134D01*
X34364358Y-32462497D01*
X34344034Y-32477352D01*
X34202493Y-32604124D01*
X34185498Y-32622694D01*
X34071742Y-32774893D01*
X34058744Y-32796452D01*
X33977244Y-32968098D01*
X33968753Y-32991796D01*
X33922709Y-33176145D01*
X33919060Y-33201054D01*
X33910283Y-33390864D01*
X33911618Y-33416001D01*
X33940451Y-33603813D01*
X33946718Y-33628195D01*
X34012030Y-33806631D01*
X34022983Y-33829297D01*
X34122207Y-33991344D01*
X34137416Y-34011404D01*
X34266653Y-34150697D01*
X34285519Y-34167363D01*
X34439692Y-34278429D01*
X34461476Y-34291047D01*
X34634527Y-34369521D01*
X34646248Y-34374150D01*
X48491271Y-39061835D01*
X48497873Y-39063872D01*
X48705907Y-39121908D01*
X48732184Y-39148185D01*
X48826688Y-39211331D01*
X48931695Y-39254826D01*
X49043170Y-39277000D01*
X49156830Y-39277000D01*
X49268305Y-39254826D01*
X49353515Y-39219531D01*
X49487191Y-39226812D01*
X49494098Y-39227000D01*
X49591679Y-39227000D01*
X49722136Y-39244175D01*
X49835951Y-39291319D01*
X49933686Y-39366314D01*
X50008681Y-39464049D01*
X50055825Y-39577864D01*
X50073000Y-39708321D01*
X50073000Y-42891679D01*
X50055825Y-43022136D01*
X50008681Y-43135951D01*
X49933686Y-43233686D01*
X49835951Y-43308681D01*
X49801382Y-43323000D01*
X49743170Y-43323000D01*
X49631695Y-43345174D01*
X49564517Y-43373000D01*
X49468861Y-43373000D01*
X49316601Y-43365179D01*
X49268305Y-43345174D01*
X49156830Y-43323000D01*
X49043170Y-43323000D01*
X49001272Y-43331334D01*
X48879949Y-43312505D01*
X48610564Y-43241818D01*
X48601945Y-43228919D01*
X48521576Y-43148550D01*
X48427072Y-43085404D01*
X48322065Y-43041909D01*
X48210590Y-43019735D01*
X48096930Y-43019735D01*
X47985455Y-43041909D01*
X47982536Y-43043118D01*
X47632906Y-42931915D01*
X47625629Y-42921024D01*
X47545260Y-42840655D01*
X47450756Y-42777509D01*
X47345749Y-42734014D01*
X47234274Y-42711840D01*
X47120614Y-42711840D01*
X47010095Y-42733824D01*
X46654357Y-42620678D01*
X46649313Y-42613129D01*
X46568944Y-42532760D01*
X46474440Y-42469614D01*
X46369433Y-42426119D01*
X46257958Y-42403945D01*
X46144298Y-42403945D01*
X46038869Y-42424916D01*
X45675808Y-42309442D01*
X45672997Y-42305235D01*
X45592628Y-42224866D01*
X45498124Y-42161720D01*
X45393117Y-42118225D01*
X45281642Y-42096051D01*
X45167982Y-42096051D01*
X45067645Y-42116010D01*
X44697260Y-41998205D01*
X44696682Y-41997340D01*
X44616313Y-41916971D01*
X44521809Y-41853825D01*
X44416802Y-41810330D01*
X44305327Y-41788156D01*
X44191667Y-41788156D01*
X44096419Y-41807102D01*
X43717507Y-41686586D01*
X43639997Y-41609076D01*
X43545493Y-41545930D01*
X43440486Y-41502435D01*
X43329011Y-41480261D01*
X43215351Y-41480261D01*
X43125193Y-41498195D01*
X42737332Y-41374832D01*
X42663681Y-41301181D01*
X42569177Y-41238035D01*
X42464170Y-41194540D01*
X42352695Y-41172366D01*
X42239035Y-41172366D01*
X42153967Y-41189287D01*
X41757156Y-41063078D01*
X41687365Y-40993287D01*
X41592861Y-40930141D01*
X41487854Y-40886646D01*
X41376379Y-40864472D01*
X41262719Y-40864472D01*
X41182743Y-40880380D01*
X40776981Y-40751324D01*
X40711049Y-40685392D01*
X40616545Y-40622246D01*
X40511538Y-40578751D01*
X40400063Y-40556577D01*
X40286403Y-40556577D01*
X40211517Y-40571473D01*
X39796808Y-40439571D01*
X39734734Y-40377497D01*
X39640230Y-40314351D01*
X39535223Y-40270856D01*
X39423748Y-40248682D01*
X39310088Y-40248682D01*
X39240291Y-40262566D01*
X38816633Y-40127817D01*
X38758418Y-40069602D01*
X38663914Y-40006456D01*
X38558907Y-39962961D01*
X38447432Y-39940787D01*
X38333772Y-39940787D01*
X38269065Y-39953658D01*
X37836457Y-39816063D01*
X37782102Y-39761708D01*
X37687598Y-39698562D01*
X37582591Y-39655067D01*
X37471116Y-39632893D01*
X37357456Y-39632893D01*
X37297841Y-39644751D01*
X36856282Y-39504309D01*
X36805786Y-39453813D01*
X36711282Y-39390667D01*
X36606275Y-39347172D01*
X36494800Y-39324998D01*
X36381140Y-39324998D01*
X36326615Y-39335844D01*
X35876108Y-39192556D01*
X35829470Y-39145918D01*
X35734966Y-39082772D01*
X35629959Y-39039277D01*
X35518484Y-39017103D01*
X35404824Y-39017103D01*
X35355389Y-39026936D01*
X34895934Y-38880802D01*
X34853155Y-38838023D01*
X34758651Y-38774877D01*
X34653644Y-38731382D01*
X34542169Y-38709208D01*
X34428509Y-38709208D01*
X34384164Y-38718029D01*
X33915758Y-38569048D01*
X33876839Y-38530129D01*
X33782335Y-38466983D01*
X33677328Y-38423488D01*
X33565853Y-38401314D01*
X33452193Y-38401314D01*
X33412940Y-38409122D01*
X32935584Y-38257295D01*
X32900523Y-38222234D01*
X32806019Y-38159088D01*
X32701012Y-38115593D01*
X32589537Y-38093419D01*
X32475877Y-38093419D01*
X32441714Y-38100215D01*
X31955409Y-37945541D01*
X31924207Y-37914339D01*
X31829703Y-37851193D01*
X31724696Y-37807698D01*
X31613221Y-37785524D01*
X31499561Y-37785524D01*
X31470488Y-37791307D01*
X30975234Y-37633787D01*
X30947892Y-37606445D01*
X30853388Y-37543299D01*
X30748381Y-37499804D01*
X30636906Y-37477630D01*
X30523246Y-37477630D01*
X30499264Y-37482400D01*
X29995059Y-37322033D01*
X29971576Y-37298550D01*
X29877072Y-37235404D01*
X29772065Y-37191909D01*
X29660590Y-37169735D01*
X29546930Y-37169735D01*
X29528038Y-37173493D01*
X29014885Y-37010280D01*
X28995260Y-36990655D01*
X28900756Y-36927509D01*
X28795749Y-36884014D01*
X28684274Y-36861840D01*
X28570614Y-36861840D01*
X28556812Y-36864585D01*
X28034710Y-36698526D01*
X28018944Y-36682760D01*
X27924440Y-36619614D01*
X27819433Y-36576119D01*
X27707958Y-36553945D01*
X27594298Y-36553945D01*
X27585586Y-36555678D01*
X27054534Y-36386772D01*
X27042628Y-36374866D01*
X26948124Y-36311720D01*
X26843117Y-36268225D01*
X26731642Y-36246051D01*
X26617982Y-36246051D01*
X26614362Y-36246771D01*
X26074361Y-36075019D01*
X26066313Y-36066971D01*
X25971809Y-36003825D01*
X25866802Y-35960330D01*
X25755327Y-35938156D01*
X25644055Y-35938156D01*
X25094186Y-35763265D01*
X25089997Y-35759076D01*
X24995493Y-35695930D01*
X24890486Y-35652435D01*
X24779011Y-35630261D01*
X24676013Y-35630261D01*
X24114011Y-35451511D01*
X24113681Y-35451181D01*
X24019177Y-35388035D01*
X23914170Y-35344540D01*
X23802695Y-35322366D01*
X23707970Y-35322366D01*
X23130490Y-35138693D01*
X23042861Y-35080141D01*
X22937854Y-35036646D01*
X22826379Y-35014472D01*
X22739930Y-35014472D01*
X22146658Y-34825776D01*
X22066545Y-34772246D01*
X21961538Y-34728751D01*
X21850063Y-34706577D01*
X21771888Y-34706577D01*
X21162828Y-34512860D01*
X21090230Y-34464351D01*
X20985223Y-34420856D01*
X20873748Y-34398682D01*
X20803845Y-34398682D01*
X20178997Y-34199943D01*
X20113914Y-34156456D01*
X20008907Y-34112961D01*
X19897432Y-34090787D01*
X19835802Y-34090787D01*
X19195162Y-33887025D01*
X19137598Y-33848562D01*
X19032591Y-33805067D01*
X18921116Y-33782893D01*
X18867763Y-33782893D01*
X18211331Y-33574109D01*
X18161282Y-33540667D01*
X18056275Y-33497172D01*
X17944800Y-33474998D01*
X17899720Y-33474998D01*
X17227499Y-33261192D01*
X17184966Y-33232772D01*
X17079959Y-33189277D01*
X16968484Y-33167103D01*
X16931677Y-33167103D01*
X16243669Y-32948276D01*
X16208651Y-32924877D01*
X16103644Y-32881382D01*
X15992169Y-32859208D01*
X15963635Y-32859208D01*
X15259835Y-32635358D01*
X15232335Y-32616983D01*
X15127328Y-32573488D01*
X15015853Y-32551314D01*
X14995595Y-32551314D01*
X14276003Y-32322441D01*
X14256019Y-32309088D01*
X14151012Y-32265593D01*
X14039537Y-32243419D01*
X14028415Y-32243419D01*
X13721396Y-32125979D01*
X13429029Y-31973714D01*
X13156044Y-31788970D01*
X12906008Y-31574163D01*
X12682238Y-31332139D01*
X12487653Y-31066061D01*
X12324834Y-30779450D01*
X12195921Y-30476078D01*
X12102605Y-30159932D01*
X12046121Y-29835175D01*
X12027000Y-29502441D01*
X12027000Y-26643170D01*
X29423000Y-26643170D01*
X29423000Y-26756830D01*
X29445174Y-26868305D01*
X29488669Y-26973312D01*
X29551815Y-27067816D01*
X29632184Y-27148185D01*
X29726688Y-27211331D01*
X29831695Y-27254826D01*
X29943170Y-27277000D01*
X30056830Y-27277000D01*
X30168305Y-27254826D01*
X30273312Y-27211331D01*
X30367816Y-27148185D01*
X30448185Y-27067816D01*
X30511331Y-26973312D01*
X30554826Y-26868305D01*
X30577000Y-26756830D01*
X30577000Y-26643170D01*
X30554826Y-26531695D01*
X30511331Y-26426688D01*
X30448185Y-26332184D01*
X30367816Y-26251815D01*
X30273312Y-26188669D01*
X30168305Y-26145174D01*
X30056830Y-26123000D01*
X29943170Y-26123000D01*
X29831695Y-26145174D01*
X29726688Y-26188669D01*
X29632184Y-26251815D01*
X29551815Y-26332184D01*
X29488669Y-26426688D01*
X29445174Y-26531695D01*
X29423000Y-26643170D01*
X12027000Y-26643170D01*
X12027000Y-26580278D01*
X12025630Y-26561676D01*
X12000082Y-26389133D01*
X11989301Y-26353525D01*
X11848424Y-26055060D01*
X11827000Y-25910373D01*
X11827000Y-24089627D01*
X11848424Y-23944940D01*
X11989301Y-23646475D01*
X12000082Y-23610867D01*
X12025630Y-23438324D01*
X12027000Y-23419722D01*
X12027000Y-20900262D01*
X12045311Y-20574622D01*
X12099413Y-20256620D01*
X12188826Y-19946683D01*
X12312420Y-19648729D01*
X12468636Y-19366511D01*
X12655515Y-19103574D01*
X12870688Y-18863252D01*
X13111437Y-18648575D01*
X13374755Y-18462228D01*
X13657295Y-18306581D01*
X13955491Y-18183595D01*
X14269047Y-18093826D01*
X48697506Y-10298704D01*
X49016208Y-10244982D01*
X49338909Y-10227000D01*
X49591679Y-10227000D01*
X49722136Y-10244175D01*
%TA.AperFunction,Conductor*%
D15*
G36*
X49722136Y-10244175D02*
G01*
X49835951Y-10291319D01*
X49933686Y-10366314D01*
X50008681Y-10464049D01*
X50055825Y-10577864D01*
X50073000Y-10708321D01*
X50073000Y-13891679D01*
X50055825Y-14022136D01*
X50008681Y-14135951D01*
X49933686Y-14233686D01*
X49835951Y-14308681D01*
X49722136Y-14355825D01*
X49591679Y-14373000D01*
X49459546Y-14373000D01*
X49453114Y-14373163D01*
X49149633Y-14388553D01*
X49136836Y-14389854D01*
X48836469Y-14435864D01*
X48823867Y-14438454D01*
X48529695Y-14514615D01*
X48523510Y-14516384D01*
X34634872Y-18873603D01*
X34623063Y-18877962D01*
X34444654Y-18954057D01*
X34422616Y-18966163D01*
X34262695Y-19075916D01*
X34243474Y-19092126D01*
X34108310Y-19231234D01*
X34092659Y-19250913D01*
X33987550Y-19413923D01*
X33976082Y-19436301D01*
X33905149Y-19616825D01*
X33898316Y-19641022D01*
X33864338Y-19831982D01*
X33862405Y-19857052D01*
X33866715Y-20050964D01*
X33869760Y-20075923D01*
X33912189Y-20265185D01*
X33920091Y-20289055D01*
X33998975Y-20466249D01*
X34011425Y-20488095D01*
X34123673Y-20646274D01*
X34140183Y-20665239D01*
X34281394Y-20798204D01*
X34301316Y-20813544D01*
X34465956Y-20916083D01*
X34488510Y-20927197D01*
X34670124Y-20995290D01*
X34694427Y-21001744D01*
X34885897Y-21032721D01*
X34910993Y-21034260D01*
X35104813Y-21026909D01*
X35117353Y-21025809D01*
X46509050Y-19454541D01*
X46910278Y-19427000D01*
X47291679Y-19427000D01*
X47422136Y-19444175D01*
X47535951Y-19491319D01*
X47633686Y-19566314D01*
X47708681Y-19664049D01*
X47755825Y-19777864D01*
X47773000Y-19908321D01*
X47773000Y-23191679D01*
X47755825Y-23322136D01*
X47708681Y-23435951D01*
X47633686Y-23533686D01*
X47535951Y-23608681D01*
X47422136Y-23655825D01*
X47291679Y-23673000D01*
X46861073Y-23673000D01*
X46854264Y-23673183D01*
X46533044Y-23690430D01*
X46526255Y-23690977D01*
X33686402Y-25073730D01*
X33676244Y-25075242D01*
X33436770Y-25120842D01*
X33416986Y-25126297D01*
X33187982Y-25209872D01*
X33169335Y-25218442D01*
X32956783Y-25337811D01*
X32939760Y-25349273D01*
X32749209Y-25501318D01*
X32734254Y-25515372D01*
X32570680Y-25696122D01*
X32558184Y-25712402D01*
X32425858Y-25917139D01*
X32416147Y-25935218D01*
X32318525Y-26158595D01*
X32311853Y-26178003D01*
X32251484Y-26414187D01*
X32248025Y-26434415D01*
X32226484Y-26677239D01*
X32226328Y-26697761D01*
X32244180Y-26940883D01*
X32247332Y-26961162D01*
X32304109Y-27198236D01*
X32310485Y-27217742D01*
X32404704Y-27442575D01*
X32414140Y-27460801D01*
X32543343Y-27667523D01*
X32555590Y-27683989D01*
X32716401Y-27867202D01*
X32731140Y-27881482D01*
X32919360Y-28036402D01*
X32936208Y-28048121D01*
X33146924Y-28170703D01*
X33165438Y-28179555D01*
X33393146Y-28266598D01*
X33412846Y-28272353D01*
X33651601Y-28321583D01*
X33661734Y-28323249D01*
X46501942Y-29903582D01*
X46509685Y-29904295D01*
X46876150Y-29926762D01*
X46883921Y-29927000D01*
X47291679Y-29927000D01*
X47422136Y-29944175D01*
X47535951Y-29991319D01*
X47633686Y-30066314D01*
X47708681Y-30164049D01*
X47755825Y-30277864D01*
X47773000Y-30408321D01*
X47773000Y-33691679D01*
X47755825Y-33822136D01*
X47708681Y-33935951D01*
X47633686Y-34033686D01*
X47535951Y-34108681D01*
X47422136Y-34155825D01*
X47291679Y-34173000D01*
X46950283Y-34173000D01*
X46473654Y-34134058D01*
X35170615Y-32274684D01*
X35158093Y-32273258D01*
X34968467Y-32261149D01*
X34943309Y-32262043D01*
X34755019Y-32287575D01*
X34730532Y-32293413D01*
X34550977Y-32355581D01*
X34528122Y-32366134D01*
X34364358Y-32462497D01*
X34344034Y-32477352D01*
X34202493Y-32604124D01*
X34185498Y-32622694D01*
X34071742Y-32774893D01*
X34058744Y-32796452D01*
X33977244Y-32968098D01*
X33968753Y-32991796D01*
X33922709Y-33176145D01*
X33919060Y-33201054D01*
X33910283Y-33390864D01*
X33911618Y-33416001D01*
X33940451Y-33603813D01*
X33946718Y-33628195D01*
X34012030Y-33806631D01*
X34022983Y-33829297D01*
X34122207Y-33991344D01*
X34137416Y-34011404D01*
X34266653Y-34150697D01*
X34285519Y-34167363D01*
X34439692Y-34278429D01*
X34461476Y-34291047D01*
X34634527Y-34369521D01*
X34646248Y-34374150D01*
X48491271Y-39061835D01*
X48497873Y-39063872D01*
X48705907Y-39121908D01*
X48732184Y-39148185D01*
X48826688Y-39211331D01*
X48931695Y-39254826D01*
X49043170Y-39277000D01*
X49156830Y-39277000D01*
X49268305Y-39254826D01*
X49353515Y-39219531D01*
X49487191Y-39226812D01*
X49494098Y-39227000D01*
X49591679Y-39227000D01*
X49722136Y-39244175D01*
X49835951Y-39291319D01*
X49933686Y-39366314D01*
X50008681Y-39464049D01*
X50055825Y-39577864D01*
X50073000Y-39708321D01*
X50073000Y-42891679D01*
X50055825Y-43022136D01*
X50008681Y-43135951D01*
X49933686Y-43233686D01*
X49835951Y-43308681D01*
X49801382Y-43323000D01*
X49743170Y-43323000D01*
X49631695Y-43345174D01*
X49564517Y-43373000D01*
X49468861Y-43373000D01*
X49316601Y-43365179D01*
X49268305Y-43345174D01*
X49156830Y-43323000D01*
X49043170Y-43323000D01*
X49001272Y-43331334D01*
X48879949Y-43312505D01*
X48610564Y-43241818D01*
X48601945Y-43228919D01*
X48521576Y-43148550D01*
X48427072Y-43085404D01*
X48322065Y-43041909D01*
X48210590Y-43019735D01*
X48096930Y-43019735D01*
X47985455Y-43041909D01*
X47982536Y-43043118D01*
X47632906Y-42931915D01*
X47625629Y-42921024D01*
X47545260Y-42840655D01*
X47450756Y-42777509D01*
X47345749Y-42734014D01*
X47234274Y-42711840D01*
X47120614Y-42711840D01*
X47010095Y-42733824D01*
X46654357Y-42620678D01*
X46649313Y-42613129D01*
X46568944Y-42532760D01*
X46474440Y-42469614D01*
X46369433Y-42426119D01*
X46257958Y-42403945D01*
X46144298Y-42403945D01*
X46038869Y-42424916D01*
X45675808Y-42309442D01*
X45672997Y-42305235D01*
X45592628Y-42224866D01*
X45498124Y-42161720D01*
X45393117Y-42118225D01*
X45281642Y-42096051D01*
X45167982Y-42096051D01*
X45067645Y-42116010D01*
X44697260Y-41998205D01*
X44696682Y-41997340D01*
X44616313Y-41916971D01*
X44521809Y-41853825D01*
X44416802Y-41810330D01*
X44305327Y-41788156D01*
X44191667Y-41788156D01*
X44096419Y-41807102D01*
X43717507Y-41686586D01*
X43639997Y-41609076D01*
X43545493Y-41545930D01*
X43440486Y-41502435D01*
X43329011Y-41480261D01*
X43215351Y-41480261D01*
X43125193Y-41498195D01*
X42737332Y-41374832D01*
X42663681Y-41301181D01*
X42569177Y-41238035D01*
X42464170Y-41194540D01*
X42352695Y-41172366D01*
X42239035Y-41172366D01*
X42153967Y-41189287D01*
X41757156Y-41063078D01*
X41687365Y-40993287D01*
X41592861Y-40930141D01*
X41487854Y-40886646D01*
X41376379Y-40864472D01*
X41262719Y-40864472D01*
X41182743Y-40880380D01*
X40776981Y-40751324D01*
X40711049Y-40685392D01*
X40616545Y-40622246D01*
X40511538Y-40578751D01*
X40400063Y-40556577D01*
X40286403Y-40556577D01*
X40211517Y-40571473D01*
X39796808Y-40439571D01*
X39734734Y-40377497D01*
X39640230Y-40314351D01*
X39535223Y-40270856D01*
X39423748Y-40248682D01*
X39310088Y-40248682D01*
X39240291Y-40262566D01*
X38816633Y-40127817D01*
X38758418Y-40069602D01*
X38663914Y-40006456D01*
X38558907Y-39962961D01*
X38447432Y-39940787D01*
X38333772Y-39940787D01*
X38269065Y-39953658D01*
X37836457Y-39816063D01*
X37782102Y-39761708D01*
X37687598Y-39698562D01*
X37582591Y-39655067D01*
X37471116Y-39632893D01*
X37357456Y-39632893D01*
X37297841Y-39644751D01*
X36856282Y-39504309D01*
X36805786Y-39453813D01*
X36711282Y-39390667D01*
X36606275Y-39347172D01*
X36494800Y-39324998D01*
X36381140Y-39324998D01*
X36326615Y-39335844D01*
X35876108Y-39192556D01*
X35829470Y-39145918D01*
X35734966Y-39082772D01*
X35629959Y-39039277D01*
X35518484Y-39017103D01*
X35404824Y-39017103D01*
X35355389Y-39026936D01*
X34895934Y-38880802D01*
X34853155Y-38838023D01*
X34758651Y-38774877D01*
X34653644Y-38731382D01*
X34542169Y-38709208D01*
X34428509Y-38709208D01*
X34384164Y-38718029D01*
X33915758Y-38569048D01*
X33876839Y-38530129D01*
X33782335Y-38466983D01*
X33677328Y-38423488D01*
X33565853Y-38401314D01*
X33452193Y-38401314D01*
X33412940Y-38409122D01*
X32935584Y-38257295D01*
X32900523Y-38222234D01*
X32806019Y-38159088D01*
X32701012Y-38115593D01*
X32589537Y-38093419D01*
X32475877Y-38093419D01*
X32441714Y-38100215D01*
X31955409Y-37945541D01*
X31924207Y-37914339D01*
X31829703Y-37851193D01*
X31724696Y-37807698D01*
X31613221Y-37785524D01*
X31499561Y-37785524D01*
X31470488Y-37791307D01*
X30975234Y-37633787D01*
X30947892Y-37606445D01*
X30853388Y-37543299D01*
X30748381Y-37499804D01*
X30636906Y-37477630D01*
X30523246Y-37477630D01*
X30499264Y-37482400D01*
X29995059Y-37322033D01*
X29971576Y-37298550D01*
X29877072Y-37235404D01*
X29772065Y-37191909D01*
X29660590Y-37169735D01*
X29546930Y-37169735D01*
X29528038Y-37173493D01*
X29014885Y-37010280D01*
X28995260Y-36990655D01*
X28900756Y-36927509D01*
X28795749Y-36884014D01*
X28684274Y-36861840D01*
X28570614Y-36861840D01*
X28556812Y-36864585D01*
X28034710Y-36698526D01*
X28018944Y-36682760D01*
X27924440Y-36619614D01*
X27819433Y-36576119D01*
X27707958Y-36553945D01*
X27594298Y-36553945D01*
X27585586Y-36555678D01*
X27054534Y-36386772D01*
X27042628Y-36374866D01*
X26948124Y-36311720D01*
X26843117Y-36268225D01*
X26731642Y-36246051D01*
X26617982Y-36246051D01*
X26614362Y-36246771D01*
X26074361Y-36075019D01*
X26066313Y-36066971D01*
X25971809Y-36003825D01*
X25866802Y-35960330D01*
X25755327Y-35938156D01*
X25644055Y-35938156D01*
X25094186Y-35763265D01*
X25089997Y-35759076D01*
X24995493Y-35695930D01*
X24890486Y-35652435D01*
X24779011Y-35630261D01*
X24676013Y-35630261D01*
X24114011Y-35451511D01*
X24113681Y-35451181D01*
X24019177Y-35388035D01*
X23914170Y-35344540D01*
X23802695Y-35322366D01*
X23707970Y-35322366D01*
X23130490Y-35138693D01*
X23042861Y-35080141D01*
X22937854Y-35036646D01*
X22826379Y-35014472D01*
X22739930Y-35014472D01*
X22146658Y-34825776D01*
X22066545Y-34772246D01*
X21961538Y-34728751D01*
X21850063Y-34706577D01*
X21771888Y-34706577D01*
X21162828Y-34512860D01*
X21090230Y-34464351D01*
X20985223Y-34420856D01*
X20873748Y-34398682D01*
X20803845Y-34398682D01*
X20178997Y-34199943D01*
X20113914Y-34156456D01*
X20008907Y-34112961D01*
X19897432Y-34090787D01*
X19835802Y-34090787D01*
X19195162Y-33887025D01*
X19137598Y-33848562D01*
X19032591Y-33805067D01*
X18921116Y-33782893D01*
X18867763Y-33782893D01*
X18211331Y-33574109D01*
X18161282Y-33540667D01*
X18056275Y-33497172D01*
X17944800Y-33474998D01*
X17899720Y-33474998D01*
X17227499Y-33261192D01*
X17184966Y-33232772D01*
X17079959Y-33189277D01*
X16968484Y-33167103D01*
X16931677Y-33167103D01*
X16243669Y-32948276D01*
X16208651Y-32924877D01*
X16103644Y-32881382D01*
X15992169Y-32859208D01*
X15963635Y-32859208D01*
X15259835Y-32635358D01*
X15232335Y-32616983D01*
X15127328Y-32573488D01*
X15015853Y-32551314D01*
X14995595Y-32551314D01*
X14276003Y-32322441D01*
X14256019Y-32309088D01*
X14151012Y-32265593D01*
X14039537Y-32243419D01*
X14028415Y-32243419D01*
X13721396Y-32125979D01*
X13429029Y-31973714D01*
X13156044Y-31788970D01*
X12906008Y-31574163D01*
X12682238Y-31332139D01*
X12487653Y-31066061D01*
X12324834Y-30779450D01*
X12195921Y-30476078D01*
X12102605Y-30159932D01*
X12046121Y-29835175D01*
X12027000Y-29502441D01*
X12027000Y-26643170D01*
X29423000Y-26643170D01*
X29423000Y-26756830D01*
X29445174Y-26868305D01*
X29488669Y-26973312D01*
X29551815Y-27067816D01*
X29632184Y-27148185D01*
X29726688Y-27211331D01*
X29831695Y-27254826D01*
X29943170Y-27277000D01*
X30056830Y-27277000D01*
X30168305Y-27254826D01*
X30273312Y-27211331D01*
X30367816Y-27148185D01*
X30448185Y-27067816D01*
X30511331Y-26973312D01*
X30554826Y-26868305D01*
X30577000Y-26756830D01*
X30577000Y-26643170D01*
X30554826Y-26531695D01*
X30511331Y-26426688D01*
X30448185Y-26332184D01*
X30367816Y-26251815D01*
X30273312Y-26188669D01*
X30168305Y-26145174D01*
X30056830Y-26123000D01*
X29943170Y-26123000D01*
X29831695Y-26145174D01*
X29726688Y-26188669D01*
X29632184Y-26251815D01*
X29551815Y-26332184D01*
X29488669Y-26426688D01*
X29445174Y-26531695D01*
X29423000Y-26643170D01*
X12027000Y-26643170D01*
X12027000Y-26580278D01*
X12025630Y-26561676D01*
X12000082Y-26389133D01*
X11989301Y-26353525D01*
X11848424Y-26055060D01*
X11827000Y-25910373D01*
X11827000Y-24089627D01*
X11848424Y-23944940D01*
X11989301Y-23646475D01*
X12000082Y-23610867D01*
X12025630Y-23438324D01*
X12027000Y-23419722D01*
X12027000Y-20900262D01*
X12045311Y-20574622D01*
X12099413Y-20256620D01*
X12188826Y-19946683D01*
X12312420Y-19648729D01*
X12468636Y-19366511D01*
X12655515Y-19103574D01*
X12870688Y-18863252D01*
X13111437Y-18648575D01*
X13374755Y-18462228D01*
X13657295Y-18306581D01*
X13955491Y-18183595D01*
X14269047Y-18093826D01*
X48697506Y-10298704D01*
X49016208Y-10244982D01*
X49338909Y-10227000D01*
X49591679Y-10227000D01*
X49722136Y-10244175D01*
G37*
%TD.AperFunction*%
%TD*%
D17*
%TO.N,/VIN*%
X51737556Y-14212311D02*
X51737870Y-14223585D01*
X51737937Y-14224580D01*
X51740094Y-14244767D01*
X51740245Y-14245789D01*
X51743979Y-14265434D01*
X51744221Y-14266467D01*
X51749534Y-14285567D01*
X51749863Y-14286584D01*
X51756753Y-14305141D01*
X51757165Y-14306122D01*
X51765632Y-14324136D01*
X51766116Y-14325065D01*
X51776162Y-14342535D01*
X51776703Y-14343393D01*
X51788326Y-14360319D01*
X51788906Y-14361098D01*
X51802107Y-14377481D01*
X51802710Y-14378177D01*
X51809120Y-14385048D01*
X51685048Y-14509120D01*
X51678177Y-14502710D01*
X51677481Y-14502107D01*
X51661098Y-14488906D01*
X51660319Y-14488326D01*
X51643393Y-14476703D01*
X51642535Y-14476162D01*
X51625065Y-14466116D01*
X51624136Y-14465632D01*
X51606122Y-14457165D01*
X51605141Y-14456753D01*
X51586584Y-14449863D01*
X51585567Y-14449534D01*
X51566467Y-14444221D01*
X51565434Y-14443979D01*
X51545789Y-14440245D01*
X51544767Y-14440094D01*
X51524580Y-14437937D01*
X51523585Y-14437870D01*
X51512311Y-14437556D01*
X51429591Y-14129591D01*
X51737556Y-14212311D01*
%TA.AperFunction,Conductor*%
D15*
G36*
X51737556Y-14212311D02*
G01*
X51737870Y-14223585D01*
X51737937Y-14224580D01*
X51740094Y-14244767D01*
X51740245Y-14245789D01*
X51743979Y-14265434D01*
X51744221Y-14266467D01*
X51749534Y-14285567D01*
X51749863Y-14286584D01*
X51756753Y-14305141D01*
X51757165Y-14306122D01*
X51765632Y-14324136D01*
X51766116Y-14325065D01*
X51776162Y-14342535D01*
X51776703Y-14343393D01*
X51788326Y-14360319D01*
X51788906Y-14361098D01*
X51802107Y-14377481D01*
X51802710Y-14378177D01*
X51809120Y-14385048D01*
X51685048Y-14509120D01*
X51678177Y-14502710D01*
X51677481Y-14502107D01*
X51661098Y-14488906D01*
X51660319Y-14488326D01*
X51643393Y-14476703D01*
X51642535Y-14476162D01*
X51625065Y-14466116D01*
X51624136Y-14465632D01*
X51606122Y-14457165D01*
X51605141Y-14456753D01*
X51586584Y-14449863D01*
X51585567Y-14449534D01*
X51566467Y-14444221D01*
X51565434Y-14443979D01*
X51545789Y-14440245D01*
X51544767Y-14440094D01*
X51524580Y-14437937D01*
X51523585Y-14437870D01*
X51512311Y-14437556D01*
X51429591Y-14129591D01*
X51737556Y-14212311D01*
G37*
%TD.AperFunction*%
%TD*%
D17*
%TO.N,/VIN*%
X51737556Y-43212311D02*
X51737870Y-43223585D01*
X51737937Y-43224580D01*
X51740094Y-43244767D01*
X51740245Y-43245789D01*
X51743979Y-43265434D01*
X51744221Y-43266467D01*
X51749534Y-43285567D01*
X51749863Y-43286584D01*
X51756753Y-43305141D01*
X51757165Y-43306122D01*
X51765632Y-43324136D01*
X51766116Y-43325065D01*
X51776162Y-43342535D01*
X51776703Y-43343393D01*
X51788326Y-43360319D01*
X51788906Y-43361098D01*
X51802107Y-43377481D01*
X51802710Y-43378177D01*
X51809120Y-43385048D01*
X51685048Y-43509120D01*
X51678177Y-43502710D01*
X51677481Y-43502107D01*
X51661098Y-43488906D01*
X51660319Y-43488326D01*
X51643393Y-43476703D01*
X51642535Y-43476162D01*
X51625065Y-43466116D01*
X51624136Y-43465632D01*
X51606122Y-43457165D01*
X51605141Y-43456753D01*
X51586584Y-43449863D01*
X51585567Y-43449534D01*
X51566467Y-43444221D01*
X51565434Y-43443979D01*
X51545789Y-43440245D01*
X51544767Y-43440094D01*
X51524580Y-43437937D01*
X51523585Y-43437870D01*
X51512311Y-43437556D01*
X51429591Y-43129591D01*
X51737556Y-43212311D01*
%TA.AperFunction,Conductor*%
D15*
G36*
X51737556Y-43212311D02*
G01*
X51737870Y-43223585D01*
X51737937Y-43224580D01*
X51740094Y-43244767D01*
X51740245Y-43245789D01*
X51743979Y-43265434D01*
X51744221Y-43266467D01*
X51749534Y-43285567D01*
X51749863Y-43286584D01*
X51756753Y-43305141D01*
X51757165Y-43306122D01*
X51765632Y-43324136D01*
X51766116Y-43325065D01*
X51776162Y-43342535D01*
X51776703Y-43343393D01*
X51788326Y-43360319D01*
X51788906Y-43361098D01*
X51802107Y-43377481D01*
X51802710Y-43378177D01*
X51809120Y-43385048D01*
X51685048Y-43509120D01*
X51678177Y-43502710D01*
X51677481Y-43502107D01*
X51661098Y-43488906D01*
X51660319Y-43488326D01*
X51643393Y-43476703D01*
X51642535Y-43476162D01*
X51625065Y-43466116D01*
X51624136Y-43465632D01*
X51606122Y-43457165D01*
X51605141Y-43456753D01*
X51586584Y-43449863D01*
X51585567Y-43449534D01*
X51566467Y-43444221D01*
X51565434Y-43443979D01*
X51545789Y-43440245D01*
X51544767Y-43440094D01*
X51524580Y-43437937D01*
X51523585Y-43437870D01*
X51512311Y-43437556D01*
X51429591Y-43129591D01*
X51737556Y-43212311D01*
G37*
%TD.AperFunction*%
%TD*%
D17*
%TO.N,/VIN*%
X49537556Y-34012311D02*
X49537870Y-34023585D01*
X49537937Y-34024580D01*
X49540094Y-34044767D01*
X49540245Y-34045789D01*
X49543979Y-34065434D01*
X49544221Y-34066467D01*
X49549534Y-34085567D01*
X49549863Y-34086584D01*
X49556753Y-34105141D01*
X49557165Y-34106122D01*
X49565632Y-34124136D01*
X49566116Y-34125065D01*
X49576162Y-34142535D01*
X49576703Y-34143393D01*
X49588326Y-34160319D01*
X49588906Y-34161098D01*
X49602107Y-34177481D01*
X49602710Y-34178177D01*
X49609120Y-34185048D01*
X49485048Y-34309120D01*
X49478177Y-34302710D01*
X49477481Y-34302107D01*
X49461098Y-34288906D01*
X49460319Y-34288326D01*
X49443393Y-34276703D01*
X49442535Y-34276162D01*
X49425065Y-34266116D01*
X49424136Y-34265632D01*
X49406122Y-34257165D01*
X49405141Y-34256753D01*
X49386584Y-34249863D01*
X49385567Y-34249534D01*
X49366467Y-34244221D01*
X49365434Y-34243979D01*
X49345789Y-34240245D01*
X49344767Y-34240094D01*
X49324580Y-34237937D01*
X49323585Y-34237870D01*
X49312311Y-34237556D01*
X49229591Y-33929591D01*
X49537556Y-34012311D01*
%TA.AperFunction,Conductor*%
D15*
G36*
X49537556Y-34012311D02*
G01*
X49537870Y-34023585D01*
X49537937Y-34024580D01*
X49540094Y-34044767D01*
X49540245Y-34045789D01*
X49543979Y-34065434D01*
X49544221Y-34066467D01*
X49549534Y-34085567D01*
X49549863Y-34086584D01*
X49556753Y-34105141D01*
X49557165Y-34106122D01*
X49565632Y-34124136D01*
X49566116Y-34125065D01*
X49576162Y-34142535D01*
X49576703Y-34143393D01*
X49588326Y-34160319D01*
X49588906Y-34161098D01*
X49602107Y-34177481D01*
X49602710Y-34178177D01*
X49609120Y-34185048D01*
X49485048Y-34309120D01*
X49478177Y-34302710D01*
X49477481Y-34302107D01*
X49461098Y-34288906D01*
X49460319Y-34288326D01*
X49443393Y-34276703D01*
X49442535Y-34276162D01*
X49425065Y-34266116D01*
X49424136Y-34265632D01*
X49406122Y-34257165D01*
X49405141Y-34256753D01*
X49386584Y-34249863D01*
X49385567Y-34249534D01*
X49366467Y-34244221D01*
X49365434Y-34243979D01*
X49345789Y-34240245D01*
X49344767Y-34240094D01*
X49324580Y-34237937D01*
X49323585Y-34237870D01*
X49312311Y-34237556D01*
X49229591Y-33929591D01*
X49537556Y-34012311D01*
G37*
%TD.AperFunction*%
%TD*%
D16*
%TO.N,GND*%
X11773000Y-19764231D02*
X11766736Y-19779332D01*
X11754594Y-19813983D01*
X11661223Y-20137640D01*
X11653042Y-20173434D01*
X11596544Y-20505519D01*
X11592428Y-20542005D01*
X11573516Y-20878330D01*
X11573000Y-20896689D01*
X11573000Y-23395646D01*
X11558071Y-23496471D01*
X11429834Y-23768156D01*
X11402075Y-23859839D01*
X11376527Y-24032382D01*
X11373000Y-24080278D01*
X11373000Y-25919722D01*
X11376527Y-25967618D01*
X11402075Y-26140161D01*
X11429834Y-26231844D01*
X11558071Y-26503529D01*
X11573000Y-26604354D01*
X11573000Y-29506090D01*
X11573539Y-29524851D01*
X11593288Y-29868510D01*
X11597586Y-29905782D01*
X11656571Y-30244917D01*
X11665111Y-30281455D01*
X11762558Y-30611599D01*
X11773000Y-30640709D01*
X11773000Y-31673000D01*
X627000Y-31673000D01*
X627000Y-18627000D01*
X11773000Y-18627000D01*
X11773000Y-19764231D01*
%TA.AperFunction,Conductor*%
D15*
G36*
X11773000Y-19764231D02*
G01*
X11766736Y-19779332D01*
X11754594Y-19813983D01*
X11661223Y-20137640D01*
X11653042Y-20173434D01*
X11596544Y-20505519D01*
X11592428Y-20542005D01*
X11573516Y-20878330D01*
X11573000Y-20896689D01*
X11573000Y-23395646D01*
X11558071Y-23496471D01*
X11429834Y-23768156D01*
X11402075Y-23859839D01*
X11376527Y-24032382D01*
X11373000Y-24080278D01*
X11373000Y-25919722D01*
X11376527Y-25967618D01*
X11402075Y-26140161D01*
X11429834Y-26231844D01*
X11558071Y-26503529D01*
X11573000Y-26604354D01*
X11573000Y-29506090D01*
X11573539Y-29524851D01*
X11593288Y-29868510D01*
X11597586Y-29905782D01*
X11656571Y-30244917D01*
X11665111Y-30281455D01*
X11762558Y-30611599D01*
X11773000Y-30640709D01*
X11773000Y-31673000D01*
X627000Y-31673000D01*
X627000Y-18627000D01*
X11773000Y-18627000D01*
X11773000Y-19764231D01*
G37*
%TD.AperFunction*%
%TD*%
M02*
