%TF.GenerationSoftware,KiCad,Pcbnew,5.1.7*%
%TF.CreationDate,2020-12-13T01:59:54+00:00*%
%TF.ProjectId,LT3045-4,4c543330-3435-42d3-942e-6b696361645f,rev?*%
%TF.SameCoordinates,Original*%
%TF.FileFunction,Copper,L2,Inr*%
%TF.FilePolarity,Positive*%
%FSLAX46Y46*%
G04 Gerber Fmt 4.6, Leading zero omitted, Abs format (unit mm)*
G04 Created by KiCad (PCBNEW 5.1.7) date 2020-12-13 01:59:54*
%MOMM*%
%LPD*%
G01*
G04 APERTURE LIST*
%TA.AperFunction,ViaPad*%
%ADD10C,0.500000*%
%TD*%
%TA.AperFunction,Conductor*%
%ADD11C,0.200000*%
%TD*%
%TA.AperFunction,Conductor*%
%ADD12C,0.100000*%
%TD*%
%TA.AperFunction,Conductor*%
%ADD13C,0.254000*%
%TD*%
G04 APERTURE END LIST*
D10*
%TO.N,GND*%
X55000000Y-16700000D03*
X48101601Y-9723521D03*
X47125285Y-9944574D03*
X46148969Y-10165626D03*
X45172653Y-10386679D03*
X44196338Y-10607732D03*
X43220022Y-10828784D03*
X42243706Y-11049837D03*
X41267390Y-11270890D03*
X40291074Y-11491942D03*
X39314759Y-11712995D03*
X38338443Y-11934047D03*
X37362127Y-12155100D03*
X36385811Y-12376153D03*
X35409495Y-12597205D03*
X34433180Y-12818258D03*
X33456864Y-13039311D03*
X32480548Y-13260363D03*
X31504232Y-13481416D03*
X30527917Y-13702469D03*
X29551601Y-13923521D03*
X28575285Y-14144574D03*
X27598969Y-14365626D03*
X26622653Y-14586679D03*
X25646338Y-14807732D03*
X24670022Y-15028784D03*
X23693706Y-15249837D03*
X22717390Y-15470890D03*
X21741074Y-15691942D03*
X20764759Y-15912995D03*
X19788443Y-16134047D03*
X18812127Y-16355100D03*
X17835811Y-16576153D03*
X16859495Y-16797205D03*
X15883180Y-17018258D03*
X14906864Y-17239311D03*
X13930548Y-17460363D03*
X12954232Y-17681416D03*
X49077917Y-9502469D03*
X11977917Y-17902469D03*
X48153760Y-43596735D03*
X47177444Y-43288840D03*
X46201128Y-42980945D03*
X45224812Y-42673051D03*
X44248497Y-42365156D03*
X43272181Y-42057261D03*
X42295865Y-41749366D03*
X41319549Y-41441472D03*
X40343233Y-41133577D03*
X39366918Y-40825682D03*
X38390602Y-40517787D03*
X37414286Y-40209893D03*
X36437970Y-39901998D03*
X35461654Y-39594103D03*
X34485339Y-39286208D03*
X33509023Y-38978314D03*
X32532707Y-38670419D03*
X31556391Y-38362524D03*
X30580076Y-38054630D03*
X29603760Y-37746735D03*
X28627444Y-37438840D03*
X27651128Y-37130945D03*
X26674812Y-36823051D03*
X25698497Y-36515156D03*
X24722181Y-36207261D03*
X23745865Y-35899366D03*
X22769549Y-35591472D03*
X21793233Y-35283577D03*
X20816918Y-34975682D03*
X19840602Y-34667787D03*
X18864286Y-34359893D03*
X17887970Y-34051998D03*
X16911654Y-33744103D03*
X15935339Y-33436208D03*
X14959023Y-33128314D03*
X13982707Y-32820419D03*
X13006391Y-32512524D03*
X12030076Y-32204630D03*
X86993467Y-19315379D03*
X86045191Y-18970551D03*
X85096915Y-18625724D03*
X84148639Y-18280896D03*
X83200363Y-17936069D03*
X82252087Y-17591241D03*
X81303811Y-17246413D03*
X80355536Y-16901586D03*
X79407260Y-16556758D03*
X78458984Y-16211931D03*
X77510708Y-15867103D03*
X76562432Y-15522275D03*
X75614156Y-15177448D03*
X74665880Y-14832620D03*
X73717605Y-14487793D03*
X72769329Y-14142965D03*
X71821053Y-13798138D03*
X70872777Y-13453310D03*
X69924501Y-13108482D03*
X68976225Y-12763655D03*
X68027949Y-12418827D03*
X67079674Y-12074000D03*
X66131398Y-11729172D03*
X65183122Y-11384344D03*
X64234846Y-11039517D03*
X63286570Y-10694689D03*
X62338294Y-10349862D03*
X61390018Y-10005034D03*
X60706532Y-11884620D03*
X62603084Y-12574275D03*
X63551360Y-12919103D03*
X64499636Y-13263930D03*
X65447912Y-13608758D03*
X66396188Y-13953586D03*
X67344463Y-14298413D03*
X68292739Y-14643241D03*
X69241015Y-14988068D03*
X70189291Y-15332896D03*
X71137567Y-15677724D03*
X72085843Y-16022551D03*
X73034119Y-16367379D03*
X73982394Y-16712206D03*
X74930670Y-17057034D03*
X75878946Y-17401861D03*
X76827222Y-17746689D03*
X77775498Y-18091517D03*
X78723774Y-18436344D03*
X79672050Y-18781172D03*
X80620325Y-19125999D03*
X81568601Y-19470827D03*
X82516877Y-19815655D03*
X83465153Y-20160482D03*
X84413429Y-20505310D03*
X85361705Y-20850137D03*
X86309981Y-21194965D03*
X84933058Y-21125187D03*
X83906272Y-21035901D03*
X82879487Y-20946616D03*
X81852701Y-20857330D03*
X80825915Y-20768044D03*
X79799130Y-20678759D03*
X78772344Y-20589473D03*
X77745558Y-20500187D03*
X76718772Y-20410901D03*
X75691987Y-20321616D03*
X74665201Y-20232330D03*
X73638415Y-20143044D03*
X72611630Y-20053759D03*
X71584844Y-19964473D03*
X70558058Y-19875187D03*
X69531272Y-19785901D03*
X68504487Y-19696616D03*
X67477701Y-19607330D03*
X66450915Y-19518044D03*
X65424130Y-19428759D03*
X64397344Y-19339473D03*
X63370558Y-19250187D03*
X61316987Y-19071616D03*
X59263415Y-18893044D03*
X60116941Y-20974812D03*
X62170512Y-21153383D03*
X64224084Y-21331955D03*
X65250870Y-21421241D03*
X66277655Y-21510526D03*
X67304441Y-21599812D03*
X68331227Y-21689098D03*
X69358012Y-21778383D03*
X70384798Y-21867669D03*
X71411584Y-21956955D03*
X72438370Y-22046241D03*
X73465155Y-22135526D03*
X74491941Y-22224812D03*
X75518727Y-22314098D03*
X76545512Y-22403383D03*
X77572298Y-22492669D03*
X78599084Y-22581955D03*
X79625870Y-22671241D03*
X80652655Y-22760526D03*
X81679441Y-22849812D03*
X82706227Y-22939098D03*
X83733012Y-23028383D03*
X84759798Y-23117669D03*
X85786584Y-23206955D03*
X59263415Y-31156955D03*
X61316987Y-30978383D03*
X63370558Y-30799812D03*
X64397344Y-30710526D03*
X65424130Y-30621241D03*
X66450915Y-30531955D03*
X67477701Y-30442669D03*
X68504487Y-30353383D03*
X69531272Y-30264098D03*
X70558058Y-30174812D03*
X71584844Y-30085526D03*
X72611630Y-29996241D03*
X73638415Y-29906955D03*
X74665201Y-29817669D03*
X75691987Y-29728383D03*
X76718772Y-29639098D03*
X77745558Y-29549812D03*
X78772344Y-29460526D03*
X79799130Y-29371241D03*
X80825915Y-29281955D03*
X81852701Y-29192669D03*
X82879487Y-29103383D03*
X83906272Y-29014098D03*
X84933058Y-28924812D03*
X85786584Y-26843044D03*
X84759798Y-26932330D03*
X83733012Y-27021616D03*
X82706227Y-27110901D03*
X81679441Y-27200187D03*
X80652655Y-27289473D03*
X79625870Y-27378759D03*
X78599084Y-27468044D03*
X77572298Y-27557330D03*
X76545512Y-27646616D03*
X75518727Y-27735901D03*
X74491941Y-27825187D03*
X73465155Y-27914473D03*
X72438370Y-28003759D03*
X71411584Y-28093044D03*
X70384798Y-28182330D03*
X69358012Y-28271616D03*
X68331227Y-28360901D03*
X67304441Y-28450187D03*
X66277655Y-28539473D03*
X65250870Y-28628759D03*
X64224084Y-28718044D03*
X62170512Y-28896616D03*
X60116941Y-29075187D03*
X61390018Y-40094965D03*
X62338294Y-39750137D03*
X63286570Y-39405310D03*
X64234846Y-39060482D03*
X65183122Y-38715655D03*
X66131398Y-38370827D03*
X67079674Y-38025999D03*
X68027949Y-37681172D03*
X68976225Y-37336344D03*
X69924501Y-36991517D03*
X70872777Y-36646689D03*
X71821053Y-36301861D03*
X72769329Y-35957034D03*
X73717605Y-35612206D03*
X74665880Y-35267379D03*
X75614156Y-34922551D03*
X76562432Y-34577724D03*
X77510708Y-34232896D03*
X78458984Y-33888068D03*
X79407260Y-33543241D03*
X80355536Y-33198413D03*
X81303811Y-32853586D03*
X82252087Y-32508758D03*
X83200363Y-32163930D03*
X84148639Y-31819103D03*
X85096915Y-31474275D03*
X86045191Y-31129448D03*
X86993467Y-30784620D03*
X86309981Y-28905034D03*
X85361705Y-29249862D03*
X84413429Y-29594689D03*
X83465153Y-29939517D03*
X82516877Y-30284344D03*
X81568601Y-30629172D03*
X80620325Y-30974000D03*
X79672050Y-31318827D03*
X78723774Y-31663655D03*
X77775498Y-32008482D03*
X76827222Y-32353310D03*
X75878946Y-32698138D03*
X74930670Y-33042965D03*
X73982394Y-33387793D03*
X73034119Y-33732620D03*
X72085843Y-34077448D03*
X71137567Y-34422275D03*
X70189291Y-34767103D03*
X69241015Y-35111931D03*
X68292739Y-35456758D03*
X67344463Y-35801586D03*
X66396188Y-36146413D03*
X65447912Y-36491241D03*
X64499636Y-36836069D03*
X63551360Y-37180896D03*
X62603084Y-37525724D03*
X60706532Y-38215379D03*
X59216666Y-26000000D03*
X60220000Y-26000000D03*
X64233333Y-26000000D03*
X65236666Y-26000000D03*
X66240000Y-26000000D03*
X67243333Y-26000000D03*
X68246666Y-26000000D03*
X69250000Y-26000000D03*
X70253333Y-26000000D03*
X71256666Y-26000000D03*
X72260000Y-26000000D03*
X73263333Y-26000000D03*
X74266666Y-26000000D03*
X75270000Y-26000000D03*
X76273333Y-26000000D03*
X77276666Y-26000000D03*
X78280000Y-26000000D03*
X79283333Y-26000000D03*
X80286666Y-26000000D03*
X80286666Y-24000000D03*
X79283333Y-24000000D03*
X78280000Y-24000000D03*
X77276666Y-24000000D03*
X76273333Y-24000000D03*
X75270000Y-24000000D03*
X74266666Y-24000000D03*
X73263333Y-24000000D03*
X72260000Y-24000000D03*
X71256666Y-24000000D03*
X70253333Y-24000000D03*
X69250000Y-24000000D03*
X68246666Y-24000000D03*
X67243333Y-24000000D03*
X66240000Y-24000000D03*
X65236666Y-24000000D03*
X64233333Y-24000000D03*
X60220000Y-24000000D03*
X59216666Y-24000000D03*
X53700000Y-42500000D03*
X54500000Y-42500000D03*
X54500000Y-43300000D03*
X53700000Y-43300000D03*
X53700000Y-44100000D03*
X54500000Y-44100000D03*
X51400000Y-33200000D03*
X52200000Y-33200000D03*
X51400000Y-34000000D03*
X52200000Y-34000000D03*
X52200000Y-34800000D03*
X51400000Y-34800000D03*
X53700000Y-13500000D03*
X54500000Y-13500000D03*
X54500000Y-14300000D03*
X53700000Y-14300000D03*
X53700000Y-15100000D03*
X54500000Y-15100000D03*
X51400000Y-22800000D03*
X52200000Y-22800000D03*
X52200000Y-23600000D03*
X51400000Y-23600000D03*
X52200000Y-24400000D03*
X51400000Y-24400000D03*
X97000000Y-19500000D03*
X97000000Y-30500000D03*
X52300000Y-17000000D03*
X47700000Y-26200000D03*
X1369439Y-1292123D03*
X1202358Y-4243574D03*
X1392106Y-7027164D03*
X1413159Y-9604904D03*
X1248597Y-12502258D03*
X1294658Y-15509721D03*
X1378819Y-32941711D03*
X1401772Y-35693822D03*
X1407566Y-38356637D03*
X1529467Y-41262470D03*
X1241935Y-44170037D03*
X1353815Y-46822076D03*
X2171354Y-17380047D03*
X2858846Y-2694693D03*
X2643935Y-5511557D03*
X2822349Y-8226161D03*
X2725706Y-11090482D03*
X2860838Y-14095584D03*
X2758601Y-34391037D03*
X2612218Y-37002315D03*
X2862512Y-39910955D03*
X2884716Y-42779223D03*
X2724859Y-45381433D03*
X2709776Y-48229159D03*
X3328770Y-16007784D03*
X4091369Y-1310388D03*
X4109338Y-4133329D03*
X4174611Y-7083318D03*
X4153511Y-9897100D03*
X4299085Y-12442389D03*
X4252902Y-32717802D03*
X4176389Y-35780062D03*
X4010896Y-38436549D03*
X4213487Y-41136645D03*
X4223605Y-44232539D03*
X4017578Y-46748740D03*
X4938235Y-14717347D03*
X4951100Y-17369211D03*
X5685019Y-2656271D03*
X5404712Y-5555605D03*
X5472705Y-8527562D03*
X5476190Y-11072823D03*
X5501670Y-34337227D03*
X5720692Y-36919247D03*
X5487356Y-39931090D03*
X5409546Y-42526547D03*
X5618801Y-45345402D03*
X5573792Y-48211608D03*
X6134065Y-13273033D03*
X6423872Y-16037497D03*
X7125486Y-1496624D03*
X7121467Y-4077524D03*
X7074867Y-6921483D03*
X6875173Y-9724835D03*
X7025295Y-32977567D03*
X6869468Y-35632979D03*
X6864854Y-38300505D03*
X6920079Y-41436864D03*
X6837073Y-44101562D03*
X7073671Y-47022898D03*
X7718513Y-11944148D03*
X7723278Y-14665273D03*
X7772231Y-17309961D03*
X8335963Y-2916995D03*
X8483001Y-5587280D03*
X8503457Y-8521717D03*
X8431227Y-36962079D03*
X8234596Y-40027337D03*
X8296360Y-42663653D03*
X8375491Y-45371634D03*
X8262705Y-48435226D03*
X9073102Y-10413670D03*
X9160415Y-13349201D03*
X8929501Y-16153273D03*
X9646217Y-1352055D03*
X9938352Y-4074463D03*
X9929623Y-7095556D03*
X9742943Y-35819376D03*
X9760567Y-38370475D03*
X9920440Y-41238752D03*
X9614092Y-44004108D03*
X9684598Y-46927118D03*
X10451321Y-9055219D03*
X10484825Y-11703195D03*
X10385702Y-14545758D03*
X10451211Y-17516296D03*
X11204916Y-2906883D03*
X11310767Y-5623043D03*
X11103488Y-37022818D03*
X11182540Y-39895216D03*
X11224908Y-42631298D03*
X11058261Y-45300271D03*
X11131662Y-48408172D03*
X11809314Y-7815640D03*
X12033962Y-10500314D03*
X11747882Y-13246452D03*
X11754086Y-16241340D03*
X11894532Y-33474248D03*
X12518603Y-1258155D03*
X12690123Y-4271970D03*
X12611534Y-35561941D03*
X12662862Y-38646826D03*
X12511614Y-41383875D03*
X12623465Y-43939364D03*
X12458154Y-46824319D03*
X13323369Y-6317219D03*
X13140554Y-9247387D03*
X13148095Y-12003954D03*
X13258494Y-14594397D03*
X13954927Y-2922023D03*
X13985985Y-16643494D03*
X14102316Y-34142194D03*
X14107433Y-37104128D03*
X13882067Y-39817185D03*
X13905097Y-42657624D03*
X14063949Y-45556603D03*
X13870878Y-48392141D03*
X14748840Y-4884972D03*
X14542031Y-7802162D03*
X14640460Y-10590513D03*
X14682219Y-13221637D03*
X15385162Y-1279260D03*
X15230552Y-15484537D03*
X15351562Y-35773760D03*
X15481576Y-38495474D03*
X15273340Y-41157820D03*
X15243183Y-44191652D03*
X15534863Y-46946979D03*
X16142547Y-3375239D03*
X15963693Y-6423645D03*
X16183420Y-8959017D03*
X16095996Y-11816078D03*
X16917739Y-14024375D03*
X16746586Y-37226536D03*
X16676926Y-39823602D03*
X16711377Y-42639173D03*
X16846838Y-45630825D03*
X16782627Y-48220269D03*
X17523344Y-1998765D03*
X17407277Y-4943780D03*
X17509612Y-7842677D03*
X17567012Y-10458749D03*
X17562633Y-16082982D03*
X18105336Y-12413945D03*
X18044737Y-35551744D03*
X18048495Y-38310447D03*
X18172274Y-41233205D03*
X18280693Y-43929086D03*
X18207205Y-46706836D03*
X18751606Y-3447416D03*
X19035203Y-6279122D03*
X18822746Y-8961446D03*
X18898253Y-14760856D03*
X19652081Y-1389382D03*
X19723867Y-11071189D03*
X19418375Y-37169627D03*
X19547348Y-39786262D03*
X19471305Y-42789932D03*
X19738353Y-45442701D03*
X19509466Y-48402921D03*
X20228878Y-4869921D03*
X20181121Y-7844775D03*
X20151216Y-13366943D03*
X21033800Y-2833949D03*
X21072312Y-9655492D03*
X21055417Y-15380470D03*
X21061197Y-38378494D03*
X20820174Y-41136131D03*
X21090680Y-43947890D03*
X20874047Y-46908071D03*
X21603606Y-6201422D03*
X21827754Y-11902533D03*
X21529593Y-36237702D03*
X22434125Y-1374254D03*
X22241015Y-4328691D03*
X22541765Y-8290444D03*
X22304726Y-13930313D03*
X22253059Y-39800634D03*
X22422841Y-42774903D03*
X22457288Y-45406404D03*
X22329718Y-48237597D03*
X23130195Y-10477749D03*
X23248365Y-37878206D03*
X23915908Y-2806896D03*
X23787737Y-5429972D03*
X23844344Y-12542107D03*
X23668118Y-41184176D03*
X23935699Y-44140978D03*
X23707626Y-46752865D03*
X24348740Y-7550904D03*
X24315371Y-39203881D03*
X25282874Y-1324397D03*
X25140542Y-4142905D03*
X25196557Y-9932375D03*
X25192170Y-42814748D03*
X25333626Y-45538051D03*
X25125177Y-48358031D03*
X25857377Y-6370422D03*
X25799375Y-11820799D03*
X25949137Y-37871997D03*
X26013644Y-40487857D03*
X26523986Y-2894805D03*
X26738439Y-8287657D03*
X26433183Y-44109619D03*
X26472660Y-47010856D03*
X27203020Y-4919238D03*
X27409858Y-10383462D03*
X27428658Y-39334238D03*
X27341542Y-42026314D03*
X27871105Y-1415157D03*
X27827947Y-7029344D03*
X27822104Y-12485155D03*
X28011386Y-45581745D03*
X27930180Y-48161152D03*
X28697830Y-3383249D03*
X28827426Y-9168538D03*
X28508801Y-40749686D03*
X28841769Y-43228161D03*
X29277637Y-5644349D03*
X29214428Y-11012154D03*
X29352868Y-47049569D03*
X30114607Y-2244014D03*
X29933485Y-7619108D03*
X30203300Y-13100833D03*
X30160833Y-39256300D03*
X30157298Y-42109182D03*
X29912241Y-44922250D03*
X30649899Y-4288745D03*
X30945035Y-9757627D03*
X30674727Y-48289101D03*
X31423224Y-6103757D03*
X31638230Y-11818212D03*
X31427826Y-40411768D03*
X31307727Y-43387072D03*
X31597010Y-46206132D03*
X32021656Y-1304735D03*
X32330486Y-8399520D03*
X32855629Y-3451181D03*
X32951553Y-10592639D03*
X32880920Y-26437628D03*
X33024201Y-42131096D03*
X32881769Y-44893431D03*
X32914296Y-47727220D03*
X33545746Y-5519259D03*
X34389222Y-2117910D03*
X34122946Y-7527408D03*
X34332783Y-40444562D03*
X34134849Y-43499867D03*
X34296994Y-46327646D03*
X35133895Y-4106887D03*
X35009581Y-9866607D03*
X35099327Y-25800541D03*
X34815298Y-48119829D03*
X35655350Y-6250966D03*
X35568364Y-11755446D03*
X35810053Y-41985198D03*
X35701395Y-44914529D03*
X36355016Y-1486670D03*
X36390137Y-8306486D03*
X36432701Y-19693503D03*
X36207528Y-27258941D03*
X36494199Y-47045750D03*
X37194953Y-3487371D03*
X37073193Y-10372042D03*
X36953550Y-33622269D03*
X37113067Y-43369558D03*
X37907961Y-5739013D03*
X37947042Y-25999408D03*
X37797294Y-45574028D03*
X37757137Y-48276542D03*
X38567021Y-1923063D03*
X38635010Y-7775286D03*
X38409088Y-18838034D03*
X38351105Y-27978940D03*
X38446683Y-42076021D03*
X39021327Y-4228163D03*
X39139204Y-9712653D03*
X39271158Y-34351293D03*
X39325524Y-44101014D03*
X39283384Y-46782647D03*
X39923613Y-6156423D03*
X39855341Y-26463075D03*
X40673342Y-1283290D03*
X40511082Y-8250589D03*
X40488667Y-18170452D03*
X40746810Y-42601738D03*
X40648433Y-45373693D03*
X40527277Y-48363230D03*
X41168804Y-3571669D03*
X41270501Y-10360581D03*
X41290584Y-27851205D03*
X41289436Y-35135028D03*
X41907281Y-5597321D03*
X41925048Y-25253136D03*
X42074534Y-44053826D03*
X42124876Y-46786471D03*
X42824650Y-1902210D03*
X42849907Y-7627364D03*
X42601726Y-17480985D03*
X43523239Y-4058100D03*
X43377226Y-9921503D03*
X43535924Y-26469438D03*
X43329607Y-35655793D03*
X43231195Y-45450409D03*
X43479531Y-48349300D03*
X43901943Y-6285617D03*
X44035149Y-43253910D03*
X44625686Y-1524207D03*
X44821894Y-8384814D03*
X44770189Y-16627302D03*
X44892040Y-25295227D03*
X44805987Y-46727185D03*
X45447653Y-3626995D03*
X45361154Y-35011855D03*
X45495942Y-44682358D03*
X46173121Y-5598558D03*
X46339162Y-26489482D03*
X46260250Y-37003027D03*
X46239498Y-48161547D03*
X46780859Y-2156631D03*
X46922992Y-46175599D03*
X47417023Y-4011741D03*
X47460811Y-6907333D03*
X47568902Y-15993032D03*
X47715506Y-25335065D03*
X47630655Y-27980862D03*
X47427088Y-35563848D03*
X48352872Y-18005108D03*
X48256360Y-44714519D03*
X48423392Y-47610572D03*
X48997404Y-1288820D03*
X48869860Y-5543706D03*
X49140315Y-29230968D03*
X49535475Y-3355494D03*
X49772495Y-7769664D03*
X49780453Y-15480949D03*
X49653641Y-19487678D03*
X49639288Y-27140372D03*
X49626214Y-36353930D03*
X49839041Y-46139642D03*
X50522380Y-30675265D03*
X50209972Y-48286785D03*
X51080185Y-2062923D03*
X51104249Y-4803263D03*
X51035241Y-8952118D03*
X51122300Y-28699975D03*
X50955448Y-37890921D03*
X51756839Y-7110357D03*
X51738360Y-25907522D03*
X52381355Y-3371071D03*
X52492637Y-10485277D03*
X52320543Y-39143300D03*
X52588131Y-45336242D03*
X53245705Y-1360762D03*
X53065186Y-5744898D03*
X53237910Y-8317625D03*
X53176320Y-47583486D03*
X54596871Y-2876174D03*
X54574285Y-7013082D03*
X55321226Y-4700864D03*
X55174233Y-46794003D03*
X55927901Y-1485307D03*
X56518810Y-3443856D03*
X56566743Y-6220261D03*
X56687657Y-45458775D03*
X56673421Y-48109812D03*
X57977822Y-2056770D03*
X58180252Y-5019740D03*
X58168377Y-7691114D03*
X58126187Y-47036725D03*
X59312260Y-3468882D03*
X59421158Y-6355292D03*
X59557985Y-48114793D03*
X60172804Y-1266416D03*
X60001907Y-8382681D03*
X60259191Y-46182682D03*
X61013297Y-4778079D03*
X60903211Y-44239403D03*
X61606793Y-2662600D03*
X61477997Y-6874300D03*
X61665731Y-41112789D03*
X61693992Y-47522776D03*
X62374189Y-9131594D03*
X62408372Y-45578233D03*
X63094184Y-1327659D03*
X62980996Y-4252447D03*
X63016609Y-42719135D03*
X63827581Y-6191650D03*
X63820567Y-14834481D03*
X63597730Y-17594162D03*
X63598656Y-22403947D03*
X63511899Y-27266603D03*
X63782222Y-32259269D03*
X63808750Y-35047730D03*
X63582657Y-40537206D03*
X63674806Y-47030109D03*
X64421328Y-2768179D03*
X64228159Y-8496817D03*
X64501786Y-43970960D03*
X64904966Y-4901817D03*
X65156398Y-16209476D03*
X65031828Y-33416121D03*
X65003110Y-41896456D03*
X64960279Y-48339230D03*
X65918972Y-1302302D03*
X65890726Y-7113491D03*
X65704697Y-9868911D03*
X65808759Y-18167122D03*
X65766665Y-39852536D03*
X65754842Y-45440810D03*
X66499903Y-3577697D03*
X66632430Y-27291512D03*
X66366552Y-32076193D03*
X66505756Y-43376455D03*
X67261852Y-5593417D03*
X67305454Y-8443243D03*
X67020683Y-15423839D03*
X67172051Y-34273273D03*
X67004113Y-41418729D03*
X67030466Y-46715950D03*
X67794651Y-2137392D03*
X68024120Y-10496282D03*
X67948713Y-17468025D03*
X67727576Y-39092763D03*
X67935966Y-44608810D03*
X68646384Y-4209441D03*
X68613196Y-6846626D03*
X68513008Y-31334238D03*
X68575472Y-42677267D03*
X68495658Y-48442443D03*
X69368479Y-8930566D03*
X69396493Y-27237711D03*
X69160901Y-33452674D03*
X69131360Y-40510328D03*
X69214933Y-46092766D03*
X70031961Y-1386514D03*
X70034976Y-5740695D03*
X69902395Y-11140651D03*
X69820948Y-16667033D03*
X69851620Y-38380295D03*
X69876035Y-44240328D03*
X70577724Y-3400756D03*
X70753773Y-7506451D03*
X70604360Y-18737784D03*
X70806008Y-32311700D03*
X70755065Y-41841114D03*
X70500409Y-47418940D03*
X71239152Y-9742466D03*
X71288418Y-40039795D03*
X71345314Y-45452740D03*
X72220545Y-2124060D03*
X72109400Y-4952126D03*
X72193130Y-12001554D03*
X71960959Y-17469814D03*
X72085714Y-37686806D03*
X72156774Y-43235155D03*
X72744697Y-6868699D03*
X72832519Y-31385516D03*
X72667153Y-41194467D03*
X72793710Y-46775325D03*
X73492808Y-3606040D03*
X73396625Y-8942865D03*
X73442269Y-18701970D03*
X73500047Y-39033657D03*
X73539624Y-44805130D03*
X74134909Y-1424405D03*
X74343799Y-5623295D03*
X74292700Y-11219184D03*
X74098106Y-37135105D03*
X74273466Y-42605016D03*
X74348335Y-48241825D03*
X74762153Y-7681363D03*
X74931104Y-13309868D03*
X74794884Y-30806264D03*
X74985703Y-40431923D03*
X74783685Y-46255032D03*
X75737632Y-2618956D03*
X75725949Y-9619856D03*
X75549321Y-38326419D03*
X75672805Y-44175326D03*
X76400374Y-5026989D03*
X76413886Y-11917326D03*
X76206264Y-18772327D03*
X76291232Y-36435466D03*
X76196308Y-42091815D03*
X76222622Y-47598326D03*
X76956094Y-1305729D03*
X76959086Y-7096485D03*
X77050957Y-13959042D03*
X76931923Y-39741766D03*
X77084548Y-45481110D03*
X77564299Y-3421790D03*
X77715214Y-8900230D03*
X77639127Y-30613255D03*
X77706933Y-37610880D03*
X77815877Y-43311696D03*
X78532635Y-5614173D03*
X78483338Y-11234194D03*
X78398707Y-35600982D03*
X78473421Y-41159658D03*
X78500874Y-46796551D03*
X79026848Y-2082023D03*
X78932398Y-7523847D03*
X79077995Y-13229298D03*
X79037524Y-39315008D03*
X78940034Y-44862156D03*
X79908780Y-4109252D03*
X79946148Y-9721591D03*
X79630746Y-15329584D03*
X79925431Y-37183648D03*
X79756345Y-42768200D03*
X79860957Y-48173489D03*
X80539334Y-6394512D03*
X80591681Y-11733584D03*
X80383504Y-34436919D03*
X80377045Y-40702260D03*
X80341706Y-46106992D03*
X81123090Y-1432722D03*
X81096194Y-8360255D03*
X81197263Y-14039227D03*
X81057728Y-38496949D03*
X81178067Y-44245763D03*
X81861166Y-3595444D03*
X82009341Y-10397398D03*
X81749552Y-16219600D03*
X81769232Y-35550121D03*
X81819520Y-41878253D03*
X81974328Y-47563782D03*
X82459548Y-5513643D03*
X82609986Y-12714875D03*
X82422907Y-33536629D03*
X82684099Y-39845411D03*
X82552310Y-45524252D03*
X83176607Y-2143049D03*
X83306016Y-7657353D03*
X83378244Y-14518077D03*
X83198275Y-36987982D03*
X83449169Y-43350980D03*
X83952357Y-4114202D03*
X83994748Y-9778476D03*
X84124547Y-16653137D03*
X84110959Y-34860711D03*
X84110420Y-41193270D03*
X83892861Y-46870900D03*
X84821347Y-6296116D03*
X84572043Y-12027709D03*
X84537866Y-32941997D03*
X84510849Y-38577348D03*
X84741125Y-44871646D03*
X85269192Y-1407579D03*
X85442951Y-8533542D03*
X85272332Y-14055249D03*
X85441794Y-36412318D03*
X85210833Y-42673991D03*
X85534793Y-48169219D03*
X86069515Y-3642626D03*
X85991373Y-10305076D03*
X86126011Y-16160245D03*
X85916117Y-34377325D03*
X86038008Y-39775128D03*
X85979258Y-46346150D03*
X86824226Y-5604640D03*
X86745122Y-12685357D03*
X86880201Y-32113412D03*
X86624595Y-37909710D03*
X86875074Y-44168937D03*
X87420757Y-2218350D03*
X87556544Y-7560812D03*
X87376885Y-14611298D03*
X87347075Y-17452963D03*
X87345734Y-35593352D03*
X87512077Y-41207017D03*
X87410271Y-47720783D03*
X88035603Y-4157638D03*
X88168047Y-9629557D03*
X88053254Y-33617415D03*
X88314660Y-39303977D03*
X88296077Y-45484992D03*
X88771608Y-6150827D03*
X88922523Y-11833433D03*
X88926396Y-16215466D03*
X88739143Y-31468060D03*
X88910463Y-37116419D03*
X88785112Y-42507015D03*
X89560299Y-1334994D03*
X89433945Y-8302956D03*
X89434625Y-13917355D03*
X89688084Y-18002030D03*
X89707151Y-34865896D03*
X89739011Y-40558684D03*
X89602322Y-46954959D03*
X90223195Y-3387594D03*
X90341207Y-10351787D03*
X90415334Y-33028520D03*
X90265872Y-38591143D03*
X90160576Y-44211808D03*
X90924566Y-5509990D03*
X91090626Y-12420078D03*
X90818481Y-15263916D03*
X91114555Y-19533734D03*
X91137447Y-30183572D03*
X90803730Y-36258599D03*
X90825482Y-42126257D03*
X90959080Y-48416580D03*
X91790045Y-2112793D03*
X91825096Y-7538732D03*
X91706723Y-17377141D03*
X91732882Y-34295834D03*
X91777085Y-39747190D03*
X91581216Y-45572180D03*
X92422728Y-4013293D03*
X92498173Y-9841181D03*
X92363827Y-14072395D03*
X92390888Y-20958840D03*
X92340155Y-28772371D03*
X92321192Y-31314752D03*
X92263126Y-37621339D03*
X92501293Y-43206775D03*
X93227673Y-6325085D03*
X92999066Y-12032644D03*
X93209969Y-15981900D03*
X93199454Y-18838525D03*
X93092655Y-35840768D03*
X93026667Y-41383993D03*
X93152845Y-46873898D03*
X93896926Y-1294714D03*
X93770036Y-8537519D03*
X93891368Y-30086129D03*
X93748297Y-32885179D03*
X93792188Y-39120922D03*
X93818563Y-44715907D03*
X94638177Y-3527880D03*
X94543648Y-10398725D03*
X94628516Y-13216991D03*
X94528545Y-17610550D03*
X94588747Y-28100000D03*
X94356089Y-37078355D03*
X94625441Y-42813076D03*
X94620364Y-48319712D03*
X95013465Y-5531334D03*
X95139487Y-15354851D03*
X95258181Y-31526040D03*
X95264658Y-34156258D03*
X95107691Y-40446429D03*
X95316066Y-46173530D03*
X95955352Y-2080726D03*
X95762356Y-7623053D03*
X95938688Y-11812074D03*
X95912612Y-38514925D03*
X96026227Y-43929626D03*
X96748035Y-4086459D03*
X96646335Y-9844534D03*
X96426442Y-13982897D03*
X96519651Y-16786839D03*
X96674776Y-32914336D03*
X96545092Y-35707428D03*
X96738924Y-41835962D03*
X96450739Y-47591024D03*
X97312353Y-6397988D03*
X97500000Y-28100000D03*
X97276889Y-39919193D03*
X97166622Y-45374655D03*
X98116147Y-1399918D03*
X98074047Y-8411475D03*
X97958551Y-11229942D03*
X98067063Y-15435992D03*
X98038226Y-18190783D03*
X97879697Y-34196971D03*
X97872982Y-36972872D03*
X97846844Y-43414107D03*
X98799138Y-3492995D03*
X98545829Y-13368389D03*
X98621830Y-30834550D03*
X98835242Y-41343413D03*
X98674144Y-46919584D03*
X65900000Y-22800000D03*
X68400000Y-22600000D03*
X70700000Y-23000000D03*
X74400000Y-23000000D03*
X77700000Y-23400000D03*
X79100000Y-19600000D03*
X38300000Y-11400000D03*
X1804999Y-22374999D03*
X1804999Y-27274999D03*
X1804999Y-30774999D03*
X3204999Y-27974999D03*
X3904999Y-22374999D03*
X3904999Y-30774999D03*
X4604999Y-27274999D03*
X6004999Y-19574999D03*
X6004999Y-21674999D03*
X6004999Y-28674999D03*
X6004999Y-30774999D03*
X7404999Y-20274999D03*
X7404999Y-30074999D03*
X8804999Y-19574999D03*
X8804999Y-30774999D03*
X10204999Y-30074999D03*
X10904999Y-19574999D03*
X1200000Y-19200000D03*
X3300000Y-19200000D03*
X7800000Y-19300000D03*
X8500000Y-29500000D03*
X3200000Y-27000000D03*
X2800000Y-23400000D03*
X6100000Y-23300000D03*
X7400000Y-21800000D03*
X30000000Y-26700000D03*
X35500000Y-33500000D03*
X35500000Y-19800000D03*
X39600000Y-19300000D03*
X41900000Y-18900000D03*
X44000000Y-18800000D03*
X43800000Y-28600000D03*
X45800000Y-28500000D03*
X45800000Y-18400000D03*
X46600000Y-16700000D03*
X53700000Y-17000000D03*
X55800000Y-17200000D03*
X56600000Y-16400000D03*
X52600000Y-11800000D03*
X51000000Y-10100000D03*
X52200000Y-27500000D03*
X54000000Y-26300000D03*
X54700000Y-27400000D03*
X55100000Y-26200000D03*
X57400000Y-41600000D03*
X52700000Y-41000000D03*
X51200000Y-39400000D03*
X49100000Y-38700000D03*
X55300000Y-36000000D03*
X53900000Y-37400000D03*
X53600000Y-36400000D03*
X51900000Y-36500000D03*
X52500000Y-37600000D03*
X54800000Y-48700000D03*
X55400000Y-32300000D03*
X57700000Y-12500000D03*
X49800000Y-43900000D03*
X49100000Y-43900000D03*
X57300000Y-13300000D03*
X57200000Y-42500000D03*
X55000000Y-33200000D03*
%TO.N,Net-(R5-Pad2)*%
X54100000Y-25000000D03*
X84300000Y-25000000D03*
%TO.N,/VOUT*%
X99100000Y-25000000D03*
X97500000Y-23000000D03*
X96500000Y-23000000D03*
X95500000Y-23000000D03*
X94500000Y-23000000D03*
X97500000Y-27000000D03*
X96500000Y-27000000D03*
X95500000Y-27000000D03*
X94500000Y-27000000D03*
X93500000Y-27000000D03*
X92500000Y-27000000D03*
X93500000Y-23000000D03*
X92500000Y-23000000D03*
X87750000Y-25000000D03*
X55500000Y-12600000D03*
X55500000Y-11800000D03*
X55500000Y-11000000D03*
X53200000Y-20200000D03*
X53200000Y-32400000D03*
X53200000Y-31600000D03*
X53200000Y-30800000D03*
X55500000Y-41600000D03*
X55500000Y-40800000D03*
X55500000Y-40000000D03*
X98300000Y-26600000D03*
X98900000Y-25900000D03*
X98900000Y-24100000D03*
X98300000Y-23400000D03*
X91500000Y-23000000D03*
X90500000Y-23000000D03*
X89500000Y-23000000D03*
X88500000Y-23000000D03*
X91500000Y-27000000D03*
X90500000Y-27000000D03*
X89500000Y-27000000D03*
X88500000Y-27000000D03*
X53200000Y-21000000D03*
X53200000Y-21700000D03*
%TO.N,/VIN*%
X49700000Y-10700000D03*
X49700000Y-11500000D03*
X49700000Y-12300000D03*
X49700000Y-13100000D03*
X49700000Y-13900000D03*
X47400000Y-19900000D03*
X47400000Y-20700000D03*
X47400000Y-21500000D03*
X47400000Y-22300000D03*
X47400000Y-23100000D03*
X47400000Y-30400000D03*
X47400000Y-31200000D03*
X47400000Y-32000000D03*
X47400000Y-32800000D03*
X47400000Y-33600000D03*
X49700000Y-39700000D03*
X49700000Y-40500000D03*
X49700000Y-41300000D03*
X49700000Y-42100000D03*
X49700000Y-42900000D03*
X13900000Y-24100000D03*
X13900000Y-25900000D03*
X13900000Y-24700000D03*
X13900000Y-25300000D03*
X12100000Y-26200000D03*
X12100000Y-23800000D03*
X12700000Y-23800000D03*
X13300000Y-23800000D03*
X13300000Y-26200000D03*
X12700000Y-26200000D03*
X53200000Y-35700000D03*
X49300000Y-34000000D03*
X55400000Y-16000000D03*
X55400006Y-45000000D03*
X51500000Y-14200000D03*
X51500000Y-43200000D03*
%TO.N,Net-(C11-Pad1)*%
X56500000Y-43800000D03*
X54450000Y-34550000D03*
X56650000Y-14800000D03*
X54100000Y-24000000D03*
%TD*%
D11*
%TO.N,Net-(C11-Pad1)*%
X57250218Y-14120188D02*
X57327904Y-14172096D01*
X57379812Y-14249782D01*
X57400000Y-14351272D01*
X57400000Y-15073554D01*
X57372835Y-15299084D01*
X57135178Y-16271316D01*
X57128864Y-16239571D01*
X57087403Y-16139477D01*
X57027213Y-16049396D01*
X56950604Y-15972787D01*
X56860523Y-15912597D01*
X56760429Y-15871136D01*
X56654170Y-15850000D01*
X56545830Y-15850000D01*
X56439571Y-15871136D01*
X56339477Y-15912597D01*
X56249396Y-15972787D01*
X56172787Y-16049396D01*
X56112597Y-16139477D01*
X56071136Y-16239571D01*
X56050000Y-16345830D01*
X56050000Y-16454170D01*
X56071136Y-16560429D01*
X56112597Y-16660523D01*
X56172787Y-16750604D01*
X56249396Y-16827213D01*
X56339477Y-16887403D01*
X56439571Y-16928864D01*
X56545830Y-16950000D01*
X56654170Y-16950000D01*
X56760429Y-16928864D01*
X56860523Y-16887403D01*
X56950604Y-16827213D01*
X57015044Y-16762773D01*
X56504695Y-18850566D01*
X56502444Y-18863291D01*
X56483479Y-19034345D01*
X56483967Y-19060134D01*
X56509385Y-19230349D01*
X56516452Y-19255154D01*
X56584560Y-19413206D01*
X56597737Y-19435380D01*
X56704006Y-19570754D01*
X56722415Y-19588818D01*
X56859774Y-19692509D01*
X56882193Y-19705265D01*
X57041504Y-19770373D01*
X57066439Y-19776970D01*
X57237104Y-19799165D01*
X57250000Y-19800000D01*
X57948728Y-19800000D01*
X58050218Y-19820188D01*
X58127904Y-19872096D01*
X58179812Y-19949782D01*
X58200000Y-20051272D01*
X58200000Y-20385786D01*
X58200482Y-20395588D01*
X58219697Y-20590679D01*
X58223521Y-20609905D01*
X58280426Y-20797498D01*
X58287928Y-20815610D01*
X58380338Y-20988497D01*
X58391229Y-21004797D01*
X58515592Y-21156333D01*
X58522182Y-21163604D01*
X59132923Y-21774345D01*
X59247922Y-21914471D01*
X59331045Y-22069984D01*
X59382232Y-22238728D01*
X59400000Y-22419122D01*
X59400000Y-23480624D01*
X59377095Y-23471136D01*
X59270836Y-23450000D01*
X59162496Y-23450000D01*
X59056237Y-23471136D01*
X58956143Y-23512597D01*
X58866062Y-23572787D01*
X58789453Y-23649396D01*
X58729263Y-23739477D01*
X58687802Y-23839571D01*
X58666666Y-23945830D01*
X58666666Y-24054170D01*
X58687802Y-24160429D01*
X58729263Y-24260523D01*
X58789453Y-24350604D01*
X58866062Y-24427213D01*
X58956143Y-24487403D01*
X59056237Y-24528864D01*
X59162496Y-24550000D01*
X59270836Y-24550000D01*
X59377095Y-24528864D01*
X59400000Y-24519376D01*
X59400000Y-25480624D01*
X59377095Y-25471136D01*
X59270836Y-25450000D01*
X59162496Y-25450000D01*
X59056237Y-25471136D01*
X58956143Y-25512597D01*
X58866062Y-25572787D01*
X58789453Y-25649396D01*
X58729263Y-25739477D01*
X58687802Y-25839571D01*
X58666666Y-25945830D01*
X58666666Y-26054170D01*
X58687802Y-26160429D01*
X58729263Y-26260523D01*
X58789453Y-26350604D01*
X58866062Y-26427213D01*
X58956143Y-26487403D01*
X59056237Y-26528864D01*
X59162496Y-26550000D01*
X59270836Y-26550000D01*
X59377095Y-26528864D01*
X59400000Y-26519376D01*
X59400000Y-27995092D01*
X59382232Y-28175485D01*
X59331045Y-28344229D01*
X59247920Y-28499745D01*
X59136054Y-28636054D01*
X58999745Y-28747920D01*
X58844229Y-28831045D01*
X58675485Y-28882232D01*
X58495092Y-28900000D01*
X57914214Y-28900000D01*
X57904412Y-28900482D01*
X57709321Y-28919697D01*
X57690095Y-28923521D01*
X57502502Y-28980426D01*
X57484390Y-28987928D01*
X57311503Y-29080338D01*
X57295203Y-29091229D01*
X57143667Y-29215592D01*
X57136396Y-29222182D01*
X55522182Y-30836396D01*
X55515592Y-30843667D01*
X55391229Y-30995203D01*
X55380338Y-31011503D01*
X55287928Y-31184390D01*
X55280426Y-31202502D01*
X55223521Y-31390095D01*
X55219697Y-31409321D01*
X55200482Y-31604412D01*
X55200000Y-31614214D01*
X55200000Y-31787527D01*
X55139477Y-31812597D01*
X55049396Y-31872787D01*
X54972787Y-31949396D01*
X54912597Y-32039477D01*
X54871136Y-32139571D01*
X54850000Y-32245830D01*
X54850000Y-32354170D01*
X54871136Y-32460429D01*
X54912597Y-32560523D01*
X54972383Y-32650000D01*
X54945830Y-32650000D01*
X54839571Y-32671136D01*
X54739477Y-32712597D01*
X54649396Y-32772787D01*
X54572787Y-32849396D01*
X54512597Y-32939477D01*
X54471136Y-33039571D01*
X54450000Y-33145830D01*
X54450000Y-33254170D01*
X54471136Y-33360429D01*
X54512597Y-33460523D01*
X54572787Y-33550604D01*
X54649396Y-33627213D01*
X54739477Y-33687403D01*
X54839571Y-33728864D01*
X54945830Y-33750000D01*
X55054170Y-33750000D01*
X55160429Y-33728864D01*
X55200000Y-33712473D01*
X55200000Y-34959256D01*
X55200697Y-34971041D01*
X55228474Y-35205098D01*
X55233991Y-35228013D01*
X55315779Y-35449067D01*
X55316188Y-35450000D01*
X55245830Y-35450000D01*
X55139571Y-35471136D01*
X55039477Y-35512597D01*
X54949396Y-35572787D01*
X54872787Y-35649396D01*
X54812597Y-35739477D01*
X54771136Y-35839571D01*
X54750000Y-35945830D01*
X54750000Y-36054170D01*
X54771136Y-36160429D01*
X54812597Y-36260523D01*
X54872787Y-36350604D01*
X54949396Y-36427213D01*
X55039477Y-36487403D01*
X55139571Y-36528864D01*
X55245830Y-36550000D01*
X55354170Y-36550000D01*
X55460429Y-36528864D01*
X55560523Y-36487403D01*
X55650604Y-36427213D01*
X55727213Y-36350604D01*
X55754732Y-36309419D01*
X57398701Y-39525879D01*
X57474318Y-39730255D01*
X57500000Y-39946656D01*
X57500000Y-41059116D01*
X57454170Y-41050000D01*
X57345830Y-41050000D01*
X57239571Y-41071136D01*
X57139477Y-41112597D01*
X57049396Y-41172787D01*
X56972787Y-41249396D01*
X56912597Y-41339477D01*
X56871136Y-41439571D01*
X56850000Y-41545830D01*
X56850000Y-41654170D01*
X56871136Y-41760429D01*
X56912597Y-41860523D01*
X56972787Y-41950604D01*
X57006866Y-41984683D01*
X56939477Y-42012597D01*
X56849396Y-42072787D01*
X56772787Y-42149396D01*
X56712597Y-42239477D01*
X56671136Y-42339571D01*
X56650000Y-42445830D01*
X56650000Y-42554170D01*
X56671136Y-42660429D01*
X56712597Y-42760523D01*
X56772787Y-42850604D01*
X56849396Y-42927213D01*
X56939477Y-42987403D01*
X57039571Y-43028864D01*
X57145830Y-43050000D01*
X57254170Y-43050000D01*
X57360429Y-43028864D01*
X57460523Y-42987403D01*
X57500000Y-42961025D01*
X57500000Y-43594385D01*
X57481832Y-43755625D01*
X57430108Y-43903445D01*
X57346790Y-44036045D01*
X57236045Y-44146790D01*
X57103445Y-44230108D01*
X56955625Y-44281832D01*
X56800000Y-44299367D01*
X56644375Y-44281832D01*
X56496555Y-44230108D01*
X56363955Y-44146790D01*
X56253210Y-44036045D01*
X56169892Y-43903445D01*
X56118168Y-43755625D01*
X56100000Y-43594385D01*
X56100000Y-39940744D01*
X56099303Y-39928959D01*
X56071526Y-39694902D01*
X56066009Y-39671987D01*
X55984221Y-39450933D01*
X55979478Y-39440122D01*
X53897097Y-35365898D01*
X53823357Y-35169185D01*
X53795928Y-34960902D01*
X53740241Y-31703231D01*
X53750000Y-31654170D01*
X53750000Y-31545830D01*
X53736380Y-31477357D01*
X53727596Y-30963490D01*
X53728864Y-30960429D01*
X53750000Y-30854170D01*
X53750000Y-30745830D01*
X53728864Y-30639571D01*
X53721766Y-30622435D01*
X53665756Y-27345830D01*
X54150000Y-27345830D01*
X54150000Y-27454170D01*
X54171136Y-27560429D01*
X54212597Y-27660523D01*
X54272787Y-27750604D01*
X54349396Y-27827213D01*
X54439477Y-27887403D01*
X54539571Y-27928864D01*
X54645830Y-27950000D01*
X54754170Y-27950000D01*
X54860429Y-27928864D01*
X54960523Y-27887403D01*
X55050604Y-27827213D01*
X55127213Y-27750604D01*
X55187403Y-27660523D01*
X55228864Y-27560429D01*
X55250000Y-27454170D01*
X55250000Y-27345830D01*
X55228864Y-27239571D01*
X55187403Y-27139477D01*
X55127213Y-27049396D01*
X55050604Y-26972787D01*
X54960523Y-26912597D01*
X54860429Y-26871136D01*
X54754170Y-26850000D01*
X54645830Y-26850000D01*
X54539571Y-26871136D01*
X54439477Y-26912597D01*
X54349396Y-26972787D01*
X54272787Y-27049396D01*
X54212597Y-27139477D01*
X54171136Y-27239571D01*
X54150000Y-27345830D01*
X53665756Y-27345830D01*
X53655248Y-26731123D01*
X53739477Y-26787403D01*
X53839571Y-26828864D01*
X53945830Y-26850000D01*
X54054170Y-26850000D01*
X54160429Y-26828864D01*
X54260523Y-26787403D01*
X54350604Y-26727213D01*
X54427213Y-26650604D01*
X54487403Y-26560523D01*
X54528864Y-26460429D01*
X54550000Y-26354170D01*
X54550000Y-26254170D01*
X54571136Y-26360429D01*
X54612597Y-26460523D01*
X54672787Y-26550604D01*
X54749396Y-26627213D01*
X54839477Y-26687403D01*
X54939571Y-26728864D01*
X55045830Y-26750000D01*
X55154170Y-26750000D01*
X55260429Y-26728864D01*
X55360523Y-26687403D01*
X55450604Y-26627213D01*
X55527213Y-26550604D01*
X55587403Y-26460523D01*
X55628864Y-26360429D01*
X55650000Y-26254170D01*
X55650000Y-26145830D01*
X55628864Y-26039571D01*
X55587403Y-25939477D01*
X55527213Y-25849396D01*
X55450604Y-25772787D01*
X55360523Y-25712597D01*
X55260429Y-25671136D01*
X55154170Y-25650000D01*
X55045830Y-25650000D01*
X54939571Y-25671136D01*
X54839477Y-25712597D01*
X54749396Y-25772787D01*
X54672787Y-25849396D01*
X54612597Y-25939477D01*
X54571136Y-26039571D01*
X54550000Y-26145830D01*
X54550000Y-26245830D01*
X54528864Y-26139571D01*
X54487403Y-26039477D01*
X54427213Y-25949396D01*
X54350604Y-25872787D01*
X54260523Y-25812597D01*
X54160429Y-25771136D01*
X54054170Y-25750000D01*
X53945830Y-25750000D01*
X53839571Y-25771136D01*
X53739477Y-25812597D01*
X53649396Y-25872787D01*
X53640723Y-25881460D01*
X53630569Y-25287420D01*
X53672787Y-25350604D01*
X53749396Y-25427213D01*
X53839477Y-25487403D01*
X53939571Y-25528864D01*
X54045830Y-25550000D01*
X54154170Y-25550000D01*
X54260429Y-25528864D01*
X54360523Y-25487403D01*
X54450604Y-25427213D01*
X54527213Y-25350604D01*
X54587403Y-25260523D01*
X54628864Y-25160429D01*
X54650000Y-25054170D01*
X54650000Y-24945830D01*
X54628864Y-24839571D01*
X54587403Y-24739477D01*
X54527213Y-24649396D01*
X54450604Y-24572787D01*
X54360523Y-24512597D01*
X54260429Y-24471136D01*
X54154170Y-24450000D01*
X54045830Y-24450000D01*
X53939571Y-24471136D01*
X53839477Y-24512597D01*
X53749396Y-24572787D01*
X53672787Y-24649396D01*
X53620988Y-24726919D01*
X53602684Y-23656157D01*
X53639921Y-23376108D01*
X55339018Y-17500065D01*
X55372787Y-17550604D01*
X55449396Y-17627213D01*
X55539477Y-17687403D01*
X55639571Y-17728864D01*
X55745830Y-17750000D01*
X55854170Y-17750000D01*
X55960429Y-17728864D01*
X56060523Y-17687403D01*
X56150604Y-17627213D01*
X56227213Y-17550604D01*
X56287403Y-17460523D01*
X56328864Y-17360429D01*
X56350000Y-17254170D01*
X56350000Y-17145830D01*
X56328864Y-17039571D01*
X56287403Y-16939477D01*
X56227213Y-16849396D01*
X56150604Y-16772787D01*
X56060523Y-16712597D01*
X55960429Y-16671136D01*
X55854170Y-16650000D01*
X55745830Y-16650000D01*
X55639571Y-16671136D01*
X55570427Y-16699777D01*
X55627933Y-16500902D01*
X55660523Y-16487403D01*
X55750604Y-16427213D01*
X55827213Y-16350604D01*
X55887403Y-16260523D01*
X55928864Y-16160429D01*
X55950000Y-16054170D01*
X55950000Y-15945830D01*
X55928864Y-15839571D01*
X55887403Y-15739477D01*
X55859974Y-15698427D01*
X55956711Y-15363879D01*
X55959657Y-15350128D01*
X55999011Y-15072351D01*
X56000000Y-15058324D01*
X56000000Y-14351272D01*
X56020188Y-14249782D01*
X56072096Y-14172096D01*
X56149782Y-14120188D01*
X56251272Y-14100000D01*
X57148728Y-14100000D01*
X57250218Y-14120188D01*
%TA.AperFunction,Conductor*%
D12*
G36*
X57250218Y-14120188D02*
G01*
X57327904Y-14172096D01*
X57379812Y-14249782D01*
X57400000Y-14351272D01*
X57400000Y-15073554D01*
X57372835Y-15299084D01*
X57135178Y-16271316D01*
X57128864Y-16239571D01*
X57087403Y-16139477D01*
X57027213Y-16049396D01*
X56950604Y-15972787D01*
X56860523Y-15912597D01*
X56760429Y-15871136D01*
X56654170Y-15850000D01*
X56545830Y-15850000D01*
X56439571Y-15871136D01*
X56339477Y-15912597D01*
X56249396Y-15972787D01*
X56172787Y-16049396D01*
X56112597Y-16139477D01*
X56071136Y-16239571D01*
X56050000Y-16345830D01*
X56050000Y-16454170D01*
X56071136Y-16560429D01*
X56112597Y-16660523D01*
X56172787Y-16750604D01*
X56249396Y-16827213D01*
X56339477Y-16887403D01*
X56439571Y-16928864D01*
X56545830Y-16950000D01*
X56654170Y-16950000D01*
X56760429Y-16928864D01*
X56860523Y-16887403D01*
X56950604Y-16827213D01*
X57015044Y-16762773D01*
X56504695Y-18850566D01*
X56502444Y-18863291D01*
X56483479Y-19034345D01*
X56483967Y-19060134D01*
X56509385Y-19230349D01*
X56516452Y-19255154D01*
X56584560Y-19413206D01*
X56597737Y-19435380D01*
X56704006Y-19570754D01*
X56722415Y-19588818D01*
X56859774Y-19692509D01*
X56882193Y-19705265D01*
X57041504Y-19770373D01*
X57066439Y-19776970D01*
X57237104Y-19799165D01*
X57250000Y-19800000D01*
X57948728Y-19800000D01*
X58050218Y-19820188D01*
X58127904Y-19872096D01*
X58179812Y-19949782D01*
X58200000Y-20051272D01*
X58200000Y-20385786D01*
X58200482Y-20395588D01*
X58219697Y-20590679D01*
X58223521Y-20609905D01*
X58280426Y-20797498D01*
X58287928Y-20815610D01*
X58380338Y-20988497D01*
X58391229Y-21004797D01*
X58515592Y-21156333D01*
X58522182Y-21163604D01*
X59132923Y-21774345D01*
X59247922Y-21914471D01*
X59331045Y-22069984D01*
X59382232Y-22238728D01*
X59400000Y-22419122D01*
X59400000Y-23480624D01*
X59377095Y-23471136D01*
X59270836Y-23450000D01*
X59162496Y-23450000D01*
X59056237Y-23471136D01*
X58956143Y-23512597D01*
X58866062Y-23572787D01*
X58789453Y-23649396D01*
X58729263Y-23739477D01*
X58687802Y-23839571D01*
X58666666Y-23945830D01*
X58666666Y-24054170D01*
X58687802Y-24160429D01*
X58729263Y-24260523D01*
X58789453Y-24350604D01*
X58866062Y-24427213D01*
X58956143Y-24487403D01*
X59056237Y-24528864D01*
X59162496Y-24550000D01*
X59270836Y-24550000D01*
X59377095Y-24528864D01*
X59400000Y-24519376D01*
X59400000Y-25480624D01*
X59377095Y-25471136D01*
X59270836Y-25450000D01*
X59162496Y-25450000D01*
X59056237Y-25471136D01*
X58956143Y-25512597D01*
X58866062Y-25572787D01*
X58789453Y-25649396D01*
X58729263Y-25739477D01*
X58687802Y-25839571D01*
X58666666Y-25945830D01*
X58666666Y-26054170D01*
X58687802Y-26160429D01*
X58729263Y-26260523D01*
X58789453Y-26350604D01*
X58866062Y-26427213D01*
X58956143Y-26487403D01*
X59056237Y-26528864D01*
X59162496Y-26550000D01*
X59270836Y-26550000D01*
X59377095Y-26528864D01*
X59400000Y-26519376D01*
X59400000Y-27995092D01*
X59382232Y-28175485D01*
X59331045Y-28344229D01*
X59247920Y-28499745D01*
X59136054Y-28636054D01*
X58999745Y-28747920D01*
X58844229Y-28831045D01*
X58675485Y-28882232D01*
X58495092Y-28900000D01*
X57914214Y-28900000D01*
X57904412Y-28900482D01*
X57709321Y-28919697D01*
X57690095Y-28923521D01*
X57502502Y-28980426D01*
X57484390Y-28987928D01*
X57311503Y-29080338D01*
X57295203Y-29091229D01*
X57143667Y-29215592D01*
X57136396Y-29222182D01*
X55522182Y-30836396D01*
X55515592Y-30843667D01*
X55391229Y-30995203D01*
X55380338Y-31011503D01*
X55287928Y-31184390D01*
X55280426Y-31202502D01*
X55223521Y-31390095D01*
X55219697Y-31409321D01*
X55200482Y-31604412D01*
X55200000Y-31614214D01*
X55200000Y-31787527D01*
X55139477Y-31812597D01*
X55049396Y-31872787D01*
X54972787Y-31949396D01*
X54912597Y-32039477D01*
X54871136Y-32139571D01*
X54850000Y-32245830D01*
X54850000Y-32354170D01*
X54871136Y-32460429D01*
X54912597Y-32560523D01*
X54972383Y-32650000D01*
X54945830Y-32650000D01*
X54839571Y-32671136D01*
X54739477Y-32712597D01*
X54649396Y-32772787D01*
X54572787Y-32849396D01*
X54512597Y-32939477D01*
X54471136Y-33039571D01*
X54450000Y-33145830D01*
X54450000Y-33254170D01*
X54471136Y-33360429D01*
X54512597Y-33460523D01*
X54572787Y-33550604D01*
X54649396Y-33627213D01*
X54739477Y-33687403D01*
X54839571Y-33728864D01*
X54945830Y-33750000D01*
X55054170Y-33750000D01*
X55160429Y-33728864D01*
X55200000Y-33712473D01*
X55200000Y-34959256D01*
X55200697Y-34971041D01*
X55228474Y-35205098D01*
X55233991Y-35228013D01*
X55315779Y-35449067D01*
X55316188Y-35450000D01*
X55245830Y-35450000D01*
X55139571Y-35471136D01*
X55039477Y-35512597D01*
X54949396Y-35572787D01*
X54872787Y-35649396D01*
X54812597Y-35739477D01*
X54771136Y-35839571D01*
X54750000Y-35945830D01*
X54750000Y-36054170D01*
X54771136Y-36160429D01*
X54812597Y-36260523D01*
X54872787Y-36350604D01*
X54949396Y-36427213D01*
X55039477Y-36487403D01*
X55139571Y-36528864D01*
X55245830Y-36550000D01*
X55354170Y-36550000D01*
X55460429Y-36528864D01*
X55560523Y-36487403D01*
X55650604Y-36427213D01*
X55727213Y-36350604D01*
X55754732Y-36309419D01*
X57398701Y-39525879D01*
X57474318Y-39730255D01*
X57500000Y-39946656D01*
X57500000Y-41059116D01*
X57454170Y-41050000D01*
X57345830Y-41050000D01*
X57239571Y-41071136D01*
X57139477Y-41112597D01*
X57049396Y-41172787D01*
X56972787Y-41249396D01*
X56912597Y-41339477D01*
X56871136Y-41439571D01*
X56850000Y-41545830D01*
X56850000Y-41654170D01*
X56871136Y-41760429D01*
X56912597Y-41860523D01*
X56972787Y-41950604D01*
X57006866Y-41984683D01*
X56939477Y-42012597D01*
X56849396Y-42072787D01*
X56772787Y-42149396D01*
X56712597Y-42239477D01*
X56671136Y-42339571D01*
X56650000Y-42445830D01*
X56650000Y-42554170D01*
X56671136Y-42660429D01*
X56712597Y-42760523D01*
X56772787Y-42850604D01*
X56849396Y-42927213D01*
X56939477Y-42987403D01*
X57039571Y-43028864D01*
X57145830Y-43050000D01*
X57254170Y-43050000D01*
X57360429Y-43028864D01*
X57460523Y-42987403D01*
X57500000Y-42961025D01*
X57500000Y-43594385D01*
X57481832Y-43755625D01*
X57430108Y-43903445D01*
X57346790Y-44036045D01*
X57236045Y-44146790D01*
X57103445Y-44230108D01*
X56955625Y-44281832D01*
X56800000Y-44299367D01*
X56644375Y-44281832D01*
X56496555Y-44230108D01*
X56363955Y-44146790D01*
X56253210Y-44036045D01*
X56169892Y-43903445D01*
X56118168Y-43755625D01*
X56100000Y-43594385D01*
X56100000Y-39940744D01*
X56099303Y-39928959D01*
X56071526Y-39694902D01*
X56066009Y-39671987D01*
X55984221Y-39450933D01*
X55979478Y-39440122D01*
X53897097Y-35365898D01*
X53823357Y-35169185D01*
X53795928Y-34960902D01*
X53740241Y-31703231D01*
X53750000Y-31654170D01*
X53750000Y-31545830D01*
X53736380Y-31477357D01*
X53727596Y-30963490D01*
X53728864Y-30960429D01*
X53750000Y-30854170D01*
X53750000Y-30745830D01*
X53728864Y-30639571D01*
X53721766Y-30622435D01*
X53665756Y-27345830D01*
X54150000Y-27345830D01*
X54150000Y-27454170D01*
X54171136Y-27560429D01*
X54212597Y-27660523D01*
X54272787Y-27750604D01*
X54349396Y-27827213D01*
X54439477Y-27887403D01*
X54539571Y-27928864D01*
X54645830Y-27950000D01*
X54754170Y-27950000D01*
X54860429Y-27928864D01*
X54960523Y-27887403D01*
X55050604Y-27827213D01*
X55127213Y-27750604D01*
X55187403Y-27660523D01*
X55228864Y-27560429D01*
X55250000Y-27454170D01*
X55250000Y-27345830D01*
X55228864Y-27239571D01*
X55187403Y-27139477D01*
X55127213Y-27049396D01*
X55050604Y-26972787D01*
X54960523Y-26912597D01*
X54860429Y-26871136D01*
X54754170Y-26850000D01*
X54645830Y-26850000D01*
X54539571Y-26871136D01*
X54439477Y-26912597D01*
X54349396Y-26972787D01*
X54272787Y-27049396D01*
X54212597Y-27139477D01*
X54171136Y-27239571D01*
X54150000Y-27345830D01*
X53665756Y-27345830D01*
X53655248Y-26731123D01*
X53739477Y-26787403D01*
X53839571Y-26828864D01*
X53945830Y-26850000D01*
X54054170Y-26850000D01*
X54160429Y-26828864D01*
X54260523Y-26787403D01*
X54350604Y-26727213D01*
X54427213Y-26650604D01*
X54487403Y-26560523D01*
X54528864Y-26460429D01*
X54550000Y-26354170D01*
X54550000Y-26254170D01*
X54571136Y-26360429D01*
X54612597Y-26460523D01*
X54672787Y-26550604D01*
X54749396Y-26627213D01*
X54839477Y-26687403D01*
X54939571Y-26728864D01*
X55045830Y-26750000D01*
X55154170Y-26750000D01*
X55260429Y-26728864D01*
X55360523Y-26687403D01*
X55450604Y-26627213D01*
X55527213Y-26550604D01*
X55587403Y-26460523D01*
X55628864Y-26360429D01*
X55650000Y-26254170D01*
X55650000Y-26145830D01*
X55628864Y-26039571D01*
X55587403Y-25939477D01*
X55527213Y-25849396D01*
X55450604Y-25772787D01*
X55360523Y-25712597D01*
X55260429Y-25671136D01*
X55154170Y-25650000D01*
X55045830Y-25650000D01*
X54939571Y-25671136D01*
X54839477Y-25712597D01*
X54749396Y-25772787D01*
X54672787Y-25849396D01*
X54612597Y-25939477D01*
X54571136Y-26039571D01*
X54550000Y-26145830D01*
X54550000Y-26245830D01*
X54528864Y-26139571D01*
X54487403Y-26039477D01*
X54427213Y-25949396D01*
X54350604Y-25872787D01*
X54260523Y-25812597D01*
X54160429Y-25771136D01*
X54054170Y-25750000D01*
X53945830Y-25750000D01*
X53839571Y-25771136D01*
X53739477Y-25812597D01*
X53649396Y-25872787D01*
X53640723Y-25881460D01*
X53630569Y-25287420D01*
X53672787Y-25350604D01*
X53749396Y-25427213D01*
X53839477Y-25487403D01*
X53939571Y-25528864D01*
X54045830Y-25550000D01*
X54154170Y-25550000D01*
X54260429Y-25528864D01*
X54360523Y-25487403D01*
X54450604Y-25427213D01*
X54527213Y-25350604D01*
X54587403Y-25260523D01*
X54628864Y-25160429D01*
X54650000Y-25054170D01*
X54650000Y-24945830D01*
X54628864Y-24839571D01*
X54587403Y-24739477D01*
X54527213Y-24649396D01*
X54450604Y-24572787D01*
X54360523Y-24512597D01*
X54260429Y-24471136D01*
X54154170Y-24450000D01*
X54045830Y-24450000D01*
X53939571Y-24471136D01*
X53839477Y-24512597D01*
X53749396Y-24572787D01*
X53672787Y-24649396D01*
X53620988Y-24726919D01*
X53602684Y-23656157D01*
X53639921Y-23376108D01*
X55339018Y-17500065D01*
X55372787Y-17550604D01*
X55449396Y-17627213D01*
X55539477Y-17687403D01*
X55639571Y-17728864D01*
X55745830Y-17750000D01*
X55854170Y-17750000D01*
X55960429Y-17728864D01*
X56060523Y-17687403D01*
X56150604Y-17627213D01*
X56227213Y-17550604D01*
X56287403Y-17460523D01*
X56328864Y-17360429D01*
X56350000Y-17254170D01*
X56350000Y-17145830D01*
X56328864Y-17039571D01*
X56287403Y-16939477D01*
X56227213Y-16849396D01*
X56150604Y-16772787D01*
X56060523Y-16712597D01*
X55960429Y-16671136D01*
X55854170Y-16650000D01*
X55745830Y-16650000D01*
X55639571Y-16671136D01*
X55570427Y-16699777D01*
X55627933Y-16500902D01*
X55660523Y-16487403D01*
X55750604Y-16427213D01*
X55827213Y-16350604D01*
X55887403Y-16260523D01*
X55928864Y-16160429D01*
X55950000Y-16054170D01*
X55950000Y-15945830D01*
X55928864Y-15839571D01*
X55887403Y-15739477D01*
X55859974Y-15698427D01*
X55956711Y-15363879D01*
X55959657Y-15350128D01*
X55999011Y-15072351D01*
X56000000Y-15058324D01*
X56000000Y-14351272D01*
X56020188Y-14249782D01*
X56072096Y-14172096D01*
X56149782Y-14120188D01*
X56251272Y-14100000D01*
X57148728Y-14100000D01*
X57250218Y-14120188D01*
G37*
%TD.AperFunction*%
%TD*%
D13*
%TO.N,GND*%
X99373000Y-23769322D02*
X99348185Y-23732184D01*
X99267816Y-23651815D01*
X99173312Y-23588669D01*
X99068305Y-23545174D01*
X98956830Y-23523000D01*
X98863838Y-23523000D01*
X98877000Y-23456830D01*
X98877000Y-23343170D01*
X98854826Y-23231695D01*
X98811331Y-23126688D01*
X98748185Y-23032184D01*
X98667816Y-22951815D01*
X98573312Y-22888669D01*
X98468305Y-22845174D01*
X98356830Y-22823000D01*
X98243170Y-22823000D01*
X98131695Y-22845174D01*
X98063154Y-22873564D01*
X98054826Y-22831695D01*
X98011331Y-22726688D01*
X97948185Y-22632184D01*
X97867816Y-22551815D01*
X97773312Y-22488669D01*
X97668305Y-22445174D01*
X97556830Y-22423000D01*
X97443170Y-22423000D01*
X97331695Y-22445174D01*
X97226688Y-22488669D01*
X97132184Y-22551815D01*
X97051815Y-22632184D01*
X97000000Y-22709730D01*
X96948185Y-22632184D01*
X96867816Y-22551815D01*
X96773312Y-22488669D01*
X96668305Y-22445174D01*
X96556830Y-22423000D01*
X96443170Y-22423000D01*
X96331695Y-22445174D01*
X96226688Y-22488669D01*
X96132184Y-22551815D01*
X96051815Y-22632184D01*
X96000000Y-22709730D01*
X95948185Y-22632184D01*
X95867816Y-22551815D01*
X95773312Y-22488669D01*
X95668305Y-22445174D01*
X95556830Y-22423000D01*
X95443170Y-22423000D01*
X95331695Y-22445174D01*
X95226688Y-22488669D01*
X95132184Y-22551815D01*
X95051815Y-22632184D01*
X95000000Y-22709730D01*
X94948185Y-22632184D01*
X94867816Y-22551815D01*
X94773312Y-22488669D01*
X94668305Y-22445174D01*
X94556830Y-22423000D01*
X94443170Y-22423000D01*
X94331695Y-22445174D01*
X94226688Y-22488669D01*
X94132184Y-22551815D01*
X94051815Y-22632184D01*
X94000000Y-22709730D01*
X93948185Y-22632184D01*
X93867816Y-22551815D01*
X93773312Y-22488669D01*
X93668305Y-22445174D01*
X93556830Y-22423000D01*
X93443170Y-22423000D01*
X93331695Y-22445174D01*
X93226688Y-22488669D01*
X93132184Y-22551815D01*
X93051815Y-22632184D01*
X93000000Y-22709730D01*
X92948185Y-22632184D01*
X92867816Y-22551815D01*
X92773312Y-22488669D01*
X92668305Y-22445174D01*
X92556830Y-22423000D01*
X92443170Y-22423000D01*
X92331695Y-22445174D01*
X92226688Y-22488669D01*
X92132184Y-22551815D01*
X92051815Y-22632184D01*
X92000000Y-22709730D01*
X91948185Y-22632184D01*
X91867816Y-22551815D01*
X91773312Y-22488669D01*
X91668305Y-22445174D01*
X91556830Y-22423000D01*
X91443170Y-22423000D01*
X91331695Y-22445174D01*
X91226688Y-22488669D01*
X91132184Y-22551815D01*
X91051815Y-22632184D01*
X91000000Y-22709730D01*
X90948185Y-22632184D01*
X90867816Y-22551815D01*
X90773312Y-22488669D01*
X90668305Y-22445174D01*
X90556830Y-22423000D01*
X90443170Y-22423000D01*
X90331695Y-22445174D01*
X90226688Y-22488669D01*
X90132184Y-22551815D01*
X90051815Y-22632184D01*
X90000000Y-22709730D01*
X89948185Y-22632184D01*
X89867816Y-22551815D01*
X89773312Y-22488669D01*
X89668305Y-22445174D01*
X89556830Y-22423000D01*
X89443170Y-22423000D01*
X89331695Y-22445174D01*
X89226688Y-22488669D01*
X89132184Y-22551815D01*
X89051815Y-22632184D01*
X89000000Y-22709730D01*
X88948185Y-22632184D01*
X88867816Y-22551815D01*
X88773312Y-22488669D01*
X88668305Y-22445174D01*
X88556830Y-22423000D01*
X88443170Y-22423000D01*
X88331695Y-22445174D01*
X88226688Y-22488669D01*
X88132184Y-22551815D01*
X88051815Y-22632184D01*
X87988669Y-22726688D01*
X87945174Y-22831695D01*
X87923000Y-22943170D01*
X87923000Y-23056830D01*
X87945174Y-23168305D01*
X87988669Y-23273312D01*
X88051815Y-23367816D01*
X88132184Y-23448185D01*
X88226688Y-23511331D01*
X88331695Y-23554826D01*
X88443170Y-23577000D01*
X88556830Y-23577000D01*
X88668305Y-23554826D01*
X88773312Y-23511331D01*
X88867816Y-23448185D01*
X88948185Y-23367816D01*
X89000000Y-23290270D01*
X89051815Y-23367816D01*
X89132184Y-23448185D01*
X89226688Y-23511331D01*
X89331695Y-23554826D01*
X89443170Y-23577000D01*
X89556830Y-23577000D01*
X89668305Y-23554826D01*
X89773312Y-23511331D01*
X89867816Y-23448185D01*
X89948185Y-23367816D01*
X90000000Y-23290270D01*
X90051815Y-23367816D01*
X90132184Y-23448185D01*
X90226688Y-23511331D01*
X90331695Y-23554826D01*
X90443170Y-23577000D01*
X90556830Y-23577000D01*
X90668305Y-23554826D01*
X90773312Y-23511331D01*
X90867816Y-23448185D01*
X90948185Y-23367816D01*
X91000000Y-23290270D01*
X91051815Y-23367816D01*
X91132184Y-23448185D01*
X91226688Y-23511331D01*
X91331695Y-23554826D01*
X91443170Y-23577000D01*
X91556830Y-23577000D01*
X91668305Y-23554826D01*
X91773312Y-23511331D01*
X91867816Y-23448185D01*
X91948185Y-23367816D01*
X92000000Y-23290270D01*
X92051815Y-23367816D01*
X92132184Y-23448185D01*
X92226688Y-23511331D01*
X92331695Y-23554826D01*
X92443170Y-23577000D01*
X92556830Y-23577000D01*
X92668305Y-23554826D01*
X92773312Y-23511331D01*
X92867816Y-23448185D01*
X92948185Y-23367816D01*
X93000000Y-23290270D01*
X93051815Y-23367816D01*
X93132184Y-23448185D01*
X93226688Y-23511331D01*
X93331695Y-23554826D01*
X93443170Y-23577000D01*
X93556830Y-23577000D01*
X93668305Y-23554826D01*
X93773312Y-23511331D01*
X93867816Y-23448185D01*
X93948185Y-23367816D01*
X94000000Y-23290270D01*
X94051815Y-23367816D01*
X94132184Y-23448185D01*
X94226688Y-23511331D01*
X94331695Y-23554826D01*
X94443170Y-23577000D01*
X94556830Y-23577000D01*
X94668305Y-23554826D01*
X94773312Y-23511331D01*
X94867816Y-23448185D01*
X94948185Y-23367816D01*
X95000000Y-23290270D01*
X95051815Y-23367816D01*
X95132184Y-23448185D01*
X95226688Y-23511331D01*
X95331695Y-23554826D01*
X95443170Y-23577000D01*
X95556830Y-23577000D01*
X95668305Y-23554826D01*
X95773312Y-23511331D01*
X95867816Y-23448185D01*
X95948185Y-23367816D01*
X96000000Y-23290270D01*
X96051815Y-23367816D01*
X96132184Y-23448185D01*
X96226688Y-23511331D01*
X96331695Y-23554826D01*
X96443170Y-23577000D01*
X96556830Y-23577000D01*
X96668305Y-23554826D01*
X96773312Y-23511331D01*
X96867816Y-23448185D01*
X96948185Y-23367816D01*
X97000000Y-23290270D01*
X97051815Y-23367816D01*
X97132184Y-23448185D01*
X97226688Y-23511331D01*
X97331695Y-23554826D01*
X97443170Y-23577000D01*
X97556830Y-23577000D01*
X97668305Y-23554826D01*
X97736846Y-23526436D01*
X97745174Y-23568305D01*
X97788669Y-23673312D01*
X97851815Y-23767816D01*
X97932184Y-23848185D01*
X98026688Y-23911331D01*
X98131695Y-23954826D01*
X98243170Y-23977000D01*
X98336162Y-23977000D01*
X98323000Y-24043170D01*
X98323000Y-24156830D01*
X98345174Y-24268305D01*
X98388669Y-24373312D01*
X98451815Y-24467816D01*
X98532184Y-24548185D01*
X98626688Y-24611331D01*
X98659201Y-24624798D01*
X98651815Y-24632184D01*
X98588669Y-24726688D01*
X98545174Y-24831695D01*
X98523000Y-24943170D01*
X98523000Y-25056830D01*
X98545174Y-25168305D01*
X98588669Y-25273312D01*
X98651815Y-25367816D01*
X98659201Y-25375202D01*
X98626688Y-25388669D01*
X98532184Y-25451815D01*
X98451815Y-25532184D01*
X98388669Y-25626688D01*
X98345174Y-25731695D01*
X98323000Y-25843170D01*
X98323000Y-25956830D01*
X98336162Y-26023000D01*
X98243170Y-26023000D01*
X98131695Y-26045174D01*
X98026688Y-26088669D01*
X97932184Y-26151815D01*
X97851815Y-26232184D01*
X97788669Y-26326688D01*
X97745174Y-26431695D01*
X97736846Y-26473564D01*
X97668305Y-26445174D01*
X97556830Y-26423000D01*
X97443170Y-26423000D01*
X97331695Y-26445174D01*
X97226688Y-26488669D01*
X97132184Y-26551815D01*
X97051815Y-26632184D01*
X97000000Y-26709730D01*
X96948185Y-26632184D01*
X96867816Y-26551815D01*
X96773312Y-26488669D01*
X96668305Y-26445174D01*
X96556830Y-26423000D01*
X96443170Y-26423000D01*
X96331695Y-26445174D01*
X96226688Y-26488669D01*
X96132184Y-26551815D01*
X96051815Y-26632184D01*
X96000000Y-26709730D01*
X95948185Y-26632184D01*
X95867816Y-26551815D01*
X95773312Y-26488669D01*
X95668305Y-26445174D01*
X95556830Y-26423000D01*
X95443170Y-26423000D01*
X95331695Y-26445174D01*
X95226688Y-26488669D01*
X95132184Y-26551815D01*
X95051815Y-26632184D01*
X95000000Y-26709730D01*
X94948185Y-26632184D01*
X94867816Y-26551815D01*
X94773312Y-26488669D01*
X94668305Y-26445174D01*
X94556830Y-26423000D01*
X94443170Y-26423000D01*
X94331695Y-26445174D01*
X94226688Y-26488669D01*
X94132184Y-26551815D01*
X94051815Y-26632184D01*
X94000000Y-26709730D01*
X93948185Y-26632184D01*
X93867816Y-26551815D01*
X93773312Y-26488669D01*
X93668305Y-26445174D01*
X93556830Y-26423000D01*
X93443170Y-26423000D01*
X93331695Y-26445174D01*
X93226688Y-26488669D01*
X93132184Y-26551815D01*
X93051815Y-26632184D01*
X93000000Y-26709730D01*
X92948185Y-26632184D01*
X92867816Y-26551815D01*
X92773312Y-26488669D01*
X92668305Y-26445174D01*
X92556830Y-26423000D01*
X92443170Y-26423000D01*
X92331695Y-26445174D01*
X92226688Y-26488669D01*
X92132184Y-26551815D01*
X92051815Y-26632184D01*
X92000000Y-26709730D01*
X91948185Y-26632184D01*
X91867816Y-26551815D01*
X91773312Y-26488669D01*
X91668305Y-26445174D01*
X91556830Y-26423000D01*
X91443170Y-26423000D01*
X91331695Y-26445174D01*
X91226688Y-26488669D01*
X91132184Y-26551815D01*
X91051815Y-26632184D01*
X91000000Y-26709730D01*
X90948185Y-26632184D01*
X90867816Y-26551815D01*
X90773312Y-26488669D01*
X90668305Y-26445174D01*
X90556830Y-26423000D01*
X90443170Y-26423000D01*
X90331695Y-26445174D01*
X90226688Y-26488669D01*
X90132184Y-26551815D01*
X90051815Y-26632184D01*
X90000000Y-26709730D01*
X89948185Y-26632184D01*
X89867816Y-26551815D01*
X89773312Y-26488669D01*
X89668305Y-26445174D01*
X89556830Y-26423000D01*
X89443170Y-26423000D01*
X89331695Y-26445174D01*
X89226688Y-26488669D01*
X89132184Y-26551815D01*
X89051815Y-26632184D01*
X89000000Y-26709730D01*
X88948185Y-26632184D01*
X88867816Y-26551815D01*
X88773312Y-26488669D01*
X88668305Y-26445174D01*
X88556830Y-26423000D01*
X88443170Y-26423000D01*
X88331695Y-26445174D01*
X88226688Y-26488669D01*
X88132184Y-26551815D01*
X88051815Y-26632184D01*
X87988669Y-26726688D01*
X87945174Y-26831695D01*
X87923000Y-26943170D01*
X87923000Y-27056830D01*
X87945174Y-27168305D01*
X87988669Y-27273312D01*
X88051815Y-27367816D01*
X88132184Y-27448185D01*
X88226688Y-27511331D01*
X88331695Y-27554826D01*
X88443170Y-27577000D01*
X88556830Y-27577000D01*
X88668305Y-27554826D01*
X88773312Y-27511331D01*
X88867816Y-27448185D01*
X88948185Y-27367816D01*
X89000000Y-27290270D01*
X89051815Y-27367816D01*
X89132184Y-27448185D01*
X89226688Y-27511331D01*
X89331695Y-27554826D01*
X89443170Y-27577000D01*
X89556830Y-27577000D01*
X89668305Y-27554826D01*
X89773312Y-27511331D01*
X89867816Y-27448185D01*
X89948185Y-27367816D01*
X90000000Y-27290270D01*
X90051815Y-27367816D01*
X90132184Y-27448185D01*
X90226688Y-27511331D01*
X90331695Y-27554826D01*
X90443170Y-27577000D01*
X90556830Y-27577000D01*
X90668305Y-27554826D01*
X90773312Y-27511331D01*
X90867816Y-27448185D01*
X90948185Y-27367816D01*
X91000000Y-27290270D01*
X91051815Y-27367816D01*
X91132184Y-27448185D01*
X91226688Y-27511331D01*
X91331695Y-27554826D01*
X91443170Y-27577000D01*
X91556830Y-27577000D01*
X91668305Y-27554826D01*
X91773312Y-27511331D01*
X91867816Y-27448185D01*
X91948185Y-27367816D01*
X92000000Y-27290270D01*
X92051815Y-27367816D01*
X92132184Y-27448185D01*
X92226688Y-27511331D01*
X92331695Y-27554826D01*
X92443170Y-27577000D01*
X92556830Y-27577000D01*
X92668305Y-27554826D01*
X92773312Y-27511331D01*
X92867816Y-27448185D01*
X92948185Y-27367816D01*
X93000000Y-27290270D01*
X93051815Y-27367816D01*
X93132184Y-27448185D01*
X93226688Y-27511331D01*
X93331695Y-27554826D01*
X93443170Y-27577000D01*
X93556830Y-27577000D01*
X93668305Y-27554826D01*
X93773312Y-27511331D01*
X93867816Y-27448185D01*
X93948185Y-27367816D01*
X94000000Y-27290270D01*
X94051815Y-27367816D01*
X94132184Y-27448185D01*
X94226688Y-27511331D01*
X94331695Y-27554826D01*
X94443170Y-27577000D01*
X94556830Y-27577000D01*
X94668305Y-27554826D01*
X94773312Y-27511331D01*
X94867816Y-27448185D01*
X94948185Y-27367816D01*
X95000000Y-27290270D01*
X95051815Y-27367816D01*
X95132184Y-27448185D01*
X95226688Y-27511331D01*
X95331695Y-27554826D01*
X95443170Y-27577000D01*
X95556830Y-27577000D01*
X95668305Y-27554826D01*
X95773312Y-27511331D01*
X95867816Y-27448185D01*
X95948185Y-27367816D01*
X96000000Y-27290270D01*
X96051815Y-27367816D01*
X96132184Y-27448185D01*
X96226688Y-27511331D01*
X96331695Y-27554826D01*
X96443170Y-27577000D01*
X96556830Y-27577000D01*
X96668305Y-27554826D01*
X96773312Y-27511331D01*
X96867816Y-27448185D01*
X96948185Y-27367816D01*
X97000000Y-27290270D01*
X97051815Y-27367816D01*
X97132184Y-27448185D01*
X97226688Y-27511331D01*
X97331695Y-27554826D01*
X97443170Y-27577000D01*
X97556830Y-27577000D01*
X97668305Y-27554826D01*
X97773312Y-27511331D01*
X97867816Y-27448185D01*
X97948185Y-27367816D01*
X98011331Y-27273312D01*
X98054826Y-27168305D01*
X98063154Y-27126436D01*
X98131695Y-27154826D01*
X98243170Y-27177000D01*
X98356830Y-27177000D01*
X98468305Y-27154826D01*
X98573312Y-27111331D01*
X98667816Y-27048185D01*
X98748185Y-26967816D01*
X98811331Y-26873312D01*
X98854826Y-26768305D01*
X98877000Y-26656830D01*
X98877000Y-26543170D01*
X98863838Y-26477000D01*
X98956830Y-26477000D01*
X99068305Y-26454826D01*
X99173312Y-26411331D01*
X99267816Y-26348185D01*
X99348185Y-26267816D01*
X99373000Y-26230678D01*
X99373000Y-49373000D01*
X627000Y-49373000D01*
X627000Y-44943170D01*
X54823006Y-44943170D01*
X54823006Y-45056830D01*
X54845180Y-45168305D01*
X54888675Y-45273312D01*
X54951821Y-45367816D01*
X55032190Y-45448185D01*
X55126694Y-45511331D01*
X55231701Y-45554826D01*
X55343176Y-45577000D01*
X55456836Y-45577000D01*
X55568311Y-45554826D01*
X55673318Y-45511331D01*
X55767822Y-45448185D01*
X55848191Y-45367816D01*
X55911337Y-45273312D01*
X55954832Y-45168305D01*
X55977006Y-45056830D01*
X55977006Y-44943170D01*
X55954832Y-44831695D01*
X55911337Y-44726688D01*
X55848191Y-44632184D01*
X55767822Y-44551815D01*
X55673318Y-44488669D01*
X55568311Y-44445174D01*
X55456836Y-44423000D01*
X55343176Y-44423000D01*
X55231701Y-44445174D01*
X55126694Y-44488669D01*
X55032190Y-44551815D01*
X54951821Y-44632184D01*
X54888675Y-44726688D01*
X54845180Y-44831695D01*
X54823006Y-44943170D01*
X627000Y-44943170D01*
X627000Y-39643170D01*
X49123000Y-39643170D01*
X49123000Y-39756830D01*
X49145174Y-39868305D01*
X49188669Y-39973312D01*
X49251815Y-40067816D01*
X49283999Y-40100000D01*
X49251815Y-40132184D01*
X49188669Y-40226688D01*
X49145174Y-40331695D01*
X49123000Y-40443170D01*
X49123000Y-40556830D01*
X49145174Y-40668305D01*
X49188669Y-40773312D01*
X49251815Y-40867816D01*
X49283999Y-40900000D01*
X49251815Y-40932184D01*
X49188669Y-41026688D01*
X49145174Y-41131695D01*
X49123000Y-41243170D01*
X49123000Y-41356830D01*
X49145174Y-41468305D01*
X49188669Y-41573312D01*
X49251815Y-41667816D01*
X49283999Y-41700000D01*
X49251815Y-41732184D01*
X49188669Y-41826688D01*
X49145174Y-41931695D01*
X49123000Y-42043170D01*
X49123000Y-42156830D01*
X49145174Y-42268305D01*
X49188669Y-42373312D01*
X49251815Y-42467816D01*
X49283999Y-42500000D01*
X49251815Y-42532184D01*
X49188669Y-42626688D01*
X49145174Y-42731695D01*
X49123000Y-42843170D01*
X49123000Y-42956830D01*
X49145174Y-43068305D01*
X49188669Y-43173312D01*
X49251815Y-43267816D01*
X49332184Y-43348185D01*
X49426688Y-43411331D01*
X49531695Y-43454826D01*
X49643170Y-43477000D01*
X49756830Y-43477000D01*
X49868305Y-43454826D01*
X49973312Y-43411331D01*
X50067816Y-43348185D01*
X50148185Y-43267816D01*
X50211331Y-43173312D01*
X50223816Y-43143170D01*
X50923000Y-43143170D01*
X50923000Y-43256830D01*
X50945174Y-43368305D01*
X50988669Y-43473312D01*
X51051815Y-43567816D01*
X51132184Y-43648185D01*
X51226688Y-43711331D01*
X51331695Y-43754826D01*
X51443170Y-43777000D01*
X51556830Y-43777000D01*
X51668305Y-43754826D01*
X51773312Y-43711331D01*
X51867816Y-43648185D01*
X51948185Y-43567816D01*
X52011331Y-43473312D01*
X52054826Y-43368305D01*
X52077000Y-43256830D01*
X52077000Y-43143170D01*
X52054826Y-43031695D01*
X52011331Y-42926688D01*
X51948185Y-42832184D01*
X51867816Y-42751815D01*
X51773312Y-42688669D01*
X51668305Y-42645174D01*
X51556830Y-42623000D01*
X51443170Y-42623000D01*
X51331695Y-42645174D01*
X51226688Y-42688669D01*
X51132184Y-42751815D01*
X51051815Y-42832184D01*
X50988669Y-42926688D01*
X50945174Y-43031695D01*
X50923000Y-43143170D01*
X50223816Y-43143170D01*
X50254826Y-43068305D01*
X50277000Y-42956830D01*
X50277000Y-42843170D01*
X50254826Y-42731695D01*
X50211331Y-42626688D01*
X50148185Y-42532184D01*
X50116001Y-42500000D01*
X50148185Y-42467816D01*
X50211331Y-42373312D01*
X50254826Y-42268305D01*
X50277000Y-42156830D01*
X50277000Y-42043170D01*
X50254826Y-41931695D01*
X50211331Y-41826688D01*
X50148185Y-41732184D01*
X50116001Y-41700000D01*
X50148185Y-41667816D01*
X50211331Y-41573312D01*
X50254826Y-41468305D01*
X50277000Y-41356830D01*
X50277000Y-41243170D01*
X50254826Y-41131695D01*
X50211331Y-41026688D01*
X50148185Y-40932184D01*
X50116001Y-40900000D01*
X50148185Y-40867816D01*
X50211331Y-40773312D01*
X50254826Y-40668305D01*
X50277000Y-40556830D01*
X50277000Y-40443170D01*
X50254826Y-40331695D01*
X50211331Y-40226688D01*
X50148185Y-40132184D01*
X50116001Y-40100000D01*
X50148185Y-40067816D01*
X50211331Y-39973312D01*
X50254826Y-39868305D01*
X50277000Y-39756830D01*
X50277000Y-39643170D01*
X50254826Y-39531695D01*
X50211331Y-39426688D01*
X50148185Y-39332184D01*
X50067816Y-39251815D01*
X49973312Y-39188669D01*
X49868305Y-39145174D01*
X49756830Y-39123000D01*
X49643170Y-39123000D01*
X49531695Y-39145174D01*
X49426688Y-39188669D01*
X49332184Y-39251815D01*
X49251815Y-39332184D01*
X49188669Y-39426688D01*
X49145174Y-39531695D01*
X49123000Y-39643170D01*
X627000Y-39643170D01*
X627000Y-32027000D01*
X12000000Y-32027000D01*
X12024776Y-32024560D01*
X12048601Y-32017333D01*
X12070557Y-32005597D01*
X12089803Y-31989803D01*
X12105597Y-31970557D01*
X12117333Y-31948601D01*
X12124560Y-31924776D01*
X12127000Y-31900000D01*
X12127000Y-30343170D01*
X46823000Y-30343170D01*
X46823000Y-30456830D01*
X46845174Y-30568305D01*
X46888669Y-30673312D01*
X46951815Y-30767816D01*
X46983999Y-30800000D01*
X46951815Y-30832184D01*
X46888669Y-30926688D01*
X46845174Y-31031695D01*
X46823000Y-31143170D01*
X46823000Y-31256830D01*
X46845174Y-31368305D01*
X46888669Y-31473312D01*
X46951815Y-31567816D01*
X46983999Y-31600000D01*
X46951815Y-31632184D01*
X46888669Y-31726688D01*
X46845174Y-31831695D01*
X46823000Y-31943170D01*
X46823000Y-32056830D01*
X46845174Y-32168305D01*
X46888669Y-32273312D01*
X46951815Y-32367816D01*
X46983999Y-32400000D01*
X46951815Y-32432184D01*
X46888669Y-32526688D01*
X46845174Y-32631695D01*
X46823000Y-32743170D01*
X46823000Y-32856830D01*
X46845174Y-32968305D01*
X46888669Y-33073312D01*
X46951815Y-33167816D01*
X46983999Y-33200000D01*
X46951815Y-33232184D01*
X46888669Y-33326688D01*
X46845174Y-33431695D01*
X46823000Y-33543170D01*
X46823000Y-33656830D01*
X46845174Y-33768305D01*
X46888669Y-33873312D01*
X46951815Y-33967816D01*
X47032184Y-34048185D01*
X47126688Y-34111331D01*
X47231695Y-34154826D01*
X47343170Y-34177000D01*
X47456830Y-34177000D01*
X47568305Y-34154826D01*
X47673312Y-34111331D01*
X47767816Y-34048185D01*
X47848185Y-33967816D01*
X47864653Y-33943170D01*
X48723000Y-33943170D01*
X48723000Y-34056830D01*
X48745174Y-34168305D01*
X48788669Y-34273312D01*
X48851815Y-34367816D01*
X48932184Y-34448185D01*
X49026688Y-34511331D01*
X49131695Y-34554826D01*
X49243170Y-34577000D01*
X49356830Y-34577000D01*
X49468305Y-34554826D01*
X49573312Y-34511331D01*
X49667816Y-34448185D01*
X49748185Y-34367816D01*
X49811331Y-34273312D01*
X49854826Y-34168305D01*
X49877000Y-34056830D01*
X49877000Y-33943170D01*
X49854826Y-33831695D01*
X49811331Y-33726688D01*
X49748185Y-33632184D01*
X49667816Y-33551815D01*
X49573312Y-33488669D01*
X49468305Y-33445174D01*
X49356830Y-33423000D01*
X49243170Y-33423000D01*
X49131695Y-33445174D01*
X49026688Y-33488669D01*
X48932184Y-33551815D01*
X48851815Y-33632184D01*
X48788669Y-33726688D01*
X48745174Y-33831695D01*
X48723000Y-33943170D01*
X47864653Y-33943170D01*
X47911331Y-33873312D01*
X47954826Y-33768305D01*
X47977000Y-33656830D01*
X47977000Y-33543170D01*
X47954826Y-33431695D01*
X47911331Y-33326688D01*
X47848185Y-33232184D01*
X47816001Y-33200000D01*
X47848185Y-33167816D01*
X47911331Y-33073312D01*
X47954826Y-32968305D01*
X47977000Y-32856830D01*
X47977000Y-32743170D01*
X47954826Y-32631695D01*
X47911331Y-32526688D01*
X47848185Y-32432184D01*
X47816001Y-32400000D01*
X47848185Y-32367816D01*
X47911331Y-32273312D01*
X47954826Y-32168305D01*
X47977000Y-32056830D01*
X47977000Y-31943170D01*
X47954826Y-31831695D01*
X47911331Y-31726688D01*
X47848185Y-31632184D01*
X47816001Y-31600000D01*
X47848185Y-31567816D01*
X47911331Y-31473312D01*
X47954826Y-31368305D01*
X47977000Y-31256830D01*
X47977000Y-31143170D01*
X47954826Y-31031695D01*
X47911331Y-30926688D01*
X47848185Y-30832184D01*
X47816001Y-30800000D01*
X47848185Y-30767816D01*
X47911331Y-30673312D01*
X47954826Y-30568305D01*
X47977000Y-30456830D01*
X47977000Y-30343170D01*
X47954826Y-30231695D01*
X47911331Y-30126688D01*
X47848185Y-30032184D01*
X47767816Y-29951815D01*
X47673312Y-29888669D01*
X47568305Y-29845174D01*
X47456830Y-29823000D01*
X47343170Y-29823000D01*
X47231695Y-29845174D01*
X47126688Y-29888669D01*
X47032184Y-29951815D01*
X46951815Y-30032184D01*
X46888669Y-30126688D01*
X46845174Y-30231695D01*
X46823000Y-30343170D01*
X12127000Y-30343170D01*
X12127000Y-26777000D01*
X12156830Y-26777000D01*
X12268305Y-26754826D01*
X12373312Y-26711331D01*
X12400000Y-26693499D01*
X12426688Y-26711331D01*
X12531695Y-26754826D01*
X12643170Y-26777000D01*
X12756830Y-26777000D01*
X12868305Y-26754826D01*
X12973312Y-26711331D01*
X13000000Y-26693499D01*
X13026688Y-26711331D01*
X13131695Y-26754826D01*
X13243170Y-26777000D01*
X13356830Y-26777000D01*
X13468305Y-26754826D01*
X13573312Y-26711331D01*
X13667816Y-26648185D01*
X13748185Y-26567816D01*
X13811331Y-26473312D01*
X13812343Y-26470868D01*
X13843170Y-26477000D01*
X13956830Y-26477000D01*
X14068305Y-26454826D01*
X14173312Y-26411331D01*
X14267816Y-26348185D01*
X14348185Y-26267816D01*
X14411331Y-26173312D01*
X14454826Y-26068305D01*
X14477000Y-25956830D01*
X14477000Y-25843170D01*
X14454826Y-25731695D01*
X14411331Y-25626688D01*
X14393499Y-25600000D01*
X14411331Y-25573312D01*
X14454826Y-25468305D01*
X14477000Y-25356830D01*
X14477000Y-25243170D01*
X14454826Y-25131695D01*
X14411331Y-25026688D01*
X14393499Y-25000000D01*
X14411331Y-24973312D01*
X14454826Y-24868305D01*
X14477000Y-24756830D01*
X14477000Y-24643170D01*
X14454826Y-24531695D01*
X14411331Y-24426688D01*
X14393499Y-24400000D01*
X14411331Y-24373312D01*
X14454826Y-24268305D01*
X14477000Y-24156830D01*
X14477000Y-24043170D01*
X14454826Y-23931695D01*
X14411331Y-23826688D01*
X14348185Y-23732184D01*
X14267816Y-23651815D01*
X14173312Y-23588669D01*
X14068305Y-23545174D01*
X13956830Y-23523000D01*
X13843170Y-23523000D01*
X13812343Y-23529132D01*
X13811331Y-23526688D01*
X13748185Y-23432184D01*
X13667816Y-23351815D01*
X13573312Y-23288669D01*
X13468305Y-23245174D01*
X13356830Y-23223000D01*
X13243170Y-23223000D01*
X13131695Y-23245174D01*
X13026688Y-23288669D01*
X13000000Y-23306501D01*
X12973312Y-23288669D01*
X12868305Y-23245174D01*
X12756830Y-23223000D01*
X12643170Y-23223000D01*
X12531695Y-23245174D01*
X12426688Y-23288669D01*
X12400000Y-23306501D01*
X12373312Y-23288669D01*
X12268305Y-23245174D01*
X12156830Y-23223000D01*
X12127000Y-23223000D01*
X12127000Y-19843170D01*
X46823000Y-19843170D01*
X46823000Y-19956830D01*
X46845174Y-20068305D01*
X46888669Y-20173312D01*
X46951815Y-20267816D01*
X46983999Y-20300000D01*
X46951815Y-20332184D01*
X46888669Y-20426688D01*
X46845174Y-20531695D01*
X46823000Y-20643170D01*
X46823000Y-20756830D01*
X46845174Y-20868305D01*
X46888669Y-20973312D01*
X46951815Y-21067816D01*
X46983999Y-21100000D01*
X46951815Y-21132184D01*
X46888669Y-21226688D01*
X46845174Y-21331695D01*
X46823000Y-21443170D01*
X46823000Y-21556830D01*
X46845174Y-21668305D01*
X46888669Y-21773312D01*
X46951815Y-21867816D01*
X46983999Y-21900000D01*
X46951815Y-21932184D01*
X46888669Y-22026688D01*
X46845174Y-22131695D01*
X46823000Y-22243170D01*
X46823000Y-22356830D01*
X46845174Y-22468305D01*
X46888669Y-22573312D01*
X46951815Y-22667816D01*
X46983999Y-22700000D01*
X46951815Y-22732184D01*
X46888669Y-22826688D01*
X46845174Y-22931695D01*
X46823000Y-23043170D01*
X46823000Y-23156830D01*
X46845174Y-23268305D01*
X46888669Y-23373312D01*
X46951815Y-23467816D01*
X47032184Y-23548185D01*
X47126688Y-23611331D01*
X47231695Y-23654826D01*
X47343170Y-23677000D01*
X47456830Y-23677000D01*
X47568305Y-23654826D01*
X47673312Y-23611331D01*
X47767816Y-23548185D01*
X47848185Y-23467816D01*
X47911331Y-23373312D01*
X47954826Y-23268305D01*
X47977000Y-23156830D01*
X47977000Y-23043170D01*
X47954826Y-22931695D01*
X47911331Y-22826688D01*
X47848185Y-22732184D01*
X47816001Y-22700000D01*
X47848185Y-22667816D01*
X47911331Y-22573312D01*
X47954826Y-22468305D01*
X47977000Y-22356830D01*
X47977000Y-22243170D01*
X47954826Y-22131695D01*
X47911331Y-22026688D01*
X47848185Y-21932184D01*
X47816001Y-21900000D01*
X47848185Y-21867816D01*
X47911331Y-21773312D01*
X47954826Y-21668305D01*
X47977000Y-21556830D01*
X47977000Y-21443170D01*
X47954826Y-21331695D01*
X47911331Y-21226688D01*
X47848185Y-21132184D01*
X47816001Y-21100000D01*
X47848185Y-21067816D01*
X47911331Y-20973312D01*
X47954826Y-20868305D01*
X47977000Y-20756830D01*
X47977000Y-20643170D01*
X47954826Y-20531695D01*
X47911331Y-20426688D01*
X47848185Y-20332184D01*
X47816001Y-20300000D01*
X47848185Y-20267816D01*
X47911331Y-20173312D01*
X47923816Y-20143170D01*
X52623000Y-20143170D01*
X52623000Y-20256830D01*
X52645174Y-20368305D01*
X52688669Y-20473312D01*
X52751815Y-20567816D01*
X52783999Y-20600000D01*
X52751815Y-20632184D01*
X52688669Y-20726688D01*
X52645174Y-20831695D01*
X52623000Y-20943170D01*
X52623000Y-21056830D01*
X52645174Y-21168305D01*
X52688669Y-21273312D01*
X52739911Y-21350000D01*
X52688669Y-21426688D01*
X52645174Y-21531695D01*
X52623000Y-21643170D01*
X52623000Y-21756830D01*
X52645174Y-21868305D01*
X52688669Y-21973312D01*
X52751815Y-22067816D01*
X52832184Y-22148185D01*
X52926688Y-22211331D01*
X53031695Y-22254826D01*
X53143170Y-22277000D01*
X53256830Y-22277000D01*
X53368305Y-22254826D01*
X53473312Y-22211331D01*
X53546341Y-22162534D01*
X53227648Y-23264681D01*
X53217632Y-23312413D01*
X53178424Y-23607282D01*
X53175619Y-23655972D01*
X53287982Y-30229197D01*
X53256830Y-30223000D01*
X53143170Y-30223000D01*
X53031695Y-30245174D01*
X52926688Y-30288669D01*
X52832184Y-30351815D01*
X52751815Y-30432184D01*
X52688669Y-30526688D01*
X52645174Y-30631695D01*
X52623000Y-30743170D01*
X52623000Y-30856830D01*
X52645174Y-30968305D01*
X52688669Y-31073312D01*
X52751815Y-31167816D01*
X52783999Y-31200000D01*
X52751815Y-31232184D01*
X52688669Y-31326688D01*
X52645174Y-31431695D01*
X52623000Y-31543170D01*
X52623000Y-31656830D01*
X52645174Y-31768305D01*
X52688669Y-31873312D01*
X52751815Y-31967816D01*
X52783999Y-32000000D01*
X52751815Y-32032184D01*
X52688669Y-32126688D01*
X52645174Y-32231695D01*
X52623000Y-32343170D01*
X52623000Y-32456830D01*
X52645174Y-32568305D01*
X52688669Y-32673312D01*
X52751815Y-32767816D01*
X52832184Y-32848185D01*
X52926688Y-32911331D01*
X53031695Y-32954826D01*
X53143170Y-32977000D01*
X53256830Y-32977000D01*
X53334688Y-32961513D01*
X53369088Y-34973902D01*
X53371839Y-35011008D01*
X53390731Y-35154463D01*
X53368305Y-35145174D01*
X53256830Y-35123000D01*
X53143170Y-35123000D01*
X53031695Y-35145174D01*
X52926688Y-35188669D01*
X52832184Y-35251815D01*
X52751815Y-35332184D01*
X52688669Y-35426688D01*
X52645174Y-35531695D01*
X52623000Y-35643170D01*
X52623000Y-35756830D01*
X52645174Y-35868305D01*
X52688669Y-35973312D01*
X52751815Y-36067816D01*
X52832184Y-36148185D01*
X52926688Y-36211331D01*
X53031695Y-36254826D01*
X53143170Y-36277000D01*
X53256830Y-36277000D01*
X53368305Y-36254826D01*
X53473312Y-36211331D01*
X53567816Y-36148185D01*
X53648185Y-36067816D01*
X53711331Y-35973312D01*
X53718798Y-35955284D01*
X55491187Y-39423000D01*
X55443170Y-39423000D01*
X55331695Y-39445174D01*
X55226688Y-39488669D01*
X55132184Y-39551815D01*
X55051815Y-39632184D01*
X54988669Y-39726688D01*
X54945174Y-39831695D01*
X54923000Y-39943170D01*
X54923000Y-40056830D01*
X54945174Y-40168305D01*
X54988669Y-40273312D01*
X55051815Y-40367816D01*
X55083999Y-40400000D01*
X55051815Y-40432184D01*
X54988669Y-40526688D01*
X54945174Y-40631695D01*
X54923000Y-40743170D01*
X54923000Y-40856830D01*
X54945174Y-40968305D01*
X54988669Y-41073312D01*
X55051815Y-41167816D01*
X55083999Y-41200000D01*
X55051815Y-41232184D01*
X54988669Y-41326688D01*
X54945174Y-41431695D01*
X54923000Y-41543170D01*
X54923000Y-41656830D01*
X54945174Y-41768305D01*
X54988669Y-41873312D01*
X55051815Y-41967816D01*
X55132184Y-42048185D01*
X55226688Y-42111331D01*
X55331695Y-42154826D01*
X55443170Y-42177000D01*
X55556830Y-42177000D01*
X55668305Y-42154826D01*
X55673000Y-42152881D01*
X55673000Y-43600000D01*
X55675056Y-43636613D01*
X55695114Y-43814630D01*
X55711408Y-43886018D01*
X55770575Y-44055108D01*
X55802346Y-44121081D01*
X55897656Y-44272766D01*
X55943311Y-44330016D01*
X56069984Y-44456689D01*
X56127234Y-44502344D01*
X56278919Y-44597654D01*
X56344892Y-44629425D01*
X56513982Y-44688592D01*
X56585370Y-44704886D01*
X56763387Y-44724944D01*
X56836613Y-44724944D01*
X57014630Y-44704886D01*
X57086018Y-44688592D01*
X57255108Y-44629425D01*
X57321081Y-44597654D01*
X57472766Y-44502344D01*
X57530016Y-44456689D01*
X57656689Y-44330016D01*
X57702344Y-44272766D01*
X57797654Y-44121081D01*
X57829425Y-44055108D01*
X57888592Y-43886018D01*
X57904886Y-43814630D01*
X57924944Y-43636613D01*
X57927000Y-43600000D01*
X57927000Y-39940744D01*
X57924721Y-39902207D01*
X57896944Y-39668150D01*
X57878905Y-39593218D01*
X57797117Y-39372164D01*
X57781607Y-39336812D01*
X55709538Y-35282766D01*
X55647924Y-35116238D01*
X55627000Y-34939923D01*
X55627000Y-31630275D01*
X55641483Y-31483228D01*
X55679691Y-31357271D01*
X55741736Y-31241194D01*
X55835475Y-31126973D01*
X57426973Y-29535475D01*
X57541194Y-29441736D01*
X57657271Y-29379691D01*
X57783228Y-29341483D01*
X57930275Y-29327000D01*
X58500000Y-29327000D01*
X58532052Y-29325425D01*
X58727142Y-29306210D01*
X58790012Y-29293705D01*
X58977605Y-29236800D01*
X59036830Y-29212268D01*
X59209717Y-29119858D01*
X59263016Y-29084245D01*
X59414553Y-28959882D01*
X59459882Y-28914553D01*
X59584245Y-28763016D01*
X59619858Y-28709717D01*
X59712268Y-28536830D01*
X59736800Y-28477605D01*
X59793705Y-28290012D01*
X59806210Y-28227142D01*
X59825425Y-28032052D01*
X59827000Y-28000000D01*
X59827000Y-24943170D01*
X83723000Y-24943170D01*
X83723000Y-25056830D01*
X83745174Y-25168305D01*
X83788669Y-25273312D01*
X83851815Y-25367816D01*
X83932184Y-25448185D01*
X84026688Y-25511331D01*
X84131695Y-25554826D01*
X84243170Y-25577000D01*
X84356830Y-25577000D01*
X84468305Y-25554826D01*
X84573312Y-25511331D01*
X84667816Y-25448185D01*
X84748185Y-25367816D01*
X84811331Y-25273312D01*
X84854826Y-25168305D01*
X84877000Y-25056830D01*
X84877000Y-24943170D01*
X87173000Y-24943170D01*
X87173000Y-25056830D01*
X87195174Y-25168305D01*
X87238669Y-25273312D01*
X87301815Y-25367816D01*
X87382184Y-25448185D01*
X87476688Y-25511331D01*
X87581695Y-25554826D01*
X87693170Y-25577000D01*
X87806830Y-25577000D01*
X87918305Y-25554826D01*
X88023312Y-25511331D01*
X88117816Y-25448185D01*
X88198185Y-25367816D01*
X88261331Y-25273312D01*
X88304826Y-25168305D01*
X88327000Y-25056830D01*
X88327000Y-24943170D01*
X88304826Y-24831695D01*
X88261331Y-24726688D01*
X88198185Y-24632184D01*
X88117816Y-24551815D01*
X88023312Y-24488669D01*
X87918305Y-24445174D01*
X87806830Y-24423000D01*
X87693170Y-24423000D01*
X87581695Y-24445174D01*
X87476688Y-24488669D01*
X87382184Y-24551815D01*
X87301815Y-24632184D01*
X87238669Y-24726688D01*
X87195174Y-24831695D01*
X87173000Y-24943170D01*
X84877000Y-24943170D01*
X84854826Y-24831695D01*
X84811331Y-24726688D01*
X84748185Y-24632184D01*
X84667816Y-24551815D01*
X84573312Y-24488669D01*
X84468305Y-24445174D01*
X84356830Y-24423000D01*
X84243170Y-24423000D01*
X84131695Y-24445174D01*
X84026688Y-24488669D01*
X83932184Y-24551815D01*
X83851815Y-24632184D01*
X83788669Y-24726688D01*
X83745174Y-24831695D01*
X83723000Y-24943170D01*
X59827000Y-24943170D01*
X59827000Y-22414214D01*
X59825425Y-22382162D01*
X59806210Y-22187071D01*
X59793705Y-22124201D01*
X59736800Y-21936608D01*
X59712268Y-21877383D01*
X59619858Y-21704496D01*
X59584244Y-21651196D01*
X59459881Y-21499660D01*
X59438331Y-21475883D01*
X58835475Y-20873027D01*
X58741736Y-20758806D01*
X58679691Y-20642729D01*
X58641483Y-20516772D01*
X58627000Y-20369725D01*
X58627000Y-20041421D01*
X58620717Y-19977627D01*
X58594728Y-19846971D01*
X58576119Y-19785627D01*
X58545901Y-19729093D01*
X58471890Y-19618328D01*
X58431224Y-19568776D01*
X58381672Y-19528110D01*
X58270907Y-19454099D01*
X58214372Y-19423880D01*
X58153029Y-19405272D01*
X58022373Y-19379283D01*
X57958579Y-19373000D01*
X57271171Y-19373000D01*
X57163679Y-19359021D01*
X57083097Y-19326088D01*
X57013623Y-19273642D01*
X56959870Y-19205167D01*
X56925421Y-19125227D01*
X56912565Y-19039133D01*
X56924512Y-18931383D01*
X57789046Y-15394651D01*
X57796052Y-15356108D01*
X57824653Y-15118655D01*
X57827000Y-15079551D01*
X57827000Y-14341421D01*
X57820717Y-14277627D01*
X57794728Y-14146971D01*
X57776119Y-14085627D01*
X57745901Y-14029093D01*
X57671890Y-13918328D01*
X57631224Y-13868776D01*
X57581672Y-13828110D01*
X57470907Y-13754099D01*
X57414372Y-13723880D01*
X57353029Y-13705272D01*
X57222373Y-13679283D01*
X57158579Y-13673000D01*
X56241421Y-13673000D01*
X56177627Y-13679283D01*
X56046971Y-13705272D01*
X55985627Y-13723881D01*
X55929093Y-13754099D01*
X55818328Y-13828110D01*
X55768776Y-13868776D01*
X55728110Y-13918328D01*
X55654099Y-14029093D01*
X55623880Y-14085628D01*
X55605272Y-14146971D01*
X55579283Y-14277627D01*
X55573000Y-14341421D01*
X55573000Y-15035274D01*
X55540112Y-15267412D01*
X55493040Y-15430203D01*
X55456830Y-15423000D01*
X55343170Y-15423000D01*
X55231695Y-15445174D01*
X55126688Y-15488669D01*
X55032184Y-15551815D01*
X54951815Y-15632184D01*
X54888669Y-15726688D01*
X54845174Y-15831695D01*
X54823000Y-15943170D01*
X54823000Y-16056830D01*
X54845174Y-16168305D01*
X54888669Y-16273312D01*
X54951815Y-16367816D01*
X55032184Y-16448185D01*
X55126688Y-16511331D01*
X55174677Y-16531208D01*
X53739471Y-21494626D01*
X53711331Y-21426688D01*
X53660089Y-21350000D01*
X53711331Y-21273312D01*
X53754826Y-21168305D01*
X53777000Y-21056830D01*
X53777000Y-20943170D01*
X53754826Y-20831695D01*
X53711331Y-20726688D01*
X53648185Y-20632184D01*
X53616001Y-20600000D01*
X53648185Y-20567816D01*
X53711331Y-20473312D01*
X53754826Y-20368305D01*
X53777000Y-20256830D01*
X53777000Y-20143170D01*
X53754826Y-20031695D01*
X53711331Y-19926688D01*
X53648185Y-19832184D01*
X53567816Y-19751815D01*
X53473312Y-19688669D01*
X53368305Y-19645174D01*
X53256830Y-19623000D01*
X53143170Y-19623000D01*
X53031695Y-19645174D01*
X52926688Y-19688669D01*
X52832184Y-19751815D01*
X52751815Y-19832184D01*
X52688669Y-19926688D01*
X52645174Y-20031695D01*
X52623000Y-20143170D01*
X47923816Y-20143170D01*
X47954826Y-20068305D01*
X47977000Y-19956830D01*
X47977000Y-19843170D01*
X47954826Y-19731695D01*
X47911331Y-19626688D01*
X47848185Y-19532184D01*
X47767816Y-19451815D01*
X47673312Y-19388669D01*
X47568305Y-19345174D01*
X47456830Y-19323000D01*
X47343170Y-19323000D01*
X47231695Y-19345174D01*
X47126688Y-19388669D01*
X47032184Y-19451815D01*
X46951815Y-19532184D01*
X46888669Y-19626688D01*
X46845174Y-19731695D01*
X46823000Y-19843170D01*
X12127000Y-19843170D01*
X12127000Y-18400000D01*
X12124560Y-18375224D01*
X12117333Y-18351399D01*
X12105597Y-18329443D01*
X12089803Y-18310197D01*
X12070557Y-18294403D01*
X12048601Y-18282667D01*
X12024776Y-18275440D01*
X12000000Y-18273000D01*
X627000Y-18273000D01*
X627000Y-10643170D01*
X49123000Y-10643170D01*
X49123000Y-10756830D01*
X49145174Y-10868305D01*
X49188669Y-10973312D01*
X49251815Y-11067816D01*
X49283999Y-11100000D01*
X49251815Y-11132184D01*
X49188669Y-11226688D01*
X49145174Y-11331695D01*
X49123000Y-11443170D01*
X49123000Y-11556830D01*
X49145174Y-11668305D01*
X49188669Y-11773312D01*
X49251815Y-11867816D01*
X49283999Y-11900000D01*
X49251815Y-11932184D01*
X49188669Y-12026688D01*
X49145174Y-12131695D01*
X49123000Y-12243170D01*
X49123000Y-12356830D01*
X49145174Y-12468305D01*
X49188669Y-12573312D01*
X49251815Y-12667816D01*
X49283999Y-12700000D01*
X49251815Y-12732184D01*
X49188669Y-12826688D01*
X49145174Y-12931695D01*
X49123000Y-13043170D01*
X49123000Y-13156830D01*
X49145174Y-13268305D01*
X49188669Y-13373312D01*
X49251815Y-13467816D01*
X49283999Y-13500000D01*
X49251815Y-13532184D01*
X49188669Y-13626688D01*
X49145174Y-13731695D01*
X49123000Y-13843170D01*
X49123000Y-13956830D01*
X49145174Y-14068305D01*
X49188669Y-14173312D01*
X49251815Y-14267816D01*
X49332184Y-14348185D01*
X49426688Y-14411331D01*
X49531695Y-14454826D01*
X49643170Y-14477000D01*
X49756830Y-14477000D01*
X49868305Y-14454826D01*
X49973312Y-14411331D01*
X50067816Y-14348185D01*
X50148185Y-14267816D01*
X50211331Y-14173312D01*
X50223816Y-14143170D01*
X50923000Y-14143170D01*
X50923000Y-14256830D01*
X50945174Y-14368305D01*
X50988669Y-14473312D01*
X51051815Y-14567816D01*
X51132184Y-14648185D01*
X51226688Y-14711331D01*
X51331695Y-14754826D01*
X51443170Y-14777000D01*
X51556830Y-14777000D01*
X51668305Y-14754826D01*
X51773312Y-14711331D01*
X51867816Y-14648185D01*
X51948185Y-14567816D01*
X52011331Y-14473312D01*
X52054826Y-14368305D01*
X52077000Y-14256830D01*
X52077000Y-14143170D01*
X52054826Y-14031695D01*
X52011331Y-13926688D01*
X51948185Y-13832184D01*
X51867816Y-13751815D01*
X51773312Y-13688669D01*
X51668305Y-13645174D01*
X51556830Y-13623000D01*
X51443170Y-13623000D01*
X51331695Y-13645174D01*
X51226688Y-13688669D01*
X51132184Y-13751815D01*
X51051815Y-13832184D01*
X50988669Y-13926688D01*
X50945174Y-14031695D01*
X50923000Y-14143170D01*
X50223816Y-14143170D01*
X50254826Y-14068305D01*
X50277000Y-13956830D01*
X50277000Y-13843170D01*
X50254826Y-13731695D01*
X50211331Y-13626688D01*
X50148185Y-13532184D01*
X50116001Y-13500000D01*
X50148185Y-13467816D01*
X50211331Y-13373312D01*
X50254826Y-13268305D01*
X50277000Y-13156830D01*
X50277000Y-13043170D01*
X50254826Y-12931695D01*
X50211331Y-12826688D01*
X50148185Y-12732184D01*
X50116001Y-12700000D01*
X50148185Y-12667816D01*
X50211331Y-12573312D01*
X50254826Y-12468305D01*
X50277000Y-12356830D01*
X50277000Y-12243170D01*
X50254826Y-12131695D01*
X50211331Y-12026688D01*
X50148185Y-11932184D01*
X50116001Y-11900000D01*
X50148185Y-11867816D01*
X50211331Y-11773312D01*
X50254826Y-11668305D01*
X50277000Y-11556830D01*
X50277000Y-11443170D01*
X50254826Y-11331695D01*
X50211331Y-11226688D01*
X50148185Y-11132184D01*
X50116001Y-11100000D01*
X50148185Y-11067816D01*
X50211331Y-10973312D01*
X50223816Y-10943170D01*
X54923000Y-10943170D01*
X54923000Y-11056830D01*
X54945174Y-11168305D01*
X54988669Y-11273312D01*
X55051815Y-11367816D01*
X55083999Y-11400000D01*
X55051815Y-11432184D01*
X54988669Y-11526688D01*
X54945174Y-11631695D01*
X54923000Y-11743170D01*
X54923000Y-11856830D01*
X54945174Y-11968305D01*
X54988669Y-12073312D01*
X55051815Y-12167816D01*
X55083999Y-12200000D01*
X55051815Y-12232184D01*
X54988669Y-12326688D01*
X54945174Y-12431695D01*
X54923000Y-12543170D01*
X54923000Y-12656830D01*
X54945174Y-12768305D01*
X54988669Y-12873312D01*
X55051815Y-12967816D01*
X55132184Y-13048185D01*
X55226688Y-13111331D01*
X55331695Y-13154826D01*
X55443170Y-13177000D01*
X55556830Y-13177000D01*
X55668305Y-13154826D01*
X55773312Y-13111331D01*
X55867816Y-13048185D01*
X55948185Y-12967816D01*
X56011331Y-12873312D01*
X56054826Y-12768305D01*
X56077000Y-12656830D01*
X56077000Y-12543170D01*
X56054826Y-12431695D01*
X56011331Y-12326688D01*
X55948185Y-12232184D01*
X55916001Y-12200000D01*
X55948185Y-12167816D01*
X56011331Y-12073312D01*
X56054826Y-11968305D01*
X56077000Y-11856830D01*
X56077000Y-11743170D01*
X56054826Y-11631695D01*
X56011331Y-11526688D01*
X55948185Y-11432184D01*
X55916001Y-11400000D01*
X55948185Y-11367816D01*
X56011331Y-11273312D01*
X56054826Y-11168305D01*
X56077000Y-11056830D01*
X56077000Y-10943170D01*
X56054826Y-10831695D01*
X56011331Y-10726688D01*
X55948185Y-10632184D01*
X55867816Y-10551815D01*
X55773312Y-10488669D01*
X55668305Y-10445174D01*
X55556830Y-10423000D01*
X55443170Y-10423000D01*
X55331695Y-10445174D01*
X55226688Y-10488669D01*
X55132184Y-10551815D01*
X55051815Y-10632184D01*
X54988669Y-10726688D01*
X54945174Y-10831695D01*
X54923000Y-10943170D01*
X50223816Y-10943170D01*
X50254826Y-10868305D01*
X50277000Y-10756830D01*
X50277000Y-10643170D01*
X50254826Y-10531695D01*
X50211331Y-10426688D01*
X50148185Y-10332184D01*
X50067816Y-10251815D01*
X49973312Y-10188669D01*
X49868305Y-10145174D01*
X49756830Y-10123000D01*
X49643170Y-10123000D01*
X49531695Y-10145174D01*
X49426688Y-10188669D01*
X49332184Y-10251815D01*
X49251815Y-10332184D01*
X49188669Y-10426688D01*
X49145174Y-10531695D01*
X49123000Y-10643170D01*
X627000Y-10643170D01*
X627000Y-627000D01*
X99373000Y-627000D01*
X99373000Y-23769322D01*
%TA.AperFunction,Conductor*%
D12*
G36*
X99373000Y-23769322D02*
G01*
X99348185Y-23732184D01*
X99267816Y-23651815D01*
X99173312Y-23588669D01*
X99068305Y-23545174D01*
X98956830Y-23523000D01*
X98863838Y-23523000D01*
X98877000Y-23456830D01*
X98877000Y-23343170D01*
X98854826Y-23231695D01*
X98811331Y-23126688D01*
X98748185Y-23032184D01*
X98667816Y-22951815D01*
X98573312Y-22888669D01*
X98468305Y-22845174D01*
X98356830Y-22823000D01*
X98243170Y-22823000D01*
X98131695Y-22845174D01*
X98063154Y-22873564D01*
X98054826Y-22831695D01*
X98011331Y-22726688D01*
X97948185Y-22632184D01*
X97867816Y-22551815D01*
X97773312Y-22488669D01*
X97668305Y-22445174D01*
X97556830Y-22423000D01*
X97443170Y-22423000D01*
X97331695Y-22445174D01*
X97226688Y-22488669D01*
X97132184Y-22551815D01*
X97051815Y-22632184D01*
X97000000Y-22709730D01*
X96948185Y-22632184D01*
X96867816Y-22551815D01*
X96773312Y-22488669D01*
X96668305Y-22445174D01*
X96556830Y-22423000D01*
X96443170Y-22423000D01*
X96331695Y-22445174D01*
X96226688Y-22488669D01*
X96132184Y-22551815D01*
X96051815Y-22632184D01*
X96000000Y-22709730D01*
X95948185Y-22632184D01*
X95867816Y-22551815D01*
X95773312Y-22488669D01*
X95668305Y-22445174D01*
X95556830Y-22423000D01*
X95443170Y-22423000D01*
X95331695Y-22445174D01*
X95226688Y-22488669D01*
X95132184Y-22551815D01*
X95051815Y-22632184D01*
X95000000Y-22709730D01*
X94948185Y-22632184D01*
X94867816Y-22551815D01*
X94773312Y-22488669D01*
X94668305Y-22445174D01*
X94556830Y-22423000D01*
X94443170Y-22423000D01*
X94331695Y-22445174D01*
X94226688Y-22488669D01*
X94132184Y-22551815D01*
X94051815Y-22632184D01*
X94000000Y-22709730D01*
X93948185Y-22632184D01*
X93867816Y-22551815D01*
X93773312Y-22488669D01*
X93668305Y-22445174D01*
X93556830Y-22423000D01*
X93443170Y-22423000D01*
X93331695Y-22445174D01*
X93226688Y-22488669D01*
X93132184Y-22551815D01*
X93051815Y-22632184D01*
X93000000Y-22709730D01*
X92948185Y-22632184D01*
X92867816Y-22551815D01*
X92773312Y-22488669D01*
X92668305Y-22445174D01*
X92556830Y-22423000D01*
X92443170Y-22423000D01*
X92331695Y-22445174D01*
X92226688Y-22488669D01*
X92132184Y-22551815D01*
X92051815Y-22632184D01*
X92000000Y-22709730D01*
X91948185Y-22632184D01*
X91867816Y-22551815D01*
X91773312Y-22488669D01*
X91668305Y-22445174D01*
X91556830Y-22423000D01*
X91443170Y-22423000D01*
X91331695Y-22445174D01*
X91226688Y-22488669D01*
X91132184Y-22551815D01*
X91051815Y-22632184D01*
X91000000Y-22709730D01*
X90948185Y-22632184D01*
X90867816Y-22551815D01*
X90773312Y-22488669D01*
X90668305Y-22445174D01*
X90556830Y-22423000D01*
X90443170Y-22423000D01*
X90331695Y-22445174D01*
X90226688Y-22488669D01*
X90132184Y-22551815D01*
X90051815Y-22632184D01*
X90000000Y-22709730D01*
X89948185Y-22632184D01*
X89867816Y-22551815D01*
X89773312Y-22488669D01*
X89668305Y-22445174D01*
X89556830Y-22423000D01*
X89443170Y-22423000D01*
X89331695Y-22445174D01*
X89226688Y-22488669D01*
X89132184Y-22551815D01*
X89051815Y-22632184D01*
X89000000Y-22709730D01*
X88948185Y-22632184D01*
X88867816Y-22551815D01*
X88773312Y-22488669D01*
X88668305Y-22445174D01*
X88556830Y-22423000D01*
X88443170Y-22423000D01*
X88331695Y-22445174D01*
X88226688Y-22488669D01*
X88132184Y-22551815D01*
X88051815Y-22632184D01*
X87988669Y-22726688D01*
X87945174Y-22831695D01*
X87923000Y-22943170D01*
X87923000Y-23056830D01*
X87945174Y-23168305D01*
X87988669Y-23273312D01*
X88051815Y-23367816D01*
X88132184Y-23448185D01*
X88226688Y-23511331D01*
X88331695Y-23554826D01*
X88443170Y-23577000D01*
X88556830Y-23577000D01*
X88668305Y-23554826D01*
X88773312Y-23511331D01*
X88867816Y-23448185D01*
X88948185Y-23367816D01*
X89000000Y-23290270D01*
X89051815Y-23367816D01*
X89132184Y-23448185D01*
X89226688Y-23511331D01*
X89331695Y-23554826D01*
X89443170Y-23577000D01*
X89556830Y-23577000D01*
X89668305Y-23554826D01*
X89773312Y-23511331D01*
X89867816Y-23448185D01*
X89948185Y-23367816D01*
X90000000Y-23290270D01*
X90051815Y-23367816D01*
X90132184Y-23448185D01*
X90226688Y-23511331D01*
X90331695Y-23554826D01*
X90443170Y-23577000D01*
X90556830Y-23577000D01*
X90668305Y-23554826D01*
X90773312Y-23511331D01*
X90867816Y-23448185D01*
X90948185Y-23367816D01*
X91000000Y-23290270D01*
X91051815Y-23367816D01*
X91132184Y-23448185D01*
X91226688Y-23511331D01*
X91331695Y-23554826D01*
X91443170Y-23577000D01*
X91556830Y-23577000D01*
X91668305Y-23554826D01*
X91773312Y-23511331D01*
X91867816Y-23448185D01*
X91948185Y-23367816D01*
X92000000Y-23290270D01*
X92051815Y-23367816D01*
X92132184Y-23448185D01*
X92226688Y-23511331D01*
X92331695Y-23554826D01*
X92443170Y-23577000D01*
X92556830Y-23577000D01*
X92668305Y-23554826D01*
X92773312Y-23511331D01*
X92867816Y-23448185D01*
X92948185Y-23367816D01*
X93000000Y-23290270D01*
X93051815Y-23367816D01*
X93132184Y-23448185D01*
X93226688Y-23511331D01*
X93331695Y-23554826D01*
X93443170Y-23577000D01*
X93556830Y-23577000D01*
X93668305Y-23554826D01*
X93773312Y-23511331D01*
X93867816Y-23448185D01*
X93948185Y-23367816D01*
X94000000Y-23290270D01*
X94051815Y-23367816D01*
X94132184Y-23448185D01*
X94226688Y-23511331D01*
X94331695Y-23554826D01*
X94443170Y-23577000D01*
X94556830Y-23577000D01*
X94668305Y-23554826D01*
X94773312Y-23511331D01*
X94867816Y-23448185D01*
X94948185Y-23367816D01*
X95000000Y-23290270D01*
X95051815Y-23367816D01*
X95132184Y-23448185D01*
X95226688Y-23511331D01*
X95331695Y-23554826D01*
X95443170Y-23577000D01*
X95556830Y-23577000D01*
X95668305Y-23554826D01*
X95773312Y-23511331D01*
X95867816Y-23448185D01*
X95948185Y-23367816D01*
X96000000Y-23290270D01*
X96051815Y-23367816D01*
X96132184Y-23448185D01*
X96226688Y-23511331D01*
X96331695Y-23554826D01*
X96443170Y-23577000D01*
X96556830Y-23577000D01*
X96668305Y-23554826D01*
X96773312Y-23511331D01*
X96867816Y-23448185D01*
X96948185Y-23367816D01*
X97000000Y-23290270D01*
X97051815Y-23367816D01*
X97132184Y-23448185D01*
X97226688Y-23511331D01*
X97331695Y-23554826D01*
X97443170Y-23577000D01*
X97556830Y-23577000D01*
X97668305Y-23554826D01*
X97736846Y-23526436D01*
X97745174Y-23568305D01*
X97788669Y-23673312D01*
X97851815Y-23767816D01*
X97932184Y-23848185D01*
X98026688Y-23911331D01*
X98131695Y-23954826D01*
X98243170Y-23977000D01*
X98336162Y-23977000D01*
X98323000Y-24043170D01*
X98323000Y-24156830D01*
X98345174Y-24268305D01*
X98388669Y-24373312D01*
X98451815Y-24467816D01*
X98532184Y-24548185D01*
X98626688Y-24611331D01*
X98659201Y-24624798D01*
X98651815Y-24632184D01*
X98588669Y-24726688D01*
X98545174Y-24831695D01*
X98523000Y-24943170D01*
X98523000Y-25056830D01*
X98545174Y-25168305D01*
X98588669Y-25273312D01*
X98651815Y-25367816D01*
X98659201Y-25375202D01*
X98626688Y-25388669D01*
X98532184Y-25451815D01*
X98451815Y-25532184D01*
X98388669Y-25626688D01*
X98345174Y-25731695D01*
X98323000Y-25843170D01*
X98323000Y-25956830D01*
X98336162Y-26023000D01*
X98243170Y-26023000D01*
X98131695Y-26045174D01*
X98026688Y-26088669D01*
X97932184Y-26151815D01*
X97851815Y-26232184D01*
X97788669Y-26326688D01*
X97745174Y-26431695D01*
X97736846Y-26473564D01*
X97668305Y-26445174D01*
X97556830Y-26423000D01*
X97443170Y-26423000D01*
X97331695Y-26445174D01*
X97226688Y-26488669D01*
X97132184Y-26551815D01*
X97051815Y-26632184D01*
X97000000Y-26709730D01*
X96948185Y-26632184D01*
X96867816Y-26551815D01*
X96773312Y-26488669D01*
X96668305Y-26445174D01*
X96556830Y-26423000D01*
X96443170Y-26423000D01*
X96331695Y-26445174D01*
X96226688Y-26488669D01*
X96132184Y-26551815D01*
X96051815Y-26632184D01*
X96000000Y-26709730D01*
X95948185Y-26632184D01*
X95867816Y-26551815D01*
X95773312Y-26488669D01*
X95668305Y-26445174D01*
X95556830Y-26423000D01*
X95443170Y-26423000D01*
X95331695Y-26445174D01*
X95226688Y-26488669D01*
X95132184Y-26551815D01*
X95051815Y-26632184D01*
X95000000Y-26709730D01*
X94948185Y-26632184D01*
X94867816Y-26551815D01*
X94773312Y-26488669D01*
X94668305Y-26445174D01*
X94556830Y-26423000D01*
X94443170Y-26423000D01*
X94331695Y-26445174D01*
X94226688Y-26488669D01*
X94132184Y-26551815D01*
X94051815Y-26632184D01*
X94000000Y-26709730D01*
X93948185Y-26632184D01*
X93867816Y-26551815D01*
X93773312Y-26488669D01*
X93668305Y-26445174D01*
X93556830Y-26423000D01*
X93443170Y-26423000D01*
X93331695Y-26445174D01*
X93226688Y-26488669D01*
X93132184Y-26551815D01*
X93051815Y-26632184D01*
X93000000Y-26709730D01*
X92948185Y-26632184D01*
X92867816Y-26551815D01*
X92773312Y-26488669D01*
X92668305Y-26445174D01*
X92556830Y-26423000D01*
X92443170Y-26423000D01*
X92331695Y-26445174D01*
X92226688Y-26488669D01*
X92132184Y-26551815D01*
X92051815Y-26632184D01*
X92000000Y-26709730D01*
X91948185Y-26632184D01*
X91867816Y-26551815D01*
X91773312Y-26488669D01*
X91668305Y-26445174D01*
X91556830Y-26423000D01*
X91443170Y-26423000D01*
X91331695Y-26445174D01*
X91226688Y-26488669D01*
X91132184Y-26551815D01*
X91051815Y-26632184D01*
X91000000Y-26709730D01*
X90948185Y-26632184D01*
X90867816Y-26551815D01*
X90773312Y-26488669D01*
X90668305Y-26445174D01*
X90556830Y-26423000D01*
X90443170Y-26423000D01*
X90331695Y-26445174D01*
X90226688Y-26488669D01*
X90132184Y-26551815D01*
X90051815Y-26632184D01*
X90000000Y-26709730D01*
X89948185Y-26632184D01*
X89867816Y-26551815D01*
X89773312Y-26488669D01*
X89668305Y-26445174D01*
X89556830Y-26423000D01*
X89443170Y-26423000D01*
X89331695Y-26445174D01*
X89226688Y-26488669D01*
X89132184Y-26551815D01*
X89051815Y-26632184D01*
X89000000Y-26709730D01*
X88948185Y-26632184D01*
X88867816Y-26551815D01*
X88773312Y-26488669D01*
X88668305Y-26445174D01*
X88556830Y-26423000D01*
X88443170Y-26423000D01*
X88331695Y-26445174D01*
X88226688Y-26488669D01*
X88132184Y-26551815D01*
X88051815Y-26632184D01*
X87988669Y-26726688D01*
X87945174Y-26831695D01*
X87923000Y-26943170D01*
X87923000Y-27056830D01*
X87945174Y-27168305D01*
X87988669Y-27273312D01*
X88051815Y-27367816D01*
X88132184Y-27448185D01*
X88226688Y-27511331D01*
X88331695Y-27554826D01*
X88443170Y-27577000D01*
X88556830Y-27577000D01*
X88668305Y-27554826D01*
X88773312Y-27511331D01*
X88867816Y-27448185D01*
X88948185Y-27367816D01*
X89000000Y-27290270D01*
X89051815Y-27367816D01*
X89132184Y-27448185D01*
X89226688Y-27511331D01*
X89331695Y-27554826D01*
X89443170Y-27577000D01*
X89556830Y-27577000D01*
X89668305Y-27554826D01*
X89773312Y-27511331D01*
X89867816Y-27448185D01*
X89948185Y-27367816D01*
X90000000Y-27290270D01*
X90051815Y-27367816D01*
X90132184Y-27448185D01*
X90226688Y-27511331D01*
X90331695Y-27554826D01*
X90443170Y-27577000D01*
X90556830Y-27577000D01*
X90668305Y-27554826D01*
X90773312Y-27511331D01*
X90867816Y-27448185D01*
X90948185Y-27367816D01*
X91000000Y-27290270D01*
X91051815Y-27367816D01*
X91132184Y-27448185D01*
X91226688Y-27511331D01*
X91331695Y-27554826D01*
X91443170Y-27577000D01*
X91556830Y-27577000D01*
X91668305Y-27554826D01*
X91773312Y-27511331D01*
X91867816Y-27448185D01*
X91948185Y-27367816D01*
X92000000Y-27290270D01*
X92051815Y-27367816D01*
X92132184Y-27448185D01*
X92226688Y-27511331D01*
X92331695Y-27554826D01*
X92443170Y-27577000D01*
X92556830Y-27577000D01*
X92668305Y-27554826D01*
X92773312Y-27511331D01*
X92867816Y-27448185D01*
X92948185Y-27367816D01*
X93000000Y-27290270D01*
X93051815Y-27367816D01*
X93132184Y-27448185D01*
X93226688Y-27511331D01*
X93331695Y-27554826D01*
X93443170Y-27577000D01*
X93556830Y-27577000D01*
X93668305Y-27554826D01*
X93773312Y-27511331D01*
X93867816Y-27448185D01*
X93948185Y-27367816D01*
X94000000Y-27290270D01*
X94051815Y-27367816D01*
X94132184Y-27448185D01*
X94226688Y-27511331D01*
X94331695Y-27554826D01*
X94443170Y-27577000D01*
X94556830Y-27577000D01*
X94668305Y-27554826D01*
X94773312Y-27511331D01*
X94867816Y-27448185D01*
X94948185Y-27367816D01*
X95000000Y-27290270D01*
X95051815Y-27367816D01*
X95132184Y-27448185D01*
X95226688Y-27511331D01*
X95331695Y-27554826D01*
X95443170Y-27577000D01*
X95556830Y-27577000D01*
X95668305Y-27554826D01*
X95773312Y-27511331D01*
X95867816Y-27448185D01*
X95948185Y-27367816D01*
X96000000Y-27290270D01*
X96051815Y-27367816D01*
X96132184Y-27448185D01*
X96226688Y-27511331D01*
X96331695Y-27554826D01*
X96443170Y-27577000D01*
X96556830Y-27577000D01*
X96668305Y-27554826D01*
X96773312Y-27511331D01*
X96867816Y-27448185D01*
X96948185Y-27367816D01*
X97000000Y-27290270D01*
X97051815Y-27367816D01*
X97132184Y-27448185D01*
X97226688Y-27511331D01*
X97331695Y-27554826D01*
X97443170Y-27577000D01*
X97556830Y-27577000D01*
X97668305Y-27554826D01*
X97773312Y-27511331D01*
X97867816Y-27448185D01*
X97948185Y-27367816D01*
X98011331Y-27273312D01*
X98054826Y-27168305D01*
X98063154Y-27126436D01*
X98131695Y-27154826D01*
X98243170Y-27177000D01*
X98356830Y-27177000D01*
X98468305Y-27154826D01*
X98573312Y-27111331D01*
X98667816Y-27048185D01*
X98748185Y-26967816D01*
X98811331Y-26873312D01*
X98854826Y-26768305D01*
X98877000Y-26656830D01*
X98877000Y-26543170D01*
X98863838Y-26477000D01*
X98956830Y-26477000D01*
X99068305Y-26454826D01*
X99173312Y-26411331D01*
X99267816Y-26348185D01*
X99348185Y-26267816D01*
X99373000Y-26230678D01*
X99373000Y-49373000D01*
X627000Y-49373000D01*
X627000Y-44943170D01*
X54823006Y-44943170D01*
X54823006Y-45056830D01*
X54845180Y-45168305D01*
X54888675Y-45273312D01*
X54951821Y-45367816D01*
X55032190Y-45448185D01*
X55126694Y-45511331D01*
X55231701Y-45554826D01*
X55343176Y-45577000D01*
X55456836Y-45577000D01*
X55568311Y-45554826D01*
X55673318Y-45511331D01*
X55767822Y-45448185D01*
X55848191Y-45367816D01*
X55911337Y-45273312D01*
X55954832Y-45168305D01*
X55977006Y-45056830D01*
X55977006Y-44943170D01*
X55954832Y-44831695D01*
X55911337Y-44726688D01*
X55848191Y-44632184D01*
X55767822Y-44551815D01*
X55673318Y-44488669D01*
X55568311Y-44445174D01*
X55456836Y-44423000D01*
X55343176Y-44423000D01*
X55231701Y-44445174D01*
X55126694Y-44488669D01*
X55032190Y-44551815D01*
X54951821Y-44632184D01*
X54888675Y-44726688D01*
X54845180Y-44831695D01*
X54823006Y-44943170D01*
X627000Y-44943170D01*
X627000Y-39643170D01*
X49123000Y-39643170D01*
X49123000Y-39756830D01*
X49145174Y-39868305D01*
X49188669Y-39973312D01*
X49251815Y-40067816D01*
X49283999Y-40100000D01*
X49251815Y-40132184D01*
X49188669Y-40226688D01*
X49145174Y-40331695D01*
X49123000Y-40443170D01*
X49123000Y-40556830D01*
X49145174Y-40668305D01*
X49188669Y-40773312D01*
X49251815Y-40867816D01*
X49283999Y-40900000D01*
X49251815Y-40932184D01*
X49188669Y-41026688D01*
X49145174Y-41131695D01*
X49123000Y-41243170D01*
X49123000Y-41356830D01*
X49145174Y-41468305D01*
X49188669Y-41573312D01*
X49251815Y-41667816D01*
X49283999Y-41700000D01*
X49251815Y-41732184D01*
X49188669Y-41826688D01*
X49145174Y-41931695D01*
X49123000Y-42043170D01*
X49123000Y-42156830D01*
X49145174Y-42268305D01*
X49188669Y-42373312D01*
X49251815Y-42467816D01*
X49283999Y-42500000D01*
X49251815Y-42532184D01*
X49188669Y-42626688D01*
X49145174Y-42731695D01*
X49123000Y-42843170D01*
X49123000Y-42956830D01*
X49145174Y-43068305D01*
X49188669Y-43173312D01*
X49251815Y-43267816D01*
X49332184Y-43348185D01*
X49426688Y-43411331D01*
X49531695Y-43454826D01*
X49643170Y-43477000D01*
X49756830Y-43477000D01*
X49868305Y-43454826D01*
X49973312Y-43411331D01*
X50067816Y-43348185D01*
X50148185Y-43267816D01*
X50211331Y-43173312D01*
X50223816Y-43143170D01*
X50923000Y-43143170D01*
X50923000Y-43256830D01*
X50945174Y-43368305D01*
X50988669Y-43473312D01*
X51051815Y-43567816D01*
X51132184Y-43648185D01*
X51226688Y-43711331D01*
X51331695Y-43754826D01*
X51443170Y-43777000D01*
X51556830Y-43777000D01*
X51668305Y-43754826D01*
X51773312Y-43711331D01*
X51867816Y-43648185D01*
X51948185Y-43567816D01*
X52011331Y-43473312D01*
X52054826Y-43368305D01*
X52077000Y-43256830D01*
X52077000Y-43143170D01*
X52054826Y-43031695D01*
X52011331Y-42926688D01*
X51948185Y-42832184D01*
X51867816Y-42751815D01*
X51773312Y-42688669D01*
X51668305Y-42645174D01*
X51556830Y-42623000D01*
X51443170Y-42623000D01*
X51331695Y-42645174D01*
X51226688Y-42688669D01*
X51132184Y-42751815D01*
X51051815Y-42832184D01*
X50988669Y-42926688D01*
X50945174Y-43031695D01*
X50923000Y-43143170D01*
X50223816Y-43143170D01*
X50254826Y-43068305D01*
X50277000Y-42956830D01*
X50277000Y-42843170D01*
X50254826Y-42731695D01*
X50211331Y-42626688D01*
X50148185Y-42532184D01*
X50116001Y-42500000D01*
X50148185Y-42467816D01*
X50211331Y-42373312D01*
X50254826Y-42268305D01*
X50277000Y-42156830D01*
X50277000Y-42043170D01*
X50254826Y-41931695D01*
X50211331Y-41826688D01*
X50148185Y-41732184D01*
X50116001Y-41700000D01*
X50148185Y-41667816D01*
X50211331Y-41573312D01*
X50254826Y-41468305D01*
X50277000Y-41356830D01*
X50277000Y-41243170D01*
X50254826Y-41131695D01*
X50211331Y-41026688D01*
X50148185Y-40932184D01*
X50116001Y-40900000D01*
X50148185Y-40867816D01*
X50211331Y-40773312D01*
X50254826Y-40668305D01*
X50277000Y-40556830D01*
X50277000Y-40443170D01*
X50254826Y-40331695D01*
X50211331Y-40226688D01*
X50148185Y-40132184D01*
X50116001Y-40100000D01*
X50148185Y-40067816D01*
X50211331Y-39973312D01*
X50254826Y-39868305D01*
X50277000Y-39756830D01*
X50277000Y-39643170D01*
X50254826Y-39531695D01*
X50211331Y-39426688D01*
X50148185Y-39332184D01*
X50067816Y-39251815D01*
X49973312Y-39188669D01*
X49868305Y-39145174D01*
X49756830Y-39123000D01*
X49643170Y-39123000D01*
X49531695Y-39145174D01*
X49426688Y-39188669D01*
X49332184Y-39251815D01*
X49251815Y-39332184D01*
X49188669Y-39426688D01*
X49145174Y-39531695D01*
X49123000Y-39643170D01*
X627000Y-39643170D01*
X627000Y-32027000D01*
X12000000Y-32027000D01*
X12024776Y-32024560D01*
X12048601Y-32017333D01*
X12070557Y-32005597D01*
X12089803Y-31989803D01*
X12105597Y-31970557D01*
X12117333Y-31948601D01*
X12124560Y-31924776D01*
X12127000Y-31900000D01*
X12127000Y-30343170D01*
X46823000Y-30343170D01*
X46823000Y-30456830D01*
X46845174Y-30568305D01*
X46888669Y-30673312D01*
X46951815Y-30767816D01*
X46983999Y-30800000D01*
X46951815Y-30832184D01*
X46888669Y-30926688D01*
X46845174Y-31031695D01*
X46823000Y-31143170D01*
X46823000Y-31256830D01*
X46845174Y-31368305D01*
X46888669Y-31473312D01*
X46951815Y-31567816D01*
X46983999Y-31600000D01*
X46951815Y-31632184D01*
X46888669Y-31726688D01*
X46845174Y-31831695D01*
X46823000Y-31943170D01*
X46823000Y-32056830D01*
X46845174Y-32168305D01*
X46888669Y-32273312D01*
X46951815Y-32367816D01*
X46983999Y-32400000D01*
X46951815Y-32432184D01*
X46888669Y-32526688D01*
X46845174Y-32631695D01*
X46823000Y-32743170D01*
X46823000Y-32856830D01*
X46845174Y-32968305D01*
X46888669Y-33073312D01*
X46951815Y-33167816D01*
X46983999Y-33200000D01*
X46951815Y-33232184D01*
X46888669Y-33326688D01*
X46845174Y-33431695D01*
X46823000Y-33543170D01*
X46823000Y-33656830D01*
X46845174Y-33768305D01*
X46888669Y-33873312D01*
X46951815Y-33967816D01*
X47032184Y-34048185D01*
X47126688Y-34111331D01*
X47231695Y-34154826D01*
X47343170Y-34177000D01*
X47456830Y-34177000D01*
X47568305Y-34154826D01*
X47673312Y-34111331D01*
X47767816Y-34048185D01*
X47848185Y-33967816D01*
X47864653Y-33943170D01*
X48723000Y-33943170D01*
X48723000Y-34056830D01*
X48745174Y-34168305D01*
X48788669Y-34273312D01*
X48851815Y-34367816D01*
X48932184Y-34448185D01*
X49026688Y-34511331D01*
X49131695Y-34554826D01*
X49243170Y-34577000D01*
X49356830Y-34577000D01*
X49468305Y-34554826D01*
X49573312Y-34511331D01*
X49667816Y-34448185D01*
X49748185Y-34367816D01*
X49811331Y-34273312D01*
X49854826Y-34168305D01*
X49877000Y-34056830D01*
X49877000Y-33943170D01*
X49854826Y-33831695D01*
X49811331Y-33726688D01*
X49748185Y-33632184D01*
X49667816Y-33551815D01*
X49573312Y-33488669D01*
X49468305Y-33445174D01*
X49356830Y-33423000D01*
X49243170Y-33423000D01*
X49131695Y-33445174D01*
X49026688Y-33488669D01*
X48932184Y-33551815D01*
X48851815Y-33632184D01*
X48788669Y-33726688D01*
X48745174Y-33831695D01*
X48723000Y-33943170D01*
X47864653Y-33943170D01*
X47911331Y-33873312D01*
X47954826Y-33768305D01*
X47977000Y-33656830D01*
X47977000Y-33543170D01*
X47954826Y-33431695D01*
X47911331Y-33326688D01*
X47848185Y-33232184D01*
X47816001Y-33200000D01*
X47848185Y-33167816D01*
X47911331Y-33073312D01*
X47954826Y-32968305D01*
X47977000Y-32856830D01*
X47977000Y-32743170D01*
X47954826Y-32631695D01*
X47911331Y-32526688D01*
X47848185Y-32432184D01*
X47816001Y-32400000D01*
X47848185Y-32367816D01*
X47911331Y-32273312D01*
X47954826Y-32168305D01*
X47977000Y-32056830D01*
X47977000Y-31943170D01*
X47954826Y-31831695D01*
X47911331Y-31726688D01*
X47848185Y-31632184D01*
X47816001Y-31600000D01*
X47848185Y-31567816D01*
X47911331Y-31473312D01*
X47954826Y-31368305D01*
X47977000Y-31256830D01*
X47977000Y-31143170D01*
X47954826Y-31031695D01*
X47911331Y-30926688D01*
X47848185Y-30832184D01*
X47816001Y-30800000D01*
X47848185Y-30767816D01*
X47911331Y-30673312D01*
X47954826Y-30568305D01*
X47977000Y-30456830D01*
X47977000Y-30343170D01*
X47954826Y-30231695D01*
X47911331Y-30126688D01*
X47848185Y-30032184D01*
X47767816Y-29951815D01*
X47673312Y-29888669D01*
X47568305Y-29845174D01*
X47456830Y-29823000D01*
X47343170Y-29823000D01*
X47231695Y-29845174D01*
X47126688Y-29888669D01*
X47032184Y-29951815D01*
X46951815Y-30032184D01*
X46888669Y-30126688D01*
X46845174Y-30231695D01*
X46823000Y-30343170D01*
X12127000Y-30343170D01*
X12127000Y-26777000D01*
X12156830Y-26777000D01*
X12268305Y-26754826D01*
X12373312Y-26711331D01*
X12400000Y-26693499D01*
X12426688Y-26711331D01*
X12531695Y-26754826D01*
X12643170Y-26777000D01*
X12756830Y-26777000D01*
X12868305Y-26754826D01*
X12973312Y-26711331D01*
X13000000Y-26693499D01*
X13026688Y-26711331D01*
X13131695Y-26754826D01*
X13243170Y-26777000D01*
X13356830Y-26777000D01*
X13468305Y-26754826D01*
X13573312Y-26711331D01*
X13667816Y-26648185D01*
X13748185Y-26567816D01*
X13811331Y-26473312D01*
X13812343Y-26470868D01*
X13843170Y-26477000D01*
X13956830Y-26477000D01*
X14068305Y-26454826D01*
X14173312Y-26411331D01*
X14267816Y-26348185D01*
X14348185Y-26267816D01*
X14411331Y-26173312D01*
X14454826Y-26068305D01*
X14477000Y-25956830D01*
X14477000Y-25843170D01*
X14454826Y-25731695D01*
X14411331Y-25626688D01*
X14393499Y-25600000D01*
X14411331Y-25573312D01*
X14454826Y-25468305D01*
X14477000Y-25356830D01*
X14477000Y-25243170D01*
X14454826Y-25131695D01*
X14411331Y-25026688D01*
X14393499Y-25000000D01*
X14411331Y-24973312D01*
X14454826Y-24868305D01*
X14477000Y-24756830D01*
X14477000Y-24643170D01*
X14454826Y-24531695D01*
X14411331Y-24426688D01*
X14393499Y-24400000D01*
X14411331Y-24373312D01*
X14454826Y-24268305D01*
X14477000Y-24156830D01*
X14477000Y-24043170D01*
X14454826Y-23931695D01*
X14411331Y-23826688D01*
X14348185Y-23732184D01*
X14267816Y-23651815D01*
X14173312Y-23588669D01*
X14068305Y-23545174D01*
X13956830Y-23523000D01*
X13843170Y-23523000D01*
X13812343Y-23529132D01*
X13811331Y-23526688D01*
X13748185Y-23432184D01*
X13667816Y-23351815D01*
X13573312Y-23288669D01*
X13468305Y-23245174D01*
X13356830Y-23223000D01*
X13243170Y-23223000D01*
X13131695Y-23245174D01*
X13026688Y-23288669D01*
X13000000Y-23306501D01*
X12973312Y-23288669D01*
X12868305Y-23245174D01*
X12756830Y-23223000D01*
X12643170Y-23223000D01*
X12531695Y-23245174D01*
X12426688Y-23288669D01*
X12400000Y-23306501D01*
X12373312Y-23288669D01*
X12268305Y-23245174D01*
X12156830Y-23223000D01*
X12127000Y-23223000D01*
X12127000Y-19843170D01*
X46823000Y-19843170D01*
X46823000Y-19956830D01*
X46845174Y-20068305D01*
X46888669Y-20173312D01*
X46951815Y-20267816D01*
X46983999Y-20300000D01*
X46951815Y-20332184D01*
X46888669Y-20426688D01*
X46845174Y-20531695D01*
X46823000Y-20643170D01*
X46823000Y-20756830D01*
X46845174Y-20868305D01*
X46888669Y-20973312D01*
X46951815Y-21067816D01*
X46983999Y-21100000D01*
X46951815Y-21132184D01*
X46888669Y-21226688D01*
X46845174Y-21331695D01*
X46823000Y-21443170D01*
X46823000Y-21556830D01*
X46845174Y-21668305D01*
X46888669Y-21773312D01*
X46951815Y-21867816D01*
X46983999Y-21900000D01*
X46951815Y-21932184D01*
X46888669Y-22026688D01*
X46845174Y-22131695D01*
X46823000Y-22243170D01*
X46823000Y-22356830D01*
X46845174Y-22468305D01*
X46888669Y-22573312D01*
X46951815Y-22667816D01*
X46983999Y-22700000D01*
X46951815Y-22732184D01*
X46888669Y-22826688D01*
X46845174Y-22931695D01*
X46823000Y-23043170D01*
X46823000Y-23156830D01*
X46845174Y-23268305D01*
X46888669Y-23373312D01*
X46951815Y-23467816D01*
X47032184Y-23548185D01*
X47126688Y-23611331D01*
X47231695Y-23654826D01*
X47343170Y-23677000D01*
X47456830Y-23677000D01*
X47568305Y-23654826D01*
X47673312Y-23611331D01*
X47767816Y-23548185D01*
X47848185Y-23467816D01*
X47911331Y-23373312D01*
X47954826Y-23268305D01*
X47977000Y-23156830D01*
X47977000Y-23043170D01*
X47954826Y-22931695D01*
X47911331Y-22826688D01*
X47848185Y-22732184D01*
X47816001Y-22700000D01*
X47848185Y-22667816D01*
X47911331Y-22573312D01*
X47954826Y-22468305D01*
X47977000Y-22356830D01*
X47977000Y-22243170D01*
X47954826Y-22131695D01*
X47911331Y-22026688D01*
X47848185Y-21932184D01*
X47816001Y-21900000D01*
X47848185Y-21867816D01*
X47911331Y-21773312D01*
X47954826Y-21668305D01*
X47977000Y-21556830D01*
X47977000Y-21443170D01*
X47954826Y-21331695D01*
X47911331Y-21226688D01*
X47848185Y-21132184D01*
X47816001Y-21100000D01*
X47848185Y-21067816D01*
X47911331Y-20973312D01*
X47954826Y-20868305D01*
X47977000Y-20756830D01*
X47977000Y-20643170D01*
X47954826Y-20531695D01*
X47911331Y-20426688D01*
X47848185Y-20332184D01*
X47816001Y-20300000D01*
X47848185Y-20267816D01*
X47911331Y-20173312D01*
X47923816Y-20143170D01*
X52623000Y-20143170D01*
X52623000Y-20256830D01*
X52645174Y-20368305D01*
X52688669Y-20473312D01*
X52751815Y-20567816D01*
X52783999Y-20600000D01*
X52751815Y-20632184D01*
X52688669Y-20726688D01*
X52645174Y-20831695D01*
X52623000Y-20943170D01*
X52623000Y-21056830D01*
X52645174Y-21168305D01*
X52688669Y-21273312D01*
X52739911Y-21350000D01*
X52688669Y-21426688D01*
X52645174Y-21531695D01*
X52623000Y-21643170D01*
X52623000Y-21756830D01*
X52645174Y-21868305D01*
X52688669Y-21973312D01*
X52751815Y-22067816D01*
X52832184Y-22148185D01*
X52926688Y-22211331D01*
X53031695Y-22254826D01*
X53143170Y-22277000D01*
X53256830Y-22277000D01*
X53368305Y-22254826D01*
X53473312Y-22211331D01*
X53546341Y-22162534D01*
X53227648Y-23264681D01*
X53217632Y-23312413D01*
X53178424Y-23607282D01*
X53175619Y-23655972D01*
X53287982Y-30229197D01*
X53256830Y-30223000D01*
X53143170Y-30223000D01*
X53031695Y-30245174D01*
X52926688Y-30288669D01*
X52832184Y-30351815D01*
X52751815Y-30432184D01*
X52688669Y-30526688D01*
X52645174Y-30631695D01*
X52623000Y-30743170D01*
X52623000Y-30856830D01*
X52645174Y-30968305D01*
X52688669Y-31073312D01*
X52751815Y-31167816D01*
X52783999Y-31200000D01*
X52751815Y-31232184D01*
X52688669Y-31326688D01*
X52645174Y-31431695D01*
X52623000Y-31543170D01*
X52623000Y-31656830D01*
X52645174Y-31768305D01*
X52688669Y-31873312D01*
X52751815Y-31967816D01*
X52783999Y-32000000D01*
X52751815Y-32032184D01*
X52688669Y-32126688D01*
X52645174Y-32231695D01*
X52623000Y-32343170D01*
X52623000Y-32456830D01*
X52645174Y-32568305D01*
X52688669Y-32673312D01*
X52751815Y-32767816D01*
X52832184Y-32848185D01*
X52926688Y-32911331D01*
X53031695Y-32954826D01*
X53143170Y-32977000D01*
X53256830Y-32977000D01*
X53334688Y-32961513D01*
X53369088Y-34973902D01*
X53371839Y-35011008D01*
X53390731Y-35154463D01*
X53368305Y-35145174D01*
X53256830Y-35123000D01*
X53143170Y-35123000D01*
X53031695Y-35145174D01*
X52926688Y-35188669D01*
X52832184Y-35251815D01*
X52751815Y-35332184D01*
X52688669Y-35426688D01*
X52645174Y-35531695D01*
X52623000Y-35643170D01*
X52623000Y-35756830D01*
X52645174Y-35868305D01*
X52688669Y-35973312D01*
X52751815Y-36067816D01*
X52832184Y-36148185D01*
X52926688Y-36211331D01*
X53031695Y-36254826D01*
X53143170Y-36277000D01*
X53256830Y-36277000D01*
X53368305Y-36254826D01*
X53473312Y-36211331D01*
X53567816Y-36148185D01*
X53648185Y-36067816D01*
X53711331Y-35973312D01*
X53718798Y-35955284D01*
X55491187Y-39423000D01*
X55443170Y-39423000D01*
X55331695Y-39445174D01*
X55226688Y-39488669D01*
X55132184Y-39551815D01*
X55051815Y-39632184D01*
X54988669Y-39726688D01*
X54945174Y-39831695D01*
X54923000Y-39943170D01*
X54923000Y-40056830D01*
X54945174Y-40168305D01*
X54988669Y-40273312D01*
X55051815Y-40367816D01*
X55083999Y-40400000D01*
X55051815Y-40432184D01*
X54988669Y-40526688D01*
X54945174Y-40631695D01*
X54923000Y-40743170D01*
X54923000Y-40856830D01*
X54945174Y-40968305D01*
X54988669Y-41073312D01*
X55051815Y-41167816D01*
X55083999Y-41200000D01*
X55051815Y-41232184D01*
X54988669Y-41326688D01*
X54945174Y-41431695D01*
X54923000Y-41543170D01*
X54923000Y-41656830D01*
X54945174Y-41768305D01*
X54988669Y-41873312D01*
X55051815Y-41967816D01*
X55132184Y-42048185D01*
X55226688Y-42111331D01*
X55331695Y-42154826D01*
X55443170Y-42177000D01*
X55556830Y-42177000D01*
X55668305Y-42154826D01*
X55673000Y-42152881D01*
X55673000Y-43600000D01*
X55675056Y-43636613D01*
X55695114Y-43814630D01*
X55711408Y-43886018D01*
X55770575Y-44055108D01*
X55802346Y-44121081D01*
X55897656Y-44272766D01*
X55943311Y-44330016D01*
X56069984Y-44456689D01*
X56127234Y-44502344D01*
X56278919Y-44597654D01*
X56344892Y-44629425D01*
X56513982Y-44688592D01*
X56585370Y-44704886D01*
X56763387Y-44724944D01*
X56836613Y-44724944D01*
X57014630Y-44704886D01*
X57086018Y-44688592D01*
X57255108Y-44629425D01*
X57321081Y-44597654D01*
X57472766Y-44502344D01*
X57530016Y-44456689D01*
X57656689Y-44330016D01*
X57702344Y-44272766D01*
X57797654Y-44121081D01*
X57829425Y-44055108D01*
X57888592Y-43886018D01*
X57904886Y-43814630D01*
X57924944Y-43636613D01*
X57927000Y-43600000D01*
X57927000Y-39940744D01*
X57924721Y-39902207D01*
X57896944Y-39668150D01*
X57878905Y-39593218D01*
X57797117Y-39372164D01*
X57781607Y-39336812D01*
X55709538Y-35282766D01*
X55647924Y-35116238D01*
X55627000Y-34939923D01*
X55627000Y-31630275D01*
X55641483Y-31483228D01*
X55679691Y-31357271D01*
X55741736Y-31241194D01*
X55835475Y-31126973D01*
X57426973Y-29535475D01*
X57541194Y-29441736D01*
X57657271Y-29379691D01*
X57783228Y-29341483D01*
X57930275Y-29327000D01*
X58500000Y-29327000D01*
X58532052Y-29325425D01*
X58727142Y-29306210D01*
X58790012Y-29293705D01*
X58977605Y-29236800D01*
X59036830Y-29212268D01*
X59209717Y-29119858D01*
X59263016Y-29084245D01*
X59414553Y-28959882D01*
X59459882Y-28914553D01*
X59584245Y-28763016D01*
X59619858Y-28709717D01*
X59712268Y-28536830D01*
X59736800Y-28477605D01*
X59793705Y-28290012D01*
X59806210Y-28227142D01*
X59825425Y-28032052D01*
X59827000Y-28000000D01*
X59827000Y-24943170D01*
X83723000Y-24943170D01*
X83723000Y-25056830D01*
X83745174Y-25168305D01*
X83788669Y-25273312D01*
X83851815Y-25367816D01*
X83932184Y-25448185D01*
X84026688Y-25511331D01*
X84131695Y-25554826D01*
X84243170Y-25577000D01*
X84356830Y-25577000D01*
X84468305Y-25554826D01*
X84573312Y-25511331D01*
X84667816Y-25448185D01*
X84748185Y-25367816D01*
X84811331Y-25273312D01*
X84854826Y-25168305D01*
X84877000Y-25056830D01*
X84877000Y-24943170D01*
X87173000Y-24943170D01*
X87173000Y-25056830D01*
X87195174Y-25168305D01*
X87238669Y-25273312D01*
X87301815Y-25367816D01*
X87382184Y-25448185D01*
X87476688Y-25511331D01*
X87581695Y-25554826D01*
X87693170Y-25577000D01*
X87806830Y-25577000D01*
X87918305Y-25554826D01*
X88023312Y-25511331D01*
X88117816Y-25448185D01*
X88198185Y-25367816D01*
X88261331Y-25273312D01*
X88304826Y-25168305D01*
X88327000Y-25056830D01*
X88327000Y-24943170D01*
X88304826Y-24831695D01*
X88261331Y-24726688D01*
X88198185Y-24632184D01*
X88117816Y-24551815D01*
X88023312Y-24488669D01*
X87918305Y-24445174D01*
X87806830Y-24423000D01*
X87693170Y-24423000D01*
X87581695Y-24445174D01*
X87476688Y-24488669D01*
X87382184Y-24551815D01*
X87301815Y-24632184D01*
X87238669Y-24726688D01*
X87195174Y-24831695D01*
X87173000Y-24943170D01*
X84877000Y-24943170D01*
X84854826Y-24831695D01*
X84811331Y-24726688D01*
X84748185Y-24632184D01*
X84667816Y-24551815D01*
X84573312Y-24488669D01*
X84468305Y-24445174D01*
X84356830Y-24423000D01*
X84243170Y-24423000D01*
X84131695Y-24445174D01*
X84026688Y-24488669D01*
X83932184Y-24551815D01*
X83851815Y-24632184D01*
X83788669Y-24726688D01*
X83745174Y-24831695D01*
X83723000Y-24943170D01*
X59827000Y-24943170D01*
X59827000Y-22414214D01*
X59825425Y-22382162D01*
X59806210Y-22187071D01*
X59793705Y-22124201D01*
X59736800Y-21936608D01*
X59712268Y-21877383D01*
X59619858Y-21704496D01*
X59584244Y-21651196D01*
X59459881Y-21499660D01*
X59438331Y-21475883D01*
X58835475Y-20873027D01*
X58741736Y-20758806D01*
X58679691Y-20642729D01*
X58641483Y-20516772D01*
X58627000Y-20369725D01*
X58627000Y-20041421D01*
X58620717Y-19977627D01*
X58594728Y-19846971D01*
X58576119Y-19785627D01*
X58545901Y-19729093D01*
X58471890Y-19618328D01*
X58431224Y-19568776D01*
X58381672Y-19528110D01*
X58270907Y-19454099D01*
X58214372Y-19423880D01*
X58153029Y-19405272D01*
X58022373Y-19379283D01*
X57958579Y-19373000D01*
X57271171Y-19373000D01*
X57163679Y-19359021D01*
X57083097Y-19326088D01*
X57013623Y-19273642D01*
X56959870Y-19205167D01*
X56925421Y-19125227D01*
X56912565Y-19039133D01*
X56924512Y-18931383D01*
X57789046Y-15394651D01*
X57796052Y-15356108D01*
X57824653Y-15118655D01*
X57827000Y-15079551D01*
X57827000Y-14341421D01*
X57820717Y-14277627D01*
X57794728Y-14146971D01*
X57776119Y-14085627D01*
X57745901Y-14029093D01*
X57671890Y-13918328D01*
X57631224Y-13868776D01*
X57581672Y-13828110D01*
X57470907Y-13754099D01*
X57414372Y-13723880D01*
X57353029Y-13705272D01*
X57222373Y-13679283D01*
X57158579Y-13673000D01*
X56241421Y-13673000D01*
X56177627Y-13679283D01*
X56046971Y-13705272D01*
X55985627Y-13723881D01*
X55929093Y-13754099D01*
X55818328Y-13828110D01*
X55768776Y-13868776D01*
X55728110Y-13918328D01*
X55654099Y-14029093D01*
X55623880Y-14085628D01*
X55605272Y-14146971D01*
X55579283Y-14277627D01*
X55573000Y-14341421D01*
X55573000Y-15035274D01*
X55540112Y-15267412D01*
X55493040Y-15430203D01*
X55456830Y-15423000D01*
X55343170Y-15423000D01*
X55231695Y-15445174D01*
X55126688Y-15488669D01*
X55032184Y-15551815D01*
X54951815Y-15632184D01*
X54888669Y-15726688D01*
X54845174Y-15831695D01*
X54823000Y-15943170D01*
X54823000Y-16056830D01*
X54845174Y-16168305D01*
X54888669Y-16273312D01*
X54951815Y-16367816D01*
X55032184Y-16448185D01*
X55126688Y-16511331D01*
X55174677Y-16531208D01*
X53739471Y-21494626D01*
X53711331Y-21426688D01*
X53660089Y-21350000D01*
X53711331Y-21273312D01*
X53754826Y-21168305D01*
X53777000Y-21056830D01*
X53777000Y-20943170D01*
X53754826Y-20831695D01*
X53711331Y-20726688D01*
X53648185Y-20632184D01*
X53616001Y-20600000D01*
X53648185Y-20567816D01*
X53711331Y-20473312D01*
X53754826Y-20368305D01*
X53777000Y-20256830D01*
X53777000Y-20143170D01*
X53754826Y-20031695D01*
X53711331Y-19926688D01*
X53648185Y-19832184D01*
X53567816Y-19751815D01*
X53473312Y-19688669D01*
X53368305Y-19645174D01*
X53256830Y-19623000D01*
X53143170Y-19623000D01*
X53031695Y-19645174D01*
X52926688Y-19688669D01*
X52832184Y-19751815D01*
X52751815Y-19832184D01*
X52688669Y-19926688D01*
X52645174Y-20031695D01*
X52623000Y-20143170D01*
X47923816Y-20143170D01*
X47954826Y-20068305D01*
X47977000Y-19956830D01*
X47977000Y-19843170D01*
X47954826Y-19731695D01*
X47911331Y-19626688D01*
X47848185Y-19532184D01*
X47767816Y-19451815D01*
X47673312Y-19388669D01*
X47568305Y-19345174D01*
X47456830Y-19323000D01*
X47343170Y-19323000D01*
X47231695Y-19345174D01*
X47126688Y-19388669D01*
X47032184Y-19451815D01*
X46951815Y-19532184D01*
X46888669Y-19626688D01*
X46845174Y-19731695D01*
X46823000Y-19843170D01*
X12127000Y-19843170D01*
X12127000Y-18400000D01*
X12124560Y-18375224D01*
X12117333Y-18351399D01*
X12105597Y-18329443D01*
X12089803Y-18310197D01*
X12070557Y-18294403D01*
X12048601Y-18282667D01*
X12024776Y-18275440D01*
X12000000Y-18273000D01*
X627000Y-18273000D01*
X627000Y-10643170D01*
X49123000Y-10643170D01*
X49123000Y-10756830D01*
X49145174Y-10868305D01*
X49188669Y-10973312D01*
X49251815Y-11067816D01*
X49283999Y-11100000D01*
X49251815Y-11132184D01*
X49188669Y-11226688D01*
X49145174Y-11331695D01*
X49123000Y-11443170D01*
X49123000Y-11556830D01*
X49145174Y-11668305D01*
X49188669Y-11773312D01*
X49251815Y-11867816D01*
X49283999Y-11900000D01*
X49251815Y-11932184D01*
X49188669Y-12026688D01*
X49145174Y-12131695D01*
X49123000Y-12243170D01*
X49123000Y-12356830D01*
X49145174Y-12468305D01*
X49188669Y-12573312D01*
X49251815Y-12667816D01*
X49283999Y-12700000D01*
X49251815Y-12732184D01*
X49188669Y-12826688D01*
X49145174Y-12931695D01*
X49123000Y-13043170D01*
X49123000Y-13156830D01*
X49145174Y-13268305D01*
X49188669Y-13373312D01*
X49251815Y-13467816D01*
X49283999Y-13500000D01*
X49251815Y-13532184D01*
X49188669Y-13626688D01*
X49145174Y-13731695D01*
X49123000Y-13843170D01*
X49123000Y-13956830D01*
X49145174Y-14068305D01*
X49188669Y-14173312D01*
X49251815Y-14267816D01*
X49332184Y-14348185D01*
X49426688Y-14411331D01*
X49531695Y-14454826D01*
X49643170Y-14477000D01*
X49756830Y-14477000D01*
X49868305Y-14454826D01*
X49973312Y-14411331D01*
X50067816Y-14348185D01*
X50148185Y-14267816D01*
X50211331Y-14173312D01*
X50223816Y-14143170D01*
X50923000Y-14143170D01*
X50923000Y-14256830D01*
X50945174Y-14368305D01*
X50988669Y-14473312D01*
X51051815Y-14567816D01*
X51132184Y-14648185D01*
X51226688Y-14711331D01*
X51331695Y-14754826D01*
X51443170Y-14777000D01*
X51556830Y-14777000D01*
X51668305Y-14754826D01*
X51773312Y-14711331D01*
X51867816Y-14648185D01*
X51948185Y-14567816D01*
X52011331Y-14473312D01*
X52054826Y-14368305D01*
X52077000Y-14256830D01*
X52077000Y-14143170D01*
X52054826Y-14031695D01*
X52011331Y-13926688D01*
X51948185Y-13832184D01*
X51867816Y-13751815D01*
X51773312Y-13688669D01*
X51668305Y-13645174D01*
X51556830Y-13623000D01*
X51443170Y-13623000D01*
X51331695Y-13645174D01*
X51226688Y-13688669D01*
X51132184Y-13751815D01*
X51051815Y-13832184D01*
X50988669Y-13926688D01*
X50945174Y-14031695D01*
X50923000Y-14143170D01*
X50223816Y-14143170D01*
X50254826Y-14068305D01*
X50277000Y-13956830D01*
X50277000Y-13843170D01*
X50254826Y-13731695D01*
X50211331Y-13626688D01*
X50148185Y-13532184D01*
X50116001Y-13500000D01*
X50148185Y-13467816D01*
X50211331Y-13373312D01*
X50254826Y-13268305D01*
X50277000Y-13156830D01*
X50277000Y-13043170D01*
X50254826Y-12931695D01*
X50211331Y-12826688D01*
X50148185Y-12732184D01*
X50116001Y-12700000D01*
X50148185Y-12667816D01*
X50211331Y-12573312D01*
X50254826Y-12468305D01*
X50277000Y-12356830D01*
X50277000Y-12243170D01*
X50254826Y-12131695D01*
X50211331Y-12026688D01*
X50148185Y-11932184D01*
X50116001Y-11900000D01*
X50148185Y-11867816D01*
X50211331Y-11773312D01*
X50254826Y-11668305D01*
X50277000Y-11556830D01*
X50277000Y-11443170D01*
X50254826Y-11331695D01*
X50211331Y-11226688D01*
X50148185Y-11132184D01*
X50116001Y-11100000D01*
X50148185Y-11067816D01*
X50211331Y-10973312D01*
X50223816Y-10943170D01*
X54923000Y-10943170D01*
X54923000Y-11056830D01*
X54945174Y-11168305D01*
X54988669Y-11273312D01*
X55051815Y-11367816D01*
X55083999Y-11400000D01*
X55051815Y-11432184D01*
X54988669Y-11526688D01*
X54945174Y-11631695D01*
X54923000Y-11743170D01*
X54923000Y-11856830D01*
X54945174Y-11968305D01*
X54988669Y-12073312D01*
X55051815Y-12167816D01*
X55083999Y-12200000D01*
X55051815Y-12232184D01*
X54988669Y-12326688D01*
X54945174Y-12431695D01*
X54923000Y-12543170D01*
X54923000Y-12656830D01*
X54945174Y-12768305D01*
X54988669Y-12873312D01*
X55051815Y-12967816D01*
X55132184Y-13048185D01*
X55226688Y-13111331D01*
X55331695Y-13154826D01*
X55443170Y-13177000D01*
X55556830Y-13177000D01*
X55668305Y-13154826D01*
X55773312Y-13111331D01*
X55867816Y-13048185D01*
X55948185Y-12967816D01*
X56011331Y-12873312D01*
X56054826Y-12768305D01*
X56077000Y-12656830D01*
X56077000Y-12543170D01*
X56054826Y-12431695D01*
X56011331Y-12326688D01*
X55948185Y-12232184D01*
X55916001Y-12200000D01*
X55948185Y-12167816D01*
X56011331Y-12073312D01*
X56054826Y-11968305D01*
X56077000Y-11856830D01*
X56077000Y-11743170D01*
X56054826Y-11631695D01*
X56011331Y-11526688D01*
X55948185Y-11432184D01*
X55916001Y-11400000D01*
X55948185Y-11367816D01*
X56011331Y-11273312D01*
X56054826Y-11168305D01*
X56077000Y-11056830D01*
X56077000Y-10943170D01*
X56054826Y-10831695D01*
X56011331Y-10726688D01*
X55948185Y-10632184D01*
X55867816Y-10551815D01*
X55773312Y-10488669D01*
X55668305Y-10445174D01*
X55556830Y-10423000D01*
X55443170Y-10423000D01*
X55331695Y-10445174D01*
X55226688Y-10488669D01*
X55132184Y-10551815D01*
X55051815Y-10632184D01*
X54988669Y-10726688D01*
X54945174Y-10831695D01*
X54923000Y-10943170D01*
X50223816Y-10943170D01*
X50254826Y-10868305D01*
X50277000Y-10756830D01*
X50277000Y-10643170D01*
X50254826Y-10531695D01*
X50211331Y-10426688D01*
X50148185Y-10332184D01*
X50067816Y-10251815D01*
X49973312Y-10188669D01*
X49868305Y-10145174D01*
X49756830Y-10123000D01*
X49643170Y-10123000D01*
X49531695Y-10145174D01*
X49426688Y-10188669D01*
X49332184Y-10251815D01*
X49251815Y-10332184D01*
X49188669Y-10426688D01*
X49145174Y-10531695D01*
X49123000Y-10643170D01*
X627000Y-10643170D01*
X627000Y-627000D01*
X99373000Y-627000D01*
X99373000Y-23769322D01*
G37*
%TD.AperFunction*%
%TD*%
D13*
%TO.N,GND*%
X11773000Y-23324542D02*
X11732184Y-23351815D01*
X11651815Y-23432184D01*
X11588669Y-23526688D01*
X11545174Y-23631695D01*
X11523000Y-23743170D01*
X11523000Y-23856830D01*
X11545174Y-23968305D01*
X11588669Y-24073312D01*
X11651815Y-24167816D01*
X11732184Y-24248185D01*
X11773000Y-24275458D01*
X11773000Y-25724542D01*
X11732184Y-25751815D01*
X11651815Y-25832184D01*
X11588669Y-25926688D01*
X11545174Y-26031695D01*
X11523000Y-26143170D01*
X11523000Y-26256830D01*
X11545174Y-26368305D01*
X11588669Y-26473312D01*
X11651815Y-26567816D01*
X11732184Y-26648185D01*
X11773000Y-26675458D01*
X11773000Y-31673000D01*
X627000Y-31673000D01*
X627000Y-18627000D01*
X11773000Y-18627000D01*
X11773000Y-23324542D01*
%TA.AperFunction,Conductor*%
D12*
G36*
X11773000Y-23324542D02*
G01*
X11732184Y-23351815D01*
X11651815Y-23432184D01*
X11588669Y-23526688D01*
X11545174Y-23631695D01*
X11523000Y-23743170D01*
X11523000Y-23856830D01*
X11545174Y-23968305D01*
X11588669Y-24073312D01*
X11651815Y-24167816D01*
X11732184Y-24248185D01*
X11773000Y-24275458D01*
X11773000Y-25724542D01*
X11732184Y-25751815D01*
X11651815Y-25832184D01*
X11588669Y-25926688D01*
X11545174Y-26031695D01*
X11523000Y-26143170D01*
X11523000Y-26256830D01*
X11545174Y-26368305D01*
X11588669Y-26473312D01*
X11651815Y-26567816D01*
X11732184Y-26648185D01*
X11773000Y-26675458D01*
X11773000Y-31673000D01*
X627000Y-31673000D01*
X627000Y-18627000D01*
X11773000Y-18627000D01*
X11773000Y-23324542D01*
G37*
%TD.AperFunction*%
%TD*%
M02*
