%TF.GenerationSoftware,KiCad,Pcbnew,5.1.7*%
%TF.CreationDate,2020-12-15T20:32:55+00:00*%
%TF.ProjectId,QPL9065,51504c39-3036-4352-9e6b-696361645f70,rev?*%
%TF.SameCoordinates,Original*%
%TF.FileFunction,Soldermask,Top*%
%TF.FilePolarity,Negative*%
%FSLAX46Y46*%
G04 Gerber Fmt 4.6, Leading zero omitted, Abs format (unit mm)*
G04 Created by KiCad (PCBNEW 5.1.7) date 2020-12-15 20:32:55*
%MOMM*%
%LPD*%
G01*
G04 APERTURE LIST*
%ADD10C,0.800000*%
%ADD11C,0.100000*%
%ADD12C,3.300000*%
G04 APERTURE END LIST*
D10*
X148400000Y-85000000D02*
X148400000Y-92500000D01*
D11*
G36*
X165000000Y-94900000D02*
G01*
X152100000Y-94900000D01*
X152100000Y-94000000D01*
X151700000Y-93750000D01*
X152100000Y-93500000D01*
X152100000Y-92600000D01*
X165000000Y-92600000D01*
X165000000Y-94900000D01*
G37*
X165000000Y-94900000D02*
X152100000Y-94900000D01*
X152100000Y-94000000D01*
X151700000Y-93750000D01*
X152100000Y-93500000D01*
X152100000Y-92600000D01*
X165000000Y-92600000D01*
X165000000Y-94900000D01*
G36*
X147900000Y-93500000D02*
G01*
X148400000Y-93750000D01*
X147900000Y-94000000D01*
X147900000Y-94900000D01*
X135000000Y-94900000D01*
X135000000Y-92600000D01*
X147900000Y-92600000D01*
X147900000Y-93500000D01*
G37*
X147900000Y-93500000D02*
X148400000Y-93750000D01*
X147900000Y-94000000D01*
X147900000Y-94900000D01*
X135000000Y-94900000D01*
X135000000Y-92600000D01*
X147900000Y-92600000D01*
X147900000Y-93500000D01*
D10*
X148400000Y-95500000D02*
X148400000Y-107600000D01*
D11*
G36*
X165000000Y-109000000D02*
G01*
X135000000Y-109000000D01*
X135000000Y-107000000D01*
X165000000Y-107000000D01*
X165000000Y-109000000D01*
G37*
X165000000Y-109000000D02*
X135000000Y-109000000D01*
X135000000Y-107000000D01*
X165000000Y-107000000D01*
X165000000Y-109000000D01*
G36*
X165000000Y-81000000D02*
G01*
X154750000Y-81000000D01*
X154750000Y-79000000D01*
X165000000Y-79000000D01*
X165000000Y-81000000D01*
G37*
X165000000Y-81000000D02*
X154750000Y-81000000D01*
X154750000Y-79000000D01*
X165000000Y-79000000D01*
X165000000Y-81000000D01*
G36*
X145250000Y-81000000D02*
G01*
X135000000Y-81000000D01*
X135000000Y-79000000D01*
X145250000Y-79000000D01*
X145250000Y-81000000D01*
G37*
X145250000Y-81000000D02*
X135000000Y-81000000D01*
X135000000Y-79000000D01*
X145250000Y-79000000D01*
X145250000Y-81000000D01*
G36*
X137000000Y-89250000D02*
G01*
X135000000Y-89250000D01*
X135000000Y-79000000D01*
X137000000Y-79000000D01*
X137000000Y-89250000D01*
G37*
X137000000Y-89250000D02*
X135000000Y-89250000D01*
X135000000Y-79000000D01*
X137000000Y-79000000D01*
X137000000Y-89250000D01*
G36*
X137000000Y-109000000D02*
G01*
X135000000Y-109000000D01*
X135000000Y-98750000D01*
X137000000Y-98750000D01*
X137000000Y-109000000D01*
G37*
X137000000Y-109000000D02*
X135000000Y-109000000D01*
X135000000Y-98750000D01*
X137000000Y-98750000D01*
X137000000Y-109000000D01*
G36*
X165000000Y-109000000D02*
G01*
X163000000Y-109000000D01*
X163000000Y-98750000D01*
X165000000Y-98750000D01*
X165000000Y-109000000D01*
G37*
X165000000Y-109000000D02*
X163000000Y-109000000D01*
X163000000Y-98750000D01*
X165000000Y-98750000D01*
X165000000Y-109000000D01*
G36*
X165000000Y-89250000D02*
G01*
X163000000Y-89250000D01*
X163000000Y-79000000D01*
X165000000Y-79000000D01*
X165000000Y-89250000D01*
G37*
X165000000Y-89250000D02*
X163000000Y-89250000D01*
X163000000Y-79000000D01*
X165000000Y-79000000D01*
X165000000Y-89250000D01*
%TO.C,C5*%
G36*
G01*
X154855000Y-89897500D02*
X154855000Y-89502500D01*
G75*
G02*
X155027500Y-89330000I172500J0D01*
G01*
X155372500Y-89330000D01*
G75*
G02*
X155545000Y-89502500I0J-172500D01*
G01*
X155545000Y-89897500D01*
G75*
G02*
X155372500Y-90070000I-172500J0D01*
G01*
X155027500Y-90070000D01*
G75*
G02*
X154855000Y-89897500I0J172500D01*
G01*
G37*
G36*
G01*
X155825000Y-89897500D02*
X155825000Y-89502500D01*
G75*
G02*
X155997500Y-89330000I172500J0D01*
G01*
X156342500Y-89330000D01*
G75*
G02*
X156515000Y-89502500I0J-172500D01*
G01*
X156515000Y-89897500D01*
G75*
G02*
X156342500Y-90070000I-172500J0D01*
G01*
X155997500Y-90070000D01*
G75*
G02*
X155825000Y-89897500I0J172500D01*
G01*
G37*
%TD*%
%TO.C,C6*%
G36*
G01*
X155825000Y-88897500D02*
X155825000Y-88502500D01*
G75*
G02*
X155997500Y-88330000I172500J0D01*
G01*
X156342500Y-88330000D01*
G75*
G02*
X156515000Y-88502500I0J-172500D01*
G01*
X156515000Y-88897500D01*
G75*
G02*
X156342500Y-89070000I-172500J0D01*
G01*
X155997500Y-89070000D01*
G75*
G02*
X155825000Y-88897500I0J172500D01*
G01*
G37*
G36*
G01*
X154855000Y-88897500D02*
X154855000Y-88502500D01*
G75*
G02*
X155027500Y-88330000I172500J0D01*
G01*
X155372500Y-88330000D01*
G75*
G02*
X155545000Y-88502500I0J-172500D01*
G01*
X155545000Y-88897500D01*
G75*
G02*
X155372500Y-89070000I-172500J0D01*
G01*
X155027500Y-89070000D01*
G75*
G02*
X154855000Y-88897500I0J172500D01*
G01*
G37*
%TD*%
%TO.C,C7*%
G36*
G01*
X149875000Y-88372500D02*
X149875000Y-87977500D01*
G75*
G02*
X150047500Y-87805000I172500J0D01*
G01*
X150392500Y-87805000D01*
G75*
G02*
X150565000Y-87977500I0J-172500D01*
G01*
X150565000Y-88372500D01*
G75*
G02*
X150392500Y-88545000I-172500J0D01*
G01*
X150047500Y-88545000D01*
G75*
G02*
X149875000Y-88372500I0J172500D01*
G01*
G37*
G36*
G01*
X148905000Y-88372500D02*
X148905000Y-87977500D01*
G75*
G02*
X149077500Y-87805000I172500J0D01*
G01*
X149422500Y-87805000D01*
G75*
G02*
X149595000Y-87977500I0J-172500D01*
G01*
X149595000Y-88372500D01*
G75*
G02*
X149422500Y-88545000I-172500J0D01*
G01*
X149077500Y-88545000D01*
G75*
G02*
X148905000Y-88372500I0J172500D01*
G01*
G37*
%TD*%
%TO.C,C8*%
G36*
G01*
X148905000Y-89447500D02*
X148905000Y-89052500D01*
G75*
G02*
X149077500Y-88880000I172500J0D01*
G01*
X149422500Y-88880000D01*
G75*
G02*
X149595000Y-89052500I0J-172500D01*
G01*
X149595000Y-89447500D01*
G75*
G02*
X149422500Y-89620000I-172500J0D01*
G01*
X149077500Y-89620000D01*
G75*
G02*
X148905000Y-89447500I0J172500D01*
G01*
G37*
G36*
G01*
X149875000Y-89447500D02*
X149875000Y-89052500D01*
G75*
G02*
X150047500Y-88880000I172500J0D01*
G01*
X150392500Y-88880000D01*
G75*
G02*
X150565000Y-89052500I0J-172500D01*
G01*
X150565000Y-89447500D01*
G75*
G02*
X150392500Y-89620000I-172500J0D01*
G01*
X150047500Y-89620000D01*
G75*
G02*
X149875000Y-89447500I0J172500D01*
G01*
G37*
%TD*%
%TO.C,C12*%
G36*
G01*
X153512500Y-85781250D02*
X153512500Y-85218750D01*
G75*
G02*
X153756250Y-84975000I243750J0D01*
G01*
X154243750Y-84975000D01*
G75*
G02*
X154487500Y-85218750I0J-243750D01*
G01*
X154487500Y-85781250D01*
G75*
G02*
X154243750Y-86025000I-243750J0D01*
G01*
X153756250Y-86025000D01*
G75*
G02*
X153512500Y-85781250I0J243750D01*
G01*
G37*
G36*
G01*
X155087500Y-85781250D02*
X155087500Y-85218750D01*
G75*
G02*
X155331250Y-84975000I243750J0D01*
G01*
X155818750Y-84975000D01*
G75*
G02*
X156062500Y-85218750I0J-243750D01*
G01*
X156062500Y-85781250D01*
G75*
G02*
X155818750Y-86025000I-243750J0D01*
G01*
X155331250Y-86025000D01*
G75*
G02*
X155087500Y-85781250I0J243750D01*
G01*
G37*
%TD*%
%TO.C,L2*%
G36*
G01*
X149447500Y-91620000D02*
X149052500Y-91620000D01*
G75*
G02*
X148880000Y-91447500I0J172500D01*
G01*
X148880000Y-91102500D01*
G75*
G02*
X149052500Y-90930000I172500J0D01*
G01*
X149447500Y-90930000D01*
G75*
G02*
X149620000Y-91102500I0J-172500D01*
G01*
X149620000Y-91447500D01*
G75*
G02*
X149447500Y-91620000I-172500J0D01*
G01*
G37*
G36*
G01*
X149447500Y-90650000D02*
X149052500Y-90650000D01*
G75*
G02*
X148880000Y-90477500I0J172500D01*
G01*
X148880000Y-90132500D01*
G75*
G02*
X149052500Y-89960000I172500J0D01*
G01*
X149447500Y-89960000D01*
G75*
G02*
X149620000Y-90132500I0J-172500D01*
G01*
X149620000Y-90477500D01*
G75*
G02*
X149447500Y-90650000I-172500J0D01*
G01*
G37*
%TD*%
%TO.C,L5*%
G36*
G01*
X151712500Y-91281250D02*
X151712500Y-90718750D01*
G75*
G02*
X151956250Y-90475000I243750J0D01*
G01*
X152443750Y-90475000D01*
G75*
G02*
X152687500Y-90718750I0J-243750D01*
G01*
X152687500Y-91281250D01*
G75*
G02*
X152443750Y-91525000I-243750J0D01*
G01*
X151956250Y-91525000D01*
G75*
G02*
X151712500Y-91281250I0J243750D01*
G01*
G37*
G36*
G01*
X153287500Y-91281250D02*
X153287500Y-90718750D01*
G75*
G02*
X153531250Y-90475000I243750J0D01*
G01*
X154018750Y-90475000D01*
G75*
G02*
X154262500Y-90718750I0J-243750D01*
G01*
X154262500Y-91281250D01*
G75*
G02*
X154018750Y-91525000I-243750J0D01*
G01*
X153531250Y-91525000D01*
G75*
G02*
X153287500Y-91281250I0J243750D01*
G01*
G37*
%TD*%
%TO.C,J1*%
G36*
G01*
X135060000Y-92950000D02*
X140140000Y-92950000D01*
G75*
G02*
X140190000Y-93000000I0J-50000D01*
G01*
X140190000Y-94500000D01*
G75*
G02*
X140140000Y-94550000I-50000J0D01*
G01*
X135060000Y-94550000D01*
G75*
G02*
X135010000Y-94500000I0J50000D01*
G01*
X135010000Y-93000000D01*
G75*
G02*
X135060000Y-92950000I50000J0D01*
G01*
G37*
G36*
G01*
X135060000Y-97200000D02*
X140140000Y-97200000D01*
G75*
G02*
X140190000Y-97250000I0J-50000D01*
G01*
X140190000Y-98750000D01*
G75*
G02*
X140140000Y-98800000I-50000J0D01*
G01*
X135060000Y-98800000D01*
G75*
G02*
X135010000Y-98750000I0J50000D01*
G01*
X135010000Y-97250000D01*
G75*
G02*
X135060000Y-97200000I50000J0D01*
G01*
G37*
G36*
G01*
X135060000Y-88700000D02*
X140140000Y-88700000D01*
G75*
G02*
X140190000Y-88750000I0J-50000D01*
G01*
X140190000Y-90250000D01*
G75*
G02*
X140140000Y-90300000I-50000J0D01*
G01*
X135060000Y-90300000D01*
G75*
G02*
X135010000Y-90250000I0J50000D01*
G01*
X135010000Y-88750000D01*
G75*
G02*
X135060000Y-88700000I50000J0D01*
G01*
G37*
%TD*%
%TO.C,J2*%
G36*
G01*
X164940000Y-98800000D02*
X159860000Y-98800000D01*
G75*
G02*
X159810000Y-98750000I0J50000D01*
G01*
X159810000Y-97250000D01*
G75*
G02*
X159860000Y-97200000I50000J0D01*
G01*
X164940000Y-97200000D01*
G75*
G02*
X164990000Y-97250000I0J-50000D01*
G01*
X164990000Y-98750000D01*
G75*
G02*
X164940000Y-98800000I-50000J0D01*
G01*
G37*
G36*
G01*
X164940000Y-90300000D02*
X159860000Y-90300000D01*
G75*
G02*
X159810000Y-90250000I0J50000D01*
G01*
X159810000Y-88750000D01*
G75*
G02*
X159860000Y-88700000I50000J0D01*
G01*
X164940000Y-88700000D01*
G75*
G02*
X164990000Y-88750000I0J-50000D01*
G01*
X164990000Y-90250000D01*
G75*
G02*
X164940000Y-90300000I-50000J0D01*
G01*
G37*
G36*
G01*
X164940000Y-94550000D02*
X159860000Y-94550000D01*
G75*
G02*
X159810000Y-94500000I0J50000D01*
G01*
X159810000Y-93000000D01*
G75*
G02*
X159860000Y-92950000I50000J0D01*
G01*
X164940000Y-92950000D01*
G75*
G02*
X164990000Y-93000000I0J-50000D01*
G01*
X164990000Y-94500000D01*
G75*
G02*
X164940000Y-94550000I-50000J0D01*
G01*
G37*
%TD*%
%TO.C,J3*%
G36*
G01*
X150800000Y-79160000D02*
X150800000Y-84240000D01*
G75*
G02*
X150750000Y-84290000I-50000J0D01*
G01*
X149250000Y-84290000D01*
G75*
G02*
X149200000Y-84240000I0J50000D01*
G01*
X149200000Y-79160000D01*
G75*
G02*
X149250000Y-79110000I50000J0D01*
G01*
X150750000Y-79110000D01*
G75*
G02*
X150800000Y-79160000I0J-50000D01*
G01*
G37*
G36*
G01*
X146550000Y-79160000D02*
X146550000Y-84240000D01*
G75*
G02*
X146500000Y-84290000I-50000J0D01*
G01*
X145000000Y-84290000D01*
G75*
G02*
X144950000Y-84240000I0J50000D01*
G01*
X144950000Y-79160000D01*
G75*
G02*
X145000000Y-79110000I50000J0D01*
G01*
X146500000Y-79110000D01*
G75*
G02*
X146550000Y-79160000I0J-50000D01*
G01*
G37*
G36*
G01*
X155050000Y-79160000D02*
X155050000Y-84240000D01*
G75*
G02*
X155000000Y-84290000I-50000J0D01*
G01*
X153500000Y-84290000D01*
G75*
G02*
X153450000Y-84240000I0J50000D01*
G01*
X153450000Y-79160000D01*
G75*
G02*
X153500000Y-79110000I50000J0D01*
G01*
X155000000Y-79110000D01*
G75*
G02*
X155050000Y-79160000I0J-50000D01*
G01*
G37*
%TD*%
%TO.C,R1*%
G36*
G01*
X155397500Y-88030000D02*
X155002500Y-88030000D01*
G75*
G02*
X154830000Y-87857500I0J172500D01*
G01*
X154830000Y-87512500D01*
G75*
G02*
X155002500Y-87340000I172500J0D01*
G01*
X155397500Y-87340000D01*
G75*
G02*
X155570000Y-87512500I0J-172500D01*
G01*
X155570000Y-87857500D01*
G75*
G02*
X155397500Y-88030000I-172500J0D01*
G01*
G37*
G36*
G01*
X155397500Y-87060000D02*
X155002500Y-87060000D01*
G75*
G02*
X154830000Y-86887500I0J172500D01*
G01*
X154830000Y-86542500D01*
G75*
G02*
X155002500Y-86370000I172500J0D01*
G01*
X155397500Y-86370000D01*
G75*
G02*
X155570000Y-86542500I0J-172500D01*
G01*
X155570000Y-86887500D01*
G75*
G02*
X155397500Y-87060000I-172500J0D01*
G01*
G37*
%TD*%
%TO.C,R2*%
G36*
G01*
X149052500Y-86790000D02*
X149447500Y-86790000D01*
G75*
G02*
X149620000Y-86962500I0J-172500D01*
G01*
X149620000Y-87307500D01*
G75*
G02*
X149447500Y-87480000I-172500J0D01*
G01*
X149052500Y-87480000D01*
G75*
G02*
X148880000Y-87307500I0J172500D01*
G01*
X148880000Y-86962500D01*
G75*
G02*
X149052500Y-86790000I172500J0D01*
G01*
G37*
G36*
G01*
X149052500Y-85820000D02*
X149447500Y-85820000D01*
G75*
G02*
X149620000Y-85992500I0J-172500D01*
G01*
X149620000Y-86337500D01*
G75*
G02*
X149447500Y-86510000I-172500J0D01*
G01*
X149052500Y-86510000D01*
G75*
G02*
X148880000Y-86337500I0J172500D01*
G01*
X148880000Y-85992500D01*
G75*
G02*
X149052500Y-85820000I172500J0D01*
G01*
G37*
%TD*%
%TO.C,C2*%
G36*
G01*
X157435000Y-93947500D02*
X157435000Y-93552500D01*
G75*
G02*
X157607500Y-93380000I172500J0D01*
G01*
X157952500Y-93380000D01*
G75*
G02*
X158125000Y-93552500I0J-172500D01*
G01*
X158125000Y-93947500D01*
G75*
G02*
X157952500Y-94120000I-172500J0D01*
G01*
X157607500Y-94120000D01*
G75*
G02*
X157435000Y-93947500I0J172500D01*
G01*
G37*
G36*
G01*
X158405000Y-93947500D02*
X158405000Y-93552500D01*
G75*
G02*
X158577500Y-93380000I172500J0D01*
G01*
X158922500Y-93380000D01*
G75*
G02*
X159095000Y-93552500I0J-172500D01*
G01*
X159095000Y-93947500D01*
G75*
G02*
X158922500Y-94120000I-172500J0D01*
G01*
X158577500Y-94120000D01*
G75*
G02*
X158405000Y-93947500I0J172500D01*
G01*
G37*
%TD*%
%TO.C,R9*%
G36*
G01*
X153985000Y-93552500D02*
X153985000Y-93947500D01*
G75*
G02*
X153812500Y-94120000I-172500J0D01*
G01*
X153467500Y-94120000D01*
G75*
G02*
X153295000Y-93947500I0J172500D01*
G01*
X153295000Y-93552500D01*
G75*
G02*
X153467500Y-93380000I172500J0D01*
G01*
X153812500Y-93380000D01*
G75*
G02*
X153985000Y-93552500I0J-172500D01*
G01*
G37*
G36*
G01*
X153015000Y-93552500D02*
X153015000Y-93947500D01*
G75*
G02*
X152842500Y-94120000I-172500J0D01*
G01*
X152497500Y-94120000D01*
G75*
G02*
X152325000Y-93947500I0J172500D01*
G01*
X152325000Y-93552500D01*
G75*
G02*
X152497500Y-93380000I172500J0D01*
G01*
X152842500Y-93380000D01*
G75*
G02*
X153015000Y-93552500I0J-172500D01*
G01*
G37*
%TD*%
%TO.C,R10*%
G36*
G01*
X154767500Y-94095000D02*
X154372500Y-94095000D01*
G75*
G02*
X154200000Y-93922500I0J172500D01*
G01*
X154200000Y-93577500D01*
G75*
G02*
X154372500Y-93405000I172500J0D01*
G01*
X154767500Y-93405000D01*
G75*
G02*
X154940000Y-93577500I0J-172500D01*
G01*
X154940000Y-93922500D01*
G75*
G02*
X154767500Y-94095000I-172500J0D01*
G01*
G37*
G36*
G01*
X154767500Y-95065000D02*
X154372500Y-95065000D01*
G75*
G02*
X154200000Y-94892500I0J172500D01*
G01*
X154200000Y-94547500D01*
G75*
G02*
X154372500Y-94375000I172500J0D01*
G01*
X154767500Y-94375000D01*
G75*
G02*
X154940000Y-94547500I0J-172500D01*
G01*
X154940000Y-94892500D01*
G75*
G02*
X154767500Y-95065000I-172500J0D01*
G01*
G37*
%TD*%
%TO.C,C1*%
G36*
G01*
X142827500Y-94095000D02*
X142432500Y-94095000D01*
G75*
G02*
X142260000Y-93922500I0J172500D01*
G01*
X142260000Y-93577500D01*
G75*
G02*
X142432500Y-93405000I172500J0D01*
G01*
X142827500Y-93405000D01*
G75*
G02*
X143000000Y-93577500I0J-172500D01*
G01*
X143000000Y-93922500D01*
G75*
G02*
X142827500Y-94095000I-172500J0D01*
G01*
G37*
G36*
G01*
X142827500Y-95065000D02*
X142432500Y-95065000D01*
G75*
G02*
X142260000Y-94892500I0J172500D01*
G01*
X142260000Y-94547500D01*
G75*
G02*
X142432500Y-94375000I172500J0D01*
G01*
X142827500Y-94375000D01*
G75*
G02*
X143000000Y-94547500I0J-172500D01*
G01*
X143000000Y-94892500D01*
G75*
G02*
X142827500Y-95065000I-172500J0D01*
G01*
G37*
%TD*%
%TO.C,C9*%
G36*
G01*
X146005000Y-93947500D02*
X146005000Y-93552500D01*
G75*
G02*
X146177500Y-93380000I172500J0D01*
G01*
X146522500Y-93380000D01*
G75*
G02*
X146695000Y-93552500I0J-172500D01*
G01*
X146695000Y-93947500D01*
G75*
G02*
X146522500Y-94120000I-172500J0D01*
G01*
X146177500Y-94120000D01*
G75*
G02*
X146005000Y-93947500I0J172500D01*
G01*
G37*
G36*
G01*
X146975000Y-93947500D02*
X146975000Y-93552500D01*
G75*
G02*
X147147500Y-93380000I172500J0D01*
G01*
X147492500Y-93380000D01*
G75*
G02*
X147665000Y-93552500I0J-172500D01*
G01*
X147665000Y-93947500D01*
G75*
G02*
X147492500Y-94120000I-172500J0D01*
G01*
X147147500Y-94120000D01*
G75*
G02*
X146975000Y-93947500I0J172500D01*
G01*
G37*
%TD*%
%TO.C,L1*%
G36*
G01*
X144860000Y-93552500D02*
X144860000Y-93947500D01*
G75*
G02*
X144687500Y-94120000I-172500J0D01*
G01*
X144342500Y-94120000D01*
G75*
G02*
X144170000Y-93947500I0J172500D01*
G01*
X144170000Y-93552500D01*
G75*
G02*
X144342500Y-93380000I172500J0D01*
G01*
X144687500Y-93380000D01*
G75*
G02*
X144860000Y-93552500I0J-172500D01*
G01*
G37*
G36*
G01*
X143890000Y-93552500D02*
X143890000Y-93947500D01*
G75*
G02*
X143717500Y-94120000I-172500J0D01*
G01*
X143372500Y-94120000D01*
G75*
G02*
X143200000Y-93947500I0J172500D01*
G01*
X143200000Y-93552500D01*
G75*
G02*
X143372500Y-93380000I172500J0D01*
G01*
X143717500Y-93380000D01*
G75*
G02*
X143890000Y-93552500I0J-172500D01*
G01*
G37*
%TD*%
%TO.C,L4*%
G36*
G01*
X145232500Y-94375000D02*
X145627500Y-94375000D01*
G75*
G02*
X145800000Y-94547500I0J-172500D01*
G01*
X145800000Y-94892500D01*
G75*
G02*
X145627500Y-95065000I-172500J0D01*
G01*
X145232500Y-95065000D01*
G75*
G02*
X145060000Y-94892500I0J172500D01*
G01*
X145060000Y-94547500D01*
G75*
G02*
X145232500Y-94375000I172500J0D01*
G01*
G37*
G36*
G01*
X145232500Y-93405000D02*
X145627500Y-93405000D01*
G75*
G02*
X145800000Y-93577500I0J-172500D01*
G01*
X145800000Y-93922500D01*
G75*
G02*
X145627500Y-94095000I-172500J0D01*
G01*
X145232500Y-94095000D01*
G75*
G02*
X145060000Y-93922500I0J172500D01*
G01*
X145060000Y-93577500D01*
G75*
G02*
X145232500Y-93405000I172500J0D01*
G01*
G37*
%TD*%
D12*
%TO.C,MH1*%
X139000000Y-105000000D03*
%TD*%
%TO.C,MH2*%
X139000000Y-83000000D03*
%TD*%
%TO.C,MH3*%
X161000000Y-105000000D03*
%TD*%
%TO.C,MH4*%
X161000000Y-83000000D03*
%TD*%
%TO.C,U1*%
G36*
G01*
X148025000Y-93375000D02*
X148025000Y-93125000D01*
G75*
G02*
X148075000Y-93075000I50000J0D01*
G01*
X148605000Y-93075000D01*
G75*
G02*
X148655000Y-93125000I0J-50000D01*
G01*
X148655000Y-93375000D01*
G75*
G02*
X148605000Y-93425000I-50000J0D01*
G01*
X148075000Y-93425000D01*
G75*
G02*
X148025000Y-93375000I0J50000D01*
G01*
G37*
G36*
G01*
X148025000Y-93875000D02*
X148025000Y-93625000D01*
G75*
G02*
X148075000Y-93575000I50000J0D01*
G01*
X148605000Y-93575000D01*
G75*
G02*
X148655000Y-93625000I0J-50000D01*
G01*
X148655000Y-93875000D01*
G75*
G02*
X148605000Y-93925000I-50000J0D01*
G01*
X148075000Y-93925000D01*
G75*
G02*
X148025000Y-93875000I0J50000D01*
G01*
G37*
G36*
G01*
X148025000Y-94375000D02*
X148025000Y-94125000D01*
G75*
G02*
X148075000Y-94075000I50000J0D01*
G01*
X148605000Y-94075000D01*
G75*
G02*
X148655000Y-94125000I0J-50000D01*
G01*
X148655000Y-94375000D01*
G75*
G02*
X148605000Y-94425000I-50000J0D01*
G01*
X148075000Y-94425000D01*
G75*
G02*
X148025000Y-94375000I0J50000D01*
G01*
G37*
G36*
G01*
X148025000Y-94875000D02*
X148025000Y-94625000D01*
G75*
G02*
X148075000Y-94575000I50000J0D01*
G01*
X148605000Y-94575000D01*
G75*
G02*
X148655000Y-94625000I0J-50000D01*
G01*
X148655000Y-94875000D01*
G75*
G02*
X148605000Y-94925000I-50000J0D01*
G01*
X148075000Y-94925000D01*
G75*
G02*
X148025000Y-94875000I0J50000D01*
G01*
G37*
G36*
G01*
X149375000Y-96005000D02*
X149125000Y-96005000D01*
G75*
G02*
X149075000Y-95955000I0J50000D01*
G01*
X149075000Y-95425000D01*
G75*
G02*
X149125000Y-95375000I50000J0D01*
G01*
X149375000Y-95375000D01*
G75*
G02*
X149425000Y-95425000I0J-50000D01*
G01*
X149425000Y-95955000D01*
G75*
G02*
X149375000Y-96005000I-50000J0D01*
G01*
G37*
G36*
G01*
X149875000Y-96005000D02*
X149625000Y-96005000D01*
G75*
G02*
X149575000Y-95955000I0J50000D01*
G01*
X149575000Y-95425000D01*
G75*
G02*
X149625000Y-95375000I50000J0D01*
G01*
X149875000Y-95375000D01*
G75*
G02*
X149925000Y-95425000I0J-50000D01*
G01*
X149925000Y-95955000D01*
G75*
G02*
X149875000Y-96005000I-50000J0D01*
G01*
G37*
G36*
G01*
X150375000Y-96005000D02*
X150125000Y-96005000D01*
G75*
G02*
X150075000Y-95955000I0J50000D01*
G01*
X150075000Y-95425000D01*
G75*
G02*
X150125000Y-95375000I50000J0D01*
G01*
X150375000Y-95375000D01*
G75*
G02*
X150425000Y-95425000I0J-50000D01*
G01*
X150425000Y-95955000D01*
G75*
G02*
X150375000Y-96005000I-50000J0D01*
G01*
G37*
G36*
G01*
X150875000Y-96005000D02*
X150625000Y-96005000D01*
G75*
G02*
X150575000Y-95955000I0J50000D01*
G01*
X150575000Y-95425000D01*
G75*
G02*
X150625000Y-95375000I50000J0D01*
G01*
X150875000Y-95375000D01*
G75*
G02*
X150925000Y-95425000I0J-50000D01*
G01*
X150925000Y-95955000D01*
G75*
G02*
X150875000Y-96005000I-50000J0D01*
G01*
G37*
G36*
G01*
X151345000Y-94875000D02*
X151345000Y-94625000D01*
G75*
G02*
X151395000Y-94575000I50000J0D01*
G01*
X151925000Y-94575000D01*
G75*
G02*
X151975000Y-94625000I0J-50000D01*
G01*
X151975000Y-94875000D01*
G75*
G02*
X151925000Y-94925000I-50000J0D01*
G01*
X151395000Y-94925000D01*
G75*
G02*
X151345000Y-94875000I0J50000D01*
G01*
G37*
G36*
G01*
X151345000Y-94375000D02*
X151345000Y-94125000D01*
G75*
G02*
X151395000Y-94075000I50000J0D01*
G01*
X151925000Y-94075000D01*
G75*
G02*
X151975000Y-94125000I0J-50000D01*
G01*
X151975000Y-94375000D01*
G75*
G02*
X151925000Y-94425000I-50000J0D01*
G01*
X151395000Y-94425000D01*
G75*
G02*
X151345000Y-94375000I0J50000D01*
G01*
G37*
G36*
G01*
X151345000Y-93875000D02*
X151345000Y-93625000D01*
G75*
G02*
X151395000Y-93575000I50000J0D01*
G01*
X151925000Y-93575000D01*
G75*
G02*
X151975000Y-93625000I0J-50000D01*
G01*
X151975000Y-93875000D01*
G75*
G02*
X151925000Y-93925000I-50000J0D01*
G01*
X151395000Y-93925000D01*
G75*
G02*
X151345000Y-93875000I0J50000D01*
G01*
G37*
G36*
G01*
X151345000Y-93375000D02*
X151345000Y-93125000D01*
G75*
G02*
X151395000Y-93075000I50000J0D01*
G01*
X151925000Y-93075000D01*
G75*
G02*
X151975000Y-93125000I0J-50000D01*
G01*
X151975000Y-93375000D01*
G75*
G02*
X151925000Y-93425000I-50000J0D01*
G01*
X151395000Y-93425000D01*
G75*
G02*
X151345000Y-93375000I0J50000D01*
G01*
G37*
G36*
G01*
X150875000Y-92625000D02*
X150625000Y-92625000D01*
G75*
G02*
X150575000Y-92575000I0J50000D01*
G01*
X150575000Y-92045000D01*
G75*
G02*
X150625000Y-91995000I50000J0D01*
G01*
X150875000Y-91995000D01*
G75*
G02*
X150925000Y-92045000I0J-50000D01*
G01*
X150925000Y-92575000D01*
G75*
G02*
X150875000Y-92625000I-50000J0D01*
G01*
G37*
G36*
G01*
X150375000Y-92625000D02*
X150125000Y-92625000D01*
G75*
G02*
X150075000Y-92575000I0J50000D01*
G01*
X150075000Y-92045000D01*
G75*
G02*
X150125000Y-91995000I50000J0D01*
G01*
X150375000Y-91995000D01*
G75*
G02*
X150425000Y-92045000I0J-50000D01*
G01*
X150425000Y-92575000D01*
G75*
G02*
X150375000Y-92625000I-50000J0D01*
G01*
G37*
G36*
G01*
X149875000Y-92625000D02*
X149625000Y-92625000D01*
G75*
G02*
X149575000Y-92575000I0J50000D01*
G01*
X149575000Y-92045000D01*
G75*
G02*
X149625000Y-91995000I50000J0D01*
G01*
X149875000Y-91995000D01*
G75*
G02*
X149925000Y-92045000I0J-50000D01*
G01*
X149925000Y-92575000D01*
G75*
G02*
X149875000Y-92625000I-50000J0D01*
G01*
G37*
G36*
G01*
X149375000Y-92625000D02*
X149125000Y-92625000D01*
G75*
G02*
X149075000Y-92575000I0J50000D01*
G01*
X149075000Y-92045000D01*
G75*
G02*
X149125000Y-91995000I50000J0D01*
G01*
X149375000Y-91995000D01*
G75*
G02*
X149425000Y-92045000I0J-50000D01*
G01*
X149425000Y-92575000D01*
G75*
G02*
X149375000Y-92625000I-50000J0D01*
G01*
G37*
D11*
G36*
X151100314Y-92800001D02*
G01*
X151100632Y-92800003D01*
X151100632Y-92800058D01*
X151100694Y-92800059D01*
X151100694Y-92800004D01*
X151101012Y-92800006D01*
X151103845Y-92800104D01*
X151105919Y-92800235D01*
X151108016Y-92800352D01*
X151108611Y-92800414D01*
X151108612Y-92800404D01*
X151108783Y-92800415D01*
X151110772Y-92800640D01*
X151112808Y-92800852D01*
X151112984Y-92800879D01*
X151112982Y-92800889D01*
X151113557Y-92800954D01*
X151115481Y-92801265D01*
X151117707Y-92801610D01*
X151118208Y-92801713D01*
X151118209Y-92801707D01*
X151118376Y-92801734D01*
X151120352Y-92802153D01*
X151122506Y-92802596D01*
X151122681Y-92802641D01*
X151122679Y-92802647D01*
X151123153Y-92802748D01*
X151125176Y-92803282D01*
X151127231Y-92803810D01*
X151127601Y-92803925D01*
X151127601Y-92803923D01*
X151127773Y-92803968D01*
X151129841Y-92804621D01*
X151131989Y-92805289D01*
X151132150Y-92805348D01*
X151132149Y-92805350D01*
X151132556Y-92805479D01*
X151134542Y-92806218D01*
X151136469Y-92806919D01*
X151137021Y-92807151D01*
X151137025Y-92807141D01*
X151137191Y-92807203D01*
X151139116Y-92808030D01*
X151140918Y-92808786D01*
X151141073Y-92808860D01*
X151141069Y-92808869D01*
X151141624Y-92809107D01*
X151143612Y-92810077D01*
X151145384Y-92810926D01*
X151145835Y-92811170D01*
X151145838Y-92811163D01*
X151145998Y-92811241D01*
X151147807Y-92812235D01*
X151149677Y-92813246D01*
X151149824Y-92813335D01*
X151149820Y-92813342D01*
X151150293Y-92813602D01*
X151152078Y-92814700D01*
X151153847Y-92815771D01*
X151154334Y-92816099D01*
X151154339Y-92816091D01*
X151154485Y-92816181D01*
X151156142Y-92817317D01*
X151157870Y-92818480D01*
X151158012Y-92818586D01*
X151158006Y-92818594D01*
X151158475Y-92818915D01*
X151160102Y-92820150D01*
X151161830Y-92821443D01*
X151162284Y-92821818D01*
X151162289Y-92821811D01*
X151162423Y-92821913D01*
X151163845Y-92823108D01*
X151165532Y-92824502D01*
X151165666Y-92824624D01*
X151165659Y-92824632D01*
X151166113Y-92825014D01*
X151167545Y-92826341D01*
X151169185Y-92827837D01*
X151169604Y-92828258D01*
X151169610Y-92828251D01*
X151169735Y-92828367D01*
X151171136Y-92829799D01*
X151172602Y-92831274D01*
X151172722Y-92831407D01*
X151172715Y-92831414D01*
X151173124Y-92831832D01*
X151174513Y-92833397D01*
X151175903Y-92834941D01*
X151176228Y-92835340D01*
X151176234Y-92835335D01*
X151176353Y-92835469D01*
X151177713Y-92837161D01*
X151178992Y-92838729D01*
X151179093Y-92838866D01*
X151179087Y-92838870D01*
X151179421Y-92839285D01*
X151180631Y-92840951D01*
X151181885Y-92842651D01*
X151182217Y-92843151D01*
X151182225Y-92843145D01*
X151182325Y-92843283D01*
X151183423Y-92844964D01*
X151184570Y-92846687D01*
X151184662Y-92846841D01*
X151184654Y-92846846D01*
X151184965Y-92847322D01*
X151185998Y-92849083D01*
X151187095Y-92850923D01*
X151187331Y-92851368D01*
X151187337Y-92851365D01*
X151187428Y-92851520D01*
X151188663Y-92853882D01*
X151189441Y-92855350D01*
X151189513Y-92855504D01*
X151189512Y-92855505D01*
X151189701Y-92855867D01*
X151190569Y-92857746D01*
X151191467Y-92859654D01*
X151191724Y-92860275D01*
X151191736Y-92860270D01*
X151191808Y-92860427D01*
X151192538Y-92862243D01*
X151193282Y-92864040D01*
X151193342Y-92864207D01*
X151193330Y-92864211D01*
X151193576Y-92864823D01*
X151194266Y-92866805D01*
X151194967Y-92868772D01*
X151195131Y-92869315D01*
X151195140Y-92869312D01*
X151195198Y-92869479D01*
X151195787Y-92871482D01*
X151196373Y-92873421D01*
X151196415Y-92873589D01*
X151196406Y-92873591D01*
X151196565Y-92874131D01*
X151197033Y-92876066D01*
X151197563Y-92878192D01*
X151197684Y-92878805D01*
X151197695Y-92878802D01*
X151197736Y-92878973D01*
X151198259Y-92881727D01*
X151198528Y-92883096D01*
X151198553Y-92883268D01*
X151198551Y-92883268D01*
X151198626Y-92883663D01*
X151198907Y-92885661D01*
X151199227Y-92887831D01*
X151199265Y-92888222D01*
X151199266Y-92888222D01*
X151199291Y-92888397D01*
X151199481Y-92890460D01*
X151199707Y-92892798D01*
X151199715Y-92892970D01*
X151199713Y-92892970D01*
X151199750Y-92893375D01*
X151199837Y-92895447D01*
X151199940Y-92897549D01*
X151200000Y-92900000D01*
X151200000Y-95100000D01*
X151199999Y-95100314D01*
X151199997Y-95100632D01*
X151199942Y-95100632D01*
X151199941Y-95100694D01*
X151199996Y-95100694D01*
X151199994Y-95101012D01*
X151199896Y-95103845D01*
X151199765Y-95105919D01*
X151199648Y-95108016D01*
X151199586Y-95108611D01*
X151199596Y-95108612D01*
X151199585Y-95108783D01*
X151199360Y-95110772D01*
X151199148Y-95112808D01*
X151199121Y-95112984D01*
X151199111Y-95112982D01*
X151199046Y-95113557D01*
X151198735Y-95115481D01*
X151198390Y-95117707D01*
X151198287Y-95118208D01*
X151198293Y-95118209D01*
X151198266Y-95118376D01*
X151197847Y-95120352D01*
X151197404Y-95122506D01*
X151197359Y-95122681D01*
X151197353Y-95122679D01*
X151197252Y-95123153D01*
X151196718Y-95125176D01*
X151196190Y-95127231D01*
X151196075Y-95127601D01*
X151196077Y-95127601D01*
X151196032Y-95127773D01*
X151195379Y-95129841D01*
X151194711Y-95131989D01*
X151194652Y-95132150D01*
X151194650Y-95132149D01*
X151194521Y-95132556D01*
X151193782Y-95134542D01*
X151193081Y-95136469D01*
X151192849Y-95137021D01*
X151192859Y-95137025D01*
X151192797Y-95137191D01*
X151191970Y-95139116D01*
X151191214Y-95140918D01*
X151191140Y-95141073D01*
X151191131Y-95141069D01*
X151190893Y-95141624D01*
X151189923Y-95143612D01*
X151189074Y-95145384D01*
X151188830Y-95145835D01*
X151188837Y-95145838D01*
X151188759Y-95145998D01*
X151187765Y-95147807D01*
X151186754Y-95149677D01*
X151186665Y-95149824D01*
X151186658Y-95149820D01*
X151186398Y-95150293D01*
X151185300Y-95152078D01*
X151184229Y-95153847D01*
X151183901Y-95154334D01*
X151183909Y-95154339D01*
X151183819Y-95154485D01*
X151182683Y-95156142D01*
X151181520Y-95157870D01*
X151181414Y-95158012D01*
X151181406Y-95158006D01*
X151181085Y-95158475D01*
X151179850Y-95160102D01*
X151178557Y-95161830D01*
X151178182Y-95162284D01*
X151178189Y-95162289D01*
X151178087Y-95162423D01*
X151176892Y-95163845D01*
X151175498Y-95165532D01*
X151175376Y-95165666D01*
X151175368Y-95165659D01*
X151174986Y-95166113D01*
X151173659Y-95167545D01*
X151172163Y-95169185D01*
X151171742Y-95169604D01*
X151171749Y-95169610D01*
X151171633Y-95169735D01*
X151170201Y-95171136D01*
X151168726Y-95172602D01*
X151168593Y-95172722D01*
X151168586Y-95172715D01*
X151168168Y-95173124D01*
X151166603Y-95174513D01*
X151165059Y-95175903D01*
X151164660Y-95176228D01*
X151164665Y-95176234D01*
X151164531Y-95176353D01*
X151162839Y-95177713D01*
X151161271Y-95178992D01*
X151161134Y-95179093D01*
X151161130Y-95179087D01*
X151160715Y-95179421D01*
X151159049Y-95180631D01*
X151157349Y-95181885D01*
X151156849Y-95182217D01*
X151156855Y-95182225D01*
X151156717Y-95182325D01*
X151155036Y-95183423D01*
X151153313Y-95184570D01*
X151153159Y-95184662D01*
X151153154Y-95184654D01*
X151152678Y-95184965D01*
X151150917Y-95185998D01*
X151149077Y-95187095D01*
X151148703Y-95187294D01*
X151148704Y-95187296D01*
X151148553Y-95187385D01*
X151146703Y-95188354D01*
X151144681Y-95189427D01*
X151144523Y-95189501D01*
X151144521Y-95189498D01*
X151144133Y-95189701D01*
X151142254Y-95190569D01*
X151140346Y-95191467D01*
X151139725Y-95191724D01*
X151139730Y-95191736D01*
X151139573Y-95191808D01*
X151137757Y-95192538D01*
X151135960Y-95193282D01*
X151135793Y-95193342D01*
X151135789Y-95193330D01*
X151135177Y-95193576D01*
X151133195Y-95194266D01*
X151131228Y-95194967D01*
X151130773Y-95195104D01*
X151130775Y-95195110D01*
X151130609Y-95195168D01*
X151128556Y-95195773D01*
X151126511Y-95196390D01*
X151126342Y-95196432D01*
X151126341Y-95196426D01*
X151125869Y-95196565D01*
X151123934Y-95197033D01*
X151121808Y-95197563D01*
X151121164Y-95197691D01*
X151121167Y-95197702D01*
X151121004Y-95197741D01*
X151119136Y-95198095D01*
X151117129Y-95198495D01*
X151116949Y-95198522D01*
X151116947Y-95198510D01*
X151116337Y-95198626D01*
X151114339Y-95198907D01*
X151112169Y-95199227D01*
X151111778Y-95199265D01*
X151111778Y-95199266D01*
X151111603Y-95199291D01*
X151109504Y-95199485D01*
X151107202Y-95199707D01*
X151107030Y-95199715D01*
X151107030Y-95199713D01*
X151106625Y-95199750D01*
X151104553Y-95199837D01*
X151102451Y-95199940D01*
X151100000Y-95200000D01*
X148900000Y-95200000D01*
X148899686Y-95199999D01*
X148899368Y-95199997D01*
X148899368Y-95199942D01*
X148899306Y-95199941D01*
X148899306Y-95199996D01*
X148898988Y-95199994D01*
X148896155Y-95199896D01*
X148894081Y-95199765D01*
X148891984Y-95199648D01*
X148891389Y-95199586D01*
X148891388Y-95199596D01*
X148891217Y-95199585D01*
X148889228Y-95199360D01*
X148887192Y-95199148D01*
X148887016Y-95199121D01*
X148887018Y-95199111D01*
X148886443Y-95199046D01*
X148884519Y-95198735D01*
X148882293Y-95198390D01*
X148881792Y-95198287D01*
X148881791Y-95198293D01*
X148881624Y-95198266D01*
X148879648Y-95197847D01*
X148877494Y-95197404D01*
X148877319Y-95197359D01*
X148877321Y-95197353D01*
X148876847Y-95197252D01*
X148874824Y-95196718D01*
X148872769Y-95196190D01*
X148872399Y-95196075D01*
X148872399Y-95196077D01*
X148872227Y-95196032D01*
X148870159Y-95195379D01*
X148868011Y-95194711D01*
X148867850Y-95194652D01*
X148867851Y-95194650D01*
X148867444Y-95194521D01*
X148865458Y-95193782D01*
X148863531Y-95193081D01*
X148862979Y-95192849D01*
X148862975Y-95192859D01*
X148862809Y-95192797D01*
X148860884Y-95191970D01*
X148859082Y-95191214D01*
X148858927Y-95191140D01*
X148858931Y-95191131D01*
X148858376Y-95190893D01*
X148856388Y-95189923D01*
X148854616Y-95189074D01*
X148854165Y-95188830D01*
X148854162Y-95188837D01*
X148854002Y-95188759D01*
X148852193Y-95187765D01*
X148850323Y-95186754D01*
X148850176Y-95186665D01*
X148850180Y-95186658D01*
X148849707Y-95186398D01*
X148847922Y-95185300D01*
X148846153Y-95184229D01*
X148845666Y-95183901D01*
X148845661Y-95183909D01*
X148845515Y-95183819D01*
X148843858Y-95182683D01*
X148842130Y-95181520D01*
X148841988Y-95181414D01*
X148841994Y-95181406D01*
X148841525Y-95181085D01*
X148839898Y-95179850D01*
X148838170Y-95178557D01*
X148837716Y-95178182D01*
X148837711Y-95178189D01*
X148837577Y-95178087D01*
X148836155Y-95176892D01*
X148834468Y-95175498D01*
X148834334Y-95175376D01*
X148834341Y-95175368D01*
X148833887Y-95174986D01*
X148832455Y-95173659D01*
X148830815Y-95172163D01*
X148830396Y-95171742D01*
X148830390Y-95171749D01*
X148830265Y-95171633D01*
X148828864Y-95170201D01*
X148827398Y-95168726D01*
X148827278Y-95168593D01*
X148827285Y-95168586D01*
X148826876Y-95168168D01*
X148825487Y-95166603D01*
X148824097Y-95165059D01*
X148823772Y-95164660D01*
X148823766Y-95164665D01*
X148823647Y-95164531D01*
X148822287Y-95162839D01*
X148821008Y-95161271D01*
X148820907Y-95161134D01*
X148820913Y-95161130D01*
X148820579Y-95160715D01*
X148819369Y-95159049D01*
X148818115Y-95157349D01*
X148817783Y-95156849D01*
X148817775Y-95156855D01*
X148817675Y-95156717D01*
X148816577Y-95155036D01*
X148815430Y-95153313D01*
X148815338Y-95153159D01*
X148815346Y-95153154D01*
X148815035Y-95152678D01*
X148814002Y-95150917D01*
X148812905Y-95149077D01*
X148812706Y-95148703D01*
X148812704Y-95148704D01*
X148812615Y-95148553D01*
X148811646Y-95146703D01*
X148810573Y-95144681D01*
X148810499Y-95144523D01*
X148810502Y-95144521D01*
X148810299Y-95144133D01*
X148809431Y-95142254D01*
X148808533Y-95140346D01*
X148808276Y-95139725D01*
X148808264Y-95139730D01*
X148808192Y-95139573D01*
X148807462Y-95137757D01*
X148806718Y-95135960D01*
X148806658Y-95135793D01*
X148806670Y-95135789D01*
X148806424Y-95135177D01*
X148805734Y-95133195D01*
X148805033Y-95131228D01*
X148804896Y-95130773D01*
X148804890Y-95130775D01*
X148804832Y-95130609D01*
X148804227Y-95128556D01*
X148803610Y-95126511D01*
X148803568Y-95126342D01*
X148803574Y-95126341D01*
X148803435Y-95125869D01*
X148802966Y-95123928D01*
X148802437Y-95121808D01*
X148802309Y-95121164D01*
X148802298Y-95121167D01*
X148802259Y-95121004D01*
X148801905Y-95119136D01*
X148801505Y-95117129D01*
X148801478Y-95116949D01*
X148801490Y-95116947D01*
X148801374Y-95116337D01*
X148801085Y-95114283D01*
X148800773Y-95112169D01*
X148800735Y-95111778D01*
X148800734Y-95111778D01*
X148800709Y-95111603D01*
X148800515Y-95109504D01*
X148800293Y-95107202D01*
X148800285Y-95107030D01*
X148800287Y-95107030D01*
X148800250Y-95106625D01*
X148800163Y-95104553D01*
X148800060Y-95102451D01*
X148800000Y-95100000D01*
X148800000Y-93200000D01*
X148800001Y-93199669D01*
X148800002Y-93199518D01*
X148800036Y-93199518D01*
X148800036Y-93199393D01*
X148800003Y-93199393D01*
X148800007Y-93198898D01*
X148800032Y-93198179D01*
X148800032Y-93198040D01*
X148800033Y-93198012D01*
X148800038Y-93198012D01*
X148800104Y-93196153D01*
X148800221Y-93194292D01*
X148800324Y-93192333D01*
X148800402Y-93191565D01*
X148800393Y-93191564D01*
X148800409Y-93191308D01*
X148800619Y-93189433D01*
X148800820Y-93187457D01*
X148800860Y-93187193D01*
X148800870Y-93187194D01*
X148800955Y-93186433D01*
X148801252Y-93184600D01*
X148801547Y-93182647D01*
X148801718Y-93181796D01*
X148801706Y-93181794D01*
X148801747Y-93181543D01*
X148802132Y-93179737D01*
X148802501Y-93177903D01*
X148802567Y-93177641D01*
X148802579Y-93177644D01*
X148802752Y-93176831D01*
X148803239Y-93174987D01*
X148803713Y-93173115D01*
X148803955Y-93172320D01*
X148803944Y-93172317D01*
X148804013Y-93172057D01*
X148804574Y-93170293D01*
X148805116Y-93168515D01*
X148805202Y-93168275D01*
X148805214Y-93168279D01*
X148805479Y-93167445D01*
X148806156Y-93165624D01*
X148806790Y-93163863D01*
X148807107Y-93163102D01*
X148807096Y-93163098D01*
X148807188Y-93162851D01*
X148807964Y-93161041D01*
X148808668Y-93159349D01*
X148808780Y-93159113D01*
X148808789Y-93159117D01*
X148809105Y-93158380D01*
X148809980Y-93156587D01*
X148810770Y-93154923D01*
X148811132Y-93154248D01*
X148811123Y-93154244D01*
X148811239Y-93154006D01*
X148812180Y-93152294D01*
X148813077Y-93150620D01*
X148813211Y-93150397D01*
X148813219Y-93150402D01*
X148813593Y-93149721D01*
X148814597Y-93148087D01*
X148815589Y-93146437D01*
X148816078Y-93145705D01*
X148816068Y-93145699D01*
X148816202Y-93145482D01*
X148817210Y-93144012D01*
X148818272Y-93142424D01*
X148818432Y-93142208D01*
X148818442Y-93142216D01*
X148818921Y-93141518D01*
X148820035Y-93140050D01*
X148821232Y-93138440D01*
X148821747Y-93137812D01*
X148821739Y-93137806D01*
X148821901Y-93137593D01*
X148823109Y-93136153D01*
X148824296Y-93134708D01*
X148824468Y-93134518D01*
X148824476Y-93134525D01*
X148824999Y-93133902D01*
X148826358Y-93132433D01*
X148827611Y-93131052D01*
X148829290Y-93129290D01*
X149129471Y-92829109D01*
X149129569Y-92829012D01*
X149129602Y-92829045D01*
X149129739Y-92828910D01*
X149129706Y-92828877D01*
X149130048Y-92828540D01*
X149131156Y-92827507D01*
X149131192Y-92827472D01*
X149131224Y-92827443D01*
X149131225Y-92827444D01*
X149132085Y-92826642D01*
X149133454Y-92825435D01*
X149134943Y-92824095D01*
X149135571Y-92823583D01*
X149135564Y-92823575D01*
X149135757Y-92823405D01*
X149137224Y-92822234D01*
X149138701Y-92821029D01*
X149138915Y-92820871D01*
X149138921Y-92820879D01*
X149139548Y-92820379D01*
X149141124Y-92819242D01*
X149142659Y-92818110D01*
X149143246Y-92817721D01*
X149143242Y-92817715D01*
X149143452Y-92817563D01*
X149145154Y-92816455D01*
X149146799Y-92815364D01*
X149147028Y-92815228D01*
X149147031Y-92815233D01*
X149147606Y-92814859D01*
X149149333Y-92813853D01*
X149150931Y-92812901D01*
X149151636Y-92812526D01*
X149151630Y-92812516D01*
X149151864Y-92812380D01*
X149153577Y-92811493D01*
X149155198Y-92810630D01*
X149155427Y-92810522D01*
X149155432Y-92810532D01*
X149156179Y-92810145D01*
X149157974Y-92809323D01*
X149159658Y-92808531D01*
X149160450Y-92808204D01*
X149160445Y-92808193D01*
X149160684Y-92808084D01*
X149162419Y-92807391D01*
X149164105Y-92806695D01*
X149164351Y-92806607D01*
X149164355Y-92806618D01*
X149165146Y-92806302D01*
X149166975Y-92805672D01*
X149168778Y-92805030D01*
X149169596Y-92804782D01*
X149169592Y-92804771D01*
X149169840Y-92804686D01*
X149171590Y-92804179D01*
X149173376Y-92803638D01*
X149173631Y-92803574D01*
X149173634Y-92803586D01*
X149174459Y-92803347D01*
X149176386Y-92802888D01*
X149178194Y-92802437D01*
X149178916Y-92802294D01*
X149178914Y-92802286D01*
X149179169Y-92802225D01*
X149181130Y-92801857D01*
X149183030Y-92801482D01*
X149183289Y-92801444D01*
X149183290Y-92801452D01*
X149184021Y-92801315D01*
X149185955Y-92801050D01*
X149187829Y-92800774D01*
X149188614Y-92800697D01*
X149188613Y-92800687D01*
X149188869Y-92800652D01*
X149190769Y-92800486D01*
X149192671Y-92800299D01*
X149192936Y-92800286D01*
X149192936Y-92800296D01*
X149193710Y-92800228D01*
X149195589Y-92800155D01*
X149197562Y-92800059D01*
X149200000Y-92800000D01*
X151100000Y-92800000D01*
X151100314Y-92800001D01*
G37*
%TD*%
M02*
