%TF.GenerationSoftware,KiCad,Pcbnew,6.0.6*%
%TF.CreationDate,2022-07-25T13:00:04+00:00*%
%TF.ProjectId,QPL9065,51504c39-3036-4352-9e6b-696361645f70,rev?*%
%TF.SameCoordinates,Original*%
%TF.FileFunction,Soldermask,Top*%
%TF.FilePolarity,Negative*%
%FSLAX46Y46*%
G04 Gerber Fmt 4.6, Leading zero omitted, Abs format (unit mm)*
G04 Created by KiCad (PCBNEW 6.0.6) date 2022-07-25 13:00:04*
%MOMM*%
%LPD*%
G01*
G04 APERTURE LIST*
G04 Aperture macros list*
%AMRoundRect*
0 Rectangle with rounded corners*
0 $1 Rounding radius*
0 $2 $3 $4 $5 $6 $7 $8 $9 X,Y pos of 4 corners*
0 Add a 4 corners polygon primitive as box body*
4,1,4,$2,$3,$4,$5,$6,$7,$8,$9,$2,$3,0*
0 Add four circle primitives for the rounded corners*
1,1,$1+$1,$2,$3*
1,1,$1+$1,$4,$5*
1,1,$1+$1,$6,$7*
1,1,$1+$1,$8,$9*
0 Add four rect primitives between the rounded corners*
20,1,$1+$1,$2,$3,$4,$5,0*
20,1,$1+$1,$4,$5,$6,$7,0*
20,1,$1+$1,$6,$7,$8,$9,0*
20,1,$1+$1,$8,$9,$2,$3,0*%
%AMFreePoly0*
4,1,27,1.119135,1.196194,1.154490,1.181549,1.181549,1.154490,1.196194,1.119135,1.200000,1.100000,1.200000,-1.100000,1.196194,-1.119135,1.181549,-1.154490,1.154490,-1.181549,1.119135,-1.196194,1.100000,-1.200000,-1.100000,-1.200000,-1.119135,-1.196194,-1.154490,-1.181549,-1.181549,-1.154490,-1.196194,-1.119135,-1.200000,-1.100000,-1.200000,0.800000,-1.196194,0.819135,-1.181549,0.854490,
-1.170710,0.870710,-0.870710,1.170710,-0.854490,1.181549,-0.819135,1.196194,-0.800000,1.200000,1.100000,1.200000,1.119135,1.196194,1.119135,1.196194,$1*%
G04 Aperture macros list end*
%ADD10C,0.100000*%
%ADD11C,0.800000*%
%ADD12RoundRect,0.197500X-0.147500X-0.172500X0.147500X-0.172500X0.147500X0.172500X-0.147500X0.172500X0*%
%ADD13RoundRect,0.268750X-0.218750X-0.256250X0.218750X-0.256250X0.218750X0.256250X-0.218750X0.256250X0*%
%ADD14RoundRect,0.197500X0.172500X-0.147500X0.172500X0.147500X-0.172500X0.147500X-0.172500X-0.147500X0*%
%ADD15RoundRect,0.050000X-2.540000X0.100000X-2.540000X-0.100000X2.540000X-0.100000X2.540000X0.100000X0*%
%ADD16RoundRect,0.050000X-2.540000X0.750000X-2.540000X-0.750000X2.540000X-0.750000X2.540000X0.750000X0*%
%ADD17RoundRect,0.050000X2.540000X-0.100000X2.540000X0.100000X-2.540000X0.100000X-2.540000X-0.100000X0*%
%ADD18RoundRect,0.050000X2.540000X-0.750000X2.540000X0.750000X-2.540000X0.750000X-2.540000X-0.750000X0*%
%ADD19RoundRect,0.197500X-0.172500X0.147500X-0.172500X-0.147500X0.172500X-0.147500X0.172500X0.147500X0*%
%ADD20RoundRect,0.197500X0.147500X0.172500X-0.147500X0.172500X-0.147500X-0.172500X0.147500X-0.172500X0*%
%ADD21C,3.300000*%
%ADD22RoundRect,0.050000X-0.265000X-0.125000X0.265000X-0.125000X0.265000X0.125000X-0.265000X0.125000X0*%
%ADD23RoundRect,0.050000X0.125000X-0.265000X0.125000X0.265000X-0.125000X0.265000X-0.125000X-0.265000X0*%
%ADD24FreePoly0,0.000000*%
%ADD25RoundRect,0.050000X0.750000X2.540000X-0.750000X2.540000X-0.750000X-2.540000X0.750000X-2.540000X0*%
G04 APERTURE END LIST*
D10*
G36*
X165000000Y-109000000D02*
G01*
X135000000Y-109000000D01*
X135000000Y-107000000D01*
X165000000Y-107000000D01*
X165000000Y-109000000D01*
G37*
X165000000Y-109000000D02*
X135000000Y-109000000D01*
X135000000Y-107000000D01*
X165000000Y-107000000D01*
X165000000Y-109000000D01*
D11*
X147850000Y-79600000D02*
X147850000Y-92500000D01*
D10*
G36*
X147900000Y-93750000D02*
G01*
X148400000Y-94000000D01*
X147900000Y-94250000D01*
X147900000Y-95150000D01*
X135000000Y-95150000D01*
X135000000Y-92850000D01*
X147900000Y-92850000D01*
X147900000Y-93750000D01*
G37*
X147900000Y-93750000D02*
X148400000Y-94000000D01*
X147900000Y-94250000D01*
X147900000Y-95150000D01*
X135000000Y-95150000D01*
X135000000Y-92850000D01*
X147900000Y-92850000D01*
X147900000Y-93750000D01*
G36*
X165000000Y-95150000D02*
G01*
X152100000Y-95150000D01*
X152100000Y-94250000D01*
X151700000Y-94000000D01*
X152100000Y-93750000D01*
X152100000Y-92850000D01*
X165000000Y-92850000D01*
X165000000Y-95150000D01*
G37*
X165000000Y-95150000D02*
X152100000Y-95150000D01*
X152100000Y-94250000D01*
X151700000Y-94000000D01*
X152100000Y-93750000D01*
X152100000Y-92850000D01*
X165000000Y-92850000D01*
X165000000Y-95150000D01*
G36*
X165000000Y-109000000D02*
G01*
X163000000Y-109000000D01*
X163000000Y-98750000D01*
X165000000Y-98750000D01*
X165000000Y-109000000D01*
G37*
X165000000Y-109000000D02*
X163000000Y-109000000D01*
X163000000Y-98750000D01*
X165000000Y-98750000D01*
X165000000Y-109000000D01*
G36*
X137000000Y-109000000D02*
G01*
X135000000Y-109000000D01*
X135000000Y-98750000D01*
X137000000Y-98750000D01*
X137000000Y-109000000D01*
G37*
X137000000Y-109000000D02*
X135000000Y-109000000D01*
X135000000Y-98750000D01*
X137000000Y-98750000D01*
X137000000Y-109000000D01*
G36*
X137000000Y-89250000D02*
G01*
X135000000Y-89250000D01*
X135000000Y-79000000D01*
X137000000Y-79000000D01*
X137000000Y-89250000D01*
G37*
X137000000Y-89250000D02*
X135000000Y-89250000D01*
X135000000Y-79000000D01*
X137000000Y-79000000D01*
X137000000Y-89250000D01*
G36*
X145250000Y-81000000D02*
G01*
X135000000Y-81000000D01*
X135000000Y-79000000D01*
X145250000Y-79000000D01*
X145250000Y-81000000D01*
G37*
X145250000Y-81000000D02*
X135000000Y-81000000D01*
X135000000Y-79000000D01*
X145250000Y-79000000D01*
X145250000Y-81000000D01*
D11*
X147850000Y-95500000D02*
X147850000Y-107600000D01*
D10*
G36*
X165000000Y-89250000D02*
G01*
X163000000Y-89250000D01*
X163000000Y-79000000D01*
X165000000Y-79000000D01*
X165000000Y-89250000D01*
G37*
X165000000Y-89250000D02*
X163000000Y-89250000D01*
X163000000Y-79000000D01*
X165000000Y-79000000D01*
X165000000Y-89250000D01*
G36*
X165000000Y-81000000D02*
G01*
X154750000Y-81000000D01*
X154750000Y-79000000D01*
X165000000Y-79000000D01*
X165000000Y-81000000D01*
G37*
X165000000Y-81000000D02*
X154750000Y-81000000D01*
X154750000Y-79000000D01*
X165000000Y-79000000D01*
X165000000Y-81000000D01*
D12*
%TO.C,C5*%
X155050000Y-89700000D03*
X156020000Y-89700000D03*
%TD*%
%TO.C,C6*%
X155050000Y-88700000D03*
X156020000Y-88700000D03*
%TD*%
%TO.C,C7*%
X149250000Y-88650000D03*
X150220000Y-88650000D03*
%TD*%
%TO.C,C8*%
X149250000Y-89650000D03*
X150220000Y-89650000D03*
%TD*%
D13*
%TO.C,C12*%
X154000000Y-85500000D03*
X155575000Y-85500000D03*
%TD*%
D14*
%TO.C,L2*%
X149250000Y-91600000D03*
X149250000Y-90630000D03*
%TD*%
D13*
%TO.C,L5*%
X152200000Y-91000000D03*
X153775000Y-91000000D03*
%TD*%
D15*
%TO.C,J1*%
X137700000Y-94000000D03*
D16*
X137700000Y-98250000D03*
X137700000Y-89750000D03*
%TD*%
D17*
%TO.C,J2*%
X162235000Y-94000000D03*
D18*
X162235000Y-98250000D03*
X162235000Y-89750000D03*
%TD*%
D14*
%TO.C,R1*%
X155050000Y-87685000D03*
X155050000Y-86715000D03*
%TD*%
D19*
%TO.C,R2*%
X149250000Y-86680000D03*
X149250000Y-87650000D03*
%TD*%
D12*
%TO.C,C2*%
X157780000Y-94000000D03*
X158750000Y-94000000D03*
%TD*%
D20*
%TO.C,R9*%
X153640000Y-94000000D03*
X152670000Y-94000000D03*
%TD*%
D14*
%TO.C,R10*%
X154570000Y-94970000D03*
X154570000Y-94000000D03*
%TD*%
%TO.C,C1*%
X142630000Y-94970000D03*
X142630000Y-94000000D03*
%TD*%
D12*
%TO.C,C9*%
X146350000Y-94000000D03*
X147320000Y-94000000D03*
%TD*%
D20*
%TO.C,L1*%
X144515000Y-94000000D03*
X143545000Y-94000000D03*
%TD*%
D19*
%TO.C,L4*%
X145430000Y-94000000D03*
X145430000Y-94970000D03*
%TD*%
D21*
%TO.C,MH1*%
X139000000Y-105000000D03*
%TD*%
%TO.C,MH2*%
X139000000Y-83000000D03*
%TD*%
%TO.C,MH3*%
X161000000Y-105000000D03*
%TD*%
%TO.C,MH4*%
X161000000Y-83000000D03*
%TD*%
D22*
%TO.C,U1*%
X148350000Y-93500000D03*
X148350000Y-94000000D03*
X148350000Y-94500000D03*
X148350000Y-95000000D03*
D23*
X149260000Y-95940000D03*
X149760000Y-95940000D03*
X150260000Y-95940000D03*
X150760000Y-95940000D03*
D22*
X151670000Y-95000000D03*
X151670000Y-94500000D03*
X151670000Y-94000000D03*
X151670000Y-93500000D03*
D23*
X150760000Y-92560000D03*
X150260000Y-92560000D03*
X149760000Y-92560000D03*
X149260000Y-92560000D03*
D24*
X150010000Y-94250000D03*
%TD*%
D25*
%TO.C,J3*%
X150000000Y-81715000D03*
X145750000Y-81715000D03*
X154250000Y-81715000D03*
%TD*%
M02*
