%TF.GenerationSoftware,KiCad,Pcbnew,5.1.7*%
%TF.CreationDate,2020-12-15T20:32:55+00:00*%
%TF.ProjectId,QPL9065,51504c39-3036-4352-9e6b-696361645f70,rev?*%
%TF.SameCoordinates,Original*%
%TF.FileFunction,Legend,Top*%
%TF.FilePolarity,Positive*%
%FSLAX46Y46*%
G04 Gerber Fmt 4.6, Leading zero omitted, Abs format (unit mm)*
G04 Created by KiCad (PCBNEW 5.1.7) date 2020-12-15 20:32:55*
%MOMM*%
%LPD*%
G01*
G04 APERTURE LIST*
%ADD10C,0.150000*%
%ADD11C,0.120000*%
G04 APERTURE END LIST*
D10*
X137285595Y-86127380D02*
X137285595Y-85127380D01*
X137666547Y-85127380D01*
X137761785Y-85175000D01*
X137809404Y-85222619D01*
X137857023Y-85317857D01*
X137857023Y-85460714D01*
X137809404Y-85555952D01*
X137761785Y-85603571D01*
X137666547Y-85651190D01*
X137285595Y-85651190D01*
X138428452Y-86127380D02*
X138333214Y-86079761D01*
X138285595Y-86032142D01*
X138237976Y-85936904D01*
X138237976Y-85651190D01*
X138285595Y-85555952D01*
X138333214Y-85508333D01*
X138428452Y-85460714D01*
X138571309Y-85460714D01*
X138666547Y-85508333D01*
X138714166Y-85555952D01*
X138761785Y-85651190D01*
X138761785Y-85936904D01*
X138714166Y-86032142D01*
X138666547Y-86079761D01*
X138571309Y-86127380D01*
X138428452Y-86127380D01*
X139095119Y-85460714D02*
X139285595Y-86127380D01*
X139476071Y-85651190D01*
X139666547Y-86127380D01*
X139857023Y-85460714D01*
X140618928Y-86079761D02*
X140523690Y-86127380D01*
X140333214Y-86127380D01*
X140237976Y-86079761D01*
X140190357Y-85984523D01*
X140190357Y-85603571D01*
X140237976Y-85508333D01*
X140333214Y-85460714D01*
X140523690Y-85460714D01*
X140618928Y-85508333D01*
X140666547Y-85603571D01*
X140666547Y-85698809D01*
X140190357Y-85794047D01*
X141095119Y-86127380D02*
X141095119Y-85460714D01*
X141095119Y-85651190D02*
X141142738Y-85555952D01*
X141190357Y-85508333D01*
X141285595Y-85460714D01*
X141380833Y-85460714D01*
X142476071Y-86127380D02*
X142476071Y-85127380D01*
X142952261Y-85460714D02*
X142952261Y-86127380D01*
X142952261Y-85555952D02*
X142999880Y-85508333D01*
X143095119Y-85460714D01*
X143237976Y-85460714D01*
X143333214Y-85508333D01*
X143380833Y-85603571D01*
X143380833Y-86127380D01*
X137190357Y-86777380D02*
X137809404Y-86777380D01*
X137476071Y-87158333D01*
X137618928Y-87158333D01*
X137714166Y-87205952D01*
X137761785Y-87253571D01*
X137809404Y-87348809D01*
X137809404Y-87586904D01*
X137761785Y-87682142D01*
X137714166Y-87729761D01*
X137618928Y-87777380D01*
X137333214Y-87777380D01*
X137237976Y-87729761D01*
X137190357Y-87682142D01*
X138237976Y-87682142D02*
X138285595Y-87729761D01*
X138237976Y-87777380D01*
X138190357Y-87729761D01*
X138237976Y-87682142D01*
X138237976Y-87777380D01*
X138618928Y-86777380D02*
X139237976Y-86777380D01*
X138904642Y-87158333D01*
X139047500Y-87158333D01*
X139142738Y-87205952D01*
X139190357Y-87253571D01*
X139237976Y-87348809D01*
X139237976Y-87586904D01*
X139190357Y-87682142D01*
X139142738Y-87729761D01*
X139047500Y-87777380D01*
X138761785Y-87777380D01*
X138666547Y-87729761D01*
X138618928Y-87682142D01*
X140428452Y-87396428D02*
X141190357Y-87396428D01*
X142904642Y-86777380D02*
X142428452Y-86777380D01*
X142380833Y-87253571D01*
X142428452Y-87205952D01*
X142523690Y-87158333D01*
X142761785Y-87158333D01*
X142857023Y-87205952D01*
X142904642Y-87253571D01*
X142952261Y-87348809D01*
X142952261Y-87586904D01*
X142904642Y-87682142D01*
X142857023Y-87729761D01*
X142761785Y-87777380D01*
X142523690Y-87777380D01*
X142428452Y-87729761D01*
X142380833Y-87682142D01*
X143380833Y-87682142D02*
X143428452Y-87729761D01*
X143380833Y-87777380D01*
X143333214Y-87729761D01*
X143380833Y-87682142D01*
X143380833Y-87777380D01*
X144047500Y-86777380D02*
X144142738Y-86777380D01*
X144237976Y-86825000D01*
X144285595Y-86872619D01*
X144333214Y-86967857D01*
X144380833Y-87158333D01*
X144380833Y-87396428D01*
X144333214Y-87586904D01*
X144285595Y-87682142D01*
X144237976Y-87729761D01*
X144142738Y-87777380D01*
X144047500Y-87777380D01*
X143952261Y-87729761D01*
X143904642Y-87682142D01*
X143857023Y-87586904D01*
X143809404Y-87396428D01*
X143809404Y-87158333D01*
X143857023Y-86967857D01*
X143904642Y-86872619D01*
X143952261Y-86825000D01*
X144047500Y-86777380D01*
X144666547Y-86777380D02*
X144999880Y-87777380D01*
X145333214Y-86777380D01*
X145666547Y-87777380D02*
X145666547Y-86777380D01*
X145904642Y-86777380D01*
X146047500Y-86825000D01*
X146142738Y-86920238D01*
X146190357Y-87015476D01*
X146237976Y-87205952D01*
X146237976Y-87348809D01*
X146190357Y-87539285D01*
X146142738Y-87634523D01*
X146047500Y-87729761D01*
X145904642Y-87777380D01*
X145666547Y-87777380D01*
X147095119Y-87729761D02*
X146999880Y-87777380D01*
X146809404Y-87777380D01*
X146714166Y-87729761D01*
X146666547Y-87682142D01*
X146618928Y-87586904D01*
X146618928Y-87301190D01*
X146666547Y-87205952D01*
X146714166Y-87158333D01*
X146809404Y-87110714D01*
X146999880Y-87110714D01*
X147095119Y-87158333D01*
X156410476Y-96612380D02*
X156077142Y-96136190D01*
X155839047Y-96612380D02*
X155839047Y-95612380D01*
X156220000Y-95612380D01*
X156315238Y-95660000D01*
X156362857Y-95707619D01*
X156410476Y-95802857D01*
X156410476Y-95945714D01*
X156362857Y-96040952D01*
X156315238Y-96088571D01*
X156220000Y-96136190D01*
X155839047Y-96136190D01*
X157172380Y-96088571D02*
X156839047Y-96088571D01*
X156839047Y-96612380D02*
X156839047Y-95612380D01*
X157315238Y-95612380D01*
X157839047Y-96612380D02*
X157743809Y-96564761D01*
X157696190Y-96517142D01*
X157648571Y-96421904D01*
X157648571Y-96136190D01*
X157696190Y-96040952D01*
X157743809Y-95993333D01*
X157839047Y-95945714D01*
X157981904Y-95945714D01*
X158077142Y-95993333D01*
X158124761Y-96040952D01*
X158172380Y-96136190D01*
X158172380Y-96421904D01*
X158124761Y-96517142D01*
X158077142Y-96564761D01*
X157981904Y-96612380D01*
X157839047Y-96612380D01*
X159029523Y-95945714D02*
X159029523Y-96612380D01*
X158600952Y-95945714D02*
X158600952Y-96469523D01*
X158648571Y-96564761D01*
X158743809Y-96612380D01*
X158886666Y-96612380D01*
X158981904Y-96564761D01*
X159029523Y-96517142D01*
X159362857Y-95945714D02*
X159743809Y-95945714D01*
X159505714Y-95612380D02*
X159505714Y-96469523D01*
X159553333Y-96564761D01*
X159648571Y-96612380D01*
X159743809Y-96612380D01*
X141230476Y-96602380D02*
X140897142Y-96126190D01*
X140659047Y-96602380D02*
X140659047Y-95602380D01*
X141040000Y-95602380D01*
X141135238Y-95650000D01*
X141182857Y-95697619D01*
X141230476Y-95792857D01*
X141230476Y-95935714D01*
X141182857Y-96030952D01*
X141135238Y-96078571D01*
X141040000Y-96126190D01*
X140659047Y-96126190D01*
X141992380Y-96078571D02*
X141659047Y-96078571D01*
X141659047Y-96602380D02*
X141659047Y-95602380D01*
X142135238Y-95602380D01*
X142516190Y-96602380D02*
X142516190Y-95935714D01*
X142516190Y-95602380D02*
X142468571Y-95650000D01*
X142516190Y-95697619D01*
X142563809Y-95650000D01*
X142516190Y-95602380D01*
X142516190Y-95697619D01*
X142992380Y-95935714D02*
X142992380Y-96602380D01*
X142992380Y-96030952D02*
X143040000Y-95983333D01*
X143135238Y-95935714D01*
X143278095Y-95935714D01*
X143373333Y-95983333D01*
X143420952Y-96078571D01*
X143420952Y-96602380D01*
X142402261Y-103072619D02*
X142307023Y-103025000D01*
X142211785Y-102929761D01*
X142068928Y-102786904D01*
X141973690Y-102739285D01*
X141878452Y-102739285D01*
X141926071Y-102977380D02*
X141830833Y-102929761D01*
X141735595Y-102834523D01*
X141687976Y-102644047D01*
X141687976Y-102310714D01*
X141735595Y-102120238D01*
X141830833Y-102025000D01*
X141926071Y-101977380D01*
X142116547Y-101977380D01*
X142211785Y-102025000D01*
X142307023Y-102120238D01*
X142354642Y-102310714D01*
X142354642Y-102644047D01*
X142307023Y-102834523D01*
X142211785Y-102929761D01*
X142116547Y-102977380D01*
X141926071Y-102977380D01*
X142783214Y-102977380D02*
X142783214Y-101977380D01*
X143164166Y-101977380D01*
X143259404Y-102025000D01*
X143307023Y-102072619D01*
X143354642Y-102167857D01*
X143354642Y-102310714D01*
X143307023Y-102405952D01*
X143259404Y-102453571D01*
X143164166Y-102501190D01*
X142783214Y-102501190D01*
X144259404Y-102977380D02*
X143783214Y-102977380D01*
X143783214Y-101977380D01*
X144640357Y-102977380D02*
X144830833Y-102977380D01*
X144926071Y-102929761D01*
X144973690Y-102882142D01*
X145068928Y-102739285D01*
X145116547Y-102548809D01*
X145116547Y-102167857D01*
X145068928Y-102072619D01*
X145021309Y-102025000D01*
X144926071Y-101977380D01*
X144735595Y-101977380D01*
X144640357Y-102025000D01*
X144592738Y-102072619D01*
X144545119Y-102167857D01*
X144545119Y-102405952D01*
X144592738Y-102501190D01*
X144640357Y-102548809D01*
X144735595Y-102596428D01*
X144926071Y-102596428D01*
X145021309Y-102548809D01*
X145068928Y-102501190D01*
X145116547Y-102405952D01*
X145735595Y-101977380D02*
X145830833Y-101977380D01*
X145926071Y-102025000D01*
X145973690Y-102072619D01*
X146021309Y-102167857D01*
X146068928Y-102358333D01*
X146068928Y-102596428D01*
X146021309Y-102786904D01*
X145973690Y-102882142D01*
X145926071Y-102929761D01*
X145830833Y-102977380D01*
X145735595Y-102977380D01*
X145640357Y-102929761D01*
X145592738Y-102882142D01*
X145545119Y-102786904D01*
X145497500Y-102596428D01*
X145497500Y-102358333D01*
X145545119Y-102167857D01*
X145592738Y-102072619D01*
X145640357Y-102025000D01*
X145735595Y-101977380D01*
X146926071Y-101977380D02*
X146735595Y-101977380D01*
X146640357Y-102025000D01*
X146592738Y-102072619D01*
X146497500Y-102215476D01*
X146449880Y-102405952D01*
X146449880Y-102786904D01*
X146497500Y-102882142D01*
X146545119Y-102929761D01*
X146640357Y-102977380D01*
X146830833Y-102977380D01*
X146926071Y-102929761D01*
X146973690Y-102882142D01*
X147021309Y-102786904D01*
X147021309Y-102548809D01*
X146973690Y-102453571D01*
X146926071Y-102405952D01*
X146830833Y-102358333D01*
X146640357Y-102358333D01*
X146545119Y-102405952D01*
X146497500Y-102453571D01*
X146449880Y-102548809D01*
X147926071Y-101977380D02*
X147449880Y-101977380D01*
X147402261Y-102453571D01*
X147449880Y-102405952D01*
X147545119Y-102358333D01*
X147783214Y-102358333D01*
X147878452Y-102405952D01*
X147926071Y-102453571D01*
X147973690Y-102548809D01*
X147973690Y-102786904D01*
X147926071Y-102882142D01*
X147878452Y-102929761D01*
X147783214Y-102977380D01*
X147545119Y-102977380D01*
X147449880Y-102929761D01*
X147402261Y-102882142D01*
X141735595Y-104627380D02*
X141735595Y-103627380D01*
X142116547Y-103627380D01*
X142211785Y-103675000D01*
X142259404Y-103722619D01*
X142307023Y-103817857D01*
X142307023Y-103960714D01*
X142259404Y-104055952D01*
X142211785Y-104103571D01*
X142116547Y-104151190D01*
X141735595Y-104151190D01*
X142735595Y-104627380D02*
X142735595Y-103627380D01*
X143164166Y-104627380D02*
X143164166Y-104103571D01*
X143116547Y-104008333D01*
X143021309Y-103960714D01*
X142878452Y-103960714D01*
X142783214Y-104008333D01*
X142735595Y-104055952D01*
X143640357Y-104627380D02*
X143640357Y-103960714D01*
X143640357Y-103627380D02*
X143592738Y-103675000D01*
X143640357Y-103722619D01*
X143687976Y-103675000D01*
X143640357Y-103627380D01*
X143640357Y-103722619D01*
X144259404Y-104627380D02*
X144164166Y-104579761D01*
X144116547Y-104484523D01*
X144116547Y-103627380D01*
X144640357Y-104627380D02*
X144640357Y-103960714D01*
X144640357Y-103627380D02*
X144592738Y-103675000D01*
X144640357Y-103722619D01*
X144687976Y-103675000D01*
X144640357Y-103627380D01*
X144640357Y-103722619D01*
X145116547Y-103960714D02*
X145116547Y-104960714D01*
X145116547Y-104008333D02*
X145211785Y-103960714D01*
X145402261Y-103960714D01*
X145497500Y-104008333D01*
X145545119Y-104055952D01*
X145592738Y-104151190D01*
X145592738Y-104436904D01*
X145545119Y-104532142D01*
X145497500Y-104579761D01*
X145402261Y-104627380D01*
X145211785Y-104627380D01*
X145116547Y-104579761D01*
X146021309Y-103960714D02*
X146021309Y-104960714D01*
X146021309Y-104008333D02*
X146116547Y-103960714D01*
X146307023Y-103960714D01*
X146402261Y-104008333D01*
X146449880Y-104055952D01*
X146497500Y-104151190D01*
X146497500Y-104436904D01*
X146449880Y-104532142D01*
X146402261Y-104579761D01*
X146307023Y-104627380D01*
X146116547Y-104627380D01*
X146021309Y-104579761D01*
X147307023Y-104579761D02*
X147211785Y-104627380D01*
X147021309Y-104627380D01*
X146926071Y-104579761D01*
X146878452Y-104484523D01*
X146878452Y-104103571D01*
X146926071Y-104008333D01*
X147021309Y-103960714D01*
X147211785Y-103960714D01*
X147307023Y-104008333D01*
X147354642Y-104103571D01*
X147354642Y-104198809D01*
X146878452Y-104294047D01*
X148402261Y-103627380D02*
X148973690Y-103627380D01*
X148687976Y-104627380D02*
X148687976Y-103627380D01*
X149307023Y-104627380D02*
X149307023Y-103960714D01*
X149307023Y-104151190D02*
X149354642Y-104055952D01*
X149402261Y-104008333D01*
X149497500Y-103960714D01*
X149592738Y-103960714D01*
X150068928Y-104627380D02*
X149973690Y-104579761D01*
X149926071Y-104532142D01*
X149878452Y-104436904D01*
X149878452Y-104151190D01*
X149926071Y-104055952D01*
X149973690Y-104008333D01*
X150068928Y-103960714D01*
X150211785Y-103960714D01*
X150307023Y-104008333D01*
X150354642Y-104055952D01*
X150402261Y-104151190D01*
X150402261Y-104436904D01*
X150354642Y-104532142D01*
X150307023Y-104579761D01*
X150211785Y-104627380D01*
X150068928Y-104627380D01*
X150687976Y-103960714D02*
X151068928Y-103960714D01*
X150830833Y-103627380D02*
X150830833Y-104484523D01*
X150878452Y-104579761D01*
X150973690Y-104627380D01*
X151068928Y-104627380D01*
X151259404Y-103960714D02*
X151640357Y-103960714D01*
X151402261Y-103627380D02*
X151402261Y-104484523D01*
X151449880Y-104579761D01*
X151545119Y-104627380D01*
X151640357Y-104627380D01*
X151973690Y-104627380D02*
X151973690Y-103960714D01*
X151973690Y-103627380D02*
X151926071Y-103675000D01*
X151973690Y-103722619D01*
X152021309Y-103675000D01*
X151973690Y-103627380D01*
X151973690Y-103722619D01*
X152830833Y-104579761D02*
X152735595Y-104627380D01*
X152545119Y-104627380D01*
X152449880Y-104579761D01*
X152402261Y-104484523D01*
X152402261Y-104103571D01*
X152449880Y-104008333D01*
X152545119Y-103960714D01*
X152735595Y-103960714D01*
X152830833Y-104008333D01*
X152878452Y-104103571D01*
X152878452Y-104198809D01*
X152402261Y-104294047D01*
X153307023Y-104627380D02*
X153307023Y-103960714D01*
X153307023Y-104151190D02*
X153354642Y-104055952D01*
X153402261Y-104008333D01*
X153497500Y-103960714D01*
X153592738Y-103960714D01*
X154640357Y-103722619D02*
X154687976Y-103675000D01*
X154783214Y-103627380D01*
X155021309Y-103627380D01*
X155116547Y-103675000D01*
X155164166Y-103722619D01*
X155211785Y-103817857D01*
X155211785Y-103913095D01*
X155164166Y-104055952D01*
X154592738Y-104627380D01*
X155211785Y-104627380D01*
X155830833Y-103627380D02*
X155926071Y-103627380D01*
X156021309Y-103675000D01*
X156068928Y-103722619D01*
X156116547Y-103817857D01*
X156164166Y-104008333D01*
X156164166Y-104246428D01*
X156116547Y-104436904D01*
X156068928Y-104532142D01*
X156021309Y-104579761D01*
X155926071Y-104627380D01*
X155830833Y-104627380D01*
X155735595Y-104579761D01*
X155687976Y-104532142D01*
X155640357Y-104436904D01*
X155592738Y-104246428D01*
X155592738Y-104008333D01*
X155640357Y-103817857D01*
X155687976Y-103722619D01*
X155735595Y-103675000D01*
X155830833Y-103627380D01*
X156545119Y-103722619D02*
X156592738Y-103675000D01*
X156687976Y-103627380D01*
X156926071Y-103627380D01*
X157021309Y-103675000D01*
X157068928Y-103722619D01*
X157116547Y-103817857D01*
X157116547Y-103913095D01*
X157068928Y-104055952D01*
X156497500Y-104627380D01*
X157116547Y-104627380D01*
X157735595Y-103627380D02*
X157830833Y-103627380D01*
X157926071Y-103675000D01*
X157973690Y-103722619D01*
X158021309Y-103817857D01*
X158068928Y-104008333D01*
X158068928Y-104246428D01*
X158021309Y-104436904D01*
X157973690Y-104532142D01*
X157926071Y-104579761D01*
X157830833Y-104627380D01*
X157735595Y-104627380D01*
X157640357Y-104579761D01*
X157592738Y-104532142D01*
X157545119Y-104436904D01*
X157497500Y-104246428D01*
X157497500Y-104008333D01*
X157545119Y-103817857D01*
X157592738Y-103722619D01*
X157640357Y-103675000D01*
X157735595Y-103627380D01*
X141735595Y-105753571D02*
X142068928Y-105753571D01*
X142211785Y-106277380D02*
X141735595Y-106277380D01*
X141735595Y-105277380D01*
X142211785Y-105277380D01*
X142640357Y-106277380D02*
X142640357Y-105610714D01*
X142640357Y-105801190D02*
X142687976Y-105705952D01*
X142735595Y-105658333D01*
X142830833Y-105610714D01*
X142926071Y-105610714D01*
X143259404Y-105753571D02*
X144021309Y-105753571D01*
X144021309Y-106039285D02*
X143259404Y-106039285D01*
X144926071Y-105610714D02*
X144926071Y-106277380D01*
X144687976Y-105229761D02*
X144449880Y-105944047D01*
X145068928Y-105944047D01*
X145449880Y-106182142D02*
X145497500Y-106229761D01*
X145449880Y-106277380D01*
X145402261Y-106229761D01*
X145449880Y-106182142D01*
X145449880Y-106277380D01*
X146116547Y-105277380D02*
X146211785Y-105277380D01*
X146307023Y-105325000D01*
X146354642Y-105372619D01*
X146402261Y-105467857D01*
X146449880Y-105658333D01*
X146449880Y-105896428D01*
X146402261Y-106086904D01*
X146354642Y-106182142D01*
X146307023Y-106229761D01*
X146211785Y-106277380D01*
X146116547Y-106277380D01*
X146021309Y-106229761D01*
X145973690Y-106182142D01*
X145926071Y-106086904D01*
X145878452Y-105896428D01*
X145878452Y-105658333D01*
X145926071Y-105467857D01*
X145973690Y-105372619D01*
X146021309Y-105325000D01*
X146116547Y-105277380D01*
X147354642Y-105277380D02*
X146878452Y-105277380D01*
X146830833Y-105753571D01*
X146878452Y-105705952D01*
X146973690Y-105658333D01*
X147211785Y-105658333D01*
X147307023Y-105705952D01*
X147354642Y-105753571D01*
X147402261Y-105848809D01*
X147402261Y-106086904D01*
X147354642Y-106182142D01*
X147307023Y-106229761D01*
X147211785Y-106277380D01*
X146973690Y-106277380D01*
X146878452Y-106229761D01*
X146830833Y-106182142D01*
X148592738Y-106277380D02*
X148592738Y-105277380D01*
X148592738Y-105753571D02*
X149164166Y-105753571D01*
X149164166Y-106277380D02*
X149164166Y-105277380D01*
X149640357Y-105753571D02*
X150402261Y-105753571D01*
X150402261Y-106039285D02*
X149640357Y-106039285D01*
X151068928Y-105277380D02*
X151164166Y-105277380D01*
X151259404Y-105325000D01*
X151307023Y-105372619D01*
X151354642Y-105467857D01*
X151402261Y-105658333D01*
X151402261Y-105896428D01*
X151354642Y-106086904D01*
X151307023Y-106182142D01*
X151259404Y-106229761D01*
X151164166Y-106277380D01*
X151068928Y-106277380D01*
X150973690Y-106229761D01*
X150926071Y-106182142D01*
X150878452Y-106086904D01*
X150830833Y-105896428D01*
X150830833Y-105658333D01*
X150878452Y-105467857D01*
X150926071Y-105372619D01*
X150973690Y-105325000D01*
X151068928Y-105277380D01*
X151830833Y-106182142D02*
X151878452Y-106229761D01*
X151830833Y-106277380D01*
X151783214Y-106229761D01*
X151830833Y-106182142D01*
X151830833Y-106277380D01*
X152497500Y-105277380D02*
X152592738Y-105277380D01*
X152687976Y-105325000D01*
X152735595Y-105372619D01*
X152783214Y-105467857D01*
X152830833Y-105658333D01*
X152830833Y-105896428D01*
X152783214Y-106086904D01*
X152735595Y-106182142D01*
X152687976Y-106229761D01*
X152592738Y-106277380D01*
X152497500Y-106277380D01*
X152402261Y-106229761D01*
X152354642Y-106182142D01*
X152307023Y-106086904D01*
X152259404Y-105896428D01*
X152259404Y-105658333D01*
X152307023Y-105467857D01*
X152354642Y-105372619D01*
X152402261Y-105325000D01*
X152497500Y-105277380D01*
X153402261Y-105705952D02*
X153307023Y-105658333D01*
X153259404Y-105610714D01*
X153211785Y-105515476D01*
X153211785Y-105467857D01*
X153259404Y-105372619D01*
X153307023Y-105325000D01*
X153402261Y-105277380D01*
X153592738Y-105277380D01*
X153687976Y-105325000D01*
X153735595Y-105372619D01*
X153783214Y-105467857D01*
X153783214Y-105515476D01*
X153735595Y-105610714D01*
X153687976Y-105658333D01*
X153592738Y-105705952D01*
X153402261Y-105705952D01*
X153307023Y-105753571D01*
X153259404Y-105801190D01*
X153211785Y-105896428D01*
X153211785Y-106086904D01*
X153259404Y-106182142D01*
X153307023Y-106229761D01*
X153402261Y-106277380D01*
X153592738Y-106277380D01*
X153687976Y-106229761D01*
X153735595Y-106182142D01*
X153783214Y-106086904D01*
X153783214Y-105896428D01*
X153735595Y-105801190D01*
X153687976Y-105753571D01*
X153592738Y-105705952D01*
X154354642Y-105705952D02*
X154259404Y-105658333D01*
X154211785Y-105610714D01*
X154164166Y-105515476D01*
X154164166Y-105467857D01*
X154211785Y-105372619D01*
X154259404Y-105325000D01*
X154354642Y-105277380D01*
X154545119Y-105277380D01*
X154640357Y-105325000D01*
X154687976Y-105372619D01*
X154735595Y-105467857D01*
X154735595Y-105515476D01*
X154687976Y-105610714D01*
X154640357Y-105658333D01*
X154545119Y-105705952D01*
X154354642Y-105705952D01*
X154259404Y-105753571D01*
X154211785Y-105801190D01*
X154164166Y-105896428D01*
X154164166Y-106086904D01*
X154211785Y-106182142D01*
X154259404Y-106229761D01*
X154354642Y-106277380D01*
X154545119Y-106277380D01*
X154640357Y-106229761D01*
X154687976Y-106182142D01*
X154735595Y-106086904D01*
X154735595Y-105896428D01*
X154687976Y-105801190D01*
X154640357Y-105753571D01*
X154545119Y-105705952D01*
X155211785Y-106277380D02*
X155402261Y-106277380D01*
X155497500Y-106229761D01*
X155545119Y-106182142D01*
X155640357Y-106039285D01*
X155687976Y-105848809D01*
X155687976Y-105467857D01*
X155640357Y-105372619D01*
X155592738Y-105325000D01*
X155497500Y-105277380D01*
X155307023Y-105277380D01*
X155211785Y-105325000D01*
X155164166Y-105372619D01*
X155116547Y-105467857D01*
X155116547Y-105705952D01*
X155164166Y-105801190D01*
X155211785Y-105848809D01*
X155307023Y-105896428D01*
X155497500Y-105896428D01*
X155592738Y-105848809D01*
X155640357Y-105801190D01*
X155687976Y-105705952D01*
X156116547Y-106277380D02*
X156116547Y-105610714D01*
X156116547Y-105705952D02*
X156164166Y-105658333D01*
X156259404Y-105610714D01*
X156402261Y-105610714D01*
X156497500Y-105658333D01*
X156545119Y-105753571D01*
X156545119Y-106277380D01*
X156545119Y-105753571D02*
X156592738Y-105658333D01*
X156687976Y-105610714D01*
X156830833Y-105610714D01*
X156926071Y-105658333D01*
X156973690Y-105753571D01*
X156973690Y-106277380D01*
X157449880Y-106277380D02*
X157449880Y-105610714D01*
X157449880Y-105705952D02*
X157497500Y-105658333D01*
X157592738Y-105610714D01*
X157735595Y-105610714D01*
X157830833Y-105658333D01*
X157878452Y-105753571D01*
X157878452Y-106277380D01*
X157878452Y-105753571D02*
X157926071Y-105658333D01*
X158021309Y-105610714D01*
X158164166Y-105610714D01*
X158259404Y-105658333D01*
X158307023Y-105753571D01*
X158307023Y-106277380D01*
D11*
%TO.C,C12*%
X154624721Y-84990000D02*
X154950279Y-84990000D01*
X154624721Y-86010000D02*
X154950279Y-86010000D01*
%TO.C,L5*%
X152824721Y-90490000D02*
X153150279Y-90490000D01*
X152824721Y-91510000D02*
X153150279Y-91510000D01*
D10*
%TO.C,U1*%
X151650000Y-92350000D02*
X151650000Y-92875000D01*
X148350000Y-95650000D02*
X148350000Y-95125000D01*
X151650000Y-95650000D02*
X151650000Y-95125000D01*
X148350000Y-92350000D02*
X148875000Y-92350000D01*
X148350000Y-95650000D02*
X148875000Y-95650000D01*
X151650000Y-95650000D02*
X151125000Y-95650000D01*
X151650000Y-92350000D02*
X151125000Y-92350000D01*
%TO.C,C5*%
X157583333Y-90257142D02*
X157535714Y-90304761D01*
X157392857Y-90352380D01*
X157297619Y-90352380D01*
X157154761Y-90304761D01*
X157059523Y-90209523D01*
X157011904Y-90114285D01*
X156964285Y-89923809D01*
X156964285Y-89780952D01*
X157011904Y-89590476D01*
X157059523Y-89495238D01*
X157154761Y-89400000D01*
X157297619Y-89352380D01*
X157392857Y-89352380D01*
X157535714Y-89400000D01*
X157583333Y-89447619D01*
X158488095Y-89352380D02*
X158011904Y-89352380D01*
X157964285Y-89828571D01*
X158011904Y-89780952D01*
X158107142Y-89733333D01*
X158345238Y-89733333D01*
X158440476Y-89780952D01*
X158488095Y-89828571D01*
X158535714Y-89923809D01*
X158535714Y-90161904D01*
X158488095Y-90257142D01*
X158440476Y-90304761D01*
X158345238Y-90352380D01*
X158107142Y-90352380D01*
X158011904Y-90304761D01*
X157964285Y-90257142D01*
%TO.C,C6*%
X157583333Y-88907142D02*
X157535714Y-88954761D01*
X157392857Y-89002380D01*
X157297619Y-89002380D01*
X157154761Y-88954761D01*
X157059523Y-88859523D01*
X157011904Y-88764285D01*
X156964285Y-88573809D01*
X156964285Y-88430952D01*
X157011904Y-88240476D01*
X157059523Y-88145238D01*
X157154761Y-88050000D01*
X157297619Y-88002380D01*
X157392857Y-88002380D01*
X157535714Y-88050000D01*
X157583333Y-88097619D01*
X158440476Y-88002380D02*
X158250000Y-88002380D01*
X158154761Y-88050000D01*
X158107142Y-88097619D01*
X158011904Y-88240476D01*
X157964285Y-88430952D01*
X157964285Y-88811904D01*
X158011904Y-88907142D01*
X158059523Y-88954761D01*
X158154761Y-89002380D01*
X158345238Y-89002380D01*
X158440476Y-88954761D01*
X158488095Y-88907142D01*
X158535714Y-88811904D01*
X158535714Y-88573809D01*
X158488095Y-88478571D01*
X158440476Y-88430952D01*
X158345238Y-88383333D01*
X158154761Y-88383333D01*
X158059523Y-88430952D01*
X158011904Y-88478571D01*
X157964285Y-88573809D01*
%TO.C,C7*%
X151583333Y-88382142D02*
X151535714Y-88429761D01*
X151392857Y-88477380D01*
X151297619Y-88477380D01*
X151154761Y-88429761D01*
X151059523Y-88334523D01*
X151011904Y-88239285D01*
X150964285Y-88048809D01*
X150964285Y-87905952D01*
X151011904Y-87715476D01*
X151059523Y-87620238D01*
X151154761Y-87525000D01*
X151297619Y-87477380D01*
X151392857Y-87477380D01*
X151535714Y-87525000D01*
X151583333Y-87572619D01*
X151916666Y-87477380D02*
X152583333Y-87477380D01*
X152154761Y-88477380D01*
%TO.C,C8*%
X151583333Y-89757142D02*
X151535714Y-89804761D01*
X151392857Y-89852380D01*
X151297619Y-89852380D01*
X151154761Y-89804761D01*
X151059523Y-89709523D01*
X151011904Y-89614285D01*
X150964285Y-89423809D01*
X150964285Y-89280952D01*
X151011904Y-89090476D01*
X151059523Y-88995238D01*
X151154761Y-88900000D01*
X151297619Y-88852380D01*
X151392857Y-88852380D01*
X151535714Y-88900000D01*
X151583333Y-88947619D01*
X152154761Y-89280952D02*
X152059523Y-89233333D01*
X152011904Y-89185714D01*
X151964285Y-89090476D01*
X151964285Y-89042857D01*
X152011904Y-88947619D01*
X152059523Y-88900000D01*
X152154761Y-88852380D01*
X152345238Y-88852380D01*
X152440476Y-88900000D01*
X152488095Y-88947619D01*
X152535714Y-89042857D01*
X152535714Y-89090476D01*
X152488095Y-89185714D01*
X152440476Y-89233333D01*
X152345238Y-89280952D01*
X152154761Y-89280952D01*
X152059523Y-89328571D01*
X152011904Y-89376190D01*
X151964285Y-89471428D01*
X151964285Y-89661904D01*
X152011904Y-89757142D01*
X152059523Y-89804761D01*
X152154761Y-89852380D01*
X152345238Y-89852380D01*
X152440476Y-89804761D01*
X152488095Y-89757142D01*
X152535714Y-89661904D01*
X152535714Y-89471428D01*
X152488095Y-89376190D01*
X152440476Y-89328571D01*
X152345238Y-89280952D01*
%TO.C,C12*%
X157157142Y-85857142D02*
X157109523Y-85904761D01*
X156966666Y-85952380D01*
X156871428Y-85952380D01*
X156728571Y-85904761D01*
X156633333Y-85809523D01*
X156585714Y-85714285D01*
X156538095Y-85523809D01*
X156538095Y-85380952D01*
X156585714Y-85190476D01*
X156633333Y-85095238D01*
X156728571Y-85000000D01*
X156871428Y-84952380D01*
X156966666Y-84952380D01*
X157109523Y-85000000D01*
X157157142Y-85047619D01*
X158109523Y-85952380D02*
X157538095Y-85952380D01*
X157823809Y-85952380D02*
X157823809Y-84952380D01*
X157728571Y-85095238D01*
X157633333Y-85190476D01*
X157538095Y-85238095D01*
X158490476Y-85047619D02*
X158538095Y-85000000D01*
X158633333Y-84952380D01*
X158871428Y-84952380D01*
X158966666Y-85000000D01*
X159014285Y-85047619D01*
X159061904Y-85142857D01*
X159061904Y-85238095D01*
X159014285Y-85380952D01*
X158442857Y-85952380D01*
X159061904Y-85952380D01*
%TO.C,L2*%
X150333333Y-91227380D02*
X149857142Y-91227380D01*
X149857142Y-90227380D01*
X150619047Y-90322619D02*
X150666666Y-90275000D01*
X150761904Y-90227380D01*
X151000000Y-90227380D01*
X151095238Y-90275000D01*
X151142857Y-90322619D01*
X151190476Y-90417857D01*
X151190476Y-90513095D01*
X151142857Y-90655952D01*
X150571428Y-91227380D01*
X151190476Y-91227380D01*
%TO.C,L5*%
X155583333Y-91452380D02*
X155107142Y-91452380D01*
X155107142Y-90452380D01*
X156392857Y-90452380D02*
X155916666Y-90452380D01*
X155869047Y-90928571D01*
X155916666Y-90880952D01*
X156011904Y-90833333D01*
X156250000Y-90833333D01*
X156345238Y-90880952D01*
X156392857Y-90928571D01*
X156440476Y-91023809D01*
X156440476Y-91261904D01*
X156392857Y-91357142D01*
X156345238Y-91404761D01*
X156250000Y-91452380D01*
X156011904Y-91452380D01*
X155916666Y-91404761D01*
X155869047Y-91357142D01*
%TO.C,J1*%
X137996666Y-99402380D02*
X137996666Y-100116666D01*
X137949047Y-100259523D01*
X137853809Y-100354761D01*
X137710952Y-100402380D01*
X137615714Y-100402380D01*
X138996666Y-100402380D02*
X138425238Y-100402380D01*
X138710952Y-100402380D02*
X138710952Y-99402380D01*
X138615714Y-99545238D01*
X138520476Y-99640476D01*
X138425238Y-99688095D01*
%TO.C,J2*%
X161126666Y-99312380D02*
X161126666Y-100026666D01*
X161079047Y-100169523D01*
X160983809Y-100264761D01*
X160840952Y-100312380D01*
X160745714Y-100312380D01*
X161555238Y-99407619D02*
X161602857Y-99360000D01*
X161698095Y-99312380D01*
X161936190Y-99312380D01*
X162031428Y-99360000D01*
X162079047Y-99407619D01*
X162126666Y-99502857D01*
X162126666Y-99598095D01*
X162079047Y-99740952D01*
X161507619Y-100312380D01*
X162126666Y-100312380D01*
%TO.C,J3*%
X156416666Y-81152380D02*
X156416666Y-81866666D01*
X156369047Y-82009523D01*
X156273809Y-82104761D01*
X156130952Y-82152380D01*
X156035714Y-82152380D01*
X156797619Y-81152380D02*
X157416666Y-81152380D01*
X157083333Y-81533333D01*
X157226190Y-81533333D01*
X157321428Y-81580952D01*
X157369047Y-81628571D01*
X157416666Y-81723809D01*
X157416666Y-81961904D01*
X157369047Y-82057142D01*
X157321428Y-82104761D01*
X157226190Y-82152380D01*
X156940476Y-82152380D01*
X156845238Y-82104761D01*
X156797619Y-82057142D01*
%TO.C,R1*%
X157583333Y-87702380D02*
X157250000Y-87226190D01*
X157011904Y-87702380D02*
X157011904Y-86702380D01*
X157392857Y-86702380D01*
X157488095Y-86750000D01*
X157535714Y-86797619D01*
X157583333Y-86892857D01*
X157583333Y-87035714D01*
X157535714Y-87130952D01*
X157488095Y-87178571D01*
X157392857Y-87226190D01*
X157011904Y-87226190D01*
X158535714Y-87702380D02*
X157964285Y-87702380D01*
X158250000Y-87702380D02*
X158250000Y-86702380D01*
X158154761Y-86845238D01*
X158059523Y-86940476D01*
X157964285Y-86988095D01*
%TO.C,R2*%
X151583333Y-87202380D02*
X151250000Y-86726190D01*
X151011904Y-87202380D02*
X151011904Y-86202380D01*
X151392857Y-86202380D01*
X151488095Y-86250000D01*
X151535714Y-86297619D01*
X151583333Y-86392857D01*
X151583333Y-86535714D01*
X151535714Y-86630952D01*
X151488095Y-86678571D01*
X151392857Y-86726190D01*
X151011904Y-86726190D01*
X151964285Y-86297619D02*
X152011904Y-86250000D01*
X152107142Y-86202380D01*
X152345238Y-86202380D01*
X152440476Y-86250000D01*
X152488095Y-86297619D01*
X152535714Y-86392857D01*
X152535714Y-86488095D01*
X152488095Y-86630952D01*
X151916666Y-87202380D01*
X152535714Y-87202380D01*
%TO.C,C2*%
X158083333Y-92107142D02*
X158035714Y-92154761D01*
X157892857Y-92202380D01*
X157797619Y-92202380D01*
X157654761Y-92154761D01*
X157559523Y-92059523D01*
X157511904Y-91964285D01*
X157464285Y-91773809D01*
X157464285Y-91630952D01*
X157511904Y-91440476D01*
X157559523Y-91345238D01*
X157654761Y-91250000D01*
X157797619Y-91202380D01*
X157892857Y-91202380D01*
X158035714Y-91250000D01*
X158083333Y-91297619D01*
X158464285Y-91297619D02*
X158511904Y-91250000D01*
X158607142Y-91202380D01*
X158845238Y-91202380D01*
X158940476Y-91250000D01*
X158988095Y-91297619D01*
X159035714Y-91392857D01*
X159035714Y-91488095D01*
X158988095Y-91630952D01*
X158416666Y-92202380D01*
X159035714Y-92202380D01*
%TO.C,R9*%
X153622380Y-95916666D02*
X153146190Y-96250000D01*
X153622380Y-96488095D02*
X152622380Y-96488095D01*
X152622380Y-96107142D01*
X152670000Y-96011904D01*
X152717619Y-95964285D01*
X152812857Y-95916666D01*
X152955714Y-95916666D01*
X153050952Y-95964285D01*
X153098571Y-96011904D01*
X153146190Y-96107142D01*
X153146190Y-96488095D01*
X153622380Y-95440476D02*
X153622380Y-95250000D01*
X153574761Y-95154761D01*
X153527142Y-95107142D01*
X153384285Y-95011904D01*
X153193809Y-94964285D01*
X152812857Y-94964285D01*
X152717619Y-95011904D01*
X152670000Y-95059523D01*
X152622380Y-95154761D01*
X152622380Y-95345238D01*
X152670000Y-95440476D01*
X152717619Y-95488095D01*
X152812857Y-95535714D01*
X153050952Y-95535714D01*
X153146190Y-95488095D01*
X153193809Y-95440476D01*
X153241428Y-95345238D01*
X153241428Y-95154761D01*
X153193809Y-95059523D01*
X153146190Y-95011904D01*
X153050952Y-94964285D01*
%TO.C,R10*%
X155052380Y-96892857D02*
X154576190Y-97226190D01*
X155052380Y-97464285D02*
X154052380Y-97464285D01*
X154052380Y-97083333D01*
X154100000Y-96988095D01*
X154147619Y-96940476D01*
X154242857Y-96892857D01*
X154385714Y-96892857D01*
X154480952Y-96940476D01*
X154528571Y-96988095D01*
X154576190Y-97083333D01*
X154576190Y-97464285D01*
X155052380Y-95940476D02*
X155052380Y-96511904D01*
X155052380Y-96226190D02*
X154052380Y-96226190D01*
X154195238Y-96321428D01*
X154290476Y-96416666D01*
X154338095Y-96511904D01*
X154052380Y-95321428D02*
X154052380Y-95226190D01*
X154100000Y-95130952D01*
X154147619Y-95083333D01*
X154242857Y-95035714D01*
X154433333Y-94988095D01*
X154671428Y-94988095D01*
X154861904Y-95035714D01*
X154957142Y-95083333D01*
X155004761Y-95130952D01*
X155052380Y-95226190D01*
X155052380Y-95321428D01*
X155004761Y-95416666D01*
X154957142Y-95464285D01*
X154861904Y-95511904D01*
X154671428Y-95559523D01*
X154433333Y-95559523D01*
X154242857Y-95511904D01*
X154147619Y-95464285D01*
X154100000Y-95416666D01*
X154052380Y-95321428D01*
%TO.C,C1*%
X143047142Y-91546666D02*
X143094761Y-91594285D01*
X143142380Y-91737142D01*
X143142380Y-91832380D01*
X143094761Y-91975238D01*
X142999523Y-92070476D01*
X142904285Y-92118095D01*
X142713809Y-92165714D01*
X142570952Y-92165714D01*
X142380476Y-92118095D01*
X142285238Y-92070476D01*
X142190000Y-91975238D01*
X142142380Y-91832380D01*
X142142380Y-91737142D01*
X142190000Y-91594285D01*
X142237619Y-91546666D01*
X143142380Y-90594285D02*
X143142380Y-91165714D01*
X143142380Y-90880000D02*
X142142380Y-90880000D01*
X142285238Y-90975238D01*
X142380476Y-91070476D01*
X142428095Y-91165714D01*
%TO.C,C9*%
X147177142Y-91586666D02*
X147224761Y-91634285D01*
X147272380Y-91777142D01*
X147272380Y-91872380D01*
X147224761Y-92015238D01*
X147129523Y-92110476D01*
X147034285Y-92158095D01*
X146843809Y-92205714D01*
X146700952Y-92205714D01*
X146510476Y-92158095D01*
X146415238Y-92110476D01*
X146320000Y-92015238D01*
X146272380Y-91872380D01*
X146272380Y-91777142D01*
X146320000Y-91634285D01*
X146367619Y-91586666D01*
X147272380Y-91110476D02*
X147272380Y-90920000D01*
X147224761Y-90824761D01*
X147177142Y-90777142D01*
X147034285Y-90681904D01*
X146843809Y-90634285D01*
X146462857Y-90634285D01*
X146367619Y-90681904D01*
X146320000Y-90729523D01*
X146272380Y-90824761D01*
X146272380Y-91015238D01*
X146320000Y-91110476D01*
X146367619Y-91158095D01*
X146462857Y-91205714D01*
X146700952Y-91205714D01*
X146796190Y-91158095D01*
X146843809Y-91110476D01*
X146891428Y-91015238D01*
X146891428Y-90824761D01*
X146843809Y-90729523D01*
X146796190Y-90681904D01*
X146700952Y-90634285D01*
%TO.C,L1*%
X144492380Y-91556666D02*
X144492380Y-92032857D01*
X143492380Y-92032857D01*
X144492380Y-90699523D02*
X144492380Y-91270952D01*
X144492380Y-90985238D02*
X143492380Y-90985238D01*
X143635238Y-91080476D01*
X143730476Y-91175714D01*
X143778095Y-91270952D01*
%TO.C,L4*%
X145862380Y-91526666D02*
X145862380Y-92002857D01*
X144862380Y-92002857D01*
X145195714Y-90764761D02*
X145862380Y-90764761D01*
X144814761Y-91002857D02*
X145529047Y-91240952D01*
X145529047Y-90621904D01*
%TO.C,U1*%
X149238095Y-90552380D02*
X149238095Y-91361904D01*
X149285714Y-91457142D01*
X149333333Y-91504761D01*
X149428571Y-91552380D01*
X149619047Y-91552380D01*
X149714285Y-91504761D01*
X149761904Y-91457142D01*
X149809523Y-91361904D01*
X149809523Y-90552380D01*
X150809523Y-91552380D02*
X150238095Y-91552380D01*
X150523809Y-91552380D02*
X150523809Y-90552380D01*
X150428571Y-90695238D01*
X150333333Y-90790476D01*
X150238095Y-90838095D01*
%TD*%
M02*
