M48
; DRILL file {KiCad 6.0.6} date Mon 25 Jul 2022 01:00:01 PM UTC
; FORMAT={-:-/ absolute / inch / decimal}
; #@! TF.CreationDate,2022-07-25T13:00:01+00:00
; #@! TF.GenerationSoftware,Kicad,Pcbnew,6.0.6
; #@! TF.FileFunction,Plated,1,4,PTH
FMAT,2
INCH
; #@! TA.AperFunction,Plated,PTH,ViaDrill
T1C0.0098
%
G90
G05
T1
X5.3346Y-3.5728
X5.3346Y-3.6024
X5.3346Y-3.7795
X5.3346Y-3.8091
X5.3386Y-3.6634
X5.3386Y-3.7382
X5.3445Y-3.2204
X5.3445Y-3.2611
X5.3445Y-3.3018
X5.3445Y-3.3425
X5.3445Y-3.3832
X5.3445Y-3.4239
X5.3445Y-3.4646
X5.3445Y-3.9173
X5.3445Y-3.9572
X5.3445Y-3.9971
X5.3445Y-4.0369
X5.3445Y-4.0768
X5.3445Y-4.1167
X5.3445Y-4.1565
X5.3642Y-3.5728
X5.3642Y-3.8091
X5.3661Y-3.6634
X5.3661Y-3.7382
X5.3839Y-3.1791
X5.3839Y-3.2199
X5.3839Y-3.2607
X5.3839Y-3.3015
X5.3839Y-3.3422
X5.3839Y-3.383
X5.3839Y-3.4238
X5.3839Y-3.4646
X5.3839Y-3.9173
X5.3839Y-3.9609
X5.3839Y-4.0045
X5.3839Y-4.0481
X5.3839Y-4.0917
X5.3839Y-4.1353
X5.3839Y-4.1789
X5.3839Y-4.2224
X5.3937Y-3.5728
X5.3937Y-3.6634
X5.3937Y-3.7382
X5.3937Y-3.8091
X5.4213Y-3.6634
X5.4213Y-3.7382
X5.4232Y-3.5728
X5.4232Y-3.8091
X5.424Y-4.2224
X5.426Y-3.1791
X5.435Y-3.1398
X5.447Y-4.2618
X5.4488Y-3.6634
X5.4488Y-3.7382
X5.449Y-3.3722
X5.449Y-3.9234
X5.4528Y-3.5728
X5.4528Y-3.8091
X5.4641Y-4.2224
X5.4682Y-3.1791
X5.4757Y-3.1398
X5.4764Y-3.6634
X5.4764Y-3.7382
X5.4823Y-3.5728
X5.4823Y-3.8091
X5.4869Y-4.2618
X5.5039Y-3.6634
X5.5039Y-3.7382
X5.5041Y-3.4549
X5.5042Y-4.2224
X5.5104Y-3.1791
X5.5118Y-3.5728
X5.5118Y-3.8091
X5.5164Y-3.1398
X5.5268Y-4.2618
X5.5315Y-3.6634
X5.5315Y-3.7382
X5.5317Y-3.9785
X5.5444Y-4.2224
X5.5526Y-3.1791
X5.5571Y-3.1398
X5.5591Y-3.6634
X5.5591Y-3.7382
X5.5593Y-3.8683
X5.5593Y-4.0888
X5.5666Y-4.2618
X5.5845Y-4.2224
X5.5846Y-3.7382
X5.5866Y-3.6634
X5.5868Y-3.3722
X5.5868Y-3.51
X5.5948Y-3.1791
X5.5978Y-3.1398
X5.6065Y-4.2618
X5.6142Y-3.6575
X5.6142Y-3.7579
X5.6144Y-3.2344
X5.6144Y-4.1715
X5.6246Y-4.2224
X5.637Y-3.1791
X5.6384Y-3.1398
X5.6417Y-3.6575
X5.6417Y-3.7441
X5.6419Y-3.8132
X5.6419Y-3.951
X5.6464Y-4.2618
X5.6647Y-4.2224
X5.6693Y-3.563
X5.6693Y-3.6575
X5.6693Y-3.7441
X5.6695Y-4.0612
X5.6791Y-3.1398
X5.6791Y-3.1791
X5.6791Y-3.2185
X5.6791Y-3.2579
X5.6791Y-3.2972
X5.6791Y-3.3366
X5.6791Y-3.4252
X5.6862Y-4.2618
X5.6969Y-3.6575
X5.6969Y-3.7441
X5.7049Y-4.2224
X5.7185Y-3.3366
X5.7244Y-3.6575
X5.7244Y-3.7579
X5.7246Y-3.8683
X5.7246Y-4.1439
X5.7261Y-4.2618
X5.745Y-4.2224
X5.748Y-3.6122
X5.752Y-3.6575
X5.752Y-3.7441
X5.7522Y-3.9785
X5.7579Y-3.3366
X5.7579Y-3.4843
X5.766Y-4.2618
X5.7795Y-3.6575
X5.7795Y-3.7441
X5.7851Y-4.2224
X5.7874Y-3.1299
X5.7874Y-3.1594
X5.7874Y-3.189
X5.7874Y-3.2185
X5.7874Y-3.248
X5.7874Y-3.2776
X5.7874Y-3.3071
X5.8058Y-4.2618
X5.8071Y-3.6575
X5.8071Y-3.7421
X5.8073Y-4.0612
X5.8169Y-3.1299
X5.8169Y-3.3169
X5.8248Y-3.7618
X5.8253Y-4.2224
X5.8307Y-3.6594
X5.8348Y-3.8959
X5.8348Y-4.1715
X5.8366Y-3.3858
X5.8366Y-3.4154
X5.8366Y-3.4449
X5.8366Y-3.4744
X5.8366Y-3.5039
X5.8366Y-3.5335
X5.8366Y-3.563
X5.8366Y-3.5925
X5.8366Y-3.622
X5.8425Y-3.7795
X5.8457Y-4.2618
X5.8465Y-3.1299
X5.8465Y-3.1594
X5.8465Y-3.189
X5.8465Y-3.2185
X5.8465Y-3.248
X5.8465Y-3.2776
X5.8465Y-3.3071
X5.8465Y-3.3307
X5.8465Y-3.3563
X5.8583Y-3.8031
X5.8654Y-4.2224
X5.8819Y-3.687
X5.8819Y-3.7106
X5.8819Y-3.7343
X5.8856Y-4.2618
X5.8858Y-3.8031
X5.89Y-3.9785
X5.9055Y-3.687
X5.9055Y-3.7106
X5.9055Y-3.7343
X5.9055Y-4.2224
X5.9094Y-3.4134
X5.9094Y-3.437
X5.9094Y-3.4921
X5.9094Y-3.5472
X5.9094Y-3.5748
X5.9114Y-3.6122
X5.9114Y-3.8031
X5.9134Y-3.3898
X5.9175Y-4.0888
X5.9252Y-3.5925
X5.9254Y-4.2618
X5.9291Y-3.687
X5.9291Y-3.7106
X5.9291Y-3.7343
X5.937Y-3.4724
X5.937Y-3.5118
X5.937Y-3.8031
X5.9449Y-3.5728
X5.9451Y-3.8683
X5.9456Y-4.2224
X5.9528Y-3.4016
X5.9606Y-3.8031
X5.9646Y-3.1299
X5.9646Y-3.1594
X5.9646Y-3.189
X5.9646Y-3.2185
X5.9646Y-3.248
X5.9646Y-3.2776
X5.9646Y-3.3071
X5.9646Y-3.5531
X5.9653Y-4.2618
X5.9726Y-4.1715
X5.9764Y-3.7795
X5.9774Y-3.6594
X5.9843Y-3.4016
X5.9858Y-4.2224
X5.9921Y-3.7539
X5.9941Y-3.1299
X5.9941Y-3.3169
X5.9941Y-3.5433
X6.0002Y-3.951
X6.002Y-3.628
X6.003Y-3.6565
X6.0052Y-4.2618
X6.0138Y-3.4016
X6.0138Y-3.7441
X6.0236Y-3.1299
X6.0236Y-3.1594
X6.0236Y-3.189
X6.0236Y-3.2185
X6.0236Y-3.248
X6.0236Y-3.2776
X6.0236Y-3.3071
X6.0236Y-3.5433
X6.0259Y-4.2224
X6.0278Y-3.8132
X6.0278Y-4.0612
X6.0305Y-3.6565
X6.0335Y-3.622
X6.0374Y-3.7441
X6.0433Y-3.4016
X6.0451Y-4.2618
X6.0512Y-3.5374
X6.0531Y-3.3268
X6.0581Y-3.6565
X6.0591Y-3.4193
X6.063Y-3.622
X6.063Y-3.7441
X6.066Y-4.2224
X6.0669Y-3.5177
X6.0728Y-3.439
X6.0728Y-3.4646
X6.0728Y-3.4941
X6.0829Y-3.8959
X6.0829Y-4.1439
X6.0849Y-4.2618
X6.0866Y-3.3268
X6.0866Y-3.6565
X6.0866Y-3.7598
X6.0925Y-3.622
X6.1004Y-3.6004
X6.1061Y-4.2224
X6.1104Y-4.0061
X6.1181Y-3.3268
X6.1181Y-3.5807
X6.1191Y-3.7362
X6.1201Y-3.6654
X6.1248Y-4.2618
X6.1319Y-3.1398
X6.1319Y-3.1791
X6.1319Y-3.2185
X6.1319Y-3.2579
X6.1319Y-3.2972
X6.1417Y-3.4154
X6.1417Y-3.4449
X6.1417Y-3.5728
X6.1463Y-4.2224
X6.1476Y-3.6654
X6.1476Y-3.7362
X6.1496Y-3.3504
X6.1496Y-3.374
X6.1575Y-3.6142
X6.1614Y-3.4646
X6.1647Y-4.2618
X6.1656Y-3.8132
X6.1656Y-4.0888
X6.1713Y-3.4941
X6.1713Y-3.5236
X6.1713Y-3.5531
X6.1726Y-3.1398
X6.1741Y-3.1791
X6.1752Y-3.315
X6.1752Y-3.6654
X6.1752Y-3.7362
X6.1864Y-4.2224
X6.187Y-3.3937
X6.1931Y-3.2344
X6.1931Y-3.9234
X6.2008Y-3.6575
X6.2008Y-3.7451
X6.2045Y-4.2618
X6.2133Y-3.1398
X6.2146Y-3.4331
X6.2163Y-3.1791
X6.2207Y-4.1715
X6.2265Y-4.2224
X6.2283Y-3.5276
X6.2283Y-3.6575
X6.2283Y-3.7451
X6.2444Y-4.2618
X6.2482Y-3.3171
X6.2482Y-4.0061
X6.254Y-3.1398
X6.2559Y-3.6575
X6.2559Y-3.7451
X6.2584Y-3.1791
X6.2667Y-4.2224
X6.2677Y-3.4567
X6.2835Y-3.6654
X6.2835Y-3.7362
X6.2843Y-4.2618
X6.2946Y-3.1398
X6.2992Y-3.5728
X6.2992Y-3.8091
X6.3006Y-3.1791
X6.3033Y-3.3998
X6.3068Y-4.2224
X6.311Y-3.6654
X6.311Y-3.7362
X6.3241Y-4.2618
X6.3287Y-3.5728
X6.3287Y-3.8091
X6.3309Y-3.9234
X6.3353Y-3.1398
X6.3386Y-3.6654
X6.3386Y-3.7362
X6.3428Y-3.1791
X6.3469Y-4.2224
X6.3583Y-3.5728
X6.3583Y-3.8091
X6.364Y-4.2618
X6.3661Y-3.6654
X6.3661Y-3.7362
X6.376Y-3.1398
X6.378Y-4.0079
X6.385Y-3.1791
X6.387Y-4.2224
X6.3878Y-3.5728
X6.3878Y-3.8091
X6.3937Y-3.4528
X6.3937Y-3.6654
X6.3937Y-3.7362
X6.4173Y-3.5728
X6.4173Y-3.8091
X6.4213Y-3.6654
X6.4213Y-3.7362
X6.4272Y-3.1791
X6.4272Y-3.2199
X6.4272Y-3.2607
X6.4272Y-3.3015
X6.4272Y-3.3422
X6.4272Y-3.383
X6.4272Y-3.4238
X6.4272Y-3.4646
X6.4272Y-3.9173
X6.4272Y-3.9609
X6.4272Y-4.0045
X6.4272Y-4.0481
X6.4272Y-4.0917
X6.4272Y-4.1353
X6.4272Y-4.1789
X6.4272Y-4.2224
X6.4469Y-3.5728
X6.4469Y-3.8091
X6.4488Y-3.6654
X6.4488Y-3.7362
X6.4665Y-3.2204
X6.4665Y-3.2611
X6.4665Y-3.3018
X6.4665Y-3.3425
X6.4665Y-3.3832
X6.4665Y-3.4239
X6.4665Y-3.4646
X6.4665Y-3.9173
X6.4665Y-3.9572
X6.4665Y-3.9971
X6.4665Y-4.0369
X6.4665Y-4.0768
X6.4665Y-4.1167
X6.4665Y-4.1565
X6.4764Y-3.5728
X6.4764Y-3.6024
X6.4764Y-3.7795
X6.4764Y-3.8091
T0
M30
