%TF.GenerationSoftware,KiCad,Pcbnew,5.1.7*%
%TF.CreationDate,2020-12-15T20:32:55+00:00*%
%TF.ProjectId,QPL9065,51504c39-3036-4352-9e6b-696361645f70,rev?*%
%TF.SameCoordinates,Original*%
%TF.FileFunction,Soldermask,Bot*%
%TF.FilePolarity,Negative*%
%FSLAX46Y46*%
G04 Gerber Fmt 4.6, Leading zero omitted, Abs format (unit mm)*
G04 Created by KiCad (PCBNEW 5.1.7) date 2020-12-15 20:32:55*
%MOMM*%
%LPD*%
G01*
G04 APERTURE LIST*
%ADD10C,0.100000*%
%ADD11C,3.300000*%
G04 APERTURE END LIST*
D10*
G36*
X165000000Y-109000000D02*
G01*
X135000000Y-109000000D01*
X135000000Y-79000000D01*
X165000000Y-79000000D01*
X165000000Y-109000000D01*
G37*
X165000000Y-109000000D02*
X135000000Y-109000000D01*
X135000000Y-79000000D01*
X165000000Y-79000000D01*
X165000000Y-109000000D01*
%TO.C,J1*%
G36*
G01*
X135060000Y-97200000D02*
X140140000Y-97200000D01*
G75*
G02*
X140190000Y-97250000I0J-50000D01*
G01*
X140190000Y-98750000D01*
G75*
G02*
X140140000Y-98800000I-50000J0D01*
G01*
X135060000Y-98800000D01*
G75*
G02*
X135010000Y-98750000I0J50000D01*
G01*
X135010000Y-97250000D01*
G75*
G02*
X135060000Y-97200000I50000J0D01*
G01*
G37*
G36*
G01*
X135060000Y-88700000D02*
X140140000Y-88700000D01*
G75*
G02*
X140190000Y-88750000I0J-50000D01*
G01*
X140190000Y-90250000D01*
G75*
G02*
X140140000Y-90300000I-50000J0D01*
G01*
X135060000Y-90300000D01*
G75*
G02*
X135010000Y-90250000I0J50000D01*
G01*
X135010000Y-88750000D01*
G75*
G02*
X135060000Y-88700000I50000J0D01*
G01*
G37*
%TD*%
%TO.C,J2*%
G36*
G01*
X164940000Y-98800000D02*
X159860000Y-98800000D01*
G75*
G02*
X159810000Y-98750000I0J50000D01*
G01*
X159810000Y-97250000D01*
G75*
G02*
X159860000Y-97200000I50000J0D01*
G01*
X164940000Y-97200000D01*
G75*
G02*
X164990000Y-97250000I0J-50000D01*
G01*
X164990000Y-98750000D01*
G75*
G02*
X164940000Y-98800000I-50000J0D01*
G01*
G37*
G36*
G01*
X164940000Y-90300000D02*
X159860000Y-90300000D01*
G75*
G02*
X159810000Y-90250000I0J50000D01*
G01*
X159810000Y-88750000D01*
G75*
G02*
X159860000Y-88700000I50000J0D01*
G01*
X164940000Y-88700000D01*
G75*
G02*
X164990000Y-88750000I0J-50000D01*
G01*
X164990000Y-90250000D01*
G75*
G02*
X164940000Y-90300000I-50000J0D01*
G01*
G37*
%TD*%
%TO.C,J3*%
G36*
G01*
X146550000Y-79160000D02*
X146550000Y-84240000D01*
G75*
G02*
X146500000Y-84290000I-50000J0D01*
G01*
X145000000Y-84290000D01*
G75*
G02*
X144950000Y-84240000I0J50000D01*
G01*
X144950000Y-79160000D01*
G75*
G02*
X145000000Y-79110000I50000J0D01*
G01*
X146500000Y-79110000D01*
G75*
G02*
X146550000Y-79160000I0J-50000D01*
G01*
G37*
G36*
G01*
X155050000Y-79160000D02*
X155050000Y-84240000D01*
G75*
G02*
X155000000Y-84290000I-50000J0D01*
G01*
X153500000Y-84290000D01*
G75*
G02*
X153450000Y-84240000I0J50000D01*
G01*
X153450000Y-79160000D01*
G75*
G02*
X153500000Y-79110000I50000J0D01*
G01*
X155000000Y-79110000D01*
G75*
G02*
X155050000Y-79160000I0J-50000D01*
G01*
G37*
%TD*%
D11*
%TO.C,MH1*%
X139000000Y-105000000D03*
%TD*%
%TO.C,MH2*%
X139000000Y-83000000D03*
%TD*%
%TO.C,MH3*%
X161000000Y-105000000D03*
%TD*%
%TO.C,MH4*%
X161000000Y-83000000D03*
%TD*%
M02*
