%TF.GenerationSoftware,KiCad,Pcbnew,5.1.7*%
%TF.CreationDate,2020-12-15T20:32:55+00:00*%
%TF.ProjectId,QPL9065,51504c39-3036-4352-9e6b-696361645f70,rev?*%
%TF.SameCoordinates,Original*%
%TF.FileFunction,Paste,Top*%
%TF.FilePolarity,Positive*%
%FSLAX46Y46*%
G04 Gerber Fmt 4.6, Leading zero omitted, Abs format (unit mm)*
G04 Created by KiCad (PCBNEW 5.1.7) date 2020-12-15 20:32:55*
%MOMM*%
%LPD*%
G01*
G04 APERTURE LIST*
%ADD10R,5.080000X1.500000*%
%ADD11R,1.500000X5.080000*%
%ADD12R,0.530000X0.250000*%
%ADD13R,0.250000X0.530000*%
%ADD14R,0.700000X0.700000*%
G04 APERTURE END LIST*
%TO.C,C5*%
G36*
G01*
X154905000Y-89872500D02*
X154905000Y-89527500D01*
G75*
G02*
X155052500Y-89380000I147500J0D01*
G01*
X155347500Y-89380000D01*
G75*
G02*
X155495000Y-89527500I0J-147500D01*
G01*
X155495000Y-89872500D01*
G75*
G02*
X155347500Y-90020000I-147500J0D01*
G01*
X155052500Y-90020000D01*
G75*
G02*
X154905000Y-89872500I0J147500D01*
G01*
G37*
G36*
G01*
X155875000Y-89872500D02*
X155875000Y-89527500D01*
G75*
G02*
X156022500Y-89380000I147500J0D01*
G01*
X156317500Y-89380000D01*
G75*
G02*
X156465000Y-89527500I0J-147500D01*
G01*
X156465000Y-89872500D01*
G75*
G02*
X156317500Y-90020000I-147500J0D01*
G01*
X156022500Y-90020000D01*
G75*
G02*
X155875000Y-89872500I0J147500D01*
G01*
G37*
%TD*%
%TO.C,C6*%
G36*
G01*
X155875000Y-88872500D02*
X155875000Y-88527500D01*
G75*
G02*
X156022500Y-88380000I147500J0D01*
G01*
X156317500Y-88380000D01*
G75*
G02*
X156465000Y-88527500I0J-147500D01*
G01*
X156465000Y-88872500D01*
G75*
G02*
X156317500Y-89020000I-147500J0D01*
G01*
X156022500Y-89020000D01*
G75*
G02*
X155875000Y-88872500I0J147500D01*
G01*
G37*
G36*
G01*
X154905000Y-88872500D02*
X154905000Y-88527500D01*
G75*
G02*
X155052500Y-88380000I147500J0D01*
G01*
X155347500Y-88380000D01*
G75*
G02*
X155495000Y-88527500I0J-147500D01*
G01*
X155495000Y-88872500D01*
G75*
G02*
X155347500Y-89020000I-147500J0D01*
G01*
X155052500Y-89020000D01*
G75*
G02*
X154905000Y-88872500I0J147500D01*
G01*
G37*
%TD*%
%TO.C,C7*%
G36*
G01*
X149925000Y-88347500D02*
X149925000Y-88002500D01*
G75*
G02*
X150072500Y-87855000I147500J0D01*
G01*
X150367500Y-87855000D01*
G75*
G02*
X150515000Y-88002500I0J-147500D01*
G01*
X150515000Y-88347500D01*
G75*
G02*
X150367500Y-88495000I-147500J0D01*
G01*
X150072500Y-88495000D01*
G75*
G02*
X149925000Y-88347500I0J147500D01*
G01*
G37*
G36*
G01*
X148955000Y-88347500D02*
X148955000Y-88002500D01*
G75*
G02*
X149102500Y-87855000I147500J0D01*
G01*
X149397500Y-87855000D01*
G75*
G02*
X149545000Y-88002500I0J-147500D01*
G01*
X149545000Y-88347500D01*
G75*
G02*
X149397500Y-88495000I-147500J0D01*
G01*
X149102500Y-88495000D01*
G75*
G02*
X148955000Y-88347500I0J147500D01*
G01*
G37*
%TD*%
%TO.C,C8*%
G36*
G01*
X148955000Y-89422500D02*
X148955000Y-89077500D01*
G75*
G02*
X149102500Y-88930000I147500J0D01*
G01*
X149397500Y-88930000D01*
G75*
G02*
X149545000Y-89077500I0J-147500D01*
G01*
X149545000Y-89422500D01*
G75*
G02*
X149397500Y-89570000I-147500J0D01*
G01*
X149102500Y-89570000D01*
G75*
G02*
X148955000Y-89422500I0J147500D01*
G01*
G37*
G36*
G01*
X149925000Y-89422500D02*
X149925000Y-89077500D01*
G75*
G02*
X150072500Y-88930000I147500J0D01*
G01*
X150367500Y-88930000D01*
G75*
G02*
X150515000Y-89077500I0J-147500D01*
G01*
X150515000Y-89422500D01*
G75*
G02*
X150367500Y-89570000I-147500J0D01*
G01*
X150072500Y-89570000D01*
G75*
G02*
X149925000Y-89422500I0J147500D01*
G01*
G37*
%TD*%
%TO.C,C12*%
G36*
G01*
X153562500Y-85756250D02*
X153562500Y-85243750D01*
G75*
G02*
X153781250Y-85025000I218750J0D01*
G01*
X154218750Y-85025000D01*
G75*
G02*
X154437500Y-85243750I0J-218750D01*
G01*
X154437500Y-85756250D01*
G75*
G02*
X154218750Y-85975000I-218750J0D01*
G01*
X153781250Y-85975000D01*
G75*
G02*
X153562500Y-85756250I0J218750D01*
G01*
G37*
G36*
G01*
X155137500Y-85756250D02*
X155137500Y-85243750D01*
G75*
G02*
X155356250Y-85025000I218750J0D01*
G01*
X155793750Y-85025000D01*
G75*
G02*
X156012500Y-85243750I0J-218750D01*
G01*
X156012500Y-85756250D01*
G75*
G02*
X155793750Y-85975000I-218750J0D01*
G01*
X155356250Y-85975000D01*
G75*
G02*
X155137500Y-85756250I0J218750D01*
G01*
G37*
%TD*%
%TO.C,L2*%
G36*
G01*
X149422500Y-91570000D02*
X149077500Y-91570000D01*
G75*
G02*
X148930000Y-91422500I0J147500D01*
G01*
X148930000Y-91127500D01*
G75*
G02*
X149077500Y-90980000I147500J0D01*
G01*
X149422500Y-90980000D01*
G75*
G02*
X149570000Y-91127500I0J-147500D01*
G01*
X149570000Y-91422500D01*
G75*
G02*
X149422500Y-91570000I-147500J0D01*
G01*
G37*
G36*
G01*
X149422500Y-90600000D02*
X149077500Y-90600000D01*
G75*
G02*
X148930000Y-90452500I0J147500D01*
G01*
X148930000Y-90157500D01*
G75*
G02*
X149077500Y-90010000I147500J0D01*
G01*
X149422500Y-90010000D01*
G75*
G02*
X149570000Y-90157500I0J-147500D01*
G01*
X149570000Y-90452500D01*
G75*
G02*
X149422500Y-90600000I-147500J0D01*
G01*
G37*
%TD*%
%TO.C,L5*%
G36*
G01*
X151762500Y-91256250D02*
X151762500Y-90743750D01*
G75*
G02*
X151981250Y-90525000I218750J0D01*
G01*
X152418750Y-90525000D01*
G75*
G02*
X152637500Y-90743750I0J-218750D01*
G01*
X152637500Y-91256250D01*
G75*
G02*
X152418750Y-91475000I-218750J0D01*
G01*
X151981250Y-91475000D01*
G75*
G02*
X151762500Y-91256250I0J218750D01*
G01*
G37*
G36*
G01*
X153337500Y-91256250D02*
X153337500Y-90743750D01*
G75*
G02*
X153556250Y-90525000I218750J0D01*
G01*
X153993750Y-90525000D01*
G75*
G02*
X154212500Y-90743750I0J-218750D01*
G01*
X154212500Y-91256250D01*
G75*
G02*
X153993750Y-91475000I-218750J0D01*
G01*
X153556250Y-91475000D01*
G75*
G02*
X153337500Y-91256250I0J218750D01*
G01*
G37*
%TD*%
D10*
%TO.C,J1*%
X137600000Y-93750000D03*
X137600000Y-98000000D03*
X137600000Y-89500000D03*
%TD*%
%TO.C,J2*%
X162400000Y-98000000D03*
X162400000Y-89500000D03*
X162400000Y-93750000D03*
%TD*%
D11*
%TO.C,J3*%
X150000000Y-81700000D03*
X145750000Y-81700000D03*
X154250000Y-81700000D03*
%TD*%
%TO.C,R1*%
G36*
G01*
X155372500Y-87980000D02*
X155027500Y-87980000D01*
G75*
G02*
X154880000Y-87832500I0J147500D01*
G01*
X154880000Y-87537500D01*
G75*
G02*
X155027500Y-87390000I147500J0D01*
G01*
X155372500Y-87390000D01*
G75*
G02*
X155520000Y-87537500I0J-147500D01*
G01*
X155520000Y-87832500D01*
G75*
G02*
X155372500Y-87980000I-147500J0D01*
G01*
G37*
G36*
G01*
X155372500Y-87010000D02*
X155027500Y-87010000D01*
G75*
G02*
X154880000Y-86862500I0J147500D01*
G01*
X154880000Y-86567500D01*
G75*
G02*
X155027500Y-86420000I147500J0D01*
G01*
X155372500Y-86420000D01*
G75*
G02*
X155520000Y-86567500I0J-147500D01*
G01*
X155520000Y-86862500D01*
G75*
G02*
X155372500Y-87010000I-147500J0D01*
G01*
G37*
%TD*%
%TO.C,R2*%
G36*
G01*
X149077500Y-86840000D02*
X149422500Y-86840000D01*
G75*
G02*
X149570000Y-86987500I0J-147500D01*
G01*
X149570000Y-87282500D01*
G75*
G02*
X149422500Y-87430000I-147500J0D01*
G01*
X149077500Y-87430000D01*
G75*
G02*
X148930000Y-87282500I0J147500D01*
G01*
X148930000Y-86987500D01*
G75*
G02*
X149077500Y-86840000I147500J0D01*
G01*
G37*
G36*
G01*
X149077500Y-85870000D02*
X149422500Y-85870000D01*
G75*
G02*
X149570000Y-86017500I0J-147500D01*
G01*
X149570000Y-86312500D01*
G75*
G02*
X149422500Y-86460000I-147500J0D01*
G01*
X149077500Y-86460000D01*
G75*
G02*
X148930000Y-86312500I0J147500D01*
G01*
X148930000Y-86017500D01*
G75*
G02*
X149077500Y-85870000I147500J0D01*
G01*
G37*
%TD*%
%TO.C,C2*%
G36*
G01*
X157485000Y-93922500D02*
X157485000Y-93577500D01*
G75*
G02*
X157632500Y-93430000I147500J0D01*
G01*
X157927500Y-93430000D01*
G75*
G02*
X158075000Y-93577500I0J-147500D01*
G01*
X158075000Y-93922500D01*
G75*
G02*
X157927500Y-94070000I-147500J0D01*
G01*
X157632500Y-94070000D01*
G75*
G02*
X157485000Y-93922500I0J147500D01*
G01*
G37*
G36*
G01*
X158455000Y-93922500D02*
X158455000Y-93577500D01*
G75*
G02*
X158602500Y-93430000I147500J0D01*
G01*
X158897500Y-93430000D01*
G75*
G02*
X159045000Y-93577500I0J-147500D01*
G01*
X159045000Y-93922500D01*
G75*
G02*
X158897500Y-94070000I-147500J0D01*
G01*
X158602500Y-94070000D01*
G75*
G02*
X158455000Y-93922500I0J147500D01*
G01*
G37*
%TD*%
%TO.C,R9*%
G36*
G01*
X153935000Y-93577500D02*
X153935000Y-93922500D01*
G75*
G02*
X153787500Y-94070000I-147500J0D01*
G01*
X153492500Y-94070000D01*
G75*
G02*
X153345000Y-93922500I0J147500D01*
G01*
X153345000Y-93577500D01*
G75*
G02*
X153492500Y-93430000I147500J0D01*
G01*
X153787500Y-93430000D01*
G75*
G02*
X153935000Y-93577500I0J-147500D01*
G01*
G37*
G36*
G01*
X152965000Y-93577500D02*
X152965000Y-93922500D01*
G75*
G02*
X152817500Y-94070000I-147500J0D01*
G01*
X152522500Y-94070000D01*
G75*
G02*
X152375000Y-93922500I0J147500D01*
G01*
X152375000Y-93577500D01*
G75*
G02*
X152522500Y-93430000I147500J0D01*
G01*
X152817500Y-93430000D01*
G75*
G02*
X152965000Y-93577500I0J-147500D01*
G01*
G37*
%TD*%
%TO.C,R10*%
G36*
G01*
X154742500Y-94045000D02*
X154397500Y-94045000D01*
G75*
G02*
X154250000Y-93897500I0J147500D01*
G01*
X154250000Y-93602500D01*
G75*
G02*
X154397500Y-93455000I147500J0D01*
G01*
X154742500Y-93455000D01*
G75*
G02*
X154890000Y-93602500I0J-147500D01*
G01*
X154890000Y-93897500D01*
G75*
G02*
X154742500Y-94045000I-147500J0D01*
G01*
G37*
G36*
G01*
X154742500Y-95015000D02*
X154397500Y-95015000D01*
G75*
G02*
X154250000Y-94867500I0J147500D01*
G01*
X154250000Y-94572500D01*
G75*
G02*
X154397500Y-94425000I147500J0D01*
G01*
X154742500Y-94425000D01*
G75*
G02*
X154890000Y-94572500I0J-147500D01*
G01*
X154890000Y-94867500D01*
G75*
G02*
X154742500Y-95015000I-147500J0D01*
G01*
G37*
%TD*%
%TO.C,C1*%
G36*
G01*
X142802500Y-94045000D02*
X142457500Y-94045000D01*
G75*
G02*
X142310000Y-93897500I0J147500D01*
G01*
X142310000Y-93602500D01*
G75*
G02*
X142457500Y-93455000I147500J0D01*
G01*
X142802500Y-93455000D01*
G75*
G02*
X142950000Y-93602500I0J-147500D01*
G01*
X142950000Y-93897500D01*
G75*
G02*
X142802500Y-94045000I-147500J0D01*
G01*
G37*
G36*
G01*
X142802500Y-95015000D02*
X142457500Y-95015000D01*
G75*
G02*
X142310000Y-94867500I0J147500D01*
G01*
X142310000Y-94572500D01*
G75*
G02*
X142457500Y-94425000I147500J0D01*
G01*
X142802500Y-94425000D01*
G75*
G02*
X142950000Y-94572500I0J-147500D01*
G01*
X142950000Y-94867500D01*
G75*
G02*
X142802500Y-95015000I-147500J0D01*
G01*
G37*
%TD*%
%TO.C,C9*%
G36*
G01*
X146055000Y-93922500D02*
X146055000Y-93577500D01*
G75*
G02*
X146202500Y-93430000I147500J0D01*
G01*
X146497500Y-93430000D01*
G75*
G02*
X146645000Y-93577500I0J-147500D01*
G01*
X146645000Y-93922500D01*
G75*
G02*
X146497500Y-94070000I-147500J0D01*
G01*
X146202500Y-94070000D01*
G75*
G02*
X146055000Y-93922500I0J147500D01*
G01*
G37*
G36*
G01*
X147025000Y-93922500D02*
X147025000Y-93577500D01*
G75*
G02*
X147172500Y-93430000I147500J0D01*
G01*
X147467500Y-93430000D01*
G75*
G02*
X147615000Y-93577500I0J-147500D01*
G01*
X147615000Y-93922500D01*
G75*
G02*
X147467500Y-94070000I-147500J0D01*
G01*
X147172500Y-94070000D01*
G75*
G02*
X147025000Y-93922500I0J147500D01*
G01*
G37*
%TD*%
%TO.C,L1*%
G36*
G01*
X144810000Y-93577500D02*
X144810000Y-93922500D01*
G75*
G02*
X144662500Y-94070000I-147500J0D01*
G01*
X144367500Y-94070000D01*
G75*
G02*
X144220000Y-93922500I0J147500D01*
G01*
X144220000Y-93577500D01*
G75*
G02*
X144367500Y-93430000I147500J0D01*
G01*
X144662500Y-93430000D01*
G75*
G02*
X144810000Y-93577500I0J-147500D01*
G01*
G37*
G36*
G01*
X143840000Y-93577500D02*
X143840000Y-93922500D01*
G75*
G02*
X143692500Y-94070000I-147500J0D01*
G01*
X143397500Y-94070000D01*
G75*
G02*
X143250000Y-93922500I0J147500D01*
G01*
X143250000Y-93577500D01*
G75*
G02*
X143397500Y-93430000I147500J0D01*
G01*
X143692500Y-93430000D01*
G75*
G02*
X143840000Y-93577500I0J-147500D01*
G01*
G37*
%TD*%
%TO.C,L4*%
G36*
G01*
X145257500Y-94425000D02*
X145602500Y-94425000D01*
G75*
G02*
X145750000Y-94572500I0J-147500D01*
G01*
X145750000Y-94867500D01*
G75*
G02*
X145602500Y-95015000I-147500J0D01*
G01*
X145257500Y-95015000D01*
G75*
G02*
X145110000Y-94867500I0J147500D01*
G01*
X145110000Y-94572500D01*
G75*
G02*
X145257500Y-94425000I147500J0D01*
G01*
G37*
G36*
G01*
X145257500Y-93455000D02*
X145602500Y-93455000D01*
G75*
G02*
X145750000Y-93602500I0J-147500D01*
G01*
X145750000Y-93897500D01*
G75*
G02*
X145602500Y-94045000I-147500J0D01*
G01*
X145257500Y-94045000D01*
G75*
G02*
X145110000Y-93897500I0J147500D01*
G01*
X145110000Y-93602500D01*
G75*
G02*
X145257500Y-93455000I147500J0D01*
G01*
G37*
%TD*%
D12*
%TO.C,U1*%
X148340000Y-93250000D03*
X148340000Y-93750000D03*
X148340000Y-94250000D03*
X148340000Y-94750000D03*
D13*
X149250000Y-95690000D03*
X149750000Y-95690000D03*
X150250000Y-95690000D03*
X150750000Y-95690000D03*
D12*
X151660000Y-94750000D03*
X151660000Y-94250000D03*
X151660000Y-93750000D03*
X151660000Y-93250000D03*
D13*
X150750000Y-92310000D03*
X150250000Y-92310000D03*
X149750000Y-92310000D03*
X149250000Y-92310000D03*
D14*
X150437500Y-94437500D03*
X149562500Y-94437500D03*
X149562500Y-93562500D03*
X150437500Y-93562500D03*
%TD*%
M02*
