%TF.GenerationSoftware,KiCad,Pcbnew,5.1.7*%
%TF.CreationDate,2020-12-15T08:17:55+00:00*%
%TF.ProjectId,QPL9065,51504c39-3036-4352-9e6b-696361645f70,rev?*%
%TF.SameCoordinates,Original*%
%TF.FileFunction,Copper,L1,Top*%
%TF.FilePolarity,Positive*%
%FSLAX46Y46*%
G04 Gerber Fmt 4.6, Leading zero omitted, Abs format (unit mm)*
G04 Created by KiCad (PCBNEW 5.1.7) date 2020-12-15 08:17:55*
%MOMM*%
%LPD*%
G01*
G04 APERTURE LIST*
%TA.AperFunction,ComponentPad*%
%ADD10C,0.600000*%
%TD*%
%TA.AperFunction,SMDPad,CuDef*%
%ADD11R,1.800000X1.800000*%
%TD*%
%TA.AperFunction,SMDPad,CuDef*%
%ADD12O,0.300000X0.750000*%
%TD*%
%TA.AperFunction,SMDPad,CuDef*%
%ADD13O,0.750000X0.300000*%
%TD*%
%TA.AperFunction,SMDPad,CuDef*%
%ADD14R,5.080000X1.500000*%
%TD*%
%TA.AperFunction,SMDPad,CuDef*%
%ADD15R,1.500000X5.080000*%
%TD*%
%TA.AperFunction,ViaPad*%
%ADD16C,0.500000*%
%TD*%
%TA.AperFunction,Conductor*%
%ADD17C,0.250000*%
%TD*%
%TA.AperFunction,Conductor*%
%ADD18C,1.500000*%
%TD*%
%TA.AperFunction,Conductor*%
%ADD19C,0.185000*%
%TD*%
%TA.AperFunction,Conductor*%
%ADD20C,0.508000*%
%TD*%
%TA.AperFunction,Conductor*%
%ADD21C,0.500000*%
%TD*%
%TA.AperFunction,Conductor*%
%ADD22C,0.600000*%
%TD*%
%TA.AperFunction,Conductor*%
%ADD23C,0.254000*%
%TD*%
%TA.AperFunction,Conductor*%
%ADD24C,0.100000*%
%TD*%
%TA.AperFunction,Conductor*%
%ADD25C,0.025400*%
%TD*%
G04 APERTURE END LIST*
D10*
%TO.P,U1,17*%
%TO.N,GND*%
X149500000Y-94500000D03*
X150500000Y-94500000D03*
X150500000Y-93500000D03*
X149500000Y-93500000D03*
X150000000Y-94000000D03*
D11*
X150000000Y-94000000D03*
D12*
%TO.P,U1,16*%
%TO.N,Net-(L2-Pad1)*%
X149250000Y-92525000D03*
%TO.P,U1,15*%
%TO.N,GND*%
X149750000Y-92525000D03*
%TO.P,U1,14*%
X150250000Y-92525000D03*
%TO.P,U1,13*%
%TO.N,Net-(L5-Pad1)*%
X150750000Y-92525000D03*
D13*
%TO.P,U1,12*%
%TO.N,GND*%
X151475000Y-93250000D03*
%TO.P,U1,11*%
%TO.N,Net-(R9-Pad2)*%
X151475000Y-93750000D03*
%TO.P,U1,10*%
%TO.N,GND*%
X151475000Y-94250000D03*
%TO.P,U1,9*%
X151475000Y-94750000D03*
D12*
%TO.P,U1,8*%
X150750000Y-95475000D03*
%TO.P,U1,7*%
X150250000Y-95475000D03*
%TO.P,U1,6*%
X149750000Y-95475000D03*
%TO.P,U1,5*%
X149250000Y-95475000D03*
D13*
%TO.P,U1,4*%
X148525000Y-94750000D03*
%TO.P,U1,3*%
X148525000Y-94250000D03*
%TO.P,U1,2*%
%TO.N,Net-(C9-Pad2)*%
X148525000Y-93750000D03*
%TO.P,U1,1*%
%TO.N,GND*%
X148525000Y-93250000D03*
%TD*%
%TO.P,C5,1*%
%TO.N,Net-(C5-Pad1)*%
%TA.AperFunction,SMDPad,CuDef*%
G36*
G01*
X154755000Y-89972500D02*
X154755000Y-89627500D01*
G75*
G02*
X154902500Y-89480000I147500J0D01*
G01*
X155197500Y-89480000D01*
G75*
G02*
X155345000Y-89627500I0J-147500D01*
G01*
X155345000Y-89972500D01*
G75*
G02*
X155197500Y-90120000I-147500J0D01*
G01*
X154902500Y-90120000D01*
G75*
G02*
X154755000Y-89972500I0J147500D01*
G01*
G37*
%TD.AperFunction*%
%TO.P,C5,2*%
%TO.N,GND*%
%TA.AperFunction,SMDPad,CuDef*%
G36*
G01*
X155725000Y-89972500D02*
X155725000Y-89627500D01*
G75*
G02*
X155872500Y-89480000I147500J0D01*
G01*
X156167500Y-89480000D01*
G75*
G02*
X156315000Y-89627500I0J-147500D01*
G01*
X156315000Y-89972500D01*
G75*
G02*
X156167500Y-90120000I-147500J0D01*
G01*
X155872500Y-90120000D01*
G75*
G02*
X155725000Y-89972500I0J147500D01*
G01*
G37*
%TD.AperFunction*%
%TD*%
%TO.P,C6,2*%
%TO.N,GND*%
%TA.AperFunction,SMDPad,CuDef*%
G36*
G01*
X156325000Y-88972500D02*
X156325000Y-88627500D01*
G75*
G02*
X156472500Y-88480000I147500J0D01*
G01*
X156767500Y-88480000D01*
G75*
G02*
X156915000Y-88627500I0J-147500D01*
G01*
X156915000Y-88972500D01*
G75*
G02*
X156767500Y-89120000I-147500J0D01*
G01*
X156472500Y-89120000D01*
G75*
G02*
X156325000Y-88972500I0J147500D01*
G01*
G37*
%TD.AperFunction*%
%TO.P,C6,1*%
%TO.N,Net-(C5-Pad1)*%
%TA.AperFunction,SMDPad,CuDef*%
G36*
G01*
X155355000Y-88972500D02*
X155355000Y-88627500D01*
G75*
G02*
X155502500Y-88480000I147500J0D01*
G01*
X155797500Y-88480000D01*
G75*
G02*
X155945000Y-88627500I0J-147500D01*
G01*
X155945000Y-88972500D01*
G75*
G02*
X155797500Y-89120000I-147500J0D01*
G01*
X155502500Y-89120000D01*
G75*
G02*
X155355000Y-88972500I0J147500D01*
G01*
G37*
%TD.AperFunction*%
%TD*%
%TO.P,C7,2*%
%TO.N,GND*%
%TA.AperFunction,SMDPad,CuDef*%
G36*
G01*
X148775000Y-88322500D02*
X148775000Y-87977500D01*
G75*
G02*
X148922500Y-87830000I147500J0D01*
G01*
X149217500Y-87830000D01*
G75*
G02*
X149365000Y-87977500I0J-147500D01*
G01*
X149365000Y-88322500D01*
G75*
G02*
X149217500Y-88470000I-147500J0D01*
G01*
X148922500Y-88470000D01*
G75*
G02*
X148775000Y-88322500I0J147500D01*
G01*
G37*
%TD.AperFunction*%
%TO.P,C7,1*%
%TO.N,Net-(C7-Pad1)*%
%TA.AperFunction,SMDPad,CuDef*%
G36*
G01*
X147805000Y-88322500D02*
X147805000Y-87977500D01*
G75*
G02*
X147952500Y-87830000I147500J0D01*
G01*
X148247500Y-87830000D01*
G75*
G02*
X148395000Y-87977500I0J-147500D01*
G01*
X148395000Y-88322500D01*
G75*
G02*
X148247500Y-88470000I-147500J0D01*
G01*
X147952500Y-88470000D01*
G75*
G02*
X147805000Y-88322500I0J147500D01*
G01*
G37*
%TD.AperFunction*%
%TD*%
%TO.P,C8,1*%
%TO.N,Net-(C7-Pad1)*%
%TA.AperFunction,SMDPad,CuDef*%
G36*
G01*
X147805000Y-89422500D02*
X147805000Y-89077500D01*
G75*
G02*
X147952500Y-88930000I147500J0D01*
G01*
X148247500Y-88930000D01*
G75*
G02*
X148395000Y-89077500I0J-147500D01*
G01*
X148395000Y-89422500D01*
G75*
G02*
X148247500Y-89570000I-147500J0D01*
G01*
X147952500Y-89570000D01*
G75*
G02*
X147805000Y-89422500I0J147500D01*
G01*
G37*
%TD.AperFunction*%
%TO.P,C8,2*%
%TO.N,GND*%
%TA.AperFunction,SMDPad,CuDef*%
G36*
G01*
X148775000Y-89422500D02*
X148775000Y-89077500D01*
G75*
G02*
X148922500Y-88930000I147500J0D01*
G01*
X149217500Y-88930000D01*
G75*
G02*
X149365000Y-89077500I0J-147500D01*
G01*
X149365000Y-89422500D01*
G75*
G02*
X149217500Y-89570000I-147500J0D01*
G01*
X148922500Y-89570000D01*
G75*
G02*
X148775000Y-89422500I0J147500D01*
G01*
G37*
%TD.AperFunction*%
%TD*%
%TO.P,C12,1*%
%TO.N,VDC*%
%TA.AperFunction,SMDPad,CuDef*%
G36*
G01*
X152287500Y-85956250D02*
X152287500Y-85443750D01*
G75*
G02*
X152506250Y-85225000I218750J0D01*
G01*
X152943750Y-85225000D01*
G75*
G02*
X153162500Y-85443750I0J-218750D01*
G01*
X153162500Y-85956250D01*
G75*
G02*
X152943750Y-86175000I-218750J0D01*
G01*
X152506250Y-86175000D01*
G75*
G02*
X152287500Y-85956250I0J218750D01*
G01*
G37*
%TD.AperFunction*%
%TO.P,C12,2*%
%TO.N,GND*%
%TA.AperFunction,SMDPad,CuDef*%
G36*
G01*
X153862500Y-85956250D02*
X153862500Y-85443750D01*
G75*
G02*
X154081250Y-85225000I218750J0D01*
G01*
X154518750Y-85225000D01*
G75*
G02*
X154737500Y-85443750I0J-218750D01*
G01*
X154737500Y-85956250D01*
G75*
G02*
X154518750Y-86175000I-218750J0D01*
G01*
X154081250Y-86175000D01*
G75*
G02*
X153862500Y-85956250I0J218750D01*
G01*
G37*
%TD.AperFunction*%
%TD*%
%TO.P,L2,1*%
%TO.N,Net-(L2-Pad1)*%
%TA.AperFunction,SMDPad,CuDef*%
G36*
G01*
X148272500Y-91595000D02*
X147927500Y-91595000D01*
G75*
G02*
X147780000Y-91447500I0J147500D01*
G01*
X147780000Y-91152500D01*
G75*
G02*
X147927500Y-91005000I147500J0D01*
G01*
X148272500Y-91005000D01*
G75*
G02*
X148420000Y-91152500I0J-147500D01*
G01*
X148420000Y-91447500D01*
G75*
G02*
X148272500Y-91595000I-147500J0D01*
G01*
G37*
%TD.AperFunction*%
%TO.P,L2,2*%
%TO.N,Net-(C7-Pad1)*%
%TA.AperFunction,SMDPad,CuDef*%
G36*
G01*
X148272500Y-90625000D02*
X147927500Y-90625000D01*
G75*
G02*
X147780000Y-90477500I0J147500D01*
G01*
X147780000Y-90182500D01*
G75*
G02*
X147927500Y-90035000I147500J0D01*
G01*
X148272500Y-90035000D01*
G75*
G02*
X148420000Y-90182500I0J-147500D01*
G01*
X148420000Y-90477500D01*
G75*
G02*
X148272500Y-90625000I-147500J0D01*
G01*
G37*
%TD.AperFunction*%
%TD*%
%TO.P,L5,1*%
%TO.N,Net-(L5-Pad1)*%
%TA.AperFunction,SMDPad,CuDef*%
G36*
G01*
X152171837Y-91440556D02*
X151809444Y-91078163D01*
G75*
G02*
X151809444Y-90768803I154680J154680D01*
G01*
X152118803Y-90459444D01*
G75*
G02*
X152428163Y-90459444I154680J-154680D01*
G01*
X152790556Y-90821837D01*
G75*
G02*
X152790556Y-91131197I-154680J-154680D01*
G01*
X152481197Y-91440556D01*
G75*
G02*
X152171837Y-91440556I-154680J154680D01*
G01*
G37*
%TD.AperFunction*%
%TO.P,L5,2*%
%TO.N,Net-(C5-Pad1)*%
%TA.AperFunction,SMDPad,CuDef*%
G36*
G01*
X153285531Y-90326862D02*
X152923138Y-89964469D01*
G75*
G02*
X152923138Y-89655109I154680J154680D01*
G01*
X153232497Y-89345750D01*
G75*
G02*
X153541857Y-89345750I154680J-154680D01*
G01*
X153904250Y-89708143D01*
G75*
G02*
X153904250Y-90017503I-154680J-154680D01*
G01*
X153594891Y-90326862D01*
G75*
G02*
X153285531Y-90326862I-154680J154680D01*
G01*
G37*
%TD.AperFunction*%
%TD*%
D14*
%TO.P,J1,1*%
%TO.N,/RFin*%
X137600000Y-93750000D03*
%TO.P,J1,2*%
%TO.N,GND*%
X137600000Y-98000000D03*
X137600000Y-89500000D03*
%TD*%
%TO.P,J2,2*%
%TO.N,GND*%
X162400000Y-98000000D03*
X162400000Y-89500000D03*
%TO.P,J2,1*%
%TO.N,/RFout*%
X162400000Y-93750000D03*
%TD*%
D15*
%TO.P,J3,1*%
%TO.N,VDC*%
X150000000Y-81700000D03*
%TO.P,J3,2*%
%TO.N,GND*%
X145750000Y-81700000D03*
X154250000Y-81700000D03*
%TD*%
%TO.P,R1,1*%
%TO.N,Net-(C5-Pad1)*%
%TA.AperFunction,SMDPad,CuDef*%
G36*
G01*
X155173519Y-87929567D02*
X154929567Y-88173519D01*
G75*
G02*
X154720971Y-88173519I-104298J104298D01*
G01*
X154512375Y-87964923D01*
G75*
G02*
X154512375Y-87756327I104298J104298D01*
G01*
X154756327Y-87512375D01*
G75*
G02*
X154964923Y-87512375I104298J-104298D01*
G01*
X155173519Y-87720971D01*
G75*
G02*
X155173519Y-87929567I-104298J-104298D01*
G01*
G37*
%TD.AperFunction*%
%TO.P,R1,2*%
%TO.N,VDC*%
%TA.AperFunction,SMDPad,CuDef*%
G36*
G01*
X154487625Y-87243673D02*
X154243673Y-87487625D01*
G75*
G02*
X154035077Y-87487625I-104298J104298D01*
G01*
X153826481Y-87279029D01*
G75*
G02*
X153826481Y-87070433I104298J104298D01*
G01*
X154070433Y-86826481D01*
G75*
G02*
X154279029Y-86826481I104298J-104298D01*
G01*
X154487625Y-87035077D01*
G75*
G02*
X154487625Y-87243673I-104298J-104298D01*
G01*
G37*
%TD.AperFunction*%
%TD*%
%TO.P,R2,2*%
%TO.N,Net-(C7-Pad1)*%
%TA.AperFunction,SMDPad,CuDef*%
G36*
G01*
X148200726Y-86305322D02*
X148444678Y-86549274D01*
G75*
G02*
X148444678Y-86757870I-104298J-104298D01*
G01*
X148236082Y-86966466D01*
G75*
G02*
X148027486Y-86966466I-104298J104298D01*
G01*
X147783534Y-86722514D01*
G75*
G02*
X147783534Y-86513918I104298J104298D01*
G01*
X147992130Y-86305322D01*
G75*
G02*
X148200726Y-86305322I104298J-104298D01*
G01*
G37*
%TD.AperFunction*%
%TO.P,R2,1*%
%TO.N,VDC*%
%TA.AperFunction,SMDPad,CuDef*%
G36*
G01*
X148886620Y-85619428D02*
X149130572Y-85863380D01*
G75*
G02*
X149130572Y-86071976I-104298J-104298D01*
G01*
X148921976Y-86280572D01*
G75*
G02*
X148713380Y-86280572I-104298J104298D01*
G01*
X148469428Y-86036620D01*
G75*
G02*
X148469428Y-85828024I104298J104298D01*
G01*
X148678024Y-85619428D01*
G75*
G02*
X148886620Y-85619428I104298J-104298D01*
G01*
G37*
%TD.AperFunction*%
%TD*%
%TO.P,C2,1*%
%TO.N,Net-(C2-Pad1)*%
%TA.AperFunction,SMDPad,CuDef*%
G36*
G01*
X157485000Y-93922500D02*
X157485000Y-93577500D01*
G75*
G02*
X157632500Y-93430000I147500J0D01*
G01*
X157927500Y-93430000D01*
G75*
G02*
X158075000Y-93577500I0J-147500D01*
G01*
X158075000Y-93922500D01*
G75*
G02*
X157927500Y-94070000I-147500J0D01*
G01*
X157632500Y-94070000D01*
G75*
G02*
X157485000Y-93922500I0J147500D01*
G01*
G37*
%TD.AperFunction*%
%TO.P,C2,2*%
%TO.N,/RFout*%
%TA.AperFunction,SMDPad,CuDef*%
G36*
G01*
X158455000Y-93922500D02*
X158455000Y-93577500D01*
G75*
G02*
X158602500Y-93430000I147500J0D01*
G01*
X158897500Y-93430000D01*
G75*
G02*
X159045000Y-93577500I0J-147500D01*
G01*
X159045000Y-93922500D01*
G75*
G02*
X158897500Y-94070000I-147500J0D01*
G01*
X158602500Y-94070000D01*
G75*
G02*
X158455000Y-93922500I0J147500D01*
G01*
G37*
%TD.AperFunction*%
%TD*%
%TO.P,R9,1*%
%TO.N,Net-(C2-Pad1)*%
%TA.AperFunction,SMDPad,CuDef*%
G36*
G01*
X153935000Y-93577500D02*
X153935000Y-93922500D01*
G75*
G02*
X153787500Y-94070000I-147500J0D01*
G01*
X153492500Y-94070000D01*
G75*
G02*
X153345000Y-93922500I0J147500D01*
G01*
X153345000Y-93577500D01*
G75*
G02*
X153492500Y-93430000I147500J0D01*
G01*
X153787500Y-93430000D01*
G75*
G02*
X153935000Y-93577500I0J-147500D01*
G01*
G37*
%TD.AperFunction*%
%TO.P,R9,2*%
%TO.N,Net-(R9-Pad2)*%
%TA.AperFunction,SMDPad,CuDef*%
G36*
G01*
X152965000Y-93577500D02*
X152965000Y-93922500D01*
G75*
G02*
X152817500Y-94070000I-147500J0D01*
G01*
X152522500Y-94070000D01*
G75*
G02*
X152375000Y-93922500I0J147500D01*
G01*
X152375000Y-93577500D01*
G75*
G02*
X152522500Y-93430000I147500J0D01*
G01*
X152817500Y-93430000D01*
G75*
G02*
X152965000Y-93577500I0J-147500D01*
G01*
G37*
%TD.AperFunction*%
%TD*%
%TO.P,R10,2*%
%TO.N,Net-(C2-Pad1)*%
%TA.AperFunction,SMDPad,CuDef*%
G36*
G01*
X154742500Y-94045000D02*
X154397500Y-94045000D01*
G75*
G02*
X154250000Y-93897500I0J147500D01*
G01*
X154250000Y-93602500D01*
G75*
G02*
X154397500Y-93455000I147500J0D01*
G01*
X154742500Y-93455000D01*
G75*
G02*
X154890000Y-93602500I0J-147500D01*
G01*
X154890000Y-93897500D01*
G75*
G02*
X154742500Y-94045000I-147500J0D01*
G01*
G37*
%TD.AperFunction*%
%TO.P,R10,1*%
%TO.N,GND*%
%TA.AperFunction,SMDPad,CuDef*%
G36*
G01*
X154742500Y-95015000D02*
X154397500Y-95015000D01*
G75*
G02*
X154250000Y-94867500I0J147500D01*
G01*
X154250000Y-94572500D01*
G75*
G02*
X154397500Y-94425000I147500J0D01*
G01*
X154742500Y-94425000D01*
G75*
G02*
X154890000Y-94572500I0J-147500D01*
G01*
X154890000Y-94867500D01*
G75*
G02*
X154742500Y-95015000I-147500J0D01*
G01*
G37*
%TD.AperFunction*%
%TD*%
%TO.P,C1,2*%
%TO.N,/RFin*%
%TA.AperFunction,SMDPad,CuDef*%
G36*
G01*
X142802500Y-94045000D02*
X142457500Y-94045000D01*
G75*
G02*
X142310000Y-93897500I0J147500D01*
G01*
X142310000Y-93602500D01*
G75*
G02*
X142457500Y-93455000I147500J0D01*
G01*
X142802500Y-93455000D01*
G75*
G02*
X142950000Y-93602500I0J-147500D01*
G01*
X142950000Y-93897500D01*
G75*
G02*
X142802500Y-94045000I-147500J0D01*
G01*
G37*
%TD.AperFunction*%
%TO.P,C1,1*%
%TO.N,GND*%
%TA.AperFunction,SMDPad,CuDef*%
G36*
G01*
X142802500Y-95015000D02*
X142457500Y-95015000D01*
G75*
G02*
X142310000Y-94867500I0J147500D01*
G01*
X142310000Y-94572500D01*
G75*
G02*
X142457500Y-94425000I147500J0D01*
G01*
X142802500Y-94425000D01*
G75*
G02*
X142950000Y-94572500I0J-147500D01*
G01*
X142950000Y-94867500D01*
G75*
G02*
X142802500Y-95015000I-147500J0D01*
G01*
G37*
%TD.AperFunction*%
%TD*%
%TO.P,C9,1*%
%TO.N,Net-(C9-Pad1)*%
%TA.AperFunction,SMDPad,CuDef*%
G36*
G01*
X146055000Y-93922500D02*
X146055000Y-93577500D01*
G75*
G02*
X146202500Y-93430000I147500J0D01*
G01*
X146497500Y-93430000D01*
G75*
G02*
X146645000Y-93577500I0J-147500D01*
G01*
X146645000Y-93922500D01*
G75*
G02*
X146497500Y-94070000I-147500J0D01*
G01*
X146202500Y-94070000D01*
G75*
G02*
X146055000Y-93922500I0J147500D01*
G01*
G37*
%TD.AperFunction*%
%TO.P,C9,2*%
%TO.N,Net-(C9-Pad2)*%
%TA.AperFunction,SMDPad,CuDef*%
G36*
G01*
X147025000Y-93922500D02*
X147025000Y-93577500D01*
G75*
G02*
X147172500Y-93430000I147500J0D01*
G01*
X147467500Y-93430000D01*
G75*
G02*
X147615000Y-93577500I0J-147500D01*
G01*
X147615000Y-93922500D01*
G75*
G02*
X147467500Y-94070000I-147500J0D01*
G01*
X147172500Y-94070000D01*
G75*
G02*
X147025000Y-93922500I0J147500D01*
G01*
G37*
%TD.AperFunction*%
%TD*%
%TO.P,L1,1*%
%TO.N,Net-(C9-Pad1)*%
%TA.AperFunction,SMDPad,CuDef*%
G36*
G01*
X144810000Y-93577500D02*
X144810000Y-93922500D01*
G75*
G02*
X144662500Y-94070000I-147500J0D01*
G01*
X144367500Y-94070000D01*
G75*
G02*
X144220000Y-93922500I0J147500D01*
G01*
X144220000Y-93577500D01*
G75*
G02*
X144367500Y-93430000I147500J0D01*
G01*
X144662500Y-93430000D01*
G75*
G02*
X144810000Y-93577500I0J-147500D01*
G01*
G37*
%TD.AperFunction*%
%TO.P,L1,2*%
%TO.N,/RFin*%
%TA.AperFunction,SMDPad,CuDef*%
G36*
G01*
X143840000Y-93577500D02*
X143840000Y-93922500D01*
G75*
G02*
X143692500Y-94070000I-147500J0D01*
G01*
X143397500Y-94070000D01*
G75*
G02*
X143250000Y-93922500I0J147500D01*
G01*
X143250000Y-93577500D01*
G75*
G02*
X143397500Y-93430000I147500J0D01*
G01*
X143692500Y-93430000D01*
G75*
G02*
X143840000Y-93577500I0J-147500D01*
G01*
G37*
%TD.AperFunction*%
%TD*%
%TO.P,L4,2*%
%TO.N,GND*%
%TA.AperFunction,SMDPad,CuDef*%
G36*
G01*
X145257500Y-94425000D02*
X145602500Y-94425000D01*
G75*
G02*
X145750000Y-94572500I0J-147500D01*
G01*
X145750000Y-94867500D01*
G75*
G02*
X145602500Y-95015000I-147500J0D01*
G01*
X145257500Y-95015000D01*
G75*
G02*
X145110000Y-94867500I0J147500D01*
G01*
X145110000Y-94572500D01*
G75*
G02*
X145257500Y-94425000I147500J0D01*
G01*
G37*
%TD.AperFunction*%
%TO.P,L4,1*%
%TO.N,Net-(C9-Pad1)*%
%TA.AperFunction,SMDPad,CuDef*%
G36*
G01*
X145257500Y-93455000D02*
X145602500Y-93455000D01*
G75*
G02*
X145750000Y-93602500I0J-147500D01*
G01*
X145750000Y-93897500D01*
G75*
G02*
X145602500Y-94045000I-147500J0D01*
G01*
X145257500Y-94045000D01*
G75*
G02*
X145110000Y-93897500I0J147500D01*
G01*
X145110000Y-93602500D01*
G75*
G02*
X145257500Y-93455000I147500J0D01*
G01*
G37*
%TD.AperFunction*%
%TD*%
D16*
%TO.N,GND*%
X152250000Y-84250000D03*
X151750000Y-96000000D03*
X151250000Y-96500000D03*
X150500000Y-96500000D03*
X149500000Y-96500000D03*
X148250000Y-96000000D03*
X148750000Y-96500000D03*
X135500000Y-95250000D03*
X136250000Y-95250000D03*
X137000000Y-95250000D03*
X137750000Y-95250000D03*
X138500000Y-95250000D03*
X139250000Y-95250000D03*
X140000000Y-95250000D03*
X140750000Y-95250000D03*
X164500000Y-95250000D03*
X163750000Y-95250000D03*
X163000000Y-95250000D03*
X162250000Y-95250000D03*
X161500000Y-95250000D03*
X160750000Y-95250000D03*
X160000000Y-95250000D03*
X159250000Y-95250000D03*
X151750000Y-95250000D03*
X135500000Y-96000000D03*
X135500000Y-96750000D03*
X135500000Y-92250000D03*
X135500000Y-91500000D03*
X135500000Y-90750000D03*
X136250000Y-90750000D03*
X137000000Y-90750000D03*
X136250000Y-92250000D03*
X137000000Y-92250000D03*
X137750000Y-92250000D03*
X138500000Y-92250000D03*
X139250000Y-92250000D03*
X140000000Y-92250000D03*
X140750000Y-92250000D03*
X147500000Y-92250000D03*
X152500000Y-92250000D03*
X159250000Y-92250000D03*
X160000000Y-92250000D03*
X160750000Y-92250000D03*
X161500000Y-92250000D03*
X162250000Y-92250000D03*
X163000000Y-92250000D03*
X163750000Y-92250000D03*
X164500000Y-92250000D03*
X164500000Y-91500000D03*
X164500000Y-90750000D03*
X163750000Y-90750000D03*
X163000000Y-90750000D03*
X162250000Y-90750000D03*
X161500000Y-90750000D03*
X160750000Y-90750000D03*
X160000000Y-90750000D03*
X164500000Y-96000000D03*
X164500000Y-96750000D03*
X163750000Y-96750000D03*
X163000000Y-96750000D03*
X162250000Y-96750000D03*
X161500000Y-96750000D03*
X160750000Y-96750000D03*
X160000000Y-96750000D03*
X137750000Y-90750000D03*
X138500000Y-90750000D03*
X139250000Y-90750000D03*
X140000000Y-90750000D03*
X136250000Y-96750000D03*
X137000000Y-96750000D03*
X137750000Y-96750000D03*
X138500000Y-96750000D03*
X139250000Y-96750000D03*
X140000000Y-96750000D03*
X164250000Y-86966537D03*
X164250000Y-85933075D03*
X164250000Y-84899612D03*
X164250000Y-83866150D03*
X164250000Y-82832687D03*
X164250000Y-81799225D03*
X164250000Y-80765763D03*
X164005091Y-79819967D03*
X162984236Y-79750000D03*
X161950774Y-79750000D03*
X160917312Y-79750000D03*
X159883849Y-79750000D03*
X158850387Y-79750000D03*
X157816924Y-79750000D03*
X156783462Y-79750000D03*
X164250000Y-88000000D03*
X155750000Y-79750000D03*
X156821428Y-80750000D03*
X157892857Y-80750000D03*
X158964285Y-80750000D03*
X160035714Y-80750000D03*
X161107142Y-80750000D03*
X162178571Y-80750000D03*
X163250000Y-81785714D03*
X163250000Y-82821428D03*
X163250000Y-83857142D03*
X163250000Y-84892857D03*
X163250000Y-85928571D03*
X163250000Y-86964285D03*
X155750000Y-80750000D03*
X163250000Y-80750000D03*
X163250000Y-88000000D03*
X136750000Y-86964285D03*
X136750000Y-85928571D03*
X136750000Y-84892857D03*
X136750000Y-83857142D03*
X136750000Y-82821428D03*
X136750000Y-81785714D03*
X137821428Y-80750000D03*
X138892857Y-80750000D03*
X139964285Y-80750000D03*
X141035714Y-80750000D03*
X142107142Y-80750000D03*
X143178571Y-80750000D03*
X136750000Y-88000000D03*
X136750000Y-80750000D03*
X144250000Y-80750000D03*
X143216537Y-79750000D03*
X142183075Y-79750000D03*
X141149612Y-79750000D03*
X140116150Y-79750000D03*
X139082687Y-79750000D03*
X138049225Y-79750000D03*
X137015763Y-79750000D03*
X135994908Y-79819967D03*
X135750000Y-80765763D03*
X135750000Y-81799225D03*
X135750000Y-82832687D03*
X135750000Y-83866150D03*
X135750000Y-84899612D03*
X135750000Y-85933075D03*
X135750000Y-86966537D03*
X144250000Y-79750000D03*
X135750000Y-88000000D03*
X135750000Y-100512684D03*
X135750000Y-101525368D03*
X135750000Y-102538053D03*
X135750000Y-103550737D03*
X135750000Y-104563421D03*
X135750000Y-105576106D03*
X135750000Y-106588790D03*
X135750000Y-107601475D03*
X136328760Y-108250000D03*
X137341445Y-108250000D03*
X138354129Y-108250000D03*
X139366814Y-108250000D03*
X140379498Y-108250000D03*
X141392182Y-108250000D03*
X142404867Y-108250000D03*
X143417551Y-108250000D03*
X144430235Y-108250000D03*
X145442920Y-108250000D03*
X146455604Y-108250000D03*
X147468289Y-108250000D03*
X148480973Y-108250000D03*
X149493657Y-108250000D03*
X150506342Y-108250000D03*
X151519026Y-108250000D03*
X152531710Y-108250000D03*
X153544395Y-108250000D03*
X154557079Y-108250000D03*
X155569764Y-108250000D03*
X156582448Y-108250000D03*
X157595132Y-108250000D03*
X158607817Y-108250000D03*
X159620501Y-108250000D03*
X160633185Y-108250000D03*
X161645870Y-108250000D03*
X162658554Y-108250000D03*
X163671239Y-108250000D03*
X164250000Y-107601475D03*
X164250000Y-106588790D03*
X164250000Y-105576106D03*
X164250000Y-104563421D03*
X164250000Y-103550737D03*
X164250000Y-102538053D03*
X164250000Y-101525368D03*
X164250000Y-100512684D03*
X135750000Y-99500000D03*
X164250000Y-99500000D03*
X163250000Y-100607142D03*
X163250000Y-101714285D03*
X163250000Y-102821428D03*
X163250000Y-103928571D03*
X163250000Y-105035714D03*
X163250000Y-106142857D03*
X162230769Y-107250000D03*
X161211538Y-107250000D03*
X160192307Y-107250000D03*
X159173076Y-107250000D03*
X158153846Y-107250000D03*
X157134615Y-107250000D03*
X156115384Y-107250000D03*
X155096153Y-107250000D03*
X154076923Y-107250000D03*
X153057692Y-107250000D03*
X152038461Y-107250000D03*
X151019230Y-107250000D03*
X150000000Y-107250000D03*
X148980769Y-107250000D03*
X147961538Y-107250000D03*
X146942307Y-107250000D03*
X145923076Y-107250000D03*
X144903846Y-107250000D03*
X143884615Y-107250000D03*
X142865384Y-107250000D03*
X141846153Y-107250000D03*
X140826923Y-107250000D03*
X139807692Y-107250000D03*
X138788461Y-107250000D03*
X137769230Y-107250000D03*
X136750000Y-106142857D03*
X136750000Y-105035714D03*
X136750000Y-103928571D03*
X136750000Y-102821428D03*
X136750000Y-101714285D03*
X136750000Y-100607142D03*
X163250000Y-99500000D03*
X163250000Y-107250000D03*
X136750000Y-107250000D03*
X136750000Y-99500000D03*
X153000000Y-91750000D03*
X153500000Y-91250000D03*
X154000000Y-90750000D03*
X150000000Y-91750000D03*
X150500000Y-91250000D03*
X151000000Y-90750000D03*
X151500000Y-90250000D03*
X152000000Y-89750000D03*
X152500000Y-89250000D03*
X149500000Y-91250000D03*
X144250000Y-81750000D03*
X144250000Y-82750000D03*
X144250000Y-83750000D03*
X144250000Y-84750000D03*
X145250000Y-84750000D03*
X146250000Y-84500000D03*
X147000000Y-84000000D03*
X147000000Y-83250000D03*
X147000000Y-82500000D03*
X147000000Y-81750000D03*
X147000000Y-81000000D03*
X147000000Y-80250000D03*
X147000000Y-79500000D03*
X147750000Y-79500000D03*
X148500000Y-79500000D03*
X148500000Y-80250000D03*
X148500000Y-81000000D03*
X148500000Y-81750000D03*
X148500000Y-82500000D03*
X148500000Y-83250000D03*
X148500000Y-84000000D03*
X147750000Y-84250000D03*
X155750000Y-81750000D03*
X155750000Y-82750000D03*
X155750000Y-83750000D03*
X153750000Y-84500000D03*
X153000000Y-84000000D03*
X153000000Y-83250000D03*
X153000000Y-82500000D03*
X153000000Y-81750000D03*
X153000000Y-81000000D03*
X153000000Y-80250000D03*
X153000000Y-79500000D03*
X152250000Y-79500000D03*
X151500000Y-79500000D03*
X151500000Y-80250000D03*
X151500000Y-81000000D03*
X151500000Y-81750000D03*
X151500000Y-82500000D03*
X151500000Y-83250000D03*
X151500000Y-84000000D03*
X138404999Y-85654999D03*
X138404999Y-99654999D03*
X139804999Y-87754999D03*
X140504999Y-101054999D03*
X141204999Y-98254999D03*
X141204999Y-103854999D03*
X141904999Y-85654999D03*
X141904999Y-89154999D03*
X142604999Y-82154999D03*
X142604999Y-105954999D03*
X143304999Y-96854999D03*
X143304999Y-100354999D03*
X144004999Y-103154999D03*
X145404999Y-98254999D03*
X145404999Y-105254999D03*
X146104999Y-101054999D03*
X147504999Y-103154999D03*
X148204999Y-98954999D03*
X148204999Y-105954999D03*
X149604999Y-101054999D03*
X150304999Y-103854999D03*
X151004999Y-98254999D03*
X151704999Y-105954999D03*
X152404999Y-100354999D03*
X153104999Y-96854999D03*
X153104999Y-103154999D03*
X154504999Y-98954999D03*
X154504999Y-105254999D03*
X155204999Y-101754999D03*
X156604999Y-96854999D03*
X156604999Y-103854999D03*
X157304999Y-82154999D03*
X157304999Y-99654999D03*
X158004999Y-105954999D03*
X158704999Y-84254999D03*
X158704999Y-101754999D03*
X160104999Y-86354999D03*
X160804999Y-99654999D03*
X147250000Y-91500000D03*
X147250000Y-90750000D03*
X147250000Y-90000000D03*
X147250000Y-89250000D03*
X147250000Y-88500000D03*
X147250000Y-87750000D03*
X147250000Y-87000000D03*
X147250000Y-86250000D03*
X147750000Y-85750000D03*
X148250000Y-85250000D03*
X148750000Y-84750000D03*
X149000000Y-90750000D03*
X149000000Y-90000000D03*
X149750000Y-90000000D03*
X149750000Y-89250000D03*
X149750000Y-88500000D03*
X149750000Y-87750000D03*
X149500000Y-87250000D03*
X148800000Y-87250000D03*
X149250000Y-86750000D03*
X149750000Y-86250000D03*
X144250000Y-87000000D03*
X144000000Y-90500000D03*
X146250000Y-88500000D03*
X153800000Y-88800000D03*
X154600000Y-88800000D03*
X153800000Y-88000000D03*
X153200000Y-87400000D03*
X152600000Y-87000000D03*
X152000000Y-86600000D03*
X151200000Y-86400000D03*
X150400000Y-86100000D03*
X151200000Y-84700000D03*
X154750000Y-84750000D03*
X155750000Y-84750000D03*
X154750000Y-85500000D03*
X154750000Y-86250000D03*
X155000000Y-86800000D03*
X155400000Y-87300000D03*
X155900000Y-87800000D03*
X156500000Y-88000000D03*
X156750000Y-88750000D03*
X156750000Y-89500000D03*
X156750000Y-90250000D03*
X156000000Y-90750000D03*
X155250000Y-90750000D03*
X154600000Y-90700000D03*
X157000000Y-86400000D03*
X158200000Y-89600000D03*
X162000000Y-101800000D03*
X141200000Y-92800000D03*
X141900000Y-92900000D03*
X142600000Y-92800000D03*
X143300000Y-92800000D03*
X144000000Y-92800000D03*
X144700000Y-92800000D03*
X145400000Y-92800000D03*
X146100000Y-92800000D03*
X141200000Y-94700000D03*
X141900000Y-94600000D03*
X142600000Y-94700000D03*
X143300000Y-94700000D03*
X144000000Y-94700000D03*
X144700000Y-94700000D03*
X145400000Y-94700000D03*
X146100000Y-94700000D03*
X146800000Y-94700000D03*
X147500000Y-94700000D03*
X148200000Y-94600000D03*
X148100000Y-92700000D03*
X158800000Y-92800000D03*
X158100000Y-92800000D03*
X157400000Y-92800000D03*
X156700000Y-92900000D03*
X156000000Y-92900000D03*
X155300000Y-92900000D03*
X154600000Y-92800000D03*
X153900000Y-92800000D03*
X153200000Y-92800000D03*
X152500000Y-92800000D03*
X151800000Y-92900000D03*
X148200000Y-95300000D03*
X158800000Y-94700000D03*
X158100000Y-94700000D03*
X157400000Y-94600000D03*
X156700000Y-94500000D03*
X156000000Y-94500000D03*
X155300000Y-94500000D03*
X154600000Y-94600000D03*
X153900000Y-94600000D03*
X153200000Y-94600000D03*
X152500000Y-94600000D03*
X151800000Y-94500000D03*
X156400000Y-91800000D03*
X147500000Y-92800000D03*
X146800000Y-92800000D03*
%TD*%
D17*
%TO.N,Net-(L2-Pad1)*%
X149250000Y-92525000D02*
X149250000Y-92500000D01*
%TO.N,Net-(L5-Pad1)*%
X150750000Y-92525000D02*
X150750000Y-92500000D01*
D18*
%TO.N,/RFin*%
X137500000Y-93750000D02*
X140050000Y-93750000D01*
D19*
X140050000Y-93750000D02*
X142630000Y-93750000D01*
D20*
X142630000Y-93750000D02*
X143545000Y-93750000D01*
D18*
%TO.N,/RFout*%
X162500000Y-93750000D02*
X159950000Y-93750000D01*
D17*
X158750000Y-93750000D02*
X159950000Y-93750000D01*
%TO.N,VDC*%
X150000000Y-81750000D02*
X150000000Y-81250000D01*
X150000000Y-82350000D02*
X150000000Y-81250000D01*
X150000000Y-81700000D02*
X150000000Y-81250000D01*
D21*
X150000000Y-84750000D02*
X150000000Y-81250000D01*
X148800000Y-85950000D02*
X150000000Y-84750000D01*
X152725000Y-85725000D02*
X154157053Y-87157053D01*
D17*
X152125000Y-85700000D02*
X152125000Y-85725000D01*
D21*
X151950000Y-85700000D02*
X152125000Y-85700000D01*
X151950000Y-85700000D02*
X151831540Y-85697091D01*
X151831540Y-85697091D02*
X151713365Y-85688374D01*
X151713365Y-85688374D02*
X151595761Y-85673869D01*
X151595761Y-85673869D02*
X151479010Y-85653611D01*
X151479010Y-85653611D02*
X151363393Y-85627649D01*
X151363393Y-85627649D02*
X151249190Y-85596044D01*
X151249190Y-85596044D02*
X151136675Y-85558874D01*
X151136675Y-85558874D02*
X151026120Y-85516228D01*
X151026120Y-85516228D02*
X150917790Y-85468209D01*
X150917790Y-85468209D02*
X150811947Y-85414932D01*
X150811947Y-85414932D02*
X150708845Y-85356526D01*
X150708845Y-85356526D02*
X150608734Y-85293131D01*
X150608734Y-85293131D02*
X150511854Y-85224900D01*
X150511854Y-85224900D02*
X150418438Y-85151998D01*
X150418438Y-85151998D02*
X150328712Y-85074600D01*
X150328712Y-85074600D02*
X150242893Y-84992893D01*
X150242893Y-84992893D02*
X150000000Y-84750000D01*
X151950000Y-85700000D02*
X152725000Y-85700000D01*
%TO.N,Net-(C7-Pad1)*%
X148100000Y-90330000D02*
X148100000Y-89250000D01*
X148100000Y-89250000D02*
X148100000Y-88150000D01*
X148100000Y-88150000D02*
X148100000Y-86700000D01*
D17*
%TO.N,Net-(C5-Pad1)*%
X155013694Y-89836306D02*
X155050000Y-89800000D01*
D21*
X153413694Y-89836306D02*
X155013694Y-89836306D01*
D17*
X155050000Y-89800000D02*
X155125000Y-89800000D01*
X155650000Y-88800000D02*
X155650000Y-89000000D01*
D21*
X155650000Y-88800000D02*
X155050000Y-89800000D01*
X155650000Y-88800000D02*
X154842947Y-87842947D01*
D22*
%TO.N,Net-(C2-Pad1)*%
X153640000Y-93750000D02*
X154570000Y-93750000D01*
D17*
X157710000Y-93750000D02*
X157750000Y-93750000D01*
D19*
X154850000Y-93750000D02*
X157710000Y-93750000D01*
D17*
X154570000Y-93750000D02*
X154850000Y-93750000D01*
D22*
X154570000Y-93750000D02*
X154570000Y-93750000D01*
D17*
%TO.N,Net-(R9-Pad2)*%
X151475000Y-93750000D02*
X152375000Y-93750000D01*
X152375000Y-93750000D02*
X152670000Y-93750000D01*
X152670000Y-93750000D02*
X152670000Y-93750000D01*
D20*
%TO.N,Net-(C9-Pad1)*%
X146350000Y-93750000D02*
X145430000Y-93750000D01*
X144515000Y-93750000D02*
X145430000Y-93750000D01*
D17*
%TO.N,Net-(C9-Pad2)*%
X147320000Y-93750000D02*
X148525000Y-93750000D01*
%TD*%
D23*
%TO.N,GND*%
X148921418Y-84240000D02*
X148923000Y-84256061D01*
X148923000Y-85010999D01*
X148671879Y-85262120D01*
X148600133Y-85283884D01*
X148517825Y-85327878D01*
X148445681Y-85387085D01*
X148237085Y-85595681D01*
X148177878Y-85667825D01*
X148133884Y-85750133D01*
X148106792Y-85839443D01*
X148097644Y-85932322D01*
X148097777Y-85933671D01*
X148096428Y-85933538D01*
X148003549Y-85942686D01*
X147914239Y-85969778D01*
X147831931Y-86013772D01*
X147759787Y-86072979D01*
X147551191Y-86281575D01*
X147491984Y-86353719D01*
X147447990Y-86436027D01*
X147420898Y-86525337D01*
X147411750Y-86618216D01*
X147420898Y-86711095D01*
X147447990Y-86800405D01*
X147491984Y-86882713D01*
X147523001Y-86920507D01*
X147523000Y-87775962D01*
X147512658Y-87795311D01*
X147485566Y-87884621D01*
X147476418Y-87977500D01*
X147476418Y-88322500D01*
X147485566Y-88415379D01*
X147512658Y-88504689D01*
X147523001Y-88524039D01*
X147523000Y-88875962D01*
X147512658Y-88895311D01*
X147485566Y-88984621D01*
X147476418Y-89077500D01*
X147476418Y-89422500D01*
X147485566Y-89515379D01*
X147512658Y-89604689D01*
X147523001Y-89624039D01*
X147523000Y-89934189D01*
X147487658Y-90000311D01*
X147460566Y-90089621D01*
X147451418Y-90182500D01*
X147451418Y-90477500D01*
X147460566Y-90570379D01*
X147487658Y-90659689D01*
X147531652Y-90741997D01*
X147590859Y-90814141D01*
X147591906Y-90815000D01*
X147590859Y-90815859D01*
X147531652Y-90888003D01*
X147487658Y-90970311D01*
X147460566Y-91059621D01*
X147451418Y-91152500D01*
X147451418Y-91447500D01*
X147460566Y-91540379D01*
X147487658Y-91629689D01*
X147531652Y-91711997D01*
X147590859Y-91784141D01*
X147663003Y-91843348D01*
X147701450Y-91863898D01*
X148848752Y-93011200D01*
X148851472Y-93016289D01*
X148911080Y-93088921D01*
X148983712Y-93148529D01*
X149066578Y-93192822D01*
X149156493Y-93220097D01*
X149250000Y-93229307D01*
X149343508Y-93220097D01*
X149433423Y-93192822D01*
X149516289Y-93148529D01*
X149588921Y-93088921D01*
X149648529Y-93016289D01*
X149692822Y-92933423D01*
X149720097Y-92843508D01*
X149727000Y-92773422D01*
X149727000Y-92276578D01*
X150273000Y-92276578D01*
X150273000Y-92773423D01*
X150279904Y-92843508D01*
X150307179Y-92933423D01*
X150351472Y-93016289D01*
X150411080Y-93088921D01*
X150483712Y-93148529D01*
X150566578Y-93192822D01*
X150656493Y-93220097D01*
X150750000Y-93229307D01*
X150843508Y-93220097D01*
X150933423Y-93192822D01*
X151016289Y-93148529D01*
X151088921Y-93088921D01*
X151148529Y-93016289D01*
X151151250Y-93011198D01*
X152329537Y-91832911D01*
X152433296Y-91822691D01*
X152535972Y-91791545D01*
X152630598Y-91740966D01*
X152713539Y-91672898D01*
X153022898Y-91363539D01*
X153090966Y-91280598D01*
X153141545Y-91185972D01*
X153172691Y-91083296D01*
X153183208Y-90976517D01*
X153172691Y-90869738D01*
X153141545Y-90767062D01*
X153090966Y-90672436D01*
X153022898Y-90589495D01*
X152660505Y-90227102D01*
X152577564Y-90159034D01*
X152482938Y-90108455D01*
X152380262Y-90077309D01*
X152273483Y-90066792D01*
X152166704Y-90077309D01*
X152064028Y-90108455D01*
X151969402Y-90159034D01*
X151886461Y-90227102D01*
X151577102Y-90536461D01*
X151509034Y-90619402D01*
X151458455Y-90714028D01*
X151427309Y-90816704D01*
X151417089Y-90920463D01*
X150515223Y-91822329D01*
X150487021Y-91854488D01*
X150407561Y-91958042D01*
X150393300Y-91982743D01*
X150351471Y-92033711D01*
X150307178Y-92116578D01*
X150279903Y-92206493D01*
X150273000Y-92276578D01*
X149727000Y-92276578D01*
X149727000Y-92250000D01*
X149720717Y-92186206D01*
X149702109Y-92124863D01*
X149666754Y-92039508D01*
X149636536Y-91982974D01*
X149595869Y-91933421D01*
X148741331Y-91078883D01*
X148739434Y-91059621D01*
X148712342Y-90970311D01*
X148668348Y-90888003D01*
X148609141Y-90815859D01*
X148608094Y-90815000D01*
X148609141Y-90814141D01*
X148668348Y-90741997D01*
X148712342Y-90659689D01*
X148739434Y-90570379D01*
X148748582Y-90477500D01*
X148748582Y-90182500D01*
X148739434Y-90089621D01*
X148712342Y-90000311D01*
X148677000Y-89934190D01*
X148677000Y-89624038D01*
X148687342Y-89604689D01*
X148714434Y-89515379D01*
X148723582Y-89422500D01*
X148723582Y-89077500D01*
X148714434Y-88984621D01*
X148687342Y-88895311D01*
X148677000Y-88875962D01*
X148677000Y-88524038D01*
X148687342Y-88504689D01*
X148714434Y-88415379D01*
X148723582Y-88322500D01*
X148723582Y-87977500D01*
X148714434Y-87884621D01*
X148687342Y-87795311D01*
X148677000Y-87775962D01*
X148677000Y-86990234D01*
X148677021Y-86990213D01*
X148736228Y-86918069D01*
X148780222Y-86835761D01*
X148807314Y-86746451D01*
X148816462Y-86653572D01*
X148816329Y-86652223D01*
X148817678Y-86652356D01*
X148910557Y-86643208D01*
X148999867Y-86616116D01*
X149082175Y-86572122D01*
X149154319Y-86512915D01*
X149362915Y-86304319D01*
X149422122Y-86232175D01*
X149466116Y-86149867D01*
X149487880Y-86078121D01*
X150006948Y-85559053D01*
X150030846Y-85579666D01*
X150041113Y-85589442D01*
X150052290Y-85598164D01*
X150063015Y-85607416D01*
X150074597Y-85615573D01*
X150145720Y-85671077D01*
X150156445Y-85680329D01*
X150168028Y-85688487D01*
X150179206Y-85697210D01*
X150191181Y-85704793D01*
X150264932Y-85756734D01*
X150276100Y-85765450D01*
X150288069Y-85773030D01*
X150299659Y-85781192D01*
X150311991Y-85788178D01*
X150388203Y-85836439D01*
X150399790Y-85844600D01*
X150412118Y-85851584D01*
X150424090Y-85859165D01*
X150436749Y-85865537D01*
X150515253Y-85910008D01*
X150527211Y-85917581D01*
X150539855Y-85923946D01*
X150552202Y-85930940D01*
X150565168Y-85936687D01*
X150645743Y-85977246D01*
X150658063Y-85984225D01*
X150671004Y-85989961D01*
X150683674Y-85996339D01*
X150696909Y-86001444D01*
X150779364Y-86037994D01*
X150792023Y-86044366D01*
X150805248Y-86049468D01*
X150818203Y-86055210D01*
X150831655Y-86059654D01*
X150915818Y-86092119D01*
X150928775Y-86097863D01*
X150942235Y-86102309D01*
X150955452Y-86107408D01*
X150969106Y-86111187D01*
X151054760Y-86139483D01*
X151067984Y-86144584D01*
X151081647Y-86148365D01*
X151095102Y-86152810D01*
X151108926Y-86155914D01*
X151195869Y-86179975D01*
X151209328Y-86184421D01*
X151223155Y-86187526D01*
X151236807Y-86191304D01*
X151250768Y-86193727D01*
X151338793Y-86213493D01*
X151352448Y-86217272D01*
X151366409Y-86219694D01*
X151380239Y-86222800D01*
X151394306Y-86224535D01*
X151483179Y-86239955D01*
X151497008Y-86243061D01*
X151511079Y-86244797D01*
X151525035Y-86247218D01*
X151539158Y-86248260D01*
X151628697Y-86259303D01*
X151642660Y-86261726D01*
X151656795Y-86262769D01*
X151670857Y-86264503D01*
X151685019Y-86264851D01*
X151774996Y-86271488D01*
X151789048Y-86273221D01*
X151803208Y-86273569D01*
X151817352Y-86274612D01*
X151831524Y-86274264D01*
X151914597Y-86276304D01*
X151921664Y-86277000D01*
X151942945Y-86277000D01*
X151964162Y-86277521D01*
X151971226Y-86277000D01*
X152064840Y-86277000D01*
X152119228Y-86343272D01*
X152202169Y-86411340D01*
X152296795Y-86461919D01*
X152399471Y-86493065D01*
X152506250Y-86503582D01*
X152687581Y-86503582D01*
X153469173Y-87285174D01*
X153490937Y-87356920D01*
X153534931Y-87439228D01*
X153594138Y-87511372D01*
X153802734Y-87719968D01*
X153874878Y-87779175D01*
X153957186Y-87823169D01*
X154046496Y-87850261D01*
X154139375Y-87859409D01*
X154140724Y-87859276D01*
X154140591Y-87860625D01*
X154149739Y-87953504D01*
X154176831Y-88042814D01*
X154220825Y-88125122D01*
X154280032Y-88197266D01*
X154488628Y-88405862D01*
X154560772Y-88465069D01*
X154643080Y-88509063D01*
X154652236Y-88511840D01*
X154943070Y-88856730D01*
X154749899Y-89178683D01*
X154720311Y-89187658D01*
X154638003Y-89231652D01*
X154604306Y-89259306D01*
X153969988Y-89259306D01*
X153967806Y-89259059D01*
X153953730Y-89258855D01*
X153929439Y-89257712D01*
X153917481Y-89256690D01*
X153774199Y-89113408D01*
X153691258Y-89045340D01*
X153596632Y-88994761D01*
X153493956Y-88963615D01*
X153387177Y-88953098D01*
X153280398Y-88963615D01*
X153177722Y-88994761D01*
X153083096Y-89045340D01*
X153000155Y-89113408D01*
X152690796Y-89422767D01*
X152622728Y-89505708D01*
X152572149Y-89600334D01*
X152541003Y-89703010D01*
X152530486Y-89809789D01*
X152541003Y-89916568D01*
X152572149Y-90019244D01*
X152622728Y-90113870D01*
X152690796Y-90196811D01*
X153053189Y-90559204D01*
X153136130Y-90627272D01*
X153230756Y-90677851D01*
X153333432Y-90708997D01*
X153440211Y-90719514D01*
X153546990Y-90708997D01*
X153649666Y-90677851D01*
X153744292Y-90627272D01*
X153827233Y-90559204D01*
X153973131Y-90413306D01*
X154723489Y-90413306D01*
X154809621Y-90439434D01*
X154902500Y-90448582D01*
X155197500Y-90448582D01*
X155290379Y-90439434D01*
X155379689Y-90412342D01*
X155461997Y-90368348D01*
X155534141Y-90309141D01*
X155593348Y-90236997D01*
X155637342Y-90154689D01*
X155664434Y-90065379D01*
X155673582Y-89972500D01*
X155673582Y-89882181D01*
X155950100Y-89421318D01*
X155979689Y-89412342D01*
X156061997Y-89368348D01*
X156134141Y-89309141D01*
X156193348Y-89236997D01*
X156237342Y-89154689D01*
X156264434Y-89065379D01*
X156273582Y-88972500D01*
X156273582Y-88627500D01*
X156264434Y-88534621D01*
X156237342Y-88445311D01*
X156193348Y-88363003D01*
X156134141Y-88290859D01*
X156061997Y-88231652D01*
X155979689Y-88187658D01*
X155890379Y-88160566D01*
X155863305Y-88157899D01*
X155540343Y-87774912D01*
X155536155Y-87732390D01*
X155509063Y-87643080D01*
X155465069Y-87560772D01*
X155405862Y-87488628D01*
X155197266Y-87280032D01*
X155125122Y-87220825D01*
X155042814Y-87176831D01*
X154953504Y-87149739D01*
X154860625Y-87140591D01*
X154859276Y-87140724D01*
X154859409Y-87139375D01*
X154850261Y-87046496D01*
X154823169Y-86957186D01*
X154779175Y-86874878D01*
X154719968Y-86802734D01*
X154511372Y-86594138D01*
X154439228Y-86534931D01*
X154356920Y-86490937D01*
X154285174Y-86469173D01*
X153543720Y-85727719D01*
X153542086Y-85725302D01*
X153531439Y-85712470D01*
X153513294Y-85689339D01*
X153498812Y-85669604D01*
X153491082Y-85658177D01*
X153491082Y-85443750D01*
X153480565Y-85336971D01*
X153449419Y-85234295D01*
X153398840Y-85139669D01*
X153330772Y-85056728D01*
X153247831Y-84988660D01*
X153153205Y-84938081D01*
X153050529Y-84906935D01*
X152943750Y-84896418D01*
X152506250Y-84896418D01*
X152399471Y-84906935D01*
X152296795Y-84938081D01*
X152202169Y-84988660D01*
X152119228Y-85056728D01*
X152064840Y-85123000D01*
X151957062Y-85123000D01*
X151859873Y-85120613D01*
X151769936Y-85113979D01*
X151680450Y-85102943D01*
X151591609Y-85087528D01*
X151503623Y-85067770D01*
X151416744Y-85043727D01*
X151331115Y-85015439D01*
X151246991Y-84982988D01*
X151164570Y-84946454D01*
X151084025Y-84905911D01*
X151077000Y-84901931D01*
X151077000Y-84256061D01*
X151078582Y-84240000D01*
X151078582Y-79337000D01*
X164560660Y-79337000D01*
X164616870Y-79383130D01*
X164663001Y-79439341D01*
X164663001Y-92671418D01*
X159860000Y-92671418D01*
X159795897Y-92677732D01*
X159770344Y-92685483D01*
X159738871Y-92688583D01*
X159535856Y-92750167D01*
X159348756Y-92850174D01*
X159184761Y-92984761D01*
X159157787Y-93017629D01*
X159146662Y-93028158D01*
X159041815Y-93071572D01*
X158927914Y-93104414D01*
X158897500Y-93101418D01*
X158602500Y-93101418D01*
X158586438Y-93103000D01*
X157943562Y-93103000D01*
X157927500Y-93101418D01*
X157632500Y-93101418D01*
X157539621Y-93110566D01*
X157450311Y-93137658D01*
X157368003Y-93181652D01*
X157295859Y-93240859D01*
X157289153Y-93249030D01*
X157289058Y-93249103D01*
X157280452Y-93257160D01*
X157262411Y-93271312D01*
X157243349Y-93283719D01*
X157222685Y-93294717D01*
X157199775Y-93304484D01*
X157174090Y-93312989D01*
X157145033Y-93320112D01*
X157112281Y-93325582D01*
X157075533Y-93329103D01*
X157055499Y-93329716D01*
X157049058Y-93330500D01*
X155520561Y-93330500D01*
X155512931Y-93329613D01*
X155465839Y-93328786D01*
X155380029Y-93323936D01*
X155303735Y-93316173D01*
X155237274Y-93305880D01*
X155181177Y-93293644D01*
X155135753Y-93280256D01*
X155101301Y-93266840D01*
X155077650Y-93254793D01*
X155064007Y-93245701D01*
X155060275Y-93242414D01*
X154998698Y-93199637D01*
X154976968Y-93190601D01*
X154924689Y-93162658D01*
X154835379Y-93135566D01*
X154742500Y-93126418D01*
X154635497Y-93126418D01*
X154600794Y-93123000D01*
X154117932Y-93123000D01*
X154098601Y-93112667D01*
X154074776Y-93105440D01*
X154050000Y-93103000D01*
X153803562Y-93103000D01*
X153787500Y-93101418D01*
X153492500Y-93101418D01*
X153476438Y-93103000D01*
X152833562Y-93103000D01*
X152817500Y-93101418D01*
X152522500Y-93101418D01*
X152429621Y-93110566D01*
X152340311Y-93137658D01*
X152258003Y-93181652D01*
X152185859Y-93240859D01*
X152174903Y-93254209D01*
X152167604Y-93256824D01*
X152127682Y-93267521D01*
X152076615Y-93277552D01*
X152015050Y-93286072D01*
X151943524Y-93292533D01*
X151862493Y-93296577D01*
X151849153Y-93296782D01*
X151793508Y-93279903D01*
X151723423Y-93273000D01*
X151226577Y-93273000D01*
X151156492Y-93279903D01*
X151066577Y-93307178D01*
X150983711Y-93351471D01*
X150911079Y-93411079D01*
X150851471Y-93483711D01*
X150807178Y-93566577D01*
X150779903Y-93656492D01*
X150770693Y-93750000D01*
X150779903Y-93843508D01*
X150807178Y-93933423D01*
X150851471Y-94016289D01*
X150911079Y-94088921D01*
X150983711Y-94148529D01*
X151066577Y-94192822D01*
X151156492Y-94220097D01*
X151226577Y-94227000D01*
X151723423Y-94227000D01*
X151793508Y-94220097D01*
X151849155Y-94203217D01*
X151862493Y-94203422D01*
X151943524Y-94207466D01*
X152015050Y-94213927D01*
X152076615Y-94222447D01*
X152127682Y-94232478D01*
X152167604Y-94243175D01*
X152174902Y-94245790D01*
X152185859Y-94259141D01*
X152258003Y-94318348D01*
X152340311Y-94362342D01*
X152429621Y-94389434D01*
X152522500Y-94398582D01*
X152817500Y-94398582D01*
X152833562Y-94397000D01*
X153476438Y-94397000D01*
X153492500Y-94398582D01*
X153787500Y-94398582D01*
X153803562Y-94397000D01*
X154050000Y-94397000D01*
X154074776Y-94394560D01*
X154098601Y-94387333D01*
X154117932Y-94377000D01*
X154600794Y-94377000D01*
X154635497Y-94373582D01*
X154742500Y-94373582D01*
X154835379Y-94364434D01*
X154924689Y-94337342D01*
X154978389Y-94308639D01*
X155008258Y-94295029D01*
X155060284Y-94257579D01*
X155064010Y-94254297D01*
X155077650Y-94245207D01*
X155101301Y-94233160D01*
X155135753Y-94219744D01*
X155181177Y-94206356D01*
X155237274Y-94194120D01*
X155303735Y-94183827D01*
X155380029Y-94176064D01*
X155465840Y-94171214D01*
X155512925Y-94170388D01*
X155520713Y-94169500D01*
X157049447Y-94169500D01*
X157055511Y-94170285D01*
X157075532Y-94170897D01*
X157112281Y-94174418D01*
X157145033Y-94179888D01*
X157174090Y-94187011D01*
X157199775Y-94195516D01*
X157222685Y-94205283D01*
X157243349Y-94216281D01*
X157262411Y-94228688D01*
X157280446Y-94242835D01*
X157289050Y-94250891D01*
X157289146Y-94250961D01*
X157295859Y-94259141D01*
X157368003Y-94318348D01*
X157450311Y-94362342D01*
X157539621Y-94389434D01*
X157632500Y-94398582D01*
X157927500Y-94398582D01*
X157943562Y-94397000D01*
X158586438Y-94397000D01*
X158602500Y-94398582D01*
X158897500Y-94398582D01*
X158927914Y-94395586D01*
X159041815Y-94428428D01*
X159146662Y-94471842D01*
X159157787Y-94482371D01*
X159184761Y-94515239D01*
X159348756Y-94649826D01*
X159535856Y-94749833D01*
X159738871Y-94811417D01*
X159770344Y-94814517D01*
X159795897Y-94822268D01*
X159860000Y-94828582D01*
X164663000Y-94828582D01*
X164663000Y-108560660D01*
X164616870Y-108616870D01*
X164560660Y-108663000D01*
X135439340Y-108663000D01*
X135383130Y-108616870D01*
X135337000Y-108560660D01*
X135337000Y-94828582D01*
X140140000Y-94828582D01*
X140204103Y-94822268D01*
X140229656Y-94814517D01*
X140261129Y-94811417D01*
X140464144Y-94749833D01*
X140651244Y-94649826D01*
X140815239Y-94515239D01*
X140842211Y-94482373D01*
X140887971Y-94439064D01*
X140958691Y-94381864D01*
X141031535Y-94332108D01*
X141106830Y-94289371D01*
X141185014Y-94253305D01*
X141266597Y-94223685D01*
X141352170Y-94200406D01*
X141442214Y-94183527D01*
X141537227Y-94173206D01*
X141643067Y-94169500D01*
X141933705Y-94169500D01*
X141939225Y-94170239D01*
X141954131Y-94170760D01*
X141981652Y-94173741D01*
X142006508Y-94178390D01*
X142029148Y-94184536D01*
X142050097Y-94192128D01*
X142069910Y-94201254D01*
X142089121Y-94212144D01*
X142108154Y-94225133D01*
X142127361Y-94240659D01*
X142136918Y-94249703D01*
X142164785Y-94270190D01*
X142193003Y-94293348D01*
X142275311Y-94337342D01*
X142364621Y-94364434D01*
X142457500Y-94373582D01*
X142601656Y-94373582D01*
X142603907Y-94374291D01*
X142628656Y-94376993D01*
X143286559Y-94383955D01*
X143304621Y-94389434D01*
X143397500Y-94398582D01*
X143692500Y-94398582D01*
X143785379Y-94389434D01*
X143786018Y-94389240D01*
X144331230Y-94395010D01*
X144367500Y-94398582D01*
X144662500Y-94398582D01*
X144678562Y-94397000D01*
X146186438Y-94397000D01*
X146202500Y-94398582D01*
X146497500Y-94398582D01*
X146513562Y-94397000D01*
X147156438Y-94397000D01*
X147172500Y-94398582D01*
X147467500Y-94398582D01*
X147560379Y-94389434D01*
X147649689Y-94362342D01*
X147731997Y-94318348D01*
X147804141Y-94259141D01*
X147819609Y-94240293D01*
X147823799Y-94236908D01*
X147835688Y-94228803D01*
X147847444Y-94222147D01*
X147859548Y-94216582D01*
X147872499Y-94211898D01*
X147886892Y-94207999D01*
X147903204Y-94204956D01*
X147922311Y-94202891D01*
X147931536Y-94202546D01*
X147935838Y-94202000D01*
X148146833Y-94202000D01*
X148206492Y-94220097D01*
X148276577Y-94227000D01*
X148773423Y-94227000D01*
X148843508Y-94220097D01*
X148933423Y-94192822D01*
X149016289Y-94148529D01*
X149088921Y-94088921D01*
X149148529Y-94016289D01*
X149192822Y-93933423D01*
X149220097Y-93843508D01*
X149229307Y-93750000D01*
X149220097Y-93656492D01*
X149192822Y-93566577D01*
X149148529Y-93483711D01*
X149088921Y-93411079D01*
X149016289Y-93351471D01*
X148933423Y-93307178D01*
X148843508Y-93279903D01*
X148773423Y-93273000D01*
X148276577Y-93273000D01*
X148206492Y-93279903D01*
X148146833Y-93298000D01*
X147935554Y-93298000D01*
X147931553Y-93297454D01*
X147922309Y-93297108D01*
X147903206Y-93295043D01*
X147886892Y-93292000D01*
X147872499Y-93288101D01*
X147859548Y-93283417D01*
X147847444Y-93277852D01*
X147835688Y-93271196D01*
X147823799Y-93263091D01*
X147819608Y-93259705D01*
X147804141Y-93240859D01*
X147731997Y-93181652D01*
X147649689Y-93137658D01*
X147560379Y-93110566D01*
X147467500Y-93101418D01*
X147172500Y-93101418D01*
X147156438Y-93103000D01*
X146513562Y-93103000D01*
X146497500Y-93101418D01*
X146202500Y-93101418D01*
X146186438Y-93103000D01*
X144678562Y-93103000D01*
X144662500Y-93101418D01*
X144367500Y-93101418D01*
X144351438Y-93103000D01*
X143708562Y-93103000D01*
X143692500Y-93101418D01*
X143397500Y-93101418D01*
X143334087Y-93107664D01*
X142627240Y-93123030D01*
X142605224Y-93125440D01*
X142602000Y-93126418D01*
X142457500Y-93126418D01*
X142364621Y-93135566D01*
X142275311Y-93162658D01*
X142193003Y-93206652D01*
X142187870Y-93210865D01*
X142187583Y-93211008D01*
X142136926Y-93250291D01*
X142127368Y-93259335D01*
X142108154Y-93274867D01*
X142089121Y-93287856D01*
X142069910Y-93298746D01*
X142050097Y-93307872D01*
X142029148Y-93315464D01*
X142006508Y-93321610D01*
X141981652Y-93326259D01*
X141954119Y-93329242D01*
X141939211Y-93329763D01*
X141933315Y-93330500D01*
X141643067Y-93330500D01*
X141537227Y-93326794D01*
X141442214Y-93316473D01*
X141352170Y-93299594D01*
X141266597Y-93276315D01*
X141185014Y-93246695D01*
X141106830Y-93210629D01*
X141031535Y-93167892D01*
X140958691Y-93118136D01*
X140887971Y-93060936D01*
X140842211Y-93017627D01*
X140815239Y-92984761D01*
X140651244Y-92850174D01*
X140464144Y-92750167D01*
X140261129Y-92688583D01*
X140229656Y-92685483D01*
X140204103Y-92677732D01*
X140140000Y-92671418D01*
X135337000Y-92671418D01*
X135337000Y-79439340D01*
X135383130Y-79383130D01*
X135439340Y-79337000D01*
X148921418Y-79337000D01*
X148921418Y-84240000D01*
%TA.AperFunction,Conductor*%
D24*
G36*
X148921418Y-84240000D02*
G01*
X148923000Y-84256061D01*
X148923000Y-85010999D01*
X148671879Y-85262120D01*
X148600133Y-85283884D01*
X148517825Y-85327878D01*
X148445681Y-85387085D01*
X148237085Y-85595681D01*
X148177878Y-85667825D01*
X148133884Y-85750133D01*
X148106792Y-85839443D01*
X148097644Y-85932322D01*
X148097777Y-85933671D01*
X148096428Y-85933538D01*
X148003549Y-85942686D01*
X147914239Y-85969778D01*
X147831931Y-86013772D01*
X147759787Y-86072979D01*
X147551191Y-86281575D01*
X147491984Y-86353719D01*
X147447990Y-86436027D01*
X147420898Y-86525337D01*
X147411750Y-86618216D01*
X147420898Y-86711095D01*
X147447990Y-86800405D01*
X147491984Y-86882713D01*
X147523001Y-86920507D01*
X147523000Y-87775962D01*
X147512658Y-87795311D01*
X147485566Y-87884621D01*
X147476418Y-87977500D01*
X147476418Y-88322500D01*
X147485566Y-88415379D01*
X147512658Y-88504689D01*
X147523001Y-88524039D01*
X147523000Y-88875962D01*
X147512658Y-88895311D01*
X147485566Y-88984621D01*
X147476418Y-89077500D01*
X147476418Y-89422500D01*
X147485566Y-89515379D01*
X147512658Y-89604689D01*
X147523001Y-89624039D01*
X147523000Y-89934189D01*
X147487658Y-90000311D01*
X147460566Y-90089621D01*
X147451418Y-90182500D01*
X147451418Y-90477500D01*
X147460566Y-90570379D01*
X147487658Y-90659689D01*
X147531652Y-90741997D01*
X147590859Y-90814141D01*
X147591906Y-90815000D01*
X147590859Y-90815859D01*
X147531652Y-90888003D01*
X147487658Y-90970311D01*
X147460566Y-91059621D01*
X147451418Y-91152500D01*
X147451418Y-91447500D01*
X147460566Y-91540379D01*
X147487658Y-91629689D01*
X147531652Y-91711997D01*
X147590859Y-91784141D01*
X147663003Y-91843348D01*
X147701450Y-91863898D01*
X148848752Y-93011200D01*
X148851472Y-93016289D01*
X148911080Y-93088921D01*
X148983712Y-93148529D01*
X149066578Y-93192822D01*
X149156493Y-93220097D01*
X149250000Y-93229307D01*
X149343508Y-93220097D01*
X149433423Y-93192822D01*
X149516289Y-93148529D01*
X149588921Y-93088921D01*
X149648529Y-93016289D01*
X149692822Y-92933423D01*
X149720097Y-92843508D01*
X149727000Y-92773422D01*
X149727000Y-92276578D01*
X150273000Y-92276578D01*
X150273000Y-92773423D01*
X150279904Y-92843508D01*
X150307179Y-92933423D01*
X150351472Y-93016289D01*
X150411080Y-93088921D01*
X150483712Y-93148529D01*
X150566578Y-93192822D01*
X150656493Y-93220097D01*
X150750000Y-93229307D01*
X150843508Y-93220097D01*
X150933423Y-93192822D01*
X151016289Y-93148529D01*
X151088921Y-93088921D01*
X151148529Y-93016289D01*
X151151250Y-93011198D01*
X152329537Y-91832911D01*
X152433296Y-91822691D01*
X152535972Y-91791545D01*
X152630598Y-91740966D01*
X152713539Y-91672898D01*
X153022898Y-91363539D01*
X153090966Y-91280598D01*
X153141545Y-91185972D01*
X153172691Y-91083296D01*
X153183208Y-90976517D01*
X153172691Y-90869738D01*
X153141545Y-90767062D01*
X153090966Y-90672436D01*
X153022898Y-90589495D01*
X152660505Y-90227102D01*
X152577564Y-90159034D01*
X152482938Y-90108455D01*
X152380262Y-90077309D01*
X152273483Y-90066792D01*
X152166704Y-90077309D01*
X152064028Y-90108455D01*
X151969402Y-90159034D01*
X151886461Y-90227102D01*
X151577102Y-90536461D01*
X151509034Y-90619402D01*
X151458455Y-90714028D01*
X151427309Y-90816704D01*
X151417089Y-90920463D01*
X150515223Y-91822329D01*
X150487021Y-91854488D01*
X150407561Y-91958042D01*
X150393300Y-91982743D01*
X150351471Y-92033711D01*
X150307178Y-92116578D01*
X150279903Y-92206493D01*
X150273000Y-92276578D01*
X149727000Y-92276578D01*
X149727000Y-92250000D01*
X149720717Y-92186206D01*
X149702109Y-92124863D01*
X149666754Y-92039508D01*
X149636536Y-91982974D01*
X149595869Y-91933421D01*
X148741331Y-91078883D01*
X148739434Y-91059621D01*
X148712342Y-90970311D01*
X148668348Y-90888003D01*
X148609141Y-90815859D01*
X148608094Y-90815000D01*
X148609141Y-90814141D01*
X148668348Y-90741997D01*
X148712342Y-90659689D01*
X148739434Y-90570379D01*
X148748582Y-90477500D01*
X148748582Y-90182500D01*
X148739434Y-90089621D01*
X148712342Y-90000311D01*
X148677000Y-89934190D01*
X148677000Y-89624038D01*
X148687342Y-89604689D01*
X148714434Y-89515379D01*
X148723582Y-89422500D01*
X148723582Y-89077500D01*
X148714434Y-88984621D01*
X148687342Y-88895311D01*
X148677000Y-88875962D01*
X148677000Y-88524038D01*
X148687342Y-88504689D01*
X148714434Y-88415379D01*
X148723582Y-88322500D01*
X148723582Y-87977500D01*
X148714434Y-87884621D01*
X148687342Y-87795311D01*
X148677000Y-87775962D01*
X148677000Y-86990234D01*
X148677021Y-86990213D01*
X148736228Y-86918069D01*
X148780222Y-86835761D01*
X148807314Y-86746451D01*
X148816462Y-86653572D01*
X148816329Y-86652223D01*
X148817678Y-86652356D01*
X148910557Y-86643208D01*
X148999867Y-86616116D01*
X149082175Y-86572122D01*
X149154319Y-86512915D01*
X149362915Y-86304319D01*
X149422122Y-86232175D01*
X149466116Y-86149867D01*
X149487880Y-86078121D01*
X150006948Y-85559053D01*
X150030846Y-85579666D01*
X150041113Y-85589442D01*
X150052290Y-85598164D01*
X150063015Y-85607416D01*
X150074597Y-85615573D01*
X150145720Y-85671077D01*
X150156445Y-85680329D01*
X150168028Y-85688487D01*
X150179206Y-85697210D01*
X150191181Y-85704793D01*
X150264932Y-85756734D01*
X150276100Y-85765450D01*
X150288069Y-85773030D01*
X150299659Y-85781192D01*
X150311991Y-85788178D01*
X150388203Y-85836439D01*
X150399790Y-85844600D01*
X150412118Y-85851584D01*
X150424090Y-85859165D01*
X150436749Y-85865537D01*
X150515253Y-85910008D01*
X150527211Y-85917581D01*
X150539855Y-85923946D01*
X150552202Y-85930940D01*
X150565168Y-85936687D01*
X150645743Y-85977246D01*
X150658063Y-85984225D01*
X150671004Y-85989961D01*
X150683674Y-85996339D01*
X150696909Y-86001444D01*
X150779364Y-86037994D01*
X150792023Y-86044366D01*
X150805248Y-86049468D01*
X150818203Y-86055210D01*
X150831655Y-86059654D01*
X150915818Y-86092119D01*
X150928775Y-86097863D01*
X150942235Y-86102309D01*
X150955452Y-86107408D01*
X150969106Y-86111187D01*
X151054760Y-86139483D01*
X151067984Y-86144584D01*
X151081647Y-86148365D01*
X151095102Y-86152810D01*
X151108926Y-86155914D01*
X151195869Y-86179975D01*
X151209328Y-86184421D01*
X151223155Y-86187526D01*
X151236807Y-86191304D01*
X151250768Y-86193727D01*
X151338793Y-86213493D01*
X151352448Y-86217272D01*
X151366409Y-86219694D01*
X151380239Y-86222800D01*
X151394306Y-86224535D01*
X151483179Y-86239955D01*
X151497008Y-86243061D01*
X151511079Y-86244797D01*
X151525035Y-86247218D01*
X151539158Y-86248260D01*
X151628697Y-86259303D01*
X151642660Y-86261726D01*
X151656795Y-86262769D01*
X151670857Y-86264503D01*
X151685019Y-86264851D01*
X151774996Y-86271488D01*
X151789048Y-86273221D01*
X151803208Y-86273569D01*
X151817352Y-86274612D01*
X151831524Y-86274264D01*
X151914597Y-86276304D01*
X151921664Y-86277000D01*
X151942945Y-86277000D01*
X151964162Y-86277521D01*
X151971226Y-86277000D01*
X152064840Y-86277000D01*
X152119228Y-86343272D01*
X152202169Y-86411340D01*
X152296795Y-86461919D01*
X152399471Y-86493065D01*
X152506250Y-86503582D01*
X152687581Y-86503582D01*
X153469173Y-87285174D01*
X153490937Y-87356920D01*
X153534931Y-87439228D01*
X153594138Y-87511372D01*
X153802734Y-87719968D01*
X153874878Y-87779175D01*
X153957186Y-87823169D01*
X154046496Y-87850261D01*
X154139375Y-87859409D01*
X154140724Y-87859276D01*
X154140591Y-87860625D01*
X154149739Y-87953504D01*
X154176831Y-88042814D01*
X154220825Y-88125122D01*
X154280032Y-88197266D01*
X154488628Y-88405862D01*
X154560772Y-88465069D01*
X154643080Y-88509063D01*
X154652236Y-88511840D01*
X154943070Y-88856730D01*
X154749899Y-89178683D01*
X154720311Y-89187658D01*
X154638003Y-89231652D01*
X154604306Y-89259306D01*
X153969988Y-89259306D01*
X153967806Y-89259059D01*
X153953730Y-89258855D01*
X153929439Y-89257712D01*
X153917481Y-89256690D01*
X153774199Y-89113408D01*
X153691258Y-89045340D01*
X153596632Y-88994761D01*
X153493956Y-88963615D01*
X153387177Y-88953098D01*
X153280398Y-88963615D01*
X153177722Y-88994761D01*
X153083096Y-89045340D01*
X153000155Y-89113408D01*
X152690796Y-89422767D01*
X152622728Y-89505708D01*
X152572149Y-89600334D01*
X152541003Y-89703010D01*
X152530486Y-89809789D01*
X152541003Y-89916568D01*
X152572149Y-90019244D01*
X152622728Y-90113870D01*
X152690796Y-90196811D01*
X153053189Y-90559204D01*
X153136130Y-90627272D01*
X153230756Y-90677851D01*
X153333432Y-90708997D01*
X153440211Y-90719514D01*
X153546990Y-90708997D01*
X153649666Y-90677851D01*
X153744292Y-90627272D01*
X153827233Y-90559204D01*
X153973131Y-90413306D01*
X154723489Y-90413306D01*
X154809621Y-90439434D01*
X154902500Y-90448582D01*
X155197500Y-90448582D01*
X155290379Y-90439434D01*
X155379689Y-90412342D01*
X155461997Y-90368348D01*
X155534141Y-90309141D01*
X155593348Y-90236997D01*
X155637342Y-90154689D01*
X155664434Y-90065379D01*
X155673582Y-89972500D01*
X155673582Y-89882181D01*
X155950100Y-89421318D01*
X155979689Y-89412342D01*
X156061997Y-89368348D01*
X156134141Y-89309141D01*
X156193348Y-89236997D01*
X156237342Y-89154689D01*
X156264434Y-89065379D01*
X156273582Y-88972500D01*
X156273582Y-88627500D01*
X156264434Y-88534621D01*
X156237342Y-88445311D01*
X156193348Y-88363003D01*
X156134141Y-88290859D01*
X156061997Y-88231652D01*
X155979689Y-88187658D01*
X155890379Y-88160566D01*
X155863305Y-88157899D01*
X155540343Y-87774912D01*
X155536155Y-87732390D01*
X155509063Y-87643080D01*
X155465069Y-87560772D01*
X155405862Y-87488628D01*
X155197266Y-87280032D01*
X155125122Y-87220825D01*
X155042814Y-87176831D01*
X154953504Y-87149739D01*
X154860625Y-87140591D01*
X154859276Y-87140724D01*
X154859409Y-87139375D01*
X154850261Y-87046496D01*
X154823169Y-86957186D01*
X154779175Y-86874878D01*
X154719968Y-86802734D01*
X154511372Y-86594138D01*
X154439228Y-86534931D01*
X154356920Y-86490937D01*
X154285174Y-86469173D01*
X153543720Y-85727719D01*
X153542086Y-85725302D01*
X153531439Y-85712470D01*
X153513294Y-85689339D01*
X153498812Y-85669604D01*
X153491082Y-85658177D01*
X153491082Y-85443750D01*
X153480565Y-85336971D01*
X153449419Y-85234295D01*
X153398840Y-85139669D01*
X153330772Y-85056728D01*
X153247831Y-84988660D01*
X153153205Y-84938081D01*
X153050529Y-84906935D01*
X152943750Y-84896418D01*
X152506250Y-84896418D01*
X152399471Y-84906935D01*
X152296795Y-84938081D01*
X152202169Y-84988660D01*
X152119228Y-85056728D01*
X152064840Y-85123000D01*
X151957062Y-85123000D01*
X151859873Y-85120613D01*
X151769936Y-85113979D01*
X151680450Y-85102943D01*
X151591609Y-85087528D01*
X151503623Y-85067770D01*
X151416744Y-85043727D01*
X151331115Y-85015439D01*
X151246991Y-84982988D01*
X151164570Y-84946454D01*
X151084025Y-84905911D01*
X151077000Y-84901931D01*
X151077000Y-84256061D01*
X151078582Y-84240000D01*
X151078582Y-79337000D01*
X164560660Y-79337000D01*
X164616870Y-79383130D01*
X164663001Y-79439341D01*
X164663001Y-92671418D01*
X159860000Y-92671418D01*
X159795897Y-92677732D01*
X159770344Y-92685483D01*
X159738871Y-92688583D01*
X159535856Y-92750167D01*
X159348756Y-92850174D01*
X159184761Y-92984761D01*
X159157787Y-93017629D01*
X159146662Y-93028158D01*
X159041815Y-93071572D01*
X158927914Y-93104414D01*
X158897500Y-93101418D01*
X158602500Y-93101418D01*
X158586438Y-93103000D01*
X157943562Y-93103000D01*
X157927500Y-93101418D01*
X157632500Y-93101418D01*
X157539621Y-93110566D01*
X157450311Y-93137658D01*
X157368003Y-93181652D01*
X157295859Y-93240859D01*
X157289153Y-93249030D01*
X157289058Y-93249103D01*
X157280452Y-93257160D01*
X157262411Y-93271312D01*
X157243349Y-93283719D01*
X157222685Y-93294717D01*
X157199775Y-93304484D01*
X157174090Y-93312989D01*
X157145033Y-93320112D01*
X157112281Y-93325582D01*
X157075533Y-93329103D01*
X157055499Y-93329716D01*
X157049058Y-93330500D01*
X155520561Y-93330500D01*
X155512931Y-93329613D01*
X155465839Y-93328786D01*
X155380029Y-93323936D01*
X155303735Y-93316173D01*
X155237274Y-93305880D01*
X155181177Y-93293644D01*
X155135753Y-93280256D01*
X155101301Y-93266840D01*
X155077650Y-93254793D01*
X155064007Y-93245701D01*
X155060275Y-93242414D01*
X154998698Y-93199637D01*
X154976968Y-93190601D01*
X154924689Y-93162658D01*
X154835379Y-93135566D01*
X154742500Y-93126418D01*
X154635497Y-93126418D01*
X154600794Y-93123000D01*
X154117932Y-93123000D01*
X154098601Y-93112667D01*
X154074776Y-93105440D01*
X154050000Y-93103000D01*
X153803562Y-93103000D01*
X153787500Y-93101418D01*
X153492500Y-93101418D01*
X153476438Y-93103000D01*
X152833562Y-93103000D01*
X152817500Y-93101418D01*
X152522500Y-93101418D01*
X152429621Y-93110566D01*
X152340311Y-93137658D01*
X152258003Y-93181652D01*
X152185859Y-93240859D01*
X152174903Y-93254209D01*
X152167604Y-93256824D01*
X152127682Y-93267521D01*
X152076615Y-93277552D01*
X152015050Y-93286072D01*
X151943524Y-93292533D01*
X151862493Y-93296577D01*
X151849153Y-93296782D01*
X151793508Y-93279903D01*
X151723423Y-93273000D01*
X151226577Y-93273000D01*
X151156492Y-93279903D01*
X151066577Y-93307178D01*
X150983711Y-93351471D01*
X150911079Y-93411079D01*
X150851471Y-93483711D01*
X150807178Y-93566577D01*
X150779903Y-93656492D01*
X150770693Y-93750000D01*
X150779903Y-93843508D01*
X150807178Y-93933423D01*
X150851471Y-94016289D01*
X150911079Y-94088921D01*
X150983711Y-94148529D01*
X151066577Y-94192822D01*
X151156492Y-94220097D01*
X151226577Y-94227000D01*
X151723423Y-94227000D01*
X151793508Y-94220097D01*
X151849155Y-94203217D01*
X151862493Y-94203422D01*
X151943524Y-94207466D01*
X152015050Y-94213927D01*
X152076615Y-94222447D01*
X152127682Y-94232478D01*
X152167604Y-94243175D01*
X152174902Y-94245790D01*
X152185859Y-94259141D01*
X152258003Y-94318348D01*
X152340311Y-94362342D01*
X152429621Y-94389434D01*
X152522500Y-94398582D01*
X152817500Y-94398582D01*
X152833562Y-94397000D01*
X153476438Y-94397000D01*
X153492500Y-94398582D01*
X153787500Y-94398582D01*
X153803562Y-94397000D01*
X154050000Y-94397000D01*
X154074776Y-94394560D01*
X154098601Y-94387333D01*
X154117932Y-94377000D01*
X154600794Y-94377000D01*
X154635497Y-94373582D01*
X154742500Y-94373582D01*
X154835379Y-94364434D01*
X154924689Y-94337342D01*
X154978389Y-94308639D01*
X155008258Y-94295029D01*
X155060284Y-94257579D01*
X155064010Y-94254297D01*
X155077650Y-94245207D01*
X155101301Y-94233160D01*
X155135753Y-94219744D01*
X155181177Y-94206356D01*
X155237274Y-94194120D01*
X155303735Y-94183827D01*
X155380029Y-94176064D01*
X155465840Y-94171214D01*
X155512925Y-94170388D01*
X155520713Y-94169500D01*
X157049447Y-94169500D01*
X157055511Y-94170285D01*
X157075532Y-94170897D01*
X157112281Y-94174418D01*
X157145033Y-94179888D01*
X157174090Y-94187011D01*
X157199775Y-94195516D01*
X157222685Y-94205283D01*
X157243349Y-94216281D01*
X157262411Y-94228688D01*
X157280446Y-94242835D01*
X157289050Y-94250891D01*
X157289146Y-94250961D01*
X157295859Y-94259141D01*
X157368003Y-94318348D01*
X157450311Y-94362342D01*
X157539621Y-94389434D01*
X157632500Y-94398582D01*
X157927500Y-94398582D01*
X157943562Y-94397000D01*
X158586438Y-94397000D01*
X158602500Y-94398582D01*
X158897500Y-94398582D01*
X158927914Y-94395586D01*
X159041815Y-94428428D01*
X159146662Y-94471842D01*
X159157787Y-94482371D01*
X159184761Y-94515239D01*
X159348756Y-94649826D01*
X159535856Y-94749833D01*
X159738871Y-94811417D01*
X159770344Y-94814517D01*
X159795897Y-94822268D01*
X159860000Y-94828582D01*
X164663000Y-94828582D01*
X164663000Y-108560660D01*
X164616870Y-108616870D01*
X164560660Y-108663000D01*
X135439340Y-108663000D01*
X135383130Y-108616870D01*
X135337000Y-108560660D01*
X135337000Y-94828582D01*
X140140000Y-94828582D01*
X140204103Y-94822268D01*
X140229656Y-94814517D01*
X140261129Y-94811417D01*
X140464144Y-94749833D01*
X140651244Y-94649826D01*
X140815239Y-94515239D01*
X140842211Y-94482373D01*
X140887971Y-94439064D01*
X140958691Y-94381864D01*
X141031535Y-94332108D01*
X141106830Y-94289371D01*
X141185014Y-94253305D01*
X141266597Y-94223685D01*
X141352170Y-94200406D01*
X141442214Y-94183527D01*
X141537227Y-94173206D01*
X141643067Y-94169500D01*
X141933705Y-94169500D01*
X141939225Y-94170239D01*
X141954131Y-94170760D01*
X141981652Y-94173741D01*
X142006508Y-94178390D01*
X142029148Y-94184536D01*
X142050097Y-94192128D01*
X142069910Y-94201254D01*
X142089121Y-94212144D01*
X142108154Y-94225133D01*
X142127361Y-94240659D01*
X142136918Y-94249703D01*
X142164785Y-94270190D01*
X142193003Y-94293348D01*
X142275311Y-94337342D01*
X142364621Y-94364434D01*
X142457500Y-94373582D01*
X142601656Y-94373582D01*
X142603907Y-94374291D01*
X142628656Y-94376993D01*
X143286559Y-94383955D01*
X143304621Y-94389434D01*
X143397500Y-94398582D01*
X143692500Y-94398582D01*
X143785379Y-94389434D01*
X143786018Y-94389240D01*
X144331230Y-94395010D01*
X144367500Y-94398582D01*
X144662500Y-94398582D01*
X144678562Y-94397000D01*
X146186438Y-94397000D01*
X146202500Y-94398582D01*
X146497500Y-94398582D01*
X146513562Y-94397000D01*
X147156438Y-94397000D01*
X147172500Y-94398582D01*
X147467500Y-94398582D01*
X147560379Y-94389434D01*
X147649689Y-94362342D01*
X147731997Y-94318348D01*
X147804141Y-94259141D01*
X147819609Y-94240293D01*
X147823799Y-94236908D01*
X147835688Y-94228803D01*
X147847444Y-94222147D01*
X147859548Y-94216582D01*
X147872499Y-94211898D01*
X147886892Y-94207999D01*
X147903204Y-94204956D01*
X147922311Y-94202891D01*
X147931536Y-94202546D01*
X147935838Y-94202000D01*
X148146833Y-94202000D01*
X148206492Y-94220097D01*
X148276577Y-94227000D01*
X148773423Y-94227000D01*
X148843508Y-94220097D01*
X148933423Y-94192822D01*
X149016289Y-94148529D01*
X149088921Y-94088921D01*
X149148529Y-94016289D01*
X149192822Y-93933423D01*
X149220097Y-93843508D01*
X149229307Y-93750000D01*
X149220097Y-93656492D01*
X149192822Y-93566577D01*
X149148529Y-93483711D01*
X149088921Y-93411079D01*
X149016289Y-93351471D01*
X148933423Y-93307178D01*
X148843508Y-93279903D01*
X148773423Y-93273000D01*
X148276577Y-93273000D01*
X148206492Y-93279903D01*
X148146833Y-93298000D01*
X147935554Y-93298000D01*
X147931553Y-93297454D01*
X147922309Y-93297108D01*
X147903206Y-93295043D01*
X147886892Y-93292000D01*
X147872499Y-93288101D01*
X147859548Y-93283417D01*
X147847444Y-93277852D01*
X147835688Y-93271196D01*
X147823799Y-93263091D01*
X147819608Y-93259705D01*
X147804141Y-93240859D01*
X147731997Y-93181652D01*
X147649689Y-93137658D01*
X147560379Y-93110566D01*
X147467500Y-93101418D01*
X147172500Y-93101418D01*
X147156438Y-93103000D01*
X146513562Y-93103000D01*
X146497500Y-93101418D01*
X146202500Y-93101418D01*
X146186438Y-93103000D01*
X144678562Y-93103000D01*
X144662500Y-93101418D01*
X144367500Y-93101418D01*
X144351438Y-93103000D01*
X143708562Y-93103000D01*
X143692500Y-93101418D01*
X143397500Y-93101418D01*
X143334087Y-93107664D01*
X142627240Y-93123030D01*
X142605224Y-93125440D01*
X142602000Y-93126418D01*
X142457500Y-93126418D01*
X142364621Y-93135566D01*
X142275311Y-93162658D01*
X142193003Y-93206652D01*
X142187870Y-93210865D01*
X142187583Y-93211008D01*
X142136926Y-93250291D01*
X142127368Y-93259335D01*
X142108154Y-93274867D01*
X142089121Y-93287856D01*
X142069910Y-93298746D01*
X142050097Y-93307872D01*
X142029148Y-93315464D01*
X142006508Y-93321610D01*
X141981652Y-93326259D01*
X141954119Y-93329242D01*
X141939211Y-93329763D01*
X141933315Y-93330500D01*
X141643067Y-93330500D01*
X141537227Y-93326794D01*
X141442214Y-93316473D01*
X141352170Y-93299594D01*
X141266597Y-93276315D01*
X141185014Y-93246695D01*
X141106830Y-93210629D01*
X141031535Y-93167892D01*
X140958691Y-93118136D01*
X140887971Y-93060936D01*
X140842211Y-93017627D01*
X140815239Y-92984761D01*
X140651244Y-92850174D01*
X140464144Y-92750167D01*
X140261129Y-92688583D01*
X140229656Y-92685483D01*
X140204103Y-92677732D01*
X140140000Y-92671418D01*
X135337000Y-92671418D01*
X135337000Y-79439340D01*
X135383130Y-79383130D01*
X135439340Y-79337000D01*
X148921418Y-79337000D01*
X148921418Y-84240000D01*
G37*
%TD.AperFunction*%
%TD*%
D25*
%TO.N,/RFin*%
X140399574Y-93750000D02*
X139516249Y-94259271D01*
X139436297Y-94183601D01*
X139435554Y-94182951D01*
X139344651Y-94109426D01*
X139343827Y-94108813D01*
X139248848Y-94043938D01*
X139247954Y-94043380D01*
X139148897Y-93987155D01*
X139147948Y-93986668D01*
X139044813Y-93939093D01*
X139043827Y-93938687D01*
X138936616Y-93899762D01*
X138935616Y-93899445D01*
X138824327Y-93869170D01*
X138823333Y-93868942D01*
X138707967Y-93847317D01*
X138706999Y-93847174D01*
X138587556Y-93834199D01*
X138586628Y-93834133D01*
X138475364Y-93830237D01*
X138475364Y-93669763D01*
X138586628Y-93665867D01*
X138587556Y-93665801D01*
X138706999Y-93652826D01*
X138707967Y-93652683D01*
X138823333Y-93631058D01*
X138824327Y-93630830D01*
X138935616Y-93600555D01*
X138936616Y-93600238D01*
X139043827Y-93561313D01*
X139044813Y-93560907D01*
X139147948Y-93513332D01*
X139148897Y-93512845D01*
X139247954Y-93456620D01*
X139248848Y-93456062D01*
X139343827Y-93391187D01*
X139344651Y-93390574D01*
X139435554Y-93317049D01*
X139436297Y-93316399D01*
X139516249Y-93240729D01*
X140399574Y-93750000D01*
%TA.AperFunction,Conductor*%
D24*
G36*
X140399574Y-93750000D02*
G01*
X139516249Y-94259271D01*
X139436297Y-94183601D01*
X139435554Y-94182951D01*
X139344651Y-94109426D01*
X139343827Y-94108813D01*
X139248848Y-94043938D01*
X139247954Y-94043380D01*
X139148897Y-93987155D01*
X139147948Y-93986668D01*
X139044813Y-93939093D01*
X139043827Y-93938687D01*
X138936616Y-93899762D01*
X138935616Y-93899445D01*
X138824327Y-93869170D01*
X138823333Y-93868942D01*
X138707967Y-93847317D01*
X138706999Y-93847174D01*
X138587556Y-93834199D01*
X138586628Y-93834133D01*
X138475364Y-93830237D01*
X138475364Y-93669763D01*
X138586628Y-93665867D01*
X138587556Y-93665801D01*
X138706999Y-93652826D01*
X138707967Y-93652683D01*
X138823333Y-93631058D01*
X138824327Y-93630830D01*
X138935616Y-93600555D01*
X138936616Y-93600238D01*
X139043827Y-93561313D01*
X139044813Y-93560907D01*
X139147948Y-93513332D01*
X139148897Y-93512845D01*
X139247954Y-93456620D01*
X139248848Y-93456062D01*
X139343827Y-93391187D01*
X139344651Y-93390574D01*
X139435554Y-93317049D01*
X139436297Y-93316399D01*
X139516249Y-93240729D01*
X140399574Y-93750000D01*
G37*
%TD.AperFunction*%
%TD*%
D25*
%TO.N,/RFin*%
X140663702Y-93316399D02*
X140664445Y-93317049D01*
X140755348Y-93390574D01*
X140756172Y-93391187D01*
X140851151Y-93456062D01*
X140852045Y-93456620D01*
X140951102Y-93512845D01*
X140952051Y-93513332D01*
X141055186Y-93560907D01*
X141056172Y-93561313D01*
X141163383Y-93600238D01*
X141164383Y-93600555D01*
X141275672Y-93630830D01*
X141276666Y-93631058D01*
X141392032Y-93652683D01*
X141393000Y-93652826D01*
X141512443Y-93665801D01*
X141513371Y-93665867D01*
X141624636Y-93669763D01*
X141624636Y-93830237D01*
X141513371Y-93834133D01*
X141512443Y-93834199D01*
X141393000Y-93847174D01*
X141392032Y-93847317D01*
X141276666Y-93868942D01*
X141275672Y-93869170D01*
X141164383Y-93899445D01*
X141163383Y-93899762D01*
X141056172Y-93938687D01*
X141055186Y-93939093D01*
X140952051Y-93986668D01*
X140951102Y-93987155D01*
X140852045Y-94043380D01*
X140851151Y-94043938D01*
X140756172Y-94108813D01*
X140755348Y-94109426D01*
X140664445Y-94182951D01*
X140663702Y-94183601D01*
X140583750Y-94259271D01*
X139700426Y-93750000D01*
X140583750Y-93240729D01*
X140663702Y-93316399D01*
%TA.AperFunction,Conductor*%
D24*
G36*
X140663702Y-93316399D02*
G01*
X140664445Y-93317049D01*
X140755348Y-93390574D01*
X140756172Y-93391187D01*
X140851151Y-93456062D01*
X140852045Y-93456620D01*
X140951102Y-93512845D01*
X140952051Y-93513332D01*
X141055186Y-93560907D01*
X141056172Y-93561313D01*
X141163383Y-93600238D01*
X141164383Y-93600555D01*
X141275672Y-93630830D01*
X141276666Y-93631058D01*
X141392032Y-93652683D01*
X141393000Y-93652826D01*
X141512443Y-93665801D01*
X141513371Y-93665867D01*
X141624636Y-93669763D01*
X141624636Y-93830237D01*
X141513371Y-93834133D01*
X141512443Y-93834199D01*
X141393000Y-93847174D01*
X141392032Y-93847317D01*
X141276666Y-93868942D01*
X141275672Y-93869170D01*
X141164383Y-93899445D01*
X141163383Y-93899762D01*
X141056172Y-93938687D01*
X141055186Y-93939093D01*
X140952051Y-93986668D01*
X140951102Y-93987155D01*
X140852045Y-94043380D01*
X140851151Y-94043938D01*
X140756172Y-94108813D01*
X140755348Y-94109426D01*
X140664445Y-94182951D01*
X140663702Y-94183601D01*
X140583750Y-94259271D01*
X139700426Y-93750000D01*
X140583750Y-93240729D01*
X140663702Y-93316399D01*
G37*
%TD.AperFunction*%
%TD*%
D25*
%TO.N,/RFout*%
X160299574Y-93750000D02*
X159416249Y-94259271D01*
X159336297Y-94183601D01*
X159334330Y-94182075D01*
X159332426Y-94181091D01*
X159154859Y-94107566D01*
X159153518Y-94107097D01*
X158937700Y-94044869D01*
X158937700Y-93455131D01*
X159153518Y-93392903D01*
X159154859Y-93392434D01*
X159332426Y-93318909D01*
X159334621Y-93317736D01*
X159336297Y-93316399D01*
X159416249Y-93240729D01*
X160299574Y-93750000D01*
%TA.AperFunction,Conductor*%
D24*
G36*
X160299574Y-93750000D02*
G01*
X159416249Y-94259271D01*
X159336297Y-94183601D01*
X159334330Y-94182075D01*
X159332426Y-94181091D01*
X159154859Y-94107566D01*
X159153518Y-94107097D01*
X158937700Y-94044869D01*
X158937700Y-93455131D01*
X159153518Y-93392903D01*
X159154859Y-93392434D01*
X159332426Y-93318909D01*
X159334621Y-93317736D01*
X159336297Y-93316399D01*
X159416249Y-93240729D01*
X160299574Y-93750000D01*
G37*
%TD.AperFunction*%
%TD*%
D25*
%TO.N,/RFout*%
X160563702Y-93316399D02*
X160564445Y-93317049D01*
X160655348Y-93390574D01*
X160656172Y-93391187D01*
X160751151Y-93456062D01*
X160752045Y-93456620D01*
X160851102Y-93512845D01*
X160852051Y-93513332D01*
X160955186Y-93560907D01*
X160956172Y-93561313D01*
X161063383Y-93600238D01*
X161064383Y-93600555D01*
X161175672Y-93630830D01*
X161176666Y-93631058D01*
X161292032Y-93652683D01*
X161293000Y-93652826D01*
X161412443Y-93665801D01*
X161413371Y-93665867D01*
X161524636Y-93669763D01*
X161524636Y-93830237D01*
X161413371Y-93834133D01*
X161412443Y-93834199D01*
X161293000Y-93847174D01*
X161292032Y-93847317D01*
X161176666Y-93868942D01*
X161175672Y-93869170D01*
X161064383Y-93899445D01*
X161063383Y-93899762D01*
X160956172Y-93938687D01*
X160955186Y-93939093D01*
X160852051Y-93986668D01*
X160851102Y-93987155D01*
X160752045Y-94043380D01*
X160751151Y-94043938D01*
X160656172Y-94108813D01*
X160655348Y-94109426D01*
X160564445Y-94182951D01*
X160563702Y-94183601D01*
X160483750Y-94259271D01*
X159600426Y-93750000D01*
X160483750Y-93240729D01*
X160563702Y-93316399D01*
%TA.AperFunction,Conductor*%
D24*
G36*
X160563702Y-93316399D02*
G01*
X160564445Y-93317049D01*
X160655348Y-93390574D01*
X160656172Y-93391187D01*
X160751151Y-93456062D01*
X160752045Y-93456620D01*
X160851102Y-93512845D01*
X160852051Y-93513332D01*
X160955186Y-93560907D01*
X160956172Y-93561313D01*
X161063383Y-93600238D01*
X161064383Y-93600555D01*
X161175672Y-93630830D01*
X161176666Y-93631058D01*
X161292032Y-93652683D01*
X161293000Y-93652826D01*
X161412443Y-93665801D01*
X161413371Y-93665867D01*
X161524636Y-93669763D01*
X161524636Y-93830237D01*
X161413371Y-93834133D01*
X161412443Y-93834199D01*
X161293000Y-93847174D01*
X161292032Y-93847317D01*
X161176666Y-93868942D01*
X161175672Y-93869170D01*
X161064383Y-93899445D01*
X161063383Y-93899762D01*
X160956172Y-93938687D01*
X160955186Y-93939093D01*
X160852051Y-93986668D01*
X160851102Y-93987155D01*
X160752045Y-94043380D01*
X160751151Y-94043938D01*
X160656172Y-94108813D01*
X160655348Y-94109426D01*
X160564445Y-94182951D01*
X160563702Y-94183601D01*
X160483750Y-94259271D01*
X159600426Y-93750000D01*
X160483750Y-93240729D01*
X160563702Y-93316399D01*
G37*
%TD.AperFunction*%
%TD*%
D25*
%TO.N,Net-(L2-Pad1)*%
X148131266Y-91057142D02*
X148183304Y-91074488D01*
X148286054Y-91122568D01*
X148375007Y-91192967D01*
X149353879Y-92171839D01*
X149387300Y-92252525D01*
X149387300Y-92642683D01*
X149368545Y-92736970D01*
X149315133Y-92816907D01*
X149281963Y-92850077D01*
X149244972Y-92869014D01*
X149204942Y-92862907D01*
X149118725Y-92800765D01*
X147915933Y-91597973D01*
X147839529Y-91483626D01*
X147812700Y-91348749D01*
X147812700Y-91342672D01*
X147837952Y-91215721D01*
X147909201Y-91109090D01*
X147974485Y-91064343D01*
X148051593Y-91046140D01*
X148131266Y-91057142D01*
%TA.AperFunction,Conductor*%
D24*
G36*
X148131266Y-91057142D02*
G01*
X148183304Y-91074488D01*
X148286054Y-91122568D01*
X148375007Y-91192967D01*
X149353879Y-92171839D01*
X149387300Y-92252525D01*
X149387300Y-92642683D01*
X149368545Y-92736970D01*
X149315133Y-92816907D01*
X149281963Y-92850077D01*
X149244972Y-92869014D01*
X149204942Y-92862907D01*
X149118725Y-92800765D01*
X147915933Y-91597973D01*
X147839529Y-91483626D01*
X147812700Y-91348749D01*
X147812700Y-91342672D01*
X147837952Y-91215721D01*
X147909201Y-91109090D01*
X147974485Y-91064343D01*
X148051593Y-91046140D01*
X148131266Y-91057142D01*
G37*
%TD.AperFunction*%
%TD*%
D25*
%TO.N,Net-(L5-Pad1)*%
X152291813Y-90792986D02*
X152390844Y-90859156D01*
X152457014Y-90958187D01*
X152480249Y-91075000D01*
X152457014Y-91191813D01*
X152390133Y-91291907D01*
X150881275Y-92800765D01*
X150795058Y-92862907D01*
X150755028Y-92869014D01*
X150718037Y-92850077D01*
X150684867Y-92816907D01*
X150631455Y-92736970D01*
X150612700Y-92642683D01*
X150612700Y-92407937D01*
X150629410Y-92281012D01*
X150678080Y-92163513D01*
X150756018Y-92061942D01*
X151958093Y-90859867D01*
X152058187Y-90792986D01*
X152175000Y-90769751D01*
X152291813Y-90792986D01*
%TA.AperFunction,Conductor*%
D24*
G36*
X152291813Y-90792986D02*
G01*
X152390844Y-90859156D01*
X152457014Y-90958187D01*
X152480249Y-91075000D01*
X152457014Y-91191813D01*
X152390133Y-91291907D01*
X150881275Y-92800765D01*
X150795058Y-92862907D01*
X150755028Y-92869014D01*
X150718037Y-92850077D01*
X150684867Y-92816907D01*
X150631455Y-92736970D01*
X150612700Y-92642683D01*
X150612700Y-92407937D01*
X150629410Y-92281012D01*
X150678080Y-92163513D01*
X150756018Y-92061942D01*
X151958093Y-90859867D01*
X152058187Y-90792986D01*
X152175000Y-90769751D01*
X152291813Y-90792986D01*
G37*
%TD.AperFunction*%
%TD*%
D25*
%TO.N,VDC*%
X150737300Y-85432380D02*
X150004016Y-85187952D01*
X150001588Y-85187400D01*
X149999100Y-85187332D01*
X149996646Y-85187751D01*
X149995283Y-85188208D01*
X149262700Y-85481241D01*
X149262700Y-83762700D01*
X150737300Y-83762700D01*
X150737300Y-85432380D01*
%TA.AperFunction,Conductor*%
D24*
G36*
X150737300Y-85432380D02*
G01*
X150004016Y-85187952D01*
X150001588Y-85187400D01*
X149999100Y-85187332D01*
X149996646Y-85187751D01*
X149995283Y-85188208D01*
X149262700Y-85481241D01*
X149262700Y-83762700D01*
X150737300Y-83762700D01*
X150737300Y-85432380D01*
G37*
%TD.AperFunction*%
%TD*%
D25*
%TO.N,Net-(C9-Pad2)*%
X147574783Y-93496845D02*
X147584447Y-93505988D01*
X147584814Y-93506322D01*
X147590698Y-93511468D01*
X147591078Y-93511787D01*
X147617495Y-93533128D01*
X147617902Y-93533443D01*
X147624414Y-93538281D01*
X147624834Y-93538581D01*
X147652145Y-93557199D01*
X147652588Y-93557487D01*
X147659651Y-93561883D01*
X147660105Y-93562153D01*
X147688411Y-93578178D01*
X147688882Y-93578431D01*
X147696371Y-93582264D01*
X147696851Y-93582498D01*
X147726292Y-93596035D01*
X147726781Y-93596247D01*
X147734544Y-93599429D01*
X147735041Y-93599621D01*
X147765779Y-93610739D01*
X147766277Y-93610907D01*
X147774145Y-93613390D01*
X147774647Y-93613537D01*
X147806851Y-93622260D01*
X147807343Y-93622383D01*
X147815149Y-93624166D01*
X147815648Y-93624270D01*
X147849477Y-93630581D01*
X147849958Y-93630661D01*
X147857553Y-93631778D01*
X147858037Y-93631839D01*
X147893759Y-93635699D01*
X147894204Y-93635740D01*
X147901204Y-93636248D01*
X147901647Y-93636272D01*
X147913713Y-93636724D01*
X147927300Y-93650830D01*
X147927300Y-93849170D01*
X147913713Y-93863276D01*
X147901650Y-93863727D01*
X147901206Y-93863751D01*
X147894202Y-93864259D01*
X147893757Y-93864300D01*
X147858037Y-93868160D01*
X147857553Y-93868221D01*
X147849958Y-93869338D01*
X147849477Y-93869418D01*
X147815648Y-93875729D01*
X147815149Y-93875833D01*
X147807343Y-93877616D01*
X147806851Y-93877739D01*
X147774647Y-93886462D01*
X147774145Y-93886609D01*
X147766277Y-93889092D01*
X147765779Y-93889260D01*
X147735041Y-93900378D01*
X147734544Y-93900570D01*
X147726781Y-93903752D01*
X147726292Y-93903964D01*
X147696851Y-93917501D01*
X147696371Y-93917735D01*
X147688882Y-93921568D01*
X147688411Y-93921821D01*
X147660105Y-93937846D01*
X147659651Y-93938116D01*
X147652588Y-93942512D01*
X147652145Y-93942800D01*
X147624834Y-93961418D01*
X147624414Y-93961718D01*
X147617902Y-93966556D01*
X147617495Y-93966871D01*
X147591078Y-93988212D01*
X147590698Y-93988531D01*
X147584813Y-93993678D01*
X147584446Y-93994013D01*
X147574784Y-94003155D01*
X147549019Y-94006192D01*
X147322700Y-93875711D01*
X147322700Y-93624289D01*
X147549019Y-93493808D01*
X147574783Y-93496845D01*
%TA.AperFunction,Conductor*%
D24*
G36*
X147574783Y-93496845D02*
G01*
X147584447Y-93505988D01*
X147584814Y-93506322D01*
X147590698Y-93511468D01*
X147591078Y-93511787D01*
X147617495Y-93533128D01*
X147617902Y-93533443D01*
X147624414Y-93538281D01*
X147624834Y-93538581D01*
X147652145Y-93557199D01*
X147652588Y-93557487D01*
X147659651Y-93561883D01*
X147660105Y-93562153D01*
X147688411Y-93578178D01*
X147688882Y-93578431D01*
X147696371Y-93582264D01*
X147696851Y-93582498D01*
X147726292Y-93596035D01*
X147726781Y-93596247D01*
X147734544Y-93599429D01*
X147735041Y-93599621D01*
X147765779Y-93610739D01*
X147766277Y-93610907D01*
X147774145Y-93613390D01*
X147774647Y-93613537D01*
X147806851Y-93622260D01*
X147807343Y-93622383D01*
X147815149Y-93624166D01*
X147815648Y-93624270D01*
X147849477Y-93630581D01*
X147849958Y-93630661D01*
X147857553Y-93631778D01*
X147858037Y-93631839D01*
X147893759Y-93635699D01*
X147894204Y-93635740D01*
X147901204Y-93636248D01*
X147901647Y-93636272D01*
X147913713Y-93636724D01*
X147927300Y-93650830D01*
X147927300Y-93849170D01*
X147913713Y-93863276D01*
X147901650Y-93863727D01*
X147901206Y-93863751D01*
X147894202Y-93864259D01*
X147893757Y-93864300D01*
X147858037Y-93868160D01*
X147857553Y-93868221D01*
X147849958Y-93869338D01*
X147849477Y-93869418D01*
X147815648Y-93875729D01*
X147815149Y-93875833D01*
X147807343Y-93877616D01*
X147806851Y-93877739D01*
X147774647Y-93886462D01*
X147774145Y-93886609D01*
X147766277Y-93889092D01*
X147765779Y-93889260D01*
X147735041Y-93900378D01*
X147734544Y-93900570D01*
X147726781Y-93903752D01*
X147726292Y-93903964D01*
X147696851Y-93917501D01*
X147696371Y-93917735D01*
X147688882Y-93921568D01*
X147688411Y-93921821D01*
X147660105Y-93937846D01*
X147659651Y-93938116D01*
X147652588Y-93942512D01*
X147652145Y-93942800D01*
X147624834Y-93961418D01*
X147624414Y-93961718D01*
X147617902Y-93966556D01*
X147617495Y-93966871D01*
X147591078Y-93988212D01*
X147590698Y-93988531D01*
X147584813Y-93993678D01*
X147584446Y-93994013D01*
X147574784Y-94003155D01*
X147549019Y-94006192D01*
X147322700Y-93875711D01*
X147322700Y-93624289D01*
X147549019Y-93493808D01*
X147574783Y-93496845D01*
G37*
%TD.AperFunction*%
%TD*%
D25*
%TO.N,/RFin*%
X142617300Y-93843327D02*
X142588548Y-93826750D01*
X142548949Y-93779597D01*
X142548949Y-93720403D01*
X142588548Y-93673250D01*
X142617300Y-93656673D01*
X142617300Y-93843327D01*
%TA.AperFunction,Conductor*%
D24*
G36*
X142617300Y-93843327D02*
G01*
X142588548Y-93826750D01*
X142548949Y-93779597D01*
X142548949Y-93720403D01*
X142588548Y-93673250D01*
X142617300Y-93656673D01*
X142617300Y-93843327D01*
G37*
%TD.AperFunction*%
%TD*%
D25*
%TO.N,VDC*%
X150076750Y-81483548D02*
X150486829Y-82194827D01*
X150493740Y-82231020D01*
X150476724Y-82263701D01*
X150442106Y-82296366D01*
X150438826Y-82299317D01*
X150375410Y-82353709D01*
X150370563Y-82357596D01*
X150317543Y-82397298D01*
X150309969Y-82402412D01*
X150269440Y-82426988D01*
X150256572Y-82433493D01*
X150233010Y-82443205D01*
X150209555Y-82449468D01*
X150203231Y-82450301D01*
X150179182Y-82448267D01*
X150160466Y-82436352D01*
X150147836Y-82414873D01*
X150145221Y-82407150D01*
X150140590Y-82384775D01*
X150139658Y-82373384D01*
X150139212Y-82370935D01*
X150138298Y-82368619D01*
X150136949Y-82366527D01*
X150135606Y-82365081D01*
X150109105Y-82340661D01*
X150107118Y-82339161D01*
X150104876Y-82338078D01*
X150102466Y-82337453D01*
X150100499Y-82337300D01*
X149899501Y-82337300D01*
X149897023Y-82337544D01*
X149894641Y-82338267D01*
X149892445Y-82339440D01*
X149890895Y-82340661D01*
X149864394Y-82365081D01*
X149862737Y-82366939D01*
X149861475Y-82369085D01*
X149860656Y-82371436D01*
X149860342Y-82373383D01*
X149859409Y-82384776D01*
X149854778Y-82407152D01*
X149852164Y-82414872D01*
X149839533Y-82436352D01*
X149820817Y-82448267D01*
X149796768Y-82450301D01*
X149790444Y-82449468D01*
X149766989Y-82443205D01*
X149743427Y-82433493D01*
X149730559Y-82426988D01*
X149690030Y-82402412D01*
X149682456Y-82397298D01*
X149629436Y-82357596D01*
X149624589Y-82353709D01*
X149561199Y-82299339D01*
X149557866Y-82296342D01*
X149523276Y-82263701D01*
X149506260Y-82231020D01*
X149513169Y-82194828D01*
X149923250Y-81483548D01*
X149970403Y-81443949D01*
X150029597Y-81443949D01*
X150076750Y-81483548D01*
%TA.AperFunction,Conductor*%
D24*
G36*
X150076750Y-81483548D02*
G01*
X150486829Y-82194827D01*
X150493740Y-82231020D01*
X150476724Y-82263701D01*
X150442106Y-82296366D01*
X150438826Y-82299317D01*
X150375410Y-82353709D01*
X150370563Y-82357596D01*
X150317543Y-82397298D01*
X150309969Y-82402412D01*
X150269440Y-82426988D01*
X150256572Y-82433493D01*
X150233010Y-82443205D01*
X150209555Y-82449468D01*
X150203231Y-82450301D01*
X150179182Y-82448267D01*
X150160466Y-82436352D01*
X150147836Y-82414873D01*
X150145221Y-82407150D01*
X150140590Y-82384775D01*
X150139658Y-82373384D01*
X150139212Y-82370935D01*
X150138298Y-82368619D01*
X150136949Y-82366527D01*
X150135606Y-82365081D01*
X150109105Y-82340661D01*
X150107118Y-82339161D01*
X150104876Y-82338078D01*
X150102466Y-82337453D01*
X150100499Y-82337300D01*
X149899501Y-82337300D01*
X149897023Y-82337544D01*
X149894641Y-82338267D01*
X149892445Y-82339440D01*
X149890895Y-82340661D01*
X149864394Y-82365081D01*
X149862737Y-82366939D01*
X149861475Y-82369085D01*
X149860656Y-82371436D01*
X149860342Y-82373383D01*
X149859409Y-82384776D01*
X149854778Y-82407152D01*
X149852164Y-82414872D01*
X149839533Y-82436352D01*
X149820817Y-82448267D01*
X149796768Y-82450301D01*
X149790444Y-82449468D01*
X149766989Y-82443205D01*
X149743427Y-82433493D01*
X149730559Y-82426988D01*
X149690030Y-82402412D01*
X149682456Y-82397298D01*
X149629436Y-82357596D01*
X149624589Y-82353709D01*
X149561199Y-82299339D01*
X149557866Y-82296342D01*
X149523276Y-82263701D01*
X149506260Y-82231020D01*
X149513169Y-82194828D01*
X149923250Y-81483548D01*
X149970403Y-81443949D01*
X150029597Y-81443949D01*
X150076750Y-81483548D01*
G37*
%TD.AperFunction*%
%TD*%
D25*
%TO.N,/RFin*%
X142617300Y-93621184D02*
X142617300Y-93878816D01*
X142400258Y-94003950D01*
X142367345Y-94000068D01*
X142354412Y-93987830D01*
X142354045Y-93987497D01*
X142348179Y-93982365D01*
X142347801Y-93982046D01*
X142314554Y-93955170D01*
X142314147Y-93954855D01*
X142307649Y-93950024D01*
X142307231Y-93949726D01*
X142272798Y-93926228D01*
X142272355Y-93925939D01*
X142265304Y-93921546D01*
X142264851Y-93921277D01*
X142229131Y-93901027D01*
X142228661Y-93900773D01*
X142221179Y-93896938D01*
X142220699Y-93896705D01*
X142183555Y-93879597D01*
X142183068Y-93879384D01*
X142175307Y-93876196D01*
X142174808Y-93876004D01*
X142136078Y-93861968D01*
X142135582Y-93861800D01*
X142127709Y-93859309D01*
X142127205Y-93859161D01*
X142086721Y-93848170D01*
X142086227Y-93848046D01*
X142078410Y-93846257D01*
X142077911Y-93846153D01*
X142035511Y-93838224D01*
X142035031Y-93838144D01*
X142027420Y-93837021D01*
X142026934Y-93836959D01*
X141982483Y-93832143D01*
X141982021Y-93832101D01*
X141974738Y-93831580D01*
X141974275Y-93831556D01*
X141956209Y-93830925D01*
X141936490Y-93810506D01*
X141936490Y-93689493D01*
X141956208Y-93669076D01*
X141974276Y-93668444D01*
X141974738Y-93668420D01*
X141982021Y-93667899D01*
X141982483Y-93667857D01*
X142026934Y-93663041D01*
X142027420Y-93662979D01*
X142035031Y-93661856D01*
X142035511Y-93661776D01*
X142077911Y-93653847D01*
X142078410Y-93653743D01*
X142086227Y-93651954D01*
X142086721Y-93651830D01*
X142127205Y-93640839D01*
X142127709Y-93640691D01*
X142135582Y-93638200D01*
X142136078Y-93638032D01*
X142174808Y-93623996D01*
X142175307Y-93623804D01*
X142183068Y-93620616D01*
X142183555Y-93620403D01*
X142220699Y-93603295D01*
X142221179Y-93603062D01*
X142228661Y-93599227D01*
X142229131Y-93598973D01*
X142264851Y-93578723D01*
X142265304Y-93578454D01*
X142272355Y-93574061D01*
X142272798Y-93573772D01*
X142307231Y-93550274D01*
X142307649Y-93549976D01*
X142314147Y-93545145D01*
X142314554Y-93544830D01*
X142347801Y-93517954D01*
X142348179Y-93517635D01*
X142354045Y-93512503D01*
X142354412Y-93512170D01*
X142367345Y-93499933D01*
X142400258Y-93496050D01*
X142617300Y-93621184D01*
%TA.AperFunction,Conductor*%
D24*
G36*
X142617300Y-93621184D02*
G01*
X142617300Y-93878816D01*
X142400258Y-94003950D01*
X142367345Y-94000068D01*
X142354412Y-93987830D01*
X142354045Y-93987497D01*
X142348179Y-93982365D01*
X142347801Y-93982046D01*
X142314554Y-93955170D01*
X142314147Y-93954855D01*
X142307649Y-93950024D01*
X142307231Y-93949726D01*
X142272798Y-93926228D01*
X142272355Y-93925939D01*
X142265304Y-93921546D01*
X142264851Y-93921277D01*
X142229131Y-93901027D01*
X142228661Y-93900773D01*
X142221179Y-93896938D01*
X142220699Y-93896705D01*
X142183555Y-93879597D01*
X142183068Y-93879384D01*
X142175307Y-93876196D01*
X142174808Y-93876004D01*
X142136078Y-93861968D01*
X142135582Y-93861800D01*
X142127709Y-93859309D01*
X142127205Y-93859161D01*
X142086721Y-93848170D01*
X142086227Y-93848046D01*
X142078410Y-93846257D01*
X142077911Y-93846153D01*
X142035511Y-93838224D01*
X142035031Y-93838144D01*
X142027420Y-93837021D01*
X142026934Y-93836959D01*
X141982483Y-93832143D01*
X141982021Y-93832101D01*
X141974738Y-93831580D01*
X141974275Y-93831556D01*
X141956209Y-93830925D01*
X141936490Y-93810506D01*
X141936490Y-93689493D01*
X141956208Y-93669076D01*
X141974276Y-93668444D01*
X141974738Y-93668420D01*
X141982021Y-93667899D01*
X141982483Y-93667857D01*
X142026934Y-93663041D01*
X142027420Y-93662979D01*
X142035031Y-93661856D01*
X142035511Y-93661776D01*
X142077911Y-93653847D01*
X142078410Y-93653743D01*
X142086227Y-93651954D01*
X142086721Y-93651830D01*
X142127205Y-93640839D01*
X142127709Y-93640691D01*
X142135582Y-93638200D01*
X142136078Y-93638032D01*
X142174808Y-93623996D01*
X142175307Y-93623804D01*
X142183068Y-93620616D01*
X142183555Y-93620403D01*
X142220699Y-93603295D01*
X142221179Y-93603062D01*
X142228661Y-93599227D01*
X142229131Y-93598973D01*
X142264851Y-93578723D01*
X142265304Y-93578454D01*
X142272355Y-93574061D01*
X142272798Y-93573772D01*
X142307231Y-93550274D01*
X142307649Y-93549976D01*
X142314147Y-93545145D01*
X142314554Y-93544830D01*
X142347801Y-93517954D01*
X142348179Y-93517635D01*
X142354045Y-93512503D01*
X142354412Y-93512170D01*
X142367345Y-93499933D01*
X142400258Y-93496050D01*
X142617300Y-93621184D01*
G37*
%TD.AperFunction*%
%TD*%
D25*
%TO.N,VDC*%
X150076750Y-81483548D02*
X150493632Y-82206625D01*
X150486899Y-82254900D01*
X150464306Y-82276837D01*
X150463544Y-82277569D01*
X150417850Y-82320949D01*
X150416782Y-82321949D01*
X150376920Y-82358700D01*
X150375530Y-82359957D01*
X150341720Y-82389914D01*
X150339729Y-82391629D01*
X150312333Y-82414566D01*
X150309217Y-82417063D01*
X150289377Y-82432271D01*
X150283762Y-82436257D01*
X150274517Y-82442317D01*
X150262166Y-82449130D01*
X150260753Y-82449774D01*
X150259008Y-82450144D01*
X150258425Y-82449755D01*
X150258372Y-82449720D01*
X150253498Y-82446502D01*
X150251296Y-82445340D01*
X150248910Y-82444631D01*
X150246501Y-82444400D01*
X149753499Y-82444400D01*
X149751021Y-82444644D01*
X149748639Y-82445367D01*
X149746502Y-82446502D01*
X149741628Y-82449720D01*
X149741575Y-82449755D01*
X149740992Y-82450144D01*
X149739247Y-82449774D01*
X149737834Y-82449130D01*
X149725483Y-82442317D01*
X149716238Y-82436257D01*
X149710623Y-82432271D01*
X149690783Y-82417063D01*
X149687667Y-82414566D01*
X149660271Y-82391629D01*
X149658280Y-82389914D01*
X149624470Y-82359957D01*
X149623080Y-82358700D01*
X149583218Y-82321949D01*
X149582150Y-82320949D01*
X149536456Y-82277569D01*
X149535694Y-82276837D01*
X149513101Y-82254900D01*
X149506368Y-82206625D01*
X149923250Y-81483548D01*
X149970403Y-81443949D01*
X150029597Y-81443949D01*
X150076750Y-81483548D01*
%TA.AperFunction,Conductor*%
D24*
G36*
X150076750Y-81483548D02*
G01*
X150493632Y-82206625D01*
X150486899Y-82254900D01*
X150464306Y-82276837D01*
X150463544Y-82277569D01*
X150417850Y-82320949D01*
X150416782Y-82321949D01*
X150376920Y-82358700D01*
X150375530Y-82359957D01*
X150341720Y-82389914D01*
X150339729Y-82391629D01*
X150312333Y-82414566D01*
X150309217Y-82417063D01*
X150289377Y-82432271D01*
X150283762Y-82436257D01*
X150274517Y-82442317D01*
X150262166Y-82449130D01*
X150260753Y-82449774D01*
X150259008Y-82450144D01*
X150258425Y-82449755D01*
X150258372Y-82449720D01*
X150253498Y-82446502D01*
X150251296Y-82445340D01*
X150248910Y-82444631D01*
X150246501Y-82444400D01*
X149753499Y-82444400D01*
X149751021Y-82444644D01*
X149748639Y-82445367D01*
X149746502Y-82446502D01*
X149741628Y-82449720D01*
X149741575Y-82449755D01*
X149740992Y-82450144D01*
X149739247Y-82449774D01*
X149737834Y-82449130D01*
X149725483Y-82442317D01*
X149716238Y-82436257D01*
X149710623Y-82432271D01*
X149690783Y-82417063D01*
X149687667Y-82414566D01*
X149660271Y-82391629D01*
X149658280Y-82389914D01*
X149624470Y-82359957D01*
X149623080Y-82358700D01*
X149583218Y-82321949D01*
X149582150Y-82320949D01*
X149536456Y-82277569D01*
X149535694Y-82276837D01*
X149513101Y-82254900D01*
X149506368Y-82206625D01*
X149923250Y-81483548D01*
X149970403Y-81443949D01*
X150029597Y-81443949D01*
X150076750Y-81483548D01*
G37*
%TD.AperFunction*%
%TD*%
D25*
%TO.N,VDC*%
X153147224Y-85713428D02*
X153150981Y-85717958D01*
X153152777Y-85729959D01*
X153152946Y-85730861D01*
X153154256Y-85736695D01*
X153154432Y-85737390D01*
X153157517Y-85748228D01*
X153157733Y-85748911D01*
X153161430Y-85759576D01*
X153161625Y-85760101D01*
X153164886Y-85768317D01*
X153165105Y-85768835D01*
X153171713Y-85783548D01*
X153171902Y-85783950D01*
X153174994Y-85790237D01*
X153175197Y-85790633D01*
X153184923Y-85808773D01*
X153185098Y-85809088D01*
X153187904Y-85813983D01*
X153188086Y-85814290D01*
X153200988Y-85835400D01*
X153201143Y-85835648D01*
X153203639Y-85839528D01*
X153203801Y-85839773D01*
X153219872Y-85863531D01*
X153220009Y-85863730D01*
X153222215Y-85866861D01*
X153222358Y-85867060D01*
X153241573Y-85893245D01*
X153241695Y-85893408D01*
X153243639Y-85895970D01*
X153243764Y-85896132D01*
X153266084Y-85924585D01*
X153266194Y-85924723D01*
X153267915Y-85926855D01*
X153268023Y-85926988D01*
X153277519Y-85938432D01*
X153276524Y-85959849D01*
X152958204Y-86278169D01*
X152951151Y-86280955D01*
X152944301Y-86277710D01*
X152933196Y-86265025D01*
X152933059Y-86264871D01*
X152930886Y-86262469D01*
X152930747Y-86262318D01*
X152906618Y-86236495D01*
X152906451Y-86236319D01*
X152903776Y-86233564D01*
X152903604Y-86233390D01*
X152881333Y-86211319D01*
X152881122Y-86211116D01*
X152877767Y-86207941D01*
X152877551Y-86207741D01*
X152857347Y-86189490D01*
X152857080Y-86189255D01*
X152852801Y-86185602D01*
X152852525Y-86185373D01*
X152834688Y-86170996D01*
X152834339Y-86170725D01*
X152828775Y-86166551D01*
X152828418Y-86166292D01*
X152813389Y-86155813D01*
X152812927Y-86155506D01*
X152805559Y-86150833D01*
X152805085Y-86150547D01*
X152793481Y-86143879D01*
X152792861Y-86143545D01*
X152782971Y-86138569D01*
X152782334Y-86138270D01*
X152774961Y-86135059D01*
X152774130Y-86134732D01*
X152760856Y-86130031D01*
X152760000Y-86129761D01*
X152757077Y-86128953D01*
X152755982Y-86128702D01*
X152743177Y-86126355D01*
X152738471Y-86122388D01*
X152628161Y-85711702D01*
X152633503Y-85650357D01*
X152675357Y-85608503D01*
X152736702Y-85603161D01*
X153147224Y-85713428D01*
%TA.AperFunction,Conductor*%
D24*
G36*
X153147224Y-85713428D02*
G01*
X153150981Y-85717958D01*
X153152777Y-85729959D01*
X153152946Y-85730861D01*
X153154256Y-85736695D01*
X153154432Y-85737390D01*
X153157517Y-85748228D01*
X153157733Y-85748911D01*
X153161430Y-85759576D01*
X153161625Y-85760101D01*
X153164886Y-85768317D01*
X153165105Y-85768835D01*
X153171713Y-85783548D01*
X153171902Y-85783950D01*
X153174994Y-85790237D01*
X153175197Y-85790633D01*
X153184923Y-85808773D01*
X153185098Y-85809088D01*
X153187904Y-85813983D01*
X153188086Y-85814290D01*
X153200988Y-85835400D01*
X153201143Y-85835648D01*
X153203639Y-85839528D01*
X153203801Y-85839773D01*
X153219872Y-85863531D01*
X153220009Y-85863730D01*
X153222215Y-85866861D01*
X153222358Y-85867060D01*
X153241573Y-85893245D01*
X153241695Y-85893408D01*
X153243639Y-85895970D01*
X153243764Y-85896132D01*
X153266084Y-85924585D01*
X153266194Y-85924723D01*
X153267915Y-85926855D01*
X153268023Y-85926988D01*
X153277519Y-85938432D01*
X153276524Y-85959849D01*
X152958204Y-86278169D01*
X152951151Y-86280955D01*
X152944301Y-86277710D01*
X152933196Y-86265025D01*
X152933059Y-86264871D01*
X152930886Y-86262469D01*
X152930747Y-86262318D01*
X152906618Y-86236495D01*
X152906451Y-86236319D01*
X152903776Y-86233564D01*
X152903604Y-86233390D01*
X152881333Y-86211319D01*
X152881122Y-86211116D01*
X152877767Y-86207941D01*
X152877551Y-86207741D01*
X152857347Y-86189490D01*
X152857080Y-86189255D01*
X152852801Y-86185602D01*
X152852525Y-86185373D01*
X152834688Y-86170996D01*
X152834339Y-86170725D01*
X152828775Y-86166551D01*
X152828418Y-86166292D01*
X152813389Y-86155813D01*
X152812927Y-86155506D01*
X152805559Y-86150833D01*
X152805085Y-86150547D01*
X152793481Y-86143879D01*
X152792861Y-86143545D01*
X152782971Y-86138569D01*
X152782334Y-86138270D01*
X152774961Y-86135059D01*
X152774130Y-86134732D01*
X152760856Y-86130031D01*
X152760000Y-86129761D01*
X152757077Y-86128953D01*
X152755982Y-86128702D01*
X152743177Y-86126355D01*
X152738471Y-86122388D01*
X152628161Y-85711702D01*
X152633503Y-85650357D01*
X152675357Y-85608503D01*
X152736702Y-85603161D01*
X153147224Y-85713428D01*
G37*
%TD.AperFunction*%
%TD*%
D25*
%TO.N,VDC*%
X152785202Y-85623250D02*
X152824801Y-85670403D01*
X152824801Y-85729597D01*
X152785202Y-85776750D01*
X152416838Y-85989127D01*
X152411070Y-85988592D01*
X152401085Y-85981286D01*
X152400283Y-85980744D01*
X152396640Y-85978483D01*
X152395959Y-85978089D01*
X152385041Y-85972217D01*
X152384335Y-85971865D01*
X152376190Y-85968116D01*
X152375608Y-85967866D01*
X152366336Y-85964147D01*
X152365741Y-85963925D01*
X152353045Y-85959556D01*
X152352555Y-85959399D01*
X152344811Y-85957080D01*
X152344317Y-85956943D01*
X152327255Y-85952576D01*
X152326850Y-85952479D01*
X152320423Y-85951057D01*
X152320012Y-85950973D01*
X152298829Y-85947014D01*
X152298488Y-85946955D01*
X152293123Y-85946103D01*
X152292783Y-85946054D01*
X152267706Y-85942764D01*
X152267419Y-85942730D01*
X152262924Y-85942244D01*
X152262640Y-85942216D01*
X152233863Y-85939758D01*
X152233623Y-85939740D01*
X152229812Y-85939487D01*
X152229568Y-85939473D01*
X152197245Y-85937952D01*
X152197039Y-85937944D01*
X152193789Y-85937844D01*
X152193582Y-85937839D01*
X152181027Y-85937657D01*
X152168950Y-85925404D01*
X152168950Y-85474596D01*
X152181027Y-85462342D01*
X152193583Y-85462160D01*
X152193790Y-85462155D01*
X152197038Y-85462055D01*
X152197244Y-85462047D01*
X152229568Y-85460526D01*
X152229812Y-85460512D01*
X152233623Y-85460259D01*
X152233863Y-85460241D01*
X152262640Y-85457783D01*
X152262924Y-85457755D01*
X152267419Y-85457269D01*
X152267706Y-85457235D01*
X152292785Y-85453945D01*
X152293126Y-85453896D01*
X152298487Y-85453044D01*
X152298827Y-85452985D01*
X152320009Y-85449027D01*
X152320419Y-85448943D01*
X152326852Y-85447520D01*
X152327258Y-85447423D01*
X152344319Y-85443056D01*
X152344815Y-85442919D01*
X152352555Y-85440600D01*
X152353042Y-85440443D01*
X152365740Y-85436074D01*
X152366336Y-85435852D01*
X152375608Y-85432133D01*
X152376190Y-85431883D01*
X152384335Y-85428134D01*
X152385041Y-85427782D01*
X152395959Y-85421910D01*
X152396640Y-85421516D01*
X152400285Y-85419254D01*
X152401087Y-85418713D01*
X152411072Y-85411408D01*
X152416838Y-85410873D01*
X152785202Y-85623250D01*
%TA.AperFunction,Conductor*%
D24*
G36*
X152785202Y-85623250D02*
G01*
X152824801Y-85670403D01*
X152824801Y-85729597D01*
X152785202Y-85776750D01*
X152416838Y-85989127D01*
X152411070Y-85988592D01*
X152401085Y-85981286D01*
X152400283Y-85980744D01*
X152396640Y-85978483D01*
X152395959Y-85978089D01*
X152385041Y-85972217D01*
X152384335Y-85971865D01*
X152376190Y-85968116D01*
X152375608Y-85967866D01*
X152366336Y-85964147D01*
X152365741Y-85963925D01*
X152353045Y-85959556D01*
X152352555Y-85959399D01*
X152344811Y-85957080D01*
X152344317Y-85956943D01*
X152327255Y-85952576D01*
X152326850Y-85952479D01*
X152320423Y-85951057D01*
X152320012Y-85950973D01*
X152298829Y-85947014D01*
X152298488Y-85946955D01*
X152293123Y-85946103D01*
X152292783Y-85946054D01*
X152267706Y-85942764D01*
X152267419Y-85942730D01*
X152262924Y-85942244D01*
X152262640Y-85942216D01*
X152233863Y-85939758D01*
X152233623Y-85939740D01*
X152229812Y-85939487D01*
X152229568Y-85939473D01*
X152197245Y-85937952D01*
X152197039Y-85937944D01*
X152193789Y-85937844D01*
X152193582Y-85937839D01*
X152181027Y-85937657D01*
X152168950Y-85925404D01*
X152168950Y-85474596D01*
X152181027Y-85462342D01*
X152193583Y-85462160D01*
X152193790Y-85462155D01*
X152197038Y-85462055D01*
X152197244Y-85462047D01*
X152229568Y-85460526D01*
X152229812Y-85460512D01*
X152233623Y-85460259D01*
X152233863Y-85460241D01*
X152262640Y-85457783D01*
X152262924Y-85457755D01*
X152267419Y-85457269D01*
X152267706Y-85457235D01*
X152292785Y-85453945D01*
X152293126Y-85453896D01*
X152298487Y-85453044D01*
X152298827Y-85452985D01*
X152320009Y-85449027D01*
X152320419Y-85448943D01*
X152326852Y-85447520D01*
X152327258Y-85447423D01*
X152344319Y-85443056D01*
X152344815Y-85442919D01*
X152352555Y-85440600D01*
X152353042Y-85440443D01*
X152365740Y-85436074D01*
X152366336Y-85435852D01*
X152375608Y-85432133D01*
X152376190Y-85431883D01*
X152384335Y-85428134D01*
X152385041Y-85427782D01*
X152395959Y-85421910D01*
X152396640Y-85421516D01*
X152400285Y-85419254D01*
X152401087Y-85418713D01*
X152411072Y-85411408D01*
X152416838Y-85410873D01*
X152785202Y-85623250D01*
G37*
%TD.AperFunction*%
%TD*%
D25*
%TO.N,Net-(C5-Pad1)*%
X153727624Y-89547714D02*
X153737608Y-89555019D01*
X153738410Y-89555561D01*
X153742053Y-89557822D01*
X153742734Y-89558216D01*
X153753652Y-89564088D01*
X153754358Y-89564440D01*
X153762503Y-89568189D01*
X153763085Y-89568439D01*
X153772357Y-89572158D01*
X153772953Y-89572380D01*
X153785651Y-89576749D01*
X153786138Y-89576906D01*
X153793878Y-89579225D01*
X153794374Y-89579362D01*
X153811435Y-89583729D01*
X153811841Y-89583826D01*
X153818274Y-89585249D01*
X153818684Y-89585333D01*
X153839866Y-89589291D01*
X153840206Y-89589350D01*
X153845567Y-89590202D01*
X153845908Y-89590251D01*
X153870987Y-89593541D01*
X153871274Y-89593575D01*
X153875769Y-89594061D01*
X153876053Y-89594089D01*
X153904830Y-89596547D01*
X153905070Y-89596565D01*
X153908881Y-89596818D01*
X153909125Y-89596832D01*
X153941449Y-89598353D01*
X153941655Y-89598361D01*
X153944903Y-89598461D01*
X153945110Y-89598466D01*
X153957667Y-89598648D01*
X153969744Y-89610902D01*
X153969744Y-90061710D01*
X153957667Y-90073963D01*
X153945111Y-90074145D01*
X153944905Y-90074150D01*
X153941654Y-90074250D01*
X153941447Y-90074258D01*
X153909125Y-90075779D01*
X153908881Y-90075793D01*
X153905070Y-90076046D01*
X153904830Y-90076064D01*
X153876053Y-90078522D01*
X153875769Y-90078550D01*
X153871274Y-90079036D01*
X153870987Y-90079070D01*
X153845910Y-90082360D01*
X153845570Y-90082409D01*
X153840205Y-90083261D01*
X153839864Y-90083320D01*
X153818681Y-90087279D01*
X153818270Y-90087363D01*
X153811843Y-90088785D01*
X153811438Y-90088882D01*
X153794376Y-90093249D01*
X153793882Y-90093386D01*
X153786138Y-90095705D01*
X153785648Y-90095862D01*
X153772952Y-90100231D01*
X153772357Y-90100453D01*
X153763085Y-90104172D01*
X153762503Y-90104422D01*
X153754358Y-90108171D01*
X153753652Y-90108523D01*
X153742734Y-90114395D01*
X153742052Y-90114790D01*
X153738411Y-90117050D01*
X153737610Y-90117591D01*
X153727624Y-90124898D01*
X153721856Y-90125433D01*
X153353492Y-89913056D01*
X153313893Y-89865903D01*
X153313893Y-89806709D01*
X153353492Y-89759556D01*
X153721857Y-89547179D01*
X153727624Y-89547714D01*
%TA.AperFunction,Conductor*%
D24*
G36*
X153727624Y-89547714D02*
G01*
X153737608Y-89555019D01*
X153738410Y-89555561D01*
X153742053Y-89557822D01*
X153742734Y-89558216D01*
X153753652Y-89564088D01*
X153754358Y-89564440D01*
X153762503Y-89568189D01*
X153763085Y-89568439D01*
X153772357Y-89572158D01*
X153772953Y-89572380D01*
X153785651Y-89576749D01*
X153786138Y-89576906D01*
X153793878Y-89579225D01*
X153794374Y-89579362D01*
X153811435Y-89583729D01*
X153811841Y-89583826D01*
X153818274Y-89585249D01*
X153818684Y-89585333D01*
X153839866Y-89589291D01*
X153840206Y-89589350D01*
X153845567Y-89590202D01*
X153845908Y-89590251D01*
X153870987Y-89593541D01*
X153871274Y-89593575D01*
X153875769Y-89594061D01*
X153876053Y-89594089D01*
X153904830Y-89596547D01*
X153905070Y-89596565D01*
X153908881Y-89596818D01*
X153909125Y-89596832D01*
X153941449Y-89598353D01*
X153941655Y-89598361D01*
X153944903Y-89598461D01*
X153945110Y-89598466D01*
X153957667Y-89598648D01*
X153969744Y-89610902D01*
X153969744Y-90061710D01*
X153957667Y-90073963D01*
X153945111Y-90074145D01*
X153944905Y-90074150D01*
X153941654Y-90074250D01*
X153941447Y-90074258D01*
X153909125Y-90075779D01*
X153908881Y-90075793D01*
X153905070Y-90076046D01*
X153904830Y-90076064D01*
X153876053Y-90078522D01*
X153875769Y-90078550D01*
X153871274Y-90079036D01*
X153870987Y-90079070D01*
X153845910Y-90082360D01*
X153845570Y-90082409D01*
X153840205Y-90083261D01*
X153839864Y-90083320D01*
X153818681Y-90087279D01*
X153818270Y-90087363D01*
X153811843Y-90088785D01*
X153811438Y-90088882D01*
X153794376Y-90093249D01*
X153793882Y-90093386D01*
X153786138Y-90095705D01*
X153785648Y-90095862D01*
X153772952Y-90100231D01*
X153772357Y-90100453D01*
X153763085Y-90104172D01*
X153762503Y-90104422D01*
X153754358Y-90108171D01*
X153753652Y-90108523D01*
X153742734Y-90114395D01*
X153742052Y-90114790D01*
X153738411Y-90117050D01*
X153737610Y-90117591D01*
X153727624Y-90124898D01*
X153721856Y-90125433D01*
X153353492Y-89913056D01*
X153313893Y-89865903D01*
X153313893Y-89806709D01*
X153353492Y-89759556D01*
X153721857Y-89547179D01*
X153727624Y-89547714D01*
G37*
%TD.AperFunction*%
%TD*%
D25*
%TO.N,Net-(R9-Pad2)*%
X152612300Y-93580609D02*
X152612300Y-93919392D01*
X152462557Y-94005724D01*
X152434074Y-94003016D01*
X152425657Y-93995741D01*
X152424930Y-93995158D01*
X152413176Y-93986419D01*
X152412410Y-93985892D01*
X152382290Y-93966752D01*
X152381624Y-93966357D01*
X152370964Y-93960463D01*
X152370276Y-93960109D01*
X152331457Y-93941635D01*
X152330876Y-93941376D01*
X152321631Y-93937532D01*
X152321039Y-93937303D01*
X152273387Y-93920230D01*
X152272892Y-93920064D01*
X152265047Y-93917612D01*
X152264545Y-93917467D01*
X152208165Y-93902360D01*
X152207746Y-93902255D01*
X152201138Y-93900723D01*
X152200718Y-93900633D01*
X152135799Y-93887881D01*
X152135446Y-93887817D01*
X152129879Y-93886886D01*
X152129525Y-93886832D01*
X152056265Y-93876694D01*
X152055965Y-93876656D01*
X152051254Y-93876118D01*
X152050956Y-93876088D01*
X151969527Y-93868732D01*
X151969271Y-93868711D01*
X151965259Y-93868430D01*
X151965005Y-93868415D01*
X151875553Y-93863951D01*
X151875336Y-93863942D01*
X151871892Y-93863829D01*
X151871671Y-93863824D01*
X151825611Y-93863115D01*
X151797091Y-93850914D01*
X151785330Y-93822209D01*
X151785330Y-93677791D01*
X151797091Y-93649086D01*
X151825611Y-93636884D01*
X151871673Y-93636175D01*
X151871894Y-93636170D01*
X151875337Y-93636057D01*
X151875553Y-93636048D01*
X151965005Y-93631584D01*
X151965259Y-93631569D01*
X151969271Y-93631288D01*
X151969527Y-93631267D01*
X152050956Y-93623911D01*
X152051254Y-93623881D01*
X152055965Y-93623343D01*
X152056265Y-93623305D01*
X152129525Y-93613167D01*
X152129879Y-93613113D01*
X152135446Y-93612182D01*
X152135799Y-93612118D01*
X152200718Y-93599366D01*
X152201138Y-93599276D01*
X152207746Y-93597744D01*
X152208165Y-93597639D01*
X152264545Y-93582532D01*
X152265047Y-93582387D01*
X152272892Y-93579935D01*
X152273387Y-93579769D01*
X152321039Y-93562696D01*
X152321631Y-93562467D01*
X152330876Y-93558623D01*
X152331457Y-93558364D01*
X152370276Y-93539890D01*
X152370964Y-93539536D01*
X152381624Y-93533642D01*
X152382290Y-93533247D01*
X152412411Y-93514107D01*
X152413178Y-93513579D01*
X152424930Y-93504840D01*
X152425655Y-93504259D01*
X152434074Y-93496984D01*
X152462556Y-93494276D01*
X152612300Y-93580609D01*
%TA.AperFunction,Conductor*%
D24*
G36*
X152612300Y-93580609D02*
G01*
X152612300Y-93919392D01*
X152462557Y-94005724D01*
X152434074Y-94003016D01*
X152425657Y-93995741D01*
X152424930Y-93995158D01*
X152413176Y-93986419D01*
X152412410Y-93985892D01*
X152382290Y-93966752D01*
X152381624Y-93966357D01*
X152370964Y-93960463D01*
X152370276Y-93960109D01*
X152331457Y-93941635D01*
X152330876Y-93941376D01*
X152321631Y-93937532D01*
X152321039Y-93937303D01*
X152273387Y-93920230D01*
X152272892Y-93920064D01*
X152265047Y-93917612D01*
X152264545Y-93917467D01*
X152208165Y-93902360D01*
X152207746Y-93902255D01*
X152201138Y-93900723D01*
X152200718Y-93900633D01*
X152135799Y-93887881D01*
X152135446Y-93887817D01*
X152129879Y-93886886D01*
X152129525Y-93886832D01*
X152056265Y-93876694D01*
X152055965Y-93876656D01*
X152051254Y-93876118D01*
X152050956Y-93876088D01*
X151969527Y-93868732D01*
X151969271Y-93868711D01*
X151965259Y-93868430D01*
X151965005Y-93868415D01*
X151875553Y-93863951D01*
X151875336Y-93863942D01*
X151871892Y-93863829D01*
X151871671Y-93863824D01*
X151825611Y-93863115D01*
X151797091Y-93850914D01*
X151785330Y-93822209D01*
X151785330Y-93677791D01*
X151797091Y-93649086D01*
X151825611Y-93636884D01*
X151871673Y-93636175D01*
X151871894Y-93636170D01*
X151875337Y-93636057D01*
X151875553Y-93636048D01*
X151965005Y-93631584D01*
X151965259Y-93631569D01*
X151969271Y-93631288D01*
X151969527Y-93631267D01*
X152050956Y-93623911D01*
X152051254Y-93623881D01*
X152055965Y-93623343D01*
X152056265Y-93623305D01*
X152129525Y-93613167D01*
X152129879Y-93613113D01*
X152135446Y-93612182D01*
X152135799Y-93612118D01*
X152200718Y-93599366D01*
X152201138Y-93599276D01*
X152207746Y-93597744D01*
X152208165Y-93597639D01*
X152264545Y-93582532D01*
X152265047Y-93582387D01*
X152272892Y-93579935D01*
X152273387Y-93579769D01*
X152321039Y-93562696D01*
X152321631Y-93562467D01*
X152330876Y-93558623D01*
X152331457Y-93558364D01*
X152370276Y-93539890D01*
X152370964Y-93539536D01*
X152381624Y-93533642D01*
X152382290Y-93533247D01*
X152412411Y-93514107D01*
X152413178Y-93513579D01*
X152424930Y-93504840D01*
X152425655Y-93504259D01*
X152434074Y-93496984D01*
X152462556Y-93494276D01*
X152612300Y-93580609D01*
G37*
%TD.AperFunction*%
%TD*%
D25*
%TO.N,Net-(C2-Pad1)*%
X154838826Y-93500044D02*
X154850939Y-93510712D01*
X154851597Y-93511253D01*
X154862237Y-93519425D01*
X154862930Y-93519921D01*
X154900305Y-93544829D01*
X154900934Y-93545222D01*
X154911000Y-93551112D01*
X154911650Y-93551467D01*
X154957209Y-93574674D01*
X154957780Y-93574948D01*
X154966883Y-93579027D01*
X154967468Y-93579271D01*
X155021462Y-93600296D01*
X155021968Y-93600481D01*
X155029984Y-93603217D01*
X155030496Y-93603380D01*
X155092963Y-93621791D01*
X155093402Y-93621912D01*
X155100360Y-93623694D01*
X155100804Y-93623799D01*
X155171669Y-93639257D01*
X155172050Y-93639334D01*
X155178056Y-93640453D01*
X155178438Y-93640518D01*
X155257581Y-93652775D01*
X155257908Y-93652822D01*
X155263089Y-93653487D01*
X155263420Y-93653525D01*
X155350713Y-93662407D01*
X155350996Y-93662432D01*
X155355476Y-93662787D01*
X155355762Y-93662807D01*
X155451084Y-93668195D01*
X155451331Y-93668206D01*
X155455221Y-93668350D01*
X155455468Y-93668357D01*
X155504473Y-93669217D01*
X155535254Y-93682444D01*
X155547939Y-93713452D01*
X155547939Y-93786548D01*
X155535254Y-93817556D01*
X155504473Y-93830784D01*
X155455468Y-93831643D01*
X155455221Y-93831650D01*
X155451331Y-93831794D01*
X155451084Y-93831805D01*
X155355762Y-93837193D01*
X155355476Y-93837213D01*
X155350996Y-93837568D01*
X155350713Y-93837593D01*
X155263420Y-93846475D01*
X155263089Y-93846513D01*
X155257908Y-93847178D01*
X155257581Y-93847225D01*
X155178438Y-93859482D01*
X155178056Y-93859547D01*
X155172050Y-93860666D01*
X155171669Y-93860743D01*
X155100804Y-93876201D01*
X155100360Y-93876306D01*
X155093402Y-93878088D01*
X155092963Y-93878209D01*
X155030496Y-93896620D01*
X155029984Y-93896783D01*
X155021968Y-93899519D01*
X155021462Y-93899704D01*
X154967468Y-93920729D01*
X154966883Y-93920973D01*
X154957780Y-93925052D01*
X154957209Y-93925326D01*
X154911650Y-93948533D01*
X154911000Y-93948888D01*
X154900934Y-93954778D01*
X154900305Y-93955171D01*
X154862930Y-93980079D01*
X154862237Y-93980575D01*
X154851597Y-93988747D01*
X154850939Y-93989289D01*
X154838827Y-93999957D01*
X154803386Y-94003496D01*
X154496821Y-93826750D01*
X154457222Y-93779597D01*
X154457222Y-93720403D01*
X154496821Y-93673250D01*
X154803386Y-93496504D01*
X154838826Y-93500044D01*
%TA.AperFunction,Conductor*%
D24*
G36*
X154838826Y-93500044D02*
G01*
X154850939Y-93510712D01*
X154851597Y-93511253D01*
X154862237Y-93519425D01*
X154862930Y-93519921D01*
X154900305Y-93544829D01*
X154900934Y-93545222D01*
X154911000Y-93551112D01*
X154911650Y-93551467D01*
X154957209Y-93574674D01*
X154957780Y-93574948D01*
X154966883Y-93579027D01*
X154967468Y-93579271D01*
X155021462Y-93600296D01*
X155021968Y-93600481D01*
X155029984Y-93603217D01*
X155030496Y-93603380D01*
X155092963Y-93621791D01*
X155093402Y-93621912D01*
X155100360Y-93623694D01*
X155100804Y-93623799D01*
X155171669Y-93639257D01*
X155172050Y-93639334D01*
X155178056Y-93640453D01*
X155178438Y-93640518D01*
X155257581Y-93652775D01*
X155257908Y-93652822D01*
X155263089Y-93653487D01*
X155263420Y-93653525D01*
X155350713Y-93662407D01*
X155350996Y-93662432D01*
X155355476Y-93662787D01*
X155355762Y-93662807D01*
X155451084Y-93668195D01*
X155451331Y-93668206D01*
X155455221Y-93668350D01*
X155455468Y-93668357D01*
X155504473Y-93669217D01*
X155535254Y-93682444D01*
X155547939Y-93713452D01*
X155547939Y-93786548D01*
X155535254Y-93817556D01*
X155504473Y-93830784D01*
X155455468Y-93831643D01*
X155455221Y-93831650D01*
X155451331Y-93831794D01*
X155451084Y-93831805D01*
X155355762Y-93837193D01*
X155355476Y-93837213D01*
X155350996Y-93837568D01*
X155350713Y-93837593D01*
X155263420Y-93846475D01*
X155263089Y-93846513D01*
X155257908Y-93847178D01*
X155257581Y-93847225D01*
X155178438Y-93859482D01*
X155178056Y-93859547D01*
X155172050Y-93860666D01*
X155171669Y-93860743D01*
X155100804Y-93876201D01*
X155100360Y-93876306D01*
X155093402Y-93878088D01*
X155092963Y-93878209D01*
X155030496Y-93896620D01*
X155029984Y-93896783D01*
X155021968Y-93899519D01*
X155021462Y-93899704D01*
X154967468Y-93920729D01*
X154966883Y-93920973D01*
X154957780Y-93925052D01*
X154957209Y-93925326D01*
X154911650Y-93948533D01*
X154911000Y-93948888D01*
X154900934Y-93954778D01*
X154900305Y-93955171D01*
X154862930Y-93980079D01*
X154862237Y-93980575D01*
X154851597Y-93988747D01*
X154850939Y-93989289D01*
X154838827Y-93999957D01*
X154803386Y-94003496D01*
X154496821Y-93826750D01*
X154457222Y-93779597D01*
X154457222Y-93720403D01*
X154496821Y-93673250D01*
X154803386Y-93496504D01*
X154838826Y-93500044D01*
G37*
%TD.AperFunction*%
%TD*%
D25*
%TO.N,Net-(C2-Pad1)*%
X157858678Y-93673250D02*
X157887300Y-93707332D01*
X157887300Y-93792668D01*
X157858678Y-93826750D01*
X157551436Y-94003887D01*
X157518165Y-94000052D01*
X157505388Y-93988089D01*
X157504976Y-93987720D01*
X157498352Y-93982039D01*
X157497923Y-93981687D01*
X157464202Y-93955234D01*
X157463754Y-93954898D01*
X157456579Y-93949763D01*
X157456115Y-93949447D01*
X157420286Y-93926129D01*
X157419813Y-93925835D01*
X157412249Y-93921372D01*
X157411762Y-93921099D01*
X157373649Y-93900813D01*
X157373160Y-93900566D01*
X157365392Y-93896852D01*
X157364894Y-93896627D01*
X157324308Y-93879325D01*
X157323819Y-93879129D01*
X157316037Y-93876187D01*
X157315538Y-93876010D01*
X157272298Y-93861692D01*
X157271815Y-93861543D01*
X157264188Y-93859350D01*
X157263703Y-93859220D01*
X157217653Y-93847932D01*
X157217189Y-93847828D01*
X157209856Y-93846319D01*
X157209388Y-93846232D01*
X157160408Y-93838051D01*
X157159969Y-93837985D01*
X157153031Y-93837074D01*
X157152589Y-93837024D01*
X157100597Y-93832043D01*
X157100186Y-93832010D01*
X157093707Y-93831601D01*
X157093295Y-93831582D01*
X157071041Y-93830901D01*
X157047560Y-93806691D01*
X157047560Y-93693308D01*
X157071040Y-93669099D01*
X157093296Y-93668418D01*
X157093707Y-93668399D01*
X157100186Y-93667990D01*
X157100597Y-93667957D01*
X157152589Y-93662976D01*
X157153031Y-93662926D01*
X157159969Y-93662015D01*
X157160408Y-93661949D01*
X157209388Y-93653768D01*
X157209856Y-93653681D01*
X157217189Y-93652172D01*
X157217653Y-93652068D01*
X157263703Y-93640780D01*
X157264188Y-93640650D01*
X157271815Y-93638457D01*
X157272298Y-93638308D01*
X157315538Y-93623990D01*
X157316037Y-93623813D01*
X157323819Y-93620871D01*
X157324308Y-93620675D01*
X157364894Y-93603373D01*
X157365392Y-93603148D01*
X157373160Y-93599434D01*
X157373649Y-93599187D01*
X157411762Y-93578901D01*
X157412249Y-93578628D01*
X157419813Y-93574165D01*
X157420286Y-93573871D01*
X157456115Y-93550553D01*
X157456579Y-93550237D01*
X157463754Y-93545102D01*
X157464202Y-93544766D01*
X157497923Y-93518313D01*
X157498352Y-93517961D01*
X157504976Y-93512280D01*
X157505388Y-93511911D01*
X157518165Y-93499949D01*
X157551436Y-93496113D01*
X157858678Y-93673250D01*
%TA.AperFunction,Conductor*%
D24*
G36*
X157858678Y-93673250D02*
G01*
X157887300Y-93707332D01*
X157887300Y-93792668D01*
X157858678Y-93826750D01*
X157551436Y-94003887D01*
X157518165Y-94000052D01*
X157505388Y-93988089D01*
X157504976Y-93987720D01*
X157498352Y-93982039D01*
X157497923Y-93981687D01*
X157464202Y-93955234D01*
X157463754Y-93954898D01*
X157456579Y-93949763D01*
X157456115Y-93949447D01*
X157420286Y-93926129D01*
X157419813Y-93925835D01*
X157412249Y-93921372D01*
X157411762Y-93921099D01*
X157373649Y-93900813D01*
X157373160Y-93900566D01*
X157365392Y-93896852D01*
X157364894Y-93896627D01*
X157324308Y-93879325D01*
X157323819Y-93879129D01*
X157316037Y-93876187D01*
X157315538Y-93876010D01*
X157272298Y-93861692D01*
X157271815Y-93861543D01*
X157264188Y-93859350D01*
X157263703Y-93859220D01*
X157217653Y-93847932D01*
X157217189Y-93847828D01*
X157209856Y-93846319D01*
X157209388Y-93846232D01*
X157160408Y-93838051D01*
X157159969Y-93837985D01*
X157153031Y-93837074D01*
X157152589Y-93837024D01*
X157100597Y-93832043D01*
X157100186Y-93832010D01*
X157093707Y-93831601D01*
X157093295Y-93831582D01*
X157071041Y-93830901D01*
X157047560Y-93806691D01*
X157047560Y-93693308D01*
X157071040Y-93669099D01*
X157093296Y-93668418D01*
X157093707Y-93668399D01*
X157100186Y-93667990D01*
X157100597Y-93667957D01*
X157152589Y-93662976D01*
X157153031Y-93662926D01*
X157159969Y-93662015D01*
X157160408Y-93661949D01*
X157209388Y-93653768D01*
X157209856Y-93653681D01*
X157217189Y-93652172D01*
X157217653Y-93652068D01*
X157263703Y-93640780D01*
X157264188Y-93640650D01*
X157271815Y-93638457D01*
X157272298Y-93638308D01*
X157315538Y-93623990D01*
X157316037Y-93623813D01*
X157323819Y-93620871D01*
X157324308Y-93620675D01*
X157364894Y-93603373D01*
X157365392Y-93603148D01*
X157373160Y-93599434D01*
X157373649Y-93599187D01*
X157411762Y-93578901D01*
X157412249Y-93578628D01*
X157419813Y-93574165D01*
X157420286Y-93573871D01*
X157456115Y-93550553D01*
X157456579Y-93550237D01*
X157463754Y-93545102D01*
X157464202Y-93544766D01*
X157497923Y-93518313D01*
X157498352Y-93517961D01*
X157504976Y-93512280D01*
X157505388Y-93511911D01*
X157518165Y-93499949D01*
X157551436Y-93496113D01*
X157858678Y-93673250D01*
G37*
%TD.AperFunction*%
%TD*%
M02*
