%TF.GenerationSoftware,KiCad,Pcbnew,5.1.7*%
%TF.CreationDate,2020-12-15T08:17:55+00:00*%
%TF.ProjectId,QPL9065,51504c39-3036-4352-9e6b-696361645f70,rev?*%
%TF.SameCoordinates,Original*%
%TF.FileFunction,Copper,L3,Inr*%
%TF.FilePolarity,Positive*%
%FSLAX46Y46*%
G04 Gerber Fmt 4.6, Leading zero omitted, Abs format (unit mm)*
G04 Created by KiCad (PCBNEW 5.1.7) date 2020-12-15 08:17:55*
%MOMM*%
%LPD*%
G01*
G04 APERTURE LIST*
%TA.AperFunction,ComponentPad*%
%ADD10C,0.600000*%
%TD*%
%TA.AperFunction,ViaPad*%
%ADD11C,0.500000*%
%TD*%
%TA.AperFunction,Conductor*%
%ADD12C,0.254000*%
%TD*%
%TA.AperFunction,Conductor*%
%ADD13C,0.100000*%
%TD*%
G04 APERTURE END LIST*
D10*
%TO.N,GND*%
%TO.C,U1*%
X149500000Y-94500000D03*
X150500000Y-94500000D03*
X150500000Y-93500000D03*
X149500000Y-93500000D03*
X150000000Y-94000000D03*
%TD*%
D11*
%TO.N,GND*%
X152250000Y-84250000D03*
X151750000Y-96000000D03*
X151250000Y-96500000D03*
X150500000Y-96500000D03*
X149500000Y-96500000D03*
X148250000Y-96000000D03*
X148750000Y-96500000D03*
X135500000Y-95250000D03*
X136250000Y-95250000D03*
X137000000Y-95250000D03*
X137750000Y-95250000D03*
X138500000Y-95250000D03*
X139250000Y-95250000D03*
X140000000Y-95250000D03*
X140750000Y-95250000D03*
X164500000Y-95250000D03*
X163750000Y-95250000D03*
X163000000Y-95250000D03*
X162250000Y-95250000D03*
X161500000Y-95250000D03*
X160750000Y-95250000D03*
X160000000Y-95250000D03*
X159250000Y-95250000D03*
X151750000Y-95250000D03*
X135500000Y-96000000D03*
X135500000Y-96750000D03*
X135500000Y-92250000D03*
X135500000Y-91500000D03*
X135500000Y-90750000D03*
X136250000Y-90750000D03*
X137000000Y-90750000D03*
X136250000Y-92250000D03*
X137000000Y-92250000D03*
X137750000Y-92250000D03*
X138500000Y-92250000D03*
X139250000Y-92250000D03*
X140000000Y-92250000D03*
X140750000Y-92250000D03*
X147500000Y-92250000D03*
X152500000Y-92250000D03*
X159250000Y-92250000D03*
X160000000Y-92250000D03*
X160750000Y-92250000D03*
X161500000Y-92250000D03*
X162250000Y-92250000D03*
X163000000Y-92250000D03*
X163750000Y-92250000D03*
X164500000Y-92250000D03*
X164500000Y-91500000D03*
X164500000Y-90750000D03*
X163750000Y-90750000D03*
X163000000Y-90750000D03*
X162250000Y-90750000D03*
X161500000Y-90750000D03*
X160750000Y-90750000D03*
X160000000Y-90750000D03*
X164500000Y-96000000D03*
X164500000Y-96750000D03*
X163750000Y-96750000D03*
X163000000Y-96750000D03*
X162250000Y-96750000D03*
X161500000Y-96750000D03*
X160750000Y-96750000D03*
X160000000Y-96750000D03*
X137750000Y-90750000D03*
X138500000Y-90750000D03*
X139250000Y-90750000D03*
X140000000Y-90750000D03*
X136250000Y-96750000D03*
X137000000Y-96750000D03*
X137750000Y-96750000D03*
X138500000Y-96750000D03*
X139250000Y-96750000D03*
X140000000Y-96750000D03*
X164250000Y-86966537D03*
X164250000Y-85933075D03*
X164250000Y-84899612D03*
X164250000Y-83866150D03*
X164250000Y-82832687D03*
X164250000Y-81799225D03*
X164250000Y-80765763D03*
X164005091Y-79819967D03*
X162984236Y-79750000D03*
X161950774Y-79750000D03*
X160917312Y-79750000D03*
X159883849Y-79750000D03*
X158850387Y-79750000D03*
X157816924Y-79750000D03*
X156783462Y-79750000D03*
X164250000Y-88000000D03*
X155750000Y-79750000D03*
X156821428Y-80750000D03*
X157892857Y-80750000D03*
X158964285Y-80750000D03*
X160035714Y-80750000D03*
X161107142Y-80750000D03*
X162178571Y-80750000D03*
X163250000Y-81785714D03*
X163250000Y-82821428D03*
X163250000Y-83857142D03*
X163250000Y-84892857D03*
X163250000Y-85928571D03*
X163250000Y-86964285D03*
X155750000Y-80750000D03*
X163250000Y-80750000D03*
X163250000Y-88000000D03*
X136750000Y-86964285D03*
X136750000Y-85928571D03*
X136750000Y-84892857D03*
X136750000Y-83857142D03*
X136750000Y-82821428D03*
X136750000Y-81785714D03*
X137821428Y-80750000D03*
X138892857Y-80750000D03*
X139964285Y-80750000D03*
X141035714Y-80750000D03*
X142107142Y-80750000D03*
X143178571Y-80750000D03*
X136750000Y-88000000D03*
X136750000Y-80750000D03*
X144250000Y-80750000D03*
X143216537Y-79750000D03*
X142183075Y-79750000D03*
X141149612Y-79750000D03*
X140116150Y-79750000D03*
X139082687Y-79750000D03*
X138049225Y-79750000D03*
X137015763Y-79750000D03*
X135994908Y-79819967D03*
X135750000Y-80765763D03*
X135750000Y-81799225D03*
X135750000Y-82832687D03*
X135750000Y-83866150D03*
X135750000Y-84899612D03*
X135750000Y-85933075D03*
X135750000Y-86966537D03*
X144250000Y-79750000D03*
X135750000Y-88000000D03*
X135750000Y-100512684D03*
X135750000Y-101525368D03*
X135750000Y-102538053D03*
X135750000Y-103550737D03*
X135750000Y-104563421D03*
X135750000Y-105576106D03*
X135750000Y-106588790D03*
X135750000Y-107601475D03*
X136328760Y-108250000D03*
X137341445Y-108250000D03*
X138354129Y-108250000D03*
X139366814Y-108250000D03*
X140379498Y-108250000D03*
X141392182Y-108250000D03*
X142404867Y-108250000D03*
X143417551Y-108250000D03*
X144430235Y-108250000D03*
X145442920Y-108250000D03*
X146455604Y-108250000D03*
X147468289Y-108250000D03*
X148480973Y-108250000D03*
X149493657Y-108250000D03*
X150506342Y-108250000D03*
X151519026Y-108250000D03*
X152531710Y-108250000D03*
X153544395Y-108250000D03*
X154557079Y-108250000D03*
X155569764Y-108250000D03*
X156582448Y-108250000D03*
X157595132Y-108250000D03*
X158607817Y-108250000D03*
X159620501Y-108250000D03*
X160633185Y-108250000D03*
X161645870Y-108250000D03*
X162658554Y-108250000D03*
X163671239Y-108250000D03*
X164250000Y-107601475D03*
X164250000Y-106588790D03*
X164250000Y-105576106D03*
X164250000Y-104563421D03*
X164250000Y-103550737D03*
X164250000Y-102538053D03*
X164250000Y-101525368D03*
X164250000Y-100512684D03*
X135750000Y-99500000D03*
X164250000Y-99500000D03*
X163250000Y-100607142D03*
X163250000Y-101714285D03*
X163250000Y-102821428D03*
X163250000Y-103928571D03*
X163250000Y-105035714D03*
X163250000Y-106142857D03*
X162230769Y-107250000D03*
X161211538Y-107250000D03*
X160192307Y-107250000D03*
X159173076Y-107250000D03*
X158153846Y-107250000D03*
X157134615Y-107250000D03*
X156115384Y-107250000D03*
X155096153Y-107250000D03*
X154076923Y-107250000D03*
X153057692Y-107250000D03*
X152038461Y-107250000D03*
X151019230Y-107250000D03*
X150000000Y-107250000D03*
X148980769Y-107250000D03*
X147961538Y-107250000D03*
X146942307Y-107250000D03*
X145923076Y-107250000D03*
X144903846Y-107250000D03*
X143884615Y-107250000D03*
X142865384Y-107250000D03*
X141846153Y-107250000D03*
X140826923Y-107250000D03*
X139807692Y-107250000D03*
X138788461Y-107250000D03*
X137769230Y-107250000D03*
X136750000Y-106142857D03*
X136750000Y-105035714D03*
X136750000Y-103928571D03*
X136750000Y-102821428D03*
X136750000Y-101714285D03*
X136750000Y-100607142D03*
X163250000Y-99500000D03*
X163250000Y-107250000D03*
X136750000Y-107250000D03*
X136750000Y-99500000D03*
X153000000Y-91750000D03*
X153500000Y-91250000D03*
X154000000Y-90750000D03*
X150000000Y-91750000D03*
X150500000Y-91250000D03*
X151000000Y-90750000D03*
X151500000Y-90250000D03*
X152000000Y-89750000D03*
X152500000Y-89250000D03*
X149500000Y-91250000D03*
X144250000Y-81750000D03*
X144250000Y-82750000D03*
X144250000Y-83750000D03*
X144250000Y-84750000D03*
X145250000Y-84750000D03*
X146250000Y-84500000D03*
X147000000Y-84000000D03*
X147000000Y-83250000D03*
X147000000Y-82500000D03*
X147000000Y-81750000D03*
X147000000Y-81000000D03*
X147000000Y-80250000D03*
X147000000Y-79500000D03*
X147750000Y-79500000D03*
X148500000Y-79500000D03*
X148500000Y-80250000D03*
X148500000Y-81000000D03*
X148500000Y-81750000D03*
X148500000Y-82500000D03*
X148500000Y-83250000D03*
X148500000Y-84000000D03*
X147750000Y-84250000D03*
X155750000Y-81750000D03*
X155750000Y-82750000D03*
X155750000Y-83750000D03*
X153750000Y-84500000D03*
X153000000Y-84000000D03*
X153000000Y-83250000D03*
X153000000Y-82500000D03*
X153000000Y-81750000D03*
X153000000Y-81000000D03*
X153000000Y-80250000D03*
X153000000Y-79500000D03*
X152250000Y-79500000D03*
X151500000Y-79500000D03*
X151500000Y-80250000D03*
X151500000Y-81000000D03*
X151500000Y-81750000D03*
X151500000Y-82500000D03*
X151500000Y-83250000D03*
X151500000Y-84000000D03*
X138404999Y-85654999D03*
X138404999Y-99654999D03*
X139804999Y-87754999D03*
X140504999Y-101054999D03*
X141204999Y-98254999D03*
X141204999Y-103854999D03*
X141904999Y-85654999D03*
X141904999Y-89154999D03*
X142604999Y-82154999D03*
X142604999Y-105954999D03*
X143304999Y-96854999D03*
X143304999Y-100354999D03*
X144004999Y-103154999D03*
X145404999Y-98254999D03*
X145404999Y-105254999D03*
X146104999Y-101054999D03*
X147504999Y-103154999D03*
X148204999Y-98954999D03*
X148204999Y-105954999D03*
X149604999Y-101054999D03*
X150304999Y-103854999D03*
X151004999Y-98254999D03*
X151704999Y-105954999D03*
X152404999Y-100354999D03*
X153104999Y-96854999D03*
X153104999Y-103154999D03*
X154504999Y-98954999D03*
X154504999Y-105254999D03*
X155204999Y-101754999D03*
X156604999Y-96854999D03*
X156604999Y-103854999D03*
X157304999Y-82154999D03*
X157304999Y-99654999D03*
X158004999Y-105954999D03*
X158704999Y-84254999D03*
X158704999Y-101754999D03*
X160104999Y-86354999D03*
X160804999Y-99654999D03*
X147250000Y-91500000D03*
X147250000Y-90750000D03*
X147250000Y-90000000D03*
X147250000Y-89250000D03*
X147250000Y-88500000D03*
X147250000Y-87750000D03*
X147250000Y-87000000D03*
X147250000Y-86250000D03*
X147750000Y-85750000D03*
X148250000Y-85250000D03*
X148750000Y-84750000D03*
X149000000Y-90750000D03*
X149000000Y-90000000D03*
X149750000Y-90000000D03*
X149750000Y-89250000D03*
X149750000Y-88500000D03*
X149750000Y-87750000D03*
X149500000Y-87250000D03*
X148800000Y-87250000D03*
X149250000Y-86750000D03*
X149750000Y-86250000D03*
X144250000Y-87000000D03*
X144000000Y-90500000D03*
X146250000Y-88500000D03*
X153800000Y-88800000D03*
X154600000Y-88800000D03*
X153800000Y-88000000D03*
X153200000Y-87400000D03*
X152600000Y-87000000D03*
X152000000Y-86600000D03*
X151200000Y-86400000D03*
X150400000Y-86100000D03*
X151200000Y-84700000D03*
X154750000Y-84750000D03*
X155750000Y-84750000D03*
X154750000Y-85500000D03*
X154750000Y-86250000D03*
X155000000Y-86800000D03*
X155400000Y-87300000D03*
X155900000Y-87800000D03*
X156500000Y-88000000D03*
X156750000Y-88750000D03*
X156750000Y-89500000D03*
X156750000Y-90250000D03*
X156000000Y-90750000D03*
X155250000Y-90750000D03*
X154600000Y-90700000D03*
X157000000Y-86400000D03*
X158200000Y-89600000D03*
X162000000Y-101800000D03*
X141200000Y-92800000D03*
X141900000Y-92900000D03*
X142600000Y-92800000D03*
X143300000Y-92800000D03*
X144000000Y-92800000D03*
X144700000Y-92800000D03*
X145400000Y-92800000D03*
X146100000Y-92800000D03*
X141200000Y-94700000D03*
X141900000Y-94600000D03*
X142600000Y-94700000D03*
X143300000Y-94700000D03*
X144000000Y-94700000D03*
X144700000Y-94700000D03*
X145400000Y-94700000D03*
X146100000Y-94700000D03*
X146800000Y-94700000D03*
X147500000Y-94700000D03*
X148200000Y-94600000D03*
X148100000Y-92700000D03*
X158800000Y-92800000D03*
X158100000Y-92800000D03*
X157400000Y-92800000D03*
X156700000Y-92900000D03*
X156000000Y-92900000D03*
X155300000Y-92900000D03*
X154600000Y-92800000D03*
X153900000Y-92800000D03*
X153200000Y-92800000D03*
X152500000Y-92800000D03*
X151800000Y-92900000D03*
X148200000Y-95300000D03*
X158800000Y-94700000D03*
X158100000Y-94700000D03*
X157400000Y-94600000D03*
X156700000Y-94500000D03*
X156000000Y-94500000D03*
X155300000Y-94500000D03*
X154600000Y-94600000D03*
X153900000Y-94600000D03*
X153200000Y-94600000D03*
X152500000Y-94600000D03*
X151800000Y-94500000D03*
X156400000Y-91800000D03*
X147500000Y-92800000D03*
X146800000Y-92800000D03*
%TD*%
D12*
%TO.N,GND*%
X164648000Y-108648000D02*
X135352000Y-108648000D01*
X135352000Y-106562845D01*
X137616761Y-106562845D01*
X137784802Y-106888643D01*
X138176607Y-107089426D01*
X138600055Y-107209914D01*
X139038873Y-107245476D01*
X139476197Y-107194746D01*
X139895221Y-107059674D01*
X140215198Y-106888643D01*
X140383239Y-106562845D01*
X159616761Y-106562845D01*
X159784802Y-106888643D01*
X160176607Y-107089426D01*
X160600055Y-107209914D01*
X161038873Y-107245476D01*
X161476197Y-107194746D01*
X161895221Y-107059674D01*
X162215198Y-106888643D01*
X162383239Y-106562845D01*
X161000000Y-105179605D01*
X159616761Y-106562845D01*
X140383239Y-106562845D01*
X139000000Y-105179605D01*
X137616761Y-106562845D01*
X135352000Y-106562845D01*
X135352000Y-105038873D01*
X136754524Y-105038873D01*
X136805254Y-105476197D01*
X136940326Y-105895221D01*
X137111357Y-106215198D01*
X137437155Y-106383239D01*
X138820395Y-105000000D01*
X139179605Y-105000000D01*
X140562845Y-106383239D01*
X140888643Y-106215198D01*
X141089426Y-105823393D01*
X141209914Y-105399945D01*
X141239175Y-105038873D01*
X158754524Y-105038873D01*
X158805254Y-105476197D01*
X158940326Y-105895221D01*
X159111357Y-106215198D01*
X159437155Y-106383239D01*
X160820395Y-105000000D01*
X161179605Y-105000000D01*
X162562845Y-106383239D01*
X162888643Y-106215198D01*
X163089426Y-105823393D01*
X163209914Y-105399945D01*
X163245476Y-104961127D01*
X163194746Y-104523803D01*
X163059674Y-104104779D01*
X162888643Y-103784802D01*
X162562845Y-103616761D01*
X161179605Y-105000000D01*
X160820395Y-105000000D01*
X159437155Y-103616761D01*
X159111357Y-103784802D01*
X158910574Y-104176607D01*
X158790086Y-104600055D01*
X158754524Y-105038873D01*
X141239175Y-105038873D01*
X141245476Y-104961127D01*
X141194746Y-104523803D01*
X141059674Y-104104779D01*
X140888643Y-103784802D01*
X140562845Y-103616761D01*
X139179605Y-105000000D01*
X138820395Y-105000000D01*
X137437155Y-103616761D01*
X137111357Y-103784802D01*
X136910574Y-104176607D01*
X136790086Y-104600055D01*
X136754524Y-105038873D01*
X135352000Y-105038873D01*
X135352000Y-103437155D01*
X137616761Y-103437155D01*
X139000000Y-104820395D01*
X140383239Y-103437155D01*
X159616761Y-103437155D01*
X161000000Y-104820395D01*
X162383239Y-103437155D01*
X162215198Y-103111357D01*
X161823393Y-102910574D01*
X161399945Y-102790086D01*
X160961127Y-102754524D01*
X160523803Y-102805254D01*
X160104779Y-102940326D01*
X159784802Y-103111357D01*
X159616761Y-103437155D01*
X140383239Y-103437155D01*
X140215198Y-103111357D01*
X139823393Y-102910574D01*
X139399945Y-102790086D01*
X138961127Y-102754524D01*
X138523803Y-102805254D01*
X138104779Y-102940326D01*
X137784802Y-103111357D01*
X137616761Y-103437155D01*
X135352000Y-103437155D01*
X135352000Y-93590355D01*
X148564829Y-93590355D01*
X148600426Y-93771061D01*
X148670592Y-93941351D01*
X148672237Y-93944425D01*
X148770143Y-93949751D01*
X148820392Y-94000000D01*
X148770143Y-94050249D01*
X148672237Y-94055575D01*
X148601438Y-94225603D01*
X148565172Y-94406176D01*
X148564829Y-94590355D01*
X148600426Y-94771061D01*
X148670592Y-94941351D01*
X148672237Y-94944425D01*
X148865459Y-94954936D01*
X149320395Y-94500000D01*
X149306253Y-94485858D01*
X149338633Y-94453477D01*
X149365459Y-94454936D01*
X149389014Y-94431381D01*
X149406176Y-94434828D01*
X149565118Y-94435124D01*
X149564829Y-94590355D01*
X149568848Y-94610757D01*
X149545064Y-94634541D01*
X149546523Y-94661367D01*
X149514143Y-94693748D01*
X149500000Y-94679605D01*
X149045064Y-95134541D01*
X149055575Y-95327763D01*
X149225603Y-95398562D01*
X149406176Y-95434828D01*
X149590355Y-95435171D01*
X149771061Y-95399574D01*
X149941351Y-95329408D01*
X149944425Y-95327763D01*
X149949751Y-95229857D01*
X150000000Y-95179608D01*
X150050249Y-95229857D01*
X150055575Y-95327763D01*
X150225603Y-95398562D01*
X150406176Y-95434828D01*
X150590355Y-95435171D01*
X150771061Y-95399574D01*
X150941351Y-95329408D01*
X150944425Y-95327763D01*
X150954936Y-95134541D01*
X150500000Y-94679605D01*
X150485858Y-94693748D01*
X150453477Y-94661367D01*
X150454936Y-94634541D01*
X150431381Y-94610986D01*
X150434828Y-94593824D01*
X150435124Y-94434882D01*
X150590355Y-94435171D01*
X150610757Y-94431152D01*
X150634541Y-94454936D01*
X150661367Y-94453477D01*
X150693748Y-94485858D01*
X150679605Y-94500000D01*
X151134541Y-94954936D01*
X151327763Y-94944425D01*
X151398562Y-94774397D01*
X151434828Y-94593824D01*
X151435171Y-94409645D01*
X151399574Y-94228939D01*
X151329408Y-94058649D01*
X151327763Y-94055575D01*
X151229857Y-94050249D01*
X151179608Y-94000000D01*
X151229857Y-93949751D01*
X151327763Y-93944425D01*
X151398562Y-93774397D01*
X151434828Y-93593824D01*
X151435171Y-93409645D01*
X151399574Y-93228939D01*
X151329408Y-93058649D01*
X151327763Y-93055575D01*
X151134541Y-93045064D01*
X150679605Y-93500000D01*
X150693748Y-93514143D01*
X150661367Y-93546523D01*
X150634541Y-93545064D01*
X150610986Y-93568619D01*
X150593824Y-93565172D01*
X150434882Y-93564876D01*
X150435171Y-93409645D01*
X150431152Y-93389243D01*
X150454936Y-93365459D01*
X150453477Y-93338633D01*
X150485858Y-93306253D01*
X150500000Y-93320395D01*
X150954936Y-92865459D01*
X150944425Y-92672237D01*
X150774397Y-92601438D01*
X150593824Y-92565172D01*
X150409645Y-92564829D01*
X150228939Y-92600426D01*
X150058649Y-92670592D01*
X150055575Y-92672237D01*
X150050249Y-92770143D01*
X150000000Y-92820392D01*
X149949751Y-92770143D01*
X149944425Y-92672237D01*
X149774397Y-92601438D01*
X149593824Y-92565172D01*
X149409645Y-92564829D01*
X149228939Y-92600426D01*
X149058649Y-92670592D01*
X149055575Y-92672237D01*
X149045064Y-92865459D01*
X149500000Y-93320395D01*
X149514143Y-93306253D01*
X149546523Y-93338633D01*
X149545064Y-93365459D01*
X149568619Y-93389014D01*
X149565172Y-93406176D01*
X149564876Y-93565118D01*
X149409645Y-93564829D01*
X149389243Y-93568848D01*
X149365459Y-93545064D01*
X149338633Y-93546523D01*
X149306253Y-93514143D01*
X149320395Y-93500000D01*
X148865459Y-93045064D01*
X148672237Y-93055575D01*
X148601438Y-93225603D01*
X148565172Y-93406176D01*
X148564829Y-93590355D01*
X135352000Y-93590355D01*
X135352000Y-84562845D01*
X137616761Y-84562845D01*
X137784802Y-84888643D01*
X138176607Y-85089426D01*
X138600055Y-85209914D01*
X139038873Y-85245476D01*
X139476197Y-85194746D01*
X139895221Y-85059674D01*
X140215198Y-84888643D01*
X140383239Y-84562845D01*
X159616761Y-84562845D01*
X159784802Y-84888643D01*
X160176607Y-85089426D01*
X160600055Y-85209914D01*
X161038873Y-85245476D01*
X161476197Y-85194746D01*
X161895221Y-85059674D01*
X162215198Y-84888643D01*
X162383239Y-84562845D01*
X161000000Y-83179605D01*
X159616761Y-84562845D01*
X140383239Y-84562845D01*
X139000000Y-83179605D01*
X137616761Y-84562845D01*
X135352000Y-84562845D01*
X135352000Y-83038873D01*
X136754524Y-83038873D01*
X136805254Y-83476197D01*
X136940326Y-83895221D01*
X137111357Y-84215198D01*
X137437155Y-84383239D01*
X138820395Y-83000000D01*
X139179605Y-83000000D01*
X140562845Y-84383239D01*
X140888643Y-84215198D01*
X141089426Y-83823393D01*
X141209914Y-83399945D01*
X141239175Y-83038873D01*
X158754524Y-83038873D01*
X158805254Y-83476197D01*
X158940326Y-83895221D01*
X159111357Y-84215198D01*
X159437155Y-84383239D01*
X160820395Y-83000000D01*
X161179605Y-83000000D01*
X162562845Y-84383239D01*
X162888643Y-84215198D01*
X163089426Y-83823393D01*
X163209914Y-83399945D01*
X163245476Y-82961127D01*
X163194746Y-82523803D01*
X163059674Y-82104779D01*
X162888643Y-81784802D01*
X162562845Y-81616761D01*
X161179605Y-83000000D01*
X160820395Y-83000000D01*
X159437155Y-81616761D01*
X159111357Y-81784802D01*
X158910574Y-82176607D01*
X158790086Y-82600055D01*
X158754524Y-83038873D01*
X141239175Y-83038873D01*
X141245476Y-82961127D01*
X141194746Y-82523803D01*
X141059674Y-82104779D01*
X140888643Y-81784802D01*
X140562845Y-81616761D01*
X139179605Y-83000000D01*
X138820395Y-83000000D01*
X137437155Y-81616761D01*
X137111357Y-81784802D01*
X136910574Y-82176607D01*
X136790086Y-82600055D01*
X136754524Y-83038873D01*
X135352000Y-83038873D01*
X135352000Y-81437155D01*
X137616761Y-81437155D01*
X139000000Y-82820395D01*
X140383239Y-81437155D01*
X159616761Y-81437155D01*
X161000000Y-82820395D01*
X162383239Y-81437155D01*
X162215198Y-81111357D01*
X161823393Y-80910574D01*
X161399945Y-80790086D01*
X160961127Y-80754524D01*
X160523803Y-80805254D01*
X160104779Y-80940326D01*
X159784802Y-81111357D01*
X159616761Y-81437155D01*
X140383239Y-81437155D01*
X140215198Y-81111357D01*
X139823393Y-80910574D01*
X139399945Y-80790086D01*
X138961127Y-80754524D01*
X138523803Y-80805254D01*
X138104779Y-80940326D01*
X137784802Y-81111357D01*
X137616761Y-81437155D01*
X135352000Y-81437155D01*
X135352000Y-79352000D01*
X164648001Y-79352000D01*
X164648000Y-108648000D01*
%TA.AperFunction,Conductor*%
D13*
G36*
X164648000Y-108648000D02*
G01*
X135352000Y-108648000D01*
X135352000Y-106562845D01*
X137616761Y-106562845D01*
X137784802Y-106888643D01*
X138176607Y-107089426D01*
X138600055Y-107209914D01*
X139038873Y-107245476D01*
X139476197Y-107194746D01*
X139895221Y-107059674D01*
X140215198Y-106888643D01*
X140383239Y-106562845D01*
X159616761Y-106562845D01*
X159784802Y-106888643D01*
X160176607Y-107089426D01*
X160600055Y-107209914D01*
X161038873Y-107245476D01*
X161476197Y-107194746D01*
X161895221Y-107059674D01*
X162215198Y-106888643D01*
X162383239Y-106562845D01*
X161000000Y-105179605D01*
X159616761Y-106562845D01*
X140383239Y-106562845D01*
X139000000Y-105179605D01*
X137616761Y-106562845D01*
X135352000Y-106562845D01*
X135352000Y-105038873D01*
X136754524Y-105038873D01*
X136805254Y-105476197D01*
X136940326Y-105895221D01*
X137111357Y-106215198D01*
X137437155Y-106383239D01*
X138820395Y-105000000D01*
X139179605Y-105000000D01*
X140562845Y-106383239D01*
X140888643Y-106215198D01*
X141089426Y-105823393D01*
X141209914Y-105399945D01*
X141239175Y-105038873D01*
X158754524Y-105038873D01*
X158805254Y-105476197D01*
X158940326Y-105895221D01*
X159111357Y-106215198D01*
X159437155Y-106383239D01*
X160820395Y-105000000D01*
X161179605Y-105000000D01*
X162562845Y-106383239D01*
X162888643Y-106215198D01*
X163089426Y-105823393D01*
X163209914Y-105399945D01*
X163245476Y-104961127D01*
X163194746Y-104523803D01*
X163059674Y-104104779D01*
X162888643Y-103784802D01*
X162562845Y-103616761D01*
X161179605Y-105000000D01*
X160820395Y-105000000D01*
X159437155Y-103616761D01*
X159111357Y-103784802D01*
X158910574Y-104176607D01*
X158790086Y-104600055D01*
X158754524Y-105038873D01*
X141239175Y-105038873D01*
X141245476Y-104961127D01*
X141194746Y-104523803D01*
X141059674Y-104104779D01*
X140888643Y-103784802D01*
X140562845Y-103616761D01*
X139179605Y-105000000D01*
X138820395Y-105000000D01*
X137437155Y-103616761D01*
X137111357Y-103784802D01*
X136910574Y-104176607D01*
X136790086Y-104600055D01*
X136754524Y-105038873D01*
X135352000Y-105038873D01*
X135352000Y-103437155D01*
X137616761Y-103437155D01*
X139000000Y-104820395D01*
X140383239Y-103437155D01*
X159616761Y-103437155D01*
X161000000Y-104820395D01*
X162383239Y-103437155D01*
X162215198Y-103111357D01*
X161823393Y-102910574D01*
X161399945Y-102790086D01*
X160961127Y-102754524D01*
X160523803Y-102805254D01*
X160104779Y-102940326D01*
X159784802Y-103111357D01*
X159616761Y-103437155D01*
X140383239Y-103437155D01*
X140215198Y-103111357D01*
X139823393Y-102910574D01*
X139399945Y-102790086D01*
X138961127Y-102754524D01*
X138523803Y-102805254D01*
X138104779Y-102940326D01*
X137784802Y-103111357D01*
X137616761Y-103437155D01*
X135352000Y-103437155D01*
X135352000Y-93590355D01*
X148564829Y-93590355D01*
X148600426Y-93771061D01*
X148670592Y-93941351D01*
X148672237Y-93944425D01*
X148770143Y-93949751D01*
X148820392Y-94000000D01*
X148770143Y-94050249D01*
X148672237Y-94055575D01*
X148601438Y-94225603D01*
X148565172Y-94406176D01*
X148564829Y-94590355D01*
X148600426Y-94771061D01*
X148670592Y-94941351D01*
X148672237Y-94944425D01*
X148865459Y-94954936D01*
X149320395Y-94500000D01*
X149306253Y-94485858D01*
X149338633Y-94453477D01*
X149365459Y-94454936D01*
X149389014Y-94431381D01*
X149406176Y-94434828D01*
X149565118Y-94435124D01*
X149564829Y-94590355D01*
X149568848Y-94610757D01*
X149545064Y-94634541D01*
X149546523Y-94661367D01*
X149514143Y-94693748D01*
X149500000Y-94679605D01*
X149045064Y-95134541D01*
X149055575Y-95327763D01*
X149225603Y-95398562D01*
X149406176Y-95434828D01*
X149590355Y-95435171D01*
X149771061Y-95399574D01*
X149941351Y-95329408D01*
X149944425Y-95327763D01*
X149949751Y-95229857D01*
X150000000Y-95179608D01*
X150050249Y-95229857D01*
X150055575Y-95327763D01*
X150225603Y-95398562D01*
X150406176Y-95434828D01*
X150590355Y-95435171D01*
X150771061Y-95399574D01*
X150941351Y-95329408D01*
X150944425Y-95327763D01*
X150954936Y-95134541D01*
X150500000Y-94679605D01*
X150485858Y-94693748D01*
X150453477Y-94661367D01*
X150454936Y-94634541D01*
X150431381Y-94610986D01*
X150434828Y-94593824D01*
X150435124Y-94434882D01*
X150590355Y-94435171D01*
X150610757Y-94431152D01*
X150634541Y-94454936D01*
X150661367Y-94453477D01*
X150693748Y-94485858D01*
X150679605Y-94500000D01*
X151134541Y-94954936D01*
X151327763Y-94944425D01*
X151398562Y-94774397D01*
X151434828Y-94593824D01*
X151435171Y-94409645D01*
X151399574Y-94228939D01*
X151329408Y-94058649D01*
X151327763Y-94055575D01*
X151229857Y-94050249D01*
X151179608Y-94000000D01*
X151229857Y-93949751D01*
X151327763Y-93944425D01*
X151398562Y-93774397D01*
X151434828Y-93593824D01*
X151435171Y-93409645D01*
X151399574Y-93228939D01*
X151329408Y-93058649D01*
X151327763Y-93055575D01*
X151134541Y-93045064D01*
X150679605Y-93500000D01*
X150693748Y-93514143D01*
X150661367Y-93546523D01*
X150634541Y-93545064D01*
X150610986Y-93568619D01*
X150593824Y-93565172D01*
X150434882Y-93564876D01*
X150435171Y-93409645D01*
X150431152Y-93389243D01*
X150454936Y-93365459D01*
X150453477Y-93338633D01*
X150485858Y-93306253D01*
X150500000Y-93320395D01*
X150954936Y-92865459D01*
X150944425Y-92672237D01*
X150774397Y-92601438D01*
X150593824Y-92565172D01*
X150409645Y-92564829D01*
X150228939Y-92600426D01*
X150058649Y-92670592D01*
X150055575Y-92672237D01*
X150050249Y-92770143D01*
X150000000Y-92820392D01*
X149949751Y-92770143D01*
X149944425Y-92672237D01*
X149774397Y-92601438D01*
X149593824Y-92565172D01*
X149409645Y-92564829D01*
X149228939Y-92600426D01*
X149058649Y-92670592D01*
X149055575Y-92672237D01*
X149045064Y-92865459D01*
X149500000Y-93320395D01*
X149514143Y-93306253D01*
X149546523Y-93338633D01*
X149545064Y-93365459D01*
X149568619Y-93389014D01*
X149565172Y-93406176D01*
X149564876Y-93565118D01*
X149409645Y-93564829D01*
X149389243Y-93568848D01*
X149365459Y-93545064D01*
X149338633Y-93546523D01*
X149306253Y-93514143D01*
X149320395Y-93500000D01*
X148865459Y-93045064D01*
X148672237Y-93055575D01*
X148601438Y-93225603D01*
X148565172Y-93406176D01*
X148564829Y-93590355D01*
X135352000Y-93590355D01*
X135352000Y-84562845D01*
X137616761Y-84562845D01*
X137784802Y-84888643D01*
X138176607Y-85089426D01*
X138600055Y-85209914D01*
X139038873Y-85245476D01*
X139476197Y-85194746D01*
X139895221Y-85059674D01*
X140215198Y-84888643D01*
X140383239Y-84562845D01*
X159616761Y-84562845D01*
X159784802Y-84888643D01*
X160176607Y-85089426D01*
X160600055Y-85209914D01*
X161038873Y-85245476D01*
X161476197Y-85194746D01*
X161895221Y-85059674D01*
X162215198Y-84888643D01*
X162383239Y-84562845D01*
X161000000Y-83179605D01*
X159616761Y-84562845D01*
X140383239Y-84562845D01*
X139000000Y-83179605D01*
X137616761Y-84562845D01*
X135352000Y-84562845D01*
X135352000Y-83038873D01*
X136754524Y-83038873D01*
X136805254Y-83476197D01*
X136940326Y-83895221D01*
X137111357Y-84215198D01*
X137437155Y-84383239D01*
X138820395Y-83000000D01*
X139179605Y-83000000D01*
X140562845Y-84383239D01*
X140888643Y-84215198D01*
X141089426Y-83823393D01*
X141209914Y-83399945D01*
X141239175Y-83038873D01*
X158754524Y-83038873D01*
X158805254Y-83476197D01*
X158940326Y-83895221D01*
X159111357Y-84215198D01*
X159437155Y-84383239D01*
X160820395Y-83000000D01*
X161179605Y-83000000D01*
X162562845Y-84383239D01*
X162888643Y-84215198D01*
X163089426Y-83823393D01*
X163209914Y-83399945D01*
X163245476Y-82961127D01*
X163194746Y-82523803D01*
X163059674Y-82104779D01*
X162888643Y-81784802D01*
X162562845Y-81616761D01*
X161179605Y-83000000D01*
X160820395Y-83000000D01*
X159437155Y-81616761D01*
X159111357Y-81784802D01*
X158910574Y-82176607D01*
X158790086Y-82600055D01*
X158754524Y-83038873D01*
X141239175Y-83038873D01*
X141245476Y-82961127D01*
X141194746Y-82523803D01*
X141059674Y-82104779D01*
X140888643Y-81784802D01*
X140562845Y-81616761D01*
X139179605Y-83000000D01*
X138820395Y-83000000D01*
X137437155Y-81616761D01*
X137111357Y-81784802D01*
X136910574Y-82176607D01*
X136790086Y-82600055D01*
X136754524Y-83038873D01*
X135352000Y-83038873D01*
X135352000Y-81437155D01*
X137616761Y-81437155D01*
X139000000Y-82820395D01*
X140383239Y-81437155D01*
X159616761Y-81437155D01*
X161000000Y-82820395D01*
X162383239Y-81437155D01*
X162215198Y-81111357D01*
X161823393Y-80910574D01*
X161399945Y-80790086D01*
X160961127Y-80754524D01*
X160523803Y-80805254D01*
X160104779Y-80940326D01*
X159784802Y-81111357D01*
X159616761Y-81437155D01*
X140383239Y-81437155D01*
X140215198Y-81111357D01*
X139823393Y-80910574D01*
X139399945Y-80790086D01*
X138961127Y-80754524D01*
X138523803Y-80805254D01*
X138104779Y-80940326D01*
X137784802Y-81111357D01*
X137616761Y-81437155D01*
X135352000Y-81437155D01*
X135352000Y-79352000D01*
X164648001Y-79352000D01*
X164648000Y-108648000D01*
G37*
%TD.AperFunction*%
%TD*%
M02*
