%TF.GenerationSoftware,KiCad,Pcbnew,5.1.7*%
%TF.CreationDate,2020-12-15T08:17:55+00:00*%
%TF.ProjectId,QPL9065,51504c39-3036-4352-9e6b-696361645f70,rev?*%
%TF.SameCoordinates,Original*%
%TF.FileFunction,Soldermask,Top*%
%TF.FilePolarity,Negative*%
%FSLAX46Y46*%
G04 Gerber Fmt 4.6, Leading zero omitted, Abs format (unit mm)*
G04 Created by KiCad (PCBNEW 5.1.7) date 2020-12-15 08:17:55*
%MOMM*%
%LPD*%
G01*
G04 APERTURE LIST*
%ADD10C,0.100000*%
%ADD11C,0.800000*%
%ADD12O,0.400000X0.850000*%
%ADD13O,0.850000X0.400000*%
%ADD14C,3.300000*%
G04 APERTURE END LIST*
D10*
G36*
X164800000Y-94800000D02*
G01*
X152100000Y-94800000D01*
X152100000Y-94000000D01*
X151700000Y-93750000D01*
X152100000Y-93500000D01*
X152100000Y-92700000D01*
X164800000Y-92700000D01*
X164800000Y-94800000D01*
G37*
X164800000Y-94800000D02*
X152100000Y-94800000D01*
X152100000Y-94000000D01*
X151700000Y-93750000D01*
X152100000Y-93500000D01*
X152100000Y-92700000D01*
X164800000Y-92700000D01*
X164800000Y-94800000D01*
G36*
X147900000Y-93500000D02*
G01*
X148400000Y-93750000D01*
X147900000Y-94000000D01*
X147900000Y-94800000D01*
X135000000Y-94800000D01*
X135000000Y-92700000D01*
X147900000Y-92700000D01*
X147900000Y-93500000D01*
G37*
X147900000Y-93500000D02*
X148400000Y-93750000D01*
X147900000Y-94000000D01*
X147900000Y-94800000D01*
X135000000Y-94800000D01*
X135000000Y-92700000D01*
X147900000Y-92700000D01*
X147900000Y-93500000D01*
D11*
X150000000Y-90600000D02*
X150000000Y-107500000D01*
D10*
G36*
X165000000Y-109000000D02*
G01*
X135000000Y-109000000D01*
X135000000Y-107000000D01*
X165000000Y-107000000D01*
X165000000Y-109000000D01*
G37*
X165000000Y-109000000D02*
X135000000Y-109000000D01*
X135000000Y-107000000D01*
X165000000Y-107000000D01*
X165000000Y-109000000D01*
G36*
X165000000Y-81000000D02*
G01*
X154750000Y-81000000D01*
X154750000Y-79000000D01*
X165000000Y-79000000D01*
X165000000Y-81000000D01*
G37*
X165000000Y-81000000D02*
X154750000Y-81000000D01*
X154750000Y-79000000D01*
X165000000Y-79000000D01*
X165000000Y-81000000D01*
G36*
X145250000Y-81000000D02*
G01*
X135000000Y-81000000D01*
X135000000Y-79000000D01*
X145250000Y-79000000D01*
X145250000Y-81000000D01*
G37*
X145250000Y-81000000D02*
X135000000Y-81000000D01*
X135000000Y-79000000D01*
X145250000Y-79000000D01*
X145250000Y-81000000D01*
G36*
X137000000Y-89250000D02*
G01*
X135000000Y-89250000D01*
X135000000Y-79000000D01*
X137000000Y-79000000D01*
X137000000Y-89250000D01*
G37*
X137000000Y-89250000D02*
X135000000Y-89250000D01*
X135000000Y-79000000D01*
X137000000Y-79000000D01*
X137000000Y-89250000D01*
G36*
X137000000Y-109000000D02*
G01*
X135000000Y-109000000D01*
X135000000Y-98750000D01*
X137000000Y-98750000D01*
X137000000Y-109000000D01*
G37*
X137000000Y-109000000D02*
X135000000Y-109000000D01*
X135000000Y-98750000D01*
X137000000Y-98750000D01*
X137000000Y-109000000D01*
G36*
X165000000Y-109000000D02*
G01*
X163000000Y-109000000D01*
X163000000Y-98750000D01*
X165000000Y-98750000D01*
X165000000Y-109000000D01*
G37*
X165000000Y-109000000D02*
X163000000Y-109000000D01*
X163000000Y-98750000D01*
X165000000Y-98750000D01*
X165000000Y-109000000D01*
G36*
X165000000Y-89250000D02*
G01*
X163000000Y-89250000D01*
X163000000Y-79000000D01*
X165000000Y-79000000D01*
X165000000Y-89250000D01*
G37*
X165000000Y-89250000D02*
X163000000Y-89250000D01*
X163000000Y-79000000D01*
X165000000Y-79000000D01*
X165000000Y-89250000D01*
%TO.C,U1*%
G36*
G01*
X149050000Y-94900000D02*
X149050000Y-93100000D01*
G75*
G02*
X149100000Y-93050000I50000J0D01*
G01*
X150900000Y-93050000D01*
G75*
G02*
X150950000Y-93100000I0J-50000D01*
G01*
X150950000Y-94900000D01*
G75*
G02*
X150900000Y-94950000I-50000J0D01*
G01*
X149100000Y-94950000D01*
G75*
G02*
X149050000Y-94900000I0J50000D01*
G01*
G37*
D12*
X149250000Y-92525000D03*
X149750000Y-92525000D03*
X150250000Y-92525000D03*
X150750000Y-92525000D03*
D13*
X151475000Y-93250000D03*
X151475000Y-93750000D03*
X151475000Y-94250000D03*
X151475000Y-94750000D03*
D12*
X150750000Y-95475000D03*
X150250000Y-95475000D03*
X149750000Y-95475000D03*
X149250000Y-95475000D03*
D13*
X148525000Y-94750000D03*
X148525000Y-94250000D03*
X148525000Y-93750000D03*
X148525000Y-93250000D03*
%TD*%
%TO.C,C5*%
G36*
G01*
X154705000Y-89997500D02*
X154705000Y-89602500D01*
G75*
G02*
X154877500Y-89430000I172500J0D01*
G01*
X155222500Y-89430000D01*
G75*
G02*
X155395000Y-89602500I0J-172500D01*
G01*
X155395000Y-89997500D01*
G75*
G02*
X155222500Y-90170000I-172500J0D01*
G01*
X154877500Y-90170000D01*
G75*
G02*
X154705000Y-89997500I0J172500D01*
G01*
G37*
G36*
G01*
X155675000Y-89997500D02*
X155675000Y-89602500D01*
G75*
G02*
X155847500Y-89430000I172500J0D01*
G01*
X156192500Y-89430000D01*
G75*
G02*
X156365000Y-89602500I0J-172500D01*
G01*
X156365000Y-89997500D01*
G75*
G02*
X156192500Y-90170000I-172500J0D01*
G01*
X155847500Y-90170000D01*
G75*
G02*
X155675000Y-89997500I0J172500D01*
G01*
G37*
%TD*%
%TO.C,C6*%
G36*
G01*
X156275000Y-88997500D02*
X156275000Y-88602500D01*
G75*
G02*
X156447500Y-88430000I172500J0D01*
G01*
X156792500Y-88430000D01*
G75*
G02*
X156965000Y-88602500I0J-172500D01*
G01*
X156965000Y-88997500D01*
G75*
G02*
X156792500Y-89170000I-172500J0D01*
G01*
X156447500Y-89170000D01*
G75*
G02*
X156275000Y-88997500I0J172500D01*
G01*
G37*
G36*
G01*
X155305000Y-88997500D02*
X155305000Y-88602500D01*
G75*
G02*
X155477500Y-88430000I172500J0D01*
G01*
X155822500Y-88430000D01*
G75*
G02*
X155995000Y-88602500I0J-172500D01*
G01*
X155995000Y-88997500D01*
G75*
G02*
X155822500Y-89170000I-172500J0D01*
G01*
X155477500Y-89170000D01*
G75*
G02*
X155305000Y-88997500I0J172500D01*
G01*
G37*
%TD*%
%TO.C,C7*%
G36*
G01*
X148725000Y-88347500D02*
X148725000Y-87952500D01*
G75*
G02*
X148897500Y-87780000I172500J0D01*
G01*
X149242500Y-87780000D01*
G75*
G02*
X149415000Y-87952500I0J-172500D01*
G01*
X149415000Y-88347500D01*
G75*
G02*
X149242500Y-88520000I-172500J0D01*
G01*
X148897500Y-88520000D01*
G75*
G02*
X148725000Y-88347500I0J172500D01*
G01*
G37*
G36*
G01*
X147755000Y-88347500D02*
X147755000Y-87952500D01*
G75*
G02*
X147927500Y-87780000I172500J0D01*
G01*
X148272500Y-87780000D01*
G75*
G02*
X148445000Y-87952500I0J-172500D01*
G01*
X148445000Y-88347500D01*
G75*
G02*
X148272500Y-88520000I-172500J0D01*
G01*
X147927500Y-88520000D01*
G75*
G02*
X147755000Y-88347500I0J172500D01*
G01*
G37*
%TD*%
%TO.C,C8*%
G36*
G01*
X147755000Y-89447500D02*
X147755000Y-89052500D01*
G75*
G02*
X147927500Y-88880000I172500J0D01*
G01*
X148272500Y-88880000D01*
G75*
G02*
X148445000Y-89052500I0J-172500D01*
G01*
X148445000Y-89447500D01*
G75*
G02*
X148272500Y-89620000I-172500J0D01*
G01*
X147927500Y-89620000D01*
G75*
G02*
X147755000Y-89447500I0J172500D01*
G01*
G37*
G36*
G01*
X148725000Y-89447500D02*
X148725000Y-89052500D01*
G75*
G02*
X148897500Y-88880000I172500J0D01*
G01*
X149242500Y-88880000D01*
G75*
G02*
X149415000Y-89052500I0J-172500D01*
G01*
X149415000Y-89447500D01*
G75*
G02*
X149242500Y-89620000I-172500J0D01*
G01*
X148897500Y-89620000D01*
G75*
G02*
X148725000Y-89447500I0J172500D01*
G01*
G37*
%TD*%
%TO.C,C12*%
G36*
G01*
X152237500Y-85981250D02*
X152237500Y-85418750D01*
G75*
G02*
X152481250Y-85175000I243750J0D01*
G01*
X152968750Y-85175000D01*
G75*
G02*
X153212500Y-85418750I0J-243750D01*
G01*
X153212500Y-85981250D01*
G75*
G02*
X152968750Y-86225000I-243750J0D01*
G01*
X152481250Y-86225000D01*
G75*
G02*
X152237500Y-85981250I0J243750D01*
G01*
G37*
G36*
G01*
X153812500Y-85981250D02*
X153812500Y-85418750D01*
G75*
G02*
X154056250Y-85175000I243750J0D01*
G01*
X154543750Y-85175000D01*
G75*
G02*
X154787500Y-85418750I0J-243750D01*
G01*
X154787500Y-85981250D01*
G75*
G02*
X154543750Y-86225000I-243750J0D01*
G01*
X154056250Y-86225000D01*
G75*
G02*
X153812500Y-85981250I0J243750D01*
G01*
G37*
%TD*%
%TO.C,L2*%
G36*
G01*
X148297500Y-91645000D02*
X147902500Y-91645000D01*
G75*
G02*
X147730000Y-91472500I0J172500D01*
G01*
X147730000Y-91127500D01*
G75*
G02*
X147902500Y-90955000I172500J0D01*
G01*
X148297500Y-90955000D01*
G75*
G02*
X148470000Y-91127500I0J-172500D01*
G01*
X148470000Y-91472500D01*
G75*
G02*
X148297500Y-91645000I-172500J0D01*
G01*
G37*
G36*
G01*
X148297500Y-90675000D02*
X147902500Y-90675000D01*
G75*
G02*
X147730000Y-90502500I0J172500D01*
G01*
X147730000Y-90157500D01*
G75*
G02*
X147902500Y-89985000I172500J0D01*
G01*
X148297500Y-89985000D01*
G75*
G02*
X148470000Y-90157500I0J-172500D01*
G01*
X148470000Y-90502500D01*
G75*
G02*
X148297500Y-90675000I-172500J0D01*
G01*
G37*
%TD*%
%TO.C,L5*%
G36*
G01*
X152154160Y-91493588D02*
X151756412Y-91095840D01*
G75*
G02*
X151756412Y-90751126I172357J172357D01*
G01*
X152101126Y-90406412D01*
G75*
G02*
X152445840Y-90406412I172357J-172357D01*
G01*
X152843588Y-90804160D01*
G75*
G02*
X152843588Y-91148874I-172357J-172357D01*
G01*
X152498874Y-91493588D01*
G75*
G02*
X152154160Y-91493588I-172357J172357D01*
G01*
G37*
G36*
G01*
X153267854Y-90379894D02*
X152870106Y-89982146D01*
G75*
G02*
X152870106Y-89637432I172357J172357D01*
G01*
X153214820Y-89292718D01*
G75*
G02*
X153559534Y-89292718I172357J-172357D01*
G01*
X153957282Y-89690466D01*
G75*
G02*
X153957282Y-90035180I-172357J-172357D01*
G01*
X153612568Y-90379894D01*
G75*
G02*
X153267854Y-90379894I-172357J172357D01*
G01*
G37*
%TD*%
%TO.C,J1*%
G36*
G01*
X135060000Y-92950000D02*
X140140000Y-92950000D01*
G75*
G02*
X140190000Y-93000000I0J-50000D01*
G01*
X140190000Y-94500000D01*
G75*
G02*
X140140000Y-94550000I-50000J0D01*
G01*
X135060000Y-94550000D01*
G75*
G02*
X135010000Y-94500000I0J50000D01*
G01*
X135010000Y-93000000D01*
G75*
G02*
X135060000Y-92950000I50000J0D01*
G01*
G37*
G36*
G01*
X135060000Y-97200000D02*
X140140000Y-97200000D01*
G75*
G02*
X140190000Y-97250000I0J-50000D01*
G01*
X140190000Y-98750000D01*
G75*
G02*
X140140000Y-98800000I-50000J0D01*
G01*
X135060000Y-98800000D01*
G75*
G02*
X135010000Y-98750000I0J50000D01*
G01*
X135010000Y-97250000D01*
G75*
G02*
X135060000Y-97200000I50000J0D01*
G01*
G37*
G36*
G01*
X135060000Y-88700000D02*
X140140000Y-88700000D01*
G75*
G02*
X140190000Y-88750000I0J-50000D01*
G01*
X140190000Y-90250000D01*
G75*
G02*
X140140000Y-90300000I-50000J0D01*
G01*
X135060000Y-90300000D01*
G75*
G02*
X135010000Y-90250000I0J50000D01*
G01*
X135010000Y-88750000D01*
G75*
G02*
X135060000Y-88700000I50000J0D01*
G01*
G37*
%TD*%
%TO.C,J2*%
G36*
G01*
X164940000Y-98800000D02*
X159860000Y-98800000D01*
G75*
G02*
X159810000Y-98750000I0J50000D01*
G01*
X159810000Y-97250000D01*
G75*
G02*
X159860000Y-97200000I50000J0D01*
G01*
X164940000Y-97200000D01*
G75*
G02*
X164990000Y-97250000I0J-50000D01*
G01*
X164990000Y-98750000D01*
G75*
G02*
X164940000Y-98800000I-50000J0D01*
G01*
G37*
G36*
G01*
X164940000Y-90300000D02*
X159860000Y-90300000D01*
G75*
G02*
X159810000Y-90250000I0J50000D01*
G01*
X159810000Y-88750000D01*
G75*
G02*
X159860000Y-88700000I50000J0D01*
G01*
X164940000Y-88700000D01*
G75*
G02*
X164990000Y-88750000I0J-50000D01*
G01*
X164990000Y-90250000D01*
G75*
G02*
X164940000Y-90300000I-50000J0D01*
G01*
G37*
G36*
G01*
X164940000Y-94550000D02*
X159860000Y-94550000D01*
G75*
G02*
X159810000Y-94500000I0J50000D01*
G01*
X159810000Y-93000000D01*
G75*
G02*
X159860000Y-92950000I50000J0D01*
G01*
X164940000Y-92950000D01*
G75*
G02*
X164990000Y-93000000I0J-50000D01*
G01*
X164990000Y-94500000D01*
G75*
G02*
X164940000Y-94550000I-50000J0D01*
G01*
G37*
%TD*%
%TO.C,J3*%
G36*
G01*
X150800000Y-79160000D02*
X150800000Y-84240000D01*
G75*
G02*
X150750000Y-84290000I-50000J0D01*
G01*
X149250000Y-84290000D01*
G75*
G02*
X149200000Y-84240000I0J50000D01*
G01*
X149200000Y-79160000D01*
G75*
G02*
X149250000Y-79110000I50000J0D01*
G01*
X150750000Y-79110000D01*
G75*
G02*
X150800000Y-79160000I0J-50000D01*
G01*
G37*
G36*
G01*
X146550000Y-79160000D02*
X146550000Y-84240000D01*
G75*
G02*
X146500000Y-84290000I-50000J0D01*
G01*
X145000000Y-84290000D01*
G75*
G02*
X144950000Y-84240000I0J50000D01*
G01*
X144950000Y-79160000D01*
G75*
G02*
X145000000Y-79110000I50000J0D01*
G01*
X146500000Y-79110000D01*
G75*
G02*
X146550000Y-79160000I0J-50000D01*
G01*
G37*
G36*
G01*
X155050000Y-79160000D02*
X155050000Y-84240000D01*
G75*
G02*
X155000000Y-84290000I-50000J0D01*
G01*
X153500000Y-84290000D01*
G75*
G02*
X153450000Y-84240000I0J50000D01*
G01*
X153450000Y-79160000D01*
G75*
G02*
X153500000Y-79110000I50000J0D01*
G01*
X155000000Y-79110000D01*
G75*
G02*
X155050000Y-79160000I0J-50000D01*
G01*
G37*
%TD*%
%TO.C,R1*%
G36*
G01*
X155226553Y-87947245D02*
X154947245Y-88226553D01*
G75*
G02*
X154703293Y-88226553I-121976J121976D01*
G01*
X154459341Y-87982601D01*
G75*
G02*
X154459341Y-87738649I121976J121976D01*
G01*
X154738649Y-87459341D01*
G75*
G02*
X154982601Y-87459341I121976J-121976D01*
G01*
X155226553Y-87703293D01*
G75*
G02*
X155226553Y-87947245I-121976J-121976D01*
G01*
G37*
G36*
G01*
X154540659Y-87261351D02*
X154261351Y-87540659D01*
G75*
G02*
X154017399Y-87540659I-121976J121976D01*
G01*
X153773447Y-87296707D01*
G75*
G02*
X153773447Y-87052755I121976J121976D01*
G01*
X154052755Y-86773447D01*
G75*
G02*
X154296707Y-86773447I121976J-121976D01*
G01*
X154540659Y-87017399D01*
G75*
G02*
X154540659Y-87261351I-121976J-121976D01*
G01*
G37*
%TD*%
%TO.C,R2*%
G36*
G01*
X148218404Y-86252288D02*
X148497712Y-86531596D01*
G75*
G02*
X148497712Y-86775548I-121976J-121976D01*
G01*
X148253760Y-87019500D01*
G75*
G02*
X148009808Y-87019500I-121976J121976D01*
G01*
X147730500Y-86740192D01*
G75*
G02*
X147730500Y-86496240I121976J121976D01*
G01*
X147974452Y-86252288D01*
G75*
G02*
X148218404Y-86252288I121976J-121976D01*
G01*
G37*
G36*
G01*
X148904298Y-85566394D02*
X149183606Y-85845702D01*
G75*
G02*
X149183606Y-86089654I-121976J-121976D01*
G01*
X148939654Y-86333606D01*
G75*
G02*
X148695702Y-86333606I-121976J121976D01*
G01*
X148416394Y-86054298D01*
G75*
G02*
X148416394Y-85810346I121976J121976D01*
G01*
X148660346Y-85566394D01*
G75*
G02*
X148904298Y-85566394I121976J-121976D01*
G01*
G37*
%TD*%
%TO.C,C2*%
G36*
G01*
X157435000Y-93947500D02*
X157435000Y-93552500D01*
G75*
G02*
X157607500Y-93380000I172500J0D01*
G01*
X157952500Y-93380000D01*
G75*
G02*
X158125000Y-93552500I0J-172500D01*
G01*
X158125000Y-93947500D01*
G75*
G02*
X157952500Y-94120000I-172500J0D01*
G01*
X157607500Y-94120000D01*
G75*
G02*
X157435000Y-93947500I0J172500D01*
G01*
G37*
G36*
G01*
X158405000Y-93947500D02*
X158405000Y-93552500D01*
G75*
G02*
X158577500Y-93380000I172500J0D01*
G01*
X158922500Y-93380000D01*
G75*
G02*
X159095000Y-93552500I0J-172500D01*
G01*
X159095000Y-93947500D01*
G75*
G02*
X158922500Y-94120000I-172500J0D01*
G01*
X158577500Y-94120000D01*
G75*
G02*
X158405000Y-93947500I0J172500D01*
G01*
G37*
%TD*%
%TO.C,R9*%
G36*
G01*
X153985000Y-93552500D02*
X153985000Y-93947500D01*
G75*
G02*
X153812500Y-94120000I-172500J0D01*
G01*
X153467500Y-94120000D01*
G75*
G02*
X153295000Y-93947500I0J172500D01*
G01*
X153295000Y-93552500D01*
G75*
G02*
X153467500Y-93380000I172500J0D01*
G01*
X153812500Y-93380000D01*
G75*
G02*
X153985000Y-93552500I0J-172500D01*
G01*
G37*
G36*
G01*
X153015000Y-93552500D02*
X153015000Y-93947500D01*
G75*
G02*
X152842500Y-94120000I-172500J0D01*
G01*
X152497500Y-94120000D01*
G75*
G02*
X152325000Y-93947500I0J172500D01*
G01*
X152325000Y-93552500D01*
G75*
G02*
X152497500Y-93380000I172500J0D01*
G01*
X152842500Y-93380000D01*
G75*
G02*
X153015000Y-93552500I0J-172500D01*
G01*
G37*
%TD*%
%TO.C,R10*%
G36*
G01*
X154767500Y-94095000D02*
X154372500Y-94095000D01*
G75*
G02*
X154200000Y-93922500I0J172500D01*
G01*
X154200000Y-93577500D01*
G75*
G02*
X154372500Y-93405000I172500J0D01*
G01*
X154767500Y-93405000D01*
G75*
G02*
X154940000Y-93577500I0J-172500D01*
G01*
X154940000Y-93922500D01*
G75*
G02*
X154767500Y-94095000I-172500J0D01*
G01*
G37*
G36*
G01*
X154767500Y-95065000D02*
X154372500Y-95065000D01*
G75*
G02*
X154200000Y-94892500I0J172500D01*
G01*
X154200000Y-94547500D01*
G75*
G02*
X154372500Y-94375000I172500J0D01*
G01*
X154767500Y-94375000D01*
G75*
G02*
X154940000Y-94547500I0J-172500D01*
G01*
X154940000Y-94892500D01*
G75*
G02*
X154767500Y-95065000I-172500J0D01*
G01*
G37*
%TD*%
%TO.C,C1*%
G36*
G01*
X142827500Y-94095000D02*
X142432500Y-94095000D01*
G75*
G02*
X142260000Y-93922500I0J172500D01*
G01*
X142260000Y-93577500D01*
G75*
G02*
X142432500Y-93405000I172500J0D01*
G01*
X142827500Y-93405000D01*
G75*
G02*
X143000000Y-93577500I0J-172500D01*
G01*
X143000000Y-93922500D01*
G75*
G02*
X142827500Y-94095000I-172500J0D01*
G01*
G37*
G36*
G01*
X142827500Y-95065000D02*
X142432500Y-95065000D01*
G75*
G02*
X142260000Y-94892500I0J172500D01*
G01*
X142260000Y-94547500D01*
G75*
G02*
X142432500Y-94375000I172500J0D01*
G01*
X142827500Y-94375000D01*
G75*
G02*
X143000000Y-94547500I0J-172500D01*
G01*
X143000000Y-94892500D01*
G75*
G02*
X142827500Y-95065000I-172500J0D01*
G01*
G37*
%TD*%
%TO.C,C9*%
G36*
G01*
X146005000Y-93947500D02*
X146005000Y-93552500D01*
G75*
G02*
X146177500Y-93380000I172500J0D01*
G01*
X146522500Y-93380000D01*
G75*
G02*
X146695000Y-93552500I0J-172500D01*
G01*
X146695000Y-93947500D01*
G75*
G02*
X146522500Y-94120000I-172500J0D01*
G01*
X146177500Y-94120000D01*
G75*
G02*
X146005000Y-93947500I0J172500D01*
G01*
G37*
G36*
G01*
X146975000Y-93947500D02*
X146975000Y-93552500D01*
G75*
G02*
X147147500Y-93380000I172500J0D01*
G01*
X147492500Y-93380000D01*
G75*
G02*
X147665000Y-93552500I0J-172500D01*
G01*
X147665000Y-93947500D01*
G75*
G02*
X147492500Y-94120000I-172500J0D01*
G01*
X147147500Y-94120000D01*
G75*
G02*
X146975000Y-93947500I0J172500D01*
G01*
G37*
%TD*%
%TO.C,L1*%
G36*
G01*
X144860000Y-93552500D02*
X144860000Y-93947500D01*
G75*
G02*
X144687500Y-94120000I-172500J0D01*
G01*
X144342500Y-94120000D01*
G75*
G02*
X144170000Y-93947500I0J172500D01*
G01*
X144170000Y-93552500D01*
G75*
G02*
X144342500Y-93380000I172500J0D01*
G01*
X144687500Y-93380000D01*
G75*
G02*
X144860000Y-93552500I0J-172500D01*
G01*
G37*
G36*
G01*
X143890000Y-93552500D02*
X143890000Y-93947500D01*
G75*
G02*
X143717500Y-94120000I-172500J0D01*
G01*
X143372500Y-94120000D01*
G75*
G02*
X143200000Y-93947500I0J172500D01*
G01*
X143200000Y-93552500D01*
G75*
G02*
X143372500Y-93380000I172500J0D01*
G01*
X143717500Y-93380000D01*
G75*
G02*
X143890000Y-93552500I0J-172500D01*
G01*
G37*
%TD*%
%TO.C,L4*%
G36*
G01*
X145232500Y-94375000D02*
X145627500Y-94375000D01*
G75*
G02*
X145800000Y-94547500I0J-172500D01*
G01*
X145800000Y-94892500D01*
G75*
G02*
X145627500Y-95065000I-172500J0D01*
G01*
X145232500Y-95065000D01*
G75*
G02*
X145060000Y-94892500I0J172500D01*
G01*
X145060000Y-94547500D01*
G75*
G02*
X145232500Y-94375000I172500J0D01*
G01*
G37*
G36*
G01*
X145232500Y-93405000D02*
X145627500Y-93405000D01*
G75*
G02*
X145800000Y-93577500I0J-172500D01*
G01*
X145800000Y-93922500D01*
G75*
G02*
X145627500Y-94095000I-172500J0D01*
G01*
X145232500Y-94095000D01*
G75*
G02*
X145060000Y-93922500I0J172500D01*
G01*
X145060000Y-93577500D01*
G75*
G02*
X145232500Y-93405000I172500J0D01*
G01*
G37*
%TD*%
D14*
%TO.C,MH1*%
X139000000Y-105000000D03*
%TD*%
%TO.C,MH2*%
X139000000Y-83000000D03*
%TD*%
%TO.C,MH3*%
X161000000Y-105000000D03*
%TD*%
%TO.C,MH4*%
X161000000Y-83000000D03*
%TD*%
M02*
