%TF.GenerationSoftware,KiCad,Pcbnew,5.1.7*%
%TF.CreationDate,2020-12-15T08:17:55+00:00*%
%TF.ProjectId,QPL9065,51504c39-3036-4352-9e6b-696361645f70,rev?*%
%TF.SameCoordinates,Original*%
%TF.FileFunction,Copper,L4,Bot*%
%TF.FilePolarity,Positive*%
%FSLAX46Y46*%
G04 Gerber Fmt 4.6, Leading zero omitted, Abs format (unit mm)*
G04 Created by KiCad (PCBNEW 5.1.7) date 2020-12-15 08:17:55*
%MOMM*%
%LPD*%
G01*
G04 APERTURE LIST*
%TA.AperFunction,ComponentPad*%
%ADD10C,0.600000*%
%TD*%
%TA.AperFunction,SMDPad,CuDef*%
%ADD11R,1.800000X1.800000*%
%TD*%
%TA.AperFunction,SMDPad,CuDef*%
%ADD12R,5.080000X1.500000*%
%TD*%
%TA.AperFunction,SMDPad,CuDef*%
%ADD13R,1.500000X5.080000*%
%TD*%
%TA.AperFunction,ViaPad*%
%ADD14C,0.500000*%
%TD*%
%TA.AperFunction,Conductor*%
%ADD15C,0.254000*%
%TD*%
%TA.AperFunction,Conductor*%
%ADD16C,0.100000*%
%TD*%
G04 APERTURE END LIST*
D10*
%TO.P,U1,17*%
%TO.N,GND*%
X149500000Y-94500000D03*
X150500000Y-94500000D03*
X150500000Y-93500000D03*
X149500000Y-93500000D03*
X150000000Y-94000000D03*
D11*
X150000000Y-94000000D03*
%TD*%
D12*
%TO.P,J1,2*%
%TO.N,GND*%
X137600000Y-98000000D03*
X137600000Y-89500000D03*
%TD*%
%TO.P,J2,2*%
%TO.N,GND*%
X162400000Y-98000000D03*
X162400000Y-89500000D03*
%TD*%
D13*
%TO.P,J3,2*%
%TO.N,GND*%
X145750000Y-81700000D03*
X154250000Y-81700000D03*
%TD*%
D14*
%TO.N,GND*%
X152250000Y-84250000D03*
X151750000Y-96000000D03*
X151250000Y-96500000D03*
X150500000Y-96500000D03*
X149500000Y-96500000D03*
X148250000Y-96000000D03*
X148750000Y-96500000D03*
X135500000Y-95250000D03*
X136250000Y-95250000D03*
X137000000Y-95250000D03*
X137750000Y-95250000D03*
X138500000Y-95250000D03*
X139250000Y-95250000D03*
X140000000Y-95250000D03*
X140750000Y-95250000D03*
X164500000Y-95250000D03*
X163750000Y-95250000D03*
X163000000Y-95250000D03*
X162250000Y-95250000D03*
X161500000Y-95250000D03*
X160750000Y-95250000D03*
X160000000Y-95250000D03*
X159250000Y-95250000D03*
X151750000Y-95250000D03*
X135500000Y-96000000D03*
X135500000Y-96750000D03*
X135500000Y-92250000D03*
X135500000Y-91500000D03*
X135500000Y-90750000D03*
X136250000Y-90750000D03*
X137000000Y-90750000D03*
X136250000Y-92250000D03*
X137000000Y-92250000D03*
X137750000Y-92250000D03*
X138500000Y-92250000D03*
X139250000Y-92250000D03*
X140000000Y-92250000D03*
X140750000Y-92250000D03*
X147500000Y-92250000D03*
X152500000Y-92250000D03*
X159250000Y-92250000D03*
X160000000Y-92250000D03*
X160750000Y-92250000D03*
X161500000Y-92250000D03*
X162250000Y-92250000D03*
X163000000Y-92250000D03*
X163750000Y-92250000D03*
X164500000Y-92250000D03*
X164500000Y-91500000D03*
X164500000Y-90750000D03*
X163750000Y-90750000D03*
X163000000Y-90750000D03*
X162250000Y-90750000D03*
X161500000Y-90750000D03*
X160750000Y-90750000D03*
X160000000Y-90750000D03*
X164500000Y-96000000D03*
X164500000Y-96750000D03*
X163750000Y-96750000D03*
X163000000Y-96750000D03*
X162250000Y-96750000D03*
X161500000Y-96750000D03*
X160750000Y-96750000D03*
X160000000Y-96750000D03*
X137750000Y-90750000D03*
X138500000Y-90750000D03*
X139250000Y-90750000D03*
X140000000Y-90750000D03*
X136250000Y-96750000D03*
X137000000Y-96750000D03*
X137750000Y-96750000D03*
X138500000Y-96750000D03*
X139250000Y-96750000D03*
X140000000Y-96750000D03*
X164250000Y-86966537D03*
X164250000Y-85933075D03*
X164250000Y-84899612D03*
X164250000Y-83866150D03*
X164250000Y-82832687D03*
X164250000Y-81799225D03*
X164250000Y-80765763D03*
X164005091Y-79819967D03*
X162984236Y-79750000D03*
X161950774Y-79750000D03*
X160917312Y-79750000D03*
X159883849Y-79750000D03*
X158850387Y-79750000D03*
X157816924Y-79750000D03*
X156783462Y-79750000D03*
X164250000Y-88000000D03*
X155750000Y-79750000D03*
X156821428Y-80750000D03*
X157892857Y-80750000D03*
X158964285Y-80750000D03*
X160035714Y-80750000D03*
X161107142Y-80750000D03*
X162178571Y-80750000D03*
X163250000Y-81785714D03*
X163250000Y-82821428D03*
X163250000Y-83857142D03*
X163250000Y-84892857D03*
X163250000Y-85928571D03*
X163250000Y-86964285D03*
X155750000Y-80750000D03*
X163250000Y-80750000D03*
X163250000Y-88000000D03*
X136750000Y-86964285D03*
X136750000Y-85928571D03*
X136750000Y-84892857D03*
X136750000Y-83857142D03*
X136750000Y-82821428D03*
X136750000Y-81785714D03*
X137821428Y-80750000D03*
X138892857Y-80750000D03*
X139964285Y-80750000D03*
X141035714Y-80750000D03*
X142107142Y-80750000D03*
X143178571Y-80750000D03*
X136750000Y-88000000D03*
X136750000Y-80750000D03*
X144250000Y-80750000D03*
X143216537Y-79750000D03*
X142183075Y-79750000D03*
X141149612Y-79750000D03*
X140116150Y-79750000D03*
X139082687Y-79750000D03*
X138049225Y-79750000D03*
X137015763Y-79750000D03*
X135994908Y-79819967D03*
X135750000Y-80765763D03*
X135750000Y-81799225D03*
X135750000Y-82832687D03*
X135750000Y-83866150D03*
X135750000Y-84899612D03*
X135750000Y-85933075D03*
X135750000Y-86966537D03*
X144250000Y-79750000D03*
X135750000Y-88000000D03*
X135750000Y-100512684D03*
X135750000Y-101525368D03*
X135750000Y-102538053D03*
X135750000Y-103550737D03*
X135750000Y-104563421D03*
X135750000Y-105576106D03*
X135750000Y-106588790D03*
X135750000Y-107601475D03*
X136328760Y-108250000D03*
X137341445Y-108250000D03*
X138354129Y-108250000D03*
X139366814Y-108250000D03*
X140379498Y-108250000D03*
X141392182Y-108250000D03*
X142404867Y-108250000D03*
X143417551Y-108250000D03*
X144430235Y-108250000D03*
X145442920Y-108250000D03*
X146455604Y-108250000D03*
X147468289Y-108250000D03*
X148480973Y-108250000D03*
X149493657Y-108250000D03*
X150506342Y-108250000D03*
X151519026Y-108250000D03*
X152531710Y-108250000D03*
X153544395Y-108250000D03*
X154557079Y-108250000D03*
X155569764Y-108250000D03*
X156582448Y-108250000D03*
X157595132Y-108250000D03*
X158607817Y-108250000D03*
X159620501Y-108250000D03*
X160633185Y-108250000D03*
X161645870Y-108250000D03*
X162658554Y-108250000D03*
X163671239Y-108250000D03*
X164250000Y-107601475D03*
X164250000Y-106588790D03*
X164250000Y-105576106D03*
X164250000Y-104563421D03*
X164250000Y-103550737D03*
X164250000Y-102538053D03*
X164250000Y-101525368D03*
X164250000Y-100512684D03*
X135750000Y-99500000D03*
X164250000Y-99500000D03*
X163250000Y-100607142D03*
X163250000Y-101714285D03*
X163250000Y-102821428D03*
X163250000Y-103928571D03*
X163250000Y-105035714D03*
X163250000Y-106142857D03*
X162230769Y-107250000D03*
X161211538Y-107250000D03*
X160192307Y-107250000D03*
X159173076Y-107250000D03*
X158153846Y-107250000D03*
X157134615Y-107250000D03*
X156115384Y-107250000D03*
X155096153Y-107250000D03*
X154076923Y-107250000D03*
X153057692Y-107250000D03*
X152038461Y-107250000D03*
X151019230Y-107250000D03*
X150000000Y-107250000D03*
X148980769Y-107250000D03*
X147961538Y-107250000D03*
X146942307Y-107250000D03*
X145923076Y-107250000D03*
X144903846Y-107250000D03*
X143884615Y-107250000D03*
X142865384Y-107250000D03*
X141846153Y-107250000D03*
X140826923Y-107250000D03*
X139807692Y-107250000D03*
X138788461Y-107250000D03*
X137769230Y-107250000D03*
X136750000Y-106142857D03*
X136750000Y-105035714D03*
X136750000Y-103928571D03*
X136750000Y-102821428D03*
X136750000Y-101714285D03*
X136750000Y-100607142D03*
X163250000Y-99500000D03*
X163250000Y-107250000D03*
X136750000Y-107250000D03*
X136750000Y-99500000D03*
X153000000Y-91750000D03*
X153500000Y-91250000D03*
X154000000Y-90750000D03*
X150000000Y-91750000D03*
X150500000Y-91250000D03*
X151000000Y-90750000D03*
X151500000Y-90250000D03*
X152000000Y-89750000D03*
X152500000Y-89250000D03*
X149500000Y-91250000D03*
X144250000Y-81750000D03*
X144250000Y-82750000D03*
X144250000Y-83750000D03*
X144250000Y-84750000D03*
X145250000Y-84750000D03*
X146250000Y-84500000D03*
X147000000Y-84000000D03*
X147000000Y-83250000D03*
X147000000Y-82500000D03*
X147000000Y-81750000D03*
X147000000Y-81000000D03*
X147000000Y-80250000D03*
X147000000Y-79500000D03*
X147750000Y-79500000D03*
X148500000Y-79500000D03*
X148500000Y-80250000D03*
X148500000Y-81000000D03*
X148500000Y-81750000D03*
X148500000Y-82500000D03*
X148500000Y-83250000D03*
X148500000Y-84000000D03*
X147750000Y-84250000D03*
X155750000Y-81750000D03*
X155750000Y-82750000D03*
X155750000Y-83750000D03*
X153750000Y-84500000D03*
X153000000Y-84000000D03*
X153000000Y-83250000D03*
X153000000Y-82500000D03*
X153000000Y-81750000D03*
X153000000Y-81000000D03*
X153000000Y-80250000D03*
X153000000Y-79500000D03*
X152250000Y-79500000D03*
X151500000Y-79500000D03*
X151500000Y-80250000D03*
X151500000Y-81000000D03*
X151500000Y-81750000D03*
X151500000Y-82500000D03*
X151500000Y-83250000D03*
X151500000Y-84000000D03*
X138404999Y-85654999D03*
X138404999Y-99654999D03*
X139804999Y-87754999D03*
X140504999Y-101054999D03*
X141204999Y-98254999D03*
X141204999Y-103854999D03*
X141904999Y-85654999D03*
X141904999Y-89154999D03*
X142604999Y-82154999D03*
X142604999Y-105954999D03*
X143304999Y-96854999D03*
X143304999Y-100354999D03*
X144004999Y-103154999D03*
X145404999Y-98254999D03*
X145404999Y-105254999D03*
X146104999Y-101054999D03*
X147504999Y-103154999D03*
X148204999Y-98954999D03*
X148204999Y-105954999D03*
X149604999Y-101054999D03*
X150304999Y-103854999D03*
X151004999Y-98254999D03*
X151704999Y-105954999D03*
X152404999Y-100354999D03*
X153104999Y-96854999D03*
X153104999Y-103154999D03*
X154504999Y-98954999D03*
X154504999Y-105254999D03*
X155204999Y-101754999D03*
X156604999Y-96854999D03*
X156604999Y-103854999D03*
X157304999Y-82154999D03*
X157304999Y-99654999D03*
X158004999Y-105954999D03*
X158704999Y-84254999D03*
X158704999Y-101754999D03*
X160104999Y-86354999D03*
X160804999Y-99654999D03*
X147250000Y-91500000D03*
X147250000Y-90750000D03*
X147250000Y-90000000D03*
X147250000Y-89250000D03*
X147250000Y-88500000D03*
X147250000Y-87750000D03*
X147250000Y-87000000D03*
X147250000Y-86250000D03*
X147750000Y-85750000D03*
X148250000Y-85250000D03*
X148750000Y-84750000D03*
X149000000Y-90750000D03*
X149000000Y-90000000D03*
X149750000Y-90000000D03*
X149750000Y-89250000D03*
X149750000Y-88500000D03*
X149750000Y-87750000D03*
X149500000Y-87250000D03*
X148800000Y-87250000D03*
X149250000Y-86750000D03*
X149750000Y-86250000D03*
X144250000Y-87000000D03*
X144000000Y-90500000D03*
X146250000Y-88500000D03*
X153800000Y-88800000D03*
X154600000Y-88800000D03*
X153800000Y-88000000D03*
X153200000Y-87400000D03*
X152600000Y-87000000D03*
X152000000Y-86600000D03*
X151200000Y-86400000D03*
X150400000Y-86100000D03*
X151200000Y-84700000D03*
X154750000Y-84750000D03*
X155750000Y-84750000D03*
X154750000Y-85500000D03*
X154750000Y-86250000D03*
X155000000Y-86800000D03*
X155400000Y-87300000D03*
X155900000Y-87800000D03*
X156500000Y-88000000D03*
X156750000Y-88750000D03*
X156750000Y-89500000D03*
X156750000Y-90250000D03*
X156000000Y-90750000D03*
X155250000Y-90750000D03*
X154600000Y-90700000D03*
X157000000Y-86400000D03*
X158200000Y-89600000D03*
X162000000Y-101800000D03*
X141200000Y-92800000D03*
X141900000Y-92900000D03*
X142600000Y-92800000D03*
X143300000Y-92800000D03*
X144000000Y-92800000D03*
X144700000Y-92800000D03*
X145400000Y-92800000D03*
X146100000Y-92800000D03*
X141200000Y-94700000D03*
X141900000Y-94600000D03*
X142600000Y-94700000D03*
X143300000Y-94700000D03*
X144000000Y-94700000D03*
X144700000Y-94700000D03*
X145400000Y-94700000D03*
X146100000Y-94700000D03*
X146800000Y-94700000D03*
X147500000Y-94700000D03*
X148200000Y-94600000D03*
X148100000Y-92700000D03*
X158800000Y-92800000D03*
X158100000Y-92800000D03*
X157400000Y-92800000D03*
X156700000Y-92900000D03*
X156000000Y-92900000D03*
X155300000Y-92900000D03*
X154600000Y-92800000D03*
X153900000Y-92800000D03*
X153200000Y-92800000D03*
X152500000Y-92800000D03*
X151800000Y-92900000D03*
X148200000Y-95300000D03*
X158800000Y-94700000D03*
X158100000Y-94700000D03*
X157400000Y-94600000D03*
X156700000Y-94500000D03*
X156000000Y-94500000D03*
X155300000Y-94500000D03*
X154600000Y-94600000D03*
X153900000Y-94600000D03*
X153200000Y-94600000D03*
X152500000Y-94600000D03*
X151800000Y-94500000D03*
X156400000Y-91800000D03*
X147500000Y-92800000D03*
X146800000Y-92800000D03*
%TD*%
D15*
%TO.N,GND*%
X164340000Y-108340000D02*
X135660000Y-108340000D01*
X135660000Y-79660000D01*
X164340001Y-79660000D01*
X164340000Y-108340000D01*
%TA.AperFunction,Conductor*%
D16*
G36*
X164340000Y-108340000D02*
G01*
X135660000Y-108340000D01*
X135660000Y-79660000D01*
X164340001Y-79660000D01*
X164340000Y-108340000D01*
G37*
%TD.AperFunction*%
%TD*%
M02*
