%TF.GenerationSoftware,KiCad,Pcbnew,5.1.7*%
%TF.CreationDate,2020-12-15T08:17:55+00:00*%
%TF.ProjectId,QPL9065,51504c39-3036-4352-9e6b-696361645f70,rev?*%
%TF.SameCoordinates,Original*%
%TF.FileFunction,Paste,Top*%
%TF.FilePolarity,Positive*%
%FSLAX46Y46*%
G04 Gerber Fmt 4.6, Leading zero omitted, Abs format (unit mm)*
G04 Created by KiCad (PCBNEW 5.1.7) date 2020-12-15 08:17:55*
%MOMM*%
%LPD*%
G01*
G04 APERTURE LIST*
%ADD10R,0.730000X0.730000*%
%ADD11O,0.300000X0.750000*%
%ADD12O,0.750000X0.300000*%
%ADD13R,5.080000X1.500000*%
%ADD14R,1.500000X5.080000*%
G04 APERTURE END LIST*
D10*
%TO.C,U1*%
X150500000Y-94500000D03*
X149500000Y-94500000D03*
X149500000Y-93500000D03*
X150500000Y-93500000D03*
D11*
X149250000Y-92525000D03*
X149750000Y-92525000D03*
X150250000Y-92525000D03*
X150750000Y-92525000D03*
D12*
X151475000Y-93250000D03*
X151475000Y-93750000D03*
X151475000Y-94250000D03*
X151475000Y-94750000D03*
D11*
X150750000Y-95475000D03*
X150250000Y-95475000D03*
X149750000Y-95475000D03*
X149250000Y-95475000D03*
D12*
X148525000Y-94750000D03*
X148525000Y-94250000D03*
X148525000Y-93750000D03*
X148525000Y-93250000D03*
%TD*%
%TO.C,C5*%
G36*
G01*
X154755000Y-89972500D02*
X154755000Y-89627500D01*
G75*
G02*
X154902500Y-89480000I147500J0D01*
G01*
X155197500Y-89480000D01*
G75*
G02*
X155345000Y-89627500I0J-147500D01*
G01*
X155345000Y-89972500D01*
G75*
G02*
X155197500Y-90120000I-147500J0D01*
G01*
X154902500Y-90120000D01*
G75*
G02*
X154755000Y-89972500I0J147500D01*
G01*
G37*
G36*
G01*
X155725000Y-89972500D02*
X155725000Y-89627500D01*
G75*
G02*
X155872500Y-89480000I147500J0D01*
G01*
X156167500Y-89480000D01*
G75*
G02*
X156315000Y-89627500I0J-147500D01*
G01*
X156315000Y-89972500D01*
G75*
G02*
X156167500Y-90120000I-147500J0D01*
G01*
X155872500Y-90120000D01*
G75*
G02*
X155725000Y-89972500I0J147500D01*
G01*
G37*
%TD*%
%TO.C,C6*%
G36*
G01*
X156325000Y-88972500D02*
X156325000Y-88627500D01*
G75*
G02*
X156472500Y-88480000I147500J0D01*
G01*
X156767500Y-88480000D01*
G75*
G02*
X156915000Y-88627500I0J-147500D01*
G01*
X156915000Y-88972500D01*
G75*
G02*
X156767500Y-89120000I-147500J0D01*
G01*
X156472500Y-89120000D01*
G75*
G02*
X156325000Y-88972500I0J147500D01*
G01*
G37*
G36*
G01*
X155355000Y-88972500D02*
X155355000Y-88627500D01*
G75*
G02*
X155502500Y-88480000I147500J0D01*
G01*
X155797500Y-88480000D01*
G75*
G02*
X155945000Y-88627500I0J-147500D01*
G01*
X155945000Y-88972500D01*
G75*
G02*
X155797500Y-89120000I-147500J0D01*
G01*
X155502500Y-89120000D01*
G75*
G02*
X155355000Y-88972500I0J147500D01*
G01*
G37*
%TD*%
%TO.C,C7*%
G36*
G01*
X148775000Y-88322500D02*
X148775000Y-87977500D01*
G75*
G02*
X148922500Y-87830000I147500J0D01*
G01*
X149217500Y-87830000D01*
G75*
G02*
X149365000Y-87977500I0J-147500D01*
G01*
X149365000Y-88322500D01*
G75*
G02*
X149217500Y-88470000I-147500J0D01*
G01*
X148922500Y-88470000D01*
G75*
G02*
X148775000Y-88322500I0J147500D01*
G01*
G37*
G36*
G01*
X147805000Y-88322500D02*
X147805000Y-87977500D01*
G75*
G02*
X147952500Y-87830000I147500J0D01*
G01*
X148247500Y-87830000D01*
G75*
G02*
X148395000Y-87977500I0J-147500D01*
G01*
X148395000Y-88322500D01*
G75*
G02*
X148247500Y-88470000I-147500J0D01*
G01*
X147952500Y-88470000D01*
G75*
G02*
X147805000Y-88322500I0J147500D01*
G01*
G37*
%TD*%
%TO.C,C8*%
G36*
G01*
X147805000Y-89422500D02*
X147805000Y-89077500D01*
G75*
G02*
X147952500Y-88930000I147500J0D01*
G01*
X148247500Y-88930000D01*
G75*
G02*
X148395000Y-89077500I0J-147500D01*
G01*
X148395000Y-89422500D01*
G75*
G02*
X148247500Y-89570000I-147500J0D01*
G01*
X147952500Y-89570000D01*
G75*
G02*
X147805000Y-89422500I0J147500D01*
G01*
G37*
G36*
G01*
X148775000Y-89422500D02*
X148775000Y-89077500D01*
G75*
G02*
X148922500Y-88930000I147500J0D01*
G01*
X149217500Y-88930000D01*
G75*
G02*
X149365000Y-89077500I0J-147500D01*
G01*
X149365000Y-89422500D01*
G75*
G02*
X149217500Y-89570000I-147500J0D01*
G01*
X148922500Y-89570000D01*
G75*
G02*
X148775000Y-89422500I0J147500D01*
G01*
G37*
%TD*%
%TO.C,C12*%
G36*
G01*
X152287500Y-85956250D02*
X152287500Y-85443750D01*
G75*
G02*
X152506250Y-85225000I218750J0D01*
G01*
X152943750Y-85225000D01*
G75*
G02*
X153162500Y-85443750I0J-218750D01*
G01*
X153162500Y-85956250D01*
G75*
G02*
X152943750Y-86175000I-218750J0D01*
G01*
X152506250Y-86175000D01*
G75*
G02*
X152287500Y-85956250I0J218750D01*
G01*
G37*
G36*
G01*
X153862500Y-85956250D02*
X153862500Y-85443750D01*
G75*
G02*
X154081250Y-85225000I218750J0D01*
G01*
X154518750Y-85225000D01*
G75*
G02*
X154737500Y-85443750I0J-218750D01*
G01*
X154737500Y-85956250D01*
G75*
G02*
X154518750Y-86175000I-218750J0D01*
G01*
X154081250Y-86175000D01*
G75*
G02*
X153862500Y-85956250I0J218750D01*
G01*
G37*
%TD*%
%TO.C,L2*%
G36*
G01*
X148272500Y-91595000D02*
X147927500Y-91595000D01*
G75*
G02*
X147780000Y-91447500I0J147500D01*
G01*
X147780000Y-91152500D01*
G75*
G02*
X147927500Y-91005000I147500J0D01*
G01*
X148272500Y-91005000D01*
G75*
G02*
X148420000Y-91152500I0J-147500D01*
G01*
X148420000Y-91447500D01*
G75*
G02*
X148272500Y-91595000I-147500J0D01*
G01*
G37*
G36*
G01*
X148272500Y-90625000D02*
X147927500Y-90625000D01*
G75*
G02*
X147780000Y-90477500I0J147500D01*
G01*
X147780000Y-90182500D01*
G75*
G02*
X147927500Y-90035000I147500J0D01*
G01*
X148272500Y-90035000D01*
G75*
G02*
X148420000Y-90182500I0J-147500D01*
G01*
X148420000Y-90477500D01*
G75*
G02*
X148272500Y-90625000I-147500J0D01*
G01*
G37*
%TD*%
%TO.C,L5*%
G36*
G01*
X152171837Y-91440556D02*
X151809444Y-91078163D01*
G75*
G02*
X151809444Y-90768803I154680J154680D01*
G01*
X152118803Y-90459444D01*
G75*
G02*
X152428163Y-90459444I154680J-154680D01*
G01*
X152790556Y-90821837D01*
G75*
G02*
X152790556Y-91131197I-154680J-154680D01*
G01*
X152481197Y-91440556D01*
G75*
G02*
X152171837Y-91440556I-154680J154680D01*
G01*
G37*
G36*
G01*
X153285531Y-90326862D02*
X152923138Y-89964469D01*
G75*
G02*
X152923138Y-89655109I154680J154680D01*
G01*
X153232497Y-89345750D01*
G75*
G02*
X153541857Y-89345750I154680J-154680D01*
G01*
X153904250Y-89708143D01*
G75*
G02*
X153904250Y-90017503I-154680J-154680D01*
G01*
X153594891Y-90326862D01*
G75*
G02*
X153285531Y-90326862I-154680J154680D01*
G01*
G37*
%TD*%
D13*
%TO.C,J1*%
X137600000Y-93750000D03*
X137600000Y-98000000D03*
X137600000Y-89500000D03*
%TD*%
%TO.C,J2*%
X162400000Y-98000000D03*
X162400000Y-89500000D03*
X162400000Y-93750000D03*
%TD*%
D14*
%TO.C,J3*%
X150000000Y-81700000D03*
X145750000Y-81700000D03*
X154250000Y-81700000D03*
%TD*%
%TO.C,R1*%
G36*
G01*
X155173519Y-87929567D02*
X154929567Y-88173519D01*
G75*
G02*
X154720971Y-88173519I-104298J104298D01*
G01*
X154512375Y-87964923D01*
G75*
G02*
X154512375Y-87756327I104298J104298D01*
G01*
X154756327Y-87512375D01*
G75*
G02*
X154964923Y-87512375I104298J-104298D01*
G01*
X155173519Y-87720971D01*
G75*
G02*
X155173519Y-87929567I-104298J-104298D01*
G01*
G37*
G36*
G01*
X154487625Y-87243673D02*
X154243673Y-87487625D01*
G75*
G02*
X154035077Y-87487625I-104298J104298D01*
G01*
X153826481Y-87279029D01*
G75*
G02*
X153826481Y-87070433I104298J104298D01*
G01*
X154070433Y-86826481D01*
G75*
G02*
X154279029Y-86826481I104298J-104298D01*
G01*
X154487625Y-87035077D01*
G75*
G02*
X154487625Y-87243673I-104298J-104298D01*
G01*
G37*
%TD*%
%TO.C,R2*%
G36*
G01*
X148200726Y-86305322D02*
X148444678Y-86549274D01*
G75*
G02*
X148444678Y-86757870I-104298J-104298D01*
G01*
X148236082Y-86966466D01*
G75*
G02*
X148027486Y-86966466I-104298J104298D01*
G01*
X147783534Y-86722514D01*
G75*
G02*
X147783534Y-86513918I104298J104298D01*
G01*
X147992130Y-86305322D01*
G75*
G02*
X148200726Y-86305322I104298J-104298D01*
G01*
G37*
G36*
G01*
X148886620Y-85619428D02*
X149130572Y-85863380D01*
G75*
G02*
X149130572Y-86071976I-104298J-104298D01*
G01*
X148921976Y-86280572D01*
G75*
G02*
X148713380Y-86280572I-104298J104298D01*
G01*
X148469428Y-86036620D01*
G75*
G02*
X148469428Y-85828024I104298J104298D01*
G01*
X148678024Y-85619428D01*
G75*
G02*
X148886620Y-85619428I104298J-104298D01*
G01*
G37*
%TD*%
%TO.C,C2*%
G36*
G01*
X157485000Y-93922500D02*
X157485000Y-93577500D01*
G75*
G02*
X157632500Y-93430000I147500J0D01*
G01*
X157927500Y-93430000D01*
G75*
G02*
X158075000Y-93577500I0J-147500D01*
G01*
X158075000Y-93922500D01*
G75*
G02*
X157927500Y-94070000I-147500J0D01*
G01*
X157632500Y-94070000D01*
G75*
G02*
X157485000Y-93922500I0J147500D01*
G01*
G37*
G36*
G01*
X158455000Y-93922500D02*
X158455000Y-93577500D01*
G75*
G02*
X158602500Y-93430000I147500J0D01*
G01*
X158897500Y-93430000D01*
G75*
G02*
X159045000Y-93577500I0J-147500D01*
G01*
X159045000Y-93922500D01*
G75*
G02*
X158897500Y-94070000I-147500J0D01*
G01*
X158602500Y-94070000D01*
G75*
G02*
X158455000Y-93922500I0J147500D01*
G01*
G37*
%TD*%
%TO.C,R9*%
G36*
G01*
X153935000Y-93577500D02*
X153935000Y-93922500D01*
G75*
G02*
X153787500Y-94070000I-147500J0D01*
G01*
X153492500Y-94070000D01*
G75*
G02*
X153345000Y-93922500I0J147500D01*
G01*
X153345000Y-93577500D01*
G75*
G02*
X153492500Y-93430000I147500J0D01*
G01*
X153787500Y-93430000D01*
G75*
G02*
X153935000Y-93577500I0J-147500D01*
G01*
G37*
G36*
G01*
X152965000Y-93577500D02*
X152965000Y-93922500D01*
G75*
G02*
X152817500Y-94070000I-147500J0D01*
G01*
X152522500Y-94070000D01*
G75*
G02*
X152375000Y-93922500I0J147500D01*
G01*
X152375000Y-93577500D01*
G75*
G02*
X152522500Y-93430000I147500J0D01*
G01*
X152817500Y-93430000D01*
G75*
G02*
X152965000Y-93577500I0J-147500D01*
G01*
G37*
%TD*%
%TO.C,R10*%
G36*
G01*
X154742500Y-94045000D02*
X154397500Y-94045000D01*
G75*
G02*
X154250000Y-93897500I0J147500D01*
G01*
X154250000Y-93602500D01*
G75*
G02*
X154397500Y-93455000I147500J0D01*
G01*
X154742500Y-93455000D01*
G75*
G02*
X154890000Y-93602500I0J-147500D01*
G01*
X154890000Y-93897500D01*
G75*
G02*
X154742500Y-94045000I-147500J0D01*
G01*
G37*
G36*
G01*
X154742500Y-95015000D02*
X154397500Y-95015000D01*
G75*
G02*
X154250000Y-94867500I0J147500D01*
G01*
X154250000Y-94572500D01*
G75*
G02*
X154397500Y-94425000I147500J0D01*
G01*
X154742500Y-94425000D01*
G75*
G02*
X154890000Y-94572500I0J-147500D01*
G01*
X154890000Y-94867500D01*
G75*
G02*
X154742500Y-95015000I-147500J0D01*
G01*
G37*
%TD*%
%TO.C,C1*%
G36*
G01*
X142802500Y-94045000D02*
X142457500Y-94045000D01*
G75*
G02*
X142310000Y-93897500I0J147500D01*
G01*
X142310000Y-93602500D01*
G75*
G02*
X142457500Y-93455000I147500J0D01*
G01*
X142802500Y-93455000D01*
G75*
G02*
X142950000Y-93602500I0J-147500D01*
G01*
X142950000Y-93897500D01*
G75*
G02*
X142802500Y-94045000I-147500J0D01*
G01*
G37*
G36*
G01*
X142802500Y-95015000D02*
X142457500Y-95015000D01*
G75*
G02*
X142310000Y-94867500I0J147500D01*
G01*
X142310000Y-94572500D01*
G75*
G02*
X142457500Y-94425000I147500J0D01*
G01*
X142802500Y-94425000D01*
G75*
G02*
X142950000Y-94572500I0J-147500D01*
G01*
X142950000Y-94867500D01*
G75*
G02*
X142802500Y-95015000I-147500J0D01*
G01*
G37*
%TD*%
%TO.C,C9*%
G36*
G01*
X146055000Y-93922500D02*
X146055000Y-93577500D01*
G75*
G02*
X146202500Y-93430000I147500J0D01*
G01*
X146497500Y-93430000D01*
G75*
G02*
X146645000Y-93577500I0J-147500D01*
G01*
X146645000Y-93922500D01*
G75*
G02*
X146497500Y-94070000I-147500J0D01*
G01*
X146202500Y-94070000D01*
G75*
G02*
X146055000Y-93922500I0J147500D01*
G01*
G37*
G36*
G01*
X147025000Y-93922500D02*
X147025000Y-93577500D01*
G75*
G02*
X147172500Y-93430000I147500J0D01*
G01*
X147467500Y-93430000D01*
G75*
G02*
X147615000Y-93577500I0J-147500D01*
G01*
X147615000Y-93922500D01*
G75*
G02*
X147467500Y-94070000I-147500J0D01*
G01*
X147172500Y-94070000D01*
G75*
G02*
X147025000Y-93922500I0J147500D01*
G01*
G37*
%TD*%
%TO.C,L1*%
G36*
G01*
X144810000Y-93577500D02*
X144810000Y-93922500D01*
G75*
G02*
X144662500Y-94070000I-147500J0D01*
G01*
X144367500Y-94070000D01*
G75*
G02*
X144220000Y-93922500I0J147500D01*
G01*
X144220000Y-93577500D01*
G75*
G02*
X144367500Y-93430000I147500J0D01*
G01*
X144662500Y-93430000D01*
G75*
G02*
X144810000Y-93577500I0J-147500D01*
G01*
G37*
G36*
G01*
X143840000Y-93577500D02*
X143840000Y-93922500D01*
G75*
G02*
X143692500Y-94070000I-147500J0D01*
G01*
X143397500Y-94070000D01*
G75*
G02*
X143250000Y-93922500I0J147500D01*
G01*
X143250000Y-93577500D01*
G75*
G02*
X143397500Y-93430000I147500J0D01*
G01*
X143692500Y-93430000D01*
G75*
G02*
X143840000Y-93577500I0J-147500D01*
G01*
G37*
%TD*%
%TO.C,L4*%
G36*
G01*
X145257500Y-94425000D02*
X145602500Y-94425000D01*
G75*
G02*
X145750000Y-94572500I0J-147500D01*
G01*
X145750000Y-94867500D01*
G75*
G02*
X145602500Y-95015000I-147500J0D01*
G01*
X145257500Y-95015000D01*
G75*
G02*
X145110000Y-94867500I0J147500D01*
G01*
X145110000Y-94572500D01*
G75*
G02*
X145257500Y-94425000I147500J0D01*
G01*
G37*
G36*
G01*
X145257500Y-93455000D02*
X145602500Y-93455000D01*
G75*
G02*
X145750000Y-93602500I0J-147500D01*
G01*
X145750000Y-93897500D01*
G75*
G02*
X145602500Y-94045000I-147500J0D01*
G01*
X145257500Y-94045000D01*
G75*
G02*
X145110000Y-93897500I0J147500D01*
G01*
X145110000Y-93602500D01*
G75*
G02*
X145257500Y-93455000I147500J0D01*
G01*
G37*
%TD*%
M02*
